<?xml version="1.0" encoding="UTF-8"?>
<svg width="1200pt" height="1200pt" version="1.1" viewBox="0 0 1200 1200" xmlns="http://www.w3.org/2000/svg">
 <g fill="#fff">
  <path d="m1008 844.8c-27.602 10.801-74.398 22.801-124.8 33.602-18 30-51.602 54-103.2 63.602-12 2.3984-25.199 3.6016-40.801 3.6016-36 1.1992-78-2.3984-124.8-7.1992-3.6016 0-6 0-9.6016-1.1992-10.801-1.1992-21.602-9.6016-22.801-20.398-1.1992-14.398 10.801-26.398 25.199-25.199 3.6016 0 7.1992 1.1992 10.801 1.1992 60 4.8008 117.6 9.6016 153.6 3.6016 66-12 85.199-52.801 81.602-87.602-3.6016-27.602-24-54-56.398-51.602-46.801 3.6016-102 0-154.8-3.6016-61.199-4.8008-124.8-6-169.2-1.1992-49.199 6-151.2 42-240 103.2-43.199 30-92.398 64.801-121.2 86.398-14.398 10.801-18 32.398-6 46.801l129.6 168c10.801 14.398 31.199 16.801 45.602 6l48-37.199c10.801-8.3984 26.398-10.801 39.602-7.1992 87.602 27.602 180 45.602 241.2 49.199 130.79 7.1953 386.39-150 458.39-200.41 73.199-50.398 20.398-152.4-60-122.4z"/>
  <path d="m472.8 356.4h44.398v256.8c0 15.602 12 27.602 27.602 27.602h115.2c15.602 0 27.602-12 27.602-37.199v-90c0-28.801 19.199-54 46.801-58.801 19.199-3.6016 38.398 3.6016 50.398 15.602 10.801 10.801 16.801 25.199 16.801 40.801v102c0 15.602 12 27.602 27.602 27.602h115.2c15.602 0 27.602-12 27.602-27.602l-0.003906-256.8h44.398c25.199 0 37.199-30 19.199-46.801l-271.2-271.2c-10.801-10.801-28.801-10.801-39.602 0l-271.2 271.2c-18 18-4.8008 46.797 19.199 46.797z"/>
 </g>
</svg>
