<?xml version="1.0" encoding="UTF-8" standalone="no"?>
<!DOCTYPE svg PUBLIC "-//W3C//DTD SVG 1.1//EN"
 "http://www.w3.org/Graphics/SVG/1.1/DTD/svg11.dtd">
<!-- Generated by graphviz version 10.0.1 (20240210.2158)
 -->
<!-- Title: G Pages: 1 -->
<svg width="201pt" height="102pt"
 viewBox="0.00 0.00 200.75 101.60" xmlns="http://www.w3.org/2000/svg" xmlns:xlink="http://www.w3.org/1999/xlink">
<g id="graph0" class="graph" transform="scale(1 1) rotate(0) translate(4 97.6)">
<title>G</title>
<polygon fill="white" stroke="none" points="-4,4 -4,-97.6 196.75,-97.6 196.75,4 -4,4"/>
<!-- api 1 -->
<g id="node1" class="node">
<title>api 1</title>
<polygon fill="white" stroke="white" points="62,-93.6 0,-93.6 0,0 62,0 62,-93.6"/>
<image xlink:href="../../icons/backend.png" width="62px" height="80px" preserveAspectRatio="xMinYMin meet" x="0" y="-93.6"/>
<text text-anchor="middle" x="31" y="-2.9" font-family="Tahoma" font-size="8.00">api 1</text>
</g>
<!-- Capability A1 -->
<g id="node2" class="node">
<title>Capability A1</title>
<polygon fill="grey" stroke="white" points="192.75,-91.8 98,-91.8 98,-55.8 192.75,-55.8 192.75,-91.8"/>
<text text-anchor="middle" x="145.38" y="-69.13" font-family="Tahoma" font-size="14.00">Capability A1</text>
</g>
<!-- api 1&#45;&gt;Capability A1 -->
<g id="edge1" class="edge">
<title>api 1&#45;&gt;Capability A1</title>
<path fill="none" stroke="#00688b" d="M62.41,-54.11C70,-55.93 78.4,-57.95 86.83,-59.97"/>
<polygon fill="#00688b" stroke="#00688b" points="85.87,-63.34 96.41,-62.28 87.5,-56.54 85.87,-63.34"/>
</g>
<!-- Capability A2 -->
<g id="node3" class="node">
<title>Capability A2</title>
<polygon fill="grey" stroke="white" points="192.75,-37.8 98,-37.8 98,-1.8 192.75,-1.8 192.75,-37.8"/>
<text text-anchor="middle" x="145.38" y="-15.13" font-family="Tahoma" font-size="14.00">Capability A2</text>
</g>
<!-- api 1&#45;&gt;Capability A2 -->
<g id="edge2" class="edge">
<title>api 1&#45;&gt;Capability A2</title>
<path fill="none" stroke="#00688b" d="M62.41,-39.49C70,-37.67 78.4,-35.65 86.83,-33.63"/>
<polygon fill="#00688b" stroke="#00688b" points="87.5,-37.06 96.41,-31.32 85.87,-30.26 87.5,-37.06"/>
</g>
</g>
</svg>
