<svg width="438" height="438" xmlns="http://www.w3.org/2000/svg" xmlns:xlink="http://www.w3.org/1999/xlink" xml:space="preserve" overflow="hidden"><defs><clipPath id="clip0"><rect x="687" y="-163" width="438" height="438"/></clipPath><linearGradient x1="1078.36" y1="31.7252" x2="915.198" y2="159.089" gradientUnits="userSpaceOnUse" spreadMethod="pad" id="fill1"><stop offset="0" stop-color="#0052CC"/><stop offset="0.176" stop-color="#0052CC"/><stop offset="1" stop-color="#2684FF"/></linearGradient></defs><g clip-path="url(#clip0)" transform="translate(-687 163)"><path d="M752.295-94.5625C745.732-94.5625 740.809-88.5456 741.903-82.5287L786.209 188.778C787.303 195.89 793.32 200.812 800.431 200.812L1014.85 200.812C1019.77 200.812 1024.15 196.984 1025.24 192.061L1070.1-81.9816C1071.19-88.5456 1066.27-94.0154 1059.71-94.0154L752.295-94.5625ZM940.461 101.26 872.086 101.26 854.035 4.4433 957.417 4.4433 940.461 101.26Z" fill="#2684FF"/><path d="M1055.33 4.4433 956.87 4.4433 940.46 101.26 872.085 101.26 791.678 196.984C791.678 196.984 795.507 200.266 800.977 200.266L1015.4 200.266C1020.32 200.266 1024.7 196.436 1025.79 191.513L1055.33 4.4433Z" fill="url(#fill1)"/></g></svg>