<?xml version="1.0" encoding="UTF-8"?>
<svg width="100pt" height="100pt" version="1.1" viewBox="0 0 100 100" xmlns="http://www.w3.org/2000/svg">
 <path d="m77.344 90.605v1.4648c0 0.86328-0.70312 1.5664-1.5625 1.5664h-62.5c-0.86328 0-1.5625-0.70312-1.5625-1.5664v-84.375c0-0.86328 0.69922-1.5625 1.5625-1.5625h62.5c0.85938 0 1.5625 0.69922 1.5625 1.5625v67.773c0.52344 0.23438 1.0078 0.55859 1.4219 0.97266l8.1406 8.1406c0.87891 0.88281 1.375 2.0781 1.375 3.3164 0 1.2461-0.49609 2.4336-1.375 3.3164l-1.1602 1.1641c-0.87891 0.875-2.0703 1.3672-3.3164 1.3672-1.2422 0-2.4336-0.49219-3.3125-1.3672zm-48.438-81.344h-14.062v81.246h59.375v-3.0312l-3.2422-3.2383c-0.87891-0.88281-1.375-2.0703-1.375-3.3164 0-0.99219 0.31641-1.9531 0.89453-2.7461l-0.66406-0.66797c-0.10156 0.089844-0.19922 0.17578-0.30078 0.25781v8.0547c0 0.86328-0.70312 1.5664-1.5625 1.5664h-46.875c-0.86328 0-1.5625-0.70312-1.5625-1.5664v-71.871c0-0.86328 0.69922-1.5664 1.5625-1.5664h7.8125zm28.125 0h-25v6.25c0 0.41406 0.16406 0.8125 0.45703 1.1016 0.29297 0.29297 0.69141 0.45703 1.1055 0.45703h21.875c0.41406 0 0.8125-0.16406 1.1055-0.45703 0.29297-0.28906 0.45703-0.6875 0.45703-1.1016zm17.188 65.973v-2.9453c-0.64062 1.0664-1.3672 2.0781-2.1797 3.0117l0.66406 0.66016c0.45703-0.32813 0.97266-0.57422 1.5156-0.72656zm0-24.777v-41.195h-14.062v3.1211h7.8125c0.85938 0 1.5625 0.70313 1.5625 1.5664v31.027c1.8555 1.5469 3.4414 3.3945 4.6875 5.4805zm-1.0352 31.566 8.1406 8.1406c0.29297 0.29688 0.69141 0.46094 1.1055 0.46094 0.41406 0 0.8125-0.16406 1.1055-0.46094l1.1641-1.1602c0.29297-0.29297 0.45703-0.69141 0.45703-1.1055 0-0.41406-0.16406-0.8125-0.45703-1.1016l-8.1406-8.1406c-0.0625-0.066406-0.12891-0.125-0.20312-0.16797-0.26172-0.1875-0.57422-0.29297-0.90234-0.29297-0.41406 0-0.8125 0.16797-1.1055 0.46094l-1.1641 1.1602c-0.28906 0.29297-0.45703 0.69141-0.45703 1.1055s0.16797 0.8125 0.45703 1.1016zm-44.277-66.512h-6.25v68.746h43.75v-4.3281c-3.1016 1.7578-6.6875 2.7617-10.504 2.7617-11.766 0-21.324-9.5508-21.324-21.32 0-11.766 9.5586-21.32 21.324-21.32 3.8164 0 7.4023 1 10.504 2.7656v-27.305h-6.25c0 1.2383-0.49609 2.4336-1.375 3.3086-0.875 0.88281-2.0664 1.3789-3.3125 1.3789h-21.875c-1.2461 0-2.4375-0.49609-3.3125-1.3789-0.87891-0.875-1.375-2.0703-1.375-3.3086zm40.625 57.914c2.8398-3.2148 4.5664-7.4336 4.5664-12.055s-1.7266-8.8438-4.5664-12.051c-0.92969-1.0508-1.9766-1.9922-3.125-2.8125-2.9688-2.1016-6.5938-3.3359-10.504-3.3359-10.047 0-18.199 8.1523-18.199 18.199 0 10.043 8.1523 18.199 18.199 18.199 3.9102 0 7.5352-1.2383 10.504-3.3398 0.83984-0.59766 1.6328-1.2656 2.3594-1.9922 0.26562-0.26953 0.51953-0.53516 0.76562-0.8125zm-40.625-35.926c-0.86328 0-1.5625-0.69922-1.5625-1.5625s0.69922-1.5664 1.5625-1.5664h21.875c0.85938 0 1.5625 0.70312 1.5625 1.5664s-0.70312 1.5625-1.5625 1.5625zm0-12.5c-0.86328 0-1.5625-0.69922-1.5625-1.5625s0.69922-1.5664 1.5625-1.5664h7.8125c0.85938 0 1.5625 0.70312 1.5625 1.5664s-0.70312 1.5625-1.5625 1.5625zm14.062 0c-0.86328 0-1.5625-0.69922-1.5625-1.5625s0.69922-1.5664 1.5625-1.5664h17.188c0.85938 0 1.5625 0.70312 1.5625 1.5664s-0.70312 1.5625-1.5625 1.5625zm-14.062 6.25c-0.86328 0-1.5625-0.69922-1.5625-1.5625s0.69922-1.5664 1.5625-1.5664h12.5c0.85938 0 1.5625 0.70312 1.5625 1.5664s-0.70312 1.5625-1.5625 1.5625zm0 12.5c-0.86328 0-1.5625-0.69922-1.5625-1.5625s0.69922-1.5664 1.5625-1.5664h10.938c0.85938 0 1.5625 0.70312 1.5625 1.5664s-0.70312 1.5625-1.5625 1.5625zm17.188-12.5c-0.86328 0-1.5625-0.69922-1.5625-1.5625s0.69922-1.5664 1.5625-1.5664h7.8125c0.85938 0 1.5625 0.70312 1.5625 1.5664s-0.70312 1.5625-1.5625 1.5625z" fill-rule="evenodd"/>
</svg>
