<?xml version="1.0" encoding="UTF-8"?>
<svg width="100pt" height="100pt" version="1.1" viewBox="0 0 100 100" xmlns="http://www.w3.org/2000/svg">
 <path d="m69.344 12.5h-38.688c-8.2812 0-15.031 6.75-15.031 15.031v38.688c0 8.2812 6.75 15.031 15.031 15.031h25.094c1.7188 0 3.125-1.4062 3.125-3.125s-1.4062-3.125-3.125-3.125h-25.094c-4.8438 0-8.7812-3.9375-8.7812-8.7812v-38.688c0-4.8438 3.9375-8.7812 8.7812-8.7812h38.688c4.8438 0 8.7812 3.9375 8.7812 8.7812v53.656l-7.5-5.5938c-1.375-1.0312-3.3438-0.75-4.375 0.65625-1.0312 1.375-0.75 3.3438 0.65625 4.375l12.5 9.2812c0.5625 0.40625 1.2188 0.625 1.875 0.625 0.46875 0 0.96875-0.125 1.4062-0.34375 1.0625-0.53125 1.7188-1.625 1.7188-2.7812v-59.875c0-8.2812-6.75-15.031-15.031-15.031z"/>
 <path d="m40.625 40.312v-5.9375c0-1.7188-1.4062-3.125-3.125-3.125s-3.125 1.4062-3.125 3.125v5.9375c0 1.7188 1.4062 3.125 3.125 3.125s3.125-1.4062 3.125-3.125z"/>
 <path d="m62.5 31.25c-1.7188 0-3.125 1.4062-3.125 3.125v5.9375c0 1.7188 1.4062 3.125 3.125 3.125s3.125-1.4062 3.125-3.125v-5.9375c0-1.7188-1.4062-3.125-3.125-3.125z"/>
 <path d="m60.281 53.969c-7.0938 7.1562-13.469 7.1562-20.562 0-1.2188-1.2188-3.1875-1.25-4.4062 0-1.2188 1.2188-1.25 3.1875 0 4.4062 4.75 4.8125 9.7188 7.2812 14.719 7.2812s9.9688-2.4375 14.719-7.2812c1.2188-1.2188 1.1875-3.2188 0-4.4062-1.2188-1.2188-3.2188-1.1875-4.4062 0z"/>
</svg>
