<?xml version="1.0" encoding="UTF-8"?>
<svg width="100pt" height="100pt" version="1.1" viewBox="0 0 100 100" xmlns="http://www.w3.org/2000/svg">
 <path d="m62.094 59.113h9.293c4.5273 0.0625 8.9062-1.625 12.223-4.7109 3.3164-3.082 5.3125-7.3281 5.5781-11.852 0.22656-4.75-1.5-9.3906-4.7852-12.836-3.2812-3.4414-7.832-5.3906-12.59-5.3906h-1.3945c-0.44531 0.035156-0.86719-0.21484-1.043-0.625-2.0391-5.2266-6.1016-9.4023-11.27-11.582-5.1641-2.1836-10.992-2.1836-16.16 0-5.1641 2.1797-9.2305 6.3555-11.27 11.582-0.16797 0.41797-0.58984 0.67969-1.0391 0.64453-0.54297-0.050781-1.1055-0.082031-1.6562-0.082031-4.7578 0-9.3086 1.9492-12.594 5.3906-3.2812 3.4453-5.0117 8.0859-4.7812 12.836 0.26562 4.5234 2.2617 8.7695 5.5781 11.852 3.3164 3.0859 7.6953 4.7734 12.223 4.7109h0.98047c1.2656 3.3086 3.5117 6.1523 6.4297 8.1562 2.9219 2 6.3828 3.0703 9.9219 3.0625h0.38672c3.9414-0.078125 7.7422-1.4883 10.781-4l1.9805 1.9062v0.0625c-1.1641 1.1836-1.8086 2.7812-1.793 4.4414 0.015625 1.6562 0.69141 3.2422 1.875 4.4023l10.418 10c1.1641 1.1133 2.7109 1.7305 4.3203 1.7305h0.13672c1.6602-0.035156 3.2383-0.72656 4.3867-1.9258l3-3.125c2.3398-2.4805 2.2617-6.3789-0.17969-8.7617l-10.418-9.9883h0.003907c-2.4922-2.3867-6.4453-2.3047-8.8359 0.1875l-0.0625 0.0625-1.9883-1.9062c0.97266-1.3008 1.7617-2.7266 2.3438-4.2422zm4.168 8.332v0.003907c0.53906-0.003907 1.0547 0.19922 1.4453 0.57031l10.418 10c0.39844 0.38281 0.63281 0.90625 0.64453 1.4609 0.011719 0.55469-0.19531 1.0898-0.58203 1.4883l-3 3.125c-0.38281 0.39453-0.90625 0.625-1.457 0.63672-0.55469 0.011719-1.0898-0.19141-1.4922-0.57422l-10.418-10h0.003907c-0.82812-0.79297-0.86328-2.1055-0.074219-2.9375l3.0117-3.125c0.37891-0.42578 0.91797-0.67969 1.4883-0.69922zm-51.543-25v0.003907c-0.19922-3.6289 1.1016-7.1836 3.6016-9.8242 2.4961-2.6406 5.9727-4.1367 9.6055-4.1367 0.42578 0 0.85547 0 1.2695 0.0625h0.003907c2.3086 0.21875 4.4844-1.1211 5.332-3.2812 1.6289-4.1758 4.8789-7.5156 9.0078-9.2617 4.1328-1.7422 8.7891-1.7422 12.922 0 4.1289 1.7461 7.3789 5.0859 9.0078 9.2617 0.84766 2.1367 2.9922 3.4648 5.2812 3.2734h1.043c3.6133-0.011719 7.0742 1.4609 9.5742 4.0703 2.4961 2.6094 3.8203 6.1289 3.6523 9.7422-0.44531 7.168-6.4531 12.719-13.633 12.594h-8.2734c0.63672-5.0039-0.90625-10.043-4.2422-13.828-3.332-3.7852-8.1328-5.9531-13.18-5.9531-5.043 0-9.8438 2.168-13.18 5.9531-3.332 3.7852-4.8789 8.8242-4.2422 13.828-7.1484 0.074219-13.109-5.4609-13.562-12.594zm31.25 23.801v0.003906c-3.5547 0.054688-6.9805-1.3203-9.5117-3.8125-3.9219-3.75-5.1953-9.4961-3.2266-14.555 1.9688-5.0547 6.793-8.4297 12.219-8.5391h0.29297-0.003907c7.4062-0.078125 13.469 5.8633 13.547 13.266s-5.8594 13.469-13.266 13.547z"/>
 <path d="m38.969 49.895c-1.1523 0-2.082 0.93359-2.082 2.0859v5.0508c0 0.55078 0.21875 1.082 0.60938 1.4727s0.92188 0.60938 1.4727 0.60938 1.082-0.21875 1.4727-0.60938 0.60938-0.92188 0.60938-1.4727v-5.043c0.003907-0.55469-0.21484-1.0859-0.60547-1.4805-0.39062-0.39062-0.92187-0.61328-1.4766-0.61328z"/>
 <path d="m45.707 46.375c-1.1484 0-2.082 0.93359-2.082 2.082v8.5938c0 0.55469 0.21875 1.082 0.60938 1.4727 0.39062 0.39062 0.92188 0.61328 1.4727 0.61328 0.55469 0 1.082-0.22266 1.4727-0.61328 0.39062-0.39063 0.61328-0.91797 0.61328-1.4727v-8.5938c0-0.55078-0.22266-1.082-0.61328-1.4727-0.39063-0.39062-0.91797-0.60938-1.4727-0.60938z"/>
 <path d="m52.438 49.926c-1.1523 0-2.082 0.93359-2.082 2.0859v5.0508c0 0.55078 0.21875 1.082 0.60938 1.4727s0.92188 0.60938 1.4727 0.60938 1.082-0.21875 1.4727-0.60938 0.60938-0.92188 0.60938-1.4727v-5.043c0.003907-0.55469-0.21484-1.0859-0.60547-1.4805-0.39062-0.39062-0.92187-0.61328-1.4766-0.61328z"/>
</svg>
