<?xml version="1.0" encoding="UTF-8"?>
<svg width="100pt" height="100pt" version="1.1" viewBox="0 0 100 100" xmlns="http://www.w3.org/2000/svg">
 <path d="m72.797 69.887c-3.3008 2.8281-7.5898 4.5352-12.273 4.5352-10.426 0-18.875-8.4492-18.875-18.871 0-10.426 8.4492-18.875 18.875-18.875 10.422 0 18.871 8.4492 18.871 18.875 0 4.0195-1.2578 7.7422-3.3984 10.805l5.9062 5.7578 0.21484-0.21875c0.65234-0.67578 1.7461-0.69531 2.4258-0.039062l10.363 10.059c0.67578 0.65625 0.69141 1.7461 0.03125 2.4258l-3.7383 3.8555c-0.65625 0.67578-1.7461 0.69141-2.4297 0.039063l-10.359-10.059c-0.67969-0.65625-0.69531-1.7539-0.035156-2.4297l0.21094-0.21484zm-12.273-28.809c-7.9961 0-14.473 6.4805-14.473 14.473 0 7.9922 6.4766 14.469 14.473 14.469 7.9883 0 14.469-6.4766 14.469-14.469 0-7.9922-6.4805-14.473-14.469-14.473zm-2.6523 9.6797c0 1.0039-0.8125 1.8164-1.8125 1.8164-1.0039 0-1.8164-0.8125-1.8164-1.8164 0-1.7344 0.69922-3.3047 1.8398-4.4375 1.1367-1.1406 2.7031-1.8398 4.4414-1.8398 1.7344 0 3.3008 0.69922 4.4375 1.8398 1.1406 1.1328 1.8398 2.7031 1.8398 4.4375 0 1.2383-0.35547 2.3906-0.97656 3.3594-0.63281 1.0039-1.5469 1.8125-2.6328 2.3242-0.27344 0.125-0.49219 0.31641-0.63281 0.54688-0.14453 0.22656-0.22266 0.50391-0.22266 0.80859v0.89453c0 1-0.8125 1.8125-1.8125 1.8125-1.0039 0-1.8164-0.8125-1.8164-1.8125v-0.89453c0-1.0039 0.28125-1.9453 0.78906-2.75 0.50781-0.80078 1.2383-1.4492 2.1562-1.8789 0.45312-0.21875 0.83984-0.5625 1.1133-0.99219 0.25781-0.40625 0.41016-0.89453 0.41016-1.418 0-0.73047-0.29688-1.3945-0.77734-1.8711-0.48438-0.48438-1.1445-0.77734-1.875-0.77734-0.73438 0-1.3984 0.29297-1.875 0.77734-0.48438 0.47656-0.77734 1.1406-0.77734 1.8711zm2.6523 12.234c1 0 1.8125 0.8125 1.8125 1.8125s-0.8125 1.8125-1.8125 1.8125c-1.0039 0-1.8164-0.8125-1.8164-1.8125s0.8125-1.8125 1.8164-1.8125zm5.2148 13.832v8.668c0 1.9375-1.5781 3.5156-3.5117 3.5156h-54.105c-1.9375 0-3.5156-1.5781-3.5156-3.5156v-64.648c0-1.9336 1.5781-3.5156 3.5156-3.5156h10.496v3.375h-9.125c-0.83594 0-1.5156 0.67969-1.5156 1.5156v61.902c0 0.83594 0.67969 1.5156 1.5156 1.5156h51.359c0.83594 0 1.5156-0.67969 1.5156-1.5156v-6.75c1.1523-0.09375 2.2773-0.28125 3.3711-0.54688zm-6.3984 0.59375v5.1914h-48.336v-58.879h7.6289c0.16797 2.0391 1.875 3.6367 3.957 3.6367h25.164c2.082 0 3.7891-1.5977 3.9609-3.6367h7.625v9.9492c-11.547 0.61328-20.719 10.168-20.719 21.871 0 11.699 9.1719 21.254 20.719 21.867zm-43.141-18.129h13.359c0.83594 0 1.5117-0.67578 1.5117-1.5117 0-0.83594-0.67578-1.5156-1.5117-1.5156h-13.359c-0.83594 0-1.5156 0.67969-1.5156 1.5156 0 0.83594 0.67969 1.5117 1.5156 1.5117zm0 12.895h24.145c0.83594 0 1.5117-0.67969 1.5117-1.5156 0-0.83594-0.67578-1.5117-1.5117-1.5117h-24.145c-0.83594 0-1.5156 0.67578-1.5156 1.5117 0 0.83594 0.67969 1.5156 1.5156 1.5156zm0 6.4453h32.199c0.83594 0 1.5156-0.67969 1.5156-1.5156 0-0.83203-0.67969-1.5117-1.5156-1.5117h-32.199c-0.83594 0-1.5156 0.67969-1.5156 1.5117 0 0.83594 0.67969 1.5156 1.5156 1.5156zm12.188-46.504c-0.34375-0.59375-0.94922-0.94531-1.6367-0.94531s-1.2969 0.35156-1.6406 0.94531l-8.6523 14.992c-0.34375 0.59375-0.34375 1.2969 0 1.8906s0.94922 0.94531 1.6367 0.94531h17.309c0.6875 0 1.293-0.35156 1.6406-0.94531 0.34375-0.59375 0.34375-1.2969 0-1.8906zm-1.6055 11.859c-0.54297 0-0.98828-0.42969-1.0078-0.97266l-0.28906-6.0977c-0.011719-0.28516 0.085937-0.53125 0.28125-0.73828 0.19922-0.20312 0.44141-0.30859 0.72656-0.30859h0.51172c0.28516 0 0.53125 0.10547 0.72656 0.30859 0.19922 0.20703 0.29297 0.45312 0.28125 0.73828l-0.21875 6.0977c-0.019531 0.54297-0.46484 0.97266-1.0117 0.97266zm-0.03125 3.5c-0.71484 0-1.2969-0.57812-1.2969-1.293 0-0.71094 0.58203-1.293 1.2969-1.293 0.71094 0 1.293 0.58203 1.293 1.293 0 0.71484-0.58203 1.293-1.293 1.293zm-10.551 18.25h18.309c0.83203 0 1.5117-0.67578 1.5117-1.5117 0-0.83594-0.67969-1.5117-1.5117-1.5117h-18.309c-0.83594 0-1.5156 0.67578-1.5156 1.5117 0 0.83594 0.67969 1.5117 1.5156 1.5117zm46.168-32.008v-11.508c0-0.83594-0.67969-1.5156-1.5156-1.5156h-9.125v-3.375h10.5c1.9336 0 3.5117 1.582 3.5117 3.5156v13.43c-1.0938-0.26563-2.2188-0.45313-3.3711-0.54688zm-40.723-17.574c0-0.25 0.10156-0.49219 0.27734-0.66797 0.17578-0.17969 0.41797-0.27734 0.66797-0.27734h6.7773c0.62891-2.6211 2.9922-4.5703 5.8047-4.5703s5.1758 1.9492 5.8086 4.5703h6.7734c0.52344 0 0.94531 0.42188 0.94531 0.94531v7.2422c0 0.52344-0.42188 0.94531-0.94531 0.94531h-25.164c-0.52344 0-0.94531-0.42188-0.94531-0.94531zm13.527 1.0977c0.94531 0 1.7148-0.77344 1.7148-1.7148 0-0.94531-0.76953-1.7109-1.7148-1.7109s-1.7109 0.76562-1.7109 1.7109c0 0.94141 0.76562 1.7148 1.7109 1.7148z" fill-rule="evenodd"/>
</svg>
