<svg width="432" height="78" viewBox="0 0 432 78" fill="none" xmlns="http://www.w3.org/2000/svg">
<path d="M38.9387 35.429C38.9387 34.0157 38.8934 32.6779 38.8934 31.5065C38.8934 24.0545 35.3186 20.3286 32.3182 18.5147C29.2526 16.8134 25.7946 15.9456 22.289 15.998C14.8522 15.998 9.37282 18.0915 5.98694 22.2105C4.03468 24.6517 2.85571 27.6201 2.60106 30.7356C2.5935 30.816 2.5935 30.897 2.60106 30.9774C2.6941 31.973 3.1588 32.8968 3.90258 33.5648C4.64634 34.233 5.61454 34.5964 6.61424 34.5825C7.55884 34.6788 8.50435 34.4085 9.25542 33.8277C10.0065 33.2468 10.5058 32.3996 10.6501 31.4611C11.5117 27.4556 13.4238 23.7446 21.5937 23.7446C25.9243 23.7446 28.7509 24.6365 30.2322 26.473C30.7403 27.0216 31.1262 27.6718 31.3645 28.3804C31.603 29.0892 31.6885 29.8403 31.6154 30.5845C31.6154 31.9449 31.1014 33.6075 27.0807 34.4918C24.4733 35.0587 21.7298 35.376 19.077 35.6784L17.8073 35.8296C2.76732 37.6057 0.5 45.5413 0.5 50.1062C0.5 58.3894 10.4611 63.0754 17.6561 63.302C18.0114 63.302 18.4647 63.302 18.9863 63.302C21.7075 63.3617 24.414 62.8866 26.9522 61.9039L27.1714 61.8132C29.6588 60.8653 31.9123 59.3913 33.7776 57.4921C35.6428 55.5928 37.076 53.3132 37.979 50.809C39.1504 47.6575 39.0447 41.1578 38.9387 35.429ZM31.2903 43.8559C31.2903 53.3484 22.1757 55.4268 18.6614 55.4268C13.8697 55.4268 8.70774 52.8799 8.70774 48.7533C8.70774 44.3093 12.7058 42.9112 21.1101 41.6264C23.2942 41.2939 26.8539 40.6665 29.2119 40.2131C29.926 40.0641 30.6225 39.8413 31.2903 39.548V43.8559Z" fill="#1E2430"/>
<path d="M46.2095 20.6459C46.2095 18.7943 47.1316 17.8647 48.9908 17.8647H50.9332C52.7848 17.8647 53.7144 18.7943 53.7144 20.2302V22.7546C53.7138 23.5133 53.6583 24.2711 53.5481 25.0218H53.7144C53.7144 25.0218 57.3421 16.8369 68.0741 16.8369C79.5469 16.8369 86.8022 25.944 86.8022 39.1926C86.8022 52.7967 78.6173 61.5411 67.4846 61.5411C64.7955 61.6235 62.1358 60.9612 59.7993 59.6276C57.4627 58.2939 55.54 56.3406 54.2434 53.9832H54.0772C54.2512 55.2124 54.3346 56.4527 54.3265 57.6942V74.6386C54.3265 76.4978 53.3969 77.4274 51.6284 77.4274H48.9908C47.1316 77.4274 46.2095 76.4978 46.2095 74.6386V20.6459ZM66.1998 54.4745C72.9489 54.4745 78.5114 48.9875 78.5114 39.291C78.5114 30.01 73.5384 24.0243 66.419 24.0243C60.0403 24.0017 54.1603 28.491 54.1603 39.3741C54.1603 46.9697 58.3549 54.4745 66.1998 54.4745Z" fill="#1E2430"/>
<path d="M94.2163 20.6459C94.2163 18.7943 95.1385 17.8647 96.9977 17.8647H98.94C100.792 17.8647 101.721 18.7943 101.721 20.2302V22.7546C101.721 23.5133 101.665 24.2711 101.555 25.0218H101.721C101.721 25.0218 105.349 16.8369 116.081 16.8369C127.554 16.8369 134.809 25.944 134.809 39.1926C134.809 52.7967 126.632 61.5411 115.491 61.5411C112.802 61.6235 110.143 60.9612 107.806 59.6276C105.47 58.2939 103.547 56.3406 102.25 53.9832H102.084C102.258 55.2124 102.341 56.4527 102.333 57.6942V74.6386C102.333 76.4978 101.404 77.4274 99.6352 77.4274H97.0204C95.1611 77.4274 94.239 76.4978 94.239 74.6386L94.2163 20.6459ZM114.207 54.4745C120.956 54.4745 126.518 48.9875 126.518 39.291C126.518 30.01 121.545 24.0243 114.426 24.0243C108.017 24.0243 102.114 28.491 102.114 39.3741C102.152 46.9697 106.369 54.4745 114.214 54.4745H114.207Z" fill="#1E2430"/>
<path d="M143.755 24.9539H141.072C140.696 24.9944 140.315 24.9502 139.959 24.8244C139.602 24.6987 139.278 24.4944 139.01 24.227C138.743 23.9595 138.539 23.6354 138.413 23.2786C138.287 22.9217 138.243 22.5413 138.283 22.165V21.0692C138.244 20.6937 138.289 20.314 138.415 19.9582C138.542 19.6023 138.746 19.2793 139.013 19.0125C139.281 18.7459 139.604 18.5425 139.961 18.417C140.317 18.2917 140.697 18.2476 141.072 18.288H143.77V16.2624C143.755 2.76431 154.804 0.572556 159.21 0.572556H160.223C162.06 0.572556 162.989 1.5853 162.989 3.35381V4.95606C162.989 6.81528 161.985 7.57105 160.043 7.74488C156.92 7.91115 151.94 8.66693 151.94 16.6026V18.288H159.279C159.654 18.2476 160.034 18.2917 160.391 18.417C160.747 18.5425 161.069 18.7459 161.337 19.0125C161.605 19.2793 161.809 19.6023 161.936 19.9582C162.061 20.314 162.108 20.6937 162.068 21.0692V22.165C162.108 22.5413 162.064 22.9217 161.939 23.2786C161.812 23.6354 161.608 23.9595 161.34 24.227C161.074 24.4944 160.748 24.6987 160.392 24.8244C160.036 24.9502 159.655 24.9944 159.279 24.9539H151.94V57.7621C151.94 59.6214 151.018 60.551 149.159 60.551H146.544C144.776 60.551 143.763 59.6214 143.763 57.7621L143.755 24.9539Z" fill="#1E2430"/>
<path d="M186.283 16.8521C199.025 16.8521 209.312 26.2162 209.312 39.1249C209.312 52.0335 199.025 61.5563 186.283 61.5563C173.54 61.5563 163.345 52.109 163.345 39.1173C163.345 26.1255 173.571 16.8521 186.283 16.8521ZM186.283 54.4746C194.384 54.4746 200.959 48.0656 200.959 39.1249C200.959 30.184 194.384 23.9412 186.283 23.9412C178.181 23.9412 171.606 30.2671 171.606 39.1173C171.606 47.9674 178.271 54.4746 186.283 54.4746Z" fill="#1E2430"/>
<path d="M216.418 3.77661C216.418 1.92747 217.348 1.00038 219.207 0.995346H221.821C223.59 0.995346 224.603 1.92495 224.603 3.77661V47.8913C224.603 52.7057 226.711 53.3782 228.48 53.5446C228.787 53.5527 229.09 53.6236 229.371 53.7529C229.649 53.882 229.9 54.0668 230.106 54.296C230.311 54.5252 230.469 54.7938 230.568 55.0856C230.666 55.3774 230.704 55.6862 230.679 55.9932V58.0112C230.679 59.7797 229.924 60.8755 227.807 60.8755C223.273 60.8755 216.418 59.6134 216.418 48.8965V3.77661Z" fill="#1E2430"/>
<path d="M238.033 20.6456C238.033 18.794 239.045 17.8644 240.815 17.8644H243.429C245.288 17.8644 246.21 18.794 246.21 20.6456V57.7618C246.21 59.621 245.288 60.5506 243.429 60.5506H240.837C239.068 60.5506 238.055 59.621 238.055 57.7618L238.033 20.6456Z" fill="#1E2430"/>
<path d="M276.259 16.852C289.002 16.852 299.288 26.2162 299.288 39.1248C299.288 52.0334 289.002 61.5562 276.259 61.5562C263.518 61.5562 253.315 52.1089 253.315 39.1172C253.315 26.1254 263.51 16.852 276.259 16.852ZM276.259 54.4745C284.361 54.4745 290.937 48.0656 290.937 39.1248C290.937 30.1839 284.361 23.9411 276.259 23.9411C268.158 23.9411 261.583 30.267 261.583 39.1172C261.583 47.9674 268.249 54.4745 276.259 54.4745Z" fill="#1E2430"/>
<path d="M316.641 17.0258H323.36C324.149 16.9898 324.937 17.1161 325.675 17.397C326.413 17.6777 327.087 18.107 327.653 18.6583C328.199 19.2299 328.626 19.9061 328.905 20.6464C329.184 21.3867 329.311 22.1757 329.277 22.9662C329.314 23.7616 329.188 24.5561 328.909 25.3016C328.629 26.0473 328.202 26.7284 327.653 27.3044C327.087 27.8557 326.413 28.285 325.675 28.5658C324.937 28.8466 324.149 28.9729 323.36 28.9368H319.037V33.9628C319.037 34.3483 318.84 34.5372 318.44 34.5372H316.641C316.24 34.5372 316.036 34.3483 316.036 33.9628V17.6002C316.036 17.1996 316.24 17.0258 316.641 17.0258ZM323.012 26.1405C323.436 26.1655 323.861 26.1007 324.258 25.9504C324.657 25.8 325.018 25.5674 325.32 25.268C325.622 24.9684 325.857 24.6085 326.011 24.2119C326.163 23.8152 326.23 23.3909 326.209 22.9662C326.226 22.5472 326.156 22.1291 326.002 21.7388C325.849 21.3484 325.615 20.9943 325.318 20.6989C325.015 20.4134 324.658 20.1903 324.27 20.0424C323.88 19.8947 323.465 19.825 323.05 19.8373H319.075V26.1556L323.012 26.1405Z" fill="#007BC7"/>
<path d="M333.681 33.9628V25.9668C333.626 25.4679 333.683 24.9632 333.85 24.4897C334.016 24.0161 334.286 23.5861 334.641 23.2313C334.996 22.8765 335.426 22.6059 335.899 22.4397C336.372 22.2735 336.878 22.2158 337.376 22.271H339.999C340.399 22.271 340.596 22.4599 340.596 22.8454V24.2662C340.609 24.3478 340.602 24.4312 340.577 24.5098C340.551 24.5884 340.508 24.66 340.45 24.7187C340.392 24.7776 340.32 24.8219 340.243 24.8483C340.164 24.8748 340.081 24.8824 339.999 24.8708H337.731C337.557 24.8586 337.382 24.8817 337.217 24.9389C337.053 24.996 336.9 25.086 336.772 25.2034C336.655 25.3289 336.567 25.4768 336.509 25.6379C336.452 25.7989 336.429 25.97 336.44 26.1406V33.9628C336.451 34.0409 336.444 34.1206 336.419 34.1955C336.393 34.2703 336.352 34.3385 336.296 34.3943C336.24 34.4501 336.172 34.492 336.098 34.5168C336.023 34.5417 335.943 34.5486 335.865 34.5372H334.24C334.162 34.5461 334.085 34.5372 334.012 34.5112C333.94 34.4853 333.874 34.4429 333.819 34.3874C333.765 34.332 333.724 34.2648 333.7 34.1912C333.676 34.1176 333.669 34.0395 333.681 33.9628Z" fill="#007BC7"/>
<path d="M346.214 23.7219C347.482 22.5784 349.13 21.9454 350.837 21.9454C352.544 21.9454 354.191 22.5784 355.458 23.7219C356.053 24.3406 356.516 25.0735 356.82 25.8762C357.124 26.6789 357.262 27.535 357.226 28.3924C357.255 29.2491 357.113 30.1029 356.805 30.9031C356.498 31.7031 356.033 32.4332 355.437 33.0497C354.841 33.666 354.127 34.1563 353.338 34.4911C352.55 34.8259 351.702 34.9985 350.844 34.9985C349.986 34.9985 349.138 34.8259 348.349 34.4911C347.561 34.1563 346.847 33.666 346.251 33.0497C345.655 32.4332 345.19 31.7031 344.883 30.9031C344.575 30.1029 344.432 29.2491 344.462 28.3924C344.42 27.5355 344.554 26.6791 344.855 25.8759C345.156 25.0726 345.62 24.3395 346.214 23.7219ZM347.258 28.3924C347.235 28.8936 347.311 29.3943 347.485 29.8653C347.656 30.3363 347.921 30.7683 348.264 31.1359C348.945 31.8176 349.872 32.2005 350.837 32.2005C351.802 32.2005 352.727 31.8176 353.41 31.1359C354.074 30.3742 354.42 29.3869 354.378 28.3774C354.434 27.361 354.102 26.3611 353.448 25.5811C352.762 24.8984 351.834 24.5153 350.866 24.5153C349.899 24.5153 348.971 24.8984 348.286 25.5811C347.587 26.3472 347.218 27.3568 347.258 28.3924Z" fill="#007BC7"/>
<path d="M362.344 38.8603V22.8453C362.332 22.7673 362.339 22.6876 362.364 22.6128C362.39 22.5379 362.43 22.4698 362.487 22.4139C362.543 22.3581 362.611 22.3162 362.685 22.2914C362.76 22.2666 362.84 22.2595 362.918 22.271H364.211C364.36 22.2541 364.509 22.297 364.628 22.3905C364.745 22.4841 364.821 22.6205 364.838 22.7698L365.109 24.2813H365.163C365.425 23.5665 365.935 22.9687 366.6 22.596C367.326 22.1607 368.162 21.9381 369.009 21.9536C369.781 21.9259 370.548 22.0709 371.256 22.3783C371.963 22.6856 372.593 23.1473 373.098 23.7296C374.165 25.0422 374.703 26.7045 374.61 28.3927C374.707 30.0862 374.167 31.7547 373.098 33.0711C372.594 33.6498 371.966 34.1084 371.262 34.4131C370.556 34.7179 369.793 34.861 369.025 34.832C368.178 34.8458 367.345 34.6262 366.614 34.1972C365.954 33.829 365.446 33.2402 365.178 32.5344H365.125V38.883C365.136 38.961 365.129 39.0407 365.105 39.1157C365.08 39.1906 365.038 39.2586 364.983 39.3144C364.926 39.3702 364.859 39.4121 364.784 39.4369C364.708 39.4619 364.629 39.4688 364.55 39.4574H362.933C362.852 39.4726 362.768 39.4675 362.69 39.4429C362.611 39.4181 362.539 39.3743 362.48 39.3154C362.422 39.2564 362.38 39.1841 362.356 39.1048C362.332 39.0255 362.328 38.9416 362.344 38.8603ZM366.039 31.2118C366.326 31.5688 366.691 31.8543 367.108 32.0457C367.524 32.2372 367.978 32.3295 368.435 32.3153C368.893 32.3243 369.345 32.2298 369.76 32.0386C370.174 31.8475 370.541 31.5648 370.831 31.2118C371.472 30.4158 371.8 29.4135 371.753 28.3927C371.801 27.3697 371.473 26.3645 370.831 25.5661C370.535 25.2146 370.163 24.9353 369.742 24.7492C369.322 24.5633 368.864 24.4757 368.405 24.493C367.949 24.4779 367.494 24.5667 367.077 24.7526C366.659 24.9385 366.288 25.2167 365.994 25.5661C365.357 26.3669 365.033 27.371 365.08 28.3927C365.04 29.4188 365.383 30.4229 366.039 31.2118Z" fill="#007BC7"/>
<path d="M379.258 28.3927C379.177 26.6775 379.78 25.0005 380.935 23.7296C381.503 23.1432 382.189 22.6832 382.946 22.3798C383.704 22.0764 384.518 21.9363 385.334 21.9686C386.127 21.9367 386.918 22.0739 387.654 22.371C388.39 22.6682 389.055 23.1183 389.604 23.6917C390.717 24.9329 391.3 26.5606 391.228 28.2264V28.7026C391.241 28.7818 391.234 28.8628 391.21 28.9391C391.186 29.0154 391.145 29.0853 391.089 29.143C391.034 29.2008 390.965 29.245 390.89 29.2721C390.814 29.2992 390.734 29.3087 390.655 29.2997H381.932C382.038 30.1698 382.451 30.974 383.097 31.5669C383.769 32.1347 384.63 32.4289 385.507 32.3908C386.092 32.4389 386.676 32.323 387.197 32.0558C387.719 31.7888 388.154 31.3812 388.455 30.8792C388.514 30.7944 388.592 30.7238 388.682 30.6728C388.773 30.6218 388.873 30.5915 388.976 30.5845C389.062 30.5855 389.147 30.6007 389.226 30.6299L390.375 31.1059C390.647 31.2193 390.775 31.3705 390.775 31.5519C390.775 31.6605 390.741 31.7662 390.678 31.8541C390.189 32.758 389.452 33.5028 388.554 34.0005C387.352 34.6551 385.976 34.9147 384.62 34.7423C383.263 34.57 381.994 33.9746 380.996 33.0408C380.411 32.4209 379.956 31.6905 379.658 30.8923C379.359 30.0941 379.222 29.2442 379.258 28.3927ZM381.91 27.6369H388.576C388.566 26.7496 388.221 25.8988 387.609 25.2563C387.295 24.9626 386.924 24.735 386.521 24.587C386.117 24.4391 385.687 24.3736 385.258 24.3947C384.842 24.3784 384.427 24.4464 384.037 24.5944C383.648 24.7425 383.292 24.9675 382.992 25.2563C382.375 25.8973 381.993 26.7286 381.91 27.6143V27.6369Z" fill="#007BC7"/>
<path d="M396.149 33.963V25.9669C396.094 25.468 396.151 24.9633 396.318 24.4898C396.484 24.0162 396.754 23.5862 397.109 23.2314C397.464 22.8766 397.894 22.6061 398.367 22.4399C398.842 22.2737 399.346 22.2159 399.844 22.2711H402.474C402.867 22.2711 403.071 22.46 403.071 22.8455V24.2663C403.083 24.3477 403.076 24.4305 403.049 24.5082C403.023 24.5861 402.98 24.657 402.922 24.7154C402.864 24.7737 402.794 24.8181 402.716 24.8452C402.639 24.8721 402.556 24.8809 402.474 24.8709H400.208C400.033 24.8587 399.859 24.8818 399.694 24.939C399.529 24.9961 399.377 25.0861 399.247 25.2035C399.13 25.3284 399.039 25.4759 398.981 25.637C398.922 25.7981 398.898 25.9696 398.908 26.1407V33.963C398.919 34.041 398.912 34.1207 398.887 34.1956C398.863 34.2704 398.82 34.3386 398.764 34.3944C398.709 34.4502 398.64 34.4921 398.566 34.5169C398.491 34.5419 398.411 34.5488 398.333 34.5373H396.708C396.632 34.5462 396.553 34.5373 396.48 34.5113C396.408 34.4854 396.342 34.443 396.287 34.3875C396.233 34.3321 396.192 34.2649 396.168 34.1913C396.144 34.1178 396.137 34.0396 396.149 33.963Z" fill="#007BC7"/>
<path d="M407.426 18.9978C407.415 18.9196 407.421 18.84 407.446 18.7651C407.471 18.6902 407.514 18.6221 407.569 18.5664C407.625 18.5105 407.693 18.4685 407.767 18.4437C407.842 18.4189 407.922 18.4119 408 18.4234H409.625C409.704 18.4119 409.783 18.4189 409.857 18.4437C409.932 18.4685 410.001 18.5105 410.056 18.5664C410.112 18.6221 410.155 18.6902 410.179 18.7651C410.204 18.84 410.211 18.9196 410.2 18.9978V22.2703H413.155C413.555 22.2703 413.759 22.4592 413.759 22.8447V24.1143C413.769 24.1949 413.759 24.2766 413.731 24.3529C413.704 24.4291 413.659 24.4981 413.6 24.5543C413.542 24.6105 413.472 24.6526 413.394 24.6773C413.317 24.7018 413.235 24.7084 413.155 24.6963H410.207V30.803C410.198 30.9753 410.229 31.1471 410.298 31.3057C410.366 31.4642 410.469 31.605 410.6 31.7174C410.893 31.9529 411.262 32.0715 411.635 32.05H413.306C413.384 32.0379 413.466 32.0442 413.542 32.0684C413.618 32.0926 413.689 32.1341 413.746 32.1897C413.804 32.2452 413.848 32.3134 413.876 32.3887C413.903 32.4641 413.913 32.5448 413.903 32.6244V33.9772C413.903 34.3627 413.707 34.5516 413.306 34.5516H411.129C410.635 34.5816 410.141 34.5127 409.673 34.3492C409.205 34.1858 408.776 33.9309 408.408 33.5993C408.07 33.2462 407.81 32.8268 407.642 32.3676C407.473 31.9084 407.402 31.4194 407.433 30.9315L407.426 18.9978Z" fill="#007BC7"/>
<path d="M418.267 22.2711H420.217C420.366 22.2551 420.514 22.2949 420.635 22.3831C420.755 22.4711 420.838 22.6011 420.867 22.7473L423.966 32.0359L427.042 22.7473C427.083 22.6031 427.172 22.4773 427.294 22.3907C427.417 22.3042 427.565 22.262 427.714 22.2711H429.611C429.982 22.2711 430.164 22.3845 430.164 22.6188C430.159 22.7237 430.134 22.8266 430.087 22.9212L423.989 39.057C423.948 39.2011 423.859 39.3268 423.737 39.4135C423.614 39.5001 423.466 39.5423 423.315 39.533H421.539C421.463 39.5436 421.386 39.5367 421.313 39.5132C421.239 39.4897 421.173 39.4499 421.117 39.3971C421.053 39.3149 421.018 39.2139 421.018 39.1099C421.021 39.0241 421.039 38.9396 421.072 38.8605L422.446 35.1571L417.798 22.9438C417.753 22.8493 417.728 22.7464 417.724 22.6414C417.724 22.3921 417.905 22.2711 418.267 22.2711Z" fill="#007BC7"/>
<path d="M424.557 62.6818V54.6858C424.503 54.1859 424.561 53.6802 424.729 53.2061C424.896 52.7322 425.168 52.3017 425.525 51.9469C425.881 51.5921 426.313 51.322 426.788 51.1563C427.263 50.9907 427.768 50.9338 428.268 50.99H430.898C431.291 50.99 431.495 51.1789 431.495 51.5644V52.9851C431.506 53.0666 431.498 53.1494 431.473 53.2271C431.446 53.305 431.402 53.3759 431.345 53.4343C431.287 53.4926 431.216 53.537 431.139 53.564C431.061 53.5909 430.98 53.5998 430.898 53.5898H428.63C428.456 53.5776 428.281 53.6007 428.116 53.6579C427.951 53.715 427.799 53.805 427.671 53.9224C427.553 54.0473 427.463 54.1948 427.404 54.3559C427.346 54.517 427.32 54.6885 427.33 54.8596V62.6818C427.342 62.7599 427.334 62.8396 427.311 62.9145C427.285 62.9893 427.243 63.0575 427.188 63.1133C427.132 63.169 427.064 63.211 426.989 63.2358C426.913 63.2607 426.834 63.2676 426.756 63.2562H425.132C425.053 63.2676 424.974 63.2607 424.899 63.2358C424.823 63.211 424.756 63.169 424.699 63.1133C424.644 63.0575 424.602 62.9893 424.577 62.9145C424.553 62.8396 424.546 62.7599 424.557 62.6818Z" fill="#007BC7"/>
<path d="M316.641 45.7447H319.513C319.658 45.735 319.803 45.7734 319.925 45.854C320.046 45.9346 320.137 46.0529 320.185 46.1906L325.475 59.6359L330.766 46.1906C330.807 46.0525 330.893 45.9324 331.011 45.851C331.131 45.7696 331.273 45.7322 331.416 45.7447H334.311C334.388 45.7333 334.469 45.7403 334.543 45.7651C334.618 45.7899 334.687 45.8319 334.742 45.8877C334.798 45.9434 334.841 46.0116 334.865 46.0864C334.89 46.1613 334.897 46.241 334.886 46.3191V62.6817C334.897 62.7597 334.89 62.8394 334.865 62.9143C334.841 62.9893 334.798 63.0573 334.742 63.1131C334.687 63.1689 334.618 63.2108 334.543 63.2358C334.469 63.2606 334.388 63.2675 334.311 63.256H332.49C332.411 63.2675 332.332 63.2606 332.257 63.2358C332.181 63.2108 332.114 63.1689 332.059 63.1131C332.002 63.0573 331.96 62.9893 331.936 62.9143C331.911 62.8394 331.904 62.7597 331.915 62.6817V50.1887L326.995 62.78C326.96 62.9229 326.875 63.0491 326.757 63.1362C326.637 63.2232 326.492 63.2656 326.344 63.256H324.516C324.37 63.2669 324.225 63.2248 324.106 63.1373C323.988 63.05 323.906 62.9231 323.874 62.78L318.999 50.287V62.6817C318.999 63.0672 318.802 63.256 318.402 63.256H316.641C316.24 63.256 316.036 63.0672 316.036 62.6817V46.3191C316.036 45.9185 316.24 45.7447 316.641 45.7447Z" fill="#007BC7"/>
<path d="M341.914 52.441C342.414 51.8633 343.038 51.4056 343.739 51.1021C344.441 50.7984 345.201 50.6569 345.965 50.6877C346.816 50.6708 347.654 50.8934 348.385 51.3301C349.04 51.6978 349.544 52.2834 349.813 52.9853H349.858L350.159 51.4737C350.178 51.3244 350.252 51.188 350.371 51.0944C350.488 51.0008 350.638 50.9579 350.788 50.9749H352.057C352.136 50.9635 352.214 50.9704 352.289 50.9952C352.365 51.0201 352.433 51.0621 352.489 51.1179C352.544 51.1737 352.586 51.2417 352.612 51.3166C352.636 51.3916 352.643 51.4711 352.631 51.5493V62.6818C352.643 62.76 352.636 62.8396 352.612 62.9145C352.586 62.9894 352.544 63.0575 352.489 63.1133C352.433 63.169 352.365 63.211 352.289 63.2359C352.214 63.2607 352.136 63.2676 352.057 63.2562H350.788C350.638 63.2733 350.488 63.2303 350.371 63.1368C350.252 63.0433 350.178 62.9068 350.159 62.7575L349.858 61.2459H349.813C349.547 61.9511 349.041 62.54 348.385 62.9086C347.654 63.3427 346.816 63.5627 345.965 63.5434C345.2 63.5738 344.437 63.4321 343.734 63.1286C343.03 62.8252 342.403 62.3677 341.9 61.7901C340.839 60.4774 340.301 58.8196 340.387 57.1344C340.291 55.4341 340.837 53.7592 341.914 52.441ZM343.192 57.1118C343.142 58.1329 343.47 59.1365 344.114 59.9309C344.417 60.2726 344.79 60.546 345.207 60.7333C345.624 60.9206 346.075 61.0174 346.533 61.0174C346.989 61.0174 347.441 60.9206 347.858 60.7333C348.275 60.546 348.647 60.2726 348.951 59.9309C349.586 59.1211 349.909 58.1095 349.858 57.0816C349.909 56.0651 349.586 55.0649 348.951 54.2701C348.655 53.9219 348.285 53.6452 347.868 53.4606C347.449 53.2761 346.996 53.1885 346.54 53.2044C346.082 53.1861 345.624 53.2726 345.204 53.4573C344.783 53.6419 344.411 53.92 344.114 54.2701C343.459 55.0675 343.131 56.0823 343.192 57.1118Z" fill="#007BC7"/>
<path d="M358.214 51.5651C358.202 51.487 358.209 51.4073 358.234 51.3325C358.259 51.2576 358.302 51.1896 358.357 51.1336C358.413 51.0779 358.481 51.0359 358.555 51.0111C358.63 50.9863 358.71 50.9793 358.788 50.9907H360.088C360.162 50.9824 360.236 50.9887 360.307 51.0093C360.378 51.0298 360.444 51.0643 360.502 51.1107C360.56 51.1572 360.607 51.2145 360.643 51.2796C360.678 51.3445 360.7 51.4159 360.707 51.4896L360.988 53.0012H361.003C361.265 52.2862 361.775 51.6886 362.439 51.3158C363.177 50.8783 364.022 50.6557 364.879 50.6733C365.492 50.6428 366.103 50.7422 366.674 50.965C367.244 51.1877 367.761 51.5287 368.189 51.9656C369.039 52.8985 369.485 54.1292 369.429 55.3893V62.66C369.442 62.738 369.435 62.8177 369.409 62.8925C369.384 62.9675 369.343 63.0355 369.287 63.0914C369.23 63.1472 369.163 63.1892 369.088 63.2139C369.013 63.2387 368.933 63.2458 368.856 63.2344H367.23C367.153 63.2458 367.072 63.2387 366.998 63.2139C366.923 63.1892 366.854 63.1472 366.799 63.0914C366.743 63.0355 366.701 62.9675 366.677 62.8925C366.651 62.8177 366.644 62.738 366.656 62.66V56.3869C366.698 55.5631 366.429 54.7535 365.901 54.1197C365.658 53.8423 365.358 53.6225 365.02 53.4761C364.684 53.3296 364.317 53.2603 363.95 53.2732C363.543 53.2634 363.137 53.3446 362.765 53.5106C362.392 53.6765 362.061 53.9233 361.796 54.2331C361.241 54.9279 360.96 55.8013 361.003 56.6893V62.6827C361.015 62.7607 361.007 62.8404 360.982 62.9152C360.958 62.9901 360.916 63.0582 360.86 63.1141C360.803 63.1699 360.736 63.2118 360.661 63.2366C360.586 63.2614 360.506 63.2685 360.429 63.257H358.803C358.726 63.2685 358.645 63.2614 358.571 63.2366C358.496 63.2118 358.427 63.1699 358.372 63.1141C358.316 63.0582 358.274 62.9901 358.25 62.9152C358.224 62.8404 358.217 62.7607 358.228 62.6827L358.214 51.5651Z" fill="#007BC7"/>
<path d="M375.962 52.441C376.46 51.8634 377.083 51.4058 377.783 51.1022C378.483 50.7986 379.243 50.6569 380.005 50.6877C380.859 50.6693 381.7 50.892 382.431 51.3301C383.083 51.7002 383.586 52.2854 383.852 52.9853H383.906L384.2 51.4737C384.218 51.3252 384.296 51.19 384.413 51.0967C384.53 51.0036 384.679 50.9598 384.827 50.9749H386.104C386.183 50.9635 386.262 50.9704 386.337 50.9952C386.413 51.02 386.48 51.0621 386.535 51.1179C386.592 51.1737 386.634 51.2417 386.659 51.3166C386.683 51.3915 386.69 51.4711 386.679 51.5493V62.6818C386.69 62.76 386.683 62.8396 386.659 62.9145C386.634 62.9894 386.592 63.0575 386.535 63.1133C386.48 63.169 386.413 63.211 386.337 63.2359C386.262 63.2607 386.183 63.2676 386.104 63.2562H384.827C384.679 63.2713 384.53 63.2275 384.413 63.1344C384.296 63.0411 384.218 62.9059 384.2 62.7575L383.906 61.2459H383.852C383.587 61.9493 383.084 62.5376 382.431 62.9086C381.697 63.3403 380.858 63.56 380.005 63.5434C379.241 63.5738 378.479 63.432 377.777 63.1285C377.074 62.8249 376.449 62.3676 375.948 61.7901C374.883 60.4795 374.345 58.8201 374.435 57.1344C374.339 55.4341 374.884 53.7592 375.962 52.441ZM377.232 57.1118C377.186 58.1324 377.514 59.1348 378.153 59.9309C378.458 60.2726 378.829 60.546 379.246 60.7333C379.663 60.9206 380.115 61.0174 380.572 61.0174C381.029 61.0174 381.482 60.9206 381.898 60.7333C382.315 60.546 382.687 60.2726 382.99 59.9309C383.628 59.1218 383.952 58.1104 383.906 57.0815C383.955 56.0641 383.63 55.0638 382.99 54.2701C382.696 53.9219 382.325 53.6452 381.907 53.4606C381.49 53.2761 381.036 53.1885 380.58 53.2044C380.121 53.1895 379.666 53.2774 379.246 53.4619C378.827 53.6463 378.453 53.9225 378.153 54.2701C377.503 55.0693 377.174 56.0827 377.232 57.1118Z" fill="#007BC7"/>
<path d="M393.281 62.9087C392.867 62.7611 392.509 62.4852 392.261 62.1209C392.015 61.7567 391.89 61.3231 391.905 60.8831C391.897 60.3425 392.071 59.8148 392.402 59.3873C392.733 58.9598 393.201 58.6584 393.728 58.5328C393.154 58.1675 392.691 57.6547 392.385 57.0482C392.078 56.4417 391.942 55.7641 391.988 55.0863C391.953 54.4706 392.061 53.8548 392.306 53.2889C392.552 52.7231 392.928 52.2229 393.402 51.829C394.576 50.995 396.001 50.5919 397.438 50.6877C398.317 50.6684 399.193 50.7961 400.031 51.0656C400.117 50.4333 400.438 49.8565 400.928 49.4493C401.42 49.042 402.046 48.8339 402.683 48.8663H403.439C403.517 48.8549 403.597 48.8618 403.672 48.8866C403.746 48.9116 403.814 48.9535 403.87 49.0093C403.927 49.0651 403.967 49.1331 403.993 49.208C404.018 49.283 404.025 49.3627 404.013 49.4407V50.4534C404.025 50.5326 404.02 50.6136 403.994 50.6899C403.97 50.7664 403.929 50.8361 403.873 50.8939C403.818 50.9516 403.751 50.9959 403.675 51.023C403.598 51.0501 403.518 51.0595 403.439 51.0505H402.57C402.318 51.0184 402.062 51.066 401.838 51.1866C401.614 51.3073 401.434 51.4949 401.322 51.7232C401.807 52.1243 402.198 52.6242 402.475 53.1893C402.749 53.7544 402.9 54.3718 402.917 54.9999C402.934 55.6281 402.817 56.2528 402.573 56.832C402.329 57.4113 401.965 57.9319 401.504 58.3588C400.331 59.1862 398.908 59.5863 397.476 59.4925C396.735 59.5059 395.995 59.4221 395.277 59.2431C394.657 59.3943 394.347 59.7193 394.347 60.218C394.347 60.8378 394.86 61.1476 395.859 61.1476H399.91C400.989 61.0674 402.06 61.3757 402.932 62.0168C403.283 62.3177 403.56 62.6947 403.742 63.1193C403.924 63.5436 404.007 64.0042 403.983 64.4655C404 65.0727 403.848 65.6727 403.544 66.1985C403.239 66.7242 402.794 67.1552 402.26 67.4434C400.712 68.2127 398.99 68.5644 397.264 68.4635C395.698 68.5438 394.133 68.2861 392.677 67.7079C392.218 67.5455 391.819 67.2489 391.532 66.8566C391.246 66.4642 391.083 65.9944 391.067 65.5085C391.042 64.1885 391.78 63.3218 393.281 62.9087ZM397.348 66.2266C398.343 66.2746 399.339 66.1177 400.272 65.7654C400.56 65.6754 400.814 65.4986 400.998 65.2592C401.181 65.0199 401.287 64.7295 401.3 64.4278C401.305 64.261 401.269 64.0955 401.191 63.9473C401.115 63.7991 401.001 63.6731 400.862 63.5812C400.488 63.3572 400.056 63.2518 399.622 63.279H395.526C394.294 63.279 393.681 63.7551 393.681 64.7073C393.681 65.6596 394.907 66.2266 397.348 66.2266ZM394.649 55.0863C394.635 55.3947 394.697 55.7019 394.829 55.9811C394.96 56.2603 395.159 56.5032 395.405 56.6886C396.032 57.0619 396.749 57.2589 397.48 57.2589C398.21 57.2589 398.926 57.0619 399.555 56.6886C399.801 56.5015 399.998 56.2573 400.131 55.9769C400.262 55.6965 400.324 55.3883 400.31 55.0788C400.318 54.7704 400.253 54.4643 400.121 54.1858C399.988 53.9072 399.791 53.6641 399.546 53.4765C398.917 53.1102 398.201 52.9172 397.471 52.9172C396.743 52.9172 396.028 53.1102 395.397 53.4765C395.154 53.6665 394.96 53.9115 394.829 54.1913C394.7 54.4712 394.638 54.778 394.649 55.0863Z" fill="#007BC7"/>
<path d="M407.569 57.1119C407.488 55.3966 408.091 53.7197 409.246 52.4488C409.814 51.8613 410.498 51.4006 411.258 51.097C412.015 50.7935 412.829 50.6541 413.645 50.6879C414.438 50.6565 415.23 50.7938 415.965 51.0908C416.701 51.3879 417.366 51.8379 417.916 52.411C419.028 53.6521 419.611 55.2799 419.54 56.9457V57.4218C419.552 57.5009 419.547 57.5819 419.521 57.6583C419.497 57.7347 419.456 57.8045 419.4 57.8622C419.345 57.92 419.276 57.9642 419.201 57.9914C419.125 58.0184 419.045 58.0279 418.966 58.0188H410.243C410.349 58.8892 410.762 59.6931 411.408 60.2862C412.08 60.854 412.941 61.1481 413.818 61.1099C414.403 61.1564 414.987 61.0397 415.507 60.7726C416.028 60.5057 416.463 60.0991 416.766 59.5985C416.825 59.5135 416.904 59.443 416.994 59.392C417.085 59.341 417.185 59.3109 417.287 59.3037C417.373 59.3047 417.458 59.32 417.537 59.349L418.686 59.8251C418.951 59.9385 419.086 60.0896 419.086 60.271C419.086 60.3796 419.052 60.4856 418.989 60.5734C418.5 61.4771 417.763 62.222 416.865 62.7197C415.93 63.2564 414.868 63.533 413.789 63.5209C412.952 63.5612 412.115 63.4252 411.335 63.1218C410.553 62.8185 409.845 62.3545 409.255 61.76C408.679 61.1359 408.233 60.4034 407.943 59.6054C407.655 58.8075 407.526 57.9597 407.569 57.1119ZM410.221 56.3561H416.887C416.875 55.4679 416.527 54.6173 415.913 53.9754C415.6 53.6816 415.231 53.4539 414.828 53.3058C414.427 53.1578 413.998 53.0926 413.569 53.1139C413.153 53.0977 412.738 53.1656 412.348 53.3136C411.959 53.4616 411.603 53.6867 411.303 53.9754C410.686 54.6165 410.304 55.4478 410.221 56.3334V56.3561Z" fill="#007BC7"/>
</svg>
