<?xml version="1.0" encoding="UTF-8"?>
<svg width="911px" height="231px" viewBox="0 0 911 231" version="1.1" xmlns="http://www.w3.org/2000/svg" xmlns:xlink="http://www.w3.org/1999/xlink">
    <!-- Generator: Sketch 56 (81588) - https://sketch.com -->
    <title>bcom logo white</title>
    <desc>Created with Sketch.</desc>
    <g id="bcom-logo-white" stroke="none" stroke-width="1" fill="none" fill-rule="evenodd">
        <rect fill="#003580" x="0" y="0" width="911" height="231"></rect>
        <g id="bcom-fullcolor-white" transform="translate(53.000000, 53.000000)">
            <path d="M752.66992,41.4042857 L751.16748,43.3297143 L749.983737,41.1808572 C746.152846,34.1231428 739.570731,30.5417143 730.393497,30.5417143 C720.786994,30.5417143 714.341463,35.9631428 711.349594,39.1831428 L709.385366,41.3254286 L708.6374,38.4997143 C707.538211,34.4385714 703.954474,32.2042857 698.536583,32.2042857 L690.608131,32.2042857 L690.517074,105.232572 L709.515446,105.232572 L709.515446,72.9997145 C709.515446,70.1674283 709.86016,67.3745717 710.5626,64.4568572 C712.455286,56.6697145 717.63252,48.2911428 726.347966,49.1322857 C731.720326,49.7894286 734.152846,53.7322857 734.152846,61.9465717 L734.152846,105.239143 L752.06504,105.239143 L752.06504,73.0062856 C752.06504,69.4708572 752.390246,66.8357145 753.177234,64.1874283 C754.777234,56.7551428 761.37236,49.1322857 769.775611,49.1322857 C775.863417,49.1322857 778.881303,52.418 778.881303,61.9465717 L778.881303,94.5605717 C778.881303,101.789143 783.434149,105.074857 790.588617,105.239143 L798.282926,105.239143 L798.308943,58.6214283 C798.536583,40.0571428 790.061787,30.5417143 774.452033,30.5417143 C765.879674,30.5417143 757.983737,34.6028572 752.66992,41.4042857 L752.66992,41.4042857 Z" id="Shape" fill="#2FAAE1"></path>
            <path d="M605.652034,68.7271428 C605.652034,90.4128572 622.5626,106.841428 644.676423,106.841428 C666.679674,106.841428 682.679674,90.8728572 682.679674,68.8717145 C682.809754,46.9428572 666.666669,30.5142857 644.552846,30.5142857 C622.601628,30.5142857 605.652034,46.7391428 605.652034,68.7271428 L605.652034,68.7271428 Z M644.8,88.9474283 C634.439023,88.9474283 627.219514,80.6214283 627.219514,68.7271428 C627.219514,56.8525717 634.439023,48.5331428 644.8,48.5331428 C655.219514,48.5331428 662.360977,57.076 662.360977,68.7271428 C662.523577,81.1142856 655.609754,89 644.552846,89 L644.8,88.9474283 Z" id="Shape" fill="#2FAAE1"></path>
            <path d="M592.06504,79.8865717 C592.006503,79.9457145 583.505691,89.0011428 572.318697,89.0011428 C562.120325,89.0011428 551.82439,82.686 551.82439,68.5771428 C551.82439,56.3871428 559.811382,47.8705714 571.239025,47.8705714 C574.959349,47.8705714 579.043903,49.1848572 579.694309,51.4717143 L579.791869,51.8594286 C581.307314,57.1165717 585.645526,57.1165717 586.946343,57.248 L597.775611,57.248 L597.775611,47.6865714 C597.775611,35.0891428 581.905691,30.5154286 571.226016,30.5154286 C548.38374,30.5154286 531.82439,46.576 531.82439,68.6954283 C531.82439,91.0382856 548.084553,106.809714 570.848781,106.809714 C590.452034,106.809714 601.112194,93.7917145 601.216263,93.6471428 L601.782114,92.9505717 L593.216263,78.592 L592.06504,79.8865717 L592.06504,79.8865717 Z" id="Shape" fill="#2FAAE1"></path>
            <circle id="Oval-2" fill="#2FAAE1" cx="513.5" cy="93.5" r="12.5"></circle>
            <path d="M473.417886,36.2391428 L472.839025,37.3562857 L471.882927,36.5217143 C468.539837,33.5974286 462.556098,30.1408572 452.839025,30.1408572 C433.502439,30.1408572 420.487805,44.8148572 420.487805,66.6517145 C420.487805,88.3374283 434.146342,103.451714 453.00813,103.451714 C459.577236,103.451714 464.793496,101.900857 468.910569,98.733428 L470.517073,97.5308572 L470.517073,99.574572 C470.517073,109.366 464.253658,114.767714 452.884553,114.767714 C447.356098,114.767714 442.334959,113.400857 438.978862,112.172 C434.582114,110.824857 432.013008,111.935428 430.243902,116.377714 L428.598374,120.498 L426.282927,126.484572 L427.713821,127.26 C434.985366,131.202857 444.62439,133.174286 453.079675,133.174286 C470.686179,133.174286 489.697561,124.059714 489.697561,98.424572 L489.769106,31.2054286 L481.873171,31.2054286 C477.944717,31.2054285 474.926829,33.3542857 473.417886,36.2391428 L473.417886,36.2391428 Z M441.567479,66.0997145 C441.567479,61.9794283 442.601626,48.5737143 455.811382,48.5737143 C462.380488,48.5737143 471.421138,50.5451428 471.421138,66.7897145 C471.128455,82.1142856 463.089431,85.4 456.585366,85.4 L456.904065,85.4131428 C445.593496,85.4131428 441.567479,75.4377145 441.567479,66.0997145 L441.567479,66.0997145 Z" id="Shape" fill="#FFFFFF"></path>
            <path d="M389.626016,30.2985714 C379.037398,30.2985714 372.273171,35.0562857 368.487805,39.0648572 L367.232521,40.366 L366.78374,38.6114286 C365.671545,34.3005714 361.925203,31.9348572 356.273171,31.9348572 L347.186992,31.9348572 L347.239025,105.245714 L366.478049,105.245714 L366.478049,71.4554283 C366.478049,68.1434283 366.900813,65.2782855 367.765854,62.6628572 C370.061789,54.7508572 375.278049,49.8288572 383.297561,49.8288572 C389.749594,49.8288572 393.704065,53.1145714 393.704065,62.1634283 L393.704065,94.1005717 C393.704065,101.986286 398.25691,105.272 406.061789,105.245714 L413.157723,105.245714 L413.157723,59.0617144 C412.773984,40.7142857 406.504065,30.2 389.593496,30.2" id="Shape" fill="#FFFFFF"></path>
            <path d="M335.362602,105.219428 L335.362602,43.1062857 C335.362602,35.6214286 331.82439,31.9874286 324.481301,31.9874286 L316.325203,31.9545714 L316.38374,88.6462856 L316.325203,88.6462856 L316.38374,105.830572 L335.362602,105.830572" id="Shape" fill="#FFFFFF"></path>
            <circle id="Oval-2" fill="#FFFFFF" cx="325.5" cy="12.5" r="12.5"></circle>
            <path d="M290.803252,70.3251428 C289.951219,68.702 288.982114,67.3285717 287.941463,66.2377144 L287.278049,65.5345717 L287.973984,64.8511428 C288.982114,63.78 290.009756,62.5182855 290.998374,61.0397144 L310.354471,31.9742857 L286.855285,31.9742857 L272.318699,54.7114286 C271.499187,55.9337144 269.834146,56.5448572 267.349594,56.5448572 L262.328455,56.5448572 L262.328455,13.5611428 C262.328455,4.95914283 256.487805,0.60885714 250.757723,0.60885714 L243.043902,0.60885714 L243.05691,105.278572 L262.328455,105.278572 L262.328455,74.8331428 L265.990244,74.8331428 C268.364227,74.8331428 269.892683,74.8331428 270.54309,76.4102855 L282.029269,98.096 C285.235773,104.010286 288.533333,105.324572 294.386992,105.055143 L310.334959,105.055143 L298.452033,85.1897144 L290.803252,70.3251428 L290.803252,70.3251428 Z" id="Shape" fill="#FFFFFF"></path>
            <path d="M159.746342,68.4194283 C159.746342,90.1051428 175.356098,106.533714 197.469919,106.533714 C219.466667,106.533714 235.479675,90.5717144 235.479675,68.5705717 C235.635773,46.6285714 219.837398,30.2 197.723577,30.2 C175.772357,30.2 159.746342,46.438 159.746342,68.4194283 L159.746342,68.4194283 Z M197.619512,88.6331428 C187.258537,88.6331428 180.039025,80.3202855 180.039025,68.4194283 C180.039025,56.5382855 187.258537,48.2254286 197.619512,48.2254286 C208.039025,48.2254286 215.180488,56.7682855 215.180488,68.4194283 C215.34309,80.8 208.130081,88.6857144 197.723577,88.6857144 L197.619512,88.6331428 Z" id="Shape" fill="#FFFFFF"></path>
            <path d="M76.9040651,68.4194283 C76.9040651,90.1051428 92.5138211,106.533714 114.627642,106.533714 C136.637398,106.533714 152.630894,90.5717144 152.630894,68.5705717 C152.754471,46.6285714 136.585366,30.2 114.471545,30.2 C92.533333,30.2 76.9040651,46.438 76.9040651,68.4194283 L76.9040651,68.4194283 Z M114.757723,88.6331428 C104.390244,88.6331428 97.190244,80.3202855 97.190244,68.4194283 C97.190244,56.5382855 104.390244,48.2254286 114.757723,48.2254286 C125.190244,48.2254286 132.318699,56.7682855 132.318699,68.4194283 C132.468293,80.8 125.528455,88.6857144 114.471545,88.6857144 L114.757723,88.6331428 Z" id="Shape" fill="#FFFFFF"></path>
            <path d="M54.5430894,51.498 L57.203252,49.2045714 C60.2926829,46.5234286 65.4764229,40.4908572 65.4764229,30.062 C65.4764229,14.1065714 53.2292683,4.49257145 34.2764227,4.49257145 L14.0292683,4.49257145 L12.6373984,4.49257145 L11.5707317,4.49257145 C5.95121949,4.57142856 0,10.4857143 0,16.1831428 L0,21.1708572 L0,94.8234283 L0,105.837143 L9.92520326,105.837143 L34.699187,105.837143 C55.7658537,105.837143 69.3723577,93.3054283 69.3723577,75.3654283 C69.3788617,65.6857145 65.0406503,57.1428572 57.8861789,53.2 L54.5430894,51.498 L54.5430894,51.498 Z M19.2520325,32.9271428 L19.2520325,32.9271428 L19.2520325,27.5714286 C19.2520325,22.8925714 21.2162602,20.6582857 25.5219512,20.3822857 L34.1333333,20.3822857 C41.5219512,20.3822857 45.8406504,24.9822857 45.8406504,32.3225714 C45.8406504,38.02 42.8097561,43.4611428 34.295935,43.4611428 L19.2520325,43.4611428 L19.2520325,32.9271428 L19.2520325,32.9271428 Z M19.2520325,86.3462856 L19.2520325,72.7894283 L19.2520325,67.4337145 C19.2520325,63.0834283 20.9235773,60.8294283 24.6113821,60.3168572 L36.0910569,60.3168572 C44.2861789,60.3168572 49.7495935,65.574 49.7495935,74.1168572 C49.5739837,82.7714283 44.5463418,86.3462844 36.0910572,86.3462844 L19.2520325,86.3462856 L19.2520325,86.3462856 Z" id="Shape" fill="#FFFFFF"></path>
        </g>
    </g>
</svg>