<?xml version="1.0" encoding="UTF-8"?><svg xmlns="http://www.w3.org/2000/svg" class="header" enable-background="new 0 0 864 193" height="40px" preserveAspectRatio="xMidYMid meet" version="1.1" viewBox="0 0 864 193" width="180px"><title/><desc/><defs><polygon id="path-1" points="0 0.161055814 67.7164307 0.161055814 67.7164307 116.225889 0 116.225889"/><polygon id="path-3" points="0.142037903 0.482558656 18.9534561 0.482558656 18.9534561 10.4180186 0.142037903 10.4180186"/></defs><g fill="none" fill-rule="evenodd" id="Page-1" stroke="none" stroke-width="1"><g id="Artboard-3"><g id="Page-1"><g id="Group-39"><path d="M846.545753,78.5543861 L841.3236,48.8850471 C841.274018,48.653244 840.364042,44.0638342 836.830594,39.7907845 C835.168138,37.6535308 833.136734,36.0848507 830.936167,34.9622822 C828.996635,33.922813 826.708571,33.1457623 824.025308,32.7463029 C822.774092,32.5276207 818.407957,32.1514874 818.407957,32.1514874 C808.840086,31.5129355 796.963734,31.9634207 783.996578,33.3819391 L783.996578,33.4227597 C776.171368,34.2143892 768.020959,35.3471628 759.788886,36.7992125 C737.087612,40.7952647 716.126085,46.7871561 701.884379,53.2572326 L700.125675,54.0721882 C693.837509,56.8596569 686.86686,62.0876187 686.535827,71.5813406 C694.728527,73.9474817 701.305436,78.6345696 704.803885,84.9399055 C705.407619,86.0960052 705.668653,87.4824502 705.668653,87.4824502 C705.753234,87.9795876 705.773651,88.3017794 705.773651,88.6225132 C705.773651,92.722075 702.44728,96.0533334 698.350931,96.0533334 C695.48684,96.0533334 692.85316,94.3913489 691.626734,91.8036099 C691.028833,90.832661 690.180106,89.9287747 689.140341,89.0948667 L692.119637,106.031072 C692.236301,106.66525 695.285595,122.028402 712.286395,122.701943 C728.097226,124.028615 750.274971,122.47014 773.267904,118.425977 C795.737308,114.472204 816.854874,108.462818 831.151995,101.972331 C839.594063,98.817476 848.982564,92.2905422 846.545753,78.5543861" fill="#B0B2B2" id="Fill-1"/><path d="M712.020985,103.480071 C711.668078,103.523808 711.396835,103.337199 711.337045,102.991681 L710.055204,95.6774916 C709.985206,95.3203107 710.176242,95.0491449 710.52915,94.9937454 L717.800207,93.7078942 C718.141448,93.6524947 718.422899,93.8522244 718.485605,94.1846213 L719.760155,101.509016 C719.835986,101.85745 719.634742,102.127158 719.281834,102.192762 L712.020985,103.480071 Z" fill="#FEFEFE" id="Fill-3"/><path d="M740.124365,99.129171 C730.52587,100.821771 726.066404,95.7512604 724.236245,85.3915571 C722.454209,75.249078 724.679566,68.3533002 734.329102,66.6446635 C737.088196,66.1591891 739.490007,66.0965002 740.862262,66.3428821 C741.053299,66.3734976 741.174337,66.393908 741.225378,66.700063 L741.871402,71.7764051 C741.913693,71.9528087 741.772238,72.1642015 741.455788,72.0985968 C740.223529,71.998003 738.415244,72.0329922 736.787787,72.3187369 C731.922916,73.1730552 730.87586,75.8263989 732.328322,84.0255224 C733.665578,91.6414935 735.489905,93.7262635 740.464148,92.8471612 C741.982233,92.5759953 743.70302,92.0438687 744.828824,91.5423576 C745.044652,91.4315586 745.340685,91.3265912 745.441308,91.6021307 L746.677942,96.5866263 C746.791689,96.8679974 746.68815,97.0035803 746.535029,97.1551999 C744.927988,97.9730713 742.524718,98.7063855 740.124365,99.129171" fill="#FEFEFE" id="Fill-5"/><path d="M759.431166,88.367384 C760.352808,89.0948667 761.415905,89.3310435 763.924172,88.8791003 C766.629309,88.416952 767.543659,87.8294259 768.094895,86.8395246 C769.025287,85.2825075 768.945081,81.3783019 768.188226,77.1023365 C767.426996,72.7709716 766.276401,69.6540218 764.850189,68.4483541 C763.99417,67.7048347 762.944198,67.5196838 760.357183,67.9716269 C757.739544,68.4439804 756.798944,68.976107 756.180627,69.9776714 C755.270651,71.5857143 755.196278,74.9271778 755.953133,79.2527112 C756.702697,83.522845 758.023912,87.2156579 759.431166,88.367384 M774.590139,89.7829866 C772.81102,92.4013411 769.879848,93.8825484 764.959561,94.7470719 C760.039275,95.6218006 756.960815,95.2048466 754.455465,93.3416745 C751.747411,91.2802305 749.199771,86.527538 748.174589,80.6741453 C747.128992,74.7770161 747.898972,69.8697882 749.812254,67.0560776 C751.531584,64.401276 754.551712,63.0804357 759.35096,62.2334068 C764.326661,61.3543044 767.399288,61.6677489 769.961512,63.5178001 C772.634566,65.5690388 774.941588,69.8697882 775.987186,75.7858698 C777.022575,81.6392626 776.39405,86.9299132 774.590139,89.7829866" fill="#FEFEFE" id="Fill-7"/><path d="M811.385831,85.3526316 C811.457287,85.7098125 811.25021,85.9751469 810.910427,86.0509567 L804.402058,87.1910197 C804.044775,87.2566244 803.782282,87.0598104 803.712284,86.7084611 L799.853637,64.8081706 C799.376774,62.0600647 797.365786,61.6460265 794.255243,62.1883582 C792.742992,62.4449453 790.820959,62.9100094 789.867235,63.3167582 C789.476412,63.5179458 789.34079,63.7162177 789.40058,64.067567 L793.712758,88.4768709 C793.760881,88.8296781 793.569845,89.0950125 793.219854,89.1606172 L786.727526,90.3167169 C786.370244,90.3619112 786.09171,90.1753024 786.021711,89.8239531 L780.827266,60.3295598 C780.760184,59.9723789 780.967262,59.7566125 781.308503,59.6356084 C783.675315,58.6734068 789.46037,56.9312389 793.444431,56.2329138 C796.600181,55.6614244 800.114671,55.3538115 802.204408,56.1993825 C802.440651,56.2095877 802.676895,56.1673091 802.93793,56.0040265 C805.968266,54.3158001 809.376301,53.4206611 812.126645,52.9293551 C821.146197,51.349012 824.765685,54.7560802 825.955653,61.5381433 L829.588265,82.146751 C829.653889,82.4981004 829.462852,82.7750978 829.121611,82.8407024 L822.553452,83.9953443 C822.200544,84.0565753 821.916177,83.8655929 821.865137,83.5142435 L818.322939,63.4319309 C817.633165,59.5160621 815.6878,58.4080725 811.824778,59.0859872 C810.417523,59.3352849 808.626737,59.7770228 807.611764,60.1968926 C807.220941,60.3791278 807.00803,60.5905205 807.080945,60.9477014 L811.385831,85.3526316 Z" fill="#FEFEFE" id="Fill-9"/><path d="M639.933541,82.8796279 C643.532613,79.2524196 648.095617,76.2681369 653.275479,74.0477839 C652.361129,73.434016 651.413237,72.8115007 650.402639,72.1642015 C637.474856,64.1502289 634.680764,62.3482878 634.680764,56.6115255 C634.680764,49.5830806 638.125256,48.9241183 648.447066,48.9241183 C653.186523,48.9241183 660.216962,49.7463633 665.141623,50.5598609 C665.799314,50.7275173 666.28201,50.2362113 666.28201,49.9038144 L667.267817,35.3395819 C667.267817,34.5231684 666.941159,34.3598857 666.448255,34.1878558 C661.377765,33.2067018 652.371337,32.3902883 644.512587,32.3902883 C623.224401,32.3902883 613.404244,38.612525 613.404244,57.108663 C613.404244,68.0719291 617.986206,72.6555074 631.249396,81.5033881 C633.622042,83.1216361 635.65053,84.5226599 637.3859,85.7793534 C638.16463,84.7894521 638.997316,83.8141297 639.933541,82.8796279" fill="#F3A521" id="Fill-11"/><path d="M672.997311,115.607164 C671.45881,115.879788 669.905726,116.063481 668.373058,116.159701 C666.378111,119.127947 663.853803,121.304564 661.075752,122.908233 C662.60842,123.072973 664.181919,123.160446 665.805001,123.160446 C668.574303,123.160446 671.409228,122.908233 674.198946,122.421301 C680.683982,121.275406 686.667365,118.89177 691.592026,115.573633 C690.033109,113.262891 689.038552,111.016296 688.436277,109.317865 C684.213055,112.361921 678.877155,114.567695 672.997311,115.607164" fill="#B0B2B2" id="Fill-13"/><path d="M701.325852,86.8702859 C701.331685,86.8702859 701.315644,86.8848647 701.325852,86.8702859 C696.929093,78.9773174 686.500828,73.8120445 673.85158,73.8120445 C671.067695,73.8120445 668.238604,74.0584265 665.432845,74.5701427 C647.139996,77.7862285 634.406167,90.1548921 635.793005,103.067345 C640.672459,102.991536 642.154087,102.646018 642.636782,101.656116 C642.310124,92.8680089 652.839012,83.7999882 666.649062,81.3784476 C669.056707,80.9512885 671.478934,80.7194854 673.85158,80.7194854 C683.655695,80.7194854 691.857144,84.4779029 695.114975,90.0193091 C695.651627,91.2614239 696.873678,92.1201159 698.311557,92.1201159 C700.235047,92.1201159 701.788131,90.5572673 701.788131,88.6386957 C701.788131,88.0045174 701.627719,87.3922073 701.325852,86.8702859" fill="#B0B2B2" id="Fill-15"/><g id="Group-19" transform="translate(0.000000, 7.289406)"><mask fill="white" id="mask-2"><use xmlns:xlink="http://www.w3.org/1999/xlink" xlink:href="#path-1"/></mask><g id="Clip-18"/><path d="M66.5083,96.330185 C66.3376795,95.3300786 65.1797935,95.3300786 64.3485655,95.496277 C60.2026337,96.6523767 53.073031,97.6524832 46.9394436,97.6524832 C27.8620325,97.6524832 23.5571465,87.7039023 23.5571465,59.1892052 C23.5571465,28.6801266 27.8620325,18.7330036 46.9394436,18.7330036 C53.4026056,18.7330036 60.3703376,19.7243628 64.6868899,21.0481189 C65.5195762,21.3805158 66.3376795,20.7215535 66.3376795,20.2215003 L67.1674492,4.47638398 C67.1674492,3.47336176 66.6774622,3.31591059 66.0095632,2.97476641 C61.5282236,1.32590284 53.2436515,0.161055814 43.6101568,0.161055814 C11.2855968,0.161055814 -0.000145829469,22.8748439 -0.000145829469,59.0230067 C-0.000145829469,95.8286739 11.2855968,116.225889 43.6101568,116.225889 C53.2436515,116.225889 61.2044822,114.884638 67.0070368,113.071034 C67.5072318,112.910667 67.8411813,112.066554 67.6720191,111.070821 L66.5083,96.330185 Z" fill="#E7682E" id="Fill-17" mask="url(#mask-2)"/></g><path d="M120.273,107.588818 C120.273,108.091787 120.105296,108.422726 119.112198,108.750749 C116.953921,109.247887 112.471124,109.587573 108.662058,109.587573 C95.5651133,109.587573 92.5770675,108.252154 92.5770675,96.4695584 C92.5770675,84.5382592 96.2228042,82.3878845 108.169154,82.3878845 L119.275527,82.3878845 C119.941967,82.3878845 120.273,82.7290287 120.273,83.3923647 L120.273,107.588818 Z M108.495812,31.4947119 C97.3865233,31.4947119 85.7668313,32.8097207 79.4728314,34.6349879 C78.4855659,34.9717584 78.3091122,35.970407 78.4855659,36.9588504 L79.6434519,49.7284313 C79.8067809,50.7285378 81.1382039,50.7285378 82.1240111,50.553592 C87.4351204,49.7284313 96.7229993,48.898897 102.696174,48.898897 C115.62979,48.898897 120.273,51.2198437 120.273,61.1771719 L120.273,67.7959522 C120.273,68.4519988 119.941967,68.6240287 119.275527,68.7960587 L99.7037536,71.2788303 C75.3312745,74.2689445 71.5178339,81.8849156 71.5178339,98.8167471 C71.5178339,117.880001 80.4732216,123.516169 110.324514,123.516169 C121.773585,123.516169 133.540565,122.344033 139.346036,120.520224 C141.170363,119.846682 141.498479,119.034643 141.498479,118.033078 L141.498479,57.8386241 C141.498479,38.4531786 129.062142,31.4947119 108.495812,31.4947119 Z" fill="#E7682E" id="Fill-20"/><path d="M197.59893,32.1542574 C193.12634,31.6512884 189.633725,31.4952951 184.160745,31.4952951 C173.547276,31.4952951 161.284476,33.1456165 152.992612,34.9723416 C151.986389,35.1312506 151.325781,35.6356775 151.325781,36.6299525 L151.325781,120.200073 C151.325781,121.189974 151.986389,121.837273 152.992612,121.837273 L171.23442,121.837273 C172.383557,122.007845 173.054372,121.354715 173.054372,120.200073 L173.054372,51.7306853 C173.054372,50.8836563 173.21041,50.396724 174.215175,49.8893814 C176.859063,48.8994801 181.172699,48.5656253 183.834087,48.5656253 C188.472922,48.5656253 192.615937,48.8994801 196.601457,49.5599003 C197.42831,49.7275566 197.772467,49.2304191 197.772467,48.7332817 L198.589112,33.4794713 C198.589112,32.6441054 198.422867,32.3117085 197.59893,32.1542574" fill="#E7682E" id="Fill-22"/><path d="M235.916936,64.4141054 L227.786943,64.4141054 C226.958631,64.2508227 226.62614,63.9140521 226.62614,63.0976387 L226.62614,26.2759348 C226.62614,25.6096832 226.958631,25.2831178 228.790249,25.2831178 L235.916936,25.2831178 C250.83529,25.2831178 254.822268,29.0983927 254.822268,44.021264 C254.822268,58.7691896 250.174683,64.4141054 235.916936,64.4141054 Z M264.273476,79.6635421 C262.452066,76.6850909 261.628129,74.8612816 261.628129,73.1934656 C261.628129,72.5403348 262.118116,71.8828304 263.283294,70.8768925 C274.722157,64.2508227 277.87499,55.2877695 277.87499,40.3736454 C277.87499,17.6613152 265.104704,9.20123096 239.899538,9.20123096 L206.230431,9.20123096 C205.237332,9.20123096 204.566516,9.86894052 204.566516,10.8661312 L204.566516,120.284484 C204.566516,121.274385 205.237332,121.958132 206.230431,121.958132 L224.973892,121.958132 C225.965533,121.958132 226.62614,121.274385 226.62614,120.284484 L226.62614,80.498908 C226.62614,79.6635421 227.126335,79.3428082 227.963396,79.3428082 L239.558297,79.3428082 C240.563062,79.4944279 240.892637,79.995939 242.221143,82.4932894 L261.461884,120.455056 C261.954787,121.616988 262.452066,121.958132 263.439331,121.958132 L285.50333,121.958132 C286.826003,121.958132 286.826003,121.103813 286.337474,120.284484 L264.273476,79.6635421 Z" fill="#F3A521" id="Fill-24"/><path d="M338.426156,70.7211907 L307.742178,70.7211907 C307.08157,70.7211907 306.744704,70.2138481 306.744704,69.5592595 C306.744704,56.6263959 309.737125,46.6763572 324.495067,46.6763572 C337.096192,46.6763572 340.250483,53.3082584 340.250483,65.9087251 C340.250483,70.3800466 339.750288,70.7211907 338.426156,70.7211907 M324.8261,31.5931189 C297.790775,31.5931189 285.192567,48.1590223 285.192567,77.8414822 C285.192567,105.866331 295.472086,123.605829 327.814146,123.605829 C339.420713,123.605829 349.710441,121.777646 356.163395,118.787532 C357.003372,118.466798 357.33003,117.974034 357.33003,117.306325 L356.163395,104.363256 C355.839653,103.715957 355.179046,103.545385 354.349276,103.545385 C349.205871,105.197164 339.420713,107.347539 330.968437,107.347539 C315.53968,107.347539 307.08157,102.882049 307.08157,85.1206827 C307.08157,84.467552 307.252191,84.1468181 308.080502,84.1468181 L354.846555,84.1468181 C358.824783,84.1468181 359.322061,81.3170709 359.322061,70.0491075 C359.322061,46.0086476 351.359772,31.5931189 324.8261,31.5931189" fill="#F3A521" id="Fill-26"/><path d="M406.069593,31.5932647 C395.625286,31.5932647 380.70839,33.5803567 371.751544,35.0673955 C370.745321,35.2306781 370.094921,35.7307314 370.094921,36.7264642 L370.094921,120.283464 C370.094921,121.274823 370.745321,121.958569 371.751544,121.958569 L390.163973,121.958569 C391.14978,121.958569 391.813304,121.274823 391.813304,120.283464 L391.813304,50.9874575 C391.813304,49.9946404 392.320791,49.6578699 393.477218,49.3342203 C396.288811,48.6679686 400.271413,48.3414032 405.25149,48.3414032 C418.513222,48.3414032 421.343772,51.6478776 421.343772,64.2512601 L421.343772,120.283464 C421.343772,121.274823 422.001462,121.958569 422.997478,121.958569 L441.40699,121.958569 C442.39863,121.958569 443.056321,121.274823 443.056321,120.283464 L443.056321,63.2555272 C443.056321,39.0503267 435.255903,31.5932647 406.069593,31.5932647" fill="#F3A521" id="Fill-28"/><path d="M497.447942,33.2418367 L483.51102,33.2418367 C482.854787,33.2418367 482.528129,32.9152713 482.528129,32.2519354 L482.528129,11.5266972 C482.528129,10.5295065 481.854397,9.8690863 480.854007,9.8690863 L462.454703,9.8690863 C461.460146,9.8690863 460.796622,10.5295065 460.796622,11.5266972 L460.796622,32.2519354 C460.796622,32.9152713 460.465589,33.2418367 459.796232,33.2418367 L448.379243,33.2418367 C447.373019,33.2418367 446.70512,33.8993411 446.70512,34.8994475 L446.70512,48.3411116 C446.70512,49.3339287 447.373019,49.9943488 448.379243,49.9943488 L459.796232,49.9943488 C460.465589,49.9943488 460.796622,50.3340351 460.796622,50.9871659 L460.796622,105.363217 C460.796622,117.462172 467.59665,123.605683 480.854007,123.605683 C485.5118,123.605683 490.643539,122.942347 494.302401,122.108439 C495.126337,121.958278 495.956107,120.943592 495.956107,119.943486 L496.447552,108.854842 C496.447552,107.517965 495.619241,107.207436 494.795304,107.207436 L489.651899,107.207436 C484.352456,107.207436 482.528129,105.689782 482.528129,100.224186 L482.528129,50.9871659 C482.528129,50.3340351 482.854787,49.9943488 483.51102,49.9943488 L497.447942,49.9943488 C498.443957,49.9943488 499.11769,49.3339287 499.11769,48.3411116 L499.11769,34.8994475 C499.11769,33.8993411 498.443957,33.2418367 497.447942,33.2418367" fill="#F3A521" id="Fill-30"/><path d="M550.855214,107.689995 C550.855214,108.191506 550.684594,108.518071 549.690037,108.854842 C547.539052,109.347606 543.066462,109.66834 539.247189,109.66834 C526.144411,109.66834 523.159282,108.353331 523.159282,96.5765669 C523.159282,84.629231 526.797727,82.4934351 538.742619,82.4934351 L549.850449,82.4934351 C550.527098,82.4934351 550.855214,82.8302057 550.855214,83.4775049 L550.855214,107.689995 Z M539.080943,31.5929731 C527.968738,31.5929731 516.359254,32.9152713 510.043379,34.7434543 C509.06778,35.0671039 508.891326,36.0570052 509.06778,37.0600274 L510.224208,49.8237767 C510.378787,50.8107623 511.711668,50.8107623 512.722267,50.6576848 C518.017335,49.8237767 527.300839,49.0029897 533.269639,49.0029897 C546.206171,49.0029897 550.855214,51.3108155 550.855214,61.2710594 L550.855214,67.8956713 C550.855214,68.5633809 550.527098,68.7252057 549.850449,68.8957778 L530.285968,71.3902124 C505.925155,74.3599163 502.092757,81.9860925 502.092757,98.9077189 C502.092757,117.973888 511.052519,123.605683 540.90527,123.605683 C552.351425,123.605683 564.128613,122.440836 569.928251,120.621401 C571.752577,119.943486 572.073402,119.124157 572.073402,118.129882 L572.073402,57.9456326 C572.073402,38.548524 559.644356,31.5929731 539.080943,31.5929731 Z" fill="#F3A521" id="Fill-32"/><path d="M665.695921,85.593182 C656.737617,87.5977686 649.291564,92.9132032 647.181412,98.2927846 C647.079331,98.6164342 646.969959,99.0260988 646.859129,99.5086575 C646.557262,105.986023 644.1642,107.031324 633.546356,107.031324 L610.936956,107.031324 C606.147916,107.031324 603.994015,105.36934 603.994015,100.093268 L603.994015,1.92392568 C603.994015,0.760536537 603.336324,0.107405788 602.333017,0.107405788 L583.994961,0.107405788 C583.004779,0.107405788 582.341255,0.760536537 582.341255,1.92392568 L582.341255,103.067345 C582.341255,118.431955 589.281279,123.229841 603.006749,123.229841 L637.702496,123.229841 C651.636502,123.133621 661.296246,120.662513 665.805293,112.009988 L665.866541,112.009988 C667.755033,108.368201 668.74084,103.650498 668.74084,97.5463495 C668.74084,92.9336135 667.911071,89.1810275 665.695921,85.593182" fill="#F3A521" id="Fill-34"/><g id="Group-38" transform="translate(844.352624, 31.384496)"><mask fill="white" id="mask-4"><use xmlns:xlink="http://www.w3.org/1999/xlink" xlink:href="#path-3"/></mask><g id="Clip-37"/><path d="M16.928468,4.43924806 L16.8774277,4.42175349 L14.4406173,10.4180186 L13.3191887,10.4180186 L10.8021721,4.20015556 L10.7467569,4.21765013 L10.7467569,10.4180186 L8.70514431,10.4180186 L8.70514431,0.482558656 L11.2250775,0.482558656 L13.8718824,7.49205116 L16.5405617,0.482558656 L18.9540394,0.482558656 L18.9540394,10.4180186 L16.928468,10.4180186 L16.928468,4.43924806 Z M7.34018048,2.23055814 L4.80128943,2.23055814 L4.80128943,10.3830295 L2.65030476,10.3830295 L2.65030476,2.23055814 L0.142037903,2.23055814 L0.142037903,0.482558656 L7.34018048,0.482558656 L7.34018048,2.23055814 Z" fill="#B0B2B2" id="Fill-36" mask="url(#mask-4)"/></g></g><text fill="#231F20" font-family="Helvetica-Bold, Helvetica" font-size="3.5225" font-weight="bold" id="TM"><tspan x="660" y="167">TM</tspan></text><g fill="#231F20" id="Group-66" transform="translate(345.000000, 154.000000)"><path d="M68.5774109,19.0715107 C68.5774109,16.9602488 66.658464,13.9242071 62.9488887,13.9242071 C59.5892734,13.9242071 57.3189083,16.8293976 57.3189083,19.8183917 C57.3189083,23.3822488 59.7627952,25.9360524 63.9535653,25.9360524 L71.8918231,25.9360524 C70.0180793,28.8838798 66.7444958,30.7731357 62.9911755,30.7731357 C57.0578965,30.7731357 52.259071,25.8919452 52.259071,19.9080762 C52.259071,13.9242071 57.0578965,9.04301667 62.9911755,9.04301667 C68.9273709,9.04301667 73.7699414,13.9242071 73.7699414,19.9080762 C73.7699414,21.0974988 73.5497583,22.2384036 73.2479178,23.2955048 L61.2472086,23.2955048 L61.2472086,22.1060821 L65.4802655,21.9767012 C67.6179375,21.8884869 68.5774109,20.7887488 68.5774109,19.0715107" id="Fill-40"/><polygon id="Fill-42" points="83.1512006 15.7721494 87.2530226 9.70153631 92.9252898 9.70153631 85.9450474 19.5109649 93.4910584 30.114322 87.4717476 30.114322 82.9776788 23.5158935 78.4384069 30.114322 72.7661397 30.114322 80.183832 19.777078 72.9848646 9.70153631 79.0085499 9.70153631"/><path d="M100.170773,13.7045536 C101.65227,10.5361905 104.314882,9.13064286 107.018322,9.13064286 C111.909012,9.13064286 116.357878,13.3090595 116.357878,19.9074881 C116.357878,26.5059167 111.909012,30.6858036 107.018322,30.6858036 C104.314882,30.6858036 101.65227,29.2773155 100.170773,26.1104226 C100.083283,25.933994 99.953506,25.976631 99.953506,26.156 L99.953506,38.5162917 L94.7186887,38.5162917 L94.7186887,9.699625 L99.953506,9.699625 L99.953506,13.6589762 C99.953506,13.836875 100.083283,13.8795119 100.170773,13.7045536 M105.579112,26.3309583 C108.635429,26.3309583 111.29804,23.6463036 111.29804,19.9074881 C111.29804,16.1686726 108.635429,13.4840179 105.579112,13.4840179 C102.570915,13.4840179 99.8645578,16.1686726 99.8645578,19.9074881 C99.8645578,23.6463036 102.570915,26.3309583 105.579112,26.3309583" id="Fill-44"/><path d="M134.815056,19.0715107 C134.815056,16.9602488 132.896109,13.9242071 129.187992,13.9242071 C125.826919,13.9242071 123.55947,16.8293976 123.55947,19.8183917 C123.55947,23.3822488 126.003357,25.9360524 130.189752,25.9360524 L138.132385,25.9360524 C136.255724,28.8838798 132.982141,30.7731357 129.233195,30.7731357 C123.299916,30.7731357 118.499632,25.8919452 118.499632,19.9080762 C118.499632,13.9242071 123.299916,9.04301667 129.233195,9.04301667 C135.163558,9.04301667 140.007587,13.9242071 140.007587,19.9080762 C140.007587,21.0974988 139.791778,22.2384036 139.484105,23.2955048 L127.48777,23.2955048 L127.48777,22.1060821 L131.717911,21.9767012 C133.855583,21.8884869 134.815056,20.7887488 134.815056,19.0715107" id="Fill-46"/><path d="M158.335134,26.1111577 C156.852179,29.2765804 154.191025,30.6850685 151.487585,30.6850685 C146.596895,30.6850685 142.146571,26.5066518 142.146571,19.906753 C142.146571,13.3097946 146.596895,9.12990774 151.487585,9.12990774 C154.191025,9.12990774 156.852179,10.5354554 158.335134,13.7052887 C158.421166,13.880247 158.552401,13.8361399 158.552401,13.6582411 L158.552401,0.856877976 L163.78576,0.856877976 L163.78576,30.1131458 L158.552401,30.1131458 L158.552401,26.1552649 C158.552401,25.9758958 158.421166,25.9347292 158.335134,26.1111577 M152.926795,13.4832827 C149.870478,13.4832827 147.209324,16.1679375 147.209324,19.906753 C147.209324,23.6455685 149.870478,26.3302232 152.926795,26.3302232 C155.934992,26.3302232 158.639891,23.6455685 158.639891,19.906753 C158.639891,16.1679375 155.934992,13.4832827 152.926795,13.4832827" id="Fill-48"/><path d="M167.544038,3.76324464 C167.544038,2.09011369 168.940961,0.681625595 170.597438,0.681625595 C172.256832,0.681625595 173.650839,2.09011369 173.650839,3.76324464 C173.650839,5.43490536 172.256832,6.84339345 170.597438,6.84339345 C168.940961,6.84339345 167.544038,5.43490536 167.544038,3.76324464 Z M167.978571,30.1128518 L173.214847,30.1128518 L173.214847,9.70006607 L167.978571,9.70006607 L167.978571,30.1128518 Z" id="Fill-50"/><path d="M192.45681,26.1111577 C190.972397,29.2765804 188.309785,30.6850685 185.607803,30.6850685 C180.718571,30.6850685 176.269705,26.5066518 176.269705,19.906753 C176.269705,13.3097946 180.718571,9.12990774 185.607803,9.12990774 C188.309785,9.12990774 190.972397,10.5354554 192.45681,13.7052887 C192.5443,13.880247 192.675535,13.8361399 192.675535,13.6582411 L192.675535,9.70036012 L197.910353,9.70036012 L197.910353,30.1131458 L192.675535,30.1131458 L192.675535,26.1552649 C192.675535,25.9758958 192.5443,25.9347292 192.45681,26.1111577 M187.045555,13.4832827 C183.993613,13.4832827 181.331001,16.1679375 181.331001,19.906753 C181.331001,23.6455685 183.993613,26.3302232 187.045555,26.3302232 C190.058127,26.3302232 192.761567,23.6455685 192.761567,19.906753 C192.761567,16.1679375 190.058127,13.4832827 187.045555,13.4832827" id="Fill-52"/><path d="M224.834083,25.9776601 C224.834083,25.8027018 224.702848,25.7585946 224.616816,25.9364935 C223.133861,29.1004458 220.514994,30.5089339 217.852382,30.5089339 C213.01127,30.5089339 208.603233,26.3746244 208.603233,19.8217732 C208.603233,13.2659815 213.01127,9.12873155 217.852382,9.12873155 C220.514994,9.12873155 223.133861,10.5372196 224.616816,13.7055827 C224.702848,13.8805411 224.834083,13.8349637 224.834083,13.6600054 L224.834083,9.7021244 L230.0689,9.7021244 L230.0689,28.9254875 C230.0689,34.6020768 226.187261,38.9995589 219.46803,38.9995589 C215.71471,38.9995589 212.444043,37.6792851 210.045359,35.437172 L213.189166,32.0071065 C215.280176,33.677297 216.938112,34.5564994 219.381998,34.5564994 C223.219892,34.5564994 224.834083,31.8292077 224.834083,28.4432494 L224.834083,25.9776601 Z M219.294508,13.485047 C216.284853,13.485047 213.667444,16.1241244 213.667444,19.8217732 C213.667444,23.5135411 216.284853,26.1526185 219.294508,26.1526185 C222.261877,26.1526185 224.923031,23.5135411 224.923031,19.8217732 C224.923031,16.1241244 222.261877,13.485047 219.294508,13.485047 Z" id="Fill-54"/><path d="M239.498279,9.70168333 L239.498279,14.1432726 C239.498279,14.2329571 239.585768,14.2770643 239.629513,14.1432726 C240.325059,10.4941417 241.896962,9.12829048 244.603319,9.12829048 L245.081598,9.12829048 L245.081598,14.6740286 L242.726659,14.6740286 C240.588987,14.6740286 239.498279,16.3456893 239.498279,18.721594 L239.498279,30.114469 L234.262003,30.114469 L234.262003,9.70168333 L239.498279,9.70168333 Z" id="Fill-56"/><path d="M256.647336,9.04125238 C262.538328,9.04125238 267.377982,13.9239131 267.377982,19.9092524 C267.377982,25.890181 262.538328,30.7728417 256.647336,30.7728417 C250.667396,30.7728417 245.827741,25.890181 245.827741,19.9092524 C245.827741,13.9239131 250.667396,9.04125238 256.647336,9.04125238 M256.602133,13.8356988 C253.461242,13.8356988 250.887579,16.4777167 250.887579,19.9092524 C250.887579,23.3393179 253.461242,25.9783952 256.602133,25.9783952 C259.744481,25.9783952 262.316687,23.3393179 262.316687,19.9092524 C262.316687,16.4777167 259.744481,13.8356988 256.602133,13.8356988" id="Fill-58"/><path d="M278.683729,30.774606 C273.577231,30.774606 270.308022,27.6518202 270.308022,23.074969 L270.308022,9.70168333 L275.541381,9.70168333 L275.541381,22.6780048 C275.541381,24.7039929 276.850814,26.0227964 278.813506,26.0227964 C280.601218,26.0227964 281.952938,24.6584155 281.952938,22.7221119 L281.952938,9.70168333 L287.19213,9.70168333 L287.19213,23.074969 C287.19213,27.6518202 283.656077,30.774606 278.683729,30.774606" id="Fill-60"/><path d="M296.702875,13.7045536 C298.188746,10.5361905 300.8499,9.13064286 303.55334,9.13064286 C308.442572,9.13064286 312.894354,13.3090595 312.894354,19.9074881 C312.894354,26.5059167 308.442572,30.6858036 303.55334,30.6858036 C300.8499,30.6858036 298.188746,29.2773155 296.702875,26.1104226 C296.616843,25.933994 296.488524,25.976631 296.488524,26.156 L296.488524,38.5162917 L291.249332,38.5162917 L291.249332,9.699625 L296.488524,9.699625 L296.488524,13.6589762 C296.488524,13.836875 296.616843,13.8795119 296.702875,13.7045536 M302.11413,26.3309583 C305.168989,26.3309583 307.828684,23.6463036 307.828684,19.9074881 C307.828684,16.1686726 305.168989,13.4840179 302.11413,13.4840179 C299.104475,13.4840179 296.401034,16.1686726 296.401034,19.9074881 C296.401034,23.6463036 299.104475,26.3309583 302.11413,26.3309583" id="Fill-62"/><path d="M490.133457,28.3625333 L486.275148,37.2809976 L488.999003,37.2809976 L500.948677,9.69639048 L498.205866,9.69639048 L491.520173,25.2470988 L484.634711,9.69639048 L481.910856,9.69639048 L490.133457,28.3625333 Z M461.823156,29.891581 L464.401194,29.891581 L464.401194,22.4845214 C464.401194,19.8248607 464.52368,17.992944 464.767194,16.9917119 C465.162357,15.4567833 465.974556,14.170325 467.206707,13.1308667 C468.441773,12.0899381 469.838697,11.5694738 471.397477,11.5694738 C472.760862,11.5694738 473.866152,11.9076286 474.713347,12.5824679 C475.559084,13.2573071 476.130685,14.2614798 476.431067,15.5979262 C476.620629,16.3786226 476.718326,17.931194 476.718326,20.2571107 L476.718326,29.891581 L479.294906,29.891581 L479.294906,19.4955274 C479.294906,16.7505929 479.019312,14.726075 478.466667,13.4263845 C477.91548,12.126694 477.059537,11.0931167 475.898836,10.3256524 C474.738136,9.5581881 473.409746,9.17445595 471.912209,9.17445595 C470.439461,9.17445595 469.077534,9.5199619 467.824969,10.2050929 C466.573862,10.891694 465.432118,11.9282119 464.401194,13.3161167 L464.401194,9.69639048 L461.823156,9.69639048 L461.823156,29.891581 Z M452.113226,14.0350631 C453.639927,15.6052774 454.402548,17.5592238 454.402548,19.8954321 C454.402548,21.4288905 454.062795,22.8079738 453.381831,24.0326821 C452.700867,25.2559202 451.729729,26.2248071 450.466957,26.9422833 C449.204184,27.6582893 447.868504,28.0184976 446.458457,28.0184976 C445.060076,28.0184976 443.749184,27.656819 442.530157,26.9319917 C441.31113,26.2086345 440.339991,25.2000512 439.615282,23.9003607 C438.892032,22.6021405 438.531865,21.2436405 438.531865,19.82045 C438.531865,18.3869679 438.889116,17.0269976 439.607992,15.7420095 C440.323951,14.4570214 441.290716,13.4572595 442.50391,12.7471345 C443.717104,12.0370095 445.042578,11.6812119 446.475955,11.6812119 C448.70695,11.6812119 450.586526,12.466319 452.113226,14.0350631 Z M454.236317,9.69639048 L454.236317,13.4072714 C453.228724,11.9958429 452.060732,10.9387417 450.729426,10.2330274 C449.396662,9.5273131 447.909333,9.17445595 446.264521,9.17445595 C443.416722,9.17445595 440.980126,10.2080333 438.953275,12.2766583 C436.92934,14.3423429 435.915914,16.8299857 435.915914,19.7381167 C435.915914,22.7079976 436.920591,25.229456 438.927028,27.3024917 C440.934923,29.3755274 443.355479,30.4135155 446.191613,30.4135155 C447.786847,30.4135155 449.256678,30.0783012 450.601108,29.4093429 C451.944079,28.7418548 453.157274,27.7450333 454.236317,26.421819 L454.236317,29.891581 L456.777901,29.891581 L456.777901,9.69639048 L454.236317,9.69639048 Z M426.168072,12.7471345 C427.379808,13.4572595 428.343656,14.4570214 429.061074,15.7420095 C429.775576,17.0269976 430.135743,18.3869679 430.135743,19.82045 C430.135743,21.2436405 429.772659,22.6021405 429.049409,23.9003607 C428.329075,25.2000512 427.357936,26.2086345 426.140367,26.9319917 C424.92134,27.656819 423.620655,28.0184976 422.236855,28.0184976 C420.828267,28.0184976 419.491128,27.6582893 418.222523,26.9422833 C416.953919,26.2248071 415.979864,25.2559202 415.301816,24.0326821 C414.622311,22.8079738 414.2811,21.4288905 414.2811,19.8954321 C414.2811,17.5592238 415.045179,15.6052774 416.568963,14.0350631 C418.094205,12.466319 419.970865,11.6812119 422.200401,11.6812119 C423.632321,11.6812119 424.954878,12.0370095 426.168072,12.7471345 Z M411.889707,37.2809976 L414.464829,37.2809976 L414.464829,26.421819 C415.54533,27.7450333 416.75415,28.7418548 418.08983,29.4093429 C419.426969,30.0783012 420.892426,30.4135155 422.484744,30.4135155 C425.319419,30.4135155 427.737059,29.3755274 429.742038,27.3024917 C431.747017,25.229456 432.748777,22.7079976 432.748777,19.7381167 C432.748777,16.8299857 431.738268,14.3423429 429.712874,12.2766583 C427.691856,10.2080333 425.256718,9.17445595 422.413294,9.17445595 C420.780147,9.17445595 419.304483,9.5273131 417.980468,10.2330274 C416.653536,10.9387417 415.484087,11.9958429 414.464829,13.4072714 L414.464829,9.69639048 L411.889707,9.69639048 L411.889707,37.2809976 Z M377.217427,29.891581 L379.796923,29.891581 L379.796923,21.3362655 C379.796923,18.8089262 380.04627,16.9358429 380.542046,15.7111345 C381.039281,14.484956 381.806276,13.5087179 382.844491,12.7853607 C383.881247,12.0620036 384.993828,11.6988548 386.186608,11.6988548 C387.217532,11.6988548 388.107013,11.9634976 388.855053,12.4883726 C389.60455,13.0161881 390.12949,13.713081 390.429872,14.5864024 C390.730255,15.4597238 390.880446,17.1152119 390.880446,19.5513964 L390.880446,29.891581 L393.458484,29.891581 L393.458484,21.9831702 C393.458484,19.0882714 393.697623,17.0211167 394.172985,15.7831762 C394.651264,14.5481762 395.406594,13.5572357 396.440434,12.8132952 C397.474274,12.070825 398.613102,11.6988548 399.862751,11.6988548 C400.890758,11.6988548 401.772949,11.947325 402.515155,12.441325 C403.254446,12.9367952 403.776469,13.589581 404.084142,14.4011524 C404.388899,15.2127238 404.542006,16.6991345 404.542006,18.8647952 L404.542006,29.891581 L407.173997,29.891581 L407.173997,18.8647952 C407.173997,16.3403964 406.91736,14.4467298 406.404085,13.1837952 C405.889352,11.922331 405.103401,10.9387417 404.043314,10.2330274 C402.983227,9.5273131 401.762741,9.17445595 400.378941,9.17445595 C398.897444,9.17445595 397.512186,9.58612262 396.227542,10.409456 C394.941439,11.2342595 393.869687,12.435444 393.013743,14.0203607 C392.608373,12.8324083 392.128636,11.9193905 391.575991,11.2813071 C391.023346,10.644694 390.310303,10.1359917 389.435403,9.75078929 C388.564877,9.36705714 387.643316,9.17445595 386.672178,9.17445595 C385.234425,9.17445595 383.865207,9.57142024 382.561607,10.3624083 C381.615257,10.9563845 380.693695,11.8973369 379.796923,13.1837952 L379.796923,9.69639048 L377.217427,9.69639048 L377.217427,29.891581 Z M368.289074,14.114456 C369.836189,15.7111345 370.609017,17.6400869 370.609017,19.9042536 C370.609017,21.3656702 370.257599,22.7271107 369.556221,23.988575 C368.853384,25.2515095 367.905576,26.2262774 366.708422,26.9143488 C365.515642,27.5994798 364.203292,27.9435155 362.774289,27.9435155 C361.345286,27.9435155 360.032936,27.5994798 358.838698,26.9143488 C357.644459,26.2262774 356.695193,25.2515095 355.993815,23.988575 C355.289521,22.7271107 354.941019,21.3656702 354.941019,19.9042536 C354.941019,17.6400869 355.709473,15.7111345 357.250755,14.114456 C358.78912,12.5177774 360.629326,11.7194381 362.774289,11.7194381 C364.906128,11.7194381 366.743418,12.5177774 368.289074,14.114456 Z M355.092668,12.5721762 C353.248088,14.6260988 352.326527,17.0534619 352.326527,19.8483845 C352.326527,22.6712417 353.300582,25.1383012 355.25015,27.2466226 C357.198261,29.3564143 359.709223,30.4135155 362.784496,30.4135155 C365.845187,30.4135155 368.348859,29.3564143 370.298427,27.2466226 C372.249454,25.1383012 373.223509,22.6712417 373.223509,19.8483845 C373.223509,17.0402298 372.299032,14.6099262 370.457367,12.5530631 C368.4276,10.3006583 365.869976,9.17445595 362.784496,9.17445595 C359.685892,9.17445595 357.120978,10.3065393 355.092668,12.5721762 Z M346.912355,11.3842238 C346.052037,10.7284976 345.006531,10.1977417 343.772923,9.78754524 C342.539314,9.37881905 341.260502,9.17445595 339.935029,9.17445595 C337.823604,9.17445595 335.913406,9.64640238 334.207351,10.5858845 C332.501297,11.5268369 331.161242,12.8353488 330.185728,14.5114202 C329.210215,16.1904321 328.721729,18.004706 328.721729,19.9601226 C328.721729,22.8697238 329.764318,25.3382536 331.850954,27.3671821 C333.93759,29.397581 336.565206,30.4135155 339.730885,30.4135155 C341.794191,30.4135155 343.631481,30.0106702 345.245671,29.2093905 C346.859861,28.4081107 348.145964,27.2819083 349.103979,25.8263726 L347.05963,24.4722833 C345.196093,26.834956 342.793035,28.0184976 339.850455,28.0184976 C338.245014,28.0184976 336.794138,27.6582893 335.500745,26.9422833 C334.207351,26.2248071 333.189551,25.217694 332.447344,23.920944 C331.706596,22.6227238 331.336222,21.2362893 331.336222,19.7660512 C331.336222,17.5033548 332.14113,15.5817536 333.753862,13.9983071 C335.365135,12.416331 337.391987,11.6253429 339.832957,11.6253429 C342.884899,11.6253429 345.29379,12.8074143 347.05963,15.1700869 L349.103979,13.8895095 C348.501756,12.8750452 347.771215,12.03995 346.912355,11.3842238 Z M25.9101504,29.891581 L28.4881885,29.891581 L28.4881885,22.4845214 C28.4881885,19.8248607 28.6106745,17.992944 28.8556465,16.9917119 C29.2493514,15.4567833 30.0615501,14.170325 31.296617,13.1308667 C32.5302257,12.0899381 33.925691,11.5694738 35.485929,11.5694738 C36.8478564,11.5694738 37.9531465,11.9076286 38.8003412,12.5824679 C39.6475358,13.2573071 40.2205952,14.2614798 40.5180611,15.5979262 C40.7090809,16.3786226 40.8053199,17.931194 40.8053199,20.2571107 L40.8053199,29.891581 L43.3833581,29.891581 L43.3833581,19.4955274 C43.3833581,16.7505929 43.1063065,14.726075 42.5551196,13.4263845 C42.0024745,12.126694 41.1465309,11.0931167 39.9858304,10.3256524 C38.8265881,9.5581881 37.4967404,9.17445595 36.0006617,9.17445595 C34.5264555,9.17445595 33.1645281,9.5199619 31.9119632,10.2050929 C30.6608564,10.891694 29.5191122,11.9282119 28.4881885,13.3161167 L28.4881885,9.69639048 L25.9101504,9.69639048 L25.9101504,29.891581 Z M16.2002205,14.0350631 C17.7269207,15.6052774 18.4895417,17.5592238 18.4895417,19.8954321 C18.4895417,21.4288905 18.1497889,22.8079738 17.4688252,24.0326821 C16.7878615,25.2559202 15.8167227,26.2248071 14.5539506,26.9422833 C13.2911785,27.6582893 11.9554981,28.0184976 10.5454513,28.0184976 C9.1470697,28.0184976 7.83763629,27.656819 6.6186092,26.9319917 C5.39812394,26.2086345 4.42698513,25.2000512 3.70373461,23.9003607 C2.98048409,22.6021405 2.61885882,21.2436405 2.61885882,19.82045 C2.61885882,18.3869679 2.97756775,17.0269976 3.69498561,15.7420095 C4.41240347,14.4570214 5.37770961,13.4572595 6.59090404,12.7471345 C7.80555663,12.0370095 9.1295717,11.6812119 10.5629492,11.6812119 C12.795402,11.6812119 14.6735203,12.466319 16.2002205,14.0350631 Z M18.3233107,9.69639048 L18.3233107,13.4072714 C17.3171759,11.9958429 16.1477265,10.9387417 14.8164206,10.2330274 C13.4851147,9.5273131 11.9963268,9.17445595 10.3515151,9.17445595 C7.50371619,9.17445595 5.06712017,10.2080333 3.04172707,12.2766583 C1.01779214,14.3423429 0.00436650918,16.8299857 0.00436650918,19.7381167 C0.00436650918,22.7079976 1.00758498,25.229456 3.01402191,27.3024917 C5.02191701,29.3755274 7.4424732,30.4135155 10.2786068,30.4135155 C11.8738408,30.4135155 13.3436725,30.0783012 14.6881019,29.4093429 C16.0310732,28.7418548 17.2442676,27.7450333 18.3233107,26.421819 L18.3233107,29.891581 L20.8648947,29.891581 L20.8648947,9.69639048 L18.3233107,9.69639048 Z" id="Fill-64"/></g></g></g></g></svg>