<svg xmlns="http://www.w3.org/2000/svg" viewBox="0 0 486.54 277.79"><defs><style>.cls-1{fill:#012169;}.cls-2{fill:#fff;}</style></defs><title>CB_Logo_RGB_Vertical_Realty</title><g id="Layer_2" data-name="Layer 2"><g id="DBA"><path class="cls-1" d="M166.78,267.56v10.23h-6.1V245.65h14.57c6.55,0,11.07,4.57,11.07,11.06,0,4.83-2.64,9.18-6.68,10.28l8,10.8h-7.33l-7.47-10.23Zm0-5.36h7c5.18,0,6.4-2.81,6.4-5.53,0-3.12-1.88-5.57-6.4-5.57h-7Z"/><path class="cls-1" d="M196.94,251.1v8h15.55v5.44H196.94v7.77h17.52v5.45H190.84V245.65h23.62v5.45Z"/><path class="cls-1" d="M217,277.79l16.42-32.14h.62l16.41,32.14h-6.67l-2.5-5.05H226.14l-2.46,5.05Zm12.12-10.41h9.17l-4.56-9.7Z"/><path class="cls-1" d="M276.46,272.34v5.45H253.32V245.65h6.15v26.69Z"/><path class="cls-1" d="M296.7,251.1h-9.18v26.69h-6.14V251.1h-9.22v-5.45H296.7Z"/><path class="cls-1" d="M329.36,245.65l-12.24,20v12.16H311V265.63l-12.16-20H306L314,259.3l8.17-13.65Z"/><rect id="Rule" class="cls-1" x="163.33" y="229.69" width="159.87" height="1.63"/><polygon class="cls-1" points="83.53 180.85 76.36 180.85 76.36 215.35 101.4 215.35 101.4 208.92 83.53 208.92 83.53 180.85"/><polygon class="cls-1" points="167.39 198.89 159.06 180.89 158.2 180.89 149.88 198.84 143.48 180.89 135.84 180.89 148.49 215.17 148.57 215.4 149.64 215.4 158.65 196.16 167.57 215.35 168.69 215.35 181.56 180.89 173.93 180.89 167.39 198.89"/><polygon class="cls-1" points="184.7 215.35 210.29 215.35 210.29 208.83 191.86 208.83 191.86 201.59 208.21 201.59 208.21 195.02 191.86 195.02 191.86 187.28 210.29 187.28 210.29 180.85 184.7 180.85 184.7 215.35"/><polygon class="cls-1" points="223.25 180.85 216.09 180.85 216.09 215.35 241.13 215.35 241.13 208.92 223.25 208.92 223.25 180.85"/><polygon class="cls-1" points="251.54 180.85 244.38 180.85 244.38 215.35 269.42 215.35 269.42 208.92 251.54 208.92 251.54 180.85"/><path class="cls-1" d="M306.8,190.73a4.34,4.34,0,0,1-.24,1.4,3.74,3.74,0,0,1-.68,1.26,3.48,3.48,0,0,1-1.08.89,3.32,3.32,0,0,1-1.53.33h-7.59v-7.33h8.06a2.47,2.47,0,0,1,1.15.28,3.68,3.68,0,0,1,1,.76,3.9,3.9,0,0,1,.67,1.1,3.47,3.47,0,0,1,.25,1.31m1.39,14a4,4,0,0,1-.3,1.51,5.25,5.25,0,0,1-.82,1.39,3.94,3.94,0,0,1-1.19,1,2.89,2.89,0,0,1-1.41.35h-8.79V201h8.1A4.66,4.66,0,0,1,307,202.1a3.35,3.35,0,0,1,1.16,2.6m4.86-5.27a8.06,8.06,0,0,0-2.3-1.76,7.6,7.6,0,0,0-1-.42,4,4,0,0,0,.76-.41,7,7,0,0,0,1.82-1.73,8.44,8.44,0,0,0,1.18-2.22,6.76,6.76,0,0,0,.44-2.29,12.63,12.63,0,0,0-.81-4.84,7.49,7.49,0,0,0-2.24-3,8.09,8.09,0,0,0-3.28-1.5,18.09,18.09,0,0,0-3.9-.4H288.51v34.5h16a16.12,16.12,0,0,0,4.18-.52,9,9,0,0,0,3.48-1.74,8.49,8.49,0,0,0,2.36-3.22,11.94,11.94,0,0,0,.86-4.82,7.51,7.51,0,0,0-.65-3.09,9.78,9.78,0,0,0-1.65-2.53"/><path class="cls-1" d="M338.47,203.71h-8.55l4.3-9Zm-4.79-22.82-17.63,34.46h7.81l2.59-5.31h15.49l2.63,5.31h7.82l-17.63-34.46Z"/><polygon class="cls-1" points="378.25 200.85 356.63 180.99 356.53 180.89 355.35 180.89 355.35 215.35 362.52 215.35 362.52 195.71 384.25 215.35 385.42 215.35 385.42 180.89 378.25 180.89 378.25 200.85"/><polygon class="cls-1" points="421.2 180.89 412.36 180.89 399.44 197.36 399.44 180.84 392.27 180.84 392.27 215.35 399.44 215.35 399.44 200.52 413.12 215.35 422.62 215.35 407.04 198.68 421.2 180.89"/><polygon class="cls-1" points="425.7 215.35 451.3 215.35 451.3 208.83 432.87 208.83 432.87 201.59 449.22 201.59 449.22 195.02 432.87 195.02 432.87 187.28 451.3 187.28 451.3 180.84 425.7 180.84 425.7 215.35"/><path class="cls-1" d="M476.05,196.85a4.31,4.31,0,0,1-1.56,1,5.09,5.09,0,0,1-1.7.32h-8.53V187.28h8.53a4.6,4.6,0,0,1,2.53.59,4.36,4.36,0,0,1,1.45,1.45,5.49,5.49,0,0,1,.7,1.82,10.68,10.68,0,0,1,.17,1.69,5.66,5.66,0,0,1-.45,2.35,5.25,5.25,0,0,1-1.14,1.67m-11.79,7.74h5.87c1.25,1.8,2.52,3.59,3.76,5.31s2.63,3.57,4,5.32l.1.13h8.58l-.41-.55c-2.67-3.68-5.41-7.38-8.15-11a11,11,0,0,0,4.85-4.06,12.1,12.1,0,0,0,2-6.9,12.86,12.86,0,0,0-.88-4.81,11.22,11.22,0,0,0-2.46-3.81,11,11,0,0,0-3.79-2.49,13.28,13.28,0,0,0-4.88-.87H457.09v34.5h7.17Z"/><path class="cls-1" d="M30.67,185.68A19,19,0,0,0,27,182.81,18.27,18.27,0,0,0,22.68,181a17.65,17.65,0,0,0-4.83-.66,17.29,17.29,0,0,0-6.93,1.42,18,18,0,0,0-9.51,9.51,17.71,17.71,0,0,0,0,13.85,18.09,18.09,0,0,0,9.51,9.52A17.45,17.45,0,0,0,17.85,216a17.65,17.65,0,0,0,4.83-.66A17.87,17.87,0,0,0,27,213.48a19,19,0,0,0,3.65-2.87,16.82,16.82,0,0,0,2.78-3.75l.19-.35L27,203.81l-.16.24a14,14,0,0,1-1.69,2A12,12,0,0,1,23,207.78a10.67,10.67,0,0,1-2.46,1.11,8.81,8.81,0,0,1-2.67.4,9.58,9.58,0,0,1-4.16-.91,10.93,10.93,0,0,1-3.38-2.44A11.6,11.6,0,0,1,8,202.4a11,11,0,0,1,0-8.48,11.5,11.5,0,0,1,2.29-3.57,10.93,10.93,0,0,1,3.38-2.44,9.76,9.76,0,0,1,4.16-.91,8.81,8.81,0,0,1,2.67.4A10.48,10.48,0,0,1,23,188.52a11.83,11.83,0,0,1,2.13,1.66,12.41,12.41,0,0,1,1.69,2l.16.24,6.68-2.71-.19-.35a17.49,17.49,0,0,0-2.78-3.7"/><path class="cls-1" d="M64.18,198.1a11,11,0,0,1-.85,4.25A12,12,0,0,1,61,205.92a11.22,11.22,0,0,1-3.39,2.46,10,10,0,0,1-8.32,0,11.39,11.39,0,0,1-3.4-2.46,12,12,0,0,1-2.3-3.57,10.75,10.75,0,0,1-.85-4.25,11,11,0,0,1,.85-4.23,11.6,11.6,0,0,1,2.3-3.56,11.72,11.72,0,0,1,3.4-2.45,10,10,0,0,1,8.32,0,11.37,11.37,0,0,1,5.7,6,11,11,0,0,1,.85,4.23m1.91-12.65a18.39,18.39,0,0,0-5.67-3.84,17.83,17.83,0,0,0-13.9,0,18.32,18.32,0,0,0-5.68,3.84,18.09,18.09,0,0,0-3.83,5.7,17.77,17.77,0,0,0,0,13.92,18.12,18.12,0,0,0,3.83,5.68,18.32,18.32,0,0,0,5.68,3.84,17.83,17.83,0,0,0,13.9,0,18.09,18.09,0,0,0,9.51-9.52,17.77,17.77,0,0,0,0-13.92,18.12,18.12,0,0,0-3.84-5.7"/><path class="cls-1" d="M128.43,198.15a13.65,13.65,0,0,1-.94,5.53,8.68,8.68,0,0,1-2.37,3.27,7.86,7.86,0,0,1-3.2,1.57,16.28,16.28,0,0,1-3.57.4h-6.53V187.37h6.53a16,16,0,0,1,3.52.4,8.2,8.2,0,0,1,3.23,1.55,8.42,8.42,0,0,1,2.39,3.26,13.93,13.93,0,0,1,.94,5.57m2-13a17.39,17.39,0,0,0-12.13-4.34H104.65v34.5h13.68a20.21,20.21,0,0,0,6.73-1.08,15.48,15.48,0,0,0,5.4-3.21,14.91,14.91,0,0,0,3.85-5.6,21.5,21.5,0,0,0,0-14.67,14.83,14.83,0,0,0-3.85-5.6"/><rect class="cls-1" x="163.33" width="159.87" height="159.87"/><path class="cls-2" d="M171.87,151.33H314.66V8.54H171.87ZM316.3,153H170.24V6.91H316.3Z"/><polygon class="cls-2" points="262.86 54.39 274.08 46.9 285.29 54.39 281.64 41.41 292.22 33.06 278.75 32.52 274.08 19.88 269.4 32.52 255.93 33.06 266.52 41.41 262.86 54.39"/><path class="cls-2" d="M282.83,102.36a19.11,19.11,0,0,0-7.09-5.92,17.74,17.74,0,0,0,5.08-5.54,20.69,20.69,0,0,0,2.88-10.63,21.41,21.41,0,0,0-1.24-7.1,20.79,20.79,0,0,0-3.54-6.29,18.4,18.4,0,0,0-5.59-4.56,15.7,15.7,0,0,0-7.47-1.79H229V93.88a19.72,19.72,0,0,1-10.13-2,26.16,26.16,0,0,1-7.26-5.78,27.78,27.78,0,0,1-4.85-8.41A29.29,29.29,0,0,1,205,67.6a31.64,31.64,0,0,1,1.47-9.42,26,26,0,0,1,4.36-8.34,22.39,22.39,0,0,1,7.1-5.94,21.62,21.62,0,0,1,14.76-1.68,19.33,19.33,0,0,1,5,1.83,18.36,18.36,0,0,1,4.47,3.38,19.25,19.25,0,0,1,3.53,5.23l.82,1.74L256.43,48l-.64-1.33A28.51,28.51,0,0,0,245.1,34.76a31.61,31.61,0,0,0-17.16-4.55,33.8,33.8,0,0,0-15,3.26A35.13,35.13,0,0,0,201.77,42a37,37,0,0,0-6.89,11.9,39.9,39.9,0,0,0,7.39,39.37,37.47,37.47,0,0,0,11,8.72c.38.2.79.35,1.18.53l.75.34c.76.33,1.52.63,2.3.89.52.18,1,.34,1.58.49.79.23,1.6.42,2.42.58.54.1,1.1.19,1.65.27a31.58,31.58,0,0,0,4.27.28c.5,0,1,0,1.52,0a36.25,36.25,0,0,0,7.27-1.12,36.82,36.82,0,0,0,8.52-3.34,32.21,32.21,0,0,0,2.92-1.8c.62-.43,1.23-.88,1.82-1.36A31.88,31.88,0,0,0,252,95.48c.54-.55,1-1.11,1.54-1.7s.94-1.2,1.36-1.83a24.22,24.22,0,0,0,2.19-4l.44-1.12-1.06-1h0l-7.63-7s-.78,1.8-1.21,2.62a27.71,27.71,0,0,1-1.95,3.09,29,29,0,0,1-2.66,3.09c-.56.56-1.15,1-1.74,1.54V71.68h21.45a8,8,0,0,1,3.44.74,7.88,7.88,0,0,1,2.71,2,11,11,0,0,1,1.84,3.28,11.84,11.84,0,0,1,.7,4.12,10.69,10.69,0,0,1-2.7,7.14,9.22,9.22,0,0,1-2.92,2.16,8.42,8.42,0,0,1-3.66.78h-3.24c-.37.65-.75,1.29-1.17,1.91a27.34,27.34,0,0,1-3.32,4,35.46,35.46,0,0,1-5.33,4.36c-.31.21-.17.34,0,.34H265a8.17,8.17,0,0,1,3.64.82,9.24,9.24,0,0,1,2.91,2.28,11.78,11.78,0,0,1,2,3.44,11.42,11.42,0,0,1,.73,4,10.29,10.29,0,0,1-.77,4,10.15,10.15,0,0,1-2.14,3.3,11.16,11.16,0,0,1-3.21,2.3,8.94,8.94,0,0,1-3.86.83H241.31V106.23a39.84,39.84,0,0,1-4.23,1.33,39,39,0,0,1-8,1.15H229v26h35.3a26.16,26.16,0,0,0,8.58-1.39,22.45,22.45,0,0,0,7.12-4,19.1,19.1,0,0,0,4.91-6.34,18.56,18.56,0,0,0,1.82-8.22,20.61,20.61,0,0,0-3.86-12.42"/></g></g></svg>