<?xml version="1.0" encoding="UTF-8"?><svg xmlns="http://www.w3.org/2000/svg" class="header" enable-background="new 0 0 769 257" height="40px" id="Layer_1" preserveAspectRatio="xMidYMid meet" style="enable-background:new 0 0 768.7 257;" version="1.1" viewBox="0 0 769 257" width="120px" x="0px" xml:space="preserve" y="0px"><style type="text/css">
	.st0{fill:#C60039;}
	.st1{fill:#8F0C3E;}
	.st2{fill:#23223A;}
	.st3{fill:#FFDC17;}
</style><g><g><path class="st0" d="M150.5,102.9H134V66.4c0.3-4-0.7-7.9-2.8-11.3c-0.9-1.2-2.2-2.2-3.6-2.8c-1.4-0.6-2.9-0.9-4.5-0.8    c-1.6,0-3.2,0.4-4.7,1c-1.7,0.7-3.3,1.6-4.7,2.8c-1.5,1.2-2.9,2.7-4.1,4.3c-1.2,1.6-2.1,3.5-2.7,5.4v37.9H90.3V10.7h16.6v39.4    c2.3-4,5.6-7.4,9.7-9.6c4.1-2.4,8.8-3.6,13.5-3.6c3.5-0.1,7.1,0.6,10.3,2.2c2.5,1.4,4.6,3.3,6.2,5.8c1.5,2.5,2.6,5.3,3.1,8.1    c0.6,3.1,0.8,6.3,0.8,9.5V102.9z"/><path class="st0" d="M192,103c-4.8,0.1-9.5-0.8-13.9-2.6c-3.9-1.6-7.5-4-10.5-7s-5.3-6.6-6.9-10.6c-1.6-4-2.4-8.2-2.3-12.5    c0-4.4,0.8-8.7,2.3-12.8c1.5-3.9,3.8-7.5,6.7-10.6c3-3.1,6.6-5.6,10.6-7.3c4.5-1.8,9.2-2.7,14.1-2.7c4.8-0.1,9.5,0.8,13.9,2.7    c3.9,1.7,7.5,4.2,10.5,7.3c2.9,3,5.1,6.5,6.6,10.4c1.5,4,2.2,8.2,2.2,12.4c0,1.1,0,2,0,3c0,0.8-0.1,1.6-0.3,2.4h-49.3    c0.2,2.3,0.8,4.6,1.8,6.7c0.9,1.9,2.1,3.6,3.7,5c1.5,1.4,3.3,2.5,5.2,3.2c1.9,0.7,4,1.1,6.1,1.1c3.2,0,6.4-0.8,9.2-2.4    c2.6-1.3,4.7-3.5,5.9-6.3l14,3.9c-2.5,5-6.4,9.2-11.2,12C204.7,101.6,198.3,103.2,192,103z M208.5,64.6c-0.2-4.4-2.1-8.5-5.3-11.5    c-3.1-2.9-7.2-4.4-11.4-4.3c-2.1,0-4.2,0.4-6.1,1.2c-1.9,0.7-3.6,1.8-5,3.2c-1.5,1.4-2.8,3.1-3.7,5c-1,2-1.5,4.2-1.6,6.5    L208.5,64.6L208.5,64.6z"/><path class="st0" d="M253.7,103c-3,0-5.9-0.5-8.7-1.5c-2.6-1-4.9-2.4-6.9-4.3c-1.9-1.8-3.5-4-4.6-6.4c-1.1-2.5-1.7-5.3-1.6-8    c0-2.9,0.7-5.8,2-8.3c1.4-2.6,3.3-4.8,5.6-6.5c2.6-1.9,5.5-3.3,8.6-4.2c3.6-1.1,7.2-1.6,11-1.5c2.8,0,5.6,0.2,8.3,0.7    c2.5,0.4,5,1.1,7.3,2.1v-3.6c0.1-1.8-0.2-3.6-0.8-5.3c-0.6-1.7-1.6-3.2-2.9-4.5c-3-2.5-6.8-3.7-10.6-3.4c-3.4,0-6.8,0.6-10,1.8    c-3.5,1.4-6.9,3.2-10,5.4l-5-10.4c7.8-5.4,17-8.3,26.5-8.3c7.7-0.5,15.3,1.9,21.4,6.7c2.6,2.5,4.7,5.5,6,8.9    c1.3,3.4,1.9,7,1.6,10.6v19.8c-0.1,1.3,0.2,2.6,0.9,3.6c0.4,0.4,0.9,0.7,1.4,0.9c0.5,0.2,1.1,0.3,1.6,0.3v13.9    c-2.4,0.5-4.8,0.8-7.3,0.8c-2.5,0.2-5.1-0.6-7.1-2c-1.7-1.4-2.8-3.3-3.1-5.5l-0.4-3.6c-2.7,3.6-6.3,6.5-10.3,8.5    C262.6,101.9,258.1,102.9,253.7,103z M258.3,91.1c2.7,0,5.3-0.5,7.9-1.5c2.2-0.8,4.2-2.1,5.8-3.9c0.8-0.5,1.4-1.2,1.9-2    c0.5-0.8,0.7-1.7,0.8-2.6v-7.3c-2.1-0.8-4.2-1.4-6.4-1.8c-2.2-0.4-4.4-0.6-6.6-0.7c-3.7-0.2-7.3,0.8-10.3,2.8    c-1.2,0.7-2.1,1.8-2.8,2.9s-1.1,2.5-1.2,3.9c-0.1,1.4,0.2,2.7,0.7,4c0.6,1.3,1.4,2.4,2.5,3.3C252.6,90.2,255.4,91.2,258.3,91.1z"/><path class="st0" d="M343.8,102.8c-4.6,0.1-9.1-1-13.1-3.3c-3.7-2.2-6.7-5.3-8.7-9v37.6h-16.2V37H320v12c2.3-3.6,5.4-6.7,9.1-8.8    c3.9-2.2,8.4-3.3,12.9-3.2c4.1,0,8.2,0.9,11.9,2.6c3.6,1.7,6.8,4.1,9.4,7c2.7,3.1,4.8,6.6,6.2,10.4c1.5,4.1,2.3,8.4,2.3,12.8    s-0.7,8.8-2.1,12.9c-1.2,3.8-3.2,7.4-5.7,10.5c-2.4,2.9-5.4,5.3-8.8,7C351.5,101.9,347.7,102.8,343.8,102.8z M338.4,89    c2.3,0,4.6-0.5,6.7-1.6c2-1,3.8-2.5,5.3-4.3c1.5-1.8,2.6-3.9,3.4-6.2c0.8-2.3,1.2-4.8,1.2-7.3s-0.5-5-1.4-7.3    c-0.8-2.2-2.1-4.2-3.7-6c-1.6-1.7-3.5-3.1-5.6-4c-2.2-1-4.7-1.6-7.1-1.6c-1.6,0-3.2,0.3-4.7,0.8c-1.6,0.5-3.1,1.3-4.5,2.3    s-2.6,2.1-3.7,3.4c-1.1,1.2-1.9,2.7-2.5,4.2v14.9c1.4,3.6,3.7,6.7,6.6,9C331.4,87.7,334.8,89,338.4,89z"/><path class="st1" d="M427.2,25.7h-27v77.2h-16.9V25.7h-27V10.8h70.9V25.7z"/><path class="st1" d="M434.9,37.1h-16.6v65.8h16.6V37.1z"/><path class="st1" d="M445.6,69.9c0-4.3,0.8-8.6,2.3-12.6c1.5-3.9,3.8-7.4,6.7-10.4c3-3.1,6.6-5.6,10.6-7.3c4.4-1.8,9.2-2.7,14-2.7    c6.2-0.2,12.4,1.4,17.8,4.5c4.7,2.8,8.5,6.9,11,11.8L492.1,58c-1.3-2.3-3.2-4.1-5.5-5.4c-2.3-1.3-4.9-1.9-7.5-1.9    c-2.3,0-4.5,0.5-6.5,1.4c-2,0.9-3.8,2.2-5.3,3.9c-1.6,1.7-2.8,3.8-3.7,6c-0.9,2.5-1.3,5.1-1.3,7.8c0,2.6,0.4,5.3,1.3,7.8    c0.8,2.2,2.1,4.3,3.7,6.1c1.4,1.7,3.2,3.1,5.3,4.1c2,0.9,4.2,1.4,6.4,1.4c2.8,0,5.6-0.7,8.1-2.2c2.2-1.2,4.1-3.1,5.2-5.4l15.9,4.8    c-2.3,5-6.1,9.2-11,11.9c-5.5,3.2-11.7,4.8-18.1,4.6c-4.8,0.1-9.5-0.8-14-2.7c-4-1.7-7.6-4.2-10.6-7.3c-2.9-3-5.2-6.6-6.7-10.6    C446.2,78.4,445.5,74.1,445.6,69.9z"/><path class="st1" d="M560.7,102.9l-18.9-28l-8.9,8.8V103h-16.7V10.8h16.6v56.7l26-30.2h17.7l-24.1,28.5l26,37.2L560.7,102.9    L560.7,102.9z"/><path class="st1" d="M610.3,102.9c-4.8,0.1-9.5-0.8-13.9-2.6c-4-1.6-7.6-4-10.6-7.1c-2.9-3-5.2-6.5-6.8-10.4    c-1.6-4-2.4-8.2-2.3-12.5c0-4.4,0.8-8.7,2.3-12.8c1.5-3.9,3.7-7.5,6.5-10.5c3-3.1,6.6-5.6,10.6-7.3c4.4-1.8,9.2-2.7,14-2.7    c4.8-0.1,9.5,0.8,13.9,2.7c3.9,1.7,7.5,4.2,10.4,7.3c2.9,3,5.1,6.5,6.5,10.4c1.5,4,2.3,8.2,2.3,12.4c0,1.1,0,2,0,3    c0,0.8-0.1,1.6-0.3,2.4h-49.1c0.2,2.3,0.8,4.6,1.8,6.7c0.9,1.9,2.1,3.6,3.7,5c3.1,2.7,7.1,4.2,11.3,4.2c3.2,0,6.4-0.8,9.2-2.4    c2.6-1.3,4.7-3.5,5.9-6.2l13.9,3.9c-2.5,5-6.4,9.2-11.2,12C623,101.5,616.7,103.1,610.3,102.9z M626.8,64.6    c-0.2-4.4-2.1-8.5-5.3-11.4c-2.3-2.1-5.2-3.5-8.3-4c-3.1-0.6-6.3-0.3-9.2,0.9c-1.9,0.8-3.6,1.8-5,3.2c-1.5,1.4-2.7,3.1-3.7,5    c-0.9,2-1.5,4.2-1.6,6.4L626.8,64.6L626.8,64.6z"/><path class="st1" d="M689.7,98.4c-2.7,1.1-5.4,2.1-8.2,3c-3.3,1-6.7,1.5-10.1,1.5c-2.2,0-4.4-0.3-6.5-0.9c-2-0.5-3.8-1.5-5.3-2.8    c-1.6-1.3-2.8-3-3.7-4.9c-1-2.3-1.4-4.8-1.4-7.3V49.8H646V37.1h8.5V10.8h16.6v26.3h13.6v12.7h-13.6v31.6c-0.1,0.9,0,1.8,0.3,2.6    c0.3,0.8,0.8,1.6,1.5,2.2c1.3,1,2.8,1.5,4.4,1.4c1.7,0,3.4-0.3,5.1-0.8c1.6-0.6,3-1.1,3.9-1.5L689.7,98.4z"/><path class="st1" d="M724,102.8c-5.3,0-10.6-0.9-15.7-2.6c-4.8-1.5-9.3-4-13.1-7.3l6.1-10.2c3.5,2.6,7.3,4.7,11.3,6.2    c3.5,1.4,7.2,2.1,11,2.1c2.7,0.1,5.3-0.5,7.6-1.8c0.9-0.5,1.6-1.3,2.1-2.2c0.5-0.9,0.7-1.9,0.7-3c0-1.1-0.3-2.1-0.9-3    c-0.6-0.9-1.4-1.6-2.4-2c-3.4-1.5-7-2.7-10.7-3.6c-4.1-1.1-7.6-2.2-10.6-3.3c-2.5-0.8-4.9-2.1-7-3.6c-1.6-1.2-2.8-2.7-3.7-4.5    c-0.9-2-1.3-4.1-1.2-6.2c-0.1-3,0.6-6,1.9-8.7c1.2-2.6,3-4.8,5.3-6.6c2.4-1.9,5.1-3.3,8-4.2c3.2-1,6.5-1.5,9.9-1.4    c4.5,0,9.1,0.6,13.4,2c4.2,1.4,8.1,3.7,11.5,6.7l-6.5,9.8c-2.9-2.2-6-4-9.4-5.3c-2.9-1.1-5.9-1.7-9-1.7c-2.4-0.1-4.8,0.5-6.9,1.7    c-0.9,0.6-1.7,1.4-2.2,2.3c-0.5,1-0.7,2-0.6,3.1c-0.1,1,0.2,1.9,0.7,2.8c0.5,0.8,1.3,1.5,2.1,2c1.2,0.7,2.4,1.2,3.7,1.6    c1.6,0.5,3.7,1.1,5.9,1.6c4.4,1.1,8.1,2.3,11.2,3.4c2.7,0.9,5.3,2.2,7.6,3.9c1.8,1.3,3.3,3,4.3,5c1,2.1,1.5,4.5,1.4,6.9    c0.1,2.8-0.5,5.6-1.7,8.1s-3,4.7-5.2,6.5C737.3,101.2,730.7,103.1,724,102.8z"/><path class="st0" d="M68.4,73.9c-1,2.4-2.4,4.6-4.2,6.5c-1.7,1.7-3.6,3.2-5.7,4.4c-2,1.1-4.2,2-6.5,2.5c-2.1,0.5-4.3,0.8-6.5,0.8    c-3.8,0-7.6-0.9-11-2.6c-3.3-1.7-6.2-4.1-8.6-6.9c-2.4-3-4.3-6.3-5.5-10c-1.3-3.8-2-7.8-1.9-11.8c0-3.7,0.6-7.4,1.7-10.9    c1-3.6,2.7-7,4.9-10c2.2-2.9,5.1-5.4,8.4-7.1c3.6-1.8,7.7-2.8,11.7-2.7c2.1,0,4.3,0.3,6.4,0.7c2.2,0.5,4.3,1.2,6.3,2.3    c2.1,1.1,4,2.5,5.6,4.3c1.8,1.9,3.3,4.2,4.4,6.6l13.9-9.5c-3.2-6.1-8-11.2-13.9-14.6c-4.7-2.8-9.8-4.5-15.2-5.1V0.3L35.8,3.7V11    c-3.2,0.6-6.3,1.7-9.3,3.1c-5.4,2.5-10.2,6.1-14.2,10.4c-4,4.4-7.1,9.5-9.1,15.1c-2,5.4-3.1,11-3.1,16.8c0,6,1.1,11.9,3.3,17.4    c2.2,5.6,5.4,10.8,9.4,15.2c4,4.5,8.8,8.2,14.2,10.9c2.8,1.4,5.8,2.5,8.9,3.2v7.3l16.9,3.4v-10.4c1.3-0.2,2.5-0.5,3.7-0.8    c3.8-0.9,7.5-2.3,11-4.2c3.5-1.8,6.7-4,9.5-6.7c2.7-2.6,4.9-5.7,6.3-9.2L68.4,73.9z"/><path class="st1" d="M762.3,32.9c-0.8,0-1.6-0.1-2.3-0.4c-0.7-0.3-1.3-0.7-1.9-1.2c-0.5-0.5-0.9-1.1-1.2-1.8    c-0.3-0.7-0.4-1.4-0.4-2.2c0-0.8,0.1-1.5,0.4-2.2c0.3-0.7,0.7-1.2,1.2-1.7s1.2-0.9,1.9-1.2c1.5-0.5,3.1-0.4,4.5,0.1    c0.7,0.3,1.3,0.7,1.9,1.2c0.5,0.5,0.9,1.1,1.2,1.8c0.3,0.7,0.4,1.5,0.4,2.2c0,0.8-0.1,1.5-0.4,2.2c-0.3,0.7-0.7,1.3-1.2,1.8    s-1.2,0.9-1.9,1.2C763.8,32.8,763,32.9,762.3,32.9z M762.3,32.1c0.7,0,1.3-0.1,1.9-0.4c0.6-0.2,1.1-0.6,1.6-1    c0.4-0.4,0.8-1,1.1-1.5c0.3-0.6,0.4-1.3,0.4-1.9s-0.1-1.3-0.4-1.8c-0.2-0.6-0.6-1.1-1.1-1.5c-0.4-0.4-1-0.8-1.6-1    c-1.3-0.5-2.7-0.5-3.9,0c-0.6,0.2-1.1,0.6-1.6,1c-0.4,0.4-0.8,0.9-1,1.5c-0.3,0.6-0.4,1.2-0.4,1.9c0,0.6,0.1,1.3,0.4,1.9    c0.2,0.6,0.6,1.1,1,1.5c0.4,0.5,1,0.8,1.6,1C760.9,32,761.6,32.1,762.3,32.1z M759.8,23.9h3c0.3,0,0.6,0.1,0.8,0.2    c0.3,0.1,0.5,0.3,0.7,0.5c0.2,0.2,0.3,0.5,0.4,0.7c0.1,0.3,0.2,0.5,0.2,0.8c0,0.4-0.1,0.8-0.3,1.2c-0.2,0.3-0.5,0.6-0.9,0.8    l1.6,2.6h-1.7l-1.4-2.3h-1v2.3h-1.5v-6.8H759.8z M762.6,27.1c0.1,0,0.2,0,0.3-0.1c0.1,0,0.2-0.1,0.3-0.2c0.2-0.2,0.2-0.5,0.2-0.7    c0-0.1,0-0.3,0-0.4c0-0.1-0.1-0.2-0.2-0.3c-0.2-0.1-0.4-0.2-0.6-0.2h-1.4v1.9H762.6L762.6,27.1z"/></g><g><path class="st2" d="M487.5,217.7l14.8-20.5c0.4-0.6,0.1-1.3-0.6-1.3h-8.1c-0.4,0-1,0.2-1.3,0.6l-9.8,14.3l-10-14.3    c-0.3-0.4-0.8-0.6-1.3-0.6h-8.6c-0.4,0-0.7,0.4-0.7,0.7c0,0.2,0,0.4,0.2,0.5l14.9,20.5l-16.4,22.5c-0.4,0.6-0.1,1.3,0.5,1.3h8.1    c0.4,0,1-0.2,1.3-0.6l11.3-16.3l11.5,16.3c0.3,0.4,0.8,0.6,1.3,0.6h8.7c0.4,0,0.7-0.4,0.7-0.7c0-0.2-0.1-0.4-0.2-0.5L487.5,217.7    L487.5,217.7z"/><path class="st2" d="M454.4,178.9c0.6,0,1.1,0.4,1.1,1.1v6.1c0,0.6-0.4,1.1-1.1,1.1h-28.9v18.1h26c0.6,0,1.1,0.4,1.1,1.1v6    c0,0.6-0.4,1.1-1.1,1.1h-26v19.8h28.9c0.6,0,1.1,0.4,1.1,1.1v6.3c0,0.6-0.4,1.1-1.1,1.1h-33.8c-2.6,0-4.6-2-4.6-4.6v-53.5    c0-2.6,2-4.6,4.6-4.6H454.4L454.4,178.9z"/><path class="st2" d="M532.9,235.2c-8.8,0-14.8-5.9-14.8-16.4c0-10.5,6-16.6,14.8-16.6s14.7,6.1,14.7,16.6    C547.6,229.3,541.7,235.2,532.9,235.2 M534.6,194.6c-8.8,0-13.4,3.8-16.1,7.4v-4.9c0-0.6-0.4-1.1-1.1-1.1h-7.1    c-0.6,0-1.1,0.4-1.1,1.1v59c0,0.6,0.4,1.1,1.1,1.1h7.2c0.6,0,1.1-0.4,1.1-1.1v-20.3c2.6,3.6,7.3,7.2,16,7.2    c14.2,0,22.6-10.7,22.6-24.2C557.1,205.3,548.8,194.6,534.6,194.6"/><path class="st2" d="M572.5,214.3c1.1-7.5,5-12.4,12.8-12.4c8,0,12.2,4.6,12.8,12.4H572.5L572.5,214.3z M585.3,194.6    c-12.4,0-22.4,9-22.4,23.8c0,15.2,8.8,24.5,23.5,24.5c8.5,0,15.6-3.8,20-9c0.3-0.3,0.4-0.5,0.4-0.8c0-0.3-0.1-0.5-0.4-0.8l-4.1-4    c-0.3-0.3-0.5-0.4-0.8-0.4c-0.3,0-0.5,0.2-0.8,0.4c-3.4,3.7-7.8,6.8-14.1,6.8c-9.3,0-13.7-5.7-14.4-14h34.4c0.6,0,1.1-0.4,1.1-1.1    v-1.8C607.6,204.8,599.4,194.6,585.3,194.6"/><path class="st2" d="M713,235.3c-8.8,0-14.7-6.1-14.7-16.6c0-10.5,5.9-16.4,14.7-16.4c8.8,0,14.8,5.9,14.8,16.4    C727.7,229.2,721.7,235.3,713,235.3 M735.6,196h-7.1c-0.6,0-1.1,0.4-1.1,1.1v5c-2.7-3.6-7.3-7.4-16.3-7.4    c-14.1,0-22.4,10.7-22.4,24.2c0,13.4,8.3,24.2,22.4,24.2c8.9,0,13.6-3.8,16.3-7.4v4.9c0,0.6,0.4,1.1,1.1,1.1h7.1    c0.6,0,1.1-0.4,1.1-1.1v-43.4C736.7,196.5,736.2,196,735.6,196"/><path class="st2" d="M637.6,235.3c-8.8,0-14.7-6.1-14.7-16.6c0-10.5,5.9-16.4,14.7-16.4c8.8,0,14.8,5.9,14.8,16.4    C652.4,229.2,646.4,235.3,637.6,235.3 M660.2,178.9h-7.2c-0.6,0-1.1,0.4-1.1,1.1v22.1c-2.7-3.6-7.2-7.4-16.2-7.4    c-14.1,0-22.4,10.7-22.4,24.2c0,13.4,8.3,24.2,22.4,24.2c9,0,13.6-3.8,16.3-7.4v4.9c0,0.6,0.4,1.1,1.1,1.1h7.1    c0.6,0,1.1-0.4,1.1-1.1V180C661.3,179.4,660.9,178.9,660.2,178.9"/><path class="st2" d="M679.8,178.9c0.6,0,1.1,0.4,1.1,1.1v7.3c0,0.6-0.4,1.1-1.1,1.1h-7.3c-0.6,0-1.1-0.4-1.1-1.1V180    c0-0.6,0.4-1.1,1.1-1.1H679.8L679.8,178.9z"/><path class="st2" d="M679.7,196c0.6,0,1.1,0.4,1.1,1.1v43.4c0,0.6-0.4,1.1-1.1,1.1h-7.2c-0.6,0-1.1-0.4-1.1-1.1v-43.4    c0-0.6,0.4-1.1,1.1-1.1H679.7L679.7,196z"/><path class="st3" d="M375.9,248.1h-44.5c-8.6,0-15.6-7-15.6-15.6V188c0-8.6,7-15.6,15.6-15.6h44.5c8.6,0,15.6,7,15.6,15.6v44.5    C391.4,241.1,384.4,248.1,375.9,248.1"/><path class="st2" d="M338.9,233.4V226c0-0.6-0.5-1.1-1.1-1.1h-7.3c-0.6,0-1.1,0.5-1.1,1.1v7.3c0,0.6,0.5,1.1,1.1,1.1h7.3    C338.4,234.5,338.9,234,338.9,233.4"/><g><path class="st2" d="M377.8,227.1v-36.2c0-2.7-2.2-4.8-4.8-4.8h-36.2c-0.7,0-1.2,0.3-1.6,0.7l-7.3,7.3c-0.5,0.5-0.2,1.3,0.6,1.3     l32.7,0L341,215.7c-0.4,0.4-0.5,0.7-0.5,1.3v5.3c0,0.6,0.4,1.1,1.1,1.1l5.3,0c0.6,0,1-0.2,1.3-0.5l20.3-20.3v32.7     c0,0.8,0.8,1.2,1.3,0.6l7.3-7.3C377.5,228.2,377.8,227.8,377.8,227.1"/><path class="st2" d="M1.1,231.5h3.3c0.4,0,0.6-0.3,0.6-0.6v-14.2h10.6c7,0,12.2-4,12.2-10.9c0-6.9-5.4-11-11.8-11H1.1     c-0.4,0-0.6,0.3-0.6,0.6v35.4C0.5,231.2,0.8,231.5,1.1,231.5 M5,212.8v-13.9h10.4c4.5,0,7.7,2.4,7.7,7c0,4.5-3.3,6.9-7.6,6.9H5     L5,212.8z M44.6,232.3c7.7,0,13.3-5.6,13.3-13.6c0-8.1-5.7-13.6-13.3-13.6c-7.7,0-13.4,5.5-13.4,13.6     C31.2,226.7,36.9,232.3,44.6,232.3 M35.6,218.6c0-6,3.5-9.9,9-9.9c5.4,0,8.9,4.1,8.9,9.9c0,5.9-3.6,10.1-8.9,10.1     C39.2,228.7,35.6,224.6,35.6,218.6 M70,231.5h4.4c0.4,0,0.7-0.2,0.8-0.7l4.9-20.2l5,20.2c0.1,0.4,0.4,0.6,0.8,0.6h4.3     c0.4,0,0.6-0.2,0.7-0.6l7.1-23.6c0.2-0.5,0.2-0.7,0.2-0.9c0-0.3-0.2-0.5-0.6-0.5h-2.6c-0.6,0-0.8,0.2-0.9,0.8l-6,21.4l-5.4-21.5     c-0.1-0.4-0.3-0.7-0.8-0.7h-3.4c-0.5,0-0.7,0.2-0.9,0.8l-5.2,21.4l-6.1-21.4c-0.2-0.6-0.3-0.8-0.9-0.8h-2.8     c-0.4,0-0.6,0.2-0.6,0.5c0,0.2,0.1,0.4,0.2,0.9l7,23.6C69.3,231.3,69.5,231.5,70,231.5 M115,232.3c6.2,0,9.5-3.2,11-6     c0.3-0.4,0.1-0.7-0.2-0.9l-2.1-1.4c-0.4-0.3-0.6-0.1-0.9,0.3c-1.6,2.4-3.9,4.4-7.9,4.4c-5.1,0-8.2-3.4-8.4-9h19.6     c0.3,0,0.6-0.3,0.6-0.7c0.4-8.2-4.4-13.9-12.1-13.9c-7.6,0-12.4,5.4-12.4,13.7C102.3,226.9,106.8,232.3,115,232.3 M106.7,216.3     c0.5-5.2,3.5-7.8,7.9-7.8c4.1,0,7.4,2.5,7.6,7.8H106.7L106.7,216.3z M134.5,231.5h3.1c0.4,0,0.6-0.3,0.6-0.6v-12.1     c0-5.5,2.4-8.8,8-8.8h0.5c0.4,0,0.7-0.3,0.7-0.6v-2.8c0-0.6-0.1-0.9-1-0.9c-4.5,0-7.2,2.9-8.3,5.3v-4.4c0-0.4-0.3-0.6-0.6-0.6h-3     c-0.4,0-0.6,0.3-0.6,0.6v24.4C133.8,231.2,134.1,231.5,134.5,231.5 M163,232.3c6.2,0,9.5-3.2,11-6c0.3-0.4,0.1-0.7-0.2-0.9     l-2.1-1.4c-0.4-0.3-0.6-0.1-0.9,0.3c-1.6,2.4-3.9,4.4-7.9,4.4c-5.1,0-8.2-3.4-8.4-9h19.6c0.3,0,0.6-0.3,0.6-0.7     c0.4-8.2-4.4-13.9-12.1-13.9c-7.6,0-12.4,5.4-12.4,13.7C150.2,226.9,154.8,232.3,163,232.3 M154.7,216.3c0.5-5.2,3.5-7.8,8-7.8     c4.1,0,7.4,2.5,7.6,7.8H154.7L154.7,216.3z M192.5,232.3c5.7,0,8.8-3.6,9.5-5v3.6c0,0.4,0.3,0.6,0.6,0.6h3c0.4,0,0.6-0.3,0.6-0.6     v-35.4c0-0.4-0.3-0.6-0.6-0.6h-3.1c-0.4,0-0.6,0.3-0.6,0.6v14.2c-1.2-1.9-4.2-4.6-9.4-4.6c-7.4,0-12.6,5.6-12.6,13.5     C180,226.8,185.1,232.3,192.5,232.3 M184.4,218.7c0-6.1,3.6-9.9,8.9-9.9c5.2,0,8.9,3.9,8.9,9.9c0,6-3.7,10-8.9,10     C188,228.7,184.4,224.8,184.4,218.7 M241.9,232.3c7.5,0,12.6-5.4,12.6-13.6c0-7.9-5.1-13.6-12.7-13.6c-5.2,0-7.9,2.5-9.2,4.6     v-14.2c0-0.4-0.3-0.6-0.6-0.6h-3.1c-0.4,0-0.6,0.3-0.6,0.6v35.4c0,0.4,0.3,0.6,0.6,0.6h3c0.4,0,0.6-0.3,0.6-0.6v-3.6     C233.1,228.7,236,232.3,241.9,232.3 M232.3,218.7c0-5.9,3.7-9.9,8.9-9.9c5.3,0,8.9,3.8,8.9,9.9c0,6.1-3.6,10-8.9,10     C235.9,228.7,232.3,224.7,232.3,218.7 M267.6,239.6l14-32.4c0.2-0.5,0.3-0.6,0.3-0.8c0-0.3-0.2-0.5-0.6-0.5h-2.9     c-0.6,0-0.8,0.1-1,0.7l-7.2,17.2l-7.8-17.2c-0.3-0.6-0.4-0.7-1-0.7h-3.1c-0.4,0-0.6,0.2-0.6,0.5c0,0.2,0.1,0.3,0.3,0.8l10,21.4     l-4.7,10.4c-0.2,0.5-0.3,0.6-0.3,0.8c0,0.3,0.2,0.5,0.6,0.5h2.8C267.1,240.3,267.3,240.2,267.6,239.6"/></g></g></g></svg>