<?xml version="1.0" encoding="utf-8"?>
<!-- Generator: Adobe Illustrator 24.0.3, SVG Export Plug-In . SVG Version: 6.00 Build 0)  -->
<svg version="1.1" id="Layer_1" xmlns="http://www.w3.org/2000/svg" xmlns:xlink="http://www.w3.org/1999/xlink" x="0px" y="0px"
	 viewBox="0 0 285 61" style="enable-background:new 0 0 285 61;" xml:space="preserve">
<style type="text/css">
	.st0{fill:#002169;}
	.st1{fill:#C10230;}
	.st2{fill:#FFFFFF;}
	.st3{fill:#C0272D;}
</style>
<g>
	<path class="st0" d="M129.1,50.8l-1,2.6h-1.2l3.4-9.1h1.3l3.4,9.1h-1.2l-1-2.6C132.8,50.8,129.1,50.8,129.1,50.8z M130.9,45.8
		l-1.5,4h2.9L130.9,45.8z"/>
	<path class="st0" d="M137.1,45.7H136v-1.3h1.1V45.7z M137.1,53.5H136v-6.7h1.1V53.5z"/>
	<path class="st0" d="M142.3,47.7c-1.2-0.1-2.2,0.5-2.2,1.9v3.9H139v-6.7h1.1v0.8c0.5-0.7,1.4-1,2.2-0.9V47.7z"/>
	<path class="st0" d="M143.9,52.1v1.6c0,0.9-0.6,1.3-1.2,1.4v-0.6c0.4-0.1,0.7-0.4,0.7-0.8v-0.3h-0.7v-1.3
		C142.7,52.1,143.9,52.1,143.9,52.1z"/>
	<polygon class="st0" points="155.2,53.5 149.4,53.5 149.4,44.4 150.6,44.4 150.6,52.4 155.2,52.4 	"/>
	<path class="st0" d="M161,52.7c-0.5,0.6-1.3,0.9-2.3,0.9c-1.4,0-2.6-0.6-2.6-2.1c0-1.4,1-2,2.7-2.1c1.6-0.1,2.2-0.4,2.2-0.9
		s-0.5-0.9-1.6-0.9c-0.7,0-1.6,0.2-1.8,1.2h-1.1c0.1-1.3,1.2-2.2,2.9-2.2c1.8,0,2.7,0.8,2.7,2.1v3.7c0,0.3,0.1,0.8,0.2,1.1h-1.1
		C161,53.3,161,53,161,52.7 M160.9,49.8c-0.4,0.4-1.2,0.5-2,0.5c-1.5,0.1-1.8,0.6-1.8,1.2c0,0.7,0.7,1,1.6,1c1.1,0,2.2-0.5,2.3-1.7
		v-1H160.9z"/>
	<path class="st0" d="M169.5,53.5h-1.1v-4.1c0-1-0.6-1.8-1.6-1.8s-1.8,0.8-1.8,1.8v4.1h-1.1v-6.7h1.1v0.7c0.5-0.6,1.1-0.9,2-0.9
		c1.6,0,2.6,1.2,2.6,2.8L169.5,53.5L169.5,53.5z"/>
	<path class="st0" d="M177.7,53.5h-1.1v-1.1c-0.5,0.7-1.3,1.3-2.3,1.3c-1.9,0-3.4-1.6-3.4-3.5s1.4-3.5,3.4-3.5c1,0,1.8,0.5,2.3,1.2
		v-4h1.1V53.5z M174.3,47.6c-1.3,0-2.3,1.1-2.3,2.5s1,2.5,2.3,2.5c1.2,0,2.3-1.1,2.3-2.5C176.6,48.7,175.5,47.6,174.3,47.6"/>
	<path class="st0" d="M190.9,53.5h-1.4l-0.7-0.8c-0.6,0.6-1.5,1-2.5,1c-1.7,0-3.2-1.1-3.2-2.7c0-1.4,0.9-2.2,1.9-2.8l-0.2-0.2
		c-0.5-0.5-0.7-1.1-0.7-1.7c0-1.1,0.9-2,2.2-2c1.2,0,2.1,0.8,2.1,1.9c0,1-0.7,1.6-1.7,2.2l2,2.5c0.1-0.3,0.1-0.6,0.1-0.9v-0.7h1.1
		V50c0,0.7-0.1,1.3-0.4,1.9L190.9,53.5z M185.7,48.9c-1.1,0.6-1.5,1.2-1.5,2c0,0.9,0.9,1.7,2.1,1.7c0.8,0,1.4-0.3,1.8-0.7
		L185.7,48.9z M185.8,47.2l0.3,0.4c1-0.6,1.2-0.9,1.2-1.4c0-0.6-0.4-1-1-1c-0.5,0-1,0.4-1,1C185.3,46.5,185.5,46.9,185.8,47.2"/>
	<path class="st0" d="M198.7,53.6c-2.1,0-3.5-1.2-3.5-3h1.1c0,1.2,0.9,2,2.3,2c1.6,0,2.3-0.7,2.3-1.7c0-0.8-0.3-1.3-2.3-1.6
		c-2-0.4-3.2-1-3.2-2.5c0-1.6,1.2-2.6,3.2-2.6s3.2,1.1,3.2,2.8h-1.1c0-1.1-0.7-1.8-2.1-1.8c-1.4,0-2.1,0.6-2.1,1.5
		c0,0.8,0.4,1.2,2.3,1.5c2,0.4,3.2,0.9,3.2,2.7C202.1,52.7,200.7,53.6,198.7,53.6"/>
	<path class="st0" d="M209.7,51.4c-0.5,1.4-1.6,2.2-3.2,2.2c-1.9,0-3.4-1.5-3.4-3.5c0-1.9,1.5-3.5,3.4-3.5c1.7,0,3.4,1.4,3.4,3.8
		h-5.7c0.1,1.4,1.2,2.2,2.3,2.2c1,0,1.6-0.5,2-1.2H209.7z M208.7,49.4c-0.3-1.1-1.2-1.8-2.2-1.8c-0.9,0-1.9,0.7-2.2,1.8H208.7z"/>
	<path class="st0" d="M215.7,52.7c-0.5,0.6-1.3,0.9-2.3,0.9c-1.4,0-2.6-0.6-2.6-2.1c0-1.4,1-2,2.7-2.1c1.6-0.1,2.2-0.4,2.2-0.9
		s-0.5-0.9-1.6-0.9c-0.7,0-1.6,0.2-1.8,1.2h-1.1c0.1-1.3,1.2-2.2,2.9-2.2c1.8,0,2.7,0.8,2.7,2.1v3.7c0,0.3,0.1,0.8,0.2,1.1h-1.1
		C215.8,53.3,215.7,53,215.7,52.7 M215.7,49.8c-0.4,0.4-1.2,0.5-2,0.5c-1.5,0.1-1.8,0.6-1.8,1.2c0,0.7,0.7,1,1.6,1
		c1.1,0,2.2-0.5,2.3-1.7v-1H215.7z"/>
	<polygon class="st0" points="226.2,53.5 225,53.5 221.6,44.4 222.8,44.4 225.6,52.1 228.3,44.4 229.5,44.4 	"/>
	<path class="st0" d="M234.3,52.7c-0.5,0.6-1.3,0.9-2.3,0.9c-1.4,0-2.6-0.6-2.6-2.1c0-1.4,1-2,2.7-2.1c1.6-0.1,2.2-0.4,2.2-0.9
		s-0.5-0.9-1.6-0.9c-0.7,0-1.6,0.2-1.8,1.2h-1.1c0.1-1.3,1.2-2.2,2.9-2.2c1.8,0,2.7,0.8,2.7,2.1v3.7c0,0.3,0.1,0.8,0.2,1.1h-1.1
		C234.4,53.3,234.3,53,234.3,52.7 M234.3,49.8c-0.4,0.4-1.2,0.5-2,0.5c-1.5,0.1-1.8,0.6-1.8,1.2c0,0.7,0.7,1,1.6,1
		c1.1,0,2.2-0.5,2.3-1.7v-1H234.3z"/>
	<path class="st0" d="M240.1,53.6c-1.9,0-3.4-1.6-3.4-3.5s1.5-3.5,3.4-3.5c1.5,0,2.7,0.9,3.1,2.2H242c-0.4-0.7-1.1-1.2-1.9-1.2
		c-1.2,0-2.3,1.1-2.3,2.5s1,2.5,2.3,2.5c0.9,0,1.6-0.5,1.9-1.2h1.2C242.8,52.7,241.6,53.6,240.1,53.6"/>
	<path class="st0" d="M249.2,52.7c-0.5,0.6-1.3,0.9-2.3,0.9c-1.4,0-2.6-0.6-2.6-2.1c0-1.4,1-2,2.7-2.1c1.6-0.1,2.2-0.4,2.2-0.9
		s-0.5-0.9-1.6-0.9c-0.7,0-1.6,0.2-1.8,1.2h-1.1c0.1-1.3,1.2-2.2,2.9-2.2c1.8,0,2.7,0.8,2.7,2.1v3.7c0,0.3,0.1,0.8,0.2,1.1h-1.1
		C249.2,53.3,249.2,53,249.2,52.7 M249.2,49.8c-0.4,0.4-1.2,0.5-2,0.5c-1.5,0.1-1.8,0.6-1.8,1.2c0,0.7,0.7,1,1.6,1
		c1.1,0,2.2-0.5,2.3-1.7v-1H249.2z"/>
	<path class="st0" d="M255,53.5c-1.6,0.2-2.7-0.7-2.7-2.5v-3.2h-0.9v-1.1h0.9v-1.4h1.1v1.4h1.5v1.1h-1.5V51c0,1.2,0.7,1.5,1.6,1.4
		L255,53.5L255,53.5z"/>
	<path class="st0" d="M257.3,45.7h-1.1v-1.3h1.1V45.7z M257.3,53.5h-1.1v-6.7h1.1V53.5z"/>
	<path class="st0" d="M265.5,50.1c0,1.9-1.5,3.5-3.4,3.5s-3.4-1.6-3.4-3.5c0-2,1.5-3.6,3.4-3.6C264.1,46.6,265.5,48.2,265.5,50.1
		 M264.4,50.1c0-1.4-1-2.5-2.3-2.5c-1.2,0-2.3,1.1-2.3,2.5s1,2.5,2.3,2.5S264.4,51.5,264.4,50.1"/>
	<path class="st0" d="M272.6,53.5h-1.1v-4.1c0-1-0.6-1.8-1.6-1.8s-1.8,0.8-1.8,1.8v4.1H267v-6.7h1.1v0.7c0.5-0.6,1.1-0.9,2-0.9
		c1.6,0,2.6,1.2,2.6,2.8v4.1H272.6z"/>
	<path class="st0" d="M276.9,53.6c-1.6,0-2.8-0.9-3-2.3h1.1c0.1,0.8,0.9,1.3,1.9,1.3s1.7-0.5,1.7-1.1c0-0.5-0.2-0.8-1.8-1
		c-1.6-0.2-2.6-0.6-2.6-1.9c0-1,0.8-2,2.6-2c1.6,0,2.6,0.8,2.7,2.1h-1.1c-0.2-0.7-0.8-1.1-1.6-1.1c-0.9,0-1.5,0.4-1.5,0.9
		s0.4,0.7,1.7,0.9c1.5,0.2,2.7,0.5,2.7,2.1C279.7,52.8,278.5,53.6,276.9,53.6"/>
	<g>
		<path class="st1" d="M22.7,9.8c-8.2,0-14.9,6.7-14.9,14.9c0,3.4,1.1,6.6,3.3,9.3c2.1,2.6,5,4.4,8.2,5.2h0.1h0.1
			c1.1,0.3,2.2,0.4,3.3,0.4c8.2,0,14.9-6.7,14.9-14.9c0-1.7-0.3-3.4-0.8-4.9c-0.5,0.6-1,1.2-1.5,1.9c0.2,1,0.4,2,0.4,3
			c0,7.1-5.8,12.9-12.9,12.9S10,31.8,10,24.7s5.8-12.9,12.9-12.9c2.8,0,5.5,0.9,7.6,2.5c0.7-0.3,1.4-0.6,2.2-0.8
			C29.9,11.2,26.5,9.8,22.7,9.8z"/>
		<path class="st2" d="M7.4,24.7c0,8.4,6.9,15.3,15.3,15.3S38,33.2,38,24.7c0-1.9-0.3-3.6-0.9-5.3c-0.1,0.1-0.2,0.2-0.3,0.3
			c0.5,1.5,0.8,3.2,0.8,4.9c0,8.2-6.7,14.9-14.9,14.9c-1.1,0-2.2-0.1-3.3-0.4h-0.1h-0.1c-3.2-0.8-6.1-2.6-8.2-5.2
			c-2.1-2.7-3.3-5.9-3.3-9.3c0-8.2,6.7-14.9,14.9-14.9c3.8,0,7.2,1.4,9.8,3.7c0.1,0,0.3-0.1,0.4-0.1c-2.7-2.5-6.3-3.9-10.2-3.9
			C14.3,9.4,7.4,16.3,7.4,24.7z"/>
		<path class="st2" d="M40.5,15c-0.1,0-0.4-0.1-0.7-0.1c-3.6,0.2-12.1,1.1-26.9,12.5c0.3,0.3,0.6,0.7,0.7,1c2.3-0.2,5.4,0,9,1.5
			c2.7,1.1,5.1,1.2,7.1,0.7C31.1,24.6,37.9,17.2,40.5,15z"/>
		<path class="st2" d="M20.7,14.5c-0.3,0.1-1.1,0.5-1.5,0.9s-0.4,0.7-0.4,0.7v1c0.6-0.5,1.3-1,2-1.5L20.7,14.5z"/>
		<path class="st2" d="M15.4,20.1c0.6-0.5,1.2-1.1,1.9-1.7c0-0.3,0-0.9,0-1.4c-0.4,0.2-1.3,1-1.6,1.4s-0.3,0.7-0.3,0.7
			S15.4,20.1,15.4,20.1z"/>
		<path class="st2" d="M26.8,15.9c-1.2-0.3-2.2-0.1-2.9,0.2c-0.1,0-0.3-0.1-0.5-0.1c-0.8-0.2-1.6-0.3-1.9-0.1c-4,2.6-7.3,6.3-7.9,7
			c-0.1,0.1-0.1,0.3-0.2,0.4l0,0l0,0c0,0.1,0,0.3,0,0.4v0.4c-0.2,0.2-0.4,0.4-0.4,0.4c0,0.1,0,0.3,0,0.5
			C14.8,23.5,20.1,19.2,26.8,15.9z"/>
		<path class="st2" d="M12.7,26c-0.2,0.2-0.3,0.3-0.3,0.5s0.1,0.4,0.2,0.5c2.3-1.9,14.9-12.3,28.8-13.5c0.4,0,0.9,0,1.2,0.1
			c0.2-0.1,0.4-0.3,0.6-0.4c0.2-0.1,0.4-0.4,0.2-0.7s-0.9-0.3-1.3-0.3C27.3,12.9,12.8,25.9,12.7,26z"/>
		<path class="st2" d="M43.9,12.4L43.9,12.4c0-0.1-0.1-0.2-0.1-0.3l0,0C43.8,12.2,43.8,12.3,43.9,12.4z"/>
		<path class="st0" d="M11.9,30.6c2.1,3.9,6.3,6.5,11,6.5c2.8,0,5.3-1,7.4-2.6c-4.9,1.4-7.8-0.3-11.1-2l-1-0.6
			C15.2,30.3,12.7,30.5,11.9,30.6z"/>
		<path class="st2" d="M22.7,11.8c-7.1,0-12.9,5.8-12.9,12.9s5.8,12.9,12.9,12.9s12.9-5.8,12.9-12.9c0-1-0.1-2.1-0.4-3
			c-0.1,0.2-0.3,0.4-0.4,0.6c-2,2.6-3.7,5.6-4.4,8.4c1.6-0.4,3-1.1,3.9-1.8l0,0c-0.6,1.9-1.7,3.5-3.1,4.8c-5.2,1.8-8.3,0.2-11.7-1.7
			l-1-0.6c-3.4-1.8-6.1-1.5-6.9-1.4c-0.2-0.3-0.3-0.7-0.4-1l0,0c0.5-0.1,1.2-0.3,1.9-0.4c-0.2-0.3-0.4-0.6-0.7-0.9
			c-0.1-0.1-0.6-0.6-0.6-1.3c0-0.2,0.1-0.6,0.5-0.9c0,0,0,0,0.1-0.1c-0.1-0.4-0.1-1.1,0.3-1.4l0.2-0.1c0-0.3-0.1-1,0.3-1.4
			c0.2-0.3,0.8-0.9,1.7-1.8c0-0.2,0-1.6,0-1.6s0-0.5,0.4-1c0.1-0.2,1.6-1.9,2.3-1.7c0.2,0.1,0.3,0.2,0.3,0.4c0,0.3,0,0.7,0,1
			c0.1-0.1,0.2-0.2,0.3-0.2c0-0.4,0-1.5,0-1.5c0-0.1,0-0.6,0.6-1.2c0,0,1.5-1.3,2.2-1c0.1,0,0.3,0.2,0.3,0.5v0.9
			c0.6-0.3,2.1,0.1,2.6,0.2c0.9-0.3,2.2-0.5,3.7,0.1c0.7-0.3,1.4-0.7,2.2-1c0.2-0.1,0.4-0.2,0.6-0.2C28.2,12.8,25.6,11.8,22.7,11.8z
			 M19.2,32.5c3.2,1.8,6.1,3.4,11.1,2c-2,1.6-4.6,2.5-7.4,2.6c-4.7,0.1-8.9-2.6-11-6.5c0.8-0.1,3.3-0.3,6.3,1.3L19.2,32.5z"/>
		<g>
			<path class="st1" d="M185.2,38.1c-1.9,0-3.7-0.3-5.2-1c-1.6-0.7-2.9-1.6-4-2.7c-1.1-1.1-2-2.5-2.6-4s-0.9-3.1-0.9-4.8
				c0-1.7,0.3-3.3,0.9-4.9c0.6-1.5,1.5-2.8,2.6-4c1.1-1.1,2.5-2,4-2.7c1.6-0.7,3.3-1,5.2-1c0.9,0,1.9,0.1,2.7,0.2
				c0.9,0.2,1.7,0.4,2.5,0.6c0.8,0.3,1.5,0.6,2.2,0.9c0.7,0.3,1.3,0.7,1.8,1l-1.4,3.6c-1.2-0.9-2.5-1.6-3.8-2.1s-2.6-0.7-3.9-0.7
				c-1.3,0-2.5,0.2-3.6,0.7c-1.1,0.4-2,1.1-2.7,1.8c-0.7,0.8-1.3,1.7-1.7,2.8c-0.4,1.1-0.6,2.2-0.6,3.5s0.2,2.5,0.6,3.5
				c0.4,1.1,1,2,1.7,2.8c0.8,0.8,1.7,1.4,2.7,1.8c1.1,0.4,2.2,0.7,3.6,0.7c1.3,0,2.6-0.2,3.9-0.7c1.3-0.5,2.6-1.1,3.8-2l1.4,3.6
				c-0.5,0.4-1.1,0.7-1.8,1s-1.4,0.6-2.2,0.9c-0.8,0.3-1.6,0.5-2.5,0.6C187.1,38.1,186.2,38.1,185.2,38.1z"/>
			<path class="st1" d="M197.1,21.8l3.4,1.1c0.3-0.2,0.5-0.4,0.8-0.6s0.6-0.3,1-0.5c0.4-0.1,0.8-0.3,1.2-0.3
				c0.4-0.1,0.9-0.1,1.5-0.1c0.3,0,0.6,0,0.9,0.1c0.3,0,0.6,0.1,0.9,0.1c0.3,0.1,0.6,0.1,0.8,0.2c0.3,0.1,0.5,0.1,0.7,0.2l-1.4,3.6
				c-0.4-0.1-0.7-0.3-1.1-0.4c-0.4-0.1-0.8-0.2-1.1-0.2c-0.7,0-1.3,0.1-1.9,0.3c-0.6,0.2-1.1,0.5-1.5,0.9v11.5h-4V21.8H197.1z"/>
			<path class="st1" d="M230.8,18.8c-0.3,0-0.7-0.1-1-0.2s-0.6-0.3-0.8-0.5s-0.4-0.5-0.5-0.8s-0.2-0.6-0.2-1c0-0.3,0.1-0.7,0.2-1
				c0.1-0.3,0.3-0.6,0.5-0.8s0.5-0.4,0.8-0.5s0.6-0.2,1-0.2c0.3,0,0.7,0.1,1,0.2c0.3,0.1,0.6,0.3,0.8,0.5s0.4,0.5,0.5,0.8
				s0.2,0.6,0.2,1s-0.1,0.7-0.2,1c-0.1,0.3-0.3,0.6-0.5,0.8c-0.2,0.2-0.5,0.4-0.8,0.5C231.5,18.7,231.1,18.8,230.8,18.8z
				 M228.8,21.9h4v15.8h-4V21.9z"/>
			<path class="st1" d="M242.1,38.1c-0.5,0-1,0-1.6-0.1s-1.1-0.2-1.6-0.3s-1-0.3-1.5-0.4c-0.5-0.2-0.9-0.3-1.2-0.5l1.2-3.1
				c0.7,0.3,1.4,0.6,2.2,0.9s1.7,0.4,2.5,0.4c0.6,0,1-0.1,1.4-0.2c0.4-0.1,0.6-0.3,0.8-0.4c0.2-0.2,0.3-0.4,0.4-0.6
				c0.1-0.2,0.1-0.4,0.1-0.6c0-0.4-0.1-0.7-0.4-1c-0.3-0.2-0.7-0.5-1.2-0.6l-3.1-1.2c-1.1-0.4-2-1-2.6-1.7s-0.9-1.6-0.9-2.7
				c0-0.7,0.1-1.3,0.4-1.9c0.3-0.6,0.6-1.1,1.2-1.5c0.5-0.4,1.2-0.8,2-1c0.8-0.3,1.7-0.4,2.8-0.4c0.6,0,1.1,0,1.7,0.1
				c0.6,0.1,1.1,0.2,1.6,0.3c0.5,0.1,0.9,0.3,1.3,0.4c0.4,0.1,0.7,0.3,0.9,0.4l-1.2,3c-0.8-0.4-1.6-0.7-2.3-0.9
				c-0.8-0.2-1.5-0.3-2.1-0.3c-0.7,0-1.3,0.1-1.8,0.4c-0.4,0.3-0.7,0.6-0.7,1.1c0,0.3,0.1,0.5,0.3,0.8s0.5,0.5,1.1,0.7l3.1,1.2
				c0.5,0.2,1,0.4,1.5,0.7c0.5,0.3,0.9,0.6,1.2,1s0.6,0.8,0.8,1.3s0.3,1,0.3,1.6c0,0.8-0.2,1.5-0.5,2.1s-0.8,1.1-1.4,1.6
				c-0.6,0.4-1.3,0.7-2.1,1C244,38,243.1,38.1,242.1,38.1z"/>
			<path class="st1" d="M273.7,38.1c-0.5,0-1,0-1.6-0.1s-1.1-0.2-1.6-0.3s-1-0.3-1.5-0.4c-0.5-0.2-0.9-0.3-1.2-0.5l1.2-3.1
				c0.7,0.3,1.4,0.6,2.2,0.9s1.7,0.4,2.5,0.4c0.6,0,1-0.1,1.4-0.2c0.4-0.1,0.6-0.3,0.8-0.4c0.2-0.2,0.3-0.4,0.4-0.6
				c0.1-0.2,0.1-0.4,0.1-0.6c0-0.4-0.1-0.7-0.4-1c-0.3-0.2-0.7-0.5-1.2-0.6l-3.1-1.2c-1.1-0.4-2-1-2.6-1.7s-0.9-1.6-0.9-2.7
				c0-0.7,0.1-1.3,0.4-1.9s0.6-1.1,1.2-1.5c0.5-0.4,1.2-0.8,2-1c0.8-0.3,1.7-0.4,2.8-0.4c0.6,0,1.1,0,1.7,0.1s1.1,0.2,1.6,0.3
				c0.5,0.1,0.9,0.3,1.3,0.4s0.7,0.3,0.9,0.4l-1.2,3c-0.8-0.4-1.6-0.7-2.3-0.9c-0.8-0.2-1.5-0.3-2.1-0.3c-0.7,0-1.3,0.1-1.8,0.4
				c-0.4,0.3-0.7,0.6-0.7,1.1c0,0.3,0.1,0.5,0.3,0.8c0.2,0.3,0.5,0.5,1.1,0.7l3.1,1.2c0.5,0.2,1,0.4,1.5,0.7c0.5,0.3,0.9,0.6,1.2,1
				c0.3,0.4,0.6,0.8,0.8,1.3c0.2,0.5,0.3,1,0.3,1.6c0,0.8-0.2,1.5-0.5,2.1s-0.8,1.1-1.4,1.6c-0.6,0.4-1.3,0.7-2.1,1
				C275.5,38,274.6,38.1,273.7,38.1z"/>
		</g>
		<path class="st1" d="M265.9,30.5C265.9,30.5,265.8,30.5,265.9,30.5h-11.5c0.2,2.7,2,4.2,4.8,4.2c1.7,0,3.5-0.6,6.1-2
			c0,0,0.1,0,0.1,0.1v3.5c0,0,0,0,0,0.1c-2.4,1-4.8,1.7-6.7,1.7l0,0c-4.9,0-8.5-3.6-8.5-8.5s3.6-8.5,8.5-8.5c4.5,0,7.4,3,7.4,7.2
			C266,28.8,265.9,30.4,265.9,30.5z M258.6,24.4c-2.2,0-3.7,1.3-4.1,3.7h7.5v-0.2C262,26.1,260.6,24.4,258.6,24.4L258.6,24.4z"/>
		<path class="st3" d="M225.5,21.9h-4.2v11.7c-0.6,0.3-1,0.6-1.6,0.8s-1.2,0.3-1.9,0.3c-1.1,0-1.9-0.3-2.4-0.9
			c-0.5-0.6-0.7-1.4-0.7-2.3V31l0,0v-9.1h-4V32c0,0.8,0.1,1.6,0.4,2.4c0.1,0.4,0.3,0.8,0.5,1.1c0.1,0.1,0.2,0.3,0.2,0.4l0,0
			c0.1,0.1,0.1,0.2,0.2,0.3c0,0.1,0.1,0.1,0.1,0.2c0.5,0.6,1.2,1,2,1.3c0.6,0.3,1.4,0.4,2.3,0.5l0,0c1.3,0.1,2.6-0.1,3.6-0.5
			c0.7-0.3,1.2-0.6,1.9-1.4v2c1.1-0.2,2.4-0.7,3.6-1.6L225.5,21.9L225.5,21.9z"/>
		<g>
			<g>
				<path class="st0" d="M84.8,37.6h-5l0,0l-4.4-5.3L71,37.6l0,0h-4c0,0,0,0-0.1,0c0,0,0,0,0-0.1l6.4-7.9L67,21.8c0,0,0,0,0-0.1
					c0,0,0,0,0.1,0H72l0,0l3.8,4.7l3.9-4.7l0,0h4.1c0,0,0,0,0.1,0v0.1l-6,7.2l6.9,8.4C84.9,37.5,84.9,37.5,84.8,37.6L84.8,37.6
					L84.8,37.6z"/>
				<path class="st0" d="M119.5,30.7C119.4,30.7,119.4,30.7,119.5,30.7h-11.6c0.2,2.7,2,4.2,4.8,4.2c1.7,0,3.6-0.6,6.2-2
					c0,0,0.1,0,0.1,0.1v3.6c0,0,0,0,0,0.1c-2.4,1-4.9,1.7-6.8,1.7l0,0c-5,0-8.6-3.6-8.6-8.6s3.6-8.6,8.6-8.6c4.5,0,7.5,3.1,7.5,7.3
					C119.6,29,119.5,30.6,119.5,30.7z M112.1,24.5c-2.2,0-3.8,1.4-4.2,3.7h7.6V28C115.5,26.2,114.1,24.5,112.1,24.5L112.1,24.5z"/>
				<path class="st0" d="M140.9,37.6C140.8,37.6,140.8,37.6,140.9,37.6l-0.1-15.8c0,0,0-0.1,0.1-0.1h4.2c0,0,0.1,0,0.1,0.1v15.7
					c0,0,0,0.1-0.1,0.1H140.9z M142.9,18.4c-1.4,0-2.6-1.1-2.6-2.5s1.2-2.6,2.6-2.6c1.4,0,2.6,1.2,2.6,2.6S144.4,18.4,142.9,18.4
					L142.9,18.4z"/>
				<path class="st0" d="M93.6,21.1c-1.2,0-2.4,0.2-3.6,0.6h-4.2c0,0-0.1,0-0.1,0.1v25.8c1.3-0.2,2.8-0.6,4.3-1.7V38
					c1,0.1,1.9,0.2,2.7,0.2c5.7,0,9.4-3.4,9.4-8.7C102.1,24.6,98.6,21.1,93.6,21.1z M92.4,35.2c-0.8,0-1.5-0.1-2.4-0.3V24.8
					c1-0.3,1.9-0.5,2.8-0.5c2.9,0,4.8,2.1,4.8,5.3C97.7,33,95.6,35.2,92.4,35.2z"/>
				<path class="st0" d="M133.3,13.4v8.2c-1.2-0.3-2.3-0.5-3.4-0.5c-5,0-8.7,3.7-8.7,8.7c0,4.9,3.3,8.5,7.8,8.5c1.6,0,3-0.4,4.8-1.3
					v1.4c1.1-0.2,2.5-0.7,3.7-1.6V11.7C136.3,11.9,134.8,12.3,133.3,13.4z M133.3,33.9c-1.3,0.7-2.5,1-3.6,1c-2.6,0-4.1-1.8-4.1-4.9
					c0-3.5,2-5.8,5-5.8c0.8,0,1.7,0.2,2.7,0.7V33.9z"/>
				<path class="st0" d="M163.8,21.5c0-0.1-0.1-0.2-0.2-0.2h-3.4c-0.1,0-0.2,0.1-0.2,0.2v0.6h0c-1.6-0.7-2.9-1-4.2-1
					c-4.7,0-8.3,3.9-8.3,8.8c0,5,3.3,8.4,8.1,8.4c1.3,0,3-0.1,4.5-1.9v2c1.1-0.2,2.4-0.7,3.6-1.6L163.8,21.5z M159.5,33.9
					c-1.3,0.7-2.3,1.1-3.3,1.1c-2.8,0-4.4-1.8-4.4-4.9c0-3.5,1.9-5.8,4.8-5.8c0.8,0,1.7,0.3,2.9,0.9V33.9z"/>
				<path class="st0" d="M55.4,33.7h10.5c-0.2,1.2-0.6,2.5-1.5,3.9h-9h-1.8h-0.1c-1.3,0-2.4-1-2.6-2.3c0,0,0,0,0-0.1V24.5v-9.9
					c0,0,0,0,0-0.1c0.1-1.3,1.2-2.3,2.6-2.3h0.1h12.2c-0.2,1.2-0.6,2.6-1.5,4h-9v5.6h8.9c0,0,0.1,0,0.1,0.1v3.9c0,0,0,0.1-0.1,0.1
					h-8.9L55.4,33.7L55.4,33.7z"/>
			</g>
		</g>
		<g>
			<path class="st0" d="M44,12.7L44,12.7c0-0.1,0-0.1,0-0.1c0-0.1,0-0.1,0-0.2c0-0.1-0.1-0.2-0.1-0.3l0,0l0,0V12l0,0
				c-0.5-0.4-1.4-0.5-2-0.5c-2.4,0.1-4.9,0.6-7.2,1.3C32,10.2,28.4,8.4,24.5,8c-0.1-0.2-0.2-0.4-0.3-0.6L23,4.8L21.4,8
				c-8,0.8-14.3,7.1-15.1,15.1l-3.2,1.5l3.2,1.6c0.7,8,7.1,14.3,15.1,15.1l1.5,3.2l1.6-3.2c8-0.7,14.4-7.1,15.1-15.2l3.2-1.5
				L39.6,23c-0.2-1.7-0.6-3.4-1.3-4.9c1.7-1.8,3.1-3.1,3.6-3.4l0.6-0.4c0.4-0.3,0.7-0.5,1-0.7C43.6,13.6,44,13.2,44,12.7L44,12.7z
				 M33,13.4c-0.1,0-0.3,0.1-0.4,0.1c-0.7,0.3-1.5,0.5-2.2,0.8c-0.2,0.1-0.4,0.2-0.6,0.2c-0.7,0.3-1.5,0.6-2.2,1
				c-1.5-0.6-2.8-0.4-3.7-0.1c-0.5-0.1-1.9-0.5-2.6-0.2v-0.9c0-0.3-0.2-0.5-0.3-0.5c-0.7-0.3-2.2,1-2.2,1c-0.6,0.5-0.6,1.1-0.6,1.2
				c0,0,0,1.2,0,1.5c-0.1,0.1-0.2,0.2-0.3,0.2c0-0.3,0-0.8,0-1s-0.1-0.4-0.3-0.4c-0.7-0.2-2.2,1.5-2.3,1.7c-0.4,0.6-0.4,1-0.4,1
				s0,1.4,0,1.6c-0.8,0.8-1.4,1.5-1.7,1.8c-0.4,0.4-0.3,1.1-0.3,1.4L12.7,24c-0.4,0.4-0.3,1.1-0.3,1.4c-0.1,0.1-0.1,0.1-0.1,0.1
				c-0.4,0.3-0.5,0.7-0.5,0.9c0,0.7,0.5,1.2,0.6,1.3c0.3,0.3,0.5,0.6,0.7,0.9c-0.7,0.1-1.4,0.2-1.9,0.4l0,0c0.1,0.4,0.3,0.7,0.4,1
				c0.8-0.1,3.5-0.4,6.9,1.4l1,0.6c3.4,1.9,6.5,3.5,11.7,1.7c1.4-1.3,2.5-3,3.1-4.8l0,0c-1,0.7-2.3,1.4-3.9,1.8
				c0.7-2.8,2.4-5.8,4.4-8.4c0.1-0.2,0.3-0.4,0.4-0.6c0.5-0.7,1-1.3,1.5-1.9c0.1-0.1,0.2-0.2,0.3-0.3c0.6,1.6,0.9,3.4,0.9,5.3
				C38,33.2,31.1,40,22.7,40S7.4,33.2,7.4,24.7c0-8.4,6.9-15.3,15.3-15.3C26.6,9.4,30.2,10.9,33,13.4z M17.3,17c0,0.4,0,1.1,0,1.4
				c-0.7,0.6-1.3,1.2-1.9,1.7v-1c0,0,0-0.3,0.3-0.7C16,18,16.9,17.2,17.3,17z M20.7,15.7c-0.7,0.5-1.3,1-2,1.5v-1c0,0,0-0.4,0.4-0.7
				c0.4-0.4,1.2-0.9,1.5-0.9L20.7,15.7z M13.1,24.5c0,0,0.2-0.2,0.4-0.4v-0.4c0-0.1,0-0.3,0-0.4l0,0l0,0c0-0.2,0.1-0.3,0.2-0.4
				c0.6-0.7,4-4.4,7.9-7c0.2-0.2,1.1-0.1,1.9,0.1c0.2,0.1,0.4,0.1,0.5,0.1c0.7-0.3,1.7-0.5,2.9-0.2c-6.7,3.3-12,7.5-13.8,9.1
				C13,24.8,13,24.6,13.1,24.5z M29.8,30.8c-2,0.4-4.4,0.3-7.1-0.7c-3.7-1.5-6.7-1.7-9-1.5c-0.2-0.3-0.4-0.7-0.7-1
				C27.8,16.1,36.2,15.2,39.8,15c0.3,0,0.5,0,0.7,0.1C37.9,17.2,31.1,24.6,29.8,30.8z M43.3,12.5c0.2,0.3-0.1,0.6-0.2,0.7
				c-0.2,0.1-0.4,0.3-0.6,0.4c-0.3-0.1-0.8-0.1-1.2-0.1C27.5,14.7,14.8,25.1,12.5,27c-0.1-0.2-0.2-0.3-0.2-0.5s0.1-0.3,0.3-0.5
				s14.6-13.1,29.3-13.8C42.4,12.2,43.1,12.2,43.3,12.5z"/>
			<g>
				<g>
					<g>
						<path class="st0" d="M37.5,38.4c0.6,0,1.1,0.5,1.1,1.1s-0.5,1.1-1.1,1.1s-1.1-0.5-1.1-1.1C36.3,38.8,36.8,38.4,37.5,38.4
							L37.5,38.4z M37.5,38.6c-0.5,0-0.8,0.4-0.8,0.9s0.4,0.9,0.8,0.9c0.5,0,0.8-0.4,0.8-0.9S38,38.6,37.5,38.6L37.5,38.6z M37.3,40
							H37v-1.1c0.1,0,0.2,0,0.4,0s0.3,0,0.4,0.1c0.1,0,0.1,0.1,0.1,0.2c0,0.1-0.1,0.2-0.2,0.3l0,0c0.1,0,0.2,0.1,0.2,0.3
							C38,39.9,38,40,38,40h-0.3c0,0-0.1-0.1-0.1-0.3c0-0.1-0.1-0.2-0.2-0.2h-0.1C37.3,39.5,37.3,40,37.3,40z M37.3,39.4L37.3,39.4
							c0.2,0,0.4,0,0.4-0.2c0-0.1-0.1-0.2-0.2-0.2c-0.1,0-0.1,0-0.1,0L37.3,39.4L37.3,39.4z"/>
					</g>
				</g>
			</g>
		</g>
		<g>
			<path class="st1" d="M281.8,21.8V22h-0.3v0.9h-0.2V22H281v-0.2H281.8z"/>
			<path class="st1" d="M282.2,21.8l0.3,0.6l0,0l0.3-0.6h0.2v1.1h-0.2v-0.7l0,0l-0.3,0.7l-0.3-0.7l0,0v0.7H282v-1.1H282.2z"/>
		</g>
	</g>
</g>
</svg>
