<?xml version="1.0" encoding="UTF-8"?> <svg xmlns="http://www.w3.org/2000/svg" id="MeSo_Logo" data-name="MeSo Logo" width="225" height="52.653" viewBox="0 0 225 52.653"><g id="Group_1" data-name="Group 1" transform="translate(0.198 6.916)"><path id="Path_1" data-name="Path 1" d="M20.111,19.246a4.554,4.554,0,0,0-4.7-4.258,4.79,4.79,0,0,0-4.7,4.878c0,2.948,2.039,5.06,5.533,5.06h6.625a8.75,8.75,0,0,1-7.426,4,8.992,8.992,0,1,1,8.992-8.992,10.039,10.039,0,0,1-.437,2.8H14v-.983l3.531-.109C19.311,21.576,20.111,20.665,20.111,19.246Z" transform="translate(-6.497 -10.946)" fill="#009"></path></g><g id="Group_2" data-name="Group 2" transform="translate(16.942 7.463)"><path id="Path_2" data-name="Path 2" d="M33.362,16.563l3.421-5.023h4.732l-5.824,8.118,6.3,8.773H36.965l-3.75-5.46L29.43,28.43H24.7l6.188-8.555L24.88,11.54H29.9Z" transform="translate(-24.698 -11.54)" fill="#009"></path></g><g id="Group_3" data-name="Group 3" transform="translate(35.6 6.989)"><path id="Path_3" data-name="Path 3" d="M48.755,14.811a6.2,6.2,0,0,1,5.716-3.786c4.076,0,7.789,3.459,7.789,8.919s-3.713,8.918-7.789,8.918a6.2,6.2,0,0,1-5.716-3.786c-.073-.145-.182-.109-.182.037V35.342H44.205V11.5h4.368v3.276C48.573,14.92,48.682,14.957,48.755,14.811Zm4.514,10.447a5.019,5.019,0,0,0,4.768-5.315,4.8,4.8,0,1,0-9.537,0A5.043,5.043,0,0,0,53.269,25.258Z" transform="translate(-44.205 -11.025)" fill="#009"></path></g><g id="Group_4" data-name="Group 4" transform="translate(55.471 6.916)"><path id="Path_4" data-name="Path 4" d="M78.987,19.246a4.554,4.554,0,0,0-4.7-4.258,4.79,4.79,0,0,0-4.7,4.878c0,2.948,2.039,5.06,5.533,5.06h6.625a8.75,8.75,0,0,1-7.426,4,8.992,8.992,0,1,1,8.992-8.992,10.039,10.039,0,0,1-.437,2.8H72.871v-.983l3.532-.109C78.186,21.576,78.987,20.665,78.987,19.246Z" transform="translate(-65.373 -10.946)" fill="#009"></path></g><g id="Group_5" data-name="Group 5" transform="translate(75.232 0.145)"><path id="Path_5" data-name="Path 5" d="M99.927,24.481a6.2,6.2,0,0,1-5.715,3.786c-4.077,0-7.79-3.458-7.79-8.918s3.713-8.919,7.79-8.919a6.2,6.2,0,0,1,5.715,3.786c.074.145.182.109.182-.037V3.586h4.368V27.793h-4.368V24.517C100.109,24.371,100,24.335,99.927,24.481ZM95.414,14.034a5.02,5.02,0,0,0-4.769,5.315,4.8,4.8,0,1,0,9.537,0A5.043,5.043,0,0,0,95.414,14.034Z" transform="translate(-86.422 -3.586)" fill="#009"></path></g><g id="Group_6" data-name="Group 6" transform="translate(96.362)"><path id="Path_6" data-name="Path 6" d="M109.055,5.976a2.548,2.548,0,1,1,5.1,0,2.548,2.548,0,0,1-5.1,0Zm4.732,4.914v16.89h-4.369V10.891Z" transform="translate(-109.055 -3.428)" fill="#009"></path></g><g id="Group_7" data-name="Group 7" transform="translate(103.535 6.989)"><path id="Path_7" data-name="Path 7" d="M130.077,25.076a6.2,6.2,0,0,1-5.715,3.786c-4.077,0-7.79-3.458-7.79-8.918s3.713-8.919,7.79-8.919a6.2,6.2,0,0,1,5.715,3.786c.073.145.182.109.182-.037V11.5h4.368v16.89h-4.368V25.113C130.259,24.967,130.149,24.931,130.077,25.076Zm-4.513-10.447a5.02,5.02,0,0,0-4.769,5.315,4.8,4.8,0,1,0,9.537,0A5.043,5.043,0,0,0,125.564,14.629Z" transform="translate(-116.572 -11.025)" fill="#009"></path></g><g id="Group_8" data-name="Group 8" transform="translate(130.314 6.989)"><path id="Path_8" data-name="Path 8" d="M158.642,24.967c0-.145-.109-.181-.182-.036a6.137,6.137,0,0,1-5.643,3.786c-4.04,0-7.716-3.421-7.716-8.845s3.676-8.846,7.716-8.846a6.138,6.138,0,0,1,5.643,3.786c.073.145.182.109.182-.037V11.5h4.368V27.406c0,4.7-3.24,8.336-8.846,8.336a11.4,11.4,0,0,1-7.862-2.948l2.621-2.84a7.724,7.724,0,0,0,5.168,2.112c3.2,0,4.551-2.258,4.551-5.061Zm-4.624-10.337a4.942,4.942,0,0,0-4.7,5.242,4.724,4.724,0,1,0,9.392,0A4.966,4.966,0,0,0,154.018,14.629Z" transform="translate(-145.1 -11.025)" fill="#009"></path></g><g id="Group_9" data-name="Group 9" transform="translate(151.655 6.989)"><path id="Path_9" data-name="Path 9" d="M172.338,11.5v3.676c0,.073.073.109.109,0,.582-3.021,1.892-4.15,4.15-4.15h.4v4.587h-1.966c-1.784,0-2.694,1.384-2.694,3.35v9.428H167.97V11.5Z" transform="translate(-167.97 -11.025)" fill="#009"></path></g><g id="Group_10" data-name="Group 10" transform="translate(161.256 6.916)"><path id="Path_10" data-name="Path 10" d="M187.087,10.946a8.992,8.992,0,1,1-9.027,8.992A9,9,0,0,1,187.087,10.946Zm-.037,3.968a4.868,4.868,0,0,0-4.768,5.024,4.775,4.775,0,1,0,9.537,0A4.869,4.869,0,0,0,187.051,14.914Z" transform="translate(-178.06 -10.946)" fill="#009"></path></g><g id="Group_11" data-name="Group 11" transform="translate(182.228 7.463)"><path id="Path_11" data-name="Path 11" d="M206.851,28.977c-4.259,0-6.99-2.585-6.99-6.371V11.54h4.369V22.278a2.676,2.676,0,1,0,5.35.036V11.54h4.369V22.606C213.949,26.392,211,28.977,206.851,28.977Z" transform="translate(-199.861 -11.54)" fill="#009"></path></g><g id="Group_12" data-name="Group 12" transform="translate(199.336 6.989)"><path id="Path_12" data-name="Path 12" d="M223.008,14.811a6.2,6.2,0,0,1,5.715-3.786c4.077,0,7.79,3.459,7.79,8.919s-3.713,8.918-7.79,8.918a6.2,6.2,0,0,1-5.715-3.786c-.073-.145-.182-.109-.182.037V35.342h-4.368V11.5h4.368v3.276C222.826,14.92,222.935,14.957,223.008,14.811Zm4.513,10.447a5.02,5.02,0,0,0,4.769-5.315,4.8,4.8,0,1,0-9.537,0A5.043,5.043,0,0,0,227.521,25.258Z" transform="translate(-218.458 -11.025)" fill="#009"></path></g><g id="Group_13" data-name="Group 13" transform="translate(220.191 7.347)"><path id="Path_13" data-name="Path 13" d="M243.181,11.414v.45h-.759v2.087h-.534V11.864h-.762v-.45Z" transform="translate(-241.127 -11.414)" fill="#009"></path></g><g id="Group_14" data-name="Group 14" transform="translate(222.546 7.347)"><path id="Path_14" data-name="Path 14" d="M245.379,11.414h.763v2.537h-.494V12.236c0-.05,0-.119,0-.208s0-.157,0-.205l-.481,2.129h-.515l-.477-2.129c0,.048,0,.117,0,.205s0,.158,0,.208v1.716h-.494V11.414h.772l.462,1.994Z" transform="translate(-243.687 -11.414)" fill="#009"></path></g><g id="Group_21" data-name="Group 21" transform="translate(0 31.446)"><g id="Group_15" data-name="Group 15" transform="translate(3.419 3.137)"><path id="Path_15" data-name="Path 15" d="M13.535,52.6a.55.55,0,0,0,.753.19l3.565-1.9a5.679,5.679,0,1,0-4.31.017Z" transform="translate(-9.998 -39.966)" fill="#ffc712"></path></g><g id="Group_16" data-name="Group 16" transform="translate(8.822)"><path id="Path_16" data-name="Path 16" d="M16.42,39.136a.548.548,0,0,1-.548-.548V37.1a.548.548,0,0,1,1.1,0v1.484A.548.548,0,0,1,16.42,39.136Z" transform="translate(-15.872 -36.556)" fill="#ffc712"></path></g><g id="Group_17" data-name="Group 17" transform="translate(15.358 8.081)"><path id="Path_17" data-name="Path 17" d="M25.008,46.437H23.524a.549.549,0,0,1,0-1.1h1.484a.549.549,0,0,1,0,1.1Z" transform="translate(-22.976 -45.34)" fill="#ffc712"></path></g><g id="Group_18" data-name="Group 18" transform="translate(13.545 1.854)"><path id="Path_18" data-name="Path 18" d="M21.554,40.717a.548.548,0,0,1-.388-.937l1.049-1.049a.549.549,0,1,1,.776.776l-1.05,1.05A.547.547,0,0,1,21.554,40.717Z" transform="translate(-21.005 -38.571)" fill="#ffc712"></path></g><g id="Group_19" data-name="Group 19" transform="translate(2.369 1.854)"><path id="Path_19" data-name="Path 19" d="M10.455,40.717a.547.547,0,0,1-.387-.16l-1.05-1.05a.549.549,0,0,1,.776-.776l1.049,1.049a.548.548,0,0,1-.388.937Z" transform="translate(-8.857 -38.571)" fill="#ffc712"></path></g><g id="Group_20" data-name="Group 20" transform="translate(0 8.081)"><path id="Path_20" data-name="Path 20" d="M8.314,46.437H6.831a.549.549,0,1,1,0-1.1H8.314a.549.549,0,1,1,0,1.1Z" transform="translate(-6.282 -45.34)" fill="#ffc712"></path></g><path id="Path_21" data-name="Path 21" d="M14.379,56.537a.548.548,0,0,1-.282-1.019L17.309,53.6a.548.548,0,0,1,.562.942L14.66,56.459A.547.547,0,0,1,14.379,56.537Z" transform="translate(-6.886 -37.914)" fill="#ffc712"></path><path id="Path_22" data-name="Path 22" d="M14.379,59.346a.549.549,0,0,1-.282-1.02l3.212-1.918a.548.548,0,0,1,.562.942L14.66,59.267A.548.548,0,0,1,14.379,59.346Z" transform="translate(-6.886 -38.139)" fill="#ffc712"></path></g><g id="Group_22" data-name="Group 22" transform="translate(25.81 38.364)"><path id="Path_23" data-name="Path 23" d="M34.338,48.095H35.5v1.559a4.5,4.5,0,0,1,1.246-1.261,3.526,3.526,0,0,1,1.851-.531,3.1,3.1,0,0,1,1.246.257,2.7,2.7,0,0,1,.963.684,3.662,3.662,0,0,1,.648,1.224A4.3,4.3,0,0,1,42.9,48.414a3.425,3.425,0,0,1,1.87-.552,2.931,2.931,0,0,1,1.65.473,2.821,2.821,0,0,1,1.063,1.319,7.049,7.049,0,0,1,.347,2.537v4.926H46.645V52.191a6.434,6.434,0,0,0-.206-1.994,1.8,1.8,0,0,0-.707-.875,2.11,2.11,0,0,0-1.2-.332,2.6,2.6,0,0,0-1.542.5,2.87,2.87,0,0,0-1.021,1.327,8.425,8.425,0,0,0-.322,2.77v3.533H40.491V52.5a7.938,7.938,0,0,0-.2-2.219,1.854,1.854,0,0,0-.709-.937,2.045,2.045,0,0,0-1.2-.353,2.592,2.592,0,0,0-1.505.486,2.867,2.867,0,0,0-1.037,1.306,7.047,7.047,0,0,0-.336,2.512v3.823H34.338Z" transform="translate(-34.338 -44.379)" fill="#231f20"></path><path id="Path_24" data-name="Path 24" d="M59.224,54.124l.979.514a5.331,5.331,0,0,1-1.112,1.525,4.429,4.429,0,0,1-1.419.884,4.963,4.963,0,0,1-1.785.3A4.313,4.313,0,0,1,52.433,55.9a4.882,4.882,0,0,1-1.246-3.271,4.826,4.826,0,0,1,1.054-3.061,4.311,4.311,0,0,1,3.578-1.708,4.452,4.452,0,0,1,3.686,1.75,4.892,4.892,0,0,1,1,3.085H52.382a3.675,3.675,0,0,0,1,2.578,3.205,3.205,0,0,0,2.4,1.005,3.848,3.848,0,0,0,1.341-.24,3.525,3.525,0,0,0,1.109-.636A5.416,5.416,0,0,0,59.224,54.124Zm0-2.43a3.824,3.824,0,0,0-.677-1.484,3.192,3.192,0,0,0-1.175-.9,3.591,3.591,0,0,0-1.535-.34,3.31,3.31,0,0,0-2.284.855A3.856,3.856,0,0,0,52.5,51.694Z" transform="translate(-35.687 -44.379)" fill="#231f20"></path><path id="Path_25" data-name="Path 25" d="M72.637,44.328V56.835H71.493V55.284a4.967,4.967,0,0,1-1.638,1.336,4.573,4.573,0,0,1-5.257-.942A4.655,4.655,0,0,1,63.241,52.3a4.571,4.571,0,0,1,1.369-3.334A4.459,4.459,0,0,1,67.9,47.579a4.265,4.265,0,0,1,2.012.473,4.575,4.575,0,0,1,1.58,1.419V44.328ZM68,48.7A3.5,3.5,0,0,0,64.9,50.513a3.656,3.656,0,0,0,0,3.645,3.551,3.551,0,0,0,1.314,1.355A3.431,3.431,0,0,0,67.989,56a3.628,3.628,0,0,0,1.806-.481,3.353,3.353,0,0,0,1.313-1.3,3.7,3.7,0,0,0,.46-1.847,3.593,3.593,0,0,0-1.031-2.618A3.417,3.417,0,0,0,68,48.7Z" transform="translate(-36.652 -44.096)" fill="#231f20"></path><path id="Path_26" data-name="Path 26" d="M76.667,44.076a.957.957,0,1,1-.949.962A.932.932,0,0,1,76,44.358.912.912,0,0,1,76.667,44.076Zm-.576,3.716h1.161v9.023H76.091Z" transform="translate(-37.651 -44.076)" fill="#231f20"></path><path id="Path_27" data-name="Path 27" d="M88.964,48.095v9.023H87.82V55.567A4.977,4.977,0,0,1,86.181,56.9a4.574,4.574,0,0,1-5.258-.942,4.658,4.658,0,0,1-1.355-3.379,4.57,4.57,0,0,1,1.368-3.334,4.462,4.462,0,0,1,3.292-1.385,4.261,4.261,0,0,1,2.011.473,4.57,4.57,0,0,1,1.58,1.419V48.095Zm-4.64.887A3.5,3.5,0,0,0,81.229,50.8a3.659,3.659,0,0,0,0,3.645A3.555,3.555,0,0,0,82.547,55.8a3.435,3.435,0,0,0,1.769.485,3.628,3.628,0,0,0,1.806-.481,3.359,3.359,0,0,0,1.313-1.3,3.714,3.714,0,0,0,.46-1.847,3.594,3.594,0,0,0-1.031-2.618A3.42,3.42,0,0,0,84.324,48.982Z" transform="translate(-37.959 -44.379)" fill="#231f20"></path><path id="Path_28" data-name="Path 28" d="M102.2,49.082l-.747.771a2.684,2.684,0,0,0-1.821-.9,1.373,1.373,0,0,0-.969.373,1.15,1.15,0,0,0-.4.87,1.292,1.292,0,0,0,.333.838,4.666,4.666,0,0,0,1.4.954,5.218,5.218,0,0,1,1.763,1.293A2.36,2.36,0,0,1,102.2,54.7a2.545,2.545,0,0,1-.781,1.882,2.666,2.666,0,0,1-1.952.772,3.418,3.418,0,0,1-1.491-.34,3.226,3.226,0,0,1-1.175-.937l.73-.829a2.539,2.539,0,0,0,1.887,1,1.7,1.7,0,0,0,1.189-.448,1.382,1.382,0,0,0,.49-1.053,1.35,1.35,0,0,0-.324-.888,5.229,5.229,0,0,0-1.463-.962,4.678,4.678,0,0,1-1.662-1.244,2.343,2.343,0,0,1-.441-1.4,2.279,2.279,0,0,1,.7-1.708,2.447,2.447,0,0,1,1.774-.681A3.678,3.678,0,0,1,102.2,49.082Z" transform="translate(-39.339 -44.379)" fill="#231f20"></path><path id="Path_29" data-name="Path 29" d="M109.133,47.862a4.469,4.469,0,0,1,3.456,1.51,4.843,4.843,0,0,1-.071,6.564,4.767,4.767,0,0,1-6.779,0,4.835,4.835,0,0,1-.071-6.556A4.468,4.468,0,0,1,109.133,47.862Zm0,1.136a3.35,3.35,0,0,0-2.488,1.07,3.577,3.577,0,0,0-1.04,2.588,3.676,3.676,0,0,0,.474,1.824,3.355,3.355,0,0,0,1.282,1.306,3.64,3.64,0,0,0,3.545,0,3.359,3.359,0,0,0,1.281-1.306,3.667,3.667,0,0,0,.475-1.824,3.57,3.57,0,0,0-1.045-2.588A3.355,3.355,0,0,0,109.129,49Z" transform="translate(-39.949 -44.379)" fill="#231f20"></path><path id="Path_30" data-name="Path 30" d="M116.8,44.328h1.161V56.835H116.8Z" transform="translate(-40.94 -44.096)" fill="#231f20"></path><path id="Path_31" data-name="Path 31" d="M120.524,48.115h1.161v4.212a8.95,8.95,0,0,0,.167,2.123,2.369,2.369,0,0,0,.95,1.311,2.892,2.892,0,0,0,1.673.481,2.825,2.825,0,0,0,1.649-.469,2.4,2.4,0,0,0,.935-1.232,8.722,8.722,0,0,0,.174-2.214V48.115h1.186v4.429a7,7,0,0,1-.435,2.811,3.325,3.325,0,0,1-1.31,1.48,4.778,4.778,0,0,1-4.4,0,3.3,3.3,0,0,1-1.319-1.492,7.306,7.306,0,0,1-.435-2.882Z" transform="translate(-41.238 -44.399)" fill="#231f20"></path><path id="Path_32" data-name="Path 32" d="M132.872,44.473h1.161v3.35h1.842v1h-1.842v8.02h-1.161v-8.02h-1.584v-1h1.584Z" transform="translate(-42.1 -44.108)" fill="#231f20"></path><path id="Path_33" data-name="Path 33" d="M138.521,44.076a.957.957,0,1,1-.949.962.932.932,0,0,1,.281-.681A.912.912,0,0,1,138.521,44.076Zm-.576,3.716h1.161v9.023h-1.161Z" transform="translate(-42.603 -44.076)" fill="#231f20"></path><path id="Path_34" data-name="Path 34" d="M146.1,47.862a4.469,4.469,0,0,1,3.456,1.51,4.843,4.843,0,0,1-.071,6.564,4.767,4.767,0,0,1-6.779,0,4.835,4.835,0,0,1-.071-6.556A4.468,4.468,0,0,1,146.1,47.862Zm0,1.136a3.35,3.35,0,0,0-2.488,1.07,3.577,3.577,0,0,0-1.04,2.588,3.676,3.676,0,0,0,.474,1.824,3.355,3.355,0,0,0,1.282,1.306,3.64,3.64,0,0,0,3.545,0,3.359,3.359,0,0,0,1.281-1.306,3.667,3.667,0,0,0,.475-1.824,3.57,3.57,0,0,0-1.045-2.588A3.355,3.355,0,0,0,146.092,49Z" transform="translate(-42.908 -44.379)" fill="#231f20"></path><path id="Path_35" data-name="Path 35" d="M153.953,48.095h1.161v1.617a4.865,4.865,0,0,1,1.543-1.39,3.8,3.8,0,0,1,1.841-.46,3.2,3.2,0,0,1,1.8.514,3.065,3.065,0,0,1,1.157,1.385,7.333,7.333,0,0,1,.373,2.712v4.644h-1.161v-4.3a10.673,10.673,0,0,0-.129-2.082,2.291,2.291,0,0,0-.775-1.348,2.34,2.34,0,0,0-1.493-.452,2.864,2.864,0,0,0-1.887.7,3.261,3.261,0,0,0-1.1,1.725,12.008,12.008,0,0,0-.166,2.454v3.309h-1.161Z" transform="translate(-43.914 -44.379)" fill="#231f20"></path><path id="Path_36" data-name="Path 36" d="M169.675,49.082l-.746.771a2.684,2.684,0,0,0-1.821-.9,1.375,1.375,0,0,0-.969.373,1.152,1.152,0,0,0-.4.87,1.29,1.29,0,0,0,.332.838,4.686,4.686,0,0,0,1.4.954,5.2,5.2,0,0,1,1.762,1.293,2.354,2.354,0,0,1,.457,1.419,2.548,2.548,0,0,1-.78,1.882,2.667,2.667,0,0,1-1.952.772,3.415,3.415,0,0,1-1.491-.34,3.23,3.23,0,0,1-1.176-.937l.73-.829a2.538,2.538,0,0,0,1.887,1,1.7,1.7,0,0,0,1.189-.448,1.385,1.385,0,0,0,.49-1.053,1.35,1.35,0,0,0-.324-.888,5.228,5.228,0,0,0-1.463-.962,4.67,4.67,0,0,1-1.662-1.244,2.343,2.343,0,0,1-.441-1.4,2.276,2.276,0,0,1,.7-1.708,2.445,2.445,0,0,1,1.774-.681A3.675,3.675,0,0,1,169.675,49.082Z" transform="translate(-44.741 -44.379)" fill="#231f20"></path></g></svg> 