<svg width="160" height="31" fill="none" xmlns="http://www.w3.org/2000/svg"><path d="M13.086.098a.592.592 0 01.632-.013l5.375 3.63c.178.124.222.369.1.548l-3.796 5.242a.598.598 0 01-.6.209L4.415 6.828c-.205-.06-.233-.216-.06-.345L13.085.098z" fill="#FF850F"/><path fill-rule="evenodd" clip-rule="evenodd" d="M21.35 2.054l.484 10.837c.007.215.18.441.38.509l6.126 2.014a.394.394 0 00.487-.262l1.766-6.272a.602.602 0 00-.209-.601l-8.727-6.391c-.176-.126-.314-.051-.307.166z" fill="#D24708"/><path d="M21.35 2.054l.484 10.837c.007.215.18.441.38.509l6.126 2.014a.394.394 0 00.487-.262l1.766-6.272a.602.602 0 00-.209-.601l-8.727-6.391c-.176-.126-.314-.051-.307.166z" fill="#FF850F"/><path fill-rule="evenodd" clip-rule="evenodd" d="M31.091 16.794l-10.086 3.814a.599.599 0 00-.36.521l-.009 6.489a.39.39 0 00.398.384l6.467-.246a.593.593 0 00.503-.384l3.34-10.333c.063-.209-.052-.319-.253-.245z" fill="#D24708"/><path d="M31.091 16.794l-10.086 3.814a.599.599 0 00-.36.521l-.009 6.489a.39.39 0 00.398.384l6.467-.246a.593.593 0 00.503-.384l3.34-10.333c.063-.209-.052-.319-.253-.245z" fill="#FF850F"/><path fill-rule="evenodd" clip-rule="evenodd" d="M20.179 30.684l-6.716-8.482a.595.595 0 00-.605-.187l-6.13 1.996a.394.394 0 00-.24.502l2.228 6.118a.6.6 0 00.52.363L20.027 31c.215-.003.285-.144.152-.316z" fill="#D24708"/><path d="M20.179 30.684l-6.716-8.482a.595.595 0 00-.605-.187l-6.13 1.996a.394.394 0 00-.24.502l2.228 6.118a.6.6 0 00.52.363L20.027 31c.215-.003.285-.144.152-.316z" fill="#FF850F"/><path fill-rule="evenodd" clip-rule="evenodd" d="M3.353 24.477L.023 14.138a.597.597 0 01.181-.609L5.294 9.5a.39.39 0 01.547.075l3.78 5.256a.6.6 0 01.01.636l-5.934 9.055c-.121.18-.275.16-.344-.044z" fill="#D24708"/><path d="M5.841 9.575l3.78 5.256a.6.6 0 01.01.636l-5.934 9.055c-.121.18-.275.16-.344-.044l-3.33-10.34a.597.597 0 01.181-.609L5.294 9.5a.39.39 0 01.547.075z" fill="#FF850F"/><path fill-rule="evenodd" clip-rule="evenodd" d="M53.115 17.043h-9.122v5.043c0 .341.052.618.154.83.103.212.253.376.451.492.198.116.444.198.738.246.294.048.632.079 1.015.092v.881h-6.97v-.881c.383-.013.721-.044 1.015-.092.294-.048.54-.13.738-.246.198-.116.349-.28.451-.492.102-.212.154-.489.154-.83V11.18c0-.342-.051-.618-.154-.83a1.127 1.127 0 00-.451-.493 2.142 2.142 0 00-.738-.245 8.25 8.25 0 00-1.015-.093V8.64h6.97v.881a8.24 8.24 0 00-1.015.093c-.294.048-.54.13-.738.245-.198.117-.348.28-.45.492-.103.213-.155.49-.155.83v4.736h9.122V11.18c0-.342-.051-.618-.154-.83a1.127 1.127 0 00-.45-.493 2.143 2.143 0 00-.739-.245 8.251 8.251 0 00-1.014-.093V8.64h6.97v.881c-.384.014-.722.045-1.015.093-.294.048-.54.13-.738.245-.199.117-.349.28-.451.492-.103.213-.154.49-.154.83v10.906c0 .341.051.618.154.83.102.212.252.376.45.492.199.116.445.198.739.246a8.09 8.09 0 001.014.092v.881h-6.97v-.881c.383-.013.721-.044 1.016-.092.293-.048.54-.13.737-.246.198-.116.349-.28.451-.492.103-.212.154-.489.154-.83v-5.043zM64.41 23.561c.518 0 .97-.095 1.352-.287.382-.19.7-.46.953-.81.253-.348.444-.758.574-1.229.13-.471.195-.987.195-1.548a6.52 6.52 0 00-.267-1.875 4.886 4.886 0 00-.758-1.548 3.676 3.676 0 00-1.22-1.045c-.485-.26-1.035-.39-1.65-.39-.505 0-.953.096-1.342.287-.39.192-.711.462-.964.81a3.776 3.776 0 00-.574 1.23c-.13.471-.194.987-.194 1.547 0 .656.088 1.282.266 1.876.178.594.43 1.11.758 1.548.328.437.735.786 1.22 1.045.485.26 1.035.39 1.65.39zm-.616 1.271c-.806 0-1.544-.136-2.213-.41a5.153 5.153 0 01-1.722-1.127 5.052 5.052 0 01-1.117-1.712 5.799 5.799 0 01-.4-2.183c0-.902.157-1.711.471-2.429a5.583 5.583 0 011.271-1.834 5.61 5.61 0 011.865-1.169 6.228 6.228 0 012.255-.41c.806 0 1.544.134 2.214.4a4.97 4.97 0 011.722 1.127c.478.486.85 1.06 1.117 1.722a5.8 5.8 0 01.4 2.183c0 .902-.158 1.712-.472 2.43a5.584 5.584 0 01-1.27 1.834 5.598 5.598 0 01-1.866 1.168c-.71.274-1.462.41-2.255.41zM81.053 15.588c.192-.246.424-.492.697-.738.273-.246.58-.465.923-.656a5.47 5.47 0 011.086-.461 4.009 4.009 0 011.168-.175c1.012 0 1.808.277 2.389.83.58.554.87 1.316.87 2.286v5.986c0 .232.042.42.123.563a.824.824 0 00.338.328c.144.075.319.133.523.174.205.041.423.076.656.103v.8h-5.33v-.8c.233-.027.452-.062.657-.103.205-.04.379-.099.522-.174a.818.818 0 00.339-.328c.082-.143.123-.331.123-.563v-5.453c0-.683-.174-1.185-.523-1.507-.348-.32-.851-.481-1.507-.481-.492 0-1.01.113-1.557.338a4.34 4.34 0 00-1.374.871v6.232c0 .232.041.42.123.563a.822.822 0 00.338.328c.144.075.318.133.523.174.205.041.424.076.656.103v.8h-5.33v-.8c.233-.027.451-.062.656-.103a1.95 1.95 0 00.523-.174.822.822 0 00.338-.328c.082-.143.123-.331.123-.563v-5.453c0-.683-.174-1.185-.522-1.507-.349-.32-.85-.481-1.507-.481-.492 0-1.011.113-1.558.338a4.34 4.34 0 00-1.373.871v6.232c0 .232.041.42.123.563a.822.822 0 00.338.328c.144.075.318.133.523.174.205.041.423.076.656.103v.8h-5.33v-.8c.233-.027.451-.062.656-.103.205-.04.38-.099.523-.174a.82.82 0 00.338-.328c.082-.143.123-.331.123-.563v-6.867l-1.537-.718v-.492l2.972-1.025h.718l-.103 1.948a5.323 5.323 0 011.578-1.343 5.069 5.069 0 011.046-.44c.369-.11.744-.165 1.127-.165.806 0 1.483.175 2.03.523.546.349.915.85 1.106 1.507zM95.094 14.83c-.82 0-1.482.242-1.988.727-.505.485-.813 1.117-.923 1.896h5.72c0-.355-.059-.693-.175-1.015a2.27 2.27 0 00-.532-.84 2.545 2.545 0 00-.882-.564 3.339 3.339 0 00-1.22-.205zm.513-1.272c.752 0 1.41.11 1.978.328a3.963 3.963 0 011.424.913c.383.389.67.85.862 1.383.191.533.287 1.107.287 1.722v.574h-8.036c0 1.408.317 2.521.953 3.341.636.82 1.63 1.23 2.983 1.23.86 0 1.577-.164 2.152-.492.574-.328 1.031-.704 1.373-1.127l.595.266c-.11.37-.284.742-.523 1.117-.24.376-.553.715-.943 1.015-.39.3-.854.543-1.394.728-.54.184-1.171.276-1.896.276-.82 0-1.554-.136-2.204-.41a4.794 4.794 0 01-1.65-1.127 4.919 4.919 0 01-1.034-1.68 5.88 5.88 0 01-.36-2.071c0-.902.137-1.718.41-2.45.274-.73.65-1.36 1.128-1.886a4.92 4.92 0 011.721-1.22 5.46 5.46 0 012.174-.43zM104.892 24.832c-.834 0-1.575-.1-2.224-.297-.649-.198-1.186-.454-1.609-.769l-.123-2.726h.861c.218.889.574 1.562 1.066 2.02.492.457 1.169.686 2.029.686.724 0 1.288-.154 1.691-.461.403-.308.604-.762.604-1.363 0-.492-.163-.858-.491-1.097-.328-.239-.787-.447-1.374-.625l-1.434-.451a9.757 9.757 0 01-1.159-.451 3.213 3.213 0 01-.881-.595 2.343 2.343 0 01-.554-.85c-.129-.335-.194-.735-.194-1.2 0-.956.342-1.711 1.025-2.264.683-.554 1.605-.83 2.767-.83.738 0 1.391.078 1.958.235a6.852 6.852 0 011.568.646v2.542h-.862c-.163-.834-.468-1.432-.912-1.794-.444-.362-1.048-.543-1.813-.543-.561 0-1.015.13-1.364.39-.348.26-.523.655-.523 1.188 0 .438.124.766.369.984.247.219.629.41 1.149.574l1.619.492c.478.137.902.297 1.271.482.369.184.679.403.933.656a2.5 2.5 0 01.574.902c.129.348.195.768.195 1.26 0 1.012-.38 1.807-1.138 2.388-.759.581-1.767.871-3.024.871zM110.775 23.254c0-.437.154-.81.461-1.117a1.52 1.52 0 011.117-.461c.438 0 .81.153 1.118.46.307.308.461.68.461 1.118 0 .437-.154.81-.461 1.117-.308.308-.68.461-1.118.461a1.52 1.52 0 01-1.117-.46 1.523 1.523 0 01-.461-1.118zM116.924 18.765c0 1.325.328 2.371.984 3.136.656.766 1.627 1.148 2.911 1.148.86 0 1.578-.164 2.152-.492.574-.328 1.031-.704 1.374-1.127l.594.266c-.11.37-.284.742-.522 1.117-.24.376-.554.715-.944 1.015-.389.3-.854.543-1.394.728-.54.184-1.171.276-1.896.276-.888 0-1.659-.153-2.316-.46a4.876 4.876 0 01-1.629-1.2 4.882 4.882 0 01-.964-1.691 6.084 6.084 0 01-.318-1.937c0-.902.147-1.722.441-2.46a5.538 5.538 0 011.23-1.896 5.348 5.348 0 011.875-1.21c.725-.28 1.51-.42 2.358-.42 1.202 0 2.145.253 2.828.759.683.505 1.025 1.14 1.025 1.906a1.395 1.395 0 01-.799 1.312h-1.394v-.84c0-.643-.161-1.128-.481-1.456-.322-.328-.851-.492-1.589-.492-.506 0-.978.09-1.414.267-.438.178-.81.437-1.118.779-.307.341-.55.762-.727 1.26-.178.5-.267 1.07-.267 1.712zM131.314 23.561c.518 0 .97-.095 1.352-.287.383-.19.701-.46.954-.81.253-.348.444-.758.573-1.229a5.81 5.81 0 00.195-1.548c0-.656-.089-1.28-.266-1.875a4.893 4.893 0 00-.759-1.548 3.657 3.657 0 00-1.22-1.045c-.485-.26-1.034-.39-1.65-.39-.505 0-.953.096-1.342.287a2.584 2.584 0 00-.964.81 3.76 3.76 0 00-.573 1.23c-.13.471-.195.987-.195 1.547 0 .656.088 1.282.266 1.876.178.594.431 1.11.759 1.548.327.437.734.786 1.219 1.045.486.26 1.036.39 1.651.39zm-.615 1.271c-.807 0-1.545-.136-2.214-.41a5.15 5.15 0 01-1.722-1.127 5.051 5.051 0 01-1.117-1.712 5.789 5.789 0 01-.399-2.183c0-.902.157-1.711.471-2.429a5.591 5.591 0 011.27-1.834 5.62 5.62 0 011.866-1.169 6.226 6.226 0 012.255-.41c.806 0 1.544.134 2.213.4.67.267 1.243.643 1.722 1.127.479.486.851 1.06 1.117 1.722.267.663.401 1.391.401 2.183 0 .902-.159 1.712-.473 2.43a5.574 5.574 0 01-1.27 1.834 5.596 5.596 0 01-1.866 1.168c-.71.274-1.462.41-2.254.41zM147.958 15.588c.191-.246.423-.492.697-.738a5.11 5.11 0 01.922-.656 5.477 5.477 0 011.086-.461 4.012 4.012 0 011.169-.175c1.011 0 1.807.277 2.388.83.581.554.871 1.316.871 2.286v5.986c0 .232.041.42.123.563a.812.812 0 00.338.328c.144.075.318.133.523.174.205.041.424.076.655.103v.8h-5.329v-.8c.232-.027.452-.062.656-.103.205-.04.38-.099.523-.174a.812.812 0 00.338-.328c.082-.143.123-.331.123-.563v-5.453c0-.683-.174-1.185-.523-1.507-.348-.32-.85-.481-1.507-.481-.491 0-1.011.113-1.557.338a4.336 4.336 0 00-1.373.871v6.232c0 .232.04.42.122.563a.826.826 0 00.339.328c.143.075.317.133.523.174.204.041.423.076.656.103v.8h-5.33v-.8c.233-.027.451-.062.655-.103.206-.04.38-.099.523-.174a.82.82 0 00.339-.328c.082-.143.123-.331.123-.563v-5.453c0-.683-.175-1.185-.523-1.507-.349-.32-.851-.481-1.506-.481-.493 0-1.012.113-1.558.338a4.341 4.341 0 00-1.374.871v6.232c0 .232.041.42.124.563a.815.815 0 00.337.328c.144.075.318.133.523.174.206.041.424.076.656.103v.8h-5.329v-.8c.232-.027.451-.062.656-.103.204-.04.379-.099.523-.174a.815.815 0 00.337-.328c.082-.143.123-.331.123-.563v-6.867l-1.537-.718v-.492l2.972-1.025h.718l-.103 1.948a5.305 5.305 0 011.579-1.343 5.087 5.087 0 011.045-.44c.369-.11.745-.165 1.128-.165.805 0 1.482.175 2.029.523.546.349.915.85 1.107 1.507z" fill="#1A1919"/><path fill-rule="evenodd" clip-rule="evenodd" d="M157.524 13.452v.185h-.523v1.368h-.213v-1.368h-.523v-.185h1.259zM157.712 13.452h.302l.447 1.313.443-1.313h.299v1.553h-.2v-.917c0-.031 0-.084.002-.157l.002-.236-.444 1.31h-.208l-.448-1.31v.048l.003.174c.003.078.004.135.004.171v.917h-.202v-1.553z" fill="#0B0B09"/></svg>