<?xml version="1.0" encoding="UTF-8"?><svg xmlns="http://www.w3.org/2000/svg" class="header" enable-background="new 0 0 210 47" fill="none" height="40px" preserveAspectRatio="xMidYMid meet" viewBox="0 0 210 47" width="179px"><g clip-path="url(#clip0_2640_228735)"><path d="M29.9969 42.4741H7.7604C3.48223 42.4741 0 38.9919 0 34.6971V12.4606C0 8.18243 3.48223 4.7002 7.7604 4.7002H29.9969C34.2917 4.7002 37.7573 8.18243 37.7573 12.4606V34.6971C37.7739 38.9919 34.2917 42.4741 29.9969 42.4741Z" fill="#EF3346"/><path d="M13.4651 21.4315C13.4651 21.1164 13.2496 20.9009 12.9345 20.9009H9.25328C8.93822 20.9009 8.72266 21.1164 8.72266 21.4315V25.0961C8.72266 25.4112 8.93822 25.6268 9.25328 25.6268H12.9179C13.233 25.6268 13.4485 25.4112 13.4485 25.0961V21.4315H13.4651Z" fill="#191E3B"/><path d="M21.5735 29.5565C21.5735 29.2414 21.3414 29.0259 21.0429 29.0259H17.3783C17.0632 29.0259 16.8477 29.2414 16.8477 29.5565V33.2211C16.8477 33.5362 17.0632 33.7518 17.3783 33.7518H21.0429C21.358 33.7518 21.5735 33.5362 21.5735 33.2211V29.5565V29.5565Z" fill="#191E3B"/><path d="M21.5735 21.4315C21.5735 21.1164 21.358 20.9009 21.0429 20.9009H17.3783C17.0632 20.9009 16.8477 21.1164 16.8477 21.4315V25.0961C16.8477 25.4112 17.0632 25.6268 17.3783 25.6268H21.0429C21.358 25.6268 21.5735 25.4112 21.5735 25.0961V21.4315V21.4315Z" fill="#FDDB32"/><path d="M127.018 25.5934C127.549 21.8624 129.505 19.4249 133.385 19.4249C137.365 19.4249 139.471 21.7132 139.769 25.5934H127.018ZM133.485 15.7603C127.267 15.7603 122.309 20.2374 122.309 27.6496C122.309 35.2442 126.686 39.9037 134.065 39.9037C138.31 39.9037 141.842 38.0299 144.031 35.4266C144.164 35.2939 144.213 35.1612 144.213 35.0286C144.213 34.8959 144.164 34.7633 144.031 34.6306L141.975 32.6242C141.842 32.4915 141.71 32.4418 141.577 32.4418C141.444 32.4418 141.312 32.5247 141.179 32.6739C139.488 34.5145 137.282 36.0733 134.115 36.0733C129.489 36.0733 127.267 33.2211 126.918 29.0922H144.081C144.396 29.0922 144.611 28.8601 144.611 28.5616V27.6662C144.611 20.8675 140.499 15.7603 133.485 15.7603Z" fill="#191E3B"/><path d="M74.1523 7.93359H70.4379C70.1229 7.93359 69.9073 8.16574 69.9073 8.46422V20.9837H54.8342V8.4808C54.8342 8.16574 54.6187 7.95018 54.3036 7.95018H50.5892C50.2742 7.95018 50.0586 8.18232 50.0586 8.4808V38.6933C50.0586 39.0083 50.2742 39.2239 50.5892 39.2239H54.3036C54.6187 39.2239 54.8342 38.9918 54.8342 38.6933V25.1955H69.9073V38.6933C69.9073 39.0083 70.1229 39.2239 70.4379 39.2239H74.1523C74.4674 39.2239 74.6829 38.9918 74.6829 38.6933V8.4808C74.6995 8.16574 74.4674 7.93359 74.1523 7.93359Z" fill="#191E3B"/><path d="M152.753 7.93359H149.171C148.856 7.93359 148.641 8.16574 148.641 8.46422V38.6933C148.641 39.0083 148.856 39.2239 149.171 39.2239H152.753C153.068 39.2239 153.284 38.9918 153.284 38.6933V8.4808C153.284 8.16574 153.051 7.93359 152.753 7.93359Z" fill="#191E3B"/><path d="M91.0705 35.9738C86.1125 35.9738 83.476 32.2594 83.476 27.832C83.476 23.4046 86.1125 19.6902 91.0705 19.6902C96.0286 19.6902 98.6651 23.4046 98.6651 27.832C98.6651 32.2594 96.0286 35.9738 91.0705 35.9738ZM91.0705 15.7603C84.4046 15.7603 78.8164 20.6851 78.8164 27.832C78.8164 34.9788 84.4046 39.9037 91.0705 39.9037C97.7365 39.9037 103.325 34.9788 103.325 27.832C103.325 20.6851 97.7199 15.7603 91.0705 15.7603Z" fill="#191E3B"/><path d="M119.574 16.4734H113.77V8.91201C113.77 8.51404 113.372 8.33164 113.107 8.59695L109.492 12.2118C109.277 12.4274 109.127 12.6596 109.127 13.0078V16.4734H105.148C104.833 16.4734 104.617 16.689 104.617 17.004V19.5079C104.617 19.823 104.833 20.0386 105.148 20.0386H109.127V32.2429C109.127 36.488 111.134 39.224 115.379 39.224H119.574C119.889 39.224 120.105 39.0084 120.105 38.6934V35.8413C120.105 35.5262 119.889 35.3106 119.574 35.3106H116.623C114.517 35.3106 113.77 34.4981 113.77 32.4088V20.0551H119.574C119.889 20.0551 120.105 19.8396 120.105 19.5245V17.0206C120.121 16.7056 119.889 16.4734 119.574 16.4734Z" fill="#191E3B"/><path d="M179.917 37.2837H178.375C178.225 37.2837 178.109 37.3832 178.109 37.549V38.9916C178.109 39.1409 178.209 39.257 178.375 39.257H179.917C180.066 39.257 180.182 39.1575 180.182 38.9916V37.549C180.182 37.3998 180.083 37.2837 179.917 37.2837Z" fill="#191E3B"/><path d="M193.828 38.0135C192.385 38.0135 191.655 37.0352 191.655 35.7418C191.655 34.4981 192.368 33.4701 193.828 33.4701C195.27 33.4701 196 34.4981 196 35.7418C195.983 37.0352 195.27 38.0135 193.828 38.0135ZM193.828 32.0938C191.821 32.0938 190.113 33.5861 190.113 35.7584C190.113 37.9804 191.821 39.423 193.828 39.423C195.834 39.423 197.542 37.9804 197.542 35.7584C197.542 33.5861 195.834 32.0938 193.828 32.0938Z" fill="#191E3B"/><path d="M167.544 25.5934C163.879 24.7975 162.088 24.1674 162.088 22.277C162.088 20.4861 163.697 19.4249 166.565 19.4249C169.119 19.4249 171.125 20.5856 172.419 22.4262C172.601 22.6915 172.916 22.7413 173.181 22.5589L175.602 21.0002C175.868 20.8178 175.967 20.5525 175.785 20.2374C173.812 17.2361 170.694 15.7603 166.615 15.7603C162.055 15.7603 157.992 17.9988 157.992 22.5589C157.992 27.3511 161.79 28.5948 166.797 29.6726C170.329 30.4354 171.888 31.0157 171.888 33.1217C171.888 35.1778 170.047 36.2557 166.963 36.2557C163.746 36.2557 161.69 34.9954 160.264 32.9061C160.082 32.591 159.767 32.5081 159.452 32.7237L157.031 34.3985C156.765 34.5809 156.716 34.8462 156.848 35.1115C158.672 38.1958 162.072 39.9369 166.913 39.9369C172.949 39.9369 176.432 36.9355 176.432 32.9227C176.432 28.23 172.551 26.721 167.544 25.5934Z" fill="#191E3B"/><path d="M206.746 32.0938C205.718 32.0938 205.038 32.5083 204.474 33.1716C204.109 32.558 203.346 32.0938 202.418 32.0938C201.439 32.0938 200.826 32.558 200.461 33.0721V32.558C200.461 32.4088 200.362 32.2927 200.196 32.2927H199.168C199.018 32.2927 198.902 32.3922 198.902 32.558V39.0085C198.902 39.1577 199.002 39.2738 199.168 39.2738H200.245C200.395 39.2738 200.511 39.1743 200.511 39.0085V35.6589C200.511 34.3655 200.876 33.4866 202.003 33.4866C202.982 33.4866 203.297 34.0504 203.297 34.979V38.9919C203.297 39.1411 203.396 39.2572 203.562 39.2572H204.64C204.789 39.2572 204.905 39.1577 204.905 38.9919V35.6423C204.905 34.3489 205.32 33.4701 206.447 33.4701C207.376 33.4701 207.741 34.0338 207.741 34.9624V38.9753C207.741 39.1245 207.84 39.2406 208.006 39.2406H209.084C209.233 39.2406 209.349 39.1411 209.349 38.9753V34.7469C209.316 33.1716 208.338 32.0938 206.746 32.0938Z" fill="#191E3B"/><path d="M188.404 36.9357C188.255 36.7864 188.089 36.8362 187.99 36.9357C187.277 37.715 186.796 38.0135 186.033 38.0135C184.74 38.0135 184.076 37.0352 184.076 35.7418C184.076 34.4981 184.64 33.47 185.983 33.47C186.862 33.47 187.326 33.8348 187.791 34.3489C187.89 34.4484 188.056 34.4981 188.205 34.3986L188.819 33.8846C188.968 33.7851 189.084 33.6193 188.918 33.4203C188.354 32.6409 187.376 32.0771 185.983 32.0771C183.861 32.0771 182.484 33.5198 182.484 35.7418C182.484 37.9638 183.877 39.4562 185.933 39.4562C187.376 39.4562 188.404 38.8426 189.084 37.914C189.184 37.7648 189.184 37.6487 189.084 37.5492L188.404 36.9357Z" fill="#191E3B"/><path d="M30.9763 13.9195C30.9763 12.5764 29.8985 11.4985 28.5553 11.4985H10.4975C10.1327 11.4985 9.91713 11.6312 9.70156 11.8633L6.07009 15.4782C5.80478 15.7435 5.98718 16.1581 6.38515 16.1581H26.3168V36.0897C26.3168 36.4877 26.7147 36.6701 26.9966 36.4048L30.6281 32.7899C30.8603 32.5577 30.9763 32.3422 30.9763 31.9774V13.9195Z" fill="#191E3B"/></g><defs><clipPath id="clip0_2640_228735"><rect fill="white" height="37.7739" transform="translate(0 4.7002)" width="209.332"/></clipPath></defs></svg>