<svg width="100" height="100" viewBox="0 0 100 100" fill="none" xmlns="http://www.w3.org/2000/svg">
<g clip-path="url(#clip0_6717_79989)">
<path d="M100 50C100 77.6125 77.6125 100 50 100C22.3875 100 0 77.6125 0 50C0 22.3875 22.3875 0 50 0C77.6125 0 100 22.3875 100 50Z" fill="#EB004B"/>
<path d="M32.7827 60.0709V52.0792H21.791V60.0709H16.666V39.8917H21.791V47.8292H32.7827V39.8917H37.8785V60.0709H32.7827ZM46.2952 49.2125V44.0334H53.5452C55.8285 44.0334 56.6785 45.0667 56.6785 46.5542C56.6785 48.0417 55.8035 49.2084 53.6785 49.2084H46.2993L46.2952 49.2125ZM57.4202 52.7167C60.1827 51.8667 61.8285 49.7959 61.8285 46.425C61.8285 41.6709 58.7743 39.8917 53.7827 39.8917H41.1702V60.0709H46.2952V53.3542H52.191L56.5452 60.0709H62.3327L57.4202 52.7167ZM78.2618 54.15C78.2618 55.7709 76.0327 56.1959 73.0327 56.1959C69.0493 56.1959 65.5702 55.3459 64.0327 54.6292V59.1167C66.291 59.8084 69.0785 60.3375 73.0327 60.3375C79.7493 60.3375 83.3327 58.6375 83.3327 53.9125C83.3327 49.7709 80.916 48.3917 73.5077 47.9375C70.0577 47.725 68.941 47.5125 68.941 45.9209C68.941 44.3292 71.066 43.7709 73.8785 43.7709C77.5702 43.7709 80.8618 44.6209 82.216 45.3125V40.825C80.516 40.1875 77.7535 39.6292 74.116 39.6292C66.6035 39.6292 63.866 41.9375 63.866 46.1584C63.866 50.3792 66.2535 51.6792 73.716 52.1334C77.141 52.3459 78.2577 52.5584 78.2577 54.15" fill="white"/>
</g>
<defs>
<clipPath id="clip0_6717_79989">
<rect width="100" height="100" fill="white"/>
</clipPath>
</defs>
</svg>
