<?xml version="1.0" encoding="utf-8"?>
<svg version="1.1" xmlns="http://www.w3.org/2000/svg" viewBox="0 0 324 110" width="324px" height="110px">
<g fill="#ed6103">
    <path d="M265.011,55.276h6.126c0.395,0,0.668,0.398,0.527,0.769l-4.083,10.772c-0.083,0.22-0.293,0.365-0.527,0.365h-6.126c-0.395,0-0.668-0.398-0.527-0.769l4.083-10.772C264.567,55.421,264.777,55.276,265.011,55.276z"/>
    <path d="M218.579,55.276l-4.352,0c-0.15,0-0.295,0.06-0.401,0.166l-10.041,10.041c-0.111,0.111-0.29,0.111-0.401,0l-10.042-10.042c-0.106-0.106-0.251-0.166-0.401-0.166l-4.41,0c-0.313,0-0.567,0.254-0.567,0.567V85.89c0,0.313,0.254,0.567,0.567,0.567l6.236,0c0.313,0,0.567-0.254,0.567-0.567V68.131c0-0.101,0.122-0.152,0.194-0.08l7.684,7.684c0.098,0.098,0.233,0.137,0.372,0.123c0.139,0.014,0.275-0.026,0.372-0.123l7.626-7.626c0.071-0.071,0.194-0.021,0.194,0.08V85.89c0,0.313,0.254,0.567,0.567,0.567l6.236,0c0.313,0,0.567-0.254,0.567-0.567V55.843C219.146,55.53,218.892,55.276,218.579,55.276z"/>
    <path d="M136.347,55.276l-6.236,0c-0.313,0-0.567,0.254-0.567,0.567v11.055c0,0.157-0.127,0.283-0.283,0.283h-11.339c-0.157,0-0.283-0.127-0.283-0.283V55.843c0-0.313-0.254-0.567-0.567-0.567l-6.236,0c-0.313,0-0.567,0.254-0.567,0.567V85.89c0,0.313,0.254,0.567,0.567,0.567l6.236,0c0.313,0,0.567-0.254,0.567-0.567V74.835c0-0.157,0.127-0.283,0.283-0.283h11.339c0.157,0,0.283,0.127,0.283,0.283V85.89c0,0.313,0.254,0.567,0.567,0.567l6.236,0c0.313,0,0.567-0.254,0.567-0.567V55.843C136.914,55.53,136.66,55.276,136.347,55.276z"/>
    <path d="M162.907,54.426c-9.08,0-16.441,7.361-16.441,16.441s7.361,16.441,16.441,16.441s16.441-7.361,16.441-16.441S171.987,54.426,162.907,54.426z M162.907,79.937c-5.01,0-9.071-4.061-9.071-9.071s4.061-9.071,9.071-9.071c5.01,0,9.071,4.061,9.071,9.071S167.916,79.937,162.907,79.937z"/>
    <path d="M24.445,67.182H28.3c0.194,0,0.35,0.157,0.35,0.35v13.843c0,0.29,0.235,0.526,0.526,0.526l9.287,0c0.194,0,0.35,0.157,0.35,0.35v3.855c0,0.194-0.157,0.35-0.35,0.35l-12.967,0c-0.774,0-1.402-0.628-1.402-1.402V67.532C24.095,67.339,24.251,67.182,24.445,67.182z"/>
    <path d="M43.37,24.445V28.3c0,0.194-0.157,0.35-0.35,0.35H29.176c-0.29,0-0.526,0.235-0.526,0.526l0,9.287c0,0.194-0.157,0.35-0.35,0.35h-3.855c-0.194,0-0.35-0.157-0.35-0.35l0-12.967c0-0.774,0.628-1.402,1.402-1.402H43.02C43.213,24.095,43.37,24.252,43.37,24.445z"/>
    <path d="M86.106,43.37h-3.855c-0.194,0-0.35-0.157-0.35-0.35V29.176c0-0.29-0.235-0.526-0.526-0.526l-9.287,0c-0.194,0-0.35-0.157-0.35-0.35v-3.855c0-0.194,0.157-0.35,0.35-0.35l12.967,0c0.774,0,1.402,0.628,1.402,1.402V43.02C86.457,43.213,86.3,43.37,86.106,43.37z"/>
    <path d="M67.181,86.107v-3.855c0-0.194,0.157-0.35,0.35-0.35h13.843c0.29,0,0.526-0.235,0.526-0.526l0-9.287c0-0.194,0.157-0.35,0.35-0.35h3.855c0.194,0,0.35,0.157,0.35,0.35l0,12.967c0,0.774-0.628,1.402-1.402,1.402H67.532C67.338,86.457,67.181,86.3,67.181,86.107z"/>
    <path d="M74.135,53.862L56.879,35.735c-0.886-0.886-2.321-0.886-3.207,0L36.416,53.862c-0.266,0.266-0.415,0.626-0.415,1.002v17.27c0,0.783,0.635,1.417,1.417,1.417l35.714,0c0.783,0,1.417-0.635,1.417-1.417v-17.27C74.55,54.488,74.401,54.128,74.135,53.862z M51.758,62.33L51.758,62.33c0-1.94,1.578-3.518,3.518-3.518c1.94,0,3.518,1.578,3.518,3.518h0v6.403c0,0.157-0.127,0.283-0.283,0.283h-6.469c-0.157,0-0.283-0.127-0.283-0.283V62.33zM55.276,54.276c-4.448,0-8.054,3.606-8.054,8.054v6.403c0,0.157-0.127,0.283-0.283,0.283h-5.836c-0.313,0-0.567-0.254-0.567-0.567V56.391c0-0.15,0.06-0.295,0.166-0.401l14.172-15.044c0.221-0.221,0.58-0.221,0.802,0L69.849,55.99c0.106,0.106,0.166,0.251,0.166,0.401V68.45c0,0.313-0.254,0.567-0.567,0.567h-5.835c-0.157,0-0.283-0.127-0.283-0.283V62.33C63.329,57.882,59.724,54.276,55.276,54.276"/>
    <path d="M288.13,67.352c-2.888-0.245-4.619-1.15-4.619-2.863c0-1.84,1.906-2.724,4.619-2.693c2.312,0.026,4.423,0.865,6.025,2.29c0.225,0.2,0.565,0.191,0.777-0.021l4.415-4.415c0.228-0.228,0.22-0.599-0.016-0.819c-2.936-2.733-6.873-4.406-11.201-4.406c-6.575,0-11.906,4.505-11.906,10.063c0,5.558,5.14,9.4,11.906,9.893c2.888,0.245,4.619,1.15,4.619,2.863c0,1.84-1.906,2.724-4.619,2.693c-2.312-0.026-4.423-0.865-6.025-2.29c-0.225-0.2-0.565-0.191-0.777,0.021l-4.415,4.415c-0.228,0.228-0.22,0.599,0.016,0.819c2.936,2.733,6.873,4.406,11.201,4.406c6.575,0,11.905-4.505,11.905-10.063C300.036,71.687,294.896,67.845,288.13,67.352z"/>
    <path d="M237.613,74.552l15.591,0c0.313,0,0.567-0.254,0.567-0.567v-6.236c0-0.313-0.254-0.567-0.567-0.567l-15.591,0c-0.157,0-0.283-0.127-0.283-0.283l0-3.402c0-0.47,0.381-0.85,0.85-0.85h15.024c0.313,0,0.567-0.254,0.567-0.567v-6.236c0-0.313-0.254-0.567-0.567-0.567l-20.976,0c-1.252,0-2.268,1.015-2.268,2.268v26.645c0,1.252,1.015,2.268,2.268,2.268l20.976,0c0.313,0,0.567-0.254,0.567-0.567v-6.236c0-0.313-0.254-0.567-0.567-0.567H238.18c-0.47,0-0.85-0.381-0.85-0.85l0-3.401C237.329,74.679,237.456,74.552,237.613,74.552z"/>
    <path d="M132.06,24.095l3.855,0c0.194,0,0.35,0.157,0.35,0.35V43.02c0,0.194-0.157,0.35-0.35,0.35l-3.855,0c-0.194,0-0.35-0.157-0.35-0.35V24.446C131.71,24.252,131.867,24.095,132.06,24.095z"/>
    <path d="M195.529,24.095h3.855c0.194,0,0.35,0.157,0.35,0.35v13.844c0,0.29,0.235,0.526,0.526,0.526l9.287,0c0.194,0,0.35,0.157,0.35,0.35v3.855c0,0.194-0.157,0.35-0.35,0.35l-12.967,0c-0.774,0-1.402-0.628-1.402-1.402V24.445C195.178,24.252,195.335,24.095,195.529,24.095z"/>
    <path d="M216.687,24.095h3.855c0.194,0,0.35,0.157,0.35,0.35v13.844c0,0.29,0.235,0.526,0.526,0.526l9.287,0c0.194,0,0.35,0.157,0.35,0.35v3.855c0,0.194-0.157,0.35-0.35,0.35l-12.967,0c-0.774,0-1.402-0.628-1.402-1.402V24.445C216.336,24.252,216.493,24.095,216.687,24.095z"/>
    <path d="M110.618,24.095h3.855c0.194,0,0.35,0.157,0.35,0.35v13.844c0,0.29,0.235,0.526,0.526,0.526l9.287,0c0.194,0,0.35,0.157,0.35,0.35v3.855c0,0.194-0.157,0.35-0.35,0.35l-12.967,0c-0.774,0-1.402-0.628-1.402-1.402V24.445C110.268,24.252,110.425,24.095,110.618,24.095z"/>
    <path d="M187.584,33.733v-9.287c0-0.194-0.157-0.35-0.35-0.35h-3.855c-0.194,0-0.35,0.157-0.35,0.35v9.287c0,3.865-2.511,5.608-5.607,5.608s-5.607-1.743-5.607-5.608v-9.287c0-0.194-0.157-0.35-0.35-0.35h-3.855c-0.194,0-0.35,0.157-0.35,0.35v9.287l0,0c0,6.011,4.55,10.164,10.164,10.164S187.584,39.743,187.584,33.733L187.584,33.733z"/>
    <path d="M160.003,24.095c0.194,0,0.35,0.157,0.35,0.35v3.855c0,0.194-0.157,0.35-0.35,0.35h-9.287c-0.29,0-0.526,0.235-0.526,0.526v2.103c0,0.097,0.078,0.175,0.175,0.175l9.638,0c0.194,0,0.35,0.157,0.35,0.35v3.855c0,0.194-0.157,0.35-0.35,0.35l-9.638,0c-0.097,0-0.175,0.078-0.175,0.175v6.834c0,0.194-0.157,0.35-0.35,0.35h-3.855c-0.194,0-0.351-0.157-0.351-0.35V25.497c0-0.774,0.628-1.402,1.402-1.402L160.003,24.095z"/>
</g>
</svg>
