<?xml version="1.0" encoding="utf-8"?>
<!-- Generator: Adobe Illustrator 25.2.1, SVG Export Plug-In . SVG Version: 6.00 Build 0)  -->
<svg version="1.1" id="Calque_1" xmlns="http://www.w3.org/2000/svg" xmlns:xlink="http://www.w3.org/1999/xlink" x="0px" y="0px"
	 viewBox="0 0 332.2 149.1" style="enable-background:new 0 0 332.2 149.1;" xml:space="preserve">
<style type="text/css">
	.st0{fill:#015AEF;}
	.st1{fill:#001B25;}
</style>
<g>
	<rect y="100.9" class="st0" width="26" height="10"/>
	<polygon class="st1" points="45.5,1.2 45.5,68.7 94.6,68.7 94.6,52 65,52 65,1.2 	"/>
	<path class="st1" d="M129.8,0c-22.1,0-31.6,15.9-31.6,35.5c0,19.6,10.1,34.3,31.6,34.3c21.5,0,31.6-14.7,31.6-34.3
		C161.4,15.9,151.9,0,129.8,0z M129.8,53.8c-8.2,0-12-7.9-12-18.5c0-10.6,3.6-19.2,12-19.2c8.4,0,12,8.6,12,19.2
		C141.8,45.8,138,53.8,129.8,53.8z"/>
	<path class="st1" d="M231.4,31.6l-29.9,0v14.3h12c-0.5,5-2.7,8.3-11.3,8.3c-10,0-12.8-8.3-12.8-18.9c0-10.6,3.6-19.2,12-19.2
		c5.8,0,9.4,4.1,11,10.2l17.8-7.5C225.9,7.6,216.7,0,201.4,0c-22.1,0-31.6,15.9-31.6,35.5c0,19.6,10.1,34.3,31.6,34.3
		C229.1,69.9,232.3,51.6,231.4,31.6z"/>
	<rect x="241.9" y="1.2" class="st1" width="18.8" height="67.5"/>
	<path class="st1" d="M302.8,53.8c-8,0-11-7.9-11-18.5c0-10.6,2.7-19.2,11-19.2c5.8,0,8.8,4.3,10.1,10.5h19.3
		C329.8,11.3,321.1,0,302.8,0c-21.7,0-31,15.9-31,35.5s10,34.3,31,34.3c18,0,28.5-10.2,29.4-26.1h-18.3
		C312.6,49.8,308.4,53.8,302.8,53.8z"/>
	<path class="st1" d="M172.6,86.7c-12.2,0-17.4,8.8-17.4,19.6c0,10.8,5.6,18.9,17.4,18.9c11.8,0,17.4-8.1,17.4-18.9
		C190,95.5,184.8,86.7,172.6,86.7z M172.6,116.3c-4.5,0-6.6-4.4-6.6-10.2c0-5.8,2-10.6,6.6-10.6c4.6,0,6.6,4.7,6.6,10.6
		C179.2,112,177.1,116.3,172.6,116.3z"/>
	<rect x="45.5" y="86.7" class="st1" width="10.7" height="38.5"/>
	<polygon class="st1" points="92.1,86.7 83,108.2 74,86.7 63.3,86.7 63.3,125.2 74,125.2 74,106 83,125.2 92.1,106 92.1,125.2 
		102.8,125.2 102.8,86.7 	"/>
	<polygon class="st1" points="138.8,86.7 129.7,108.2 120.6,86.7 109.9,86.7 109.9,125.2 120.6,125.2 120.6,106 129.7,125.2 
		138.8,106 138.8,125.2 149.5,125.2 149.5,86.7 	"/>
	<circle class="st0" cx="201.7" cy="118" r="7.1"/>
	<g>
		<path class="st0" d="M219.5,86.7h31.2c16.3,0,20.8,7.5,20.8,17.6c0,5.3-2.7,9.7-7,11.8c4.8,1.6,8.8,6.2,8.8,13.9
			c0,10.8-5.1,19.1-22.3,19.1h-31.5V86.7z M246.4,98h-7.9v13.4h7.9c5.7,0,6.7-3.8,6.7-6.7C253.1,101.9,252.1,98,246.4,98z
			 M238.5,137.8h8.6c5.8,0,7.9-3.2,7.9-7.8c0-4.7-2.2-7.7-7.9-7.7h-8.6V137.8z"/>
		<path class="st0" d="M329.9,125.1h-29.8v7.1h32.1v16.9h-50.4V86.7h50.4v16.9h-32.1v7.3h29.8V125.1z"/>
	</g>
</g>
</svg>
