<?xml version="1.0" encoding="UTF-8"?>
<svg id="Layer_1" data-name="Layer 1" xmlns="http://www.w3.org/2000/svg" xmlns:xlink="http://www.w3.org/1999/xlink" viewBox="0 0 231.6 38">
  <defs>
    <style>
      .cls-1 {
        clip-path: url(#clippath);
      }

      .cls-2 {
        fill: none;
      }

      .cls-2, .cls-3 {
        stroke-width: 0px;
      }

      .cls-3 {
        fill: #001eff;
      }
    </style>
    <clipPath id="clippath">
      <rect class="cls-2" x=".1" y=".16" width="230.4" height="37.64"/>
    </clipPath>
  </defs>
  <g class="cls-1">
    <path class="cls-3" d="m26.31,13.14c1.15-.37,2.3-.37,3.45,0l.59,3.85c-.31-.07-.64-.18-1.07-.18-.88,0-1.42.46-1.42,1.19s.6,1.18,1.5,1.18c.52,0,.93-.07,1.3-.15l.06.38c-.77-.09-1.8,0-2.23-.04-.43-.05-.67-.17-.92-.23l.21-.17c-.21-.21-.34-.28-.51-.9.31-.05.38-.23.53-.47-.27-.16-.25-.16-.33-.2-.13-.07-.1-.1-.2-.19.2-.2.25-.52.28-.83-.12-.1-.22-.2-.48-.23.05-.1-.03.05.29-.53-.32-.06-.58-.15-.88-.04.03-.06.02-.05.22-.29-.23-.16-.35-.28-.67-.29l.29-1.88Zm3.74,4.87c-.28.1-.45.1-.64.1-.17,0-.33-.06-.33-.12,0-.12.66-.09.97.02m3.83,5.26c-.07-.15-.24-.35-.39-.33.37.44.2,1.11-.1,1.31,0-.17-.02-.37-.09-.52.06.34-.17.92-.68.92-1.07,0-.91,0-.85-.04.17-.15.17-.33.17-.4,0-.14-.16-.3-.35-.3-.08,0-.03.03-.08-.08-.04-.09-.1-.16-.17-.2-.01-.07-.06-.14-.13-.22-.02-.18.33-.11.73.29.09.09.42.05.57.05s.15-.17.21-.48c.04-.23.01-.36-.11-.79-.13-.44-1.19-.05-1.61-.49-.14-.14-.44-.45-.63-.58-.79-.12-1.12,0-1.79.13-1.09.28-1.89.47-1.89.47,0,0,0,.36-.24.54,0-.22-.14-.33-.14-.33.04.61-.24,1.13-.55,1.3.06-.09.17-.23.07-.38-.01.1-1.01,1.02-1.2,1.1-.06.33-.33.28-.39.27.04-.05.07-.08.11-.12.24-.41-.29-.75-.57-.52-.18-.2-.42-.19-.57,0-.16-.16-.38-.15-.51.07,0-.28.09-.45.49-.41.31-.23.68-.16.88-.09.29-.18.63-.86.78-1.03,0,0,.41.16.64.12-.15-.45-.16-.65-.01-.84.47.08.95-.26,1.14-.53.68-.37.91-1.12.8-1.76.21-.01.52.19,1.09.25.57.06,2.13-.12,2.78.18.65.28,1.92.3,1.92-.69,0-.39-.36-.66-.76-.66-.14,0-1.01.08-.98.55-.2-.04-.28-.24-.28-.39-.54.13-1.05.28-1.82.28-.67,0-1.23-.31-1.23-.91s.44-.92,1.15-.92c.56,0,.97.22,1.37.22.73,0,.4-.76.21-.84.6-.31.96.46.81.68.93-.67,1.97.33,1.91.84-.24-.22-.61-.3-.8-.3-.43,0-.63.5-1.64,0,.06.25.42.37.42.37-1.04.25-.98-.43-2.2-.41-.44,0-.56.14-.56.36,0,.38.72.51,1.52.18.45.2,1.23.27,1.73-.07,0,0,.28.05.53-.18.91.08,1.29.64,1.21,1.3-.07.64-.54,1.22-1.46,1.21-.37,0-.64-.03-.95-.13.55.21.61,1.13,1.46,1.13s.93.53.97.86c-.08-.12-.37-.22-.53-.22.42.24.61.72.58,1.18m-2.47,1.45l-.03.08s-.24-.39.04-.66c.18-.17.35-.01.36.07.02.29-.28.32-.36.5m-.43-.16s-.16-.51.13-.77c.11-.1.24.03.28.18-.1.06-.2.18-.24.32-.07.07-.06.06-.17.26m-.08-1.06s.11-.06.18.02c.12.14.06.04-.07.16-.11.1-.17.23-.2.35-.02-.03-.17-.21.1-.53m-.45-.24c-.36.2-.71.43-1.05.67-.16.11-.31.46-.64.44-.33-.02-.54-.07-.88.02l.11-.21c.08-.17.02-.37-.11-.48.54.04.82-.2,1.34-.57.19-.15.28-.27.29-.34.05-.22-.22-.25-.42-1.11.38-.07.67-.11,1.18-.04.2.16.13.1.31.27.01.06.02.12.04.19.06.3.36.47.37.63.04.44-.21.34-.29.37-.07.02-.16.12-.24.16m-2.61.84s-.25.27-.22.43c-.05-.02-.37-.38-.17-.68.08-.12.26-.09.32-.04.04.04.13.16.07.28m-.66-.79c.05-.22.35-.05.57.25.07.16.02,0-.22.06-.05-.12-.16-.2-.28-.18-.02-.05-.04-.09-.07-.12m.06.88s-.02.11-.02.16c-.03-.02-.07-.05-.09-.09-.32-.5.08-.67.16-.67.04,0,.08.05.1.1-.11.09-.19.29-.15.5m-.37-.1s-.17-.33-.15-.45c.03-.14.31-.39.38-.15-.2.12-.31.33-.23.6m-2.9.6c-.26-.17-.27-.75,0-.75.23,0,.3.22.23.33-.23.23-.23.39-.22.42m-.35-.34c-.05.15-.06.31,0,.46-.36-.1-.51-.93-.15-.95.07,0,.15.06.19.13-.04.11-.05.26-.04.36m-.51-.33s-.01.15,0,.22c-.05.17-.08.33,0,.48-.15-.03-.44-.32-.33-.63.11-.32.34-.11.33-.07m-.71-3.62c.08.04.17.03.25,0-.31-.2-.45-.88-.52-1.16-.07-.28-.25-.17-.41-.47.31.04.46-.17.4-.38.14-.02.28-.1.33-.25.2,0,.34-.16.37-.36.06.12.15.33.13.37-.12.2-.28.42-.39.55,0,0,.12.21.36.21-.21.41-.13,1.19.36,1.62.05.31.2.75.66,1.07.04.03.09.04.05.12-.2.35-.47-.18-.84-.38-.18-.1-.28-.17-.44-.38.12.04.19.03.32-.03-.2,0-.51-.29-.63-.54m-1.16-1.82c.08-.35.44-.36.69-.21.06.07.05.16,0,.22-.04.03-.17.05-.27,0-.12-.1-.3-.13-.41,0m1.02-.44c-.07.08-.16.09-.27.08-.09-.17-.32-.27-.55-.2.33-.43,1.02-.08.82.12m.4-.45c0,.12-.07.28-.21.28-.05,0-.05,0-.06-.04-.04-.13-.34-.26-.45-.27.26-.16.57-.11.72.03m.46-.3c.13-.06.34,0,.43.08.09.08.07.33.28.45,0,0-.01.45.31.66.31.31.54,1.02,1.05,1.02s.74-.63,1.01-.99c.4-.17.34-.69.34-.69.18-.12.19-.34.22-.44,0,0,.2-.08.26-.1.05-.02.09.02.12.06.05.05.17.16.31.24-.08.13-.28.14-.49.09.04.3.22.95.44,1.17-.07.05-.25.05-.45-.02.39.24.32,1.21-.05,1.66.01-.32-.06-.82-.43-.98.48.65-.05,1.69-.75,1.83.11-.18.41-.8-.08-1.41.67,1.18-.88,1.32-.48,2.23-.21-.08-.35-.16-.35-.16-.31-.94.19-1.92.19-1.92,0,0-.75.82-.42,1.75-.51-.46-.43-1.22-.09-1.65-.38.12-.51.6-.5,1.05-.83-1.01-.17-1.68.13-1.95-.3.03-.62.44-.78.77-.37-.63-.21-1.16.18-1.46-.26.1-.5.09-.58.01.47-.57.47-.84.49-.98-.21.02-.33-.12-.4-.27.04-.02.05-.03.1-.05m2.07,1.17c.51,0,.19.45,0,.45-.2,0-.51-.45,0-.45m0,.66c.23,0,.52-.41.49-.64,0,0,.09.06.2.05-.36.98-1,.99-1.36,0,.1,0,.2-.05.2-.05-.03.23.26.64.49.64m-2-2.98c.12-.03.37.06.63.26.07-.08.07-.15.08-.22.02-.22-.33-.39-.33-.39.19-.14.5-.18.77.08.11-.26-.33-.58-.43-.58,0,0,.39-.3.75-.05.11.08.22.26.22.26-.05-.29.12-.59.42-.69,0,0-.07.29.11.53.14.18.23.26.23.26,0,0,.08-.4.33-.41.23-.02.35.07.35.07,0,0-.27.33-.06.77,0,0,.18-.4.7-.3-.07.13-.2.32-.24.61.23-.05.46-.02.56.07,0,.07-.07.4-.16.49-.24.26-.53.12-.57.32,0,0,0,.23-.09.38-.08.14-.49.04-.49.04-.02.06,0,.11.03.16.14.05.23.09.27.17,0,.02.01.05.01.09,0,.19-.28.35-.4.35-.28,0-.52-.11-.52-.28,0-.17.37-.07.33-.26-.02-.09-.12-.09-.12-.09-.09.2-.71.16-.7.02,0-.05.02-.75.12-1.01,0,0-.12.05-.19.09-.09.05-.62-.1-.7.04,0,0,.39.06.44.31,0,.05.12.03.14.05.01,0,.11.14.02.52-.08.33.32.14.32.32s-.38.29-.52.29c-.32,0-.62-.48-.12-.61.04-.04.05-.1.03-.16,0,0-.41.1-.49-.04-.08-.14-.07-.26-.11-.34-.04-.08-.3-.11-.42-.21-.43-.39-.24-.81-.2-.88m3.32-5.77l.16.71c.21-.04.42-.06.63-.07v-.72c.41-.02,1.04-.02,1.46,0v.72c.22.01.43.04.63.07l.16-.71c.44.06.87.17,1.28.31l-.5,1.55-.48.52c-1.22-.42-2.44-.42-3.66,0l-.48-.52-.5-1.55c.41-.14.85-.25,1.28-.31m2.02,4.42h-.99v-.74c0-.26.17-.56.5-.56s.5.3.5.56v.74Zm-3.08,2.2c-.06-.14,0-.17,0-.17,0,0,.16.1.26.07.26-.08.51,0,.51,0,0,.04-.02.06-.02.06-.16,0-.29.07-.33.14-.07.17-.1.13-.16.14-.05,0-.07.03-.07.14,0,.14-.04.21-.12.21,0,0-.02-.45-.08-.59m-2.2-.63c.48,0,.54.41.5.56-.15-.18-.48.09-.5-.56m3.2.57c0-.16.15-.53.61-.41-.14.53-.4.23-.61.41m-8.06,2.28c.43-.12.73.2.69.52.2-.12.27-.29.27-.29.22-.44-.09-.78-.2-.91-.26-.29-.2-.27-.45-1.03-.12-.37-.73-.94-.87-1.09-.14-.15-.93-.72-1.37-1.61-.44-.89-1.3-1.75-1.3-1.75,1.08-.09,1.55.57,1.55.57.54-1.46-.28-2.5-.28-2.5.75.22.86.86.86.86,0,0,.38-1.95-1.73-3.29.03-.04.07-.08.1-.12.17.04.38.1.58.2-.08-.21-.18-.38-.29-.54.41-.49.88-1.06,1-1.21,0,.13.02.57.03.68,0,.11.06.3.18.33.03-.38.31-.62.87-.48.01-.06.02-.17-.12-.35-.26-.34-.04-.85-.02-.9.02-.06.11-.11.17-.13.41-.1.67.37,1,.28.15-.04.25-.14.3-.2-.53-.47-.09-1.07.36-1.02,0,0-.01-.08-.03-.14-.1-.41.18-.72.5-.75-.08-.1-.09-.1-.17-.15-.34-.21-.66,0-.96.21-.17.12-.18.13-.68.25-1.33.31-1.61,1.46-3.04,2.06-.5.21-.96.64-.96.64-.99-.16-2.06-.03-2.65-.84,0,0-.3.13-.58.19-.73.17-1.25-.15-1.37-.53-.19-.63.12-.94.12-.94-.04.07-.14.45.09.79.38.56,1.07.46,1.73.17.05.02.2.06.34.11.41.15.85.06.98,0,.65-.34.53-1.05.53-1.05-.22.21-.41.25-.46.27-.42.15-1.43-.36-1.95-.17.04-.09.21-.33.45-.51.51-.4.82-.09,1.4-.93.38-.46,1.13-.15,1.18.23,0,0,.25-.56-.08-1.1-.44-.73-1.4-.46-1.4-.46-.14-.44-.68-.45-.74-.44-.82.03-2.14.71-2.55.93-.97-.02-1.2-.06-2.03-.43-.66-.3-.99-.73-1.11-.91-.37,1.78,1.19,2.13,1.19,2.13-.58,0-.79-.17-.79-.17-.01,0,0,.29.15.48.49.6,1.57.33,1.81.26-.06.03-.2.13-.39.46-.29.48-.43,1.45-.43,1.45.21.16.52.1.52.1-.1.29-.15.36-.2.82-.12.99.25,1.58.25,1.58.31-.22.46-.64.46-.64,0,0,2.71,4.27.35,4.25-1.39-.02-2.26-1.47-1.89-2.18.71-1.37.18-2.14-.74-3.61C4.47,3.45,4.6.93,4.6.93c-1.03.54-.84,2.64-.84,2.64-.58-.84-1.28-2.07-1.24-3.27-1.61,1.99-.26,5-.26,5C.99,4.28.9,3.19.9,3.19-.12,5.05,1.98,7.36,1.98,7.36c-1.28-.14-1.66-.62-1.66-.62-.08,2.23,2.4,2.72,2.4,2.72-1.23.21-2.32-.1-2.32-.1.92,2.49,3.14,2.68,3.14,2.68-.99.58-2.09.68-2.09.68.75,1.72,3.07,1,3.07,1-.4.23-1.03.94-1.16,1.12.32.37,1.18.66,1.88.45-.25,1.04.05,1.56.05,1.56.83.16,1.46-.25,1.46-.25,0,.72.28,1.05.28,1.05.88-.09,1.45-.84,1.45-.84.1.51.41.98.41.98,1.03-.33,1.1-1.49,1.1-1.49.31,1.47-1.13,1.88-1.13,1.88-.42-.31-.52-.79-.52-.79-.55.48-1.07.49-1.2.51-.53.81-.83,2-1.06,2.89-.54,1.88-1.19,2.56-1.88,2.56-.51,0-.96-.46-.96-1.57,0-1.42,1.01-2.49,1.01-3.81s-.71-2.21-2.11-2.21c-1.25,0-1.13.92-2.05,1.1.11.28.4.39.6.41-.19.45-.16,1.52-.42,1.83.16.04.37,0,.52-.06-.17.95.18,1.36.72,1.85-.08-1,.5-1.52.48-2.44.14.11.27.34.3.57.17-.22.33-.52.36-.87.06-.57-.53-1.56-.09-1.56s.8.74.8,1.23c0,1.06-1.06,2.53-1.06,4.13,0,1.1.7,2.41,1.94,2.41s1.98-.86,2.61-2.24c-.06.41.24,1.01.27,1.34.04.35-.44,1.1-.68,1.23-.31.17-.59.09-.59.09.21.42.17,1.12-.21,1.49-.2.2-.42.37-.53.89-.11.52.24.97.24.97-.05-.6.29-1.1.29-1.1.09.33-.07.45-.05,1.06.03.76.4,1.13.4,1.13-.02-.95.43-1.03.43-1.03-.31,1.77.8,2.12.8,2.12-.02-.68.02-.95.02-.95.06.26.58,1.2,1.03,1.13.16-.02.37-.16.49-.27-.56-.4-.31-1.04.22-1.04.16,0,.36.05.51.16-.1-.38-.05-.91.34-.91.11,0,.27.08.36.12-.04-.21-.03-.51.1-.68-.45-.39-1.12.16-1.46.33-.26.13-.76-.8-.68-1.61.36-.45.74-1.21.88-1.51.41.4.87.28.87.28-.28-1.54.26-2.44.4-2.71.14-.28-.06-.8-.21-1.17-.4-.97-.75-1.81.25-2.59,0,0-.44.63-.35,1.21.09.58.46,1.19.46,1.19,1.15.31,2.39.23,2.38.63,0,.4-.14,2.21-.21,2.58-.06.3.15.82.51.86.33.04.57.24.73.68.17.44.5.58.5.58-.11-.23,0-.48,0-.48.33.93,1.91.85,1.91.85-.29-.26-.41-.63-.41-.63.89.84,1.82.12,1.82.12-.37-.18-.46-.58-.46-.58,1.2.69,1.58-.41,1.58-.41-.32-.06-.38-.32-.38-.32.37.12.56-.07.57-.14-.07-.12-.01-.44.05-.6.04-.12.12-.19.19-.23.35-.45.11-.77.11-.78,0,0-.02-.01-.03,0-.29.09-.67-.42-.62-.69-.3-.13-.66.14-.66.14.29-.41.18-.61.15-.65-.25.09-.74-.24-.79-.47-.63,0-.47,1.09-.29,1.5.17.38-.02.83-.02.83-1.19-.61-2.21-.52-2.21-.52l.28-1.01c.56.43.96.32.98.32-.62-.26-.7-1.91-1.37-2.63-.44-.47-1.23-.68-1.62-.75-1.81-.32-1.9-1.35-1.9-1.35.1-.29,1.26-1.37,2.19-2-.12-.14-.33-.67-.33-.67-1.38.1-1.69-1.04-1.49-1.42.35,1.41,1.62,1.05,1.73.94,0,0-.05.08.11.51.17.43.82,1.23.82,1.23.6-.59.4-1.58.4-1.58.23.21,1.65,1.44,1.65,1.44-.09,0-.73.07-.73.07-.36.07-.4.24-.38.34.41-.13.72.35.53.81.12.09.25.02.44-.14.24-.2.65-.12.75-.09.03.01.29.1.29.1.16.21-.04.24-.03.65,0,0-.13.13-.15.29-.03.21.18.45.19.45.34-.57,1.08-.25.83.45,0,.03,0,.03,0,.03.13-.16.27-.21.34-.23m18.1,5.9c-.58-.1-1.3.33-1.3.33.3-1.29,1.1-1.42,1.24-1.47,0,0-.08-.27-.06-.42.02-.15.09-.32.09-.32-.58-.53-1.38-.31-1.38-.31,0,0,.65-.91,1.29-.91s.85.25.99.32c.04.02.09-.02.13-.02.03-.13.06-.25.09-.38-.37-.49-1.03-.56-1.03-.56,0,0,.56-.62,1.13-.63.04,0,.09,0,.14,0,0-.04.02-.09.02-.13-.35-.06-.68-.27-.85-.52l-.17-.11c-.24-.15-.35-.36-.38-.41-.13-.26-.14-.54-.04-.81.08-.2.21-.35.28-.42q.16-.17.25-.48c.03-.11.08-.25.14-.44.11-.34.48-.74.85-1.12.03-.03.08-.08.08-.08.03-.03.07-.06.11-.11v-7.53c-.06,0-.12,0-.19,0-.25,0-.88-.14-.88-.14,0,0,.33-.45.36-.49.1-.11.2-.22.32-.32h0c-.03-.13-.03-.34.17-.6.13-.17.05-.45,0-.57-.01,0-.02,0-.03,0-.08,0-.18.06-.29.12-.14.09-.3.18-.51.18-.06,0-.11,0-.16-.02-.17-.05-.33-.15-.45-.3l-.02-.02c-.05.04-.1.09-.13.16-.26.37-.13,1.05-.13,1.05-.16-.08-.82-.67-.77-1.36l-.11.18s-.41-.65-.34-1.09h-13.88c.07.44-.34,1.09-.34,1.09l-.11-.18c.05.69-.61,1.28-.77,1.36,0,0,.14-.68-.13-1.05-.04-.06-.08-.11-.13-.16l-.02.02c-.12.15-.27.26-.45.3-.05.02-.11.02-.17.02-.2,0-.37-.1-.51-.18-.11-.06-.2-.12-.29-.12-.01,0-.02,0-.03,0-.05.12-.12.4,0,.57.2.26.2.47.17.6h0c.12.1.22.22.32.33.03.04.36.49.36.49,0,0-.63.14-.88.14-.07,0-.13,0-.19,0v7.53s.09.08.11.11c0,0,.05.05.08.08.38.38.74.78.85,1.12.06.19.11.33.14.44q.1.31.25.48c.06.07.19.22.28.42.11.27.1.55-.04.81-.02.05-.13.25-.38.41l-.17.11c-.18.26-.5.46-.85.52,0,.04.02.09.02.13.05,0,.09,0,.14,0,.57.01,1.13.63,1.13.63,0,0-.66.08-1.03.56.03.13.06.25.09.38.05,0,.09.05.13.02.14-.08.33-.32.99-.32s1.29.91,1.29.91c0,0-.79-.23-1.38.31,0,0,.07.18.09.32.02.15-.06.42-.06.42.14.05.94.19,1.24,1.47,0,0-.71-.43-1.3-.33,1.38,2.9,3.89,5.61,8.46,6.64,4.57-1.03,7.08-3.75,8.46-6.64M20.14,7.16c.47-.67.08-1.59-.41-1.59,0,0-.39-.03-.39.3,0,.19.1.26.18.29.43.15.61.54.61.99m-1.62,1.22c-.25-.27-.45-.54-.78-.57-.45-.03-.59.76.78.57m1.66-3.72c-.19,0-.37.17-.31.45.03.12.04.18.13.24.11.08.45.15.73.6.28-.59-.18-1.3-.54-1.3m-8.93-1.28c-.13.14-.02.37.16.37.17,0,.28-.19.19-.34.23.07.24.17.53.1h0s-.63,1.02-1.31.11c.21-.14.28-.21.43-.23m1.12,1.85c1.11-.44,1.72.19,2.34.05.93-.2.49-1.21.49-1.21,0,0-.11.81-1.32.53-1.21-.27-1.5.62-1.5.62m5.43,13.75c-.11-.07-.3-.05-.43.15-.29.44-.83.59-.83.59.3.19.86.27,1.31-.19.06-.06.13-.44-.05-.55m-2.69-1.74c-.34.25-.1,1.2-.09,1.24.14.38-.08-.12.42-.55.34-.36.09-1.01-.34-.68m-3.84,12.42s.17-1.34-.66-1.73c-.31-.15-.36.7-.15.79.11.05.5.4.8.94m-2-.23-.05-.02c-.74-.23-.82.61-.09.81.31.07.53.11.71.26-.03-.41-.23-.95-.62-1.07m.67-.78c-.4-.12-.31.91-.04.98.29.08.8.64,1.04.95,0,0,.07-1.61-.99-1.94m8.12-6.56s.09.02.11-.02c.26-.53.88-.68.88-.68,0,0-.27-.23-.63-.23-.23,0-.5.09-.76.38,0,0-.14.15-.05.26.09.12.2.22.46.28m2.39,3.03c-.18-.39-.58-.77-1.05-.74-.2.01-.25.4-.23.6,0,.03.03.05.08.03.32-.11.9,0,1.2.11m.02-2.32s-.31-.38-.81-.38c-.19,0-.41.06-.64.21,0,0-.17.09-.13.25.06.2.32.52.45.39.36-.37.8-.51,1.14-.46m-2.78-2.37c.71.29,1.65-.51,1.09-.88-.13-.09-.45-.03-.54.12-.07.11-.12.46-.55.76M9.38,3.02c.2-.11,1.64-.86,2.48-.93l-.23-1.93c-.39.08-.78.2-1.16.36l.2.64c-.18.07-.36.15-.53.24l-.34-.57c-.34.17-.84.47-1.15.69l.34.57c-.16.11-.32.23-.47.36l-.46-.48c-.23.19-.45.39-.66.61.82.4,1.13.42,1.97.45m27.17,3.15c.08-.03.18-.11.18-.29,0-.34-.39-.3-.39-.3-.48,0-.88.92-.4,1.59,0-.45.18-.84.61-.99m1.79,1.65c-.33.02-.53.29-.78.57,1.37.19,1.23-.59.78-.57m-2.98-1.85c.28-.45.62-.52.73-.6.09-.07.1-.12.13-.24.06-.28-.12-.45-.31-.45-.36,0-.82.71-.54,1.3m9.9-2.34c-.67.91-1.31-.09-1.31-.09h0c.29.05.3-.04.53-.11-.1.15.01.34.19.34.19,0,.29-.23.16-.37.15.03.22.09.43.23m-7.23,15.93s0,0,0-.03c-.24-.71.49-1.02.83-.45,0,0,.22-.24.19-.45-.02-.16-.15-.29-.15-.29,0-.41-.19-.44-.03-.65,0,0,.26-.09.29-.1.1-.03.51-.11.75.09.2.16.32.24.44.14-.19-.45.11-.94.52-.81.01-.1-.02-.27-.38-.34,0,0-.63-.07-.73-.07,0,0,1.42-1.22,1.65-1.44,0,0-.2.99.4,1.58,0,0,.65-.8.82-1.23s.11-.51.11-.51c.11.11,1.38.47,1.73-.94.2.38-.11,1.52-1.49,1.42,0,0-.2.53-.33.67.92.63,2.09,1.71,2.19,2,0,0-.09,1.03-1.9,1.35-.39.07-1.18.28-1.62.75-.67.72-.75,2.37-1.37,2.63.02,0,.42.11.98-.32l.28,1.01s-1.02-.08-2.21.52c0,0-.18-.45-.02-.83.17-.4.34-1.5-.29-1.5-.05.23-.54.56-.79.47-.03.04-.14.24.15.65,0,0-.36-.27-.66-.14.04.27-.33.78-.62.69-.02,0-.03,0-.03,0,0,0-.25.32.11.78.07.04.15.11.19.23.06.17.11.48.05.6,0,.07.2.26.57.14,0,0-.06.26-.38.32,0,0,.38,1.1,1.58.41,0,0-.09.4-.46.58,0,0,.93.72,1.82-.12,0,0-.12.37-.41.63,0,0,1.58.08,1.91-.85,0,0,.1.25,0,.48,0,0,.34-.14.5-.58.17-.44.41-.64.73-.68.36-.04.56-.56.51-.86-.07-.37-.2-2.18-.21-2.58,0-.4,1.23-.32,2.38-.63,0,0,.37-.61.46-1.19.09-.58-.35-1.21-.35-1.21,1,.78.65,1.62.25,2.59-.15.36-.35.89-.21,1.17.14.28.69,1.18.4,2.71,0,0,.46.12.87-.28.15.3.53,1.05.88,1.51.08.81-.42,1.74-.68,1.61-.34-.17-1.01-.72-1.46-.33.12.17.14.47.1.68.08-.04.24-.12.36-.12.39,0,.43.53.34.91.15-.11.35-.16.51-.16.53,0,.78.63.22,1.04.13.11.33.25.5.27.45.07.98-.87,1.03-1.13,0,0,.04.26.02.95,0,0,1.1-.36.8-2.12,0,0,.45.07.43,1.03,0,0,.37-.38.4-1.13.02-.61-.14-.73-.05-1.06,0,0,.34.5.29,1.1,0,0,.35-.45.24-.97-.11-.52-.33-.69-.53-.89-.37-.37-.42-1.07-.21-1.49,0,0-.28.07-.59-.09-.24-.13-.72-.87-.68-1.23.03-.33.33-.92.27-1.34.62,1.38,1.41,2.24,2.61,2.24s1.94-1.31,1.94-2.41c0-1.6-1.06-3.07-1.06-4.13,0-.49.36-1.23.8-1.23s-.15.99-.09,1.56c.03.35.2.65.36.87.03-.23.16-.46.3-.57-.03.92.56,1.44.48,2.44.54-.5.89-.9.72-1.85.15.05.36.1.52.06-.26-.31-.23-1.38-.42-1.83.2-.02.49-.14.6-.41-.91-.19-.79-1.1-2.05-1.1-1.39,0-2.11.9-2.11,2.21s1.01,2.39,1.01,3.81c0,1.11-.45,1.57-.96,1.57-.69,0-1.35-.69-1.88-2.56-.23-.89-.54-2.08-1.06-2.89-.13-.02-.66-.03-1.2-.51,0,0-.11.48-.52.79,0,0-1.44-.41-1.13-1.88,0,0,.07,1.16,1.1,1.49,0,0,.32-.48.41-.98,0,0,.57.76,1.45.84,0,0,.28-.33.28-1.05,0,0,.63.41,1.46.25,0,0,.3-.52.05-1.56.7.21,1.56-.07,1.88-.45-.12-.18-.75-.88-1.15-1.12,0,0,2.32.73,3.07-1,0,0-1.1-.1-2.08-.68,0,0,2.22-.19,3.14-2.68,0,0-1.1.31-2.33.1,0,0,2.48-.5,2.4-2.72,0,0-.38.48-1.66.62,0,0,2.1-2.31,1.08-4.17,0,0-.08,1.08-1.35,2.1,0,0,1.35-3.01-.26-5,.04,1.2-.66,2.43-1.24,3.27,0,0,.19-2.09-.84-2.64,0,0,.13,2.52-1.97,5.86-.92,1.47-1.46,2.24-.74,3.61.37.71-.5,2.17-1.89,2.18-2.36.03.35-4.25.35-4.25,0,0,.15.42.46.64,0,0,.36-.59.25-1.58-.05-.46-.1-.53-.2-.82,0,0,.3.06.51-.1,0,0-.13-.97-.43-1.45-.2-.33-.33-.43-.39-.46.23.07,1.32.33,1.81-.26.15-.18.17-.48.15-.48,0,0-.21.17-.79.17,0,0,1.55-.35,1.19-2.13-.12.18-.45.61-1.11.91-.83.37-1.06.4-2.03.43-.41-.22-1.73-.9-2.55-.93-.06,0-.6,0-.74.44,0,0-.96-.27-1.4.46-.32.54-.08,1.1-.08,1.1.05-.38.81-.69,1.18-.23.58.84.9.53,1.4.93.24.19.41.42.44.51-.52-.18-1.53.32-1.95.17-.05-.02-.24-.06-.46-.27,0,0-.12.71.53,1.05.12.06.57.16.98,0,.14-.05.29-.08.34-.11.66.28,1.35.39,1.73-.17.23-.34.13-.72.09-.79,0,0,.31.32.12.94-.12.38-.64.7-1.37.53-.28-.07-.58-.19-.58-.19-.58.81-1.65.68-2.64.84,0,0-.46-.43-.96-.64-1.43-.6-1.71-1.75-3.04-2.06-.5-.12-.51-.13-.68-.25-.3-.21-.62-.42-.96-.21-.08.05-.09.05-.17.15.32.02.6.34.5.75-.01.06-.03.14-.03.14.46-.05.89.55.36,1.02.05.06.14.16.3.2.33.09.59-.37,1-.28.06.01.15.07.17.13.02.05.23.55-.02.9-.14.18-.14.29-.12.35.56-.14.83.1.87.48.11-.04.17-.22.18-.33,0-.11.03-.56.03-.68.12.15.59.72,1,1.21-.11.15-.21.33-.29.54.2-.1.4-.16.58-.2.04.04.07.08.1.12-2.11,1.34-1.73,3.29-1.73,3.29,0,0,.11-.64.86-.86,0,0-.82,1.04-.28,2.5,0,0,.47-.65,1.55-.57,0,0-.86.86-1.3,1.75-.44.89-1.22,1.46-1.37,1.61-.14.15-.74.72-.87,1.09-.25.75-.19.73-.45,1.03-.11.13-.42.47-.2.91,0,0,.08.17.27.29-.04-.32.26-.65.69-.52.07.02.21.06.34.23m4.17-14.94c-1.21.27-1.32-.53-1.32-.53,0,0-.44,1,.49,1.21.62.14,1.23-.49,2.34-.05,0,0-.29-.89-1.5-.62m-3.97,14.91c.44.46,1,.39,1.3.19,0,0-.54-.14-.83-.59-.13-.2-.31-.23-.43-.15-.18.11-.11.49-.05.55m2.4-1.61c.51.43.28.93.42.55.01-.04.25-.98-.09-1.24-.43-.33-.68.32-.34.68m4.98,10.8c.21-.09.17-.94-.15-.79-.82.39-.66,1.73-.66,1.73.3-.54.7-.89.81-.94m1.19.71-.57,1.05c.18-.14.4-.18.71-.26.73-.2.65-1.04-.09-.81-.39.12-.59.66-.62,1.07m-1.05.09c.24-.32.75-.87,1.04-.95.26-.08.36-1.11-.04-.98-1.06.33-1,1.94-1,1.94m-6.67-8.78c.09-.11-.05-.26-.05-.26-.26-.29-.53-.38-.76-.38-.37,0-.63.23-.63.23,0,0,.62.15.88.68.02.03.07.03.11.02.25-.07.36-.17.45-.28m-1.65,3.2c.06.02.08,0,.08-.03.02-.2-.03-.59-.23-.6-.47-.03-.87.35-1.05.74.29-.12.88-.22,1.2-.11m-.07-1.74c.13.13.39-.19.45-.39.05-.16-.13-.25-.13-.25-.23-.15-.45-.21-.64-.21-.5,0-.81.38-.81.38.33-.05.78.09,1.14.46m1.09-3.6c-.1-.15-.41-.21-.54-.12-.55.37.39,1.17,1.09.88-.43-.31-.48-.65-.55-.76M48.66,2.57c-.2-.22-.42-.42-.66-.61l-.46.48c-.15-.12-.3-.24-.47-.36l.34-.57c-.32-.21-.82-.51-1.15-.69l-.34.57c-.18-.09-.36-.17-.53-.24l.2-.64c-.37-.15-.76-.28-1.16-.36l-.23,1.93c.84.07,2.28.82,2.48.93.84-.02,1.16-.05,1.97-.45m-14.71,33.99c-3.86,1.18-7.98,1.18-11.84,0v-3.53c3.86,1.18,7.98,1.18,11.84,0v3.53Zm15.6-6.47c.44.02.74.06,1.19.14v3.53c-5.02-.94-10.05,2.73-15.07,1.78v-3.52c3.09.58,6.16-.58,9.25-1.34,0-.08,0-.26,0-.36-2.85.71-5.71,1.75-8.56,1.44v-.33c0-.38-.46-.67-1.64-.34-.88.24-1.69.71-1.69,1.4v.45c-3.28.83-6.71.83-9.98,0v-.45c0-.68-.81-1.15-1.69-1.4-1.18-.33-1.64-.03-1.64.34v.33c-2.85.31-5.71-.74-8.56-1.44,0,.1.01.29,0,.36,3.09.76,6.16,1.92,9.25,1.34v3.52c-5.02.94-10.05-2.72-15.07-1.78v-3.53c.44-.08.74-.12,1.19-.14-.1-.13-.18-.25-.23-.35-.49.03-.83.09-1.32.2v4.24c5.26-1.22,10.53,2.85,15.79,1.64v-.53c.33.02.66.11,1.01.31v1.2c4.07,1.32,8.46,1.32,12.53,0v-1.2c.35-.2.67-.29,1.01-.31v.53c5.26,1.22,10.53-2.85,15.79-1.64v-4.24c-.49-.11-.83-.17-1.32-.2-.05.09-.12.22-.23.35m-18.39,6.29c-.06-.08-.09-.21-.09-.37v-.93c.17.22.35.44.52.65h.03c.17-.28.35-.56.52-.84v.93c0,.16-.03.3-.09.4v.03c.18-.04.37-.08.55-.12v-.03c-.06-.07-.09-.21-.09-.36v-1.13c0-.16.03-.31.09-.4v-.03c-.16.04-.32.07-.48.1-.17.28-.34.57-.52.84-.17-.22-.35-.44-.52-.66-.16.02-.31.05-.47.07v.03c.06.08.09.22.09.37v1.13c0,.16-.03.3-.09.39v.03c.18-.02.36-.05.53-.08v-.03Zm-2.98-.4c0,.45.31.73.82.7.5-.02.83-.36.83-.82v-.83c0-.16.03-.3.09-.39v-.03c-.18.02-.36.03-.54.04v.03c.06.08.09.22.09.38v.84c0,.27-.15.41-.45.43-.3.01-.45-.13-.45-.4v-.83c0-.16.03-.3.09-.39v-.03c-.19,0-.38,0-.56,0v.03c.06.08.09.23.09.38v.87Zm-1.26.34c-.09,0-.19-.01-.28-.02v-.54c.08,0,.17.01.25.02.2.01.3.03.4.06,0,0,.02,0,.03,0v-.39s-.02,0-.03,0c-.1.02-.21.03-.4.02-.08,0-.17,0-.25-.02v-.48c.1,0,.19.01.28.02.22.01.37.04.48.1,0,0,.02,0,.03,0v-.38c-.42-.01-.84-.04-1.27-.08v.03c.06.09.09.23.09.39v1.13c0,.16-.03.3-.09.38v.03c.44.04.89.07,1.33.08v-.41h-.03c-.14.07-.32.09-.55.08m-2.42-1.18c-.17-.28-.35-.56-.52-.84-.17-.04-.35-.07-.52-.11v.03c.06.1.09.25.09.4v1.13c0,.16-.03.29-.09.36v.03c.18.04.35.08.53.11v-.03c-.06-.1-.09-.24-.09-.4v-.93c.17.28.35.56.52.84h.03c.17-.21.35-.42.52-.64v.93c0,.16-.03.29-.09.37v.03c.19.03.37.06.56.08v-.03c-.06-.09-.09-.24-.09-.39v-1.13c0-.16.03-.29.09-.37v-.03c-.14-.02-.28-.04-.42-.06-.17.22-.35.44-.52.66m22.97-2.26v.03c.18-.02.35-.04.53-.05v-.03c-.06-.08-.09-.22-.09-.38v-.93c.17.23.35.46.52.7,0,0,.02,0,.03,0,.17-.25.35-.5.52-.74v.93c0,.16-.03.3-.09.38v.03c.19,0,.37,0,.56.01v-.03c-.06-.09-.09-.23-.09-.39v-1.13c0-.16.03-.3.09-.38v-.03c-.15,0-.3-.01-.46-.01-.17.25-.35.5-.52.75-.17-.24-.34-.48-.52-.71-.16.01-.33.03-.49.05v.03c.06.08.09.22.09.37v1.13c0,.16-.03.3-.09.39m-1.49.34c.44-.09.7-.4.7-.86v-.88c0-.16.03-.3.09-.4v-.03c-.18.03-.35.06-.53.1v.03c.06.07.09.21.09.37v.86c0,.26-.11.41-.36.46-.35.07-.53-.05-.53-.37v-.76c0-.16.03-.31.09-.4v-.03c-.19.04-.37.09-.56.13v.03c.06.07.09.2.09.36v.77c0,.5.37.73.93.62m-2.02-1.21c.22-.06.34-.06.45-.02,0,0,.02,0,.03-.01v-.4c-.54.14-1.09.29-1.63.44v.4h.03c.11-.1.23-.16.45-.22l.15-.04v1.23c0,.16-.03.31-.09.41v.03c.19-.05.37-.1.56-.15v-.03c-.06-.07-.09-.2-.09-.36v-1.23l.15-.04Zm-2.23.57c.21-.06.47-.02.63.1h.03v-.38c-.17-.1-.45-.11-.73-.03-.54.15-.85.56-.85,1.14,0,.65.51,1.02,1.16.83.17-.05.3-.12.41-.23v-.4h-.03c-.13.16-.29.27-.46.32-.41.12-.7-.14-.7-.62,0-.36.2-.63.53-.73m-2.47,1.46l.25-.61.27.53c-.17.03-.34.06-.51.09m.69.62c.21-.04.42-.08.63-.13v-.03c-.09-.06-.17-.2-.27-.38-.24-.46-.49-.92-.73-1.38-.03,0-.07.01-.1.02-.23.54-.45,1.08-.68,1.62-.09.21-.17.37-.26.46v.03c.19-.02.38-.04.57-.07v-.03c-.05-.08-.06-.24,0-.4.26-.04.53-.08.79-.13.07.14.07.3.03.39v.03Zm-2.65-1.37c.11,0,.22,0,.32,0,.24,0,.38.11.38.32,0,.2-.12.31-.35.31-.12,0-.24,0-.35,0v-.63Zm.33.95c.49-.01.76-.28.76-.68s-.27-.6-.76-.59c-.27,0-.54,0-.81,0v.03c.06.09.09.23.09.39v1.13c0,.16-.03.3-.09.38v.03c.19,0,.37.01.56.01v-.03c-.06-.08-.09-.23-.09-.38v-.28c.11,0,.22,0,.33,0m-20.63.56v.03c.18.02.35.04.53.06v-.03c-.06-.09-.09-.23-.09-.39v-.93c.17.26.35.52.52.78,0,0,.02,0,.03,0,.17-.23.35-.47.52-.72v.93c0,.16-.03.3-.09.38v.03c.19,0,.37,0,.56,0v-.03c-.06-.08-.09-.22-.09-.38v-1.13c0-.16.03-.3.09-.39v-.03c-.15,0-.3,0-.45,0-.17.25-.35.49-.52.73-.17-.26-.35-.52-.52-.78-.16-.02-.33-.03-.49-.06v.03c.06.09.09.24.09.39v1.13c0,.16-.03.29-.09.37m-1.96-2.26v-.03c-.19-.04-.37-.09-.56-.14v.03c.06.1.09.25.09.41v.91c0,.45.24.75.67.85.57.13.96-.16.96-.67v-.74c0-.16.03-.29.09-.37,0-.01,0-.02,0-.03-.18-.03-.35-.06-.53-.1v.03c.06.1.09.24.09.4v.77c0,.31-.17.44-.52.36-.25-.06-.38-.22-.38-.49v-.84c0-.16.03-.29.09-.36m-1.56-.11c.22.06.34.12.45.21,0,0,.02,0,.03,0v-.4c-.54-.14-1.09-.29-1.63-.44v.4h.03c.11-.02.23-.02.45.04l.15.04v1.22c0,.16-.03.29-.09.36v.03c.19.05.37.1.56.15v-.03c-.06-.1-.09-.25-.09-.41v-1.23l.15.04Zm-2.06-.58c.17.05.33.16.46.32h.03v-.41c-.11-.11-.24-.18-.42-.23-.65-.19-1.16.2-1.16.86,0,.56.3.96.85,1.11.27.08.56.07.73-.03v-.37h-.03c-.17.11-.42.15-.63.09-.32-.09-.53-.38-.52-.75,0-.47.28-.71.7-.59m-1.76-.66v-.03c-.19-.04-.37-.07-.56-.1v.03c.06.09.09.24.09.4v1.13c0,.16-.03.29-.09.37v.03c.18.03.37.06.56.1v-.03c-.06-.1-.09-.24-.09-.4v-1.13c0-.16.03-.29.09-.37m-2.57,0c.13,0,.25,0,.38.01.35.02.57.28.57.65,0,.43-.27.69-.68.67-.09,0-.18,0-.27,0v-1.32Zm-.47,1.62v.03c.23,0,.47,0,.7,0,.66.02,1.1-.35,1.1-1,0-.55-.35-.92-.94-.95-.29-.01-.58-.02-.87,0v.03c.06.08.09.22.09.38v1.13c0,.16-.03.3-.09.39m69.3-7.22h-2v-14.01c0-1.91.35-3.77.88-4.68v-.15h-6.27v.15c.53.91.88,2.77.88,4.68v12.42c0,1.91-.35,3.77-.88,4.68v.15h14.33v-4.5h-.15c-1.71.85-3.97,1.27-6.8,1.27m20.09-9.6c-2.86-1.12-4.44-1.68-4.44-3.56,0-1.71,1.24-2.62,3.41-2.62,1.83,0,3.39.65,5.03,2h.15v-4.47c-1.44-.62-3.24-.94-5.03-.94-5,0-8.06,2.56-8.06,6.74s2.85,5.27,5.97,6.48c2.86,1.12,4.44,1.68,4.44,3.56,0,1.71-1.27,2.59-3.56,2.59s-4.15-.79-6.27-2.71h-.15v4.83c1.77.82,4.06,1.3,6.24,1.3,5.09,0,8.24-2.56,8.24-6.71s-2.86-5.27-5.97-6.48m18.59,9.6h-2.5v-6.39h2.5c2.35,0,3.62.15,4.8.41h.15v-4.3h-.15c-1.18.26-2.44.41-4.8.41h-2.5v-5.74h2.56c2.71,0,4.74.29,6,.94h.12v-4.18h-14.07v.15c.53.91.88,2.77.88,4.68v12.42c0,1.91-.35,3.77-.88,4.68v.15h14.84v-4.47h-.15c-1.68.85-3.97,1.24-6.8,1.24m29.92-5.71v5.21c0,1.35.12,2.3.26,2.88v.15c-1.8.59-4.56,1.06-6.59,1.06-7.68,0-12.66-4.48-12.66-11.33s4.71-11.45,11.98-11.45c2.21,0,4.44.41,5.86,1.06v4.53h-.15c-1.41-1.32-3.5-2.09-5.77-2.09-4.59,0-7.27,2.83-7.27,7.8s2.91,8.01,7.98,8.01c.68,0,1.35-.06,2-.21v-5.44c-2,0-3.12.15-4.15.35h-.15v-4.18h.15c1.06.21,2.24.35,4.38.35h4.47v.15c-.23.59-.35,1.8-.35,3.15"/>
    <path class="cls-3" d="m159.9,8.32h-1.8v6.86h1.82c1.88,0,2.87-1.18,2.87-3.37s-1.01-3.49-2.9-3.49m0,8.39h-4.22v-.07c.23-.41.39-1.24.39-2.1v-5.57c0-.86-.16-1.69-.39-2.1v-.07h4.25c3.05,0,4.96,1.9,4.96,4.9s-1.96,5.02-4.99,5.02"/>
    <path class="cls-3" d="m171.19,12.5l-1.25-3.68-1.24,3.68h2.5Zm2.93,2.36c.22.66.45,1.23.82,1.78v.07h-3.05v-.07c.32-.57.31-1.18.12-1.75l-.28-.8h-3.58l-.28.8c-.2.57-.22,1.18.1,1.75v.07h-2.7v-.07c.35-.56.58-1.12.8-1.78l2.85-8.07h2.36l2.83,8.07Z"/>
    <path class="cls-3" d="m176.85,16.64c.25-.41.39-1.24.39-2.1v-6.29h-.39c-1.06,0-1.95.16-2.58.55h-.07v-2.01h8.14v2.01h-.07c-.63-.39-1.52-.55-2.6-.55h-.39v6.29c0,.86.16,1.69.39,2.1v.07h-2.82v-.07Z"/>
    <path class="cls-3" d="m187.5,12.5l-1.25-3.68-1.24,3.68h2.5Zm2.93,2.36c.22.66.45,1.23.82,1.78v.07h-3.05v-.07c.32-.57.31-1.18.12-1.75l-.28-.8h-3.58l-.28.8c-.2.57-.22,1.18.1,1.75v.07h-2.7v-.07c.35-.56.58-1.12.8-1.78l2.85-8.07h2.36l2.83,8.07Z"/>
    <path class="cls-3" d="m199.02,10.41c.52-.28.96-.69.96-1.37,0-.54-.31-.88-.79-.88-.54,0-.88.36-.88.93,0,.47.25.83.7,1.31m-.58,4.83c.76,0,1.24-.34,1.74-.89l-2.13-2.23c-.55.29-1.04.76-1.04,1.56,0,.95.6,1.56,1.43,1.56m3.66-4.01v-.07h3.09v.07c-.54.34-1.01.82-1.43,1.34l-1.17,1.47,1.29,1.33c.67.69,1.14,1.05,1.53,1.27v.07h-2.73c-.31-.13-.48-.35-.8-.67l-.55-.58c-.8.89-1.74,1.42-3.09,1.42-2.03,0-3.33-1.17-3.33-2.85s.96-2.39,2.16-2.89c-.53-.63-.82-1.24-.82-1.96,0-1.47,1.18-2.55,2.87-2.55s2.74.9,2.74,2.35c0,1.31-.88,1.98-1.88,2.42l1.47,1.55.23-.31c.34-.44.54-.96.41-1.42"/>
    <path class="cls-3" d="m160.66,24.65l-1.25-3.68-1.24,3.68h2.5Zm2.93,2.36c.22.66.45,1.23.82,1.78v.07h-3.05v-.07c.32-.57.31-1.18.12-1.75l-.28-.8h-3.58l-.28.8c-.2.57-.22,1.18.1,1.75v.07h-2.7v-.07c.35-.56.58-1.12.8-1.78l2.85-8.07h2.36l2.83,8.07Z"/>
    <path class="cls-3" d="m167.35,21.81v4.89c0,.86.16,1.69.39,2.1v.07h-2.52v-.07c.23-.41.39-1.24.39-2.1v-5.57c0-.86-.16-1.69-.39-2.1v-.07h2.7l4.04,6.39v-4.22c0-.86-.15-1.69-.39-2.1v-.07h2.52v.07c-.23.41-.39,1.24-.39,2.1v7.75h-1.81l-4.54-7.06Z"/>
    <path class="cls-3" d="m180.78,24.65l-1.25-3.68-1.24,3.68h2.5Zm2.93,2.36c.22.66.45,1.23.82,1.78v.07h-3.05v-.07c.32-.57.31-1.18.12-1.75l-.28-.8h-3.58l-.28.8c-.2.57-.22,1.18.1,1.75v.07h-2.7v-.07c.35-.56.58-1.12.8-1.78l2.85-8.07h2.36l2.83,8.07Z"/>
    <path class="cls-3" d="m185.35,28.8c.23-.41.39-1.24.39-2.1v-5.58c0-.86-.16-1.69-.39-2.1v-.07h2.82v.07c-.23.41-.39,1.24-.39,2.1v6.29h.91c1.27,0,2.28-.17,3.05-.57h.07v2.03h-6.45v-.07Z"/>
    <path class="cls-3" d="m194.45,24.54l-2.51-4.03c-.36-.58-.71-1.08-1.25-1.49v-.07h3.47v.07c-.19.55-.03,1.11.32,1.71l1.2,2,1.18-2c.37-.6.44-1.15.26-1.71v-.07h3.11v.07c-.54.41-.89.9-1.26,1.49l-2.51,4v2.19c0,.86.16,1.69.42,2.1v.07h-2.88v-.07c.28-.41.44-1.24.44-2.1v-2.16Z"/>
    <path class="cls-3" d="m203.17,28.8c.25-.41.39-1.24.39-2.1v-6.29h-.39c-1.06,0-1.95.16-2.58.55h-.07v-2.01h8.14v2.01h-.07c-.63-.39-1.52-.55-2.6-.55h-.39v6.29c0,.86.16,1.69.39,2.1v.07h-2.82v-.07Z"/>
    <path class="cls-3" d="m210.34,21.12c0-.86-.16-1.69-.42-2.1v-.07h2.88v.07c-.26.41-.42,1.24-.42,2.1v5.58c0,.86.16,1.69.42,2.1v.07h-2.88v-.07c.26-.41.42-1.24.42-2.1v-5.58Z"/>
    <path class="cls-3" d="m214.36,23.94c0-3.09,2.06-5.15,5.15-5.15,1.04,0,2.06.2,2.86.63v2.06h-.07c-.74-.76-1.77-1.11-2.79-1.11-1.91,0-3.08,1.34-3.08,3.5s1.18,3.59,3.11,3.59c1.02,0,2.01-.42,2.76-1.18h.07v2.13c-.8.4-1.84.63-2.88.63-3.08,0-5.14-2.04-5.14-5.09"/>
    <path class="cls-3" d="m223.99,28.45v-2.17h.06c.95.86,1.77,1.23,2.82,1.23s1.61-.39,1.61-1.17c0-.85-.71-1.09-2-1.6-1.4-.54-2.68-1.11-2.68-2.9,0-1.88,1.37-3.04,3.62-3.04.82,0,1.62.15,2.26.42v2.01h-.06c-.74-.61-1.44-.9-2.26-.9-.98,0-1.53.41-1.53,1.18,0,.85.72,1.1,2,1.61,1.4.54,2.68,1.11,2.68,2.9s-1.41,3.02-3.71,3.02c-.98,0-2.01-.22-2.8-.58"/>
  </g>
</svg>