<?xml version="1.0" encoding="utf-8"?>
<!-- Generator: Adobe Illustrator 23.0.6, SVG Export Plug-In . SVG Version: 6.00 Build 0)  -->
<svg version="1.1" id="Layer_1" xmlns="http://www.w3.org/2000/svg" xmlns:xlink="http://www.w3.org/1999/xlink" x="0px" y="0px"
	 viewBox="0 0 230.05 49.75" style="enable-background:new 0 0 230.05 49.75;" xml:space="preserve">
<style type="text/css">
	.st0{fill:#222222;}
	.st1{fill:#6D6D6D;}
	.st2{fill:#0E0708;}
	.st3{fill:#999999;}
</style>
<g>
	<g>
		<g>
			<polygon class="st0" points="61.28,36.14 61.28,27.32 61.04,22.23 61.23,22.19 63.28,26.73 68.1,35.59 72.92,26.73 74.98,22.19 
				75.16,22.23 74.92,27.32 74.92,36.14 80.06,36.14 80.06,14.4 74.25,14.4 68.14,26.17 68.07,26.17 61.95,14.4 56.14,14.4 
				56.14,36.14 			"/>
			<path class="st0" d="M212.69,30.63c0,3.6,1.94,5.5,5.61,5.5h3.17v-4.45h-3.45v-9.49h3.74v-4.36h-4.15v-4.21h-4.91V30.63z"/>
			<path class="st0" d="M211.26,17.83c0,0-0.08,0-0.87,0c-3.01,0-4.44,2.03-4.89,3.43c-0.08,0-0.18,0-0.18,0v-3.43H200v18.31h5.32
				c0,0,0-10.13,0-10.42c0-1.08,0.41-1.84,0.93-2.33c0.89-0.86,2.79-1.11,5.01-1.11C211.26,20.47,211.26,17.83,211.26,17.83z"/>
			<path class="st0" d="M158.63,17.83c0,0-0.08,0-0.87,0c-3.01,0-4.44,2.03-4.89,3.43c-0.08,0-0.18,0-0.18,0v-3.43h-5.32v18.31h5.32
				c0,0,0-10.13,0-10.42c0-1.08,0.41-1.84,0.93-2.33c0.89-0.86,2.79-1.11,5.01-1.11C158.63,20.47,158.63,17.83,158.63,17.83z"/>
			<path class="st0" d="M127.48,27.25c0-5.97,3.17-9.86,8.85-9.86c6.26,0,8.78,4.53,8.78,9.64v1.58h-12.12v0.18
				c0,2.12,1.14,3.6,4.17,3.6c2.23,0,3.45-1.04,4.64-2.27l2.66,3.31c-1.69,1.94-4.46,3.13-7.91,3.13
				C130.75,36.57,127.48,33.29,127.48,27.25z M132.98,25.2v0.29h6.62v-0.32c0-2.3-1.04-3.85-3.17-3.85S132.98,22.86,132.98,25.2z"/>
			<path class="st0" d="M180.04,27.25c0-6.08,3.31-9.86,8.85-9.86c5.54,0,8.85,3.78,8.85,9.86c0,6.08-3.31,9.32-8.85,9.32
				C183.34,36.57,180.04,33.33,180.04,27.25z M192.19,28.62v-3.27c0-2.37-1.22-3.74-3.31-3.74c-2.09,0-3.31,1.37-3.31,3.74v3.27
				c0,2.37,1.22,3.74,3.31,3.74C190.97,32.36,192.19,30.99,192.19,28.62z"/>
			<path class="st0" d="M122.42,13.62h-4.78v2.19c0,1.3-0.43,2.01-1.87,2.01h-1.33v4.36h2.66v8.44c0,3.6,1.94,5.5,5.61,5.5h3.17
				v-4.45h-3.45v-9.49h3.74v-4.36h-3.74V13.62z"/>
			<path class="st0" d="M109.17,13.62h-4.78v2.19c0,1.3-0.43,2.01-1.87,2.01h-1.33v4.36h2.66v8.44c0,3.6,1.94,5.5,5.61,5.5h3.17
				v-4.45h-3.45v-9.49h3.74v-4.36h-3.74V13.62z"/>
			<path class="st0" d="M170.9,17.39c-2.45,0-4.53,1.51-5.07,3.6h-0.18v-3.17h-5.32v23.82h5.32v-8.67h0.18
				c0.54,2.05,2.63,3.6,5.07,3.6c4.78,0,7.27-2.91,7.27-9.32C178.16,20.85,175.68,17.39,170.9,17.39z M172.62,28.91
				c0,2.37-1.48,3.35-3.49,3.35c-2.01,0-3.49-1.04-3.49-2.77v-5c0-1.73,1.48-2.77,3.49-2.77c2.01,0,3.49,1.55,3.49,3.92V28.91z"/>
			<path class="st0" d="M97.83,36.14c-1.91,0-3.27-1.3-3.6-3.31h-0.22c-0.58,2.45-2.66,3.74-5.54,3.74c-3.78,0-5.86-2.23-5.86-5.5
				c0-3.99,3.09-5.9,8.09-5.9h2.99v-0.61c0-1.83-0.9-2.99-3.13-2.99c-2.12,0-3.24,1.08-4.06,2.23l-3.17-2.81
				c1.51-2.23,3.67-3.6,7.63-3.6c5.32,0,8.06,2.45,8.06,6.91v7.38h1.76v4.45H97.83z M93.7,30.42v-2.23h-2.59
				c-2.05,0-3.13,0.76-3.13,2.12v0.54c0,1.37,0.9,2.01,2.48,2.01C92.22,32.86,93.7,32.14,93.7,30.42z"/>
		</g>
	</g>
	<g>
		<path class="st1" d="M39.05,6.91L26.24,10.5L13.42,6.91L8.3,8.35v33.06l5.13,1.44l12.82-3.59l12.82,3.59l5.13-1.44V8.35
			L39.05,6.91z M33.93,31.58l-7.69-2.15l-7.69,2.15v-13.4l7.69,2.15l7.69-2.15V31.58z"/>
		<g>
			<polygon class="st2" points="26.24,13.37 26.24,20.33 13.42,16.74 13.42,42.84 8.3,41.41 8.3,8.35 			"/>
			<polygon class="st2" points="33.93,34.45 26.24,32.29 26.24,39.25 39.05,42.84 39.05,16.74 33.93,18.18 			"/>
		</g>
		<g>
			<polygon class="st3" points="39.05,6.91 44.18,8.35 26.24,13.37 8.3,8.35 13.42,6.91 26.24,10.5 			"/>
			<polygon class="st3" points="26.24,29.42 33.93,31.58 33.93,34.45 26.24,32.29 18.55,34.45 18.55,31.58 			"/>
		</g>
	</g>
</g>
</svg>
