<svg xmlns="http://www.w3.org/2000/svg" xmlns:xlink="http://www.w3.org/1999/xlink" viewBox="0 0 154 30"><defs><style>.cls-1{fill:none;}.cls-2{clip-path:url(#clip-path);}.cls-3{fill:#fff;}.cls-4{fill:#3dd37a;}</style><clipPath id="clip-path"><rect class="cls-1" x="0.3" y="0.42" width="152.7" height="29.33"/></clipPath></defs><g class="cls-2"><path class="cls-3" d="M37.25,29.33a14.43,14.43,0,0,1-5.34-.82A5.42,5.42,0,0,1,29,25.84,11.61,11.61,0,0,1,28,20.7V11.91H24.68V7.62h1.39a2,2,0,0,0,2-2V1.73h5.61V7.62h5.58v4.29H33.69v9.33a3.37,3.37,0,0,0,.89,2.51,3.43,3.43,0,0,0,2.51.87h2.18v4.71Z"/><path class="cls-3" d="M147.16,29V17.87a5.92,5.92,0,0,0-1.13-4,3.53,3.53,0,0,0-3-1.4,3.64,3.64,0,0,0-3.12,1.5c-.76.93-1.12,2.36-1.12,4.5V29h-5.85V17.87c0-3.55-1.43-5.43-4.13-5.43a3.46,3.46,0,0,0-3,1.46,7.06,7.06,0,0,0-1.21,4.54V29h-5.84V7.48h5.58v3.06a5.65,5.65,0,0,1,.36-.58,7.36,7.36,0,0,1,5.83-3.16A7,7,0,0,1,137,10.33l.14.24.16-.22a8.42,8.42,0,0,1,3.09-2.62,9,9,0,0,1,4.06-.93,8.26,8.26,0,0,1,6.18,2.43A10.37,10.37,0,0,1,153,16.4V29Z"/><path class="cls-4" d="M93.52,7.62h21.4V29H93.52Zm10.7,4.55a6.15,6.15,0,1,0,6.15,6.15,6.15,6.15,0,0,0-6.15-6.15"/><path class="cls-3" d="M12,29.75A11.59,11.59,0,0,1,.3,18.28,11.59,11.59,0,0,1,12,6.8,11.59,11.59,0,0,1,23.64,18.28,11.59,11.59,0,0,1,12,29.75M12,12.34a5.88,5.88,0,1,0,6,5.88,5.94,5.94,0,0,0-6-5.88"/><path class="cls-3" d="M52.82,29.75A11.58,11.58,0,0,1,41.15,18.28a11.67,11.67,0,0,1,23.33,0A11.58,11.58,0,0,1,52.82,29.75m.06-17.41a5.88,5.88,0,1,0,6,5.88,5.94,5.94,0,0,0-6-5.88"/><path class="cls-3" d="M77.88,29.73A11.18,11.18,0,0,1,66.63,18.38c0-6.39,5-11.59,11-11.59a9,9,0,0,1,6.8,3.36l-.31-1V.42h5.65V29.05H85.43l-.82-2.58c-1.3,2-4.4,3.26-6.73,3.26m.47-17.29a5.88,5.88,0,1,0,6,5.88,5.94,5.94,0,0,0-6-5.88"/></g></svg>