<svg enable-background="new 0 0 145 27" viewBox="0 0 145 27" xmlns="http://www.w3.org/2000/svg"><path d="m24.3 19.6v-13h4.5v12.7c0 3.7 1.3 5.2 3.7 5.2s4.9-2.4 4.9-6.8v-11.1h4.5v19.9h-4.3l-.1-4c-1.2 2.8-3.6 4.4-6.6 4.4-4.3 0-6.6-2.4-6.6-7.3zm-4-3.1c0 6.1-4.5 10.3-10.2 10.3-5.6.1-10.1-4.2-10.1-10.3s4.5-10.3 10.2-10.3c5.6 0 10.1 4.2 10.1 10.3zm-4.7 0c0-5.6-1.9-8.6-5.4-8.6s-5.4 3-5.4 8.6c0 5.5 1.9 8.6 5.4 8.6 3.4 0 5.4-3 5.4-8.6zm54.3.4c0-6.8 4.4-10.7 9.6-10.7 5.6 0 8.9 3.8 8.9 10.1h-13.8c0 5.8 2.9 8.4 6.2 8.4 2.5 0 4.5-1 6.3-3.6l1.1.6c-1.7 3.5-4.6 5.1-8.5 5.1-5.3.1-9.8-3.3-9.8-9.9zm13.9-2.6c-.2-4.2-1.5-6.4-4.2-6.4-2.6 0-4.5 2.3-4.8 6.8zm37.1 12.6c4.7 0 8.2-2.8 8.2-6.6 0-7.8-12.4-4.7-12.4-9.2 0-1.4 1.5-2.9 4.1-2.9 2.8 0 5.2 1 6.6 3.1l1.1-.8c-1.6-2.8-4.3-4.2-7.7-4.2-4.4 0-7.6 2.6-7.6 6.3 0 7.6 12.3 4.4 12.3 9.2 0 1.8-2 3.3-4.5 3.3-2.7 0-5.4-.8-7.5-3.6l-1.2.8c1.5 2.8 4.6 4.6 8.6 4.6zm-29.4-5.2c0-4.3 3.9-5.6 8.9-6.3l4-.6v-1.2c0-3.6-1.5-5.3-4.8-5.3-2.6 0-4.7 1.2-6.1 3.3l-1.2-.9c1.5-2.7 4.2-4.6 8.5-4.6 4.9 0 8.1 2.5 8.1 6.9v13.4h-4l-.3-4.1c-1.5 3-3.6 4.5-7 4.5-3.7.1-6.1-2-6.1-5.1zm9.7-4.9c-3.4.7-5.3 2.2-5.3 4.4 0 2.1 1.2 3.2 3.1 3.2 2.8 0 5.4-2.3 5.4-6.3v-1.9zm-42.9 4.8c-.9 2.2-2.2 3-4 3-1.7 0-2.5-1-2.5-3.2v-12.5l7.5-1.3v-1h-7.5v-6.5l-4.5 3v17.9c0 3.8 2.3 5.9 6 5.9 2.9 0 5.4-1.6 6.2-4.9zm85.6 0c-.9 2.2-2.2 3-4 3-1.7 0-2.5-1-2.5-3.2v-12.5l7.5-1.3v-1h-7.5v-6.5l-4.5 3v17.9c0 3.8 2.3 5.9 6 5.9 2.9 0 5.4-1.6 6.2-4.9z" fill="#202020"/></svg>