<svg width="455" height="156" viewBox="0 0 455 156" fill="none" xmlns="http://www.w3.org/2000/svg">
<path d="M409 132.755C409 145.242 418.99 155.232 431.477 155.232C443.965 155.232 454.232 145.242 454.232 132.755C454.232 120.267 443.965 110 431.477 110C418.99 110 409 120.267 409 132.755Z" fill="#4561EC"/>
<path d="M0.000221372 152.907L0.00012207 0.814453H54.8183C66.0484 0.814453 75.4703 2.76545 83.0839 6.66743C90.7452 10.5694 96.5268 16.0417 100.429 23.0843C104.378 30.0794 106.353 38.2402 106.353 47.5669C106.353 56.9412 104.355 65.0783 100.357 71.9782C96.4078 78.8304 90.5786 84.1362 82.8698 87.8954C75.161 91.6071 65.6915 93.4629 54.4614 93.4629H15.4177V71.4785H50.8925C57.4593 71.4785 62.8364 70.5744 67.0239 68.7662C71.2114 66.9103 74.3045 64.2218 76.303 60.7005C78.3492 57.1316 79.3723 52.7537 79.3723 47.5669C79.3723 42.3802 78.3492 37.9547 76.303 34.2907C74.2569 30.579 71.14 27.7715 66.9525 25.8681C62.765 23.9171 57.3641 22.9416 50.7498 22.9416H26.4813L26.4814 152.907H0.000221372ZM68.1197 80.7576L106.308 152.907H76.758L39.2117 80.7576H68.1197Z" fill="black"/>
<path fill-rule="evenodd" clip-rule="evenodd" d="M212.26 105.549C212.415 103.243 212.489 100.892 212.489 98.5028C212.489 67.2987 196.263 41.6904 160.489 42.0028C129.863 42.2711 108.489 67.2987 108.489 98.5028C108.489 129.707 130.02 155.209 161.241 155.209C189.001 155.209 204.951 141.565 211.394 121.513L189.67 117.184C186.105 125.326 177.366 133.533 161.241 133.533C146.789 133.533 132.738 121.305 132.738 105.553H190.248V105.549H212.26ZM187.354 86.426C186.66 73.7859 176.87 63.4004 160.241 63.4004C143.613 63.4004 133.944 73.634 133.129 86.426H187.354Z" fill="black"/>
<path d="M393.409 64.2877V44.2929H373.298V11H350.455V25.07C350.455 31.2263 349.407 36.0728 346.088 39.3043C342.412 42.9963 337.541 44.2929 332.328 44.2929H328.37V64.2877H347.448V123.71C347.4 130.566 348.876 136.279 351.875 140.849C354.922 145.419 359.04 148.799 364.229 150.989C369.419 153.131 375.25 154.107 381.725 153.917C385.682 153.814 389.693 153.514 393.428 152.126V130.708C392.716 130.894 390.775 131.549 389.437 131.78C388.104 132.018 386.628 132.137 385.01 132.137C382.867 132.137 380.916 131.803 379.154 131.137C377.393 130.47 375.964 129.233 374.869 127.424C373.822 125.567 373.298 122.901 373.298 119.426V64.2877H393.409Z" fill="black"/>
<path d="M251.518 152.911V88.642C251.518 83.3576 252.494 78.8588 254.446 75.1455C256.445 71.4322 259.183 68.5995 262.658 66.6477C266.181 64.6482 270.204 63.6484 274.727 63.6484C281.391 63.6484 286.604 65.7193 290.365 69.8611C294.174 74.0029 296.078 79.7395 296.078 87.071V152.911H321.929V83.072C321.976 74.3123 320.429 66.8619 317.287 60.7206C314.193 54.5793 309.813 49.89 304.148 46.6528C298.53 43.4155 291.936 41.7969 284.367 41.7969C266.281 41.7969 252.305 55.5738 247.139 72.4979H243.381L250.367 44.2251H225.668V152.911H251.518Z" fill="black"/>
<path d="M423 12.5213V11H430.168V12.5213H427.496V19.7273H425.672V12.5213H423Z" fill="black"/>
<path d="M431.348 11H433.624L436.027 16.8636H436.129L438.533 11H440.808V19.7273H439.018V14.0469H438.946L436.688 19.6847H435.469L433.21 14.0256H433.138V19.7273H431.348V11Z" fill="black"/>
</svg>
