<?xml version="1.0" encoding="UTF-8"?><svg xmlns="http://www.w3.org/2000/svg" class="header" enable-background="new 0 0 128 41" fill="none" height="40px" preserveAspectRatio="xMidYMid meet" viewBox="0 0 128 41" width="124px"><g clip-path="url(#clip0_5815_19752)"><path d="M25.5295 36.5086H6.60464C2.96362 36.5086 0 33.545 0 29.8898V10.965C0 7.32397 2.96362 4.36035 6.60464 4.36035H25.5295C29.1846 4.36035 32.1341 7.32397 32.1341 10.965V29.8898C32.1482 33.545 29.1846 36.5086 25.5295 36.5086Z" fill="#0E214B"/><path clip-rule="evenodd" d="M99.7436 14.3388C101.818 14.621 103.215 16.1593 102.933 19.1935C102.242 26.6448 95.778 34.2656 86.2098 34.0539L85.9134 34.0398L85.9416 33.9833C95.3123 34.0116 101.183 26.1368 101.818 19.1511C102.072 16.4133 100.816 15.0162 98.9816 14.7621C96.272 14.3811 92.9979 16.0323 91.0221 18.8265L90.9516 18.9253L90.9233 18.883C93.012 15.7218 96.6953 13.9154 99.7436 14.3388ZM118.979 14.24C125.33 14.6069 127.164 19.2499 127.122 21.7902C127.009 28.6065 121.703 33.3906 112.628 34.0257L112.346 34.0398L112.36 33.9975C120.814 33.3483 126.021 27.8867 126.134 21.1269C126.176 18.8124 124.596 14.8468 119.106 14.3105L118.937 14.2964L118.979 14.24ZM85.4195 6.84504C86.365 8.08694 85.1937 10.6131 84.5304 12.3066L84.5022 12.3771L79.2664 25.9816C78.9136 26.8848 78.5044 27.9009 78.4056 29.0016C78.1798 31.556 80.4237 33.7575 84.855 33.9833L84.9961 33.9975L84.982 34.0398C79.8309 33.8846 77.3612 31.3443 77.6012 28.5359C77.6999 27.4351 78.0386 26.5461 78.3632 25.6993L78.4056 25.5864L83.6131 12.0808C83.6695 11.9114 83.726 11.7562 83.7965 11.5868L83.853 11.4175C83.8812 11.3328 83.9094 11.2622 83.9518 11.1776L84.0082 11.0223C84.5727 9.52641 85.0384 8.14339 84.2622 7.21197L84.2199 7.16963V7.09907L85.4195 6.84504ZM118.048 14.1835L118.033 14.2259C110.13 14.8609 104.373 20.3789 104.246 27.0965C104.203 29.4109 105.826 33.4612 111.288 33.9269L111.457 33.941L111.443 33.9833C105.078 33.6164 103.244 28.9311 103.286 26.3908C103.399 19.5463 109.199 14.7339 118.048 14.1835ZM98.1913 15.2561C99.8706 15.496 100.943 16.7238 100.717 19.137C100.111 25.6288 94.3244 33.7011 86.2239 33.9128H85.984L85.9981 33.8704C93.393 33.4188 99.0945 25.1348 99.659 19.1088C99.8565 16.9919 98.8828 15.8911 97.4433 15.6936C95.3547 15.4113 92.7862 16.7661 91.1491 18.9818L91.0786 19.0664L91.0504 19.0241C92.8285 16.4133 95.778 14.9174 98.1913 15.2561ZM118.922 14.3529C123.805 14.748 125.301 18.262 125.273 20.4071C125.16 26.9835 120.15 33.2213 112.657 33.8987L112.431 33.9128L112.445 33.8704C119.205 33.1789 124.229 26.2638 124.342 19.7297C124.37 17.8104 122.973 14.875 119.021 14.4093L118.908 14.3952L118.922 14.3529ZM87.8892 6.33699C88.6936 7.42365 87.24 10.6413 86.7037 12.0102L86.6755 12.0667L81.0023 26.7295C80.6495 27.5904 80.1414 28.8887 80.0426 29.9895C79.8592 32.0782 81.6514 33.6588 84.9396 33.8704H85.0384L85.0243 33.9128C81.0446 33.7575 79.0265 31.8524 79.2241 29.5097C79.3229 28.4089 79.7463 27.3222 80.0991 26.4473L80.1414 26.3344L85.6312 12.0949C86.2239 10.6272 87.4234 8.00227 86.6331 6.73214L86.5908 6.67569V6.60513L87.8892 6.33699ZM117.991 14.3105L117.977 14.3529C111.415 15.0444 106.221 22.0865 106.108 28.4936C106.08 30.4129 107.251 33.3906 111.386 33.8281L111.513 33.8422L111.499 33.8846C106.616 33.56 105.106 29.9331 105.149 27.788C105.248 21.1974 110.638 14.8609 117.991 14.3105ZM90.4294 5.81483C90.8387 7.01439 89.1593 10.8812 88.8206 11.7703L88.8065 11.7985L82.7522 27.4493C82.3994 28.3525 81.8349 29.8343 81.7361 30.935C81.6373 32.0923 82.2159 32.9108 83.3873 33.3342C84.1494 33.6164 84.8267 33.7152 85.0808 33.7434H85.109L85.0949 33.7858C82.2442 33.5882 80.72 32.304 80.8894 30.427C80.974 29.3968 81.4962 28.0561 81.8631 27.1529L81.9055 27.0541L87.8186 11.7562C88.2137 10.7401 89.8085 7.16963 89.2298 6.16764L89.2016 6.12531V6.05474L90.4294 5.81483ZM118.866 14.4799C122.281 14.8609 123.41 17.2883 123.382 19.0241C123.269 25.3606 118.556 33.0096 112.657 33.7717L112.473 33.7858L112.501 33.7434C117.652 33.0519 122.338 24.6268 122.451 18.3467C122.479 16.8226 121.547 14.9597 118.937 14.5222L118.838 14.5081L118.866 14.4799ZM96.6953 16.1875C97.909 16.3569 98.7275 17.3024 98.5582 19.0947C98.0643 24.4856 93.0543 32.7838 86.2662 33.7434L86.0545 33.7717L86.0686 33.7293C92.3064 32.4169 96.9917 23.9635 97.4574 19.0241C97.5985 17.5705 96.9494 16.7661 95.905 16.625C94.4515 16.4274 92.6027 17.4294 91.262 19.137L91.1915 19.2217L91.1633 19.1793C92.5604 17.1754 94.8466 15.9335 96.6953 16.1875ZM40.6688 8.82079C40.6829 8.8349 40.697 8.8349 40.7111 8.84901L40.7535 8.87724C41.4168 9.37118 42.1647 10.0909 42.8703 13.3227L42.8986 13.4356L47.2734 33.7293H46.2856C46.2856 33.7293 41.953 13.619 41.9389 13.5908C41.318 10.7542 40.5277 9.52641 38.9612 8.87724L38.8906 8.84901V8.80668L40.6688 8.82079ZM43.957 8.82079C43.9711 8.93369 43.9852 9.03248 43.9993 9.14538L44.0135 9.23005C44.1264 10.0627 44.2816 10.8953 44.7896 13.0828L44.8179 13.1957L49.2492 33.7434H48.2613L43.8441 13.2662C43.2655 10.8953 43.0538 9.79455 42.3482 8.90546L42.3058 8.86313V8.82079H43.957ZM117.935 14.4234L117.906 14.4658C112.939 15.1573 108.056 23.7377 107.943 29.8625C107.915 31.3866 108.846 33.3201 111.457 33.687L111.542 33.7011L111.513 33.7434C108.141 33.4612 106.969 30.8927 106.997 29.1428C107.139 22.905 112.106 15.0444 117.935 14.4234ZM62.6984 17.2318C63.2488 17.2318 63.5734 17.5423 63.6016 18.135C63.6298 18.6572 63.277 19.7297 62.8536 20.8305L62.7831 21.014L62.6984 21.2257C62.3738 22.0442 62.0351 22.8486 61.7952 23.4413L61.7528 23.526L57.6743 33.7293H56.6582L60.7791 23.4554C61.3295 22.1147 62.6984 19.01 62.656 18.1774C62.6419 17.7822 62.4302 17.627 62.1198 17.627C61.3859 17.627 60.1017 19.4616 59.269 21.3244L59.2267 21.4091H59.1703C60.017 19.2781 61.4141 17.2318 62.6984 17.2318ZM63.785 16.4839C64.8011 16.4839 65.3798 17.1189 65.4362 18.0221C65.5068 19.3769 64.3919 21.9454 63.7286 23.5683L63.6862 23.653L59.7206 33.7293H58.7045L62.7548 23.5683C63.3334 22.0301 64.5612 19.2781 64.5048 18.0503C64.4624 17.3024 64.0108 16.8649 63.2347 16.8649C61.4706 16.8649 60.0029 19.0806 59.1279 21.3103L59.0997 21.395H59.0432C59.8618 18.8689 61.5835 16.4839 63.785 16.4839ZM65.9725 14.9456C67.9341 14.9456 69.0067 16.2016 69.0913 17.8246C69.1901 19.6733 68.5409 21.4656 67.8353 23.2579L67.7224 23.526L67.6377 23.7236L67.5531 23.9211L63.7992 33.7293H62.7831L66.6075 23.8506C67.3273 21.9172 68.2305 19.8003 68.1317 17.8669C68.0611 16.4133 67.1015 15.3408 65.3797 15.3408C61.7811 15.3408 59.7206 18.1632 58.8033 21.3103L58.7751 21.4091H58.7328C59.5795 17.9798 61.9222 14.9456 65.9725 14.9456ZM64.8858 15.6936C66.3676 15.6936 67.2003 16.6391 67.2708 17.8951C67.3555 19.6309 66.3958 21.8466 65.7043 23.6389L65.662 23.7518L61.7952 33.7152H60.7367L64.6741 23.7095C65.3656 21.9736 66.41 19.4898 66.3253 17.9657C66.2688 16.8649 65.5632 16.0746 64.3072 16.0746C61.6823 16.0746 59.8618 18.6007 58.9586 21.2962L58.9303 21.3809H58.888C59.7489 18.4596 61.6964 15.6936 64.8858 15.6936ZM76.5992 14.1976C77.8975 14.1976 78.956 15.0303 79.0406 16.8367C79.2382 20.5341 75.9077 23.5542 72.2525 24.1469L72.1396 24.1611L72.1114 24.1187C75.2444 23.4131 78.3491 20.5765 78.1657 17.2318C78.081 15.6512 77.1496 14.9033 76.0064 14.9033C73.9037 14.9033 72.0691 16.6814 70.926 19.0382C70.9118 19.1511 70.9118 19.2781 70.8977 19.4051C71.9421 17.2318 73.565 15.5666 75.3855 15.5666C76.4016 15.5666 77.1778 16.2298 77.2483 17.6129C77.4036 20.4918 74.7081 23.3002 72.1114 24.0058L72.0267 24.0199L71.9844 23.9776C74.1295 23.1873 76.5004 20.5059 76.3734 17.9939C76.3169 16.8508 75.6536 16.2581 74.7928 16.2581C73.2122 16.2581 71.8009 17.8528 70.8272 19.8709C70.7989 20.0261 70.7848 20.1672 70.7566 20.3225C71.6175 18.4455 72.8735 16.9355 74.1718 16.9355C74.948 16.9355 75.4561 17.4435 75.4984 18.389C75.6113 20.4918 73.7202 23.0462 71.9703 23.8788L71.9138 23.907L71.8715 23.8647C73.1557 23.0321 74.7081 20.52 74.6234 18.7842C74.5811 18.0786 74.2142 17.6411 73.5932 17.6411C72.5489 17.6411 71.4481 19.1229 70.6437 20.8587C70.5731 21.141 70.5026 21.4091 70.4038 21.6914C71.1518 19.9555 72.1537 18.3185 72.944 18.3185C73.4521 18.3185 73.6638 18.6713 73.692 19.1793C73.7626 20.4636 72.7465 22.8768 71.8292 23.7377L71.7868 23.78L71.7445 23.7377C72.5489 22.2982 72.9158 20.6047 72.8453 19.5886C72.817 19.3205 72.7182 19.01 72.3654 19.01C71.9421 19.01 71.1941 20.2519 70.5167 21.5926L70.4461 21.7478L70.3756 21.9031C70.3473 21.9595 70.3191 22.0018 70.305 22.0583L70.2627 22.1289C70.0792 22.6651 69.8675 23.2155 69.6558 23.7941L69.5712 24.0199L65.8878 33.7011H64.8717L68.5833 23.9353C69.3736 21.8466 70.1357 20.0402 70.0228 17.7117C69.924 15.9335 68.7244 14.5646 66.537 14.5646C62.0069 14.5646 59.636 17.7258 58.7328 21.268L58.7045 21.3809H58.6622C59.4948 17.5564 62.021 14.1835 67.1015 14.1835C69.5288 14.1835 70.8554 15.7218 70.9683 17.6834C70.9824 17.9939 70.9824 18.2903 70.9824 18.5725C72.1961 16.0605 74.2424 14.1976 76.5992 14.1976ZM92.9979 5.29267C93.3366 5.65959 90.9939 11.3893 90.7963 11.9114V11.9255L84.488 28.2113C84.1776 29.044 83.4719 30.8786 83.3732 31.8947C83.2885 32.939 84.0647 33.4471 85.0949 33.6446L85.1513 33.6588L85.1231 33.7011C83.5849 33.4612 82.4276 32.7414 82.5405 31.429C82.6252 30.3988 83.2179 28.8323 83.5707 27.9009L83.599 27.8162L89.7661 11.8409C89.9213 11.4034 90.3871 10.2885 90.8104 9.07481L90.881 8.86313C91.3044 7.64945 91.6854 6.39344 91.6854 5.67371V5.61726V5.56081L92.9979 5.29267ZM118.81 14.6069C120.785 14.9315 121.547 16.3145 121.519 17.6552C121.406 23.7518 117.003 32.8685 112.671 33.6588L112.544 33.6729L112.572 33.6305C116.086 32.9814 120.461 23.0038 120.574 16.9919C120.588 15.877 120.122 15.0444 118.88 14.6916L118.81 14.6775V14.6069ZM95.143 17.1048C95.9615 17.2177 96.4554 17.881 96.3566 18.9959C95.9615 23.3143 91.2903 32.064 86.2803 33.5882L86.1251 33.6305L86.1533 33.5741C90.5423 31.6689 94.9313 22.8063 95.2841 18.9818C95.3547 18.1491 94.9736 17.627 94.395 17.5564C93.52 17.4294 92.2923 18.1915 91.3608 19.2922L91.3044 19.3628L91.2761 19.3205C92.3769 17.8669 93.9293 16.9355 95.143 17.1048ZM117.878 14.5505L117.85 14.5928C114.449 15.2843 109.905 25.4453 109.806 31.2314C109.792 32.3604 110.201 33.2918 111.542 33.56L111.612 33.5741L111.584 33.6164C109.524 33.3906 108.846 31.8665 108.874 30.5258C108.987 24.5703 113.659 15.1714 117.878 14.5505ZM95.651 4.77051L86.2239 28.9734C85.8711 29.8766 85.0667 31.7253 84.982 32.7556C84.9538 33.1507 85.0808 33.4471 85.2078 33.5317L85.2219 33.5459L85.1937 33.6164C85.109 33.5882 85.0525 33.56 84.982 33.5317C84.5445 33.3201 84.2058 32.7838 84.2199 32.3463C84.2622 31.3443 84.982 29.552 85.3348 28.6629L85.363 28.5924L91.7842 11.982C91.8407 11.8126 92.5604 10.0345 93.2237 8.31274L93.2942 8.11517C93.8587 6.63336 94.3809 5.25033 94.3668 5.05276V5.03864L95.651 4.77051ZM46.6666 8.82079C46.4126 9.65343 46.2573 10.8671 46.8783 13.4779L46.9065 13.6049L50.5758 30.9774L49.9266 32.3463L45.8057 13.1533C45.3824 11.2905 45.2695 10.3308 45.2412 9.45585V9.34295C45.2412 9.23005 45.2412 9.11715 45.2412 9.00425V8.89135V8.8349L46.6666 8.82079ZM49.5455 8.82079V8.86313C48.6423 9.66754 48.4024 11.0929 48.9246 13.7884L48.9528 13.9013L51.9023 28.1972L51.239 29.5802L47.9085 13.6331C47.3581 10.9377 47.4992 9.87923 47.9649 8.86313L47.9791 8.82079H49.5455V8.82079ZM53.6241 8.82079V8.86313C51.0979 9.34295 50.3641 10.7542 50.985 13.9718L53.2148 25.4171L52.5515 26.8142L49.9971 14.0001C49.2068 10.2603 50.5616 9.20183 51.2532 8.84901L51.2955 8.8349L53.6241 8.82079ZM65.8313 8.82079V8.86313C62.0069 10.0203 60.2851 12.236 57.3497 17.7399L57.2651 17.9092L57.1945 17.8669C59.7771 12.3489 61.019 10.0768 63.0512 8.84901L63.1076 8.80668C63.1076 8.82079 65.8313 8.82079 65.8313 8.82079ZM61.2448 8.82079V8.86313C60.9202 9.34295 60.638 9.83689 60.3134 10.4861L60.2569 10.6131C59.5936 11.9538 58.7751 13.9295 57.1945 17.6975L57.1381 17.8387L57.0675 17.7963C58.634 13.4215 59.4384 11.2764 59.2549 8.97603V8.89135V8.8349C59.2408 8.82079 61.2448 8.82079 61.2448 8.82079ZM57.6884 8.82079C59.0574 10.2038 58.5775 12.49 57.0534 17.5846L57.011 17.7399L56.9405 17.6975C58.3941 11.9396 57.9284 9.68165 55.7974 8.89135L55.7268 8.86313V8.82079H57.6884Z" fill="#0E214B" fill-rule="evenodd"/><path d="M20.0819 17.795L20.1383 17.8373C21.4931 13.3496 21.9306 11.3738 20.731 10.1602H19.0234V10.2025C20.9286 10.8658 21.3661 12.7851 20.0819 17.795Z" fill="#8EC089"/><path clip-rule="evenodd" d="M25.4714 10.1602C23.665 11.2045 22.5924 13.152 20.3203 17.9502L20.3768 17.9926C22.9876 13.1379 24.4694 11.2045 27.8423 10.2025V10.1602H25.4714V10.1602Z" fill="#2474DE" fill-rule="evenodd"/><path d="M20.1953 17.8797L20.2518 17.922C22.3969 12.8839 22.9472 11.515 23.8363 10.2025V10.1602H22.1005V10.2166C22.284 12.2206 21.5783 14.0693 20.1953 17.8797Z" fill="#E85F24"/><path clip-rule="evenodd" d="M5.91326 10.1602H4.375V10.2025C5.78625 10.7529 6.46365 11.8113 7.02815 14.281C7.02815 14.3092 10.8103 31.6111 10.8103 31.6111H11.6712L7.86078 14.1399C7.1975 11.148 6.50598 10.5976 5.91326 10.1602Z" fill="#76C5F7" fill-rule="evenodd"/><path clip-rule="evenodd" d="M13.9728 30.3974L14.5373 29.2261L11.3479 14.2669C10.7834 11.9383 10.9104 10.8799 11.1503 10.1602H9.90844C9.89433 11.1057 9.93667 11.8819 10.3883 13.8717L13.9728 30.3974Z" fill="#2474DE" fill-rule="evenodd"/><path d="M8.77932 10.1602H7.33984V10.2025C7.98902 10.9787 8.17248 11.9242 8.68053 13.9988L12.5191 31.6252H13.38L9.54139 13.9282C8.991 11.6702 8.90633 11.0351 8.77932 10.1602Z" fill="#318EEE"/><path d="M15.113 28.0266L15.6916 26.8411L13.1232 14.535C12.6433 12.15 12.855 10.9081 13.6453 10.2025V10.1602H12.2764C11.853 11.0492 11.726 11.9383 12.2059 14.3092L15.113 28.0266Z" fill="#E85F24"/><path d="M14.0281 14.6202C13.3366 11.332 14.5785 10.4571 15.1571 10.1748H17.1893V10.2171C14.9878 10.6405 14.3527 11.8401 14.889 14.6202L16.8365 24.4707L16.2579 25.6703L14.0281 14.6202Z" fill="#8EC089"/></g><defs><clipPath id="clip0_5815_19752"><rect fill="white" height="32.1482" transform="translate(0 4.36035)" width="127.125"/></clipPath></defs></svg>