<?xml version="1.0" encoding="UTF-8"?><svg xmlns="http://www.w3.org/2000/svg" class="header" enable-background="new 0 0 976 156" height="33px" id="Layer_1" preserveAspectRatio="xMidYMid meet" style="enable-background:new 0 0 975.94 155.82;" version="1.1" viewBox="0 0 976 156" width="200px" x="0px" xml:space="preserve" y="0px"><style type="text/css">
	.st0{fill:#4F4F4F;}
	.st1{fill:#7AC231;}
</style><g><path class="st0" d="M572.15,109.03c0,0-1.99-8.83-1.74-23.7c1.26,0.05,2.63-0.01,3.19-0.93c1.65-2.68-1.53-2.9-1.53-2.9   c-0.45-0.05-0.88-0.08-1.32-0.12c-0.18-0.43-0.12-1.03-0.12-1.39c0-0.79,0.02-1.58,0.03-2.37c0.04-1.6,0.1-3.19,0.19-4.78   c0.16-2.84,0.39-5.68,0.67-8.52c0.4-2.09,0.74-4.15,1.03-6.18c0.48-3.39,1.36-6.69,1.59-10.12c0.13-2.05,0.72-4.43,0.27-6.45   c-0.31-1.38-1.9-2.21-3.04-2.84c-1.44-0.81-3.07-1.55-4.76-1.3c-2.65,0.38-3.7,3.1-5.16,4.98c-0.79,1.03-1.44,2.11-2.1,3.21   c-1,1.66-1.94,3.37-2.79,5.11c-1.54,3.14-2.96,6.39-4.27,9.76c-1.31,3.37-2.52,6.84-3.65,10.41c-1.11,3.51-2.26,7.09-3.45,10.74   c-7.03,1.07-10.04,2.77-10.31,2.93c-0.39,0.21-0.73,0.47-0.91,0.83c-0.51,0.91,0.17,1.92,1.15,2.46c0.06,0.03,0.12,0.06,0.19,0.09   c0.03,0.01,0.05,0.03,0.08,0.04c0,0,0,0,0,0c0.13,0.06,0.26,0.11,0.4,0.14c0.34,0.09,0.71,0.1,1.09,0.08   c0.67-0.03,1.19-0.18,1.19-0.18c0.01,0,0.02-0.01,0.03-0.01c0.63-0.14,1.25-0.31,1.79-0.39c0.22-0.04,0.45-0.09,0.68-0.14   c1.47-0.26,2.82-0.44,2.82-0.44c0.04,0,0.09-0.01,0.14-0.01c-0.52,1.32-0.64,1.96-0.85,2.64c-0.27,0.87-0.54,1.74-0.81,2.61   c-0.55,1.74-1.11,3.48-1.69,5.22c-1.16,3.48-2.17,6.97-3.03,10.45c-0.18,0.65-0.27,1.43-0.15,2.1c0.23,1.25,1.54,1.34,2.64,1.36   c0.33,0.01,0.68-0.01,0.99-0.14c0.75-0.3,1.12-0.89,1.49-1.57c0.49-0.9,0.94-1.82,1.38-2.74c0.38-0.8,0.75-1.61,1.12-2.42   c0.05-0.1,0.28-0.59,0.47-1.01c1.16-2.61,2.32-5.91,3.22-8.55c0.9-2.64,1.75-5.27,2.56-7.88c0.07-0.07,0.15-0.4,0.25-0.68   c3.33-0.26,7.24-0.54,10.4-0.74c0,0.22,0.51,24.72,2.55,27.08c0,0,0.94,2.22,5.19,1.8C569.25,114.57,573.03,113.95,572.15,109.03z    M561.63,80.81c-3.34-0.1-6.32-0.06-8.96,0.08c1.63-4.77,3.28-9.48,4.96-14.12c1.74-4.79,3.98-9.37,6.71-13.72l0,0.35l0.18-0.17   c0,0.06,0,0.1,0,0.13c0,0.03,0.06-0.01,0.18-0.13c-0.52,2.15-0.95,4.43-1.29,6.83c-0.34,2.41-0.63,4.83-0.85,7.26   c-0.22,2.44-0.36,4.83-0.41,7.18c-0.05,2.35-0.31,4.14-0.3,6.11l0,0.17C561.78,80.79,561.7,80.8,561.63,80.81z"/><path class="st0" d="M615.04,75.93c0.03-0.38,0.13-1.46-0.46-1.5c-0.66-0.04-1.23,1.48-1.41,1.91c-0.18,0.4-0.22,0.87-0.38,1.29   c-0.18,0.47-0.38,0.93-0.59,1.39c-0.42,0.91-0.89,1.8-1.34,2.7c-0.8,1.57-6.48,9.61-8.79,8.44c-0.01,0-2.53,0.14-0.6-12.59   c0.44-2.93,1.7-5.79,1.58-8.8c-0.04-1.1-0.16-2.33-0.98-3.12c-0.85-0.82-2.11-1.08-3.19-1.5c-0.23-0.09-0.49-0.07-0.74-0.05   c-1.04,0.12-1.67,2.11-2.02,2.9c-1.22,2.72-2.52,5.42-3.88,8.08c-1.72,3.37-3.52,6.56-5.59,9.72c-0.7,1.07-2.08,3.38-2.5,3.04   c-0.37,0.1,0.3-3.3,0.67-4.92c1.05-4.61,2.67-9.07,3.52-13.72c0.14-0.75,0.26-1.72-0.33-2.32c-0.72-0.75-2.26-1.02-3.26-1.34   c-0.72-0.23-1.45-0.54-2.2-0.16c-0.37,0.19-0.64,0.53-0.82,0.91c-0.18,0.39-0.32,0.81-0.43,1.23c-0.67,1.96-2,6-3.06,10.28   c-0.01,0.03-0.02,0.06-0.03,0.09c-0.1,0.33-0.21,0.85-0.33,1.42c-0.59,2.56-1.04,5.12-1.17,7.3c-0.03,0.41-0.04,0.82-0.03,1.22   c0,0.05,0,0.11,0,0.17l0-0.01c0.05,2,0.59,3.84,2.32,4.7c1.75,0.87,4.42,1.7,5.94,0.12c-0.03,0.03,0.64-0.56,0.67-0.59   c2.57-2.4,4.6-5.26,6.42-8.25c1.06-1.74,2.03-3.25,2.89-4.53c-0.07,0.53-0.08,0.75-0.09,2.72c-0.01,1,0.05,2,0.16,2.99   c0.22,1.97,0.68,3.99,1.71,5.71c0.97,1.61,3.28,2.98,5.19,3.03c2.04,0.06,3.85-1.35,3.89-1.38c4.02-3.16,6.05-7.8,6.67-9.31   C613.42,80.82,614.84,78.59,615.04,75.93z"/><g><path class="st0" d="M666.73,62.79c0.2,0.24,0.47,0.4,0.76,0.52c1.13,0.49,2.42,0.48,3.65,0.36c0.65-0.06,1.31-0.16,1.91-0.43    c1.36-0.62,1.57-2.51,2.29-3.7c0.36-0.59,0.78-1.22,0.69-1.9c-0.11-0.83-0.92-1.37-1.7-1.67c-0.38-0.15-0.78-0.27-1.19-0.36    c-1.93-0.43-4.08-0.18-5.41,1.4c-1,1.18-1.4,2.77-1.4,4.32C666.34,61.84,666.4,62.4,666.73,62.79z"/><path class="st0" d="M702.02,82.14c-0.57,0.21-1.1,0.79-1.6,1.38c-1.65,1.95-2.94,2.99-4.82,4.72c-0.59,0.55-1.18,1.1-1.79,1.63    c-2.52,2.26-4.95,4.14-8.12,5.37c-0.91,0.35-1.57,0.04-2.07-0.77c-0.48-0.78-0.78-2.47-0.42-4.31c0.1-0.42,0.19-0.83,0.28-1.23    c0.12-0.48,0.21-0.81,0.32-1.14c3.65-2.7,7.63-5.96,10.05-8.89c0.05-0.05,0.09-0.11,0.13-0.16c0.12-0.15,1.14-1.57,1.17-1.62    c0,0,3.46-4.51,0.48-9.43c-0.37-0.59-0.83-1.12-1.37-1.55c-0.02-0.02-0.04-0.04-0.07-0.06c0,0-0.05-0.04-0.14-0.1    c-0.83-0.6-1.84-0.99-3.02-1.05c-0.54-0.03-1.02,0.03-1.48,0.14l0-0.02l0,0v0c0,0,0,0,0,0c0,0-0.01,0-0.02,0c0,0,0,0-0.01,0    c-0.12,0.01-0.68,0.11-1.55,0.68c0,0,0,0,0,0c0,0,0,0,0,0c-0.14,0.09-0.28,0.19-0.44,0.31c0,0,0,0,0,0c0,0,0,0,0,0    c-0.09,0.07-0.17,0.13-0.26,0.21c0,0,0,0,0,0c-0.05,0.04-0.1,0.08-0.15,0.12c0,0,0,0,0,0c-0.14,0.12-0.28,0.24-0.42,0.38    c-0.14,0.13-0.28,0.27-0.43,0.42c-0.11,0.12-0.23,0.24-0.34,0.37c0,0.01-0.01,0.01-0.01,0.02c0,0,0,0,0,0.01    c-0.1,0.11-0.19,0.22-0.29,0.33c-0.01,0.02-0.03,0.03-0.04,0.05c-0.09,0.1-0.18,0.21-0.27,0.33c-0.03,0.03-0.05,0.06-0.08,0.09    c-0.08,0.1-0.17,0.21-0.25,0.32c-0.04,0.05-0.07,0.09-0.11,0.14c-0.08,0.1-0.16,0.21-0.24,0.32c-0.04,0.06-0.09,0.12-0.13,0.18    c-0.08,0.11-0.15,0.21-0.23,0.32c-0.05,0.08-0.11,0.15-0.16,0.23c-0.07,0.1-0.14,0.21-0.21,0.31c-0.07,0.11-0.15,0.23-0.22,0.34    c-0.07,0.1-0.13,0.2-0.2,0.31c-0.11,0.18-0.23,0.36-0.34,0.55c-2.07,3.21-4.75,8.2-6.07,14.03c-0.32,1.29-0.56,2.6-0.66,3.85    c-2.59,2.2-6.55,5.01-8.85,4.81c-2.94-0.26-2.37-3.32-1.99-5.07c0.39-1.77,1.07-3.44,1.55-5.19c0.93-3.4,1.86-6.8,2.79-10.2    c0.21-0.77,0.42-1.56,0.36-2.36c-0.2-2.33-5.36-4.61-7.09-2.69c-0.17,0.19-0.26,0.42-0.35,0.66c-1.57,4.1-2.77,8.34-3.67,12.64    c-0.87,4.14-1.9,8.58-1.56,12.83c0.05,0.7,0.15,1.41,0.46,2.03c1.24,2.49,4.18,3.89,7.52,2.65c1.9-0.7,5.92-3.22,9.77-5.84l0,0    c0,0,0.47-0.29,1.26-0.81c0.09,0.4,0.21,0.78,0.36,1.14c0.02,0.05,0.04,0.09,0.06,0.14c0.06,0.13,0.12,0.27,0.19,0.4    c0.09,0.18,0.2,0.35,0.31,0.52c0,0,0,0,0,0.01c0,0,0.01,0.02,0.03,0.05c0,0.01,0.01,0.01,0.01,0.02c0.01,0.01,0.02,0.02,0.02,0.04    c0.01,0.01,0.02,0.03,0.03,0.05c0.01,0.02,0.02,0.04,0.04,0.06c0.01,0.02,0.02,0.03,0.04,0.05c0.02,0.02,0.03,0.05,0.05,0.07    c0.01,0.02,0.03,0.04,0.05,0.06c0.02,0.03,0.04,0.06,0.06,0.09c0.02,0.02,0.03,0.05,0.05,0.07c0.02,0.03,0.05,0.06,0.08,0.1    c0.02,0.02,0.04,0.05,0.06,0.08c0.03,0.04,0.06,0.07,0.09,0.11c0.02,0.02,0.04,0.05,0.06,0.08c0.03,0.04,0.07,0.08,0.11,0.13    c0.02,0.02,0.04,0.05,0.06,0.07c0.04,0.05,0.08,0.09,0.13,0.14c0,0,0.01,0.01,0.01,0.01c0.12,0.13,0.24,0.26,0.38,0.39    c0.01,0.01,0.02,0.02,0.04,0.03c0.05,0.05,0.11,0.1,0.17,0.15c0.03,0.03,0.06,0.05,0.09,0.08c0.05,0.05,0.11,0.1,0.17,0.15    c0.03,0.03,0.07,0.06,0.1,0.09c0.06,0.05,0.12,0.09,0.18,0.14c0.04,0.03,0.08,0.06,0.11,0.09c0.06,0.05,0.13,0.09,0.19,0.14    c0.04,0.03,0.08,0.06,0.12,0.08c0.07,0.05,0.14,0.09,0.21,0.14c0.04,0.03,0.09,0.05,0.13,0.08c0.07,0.04,0.14,0.09,0.22,0.13    c0.05,0.03,0.09,0.05,0.14,0.08c0.08,0.04,0.15,0.08,0.23,0.12c0.04,0.02,0.09,0.04,0.14,0.07c0.09,0.04,0.17,0.08,0.26,0.12    c0.04,0.02,0.08,0.03,0.11,0.05c0.34,0.14,0.69,0.26,1.07,0.36c0.03,0.01,0.06,0.02,0.09,0.02c0.1,0.02,0.21,0.04,0.31,0.06    c0.06,0.01,0.11,0.02,0.17,0.03c0.1,0.02,0.2,0.03,0.3,0.04c0.06,0.01,0.13,0.02,0.2,0.02c0.1,0.01,0.2,0.02,0.31,0.02    c0.07,0,0.14,0.01,0.21,0.01c0.1,0,0.21,0,0.31,0c0.08,0,0.15,0,0.23,0c0.11,0,0.21-0.01,0.32-0.02c0.08-0.01,0.16-0.01,0.24-0.02    c0.11-0.01,0.22-0.02,0.33-0.04c0.08-0.01,0.17-0.03,0.25-0.04c0.11-0.02,0.23-0.04,0.34-0.06c0.08-0.02,0.17-0.04,0.26-0.06    c0.12-0.03,0.24-0.05,0.36-0.09c0.08-0.02,0.17-0.05,0.25-0.08c0.13-0.04,0.25-0.07,0.38-0.12c0.74-0.2,1.42-0.53,2.06-0.92    c0.01-0.01,0.03-0.01,0.04-0.02c0,0,0.02-0.01,0.04-0.03c0.88-0.56,1.7-1.23,2.52-1.89c0,0,0,0,0,0c0,0,0.01,0,0.01-0.01    c0.21-0.16,0.42-0.33,0.65-0.51c0.04-0.03,0.08-0.07,0.12-0.1c0.19-0.15,0.38-0.31,0.58-0.47c0.07-0.06,0.14-0.11,0.21-0.17    c0.18-0.15,0.36-0.3,0.54-0.45c0.09-0.07,0.17-0.15,0.26-0.22c0.17-0.14,0.34-0.29,0.51-0.44c0.1-0.09,0.21-0.18,0.31-0.27    c0.16-0.14,0.33-0.29,0.49-0.44c0.11-0.1,0.22-0.2,0.33-0.3c0.17-0.15,0.33-0.3,0.5-0.46c0.11-0.1,0.22-0.2,0.33-0.3    c0.18-0.17,0.35-0.34,0.53-0.51c0.1-0.09,0.19-0.18,0.29-0.28c0.27-0.26,0.54-0.53,0.8-0.8l0,0c0.93-0.92,1.81-1.8,2.62-2.65    c1.16-1.21,1.99-2.14,2.5-2.78C704.54,82.72,703.02,81.76,702.02,82.14z M666.52,98.65l0.09,0    C666.55,98.71,666.52,98.71,666.52,98.65z M692.33,69.72c0,0,2.94-0.76,0.09,5.81c0,0-2.44,5.29-7.69,7.7    C684.73,83.23,687.27,70.71,692.33,69.72z"/></g><path class="st0" d="M744.85,50.42c-6.76-3.81-11.36,2.52-11.36,2.52s-5.96,8.37-8.48,18.44c-5.21,1.06-8.51,2.48-8.51,2.48   c-0.43,0.17-0.58,0.48-0.04,0.95c0.69,0.59,2.18,1.58,2.18,1.58c0.61,0.52,1.87,0.25,1.87,0.25c0.76-0.19,1.99-0.43,3.49-0.69   c-0.31,1.33-2.65,11.27-3.3,15.66l0,0c-0.16,1-0.32,2-0.46,3c-0.65,4.58-1.25,9.52-0.45,14.11c0.06,0.35,0.13,0.7,0.24,1.03   c0.37,1.08,1.4,1.48,2.53,1.33c0.42-0.06,0.82-0.23,1.2-0.43c0.9-0.46,2.07-1.03,2.62-1.9c0.55-0.88,0.41-1.96,0.45-2.95   c0.06-1.24,0.15-2.47,0.29-3.7c0.09-2.02,0.56-4.09,0.87-6.08c0.58-3.63,1.26-7.24,2.05-10.83c0.39-1.79,0.81-3.58,1.26-5.37   c0.22-0.89,0.45-1.78,0.69-2.67c0.05-0.18,0.47-1.78,0.76-2.61c5.59-0.83,10.85-1.55,10.85-1.55c1.53,0,0.96-1.3,0.96-1.3   c-0.49-1.23-5.68-1.36-5.68-1.36c-1.82-0.11-3.57-0.11-5.26-0.03c0.41-1.43,1.03-3.19,1.51-4.52c0.73-2.02,1.47-4.06,2.33-6.03   c0.8-1.84,1.84-3.61,3.38-4.93c0.29-0.25,0.73-0.65,1.17-0.52c0.26,0.08,0.19,0.46,0.14,0.61c0,0,0,0,0,0   c-0.75,1.75,1.04,2.21,1.04,2.21c3.09,1.09,3.75-2,3.75-2C747.84,52.36,744.85,50.42,744.85,50.42z"/><path class="st0" d="M773.16,77.83c-1.96,0.84-4.55,1.98-6.6,2.59c-0.82,0.24-2.17,0.51-3.01,0.62c-0.65,0.08-1.14,0.12-1.52,0.13   c0.69-4.33,0.11-7.24,0.11-7.24c-0.41-4.53-2.72-6.18-5.06-6.65c0,0,0,0,0,0c0,0-0.01,0-0.01,0c-0.2-0.04-0.41-0.07-0.61-0.1   c-1.4-0.19-2.99-0.06-4.5,0.45c-0.11,0.03-0.17,0.05-0.17,0.05l0.01,0c-0.81,0.29-1.6,0.68-2.3,1.21   c-0.51,0.38-2.29,2.15-2.63,2.66c-0.92,1.35-1.8,2.72-2.55,4.18c-0.67,1.32-1.27,2.68-1.78,4.07c-0.11,0.31-0.23,0.61-0.33,0.92   c-0.25,0.7-0.47,1.41-0.68,2.13c-0.66,2.28-1.09,4.62-1.14,7c-0.04,1.93,0.03,4.43,0.79,6.45l0,0c0.01,0.02,0.02,0.04,0.02,0.06   c0,0,0,0.01,0,0.01c0.22,0.73,0.59,1.33,1.04,1.81c0,0,0,0,0,0c0,0,0,0,0,0c0.01,0.01,0.02,0.02,0.02,0.02   c0.14,0.16,0.28,0.29,0.44,0.41c2.09,1.72,5.29,1.65,5.29,1.65c4.73,0.05,7.83-5.13,7.83-5.13c2.92-3.73,4.57-7.43,5.48-10.68   c2.05-0.29,6.72-0.66,8.78-1.77c1.08-0.58,1.24-1.29,2.27-1.96c0.71-0.47,1.45-1.01,1.84-1.79c0,0,0.23-0.47,0.3-0.53   C774.56,78.33,773.59,77.65,773.16,77.83z M751.35,74.97c0.4-1.5,1.8-3.67,3.38-4.19c2.02-0.66,2.62,3.65,2.67,4.75   c0.04,0.42,0.22,5.83-0.93,5.91c-4.01,0.07-4.81-3.1-4.97-3.41c-0.18-0.36-0.27-0.77-0.31-1.17   C751.11,76.22,751.18,75.58,751.35,74.97z M746.63,88.93c0.34-2.23,0.84-4.44,1.44-6.62c0.14-0.53,0.29-0.97,0.42-1.33   c1.16,1.6,2.42,2.74,4.34,3.36c1.59,0.51,2.06,0.52,2.91,0.7c-0.01,0.56-0.08,0.75-0.26,1.33c-0.18,0.54-0.31,0.9-0.58,1.36   l-1.29,2.45l-2.26,3.62c-0.71,1.14-1.58,2.29-2.71,2.28c-0.65-0.01-1.39,0.06-1.97-1.69C746.13,92.74,746.38,90.61,746.63,88.93z"/><path class="st0" d="M792.72,70.07c-0.03-0.06-0.07-0.12-0.11-0.18c0-0.01-0.01-0.01-0.01-0.02c-0.06-0.08-0.12-0.15-0.19-0.22   c-0.01-0.01-0.01-0.01-0.02-0.02c-0.03-0.03-0.07-0.06-0.11-0.09c-0.04-0.03-0.08-0.07-0.12-0.1c-0.63-0.45-1.46-0.48-1.46-0.48   c-2.65-0.13-5.8,1.21-7.92,2.32c-0.13,0.07-0.26,0.13-0.37,0.19c-0.13,0.07-0.25,0.14-0.38,0.21c-0.19,0.11-0.37,0.21-0.53,0.3   c-0.17,0.1-0.35,0.2-0.52,0.31c-0.39,0.23-0.61,0.38-0.61,0.38c-0.04,0.03-0.07,0.05-0.11,0.08c-0.11,0.07-0.21,0.13-0.32,0.2   c-0.28,0.19-0.55,0.39-0.82,0.59c-0.49,0.32-0.97,0.63-1.45,0.93c0.04-0.19,0.14-0.55,0.24-1.11c0.19-1.06,0.54-2.08,0.73-3.14   c0.07-0.4,0.12-0.81,0.03-1.21c-0.15-0.65-0.71-1.27-1.21-1.64c-0.83-0.62-1.64-0.72-2.7-0.7c-1.85,0.04-3.2,0.61-3.58,2.26   c-0.75,3.29-1.39,6.6-2.19,9.87c-0.61,2.48-1.16,4.94-1.57,7.46c-0.3,1.84-0.66,4.77-0.92,6.61c-0.29,2.08-0.48,4.17,0.43,6.13   c0.17,0.36,0.51,1.02,1.37,1.09c0.24,0.02,1.52-0.01,2.09-0.05c1.29-0.09,2.22-0.79,2.78-1.99c0.63-1.35,0.57-2.85,0.74-4.29   c0.18-1.53,0.42-4.14,0.64-5.67c0.01-0.1,0.01-0.21,0.01-0.32c0.5-2.87,0.85-4.69,0.85-4.69c0.79-3.57,5.2-5.64,8.01-7.03   c1.64-0.78,4.55-1.88,4.55-1.88c4.58-1.4,4.85-2.99,4.85-2.99c0-0.01,0-0.02,0.01-0.03C792.97,70.77,792.9,70.39,792.72,70.07z"/><path class="st0" d="M833.74,81.27c-1.69,1.87-4.33,5.38-5.82,7.41c-1.43,1.95-2.9,3.88-4.41,5.78c-1.51,1.91-3.06,3.8-4.62,5.67   c-1.3,1.56-2.75,3.07-4.6,3.97c-0.19,0.09-0.41,0.18-0.62,0.11c-0.24-0.08-0.36-0.34-0.43-0.57c-0.23-0.73-0.28-1.5-0.27-2.26   c0.02-1.5,0.24-3,0.49-4.48c1.12-6.79,2.48-13.71,4.69-20.23c0.15-0.44,0.25-0.98,0.47-1.39c0.3-0.55,0.45-0.78,1.14-0.83   c2.26-0.16,4.53-0.12,6.78,0.1c0.53,0.05,1.06,0.12,1.59,0.05c0.57-0.07,1.34-0.35,1.46-0.99c0,0,0.08-0.73-0.84-1.12   c-0.32-0.14-0.66-0.25-1-0.36l0-0.01c-0.02-0.01-0.04-0.01-0.07-0.02c-1.25-0.38-2.6-0.59-3.86-0.76   c-0.14-0.02-0.28-0.02-0.42-0.04c-0.57-0.07-1.14-0.12-1.7-0.17c-0.01,0-0.02,0-0.03,0c0,0-0.01,0-0.01,0   c-0.48-0.04-0.95-0.06-1.42-0.08c-0.05-0.02-0.09-0.04-0.12-0.07c-0.16-0.14,0.01-0.65,0.05-0.85c0.22-1.38,0.52-2.75,0.87-4.09   c0.57-2.16,1.31-4.27,1.74-6.46c0.37-1.91,0.81-4.54-0.74-6.06c-0.45-0.44-1.01-0.76-1.59-1c-2.67-1.12-4.51,0.7-5.21,3.03l0,0   c0,0,0,0.01-0.01,0.03c-0.05,0.18-0.1,0.37-0.14,0.56c-0.49,1.97-2.14,8.64-3.78,15.41c-0.03,0.03-0.07,0.05-0.1,0.08   c-0.78,0.12-1.52,0.26-2.21,0.4c-1.88,0.26-3.69,0.81-5.47,1.46c-0.03,0.01-0.06,0.02-0.09,0.03c-0.16,0.06-0.33,0.12-0.43,0.25   c-0.11,0.14-0.14,0.32-0.14,0.5c0,0.04,0.01,0.07,0.02,0.11c0.01,0.1,0.02,0.19,0.04,0.27c0.01,0.05,0.03,0.1,0.04,0.15   c0.04,0.13,0.08,0.22,0.08,0.22l0.01,0c0.16,0.33,0.41,0.62,0.74,0.78c0.51,0.25,1.11,0.26,1.67,0.2c0.09-0.01,0.18-0.03,0.27-0.05   l-0.01,0.01c0,0,1.95-0.31,4.69-0.65c-1.43,6-2.67,11.38-2.84,12.77l0.01,0.01c-0.49,2.34-0.97,4.67-1.46,7.01   c-0.42,2-0.62,4.04-0.67,6.08c-0.05,1.9-0.18,4.03,0.25,5.89c0.28,1.25,0.95,2.46,2.04,3.13c3.77,2.31,8.39-2.07,10.75-4.48   c1.75-1.79,3.13-3.89,4.6-5.9c1.58-2.15,3.54-5.14,4.93-7.42c1.87-3.08,2.27-3.59,3.91-5.63c0.38-0.47,0.77-0.97,1.18-1.49   c0.41-0.53,1.23-2.27,1.29-2.39C834.4,82.9,833.9,81.53,833.74,81.27z"/><path class="st0" d="M499.51,73.4c-1.69,1.87-9.85,13.31-11.36,15.21c-1.51,1.91-3.06,3.8-4.62,5.67c-1.3,1.56-2.75,3.07-4.6,3.97   c-0.19,0.09-0.41,0.18-0.62,0.11c-0.24-0.08-0.36-0.34-0.43-0.57c-0.23-0.73-0.28-1.5-0.27-2.26c0.02-1.5,0.24-3,0.49-4.48   c1.12-6.79,2.48-13.71,4.69-20.23c0.15-0.44,0.25-0.98,0.47-1.39c0.3-0.55,0.45-0.78,1.14-0.83c2.26-0.16,4.53-0.12,6.78,0.1   c0.53,0.05,1.06,0.12,1.59,0.05c0.57-0.07,1.34-0.35,1.46-0.99c0,0,0.08-0.73-0.84-1.12c-0.32-0.14-0.66-0.25-1-0.36l0-0.01   c-0.02-0.01-0.04-0.01-0.07-0.02c-1.25-0.38-2.6-0.59-3.86-0.76c-0.14-0.02-0.28-0.02-0.42-0.04c-0.57-0.07-1.14-0.12-1.7-0.17   c-0.01,0-0.02,0-0.03,0c0,0-0.01,0-0.01,0c-0.48-0.04-0.95-0.06-1.42-0.08c-0.05-0.02-0.09-0.04-0.12-0.07   c-0.16-0.14,0.01-0.65,0.05-0.85c0.22-1.38,0.52-2.75,0.87-4.09c0.57-2.16,1.31-4.27,1.74-6.46c0.37-1.91,0.81-4.54-0.74-6.06   c-0.45-0.44-1.01-0.76-1.59-1c-2.67-1.12-4.51,0.7-5.21,3.03l0,0c0,0,0,0.01-0.01,0.03c-0.05,0.18-0.1,0.37-0.14,0.56   c-0.49,1.97-2.14,8.64-3.78,15.41c-0.03,0.03-0.07,0.05-0.1,0.08c-0.78,0.12-1.52,0.26-2.21,0.4c-1.88,0.26-3.69,0.81-5.47,1.46   c-0.03,0.01-0.06,0.02-0.09,0.03c-0.16,0.06-0.33,0.12-0.43,0.25c-0.11,0.14-0.14,0.32-0.14,0.5c0,0.04,0.01,0.07,0.02,0.11   c0.01,0.1,0.02,0.19,0.04,0.27c0.01,0.05,0.03,0.1,0.04,0.15c0.04,0.13,0.08,0.22,0.08,0.22l0.01,0c0.16,0.33,0.41,0.62,0.74,0.78   c0.51,0.25,1.11,0.26,1.67,0.2c0.09-0.01,0.18-0.03,0.27-0.05l-0.01,0.01c0,0,1.95-0.31,4.69-0.65c-1.43,6-2.67,11.38-2.84,12.77   l0.01,0.01c-0.49,2.34-0.97,4.67-1.46,7.01c-0.42,2-0.62,4.04-0.67,6.08c-0.05,1.9-0.18,4.03,0.25,5.89   c0.28,1.25,0.95,2.46,2.04,3.13c3.77,2.31,8.39-2.07,10.75-4.48c1.75-1.79,3.13-3.89,4.6-5.9c1.58-2.15,12.79-18.99,12.86-19.11   C500.6,74.87,499.68,73.66,499.51,73.4z"/><path class="st0" d="M855.05,71.97c-0.03-0.06-0.07-0.12-0.1-0.18c0-0.01-0.01-0.01-0.01-0.02c-0.06-0.08-0.12-0.15-0.19-0.22   c-0.01-0.01-0.01-0.01-0.02-0.02c-0.03-0.03-0.07-0.06-0.11-0.09c-0.04-0.03-0.08-0.07-0.12-0.1c-0.63-0.46-1.45-0.51-1.45-0.51   c-2.65-0.17-5,0.72-7.14,1.79c-0.14,0.06-0.26,0.13-0.38,0.18c-0.13,0.06-0.25,0.14-0.38,0.21c-0.19,0.1-0.37,0.2-0.54,0.29   c-0.18,0.1-0.35,0.2-0.53,0.3c-0.39,0.23-0.61,0.37-0.61,0.37c-0.04,0.03-0.07,0.05-0.11,0.08c-0.11,0.07-0.21,0.13-0.32,0.2   c-0.28,0.18-0.56,0.38-0.83,0.57c-0.49,0.32-0.98,0.62-1.47,0.9c0.05-0.19,0.15-0.55,0.26-1.1c0.21-1.05,0.58-2.07,0.79-3.12   c0.08-0.4,0.14-0.81,0.05-1.21c-0.14-0.65-0.69-1.28-1.19-1.66c-0.82-0.63-1.63-0.75-2.69-0.74c-1.85,0.01-3.21,0.55-3.62,2.2   c-0.81,3.27-1.5,6.58-2.36,9.84c-0.65,2.47-1.24,4.92-1.7,7.44c-0.33,1.84-0.76,3.65-1.05,5.5c-0.32,2.08-0.65,4.77,0.23,6.74   c0.16,0.37,0.49,1.03,1.35,1.11c0.24,0.02,1.52,0.02,2.09-0.01c1.29-0.07,2.23-0.75,2.81-1.94c0.65-1.34,0.62-2.84,0.82-4.28   c0.21-1.53,0.61-3.64,0.85-5.16c0.02-0.1,0.01-0.21,0.02-0.32c0.55-2.86,0.82-3.54,0.82-3.54c0.48-3.27,3.95-6.07,8.24-8.03   c2.37-1.09,4.97-1.92,4.97-1.92c3.55-1.31,3.69-2.4,3.69-2.4c0-0.01,0-0.02,0.01-0.03C855.28,72.68,855.23,72.3,855.05,71.97z"/><g><path class="st0" d="M880.14,86.06c-1.33,1.75-8.35,10.08-9.08,9.67c-0.31-0.17-0.38-0.62-0.38-0.64    c-0.15-0.88-0.11-0.75-0.13-1.64c-0.1-4.47,1.34-9.19,2.28-13.51c0.21-0.95,0.77-2.07,0.42-3.05c-0.23-0.64-0.67-1.35-1.28-1.71    c-0.89-0.53-1.68-0.69-2.58-0.25c-0.22,0.12-0.91,0.81-1.44,1.5c-0.69,0.9-1.02,1.48-1.09,1.59c-0.28,0.44-0.66,0.89-0.97,1.31    c-0.7,0.96-1.1,1.49-1.82,2.43c-1.43,1.89-2.89,3.76-4.36,5.61c-1.47,1.85-4.53,5.81-4.85,5.17c-0.65-0.73,0.68-5.04,1.63-7.46    c0.95-2.44,2.22-4.75,3.49-7.03c0.58-1.04,1.26-2.05,1.99-2.99c0.63-0.82,1.4-1.97,2.3-2.51c0,0,0,0,0,0    c2.27-1.35,4.11-0.35,4.11-0.35c0.45,0.18,0.84,0.37,1.13,0.6c1.98,1.61,2.74,0.15,2.74,0.15c0.71-1.08-0.04-1.74-0.04-1.74    c-4.69-3.44-8.28-2.59-8.28-2.59l0,0c-0.67,0.07-1.37,0.24-2,0.57c-1.02,0.54-1.99,1.33-2.85,2.08c-2.07,1.82-3.56,3.97-5,6.3    c-1.41,2.3-2.66,4.72-3.55,7.28c-0.69,1.97-1.27,3.98-1.53,6.06c-0.19,1.52-0.56,4.21,0.7,5.4c0.29,0.27,0.75,0.73,1.12,0.88    c2.31,0.92,4.42,0.88,7.07-0.42c0.34-0.17,0.69-0.34,1-0.56c0.31-0.23,0.59-0.51,0.86-0.79c1.15-1.19,2.25-2.42,3.3-3.7    c0.95-1.17,1.7-2.58,2.75-3.65c0.22,0.04,0.16,0.24,0.11,0.91c-0.03,0.41-0.06,0.84-0.08,1.24c-0.14,2.2-0.13,4.43,0.45,6.57    c0.11,0.4,0.23,0.81,0.49,1.13c0.25,0.33,0.55,0.67,0.9,0.88c2.99,1.84,6.38-0.29,8.36-2.68c0.47-0.56,0.82-0.92,1.31-1.64    c3.28-4.38,5.14-9.82,5.19-9.7C882.35,84.84,884.12,80.85,880.14,86.06z"/><path class="st0" d="M883.21,99.94c0.12-0.11,0.15-0.22,0.1-0.33c0,0.11-0.02,0.18-0.05,0.21    C883.23,99.84,883.21,99.88,883.21,99.94z"/><path class="st0" d="M883.97,96.27c0.12-0.11,0.18-0.22,0.19-0.33L883.97,96.27z"/></g><path class="st0" d="M912.66,79.68c-0.85,0.46-3.37,0.95-5.32,0.32c-1.61-0.52-2.69-2.3-3.32-3.87c-0.45-1.14-0.9-2.28-0.79-3.52   c0.1-1.12,0.46-2.33,0.02-3.42c-0.31-0.76-1.03-1.31-1.83-1.53c-0.01,0-0.02,0-0.03,0c-0.21-0.05-0.42-0.09-0.64-0.09   c-0.27,0-0.53,0.05-0.79,0.12c-0.65,0.14-1.09,0.44-1.39,0.78c-0.04,0.04-0.09,0.07-0.13,0.11c-0.29,0.3-0.42,0.69-0.48,1.1   c-0.02,0.1-0.03,0.17-0.03,0.17c0,0.01,0,0.02,0,0.04c0,0.05-0.01,0.09-0.01,0.14c-0.05,0.57-0.02,1.17,0.1,1.79   c0.07,0.42,0.18,0.85,0.33,1.25c0.15,0.47,0.34,0.95,0.55,1.42c-1.7,2.56-2.82,5.58-4.13,8.35c-1.49,3.18-2.78,5.92-4.26,9.11   c-0.94,2.03-1.35,3.12-2.04,4.2c-0.23,0.36-0.92,1.02-0.94,0.45c0.08-1.25,0.14-2.45,0.19-3.58c0.06-1.53,0.24-3.05,0.31-4.58   c0.07-1.51,0.1-3.04,0.14-4.53c0.03-1.06-0.04-2.14,0.06-3.19c0.19-2.13,0.18-4.36-0.09-6.48c-0.07-0.53-0.16-1.07-0.44-1.52   c-0.34-0.55-0.93-0.92-1.53-1.16c-1.64-0.65-3.65-1.05-5.03,0.37c-1.01,1.04-0.63,2.45-0.47,3.72c0.24,1.83,0.14,3.79,0.09,5.64   c-0.05,1.83,0.05,3.63,0.03,5.46c-0.04,2.74,0.25,5.26,0.12,7.99c-0.07,1.49-0.09,2.98-0.05,4.47c0.04,1.29-0.16,2.92,0.52,4.07   c0.43,0.72,1.08,1.17,1.88,1.33c1.64,0.32,3,0.5,4.95,0.04c1.99-0.47,3.36-1.85,5.32-5.4c1.33-2.41,2.44-5.09,3.47-7.63   c0.47-1.17,0.9-2.35,1.3-3.52c0.96-2.82,2.03-6.37,3.2-9.19c1.7,3.37,4.34,4.36,5.26,4.47c2.29,0.26,4.3-0.65,5.9-2.38   c0.65-0.7,1.03-0.69,1.38-1.42c0.19-0.39,0.55-1.97,0.63-2.4C915.02,75.22,913.52,79.22,912.66,79.68z"/><path class="st0" d="M937.94,84.6c0.44-0.46,0.81-0.86,1.12-1.21c0.29-0.27,1.64-1.82,1.72-1.92c2.81-3.28,4.57-5.68,6.39-9.03   c2.16-3.96,3.56-8.96,3.53-13.46c-0.02-2.26-0.31-4.51-0.87-6.7c-0.47-1.82-1.49-4.13-3.01-5.36c-0.54-0.43-1.22-0.66-1.9-0.74   c-0.95-0.11-1.94,0.07-2.78,0.54c-2.04,1.15-2.62,4.09-3.37,6.11c-0.58,1.59-0.96,3.24-1.44,4.86c-1.61,5.4-2.67,10.94-3.73,16.47   c-0.64,3.35-1.44,7.01-2.02,10.37c-0.46,0.56-0.95,0.91-1.59,1.54c-1.08,1.05-6.95,6.75-9.12,8.26c-1.6,1.11-6.16,5.34-7.72,1.95   c-0.55-1.19-0.54-2.79-0.35-4.05c0.22-1.49,0.58-4.45,1.45-6.47c1.38-0.27,2.86-0.81,4.44-1.69c0.02-0.01,0.04-0.01,0.05-0.02   c0.03-0.02,0.06-0.03,0.09-0.05c0.05-0.03,0.1-0.06,0.15-0.09c1.79-1.05,2.65-1.6,3.96-3.32c1.28-1.69,2.3-3.92,2.86-5.98   c0.61-2.24,0.54-5.34-1.07-7.17c-1-1.14-2.75-1.93-4.19-2.33c-1.16-0.33-2.4-0.1-3.46,0.53c-0.96,0.58-1.79,1.39-2.49,2.25   c-1.47,1.78-2.61,3.59-3.58,5.67c-1.09,2.33-2.04,4.67-2.81,7.05c-0.88-0.17-1.43-0.33-1.43-0.33l-3.65,0.13l-1.64-1.53   c0,0,0.51,1.24,0.82,1.66c0,0,0.95,1.47,1.51,1.95c0.91,0.91,1.77,1.56,3.27,2.31c-0.53,2.43-0.86,4.92-0.9,7.51   c-0.04,3.21,0.81,6.56,3.94,8.05c1.1,0.52,2.33,0.73,3.54,0.78c4.08,0.16,6.87-1.63,10.39-4.27c1.25-0.94,4.09-3.64,6.88-6.28   c-0.13,1.59-0.43,3.51-0.45,5.11c-0.05,2.62-0.3,5.93,1.6,8.04c1.32,1.47,4.53,2.72,7.41,1.69c3.64-1.3,8.19-7.41,11.13-11.9   c1.82-2.78,3.02-4.94,2.99-4.94c1.59-3.28-1.24-3.68-2.53-1.75c-1,1.51-2.15,3.25-3.16,4.71c-1.22,1.77-2.43,3.08-3.84,4.76   c-0.57,0.68-3.09,3.42-4.12,3.98c-2,1.44-4.85,0.17-3.88-6.1C936.48,91.66,936.94,88.89,937.94,84.6z M944.91,54.26   c0.24-0.39,0.7-1.03,1.27-0.85c0.29,0.09,0.49,0.35,0.63,0.62c0.21,0.39,0.34,0.81,0.43,1.24c0.27,1.22,0.32,2.47,0.25,3.72   c-0.19,2.98-1.07,6.03-2,8.86c-0.47,1.42-0.94,2.58-1.6,3.91c-1.08,2.18-2.63,5.1-4.32,6.73c-0.19,0.14-0.36,0.25-0.52,0.35   c1.75-8.48,4.11-19.69,4.13-19.77C943.72,57,944.38,55.14,944.91,54.26z M915.9,79.35c0.26-0.78,0.54-1.52,0.84-2.23   c0.3-0.71,0.54-1.29,0.71-1.75c0,0,1.83-4.09,3.3-4.82c0.37-0.18,1.46-0.41,1.82,0.51c1.01,2.08-0.18,4.48-0.18,4.48   s-0.5,1.27-1.55,2.71c-1.44,1.54-3.42,2.29-5.44,2.61C915.57,80.37,915.73,79.87,915.9,79.35z"/></g><path class="st0" d="M639.78,77.38c-3.79-0.51-7.66,0.3-11.28,1.39c-0.73,0.22-1.44,0.46-2.15,0.71c-0.89,0.29-1.77,0.65-2.62,1.04  c-0.09,0.04-0.18,0.07-0.27,0.11c-0.02,0.01-0.04,0.03-0.05,0.04c-0.45,0.21-0.89,0.43-1.32,0.66c-0.19-0.29-0.39-0.67-0.44-0.75  c-0.94-1.67-2-3.27-3.06-4.88c-0.8-1.21-1.37-2.41-1.73-3.83c-0.26-1.04-0.11-2.42,0.53-3.23c0.65-0.82,1.14-1.3,2.05-1.9  c1.05-0.68,2.47-1.43,3.73-1.01c0.78,0.26,1.33,0.75,1.7,1.28c0.29,0.59,0.51,1.51-0.13,2.51c0,0-0.39,0.62-0.19,1.25  c0.26,0.85,1.7,1.48,3.08,0.26c0.09-0.09,0.18-0.18,0.26-0.27c0.01-0.01,0.01-0.01,0.02-0.03c0.37-0.42,0.7-0.88,0.92-1.38  c0.3-0.7,0.66-1.41,0.71-2.19c0.25-3.65-3.74-5.09-6.79-4.95c-2.64,0.12-5.59,1.07-7.83,2.47c-1.06,0.66-2,1.5-2.87,2.4  c-0.25,0.25-0.49,0.51-0.7,0.8c-1.3,1.72-1.2,4.03-0.48,5.98c0.29,0.81,0.67,1.59,1.11,2.34c1.55,2.63,3.3,5.13,4.8,7.79  c0.13,0.24,0.21,0.39,0.23,0.52c-1.55,1.13-2.51,1.97-2.49,1.97c-0.54,0.42-1.07,0.85-1.59,1.3c-1.39,1.23-2.69,2.56-3.95,3.91  c-1.11,1.18-2.2,2.4-3.02,3.79c-1.13,1.92-1.99,4.48-1.58,6.72c0.08,0.45,0.21,0.89,0.35,1.33c0.21,0.66,0.77,1.35,1.25,1.83  c0.79,0.79,2.09,1.62,3.15,1.88c1.32,0.33,1.94,0.4,3.65,0.1c1.87-0.33,3.18-1.06,4.53-1.95c1.41-0.94,2.65-2.17,3.88-3.58  c2.32-2.66,4.24-5.97,4.25-9.6c0-1.32-0.04-2.73-0.31-4.02c-0.25-1.19-0.7-2.32-1.09-3.43c-0.11-0.32-0.26-0.53-0.31-0.76  c0.24-0.13,0.58-0.31,0.83-0.43c0.01,0,0.02,0,0.03,0c0.07-0.04,0.14-0.07,0.2-0.11c1.62-0.91,3.38-1.58,5.15-2.12  c2.48-0.76,5.04-1.39,7.57-1.97c0.44-0.12,1.52-0.35,1.97-0.33C639.32,79.05,640.07,77.42,639.78,77.38z M619.4,94.29  c-0.06,0.47-0.14,0.93-0.26,1.39c-0.64,2.35-2.02,4.66-3.74,6.38c-1.9,1.9-4.61,2.56-6.53,0.23c-0.04-0.05-0.08-0.1-0.12-0.15  c-2.15-2.82,0.33-5.91,2.2-8.11c0.05-0.06,0.11-0.11,0.16-0.17c1.51-1.74,3.01-3.14,4.64-4.58c0.32-0.28,0.65-0.53,0.98-0.79  c0.14-0.11,0.3-0.23,0.48-0.36c0.36-0.26,0.72-0.52,1.09-0.78c0.36,0.95,0.71,1.48,0.97,3.05c0.07,0.6,0.19,1.47,0.2,2.07  C619.48,92.98,619.46,93.57,619.4,94.29z"/><path class="st0" d="M663.28,77.79c-3.79-0.51-7.66,0.3-11.28,1.39c-0.73,0.22-1.44,0.46-2.15,0.71c-0.89,0.29-1.77,0.65-2.62,1.04  c-0.09,0.04-0.18,0.07-0.27,0.11c-0.02,0.01-0.04,0.03-0.05,0.04c-0.45,0.21-0.89,0.43-1.32,0.66c-0.19-0.29-0.39-0.67-0.44-0.75  c-0.94-1.67-2-3.27-3.06-4.88c-0.8-1.21-1.37-2.41-1.73-3.83c-0.26-1.04-0.11-2.42,0.53-3.23c0.65-0.82,1.14-1.3,2.05-1.9  c1.05-0.68,2.47-1.43,3.73-1.01c0.78,0.26,1.33,0.75,1.7,1.28c0.29,0.59,0.51,1.51-0.13,2.51c0,0-0.39,0.62-0.19,1.25  c0.26,0.85,1.7,1.48,3.08,0.26c0.09-0.09,0.18-0.18,0.26-0.27c0.01-0.01,0.01-0.01,0.02-0.03c0.37-0.42,0.7-0.88,0.92-1.38  c0.3-0.7,0.66-1.41,0.71-2.19c0.25-3.65-3.74-5.09-6.79-4.95c-2.64,0.12-5.59,1.07-7.83,2.47c-1.06,0.66-2,1.5-2.87,2.4  c-0.25,0.25-0.49,0.51-0.7,0.8c-1.3,1.72-1.2,4.03-0.49,5.98c0.29,0.81,0.67,1.59,1.11,2.34c1.55,2.63,3.3,5.13,4.8,7.79  c0.13,0.24,0.21,0.39,0.23,0.52c-1.55,1.13-2.51,1.97-2.49,1.97c-0.54,0.42-1.07,0.85-1.59,1.3c-1.39,1.23-2.69,2.56-3.95,3.91  c-1.11,1.18-2.2,2.4-3.02,3.79c-1.13,1.92-1.99,4.48-1.58,6.72c0.08,0.45,0.21,0.89,0.35,1.33c0.21,0.66,0.77,1.35,1.25,1.83  c0.79,0.79,2.09,1.62,3.15,1.88c1.32,0.33,1.94,0.4,3.65,0.1c1.87-0.33,3.18-1.06,4.53-1.95c1.41-0.94,2.65-2.17,3.88-3.58  c2.32-2.66,4.24-5.97,4.25-9.6c0-1.32-0.04-2.73-0.31-4.02c-0.25-1.19-0.7-2.32-1.09-3.43c-0.11-0.32-0.26-0.53-0.31-0.76  c0.24-0.13,0.58-0.31,0.83-0.43c0.01,0,0.02,0,0.03,0c0.07-0.04,0.14-0.07,0.2-0.11c1.62-0.91,3.38-1.58,5.15-2.12  c2.48-0.76,5.04-1.39,7.57-1.97c0.44-0.12,1.52-0.35,1.97-0.33C662.83,79.46,663.58,77.83,663.28,77.79z M642.91,94.71  c-0.06,0.47-0.14,0.93-0.26,1.39c-0.64,2.35-2.02,4.66-3.74,6.38c-1.9,1.9-4.61,2.56-6.53,0.23c-0.04-0.05-0.08-0.1-0.12-0.15  c-2.15-2.82,0.33-5.91,2.2-8.11c0.05-0.06,0.11-0.11,0.16-0.17c1.51-1.74,3.01-3.14,4.64-4.58c0.32-0.28,0.65-0.53,0.98-0.79  c0.14-0.11,0.3-0.23,0.48-0.36c0.36-0.26,0.72-0.52,1.09-0.78c0.36,0.95,0.71,1.48,0.97,3.05c0.07,0.6,0.19,1.47,0.2,2.07  C642.99,93.39,642.97,93.98,642.91,94.71z"/><path class="st0" d="M527.04,75.41c-3.79-0.51-7.66,0.3-11.28,1.39c-0.73,0.22-1.44,0.46-2.15,0.71c-0.89,0.29-1.77,0.65-2.62,1.04  c-0.09,0.04-0.18,0.07-0.27,0.11c-0.02,0.01-0.04,0.03-0.05,0.04c-0.45,0.21-0.89,0.43-1.32,0.66c-0.19-0.29-0.39-0.67-0.44-0.75  c-0.94-1.67-2-3.27-3.06-4.88c-0.8-1.21-1.37-2.41-1.73-3.83c-0.26-1.04-0.11-2.42,0.53-3.23c0.65-0.82,1.14-1.3,2.05-1.9  c1.05-0.68,2.47-1.43,3.73-1.01c0.78,0.26,1.33,0.75,1.7,1.28c0.29,0.59,0.51,1.51-0.13,2.51c0,0-0.39,0.62-0.19,1.25  c0.26,0.85,1.7,1.48,3.08,0.26c0.09-0.09,0.18-0.18,0.26-0.27c0.01-0.01,0.01-0.01,0.02-0.03c0.37-0.42,0.7-0.88,0.92-1.38  c0.3-0.7,0.66-1.41,0.71-2.19c0.25-3.65-3.74-5.09-6.79-4.95c-2.64,0.12-5.59,1.07-7.83,2.47c-1.06,0.66-2,1.5-2.87,2.4  c-0.25,0.25-0.49,0.51-0.7,0.8c-1.3,1.72-1.2,4.03-0.48,5.98c0.29,0.81,0.67,1.59,1.11,2.34c1.55,2.63,3.3,5.13,4.8,7.79  c0.13,0.24,0.21,0.39,0.23,0.52c-1.55,1.13-2.51,1.97-2.49,1.97c-0.54,0.42-1.07,0.85-1.59,1.3c-1.39,1.23-2.69,2.56-3.95,3.91  c-1.11,1.18-2.2,2.4-3.02,3.79c-1.13,1.92-1.99,4.48-1.58,6.72c0.08,0.45,0.21,0.89,0.35,1.33c0.21,0.66,0.77,1.35,1.25,1.83  c0.79,0.79,2.09,1.62,3.15,1.88c1.32,0.33,1.94,0.4,3.65,0.1c1.87-0.33,3.18-1.06,4.53-1.95c1.41-0.94,2.65-2.17,3.88-3.58  c2.32-2.66,4.24-5.97,4.25-9.6c0-1.32-0.04-2.73-0.31-4.02c-0.25-1.19-0.7-2.32-1.09-3.43c-0.11-0.32-0.26-0.53-0.31-0.76  c0.24-0.13,0.58-0.31,0.83-0.43c0.01,0,0.02,0,0.03,0c0.07-0.04,0.14-0.07,0.2-0.11c1.62-0.91,3.38-1.58,5.15-2.12  c2.48-0.76,5.04-1.39,7.57-1.97c0.44-0.12,1.52-0.35,1.97-0.33C526.58,77.09,527.34,75.45,527.04,75.41z M506.67,92.33  c-0.06,0.47-0.14,0.93-0.26,1.39c-0.64,2.35-2.02,4.66-3.74,6.38c-1.9,1.9-4.61,2.56-6.53,0.23c-0.04-0.05-0.08-0.1-0.12-0.15  c-2.15-2.82,0.33-5.91,2.2-8.11c0.05-0.06,0.11-0.11,0.16-0.17c1.51-1.74,3.01-3.14,4.64-4.58c0.32-0.28,0.65-0.53,0.98-0.79  c0.14-0.11,0.3-0.23,0.48-0.36c0.36-0.26,0.72-0.52,1.09-0.78c0.36,0.95,0.71,1.48,0.97,3.05c0.07,0.6,0.19,1.47,0.2,2.07  C506.74,91.01,506.72,91.6,506.67,92.33z"/><g><path class="st0" d="M455.84,59.62c1.13,0.49,2.42,0.48,3.65,0.36c0.65-0.06,1.31-0.16,1.91-0.43c1.36-0.62,1.57-2.51,2.29-3.7   c0.36-0.59,0.78-1.22,0.69-1.9c-0.11-0.83-0.92-1.37-1.7-1.67c-0.38-0.15-0.78-0.27-1.19-0.36c-1.93-0.43-4.08-0.18-5.41,1.4   c-1,1.18-1.4,2.77-1.4,4.32c0,0.52,0.06,1.07,0.39,1.47C455.28,59.34,455.56,59.5,455.84,59.62z"/><path class="st0" d="M473.03,80.89c-2.59,2.2-12.55,9.67-16.27,9.51c-2.95-0.13-2.37-3.32-1.99-5.07c0.39-1.77,1.07-3.44,1.55-5.19   c0.93-3.4,1.86-6.8,2.79-10.2c0.21-0.77,0.42-1.56,0.36-2.36c-0.2-2.33-5.36-4.61-7.09-2.69c-0.17,0.19-0.26,0.42-0.35,0.66   c-1.57,4.1-2.77,8.34-3.67,12.64c-0.87,4.14-1.9,8.58-1.56,12.83c0.05,0.7,0.15,1.41,0.46,2.03c1.24,2.49,4.18,3.89,7.52,2.65   c1.9-0.7,5.92-3.22,9.77-5.84l0,0c0,0,8.43-6.15,9.13-6.61C473.68,83.27,473.07,80.44,473.03,80.89z M455.7,94.97l0.09,0   C455.73,95.03,455.7,95.03,455.7,94.97z"/><path class="st0" d="M470.73,95.23l-0.09,0C470.64,95.29,470.67,95.29,470.73,95.23z"/></g><path class="st0" d="M495.5,49.37c0.18-0.23,0.52-0.48,1.02-0.75c0.5-0.27,0.94-0.4,1.32-0.39c0.2,0,0.46,0.1,0.76,0.3  c0.3,0.2,0.59,0.45,0.86,0.76c0.27,0.31,0.51,0.67,0.7,1.09c0.2,0.41,0.29,0.84,0.28,1.28c-0.02,1.29-0.26,2.33-0.71,3.14  c-0.45,0.81-1.1,1.66-1.93,2.55c-0.83,0.92-1.67,1.72-2.52,2.41c-0.84,0.69-1.69,1.11-2.54,1.27l-0.88-0.02l0.01-0.61  c0.3-0.46,0.67-0.92,1.12-1.38c0.45-0.46,0.87-0.93,1.27-1.42c0.4-0.49,0.75-1.02,1.04-1.6c0.29-0.58,0.44-1.23,0.45-1.96  c0.01-0.35-0.04-0.65-0.14-0.9c-0.1-0.25-0.2-0.49-0.32-0.71c-0.11-0.22-0.22-0.46-0.32-0.71c-0.1-0.25-0.14-0.54-0.14-0.86  c0-0.23,0.07-0.46,0.21-0.68C495.21,49.96,495.35,49.69,495.5,49.37z"/><g><path class="st0" d="M957.8,57.22c-0.16,0-0.24-0.08-0.24-0.24v-9h-3.03c-0.16,0-0.24-0.08-0.24-0.24v-1.29   c0-0.16,0.08-0.24,0.24-0.24h7.85c0.16,0,0.24,0.08,0.24,0.24v1.29c0,0.16-0.08,0.24-0.24,0.24h-3.03v9c0,0.16-0.08,0.24-0.24,0.24   H957.8z"/><path class="st0" d="M969.91,55.75c-0.17,0-0.24-0.06-0.3-0.2l-3.16-6.44v7.88c0,0.16-0.08,0.24-0.24,0.24h-1.32   c-0.16,0-0.24-0.08-0.24-0.24V46.47c0-0.16,0.08-0.24,0.24-0.24h1.81c0.14,0,0.25,0.05,0.33,0.22l3.27,6.67l3.25-6.67   c0.08-0.14,0.2-0.22,0.35-0.22h1.81c0.16,0,0.24,0.08,0.24,0.24v10.52c0,0.16-0.08,0.24-0.24,0.24h-1.33   c-0.16,0-0.24-0.08-0.24-0.24V49.1l-3.14,6.44c-0.06,0.14-0.16,0.2-0.3,0.2H969.91z"/></g><g><path class="st1" d="M414.63,155.82c8.11,0,13.7-5.23,13.7-13.03c0-7.79-5.6-12.92-13.7-12.86c-8.05,0-13.7,5.13-13.7,12.87   C400.92,150.59,406.57,155.82,414.63,155.82"/><path class="st1" d="M319.74,55.96l11.3,0l0-7.64c0-16.94,10.14-26.1,24.78-26.1c3.87,0,6.9,0.42,9.99,0.94l0,16.32   c-2.25-0.37-4.13-0.47-6.38-0.47c-5.7,0-8.84,3.4-8.84,10.41l0,6.54l15.22,0l0,17.52l-15.22,0l0.01,41.1l-19.56,0.01l-0.01-41.1   l-11.3,0L319.74,55.96z M303.68,45.71c-6.64,0-11.98-4.96-11.98-11.61c0-6.9,5.33-11.87,11.97-11.87c6.38,0,11.87,4.96,11.87,11.87   C315.5,40.74,310.06,45.71,303.68,45.71z M312.43,114.58l-19.56,0.01l-0.02-58.62l19.56-0.01L312.43,114.58z M380.42,136.74   c12.18,0,20.55-7.85,20.55-19.56c-0.05-6.85-2.93-12.29-7.8-15.69c5.02-9.62,7.79-20.92,7.78-33.52   C400.94,27.02,371.55-0.01,328.77,0c-42.52,0.01-72.16,27.06-72.15,68c0.01,41.21,29.67,68.76,72.19,68.75   C341.88,136.75,373.31,136.74,380.42,136.74z"/><polygon class="st1" points="43.48,114.71 55.91,77.89 68.53,114.65 90.44,114.7 111.81,46.03 88.75,46.03 77.88,84.94    64.58,46.04 47.43,46.04 34,84.85 23.22,46.05 0,46.06 21.51,114.71  "/><path class="st1" d="M149.36,62.96c9.94,0,17,6.79,17,16.99c0,10.51-7,17.42-16.94,17.42c-9.94,0-17-6.95-17-17.41   C132.42,69.76,139.42,62.96,149.36,62.96 M149.43,117.03c23.06-0.01,38.9-14.86,38.9-37.09c-0.01-22.07-15.91-36.65-38.92-36.65   c-22.91,0.01-38.9,14.6-38.9,36.67C110.52,102.19,126.47,117.04,149.43,117.03z"/><path class="st1" d="M204.96,87.63c0.01,18.83,9.47,29.18,26.63,29.17c5.75,0,9.83-0.32,14.28-1.15l-0.01-19.92   c-3.32,0.36-5.82,0.52-8.16,0.52c-7.06,0-9.78-4.08-9.78-10.87l0-18.83l17.99,0l-0.01-20.5l-17.99,0l-0.01-23.38l-22.96,0.01   l0.01,23.38l-13.18,0l0.01,20.5l13.18,0L204.96,87.63z"/></g></svg>