<svg width="71" height="33" viewBox="0 0 71 33" fill="none" xmlns="http://www.w3.org/2000/svg">
    <g clip-path="url(#clip0)">
        <path
            d="M44.7305 3.32373V22.6044H40.2284V19.5037C38.5451 21.687 36.046 23.0056 33.0324 23.0056C27.2421 23.0056 22.9403 18.266 22.9403 12.0005C22.9403 5.73499 27.2403 0.995361 33.0324 0.995361C36.0479 0.995361 38.5451 2.31402 40.2302 4.49922V3.32373C40.2302 2.71203 40.4671 2.12536 40.8889 1.69264C41.3106 1.25993 41.8827 1.01658 42.4794 1.01608C43.0764 1.01608 43.649 1.25921 44.0712 1.69198C44.4933 2.12475 44.7305 2.71171 44.7305 3.32373ZM40.2265 11.863C40.2181 11.0036 40.0427 10.1545 39.7108 9.36533C39.3788 8.57614 38.8968 7.86263 38.293 7.26642C37.6892 6.67021 36.9756 6.20324 36.1939 5.89277C35.4121 5.58229 34.5779 5.43452 33.7398 5.45807C30.1694 5.54849 27.5619 8.35912 27.5619 12.0099C27.5619 15.7191 30.2558 18.5636 33.9144 18.5636C37.5731 18.5636 40.2945 15.64 40.2265 11.863Z"
            fill="#FF5E00" />
        <path
            d="M48.6648 32.0045V3.32373C48.6653 2.71153 48.9029 2.12458 49.3253 1.69186C49.7477 1.25915 50.3205 1.01608 50.9177 1.01608C51.5146 1.01658 52.0868 1.25987 52.5089 1.69253C52.9309 2.12519 53.1683 2.71186 53.1687 3.32373V4.45401C53.1691 4.46042 53.1713 4.46659 53.1751 4.47169C53.1789 4.4768 53.1841 4.48062 53.1901 4.48265C53.196 4.48468 53.2024 4.48483 53.2084 4.48308C53.2145 4.48134 53.2198 4.47777 53.2239 4.47285C54.9126 2.28576 57.4228 0.995361 60.4125 0.995361C66.1624 0.995361 70.5046 5.73499 70.5046 12.0005C70.5046 18.266 66.1569 23.0056 60.4125 23.0056C57.4283 23.0056 54.9181 21.7152 53.2294 19.5319C53.2254 19.527 53.22 19.5234 53.2139 19.5217C53.2079 19.5199 53.2015 19.5201 53.1956 19.5221C53.1896 19.5241 53.1844 19.528 53.1806 19.5331C53.1768 19.5382 53.1746 19.5443 53.1742 19.5507V32.0045H48.6648ZM65.8169 11.4825C65.6056 8.4194 63.5365 6.04017 60.6551 5.54284C56.4011 4.80628 52.6524 8.57952 53.2312 12.9612C53.4032 14.3984 54.0487 15.7323 55.0609 16.7422C56.073 17.7521 57.3912 18.3774 58.7973 18.5147C62.7444 18.9423 66.0962 15.5401 65.8169 11.4825Z"
            fill="#FF5E00" />
        <path
            d="M20.5765 7.34934L10.1977 17.9871H20.4515V22.6119H4.9312C4.56842 22.6114 4.21387 22.5009 3.91226 22.2942C3.61065 22.0875 3.37546 21.794 3.23633 21.4505C3.0972 21.107 3.06036 20.729 3.13045 20.3641C3.20054 19.9992 3.37442 19.6637 3.63019 19.4L17.9836 4.69131C18.328 4.33988 18.7941 4.14258 19.2801 4.14258C19.766 4.14258 20.2321 4.33988 20.5765 4.69131C20.9193 5.04434 21.1117 5.52219 21.1117 6.02033C21.1117 6.51846 20.9193 6.99631 20.5765 7.34934Z"
            fill="#FF5E00" />
        <path
            d="M1.04347 16.7363L11.4222 6.09849H1.17027V1.47754H16.6906C17.051 1.4809 17.4025 1.59287 17.7014 1.7995C18.0002 2.00612 18.2332 2.29829 18.3713 2.63963C18.5094 2.98096 18.5465 3.3564 18.478 3.71919C18.4095 4.08198 18.2384 4.41611 17.9861 4.67999L3.63081 19.3943C3.28636 19.7463 2.81983 19.944 2.33347 19.944C1.8471 19.944 1.38057 19.7463 1.03612 19.3943C0.694286 19.0403 0.503146 18.5619 0.504524 18.0637C0.505902 17.5656 0.699684 17.0883 1.04347 16.7363Z"
            fill="#6E0AD6" />
    </g>
    <defs>
        <clipPath id="clip0">
            <rect width="70" height="31.0092" fill="white" transform="translate(0.504517 0.995361)" />
        </clipPath>
    </defs>
</svg>