<svg height="826" viewBox="0 0 4601 826" width="4601" xmlns="http://www.w3.org/2000/svg"><g fill="#8046f1" transform="matrix(1 0 0 -1 0 825.9)"><path d="m1076 824.8c-151.7-9.1-278.4-88.9-342.9-215.9-24.6-48.3-38.8-99.7-44.1-159.5-1.4-15.6-1.4-60.4 0-77 6.5-78 30.8-147.4 72.1-205.7 24-33.8 58.6-68.1 93-92.1 20.6-14.3 49.6-30.1 74.7-40.7 88.3-37.1 199.2-44.2 296.8-19 55.9 14.4 107.8 40.1 150.9 74.7 23.3 18.6 52.2 49.2 69.1 72.9 22.4 31.5 41.2 68.7 53.4 105.4 26.4 79.6 29.2 174.3 7.8 258.4-48.9 192.4-220.2 311.1-430.8 298.5zm73-158.2c51.4-9.2 94.5-31.2 129.5-66.2 40.8-40.8 65.4-94.7 72.1-158.5 2.2-20.7 1.4-55.5-1.6-75.2-8.3-54.7-30.3-101.2-65.2-137.3-35.2-36.6-79.1-59.3-133.8-69.2-13.4-2.5-16.7-2.7-43.5-2.7-29.7-.1-35.1.3-56.5 4.5-75.3 14.8-138.1 64.7-169.2 134.4-17.2 38.4-24.9 82.3-22.7 129.5 5.4 118.9 77 210.5 185.2 237 6.5 1.6 16.8 3.6 23 4.4 6.2.9 12.6 1.8 14.2 2 1.7.2 14.5.3 28.5.1 22.2-.2 27.4-.6 40-2.8z"/><path d="m1975 824.8c-172.6-10.4-311.1-111.8-364.5-267-12.3-35.8-19.4-70.6-22.6-110.2-1.5-19.8-.7-73.8 1.5-91.2 4.7-37.6 12.9-71.6 24.6-102.6 48-126.8 155.2-215.9 294-244.3 84.8-17.3 180.2-10.6 257.1 17.9 71.9 26.8 132.3 71.6 176.4 130.9 51.5 69.4 78.5 155.9 78.5 252.1 0 106.5-32.6 200.9-94.9 275-81.7 97-209.4 147.8-350.1 139.4zm73-158.2c50.1-8.9 91.5-29.8 126.4-63.7 19.9-19.4 33.8-38.5 47-65 17.9-36 26.9-73.6 28.3-118 1.4-49.7-7.4-93.1-27.3-132.9-19.3-38.7-44.6-67.4-79.9-90.7-27.2-17.9-57.4-29.6-93.5-36.1-13.4-2.5-16.7-2.7-43.5-2.7-30.5-.1-36.5.4-59 5.1-35.4 7.3-72.7 24.8-100.9 47.3-41.8 33.2-71.1 81.6-83.5 137.5-8.9 40.5-8.7 87.3.6 129.5 8.1 37 26.8 76.2 49.9 104.9 37.6 46.7 95.7 78.7 155.9 86 5 .6 10.1 1.3 11.5 1.5 1.4.3 14 .3 28 .1 22.2-.2 27.4-.6 40-2.8z"/><path d="m2873.5 824.9c-86.5-7.3-157.2-52.1-200.7-127.5l-5.8-10v61.8 61.7h-84.5-84.5v-397.5-397.5h84.5 84.5v140.8 140.7l4.1-7.5c20.1-37 52.6-71.8 87-93.1 29.4-18.3 62.4-29.9 100.4-35.6 16.8-2.4 59.8-2.5 77.4 0 34 4.8 60.4 12.9 90.6 27.7 18.9 9.3 32.8 17.6 46.7 28.1 72 54.3 115.7 134.8 126.9 233.9 2 17.6 1.8 66.9-.5 85-8.4 68.8-30.6 125-69.3 175.1-10.9 14.1-36.4 40-50.1 50.8-42.7 33.7-93.3 55-146.3 61.6-15.5 1.9-45.9 2.7-60.4 1.5zm-4.4-151c99.6-9.7 164.9-81.8 164.9-181.8 0-31.9-5.9-59.7-17.9-84.7-8.9-18.6-17-30.4-31-44.9-33.9-35-81-53.6-136.1-53.6-72 0-131 34-161.4 92.9-12.7 24.5-19.2 51-20.3 82.2-1.3 35.7 5 65.8 19.8 94.9 19.7 38.7 49.7 66 90.7 82.6 14.8 6 32.9 10.2 55.7 12.8 6.8.7 26 .5 35.6-.4z"/><path d="m4124.5 824.8c-106.6-8.2-201-58.6-267.7-142.9-41.4-52.4-70.3-118.2-82.2-187.5-5.3-31.3-6.1-41.3-6.1-81.5 0-29.8.4-40.5 1.8-52 7.6-62.5 24.5-116 52-165.5 7.7-13.8 26.5-41.7 36.3-53.9 54.2-67.3 126.8-113.2 208.4-132 57.7-13.2 121.6-12.5 176.5 1.9 55.9 14.7 101.3 40.4 141.1 80 16.2 16.2 28.2 30.7 39.7 47.8l7.2 10.8.3-67 .2-67.1h84.5 84.5v397 397h-84.5-84.5l-.2-66.7-.3-66.8-3.4 5.5c-5.8 9.5-22.5 31-32.8 42.5-44.8 49.5-107.1 83.3-176.3 95.5-27.4 4.8-68.4 7-94.5 4.9zm83-157.9c85.8-8 154.9-52.5 193.8-125 13.2-24.5 23.2-56 28.4-89 2.5-16.1 2.6-65.3.1-81.7-8.7-57.2-31.4-104.7-67.3-140.9-44.5-44.8-103.3-69.1-172.1-71.1-68.5-2-127.5 18.3-173.9 59.6-40.9 36.5-66.6 87.7-76.2 151.6-2.5 17.2-2.5 67.8 0 85 8.9 59.3 30.2 105.4 65.6 141.9 13.2 13.5 22.8 21.5 37.2 31.1 30.9 20.7 70 34.2 111.4 38.4 11.7 1.2 40.3 1.3 53 .1z"/><path d="m3 734.9v-75h234.1 234.2l-.7-8.2c-3.8-44.1-21.2-78.4-52.3-103.5-25.3-20.3-54.5-34.3-115.3-55.2-59.2-20.4-77.3-27.2-102.2-38.7-96.5-44.3-153-110.7-181.3-213.2-13.9-50.6-19.5-103.8-19.5-187.9v-37.3h326 326v75.5 75.5h-235.2-235.1l.7 10c1.8 28.2 11.3 56.9 26.1 79 5.9 8.8 20.2 24 30 32 24.9 20.2 56.2 35.4 115.5 55.9 42 14.6 49.2 17.2 70 25.4 34.8 13.8 67.7 31 91.4 47.9 71.2 50.8 112.9 126.3 128 231.8 4.9 34.2 5.8 49.1 6.3 106.8l.5 54.2h-323.6-323.6z"/><path d="m3285 412.9v-397h238 238v75.5 75.5h-153.5-153.5v321.5 321.5h-84.5-84.5z"/></g></svg>