<?xml version="1.0" encoding="UTF-8" standalone="no"?>
<!DOCTYPE svg PUBLIC "-//W3C//DTD SVG 1.1//EN"
 "http://www.w3.org/Graphics/SVG/1.1/DTD/svg11.dtd">
<!-- Generated by graphviz version 10.0.1 (20240210.2158)
 -->
<!-- Title: G Pages: 1 -->
<svg width="234pt" height="141pt"
 viewBox="0.00 0.00 233.50 140.80" xmlns="http://www.w3.org/2000/svg" xmlns:xlink="http://www.w3.org/1999/xlink">
<g id="graph0" class="graph" transform="scale(1 1) rotate(0) translate(4 136.8)">
<title>G</title>
<polygon fill="white" stroke="none" points="-4,4 -4,-136.8 229.5,-136.8 229.5,4 -4,4"/>
<!-- Capability A1 -->
<g id="node1" class="node">
<title>Capability A1</title>
<polygon fill="grey" stroke="white" points="94.75,-50.4 0,-50.4 0,-14.4 94.75,-14.4 94.75,-50.4"/>
<text text-anchor="middle" x="47.38" y="-27.72" font-family="Tahoma" font-size="14.00">Capability A1</text>
</g>
<!-- topic 1 -->
<g id="node2" class="node">
<title>topic 1</title>
<polygon fill="white" stroke="white" points="205.12,-64.8 151.12,-64.8 151.12,0 205.12,0 205.12,-64.8"/>
<image xlink:href="../images/aws/Amazon-Simple-Notification-Service.png" width="48px" height="48px" preserveAspectRatio="xMinYMin meet" x="154.125" y="-64.8"/>
<text text-anchor="middle" x="178.12" y="-3.25" font-family="Tahoma" font-size="10.00">topic 1</text>
</g>
<!-- Capability A1&#45;&gt;topic 1 -->
<g id="edge1" class="edge">
<title>Capability A1&#45;&gt;topic 1</title>
<path fill="none" stroke="#00688b" d="M95.22,-32.4C109.83,-32.4 125.73,-32.4 139.61,-32.4"/>
<polygon fill="#00688b" stroke="#00688b" points="139.2,-35.9 149.2,-32.4 139.2,-28.9 139.2,-35.9"/>
</g>
<!-- topics 1 -->
<g id="node3" class="node">
<title>topics 1</title>
<polygon fill="white" stroke="white" points="74.38,-132.8 20.38,-132.8 20.38,-68 74.38,-68 74.38,-132.8"/>
<image xlink:href="../images/aws/Amazon-Simple-Notification-Service.png" width="48px" height="48px" preserveAspectRatio="xMinYMin meet" x="23.375" y="-132.8"/>
<text text-anchor="middle" x="47.38" y="-71.25" font-family="Tahoma" font-size="10.00">topics 1</text>
</g>
<!-- Capability A2 -->
<g id="node4" class="node">
<title>Capability A2</title>
<polygon fill="grey" stroke="white" points="225.5,-118.4 130.75,-118.4 130.75,-82.4 225.5,-82.4 225.5,-118.4"/>
<text text-anchor="middle" x="178.12" y="-95.73" font-family="Tahoma" font-size="14.00">Capability A2</text>
</g>
<!-- topics 1&#45;&gt;Capability A2 -->
<g id="edge2" class="edge">
<title>topics 1&#45;&gt;Capability A2</title>
<path fill="none" stroke="#00688b" d="M74.74,-100.4C87.65,-100.4 103.73,-100.4 119.29,-100.4"/>
<polygon fill="#00688b" stroke="#00688b" points="118.97,-103.9 128.97,-100.4 118.97,-96.9 118.97,-103.9"/>
</g>
</g>
</svg>
