<?xml version="1.0" encoding="UTF-8"?>
<svg width="1200pt" height="1200pt" version="1.1" viewBox="0 0 1200 1200" xmlns="http://www.w3.org/2000/svg">
 <g fill="#fff">
  <path d="m727.36 162.65c-1.7656-4.3672-6.6133-6.625-11.113-5.1953l-48.637 15.742-69.758-117.77c-1.5977-2.6875-4.4531-4.3438-7.5586-4.4141-3.3945-0.10938-6.0352 1.4766-7.7383 4.1055l-117.49 180.86-47.617-54.648c-2.125-2.4375-5.4102-3.5625-8.5938-2.8906-3.1914 0.64844-5.7617 2.9648-6.7578 6.0469l-66.133 205.23h-173.13v18h167.34l-22.691 70.402c-0.42187 1.332-0.53906 2.7344-0.32422 4.1172l45.672 301.84c0.51562 3.4062 2.9297 6.2266 6.2266 7.2461l69.348 21.555 133.8 330.49c1.2852 3.2031 4.2969 5.3633 7.7383 5.6055 0.20312 0.011719 0.40625 0.023438 0.61328 0.023438 3.2148 0 6.2031-1.7148 7.8008-4.5234l107.21-187.18 54.527-9.1094c3.1094-0.52734 5.7109-2.6406 6.875-5.5547l145.21-365.44c0.85156-2.1602 0.83984-4.5586-0.023437-6.707l-65.773-162.79h210.8v-18h-218.08zm-313.01 42.516 44.988 51.637c1.8477 2.1367 4.6328 3.1914 7.4141 3.0586 2.8086-0.20312 5.375-1.7148 6.9102-4.0781l116.09-178.71 66.035 111.49c2.1484 3.6367 6.5039 5.2695 10.512 3.9844l47.508-15.371 85.871 212.54-444.79-0.003906zm459.76 368.73-142.01 357.39-53.734 8.9648c-2.6641 0.44531-4.9805 2.0625-6.3125 4.4023l-100.12 174.8-128.45-317.27c-1.0195-2.5078-3.0977-4.4141-5.6758-5.2188l-68.039-21.168-44.508-294.18 23.82-73.922h457.87z"/>
  <path d="m471.93 704.79 119.69 36.562c0.86328 0.26562 1.7539 0.39453 2.6289 0.39453 3.8516 0 7.4141-2.4961 8.6055-6.3711 1.4531-4.7539-1.2227-9.7812-5.9766-11.23l-114.25-34.906-23.219-153.28c-0.74219-4.9062-5.2812-8.3281-10.246-7.5469-4.9062 0.74219-8.293 5.3281-7.5469 10.246l24.059 158.88c0.51172 3.4102 2.9492 6.2422 6.2617 7.25z"/>
  <path d="m640.55 857.9c1.0938 0.43359 2.2188 0.63672 3.3242 0.63672 3.5742 0 6.9609-2.1484 8.3633-5.6758l104.7-263.47c1.8242-4.6328-0.42188-9.8516-5.0391-11.699-4.5859-1.8125-9.8516 0.40625-11.699 5.0391l-104.7 263.47c-1.8125 4.6445 0.43359 9.8633 5.0508 11.699z"/>
 </g>
</svg>
