<svg width="148" height="40" viewBox="0 0 148 40" fill="none" xmlns="http://www.w3.org/2000/svg">
<g clip-path="url(#clip0)">
<path d="M51.1826 33.7061V39.8812H50.193V33.7061H51.1826Z" fill="#FFD94A"/>
<path d="M56.9223 37.7635C56.9223 39.0697 56.0317 40 54.7254 40C53.4191 40 52.5284 39.0697 52.5284 37.7635C52.5284 36.4572 53.4191 35.5269 54.7254 35.5269C56.0119 35.5269 56.9223 36.4572 56.9223 37.7635ZM53.5181 37.7635C53.5181 38.5749 53.9931 39.1687 54.7254 39.1687C55.4577 39.1687 55.9327 38.5749 55.9327 37.7635C55.9327 36.9322 55.4577 36.3582 54.7254 36.3582C53.9931 36.3582 53.5181 36.952 53.5181 37.7635Z" fill="#FFD94A"/>
<path d="M60.1484 35.5269C60.9203 35.5269 61.6724 35.8832 62.0287 36.7343L61.1974 37.1499C60.9401 36.6155 60.6036 36.378 60.1682 36.378C59.4755 36.378 59.04 36.9718 59.04 37.7833C59.04 38.5947 59.4953 39.1687 60.188 39.1687C60.7026 39.1687 61.0391 38.852 61.2766 38.2979L62.088 38.6937C61.712 39.5448 61.0588 40 60.1682 40C58.9015 40 58.0504 39.1489 58.0504 37.7833C58.0306 36.477 58.9015 35.5269 60.1484 35.5269Z" fill="#FFD94A"/>
<path d="M64.5027 40C63.5725 40 63.0975 39.426 63.0975 38.7728C63.0975 38.0009 63.6912 37.6249 64.4631 37.427L65.8882 37.0707C65.8486 36.6749 65.6309 36.3582 64.9975 36.3582C64.4037 36.3582 63.9287 36.7738 63.6516 37.0707L63.0777 36.5165C63.3943 36.1405 64.1069 35.5467 65.0569 35.5467C66.3434 35.5467 66.8184 36.3186 66.8184 37.1895V39.9208H65.9079V39.2479C65.6506 39.7229 65.1756 40 64.5027 40ZM64.7402 39.2083C65.334 39.2083 65.9277 38.6937 65.9277 37.8624V37.803L64.76 38.0801C64.3048 38.1989 64.1069 38.3968 64.1069 38.6739C64.0871 38.9906 64.2652 39.2083 64.7402 39.2083Z" fill="#FFD94A"/>
<path d="M67.9465 35.6259H68.6591V34.2998L69.6289 33.9633V35.6259H70.8758V36.4176H69.6289V38.4958C69.6289 38.8916 69.7476 39.1489 70.2424 39.1489C70.4997 39.1489 70.6581 39.0697 70.9154 38.9114L71.2122 39.6239C70.8758 39.8614 70.4997 39.9802 70.1237 39.9802C69.0351 39.9802 68.6591 39.3864 68.6591 38.6145V36.4176H67.9465V35.6259Z" fill="#FFD94A"/>
<path d="M73.429 34.2009C73.429 34.5571 73.1519 34.8144 72.7758 34.8144C72.4196 34.8144 72.1425 34.5373 72.1425 34.2009C72.1425 33.8644 72.3998 33.5873 72.7758 33.5873C73.1717 33.5873 73.429 33.8842 73.429 34.2009ZM73.2904 35.6259V39.901H72.3008V35.6259H73.2904Z" fill="#FFD94A"/>
<path d="M78.9906 37.7635C78.9906 39.0697 78.0999 40 76.7937 40C75.4874 40 74.5967 39.0697 74.5967 37.7635C74.5967 36.4572 75.4874 35.5269 76.7937 35.5269C78.0999 35.5269 78.9906 36.4572 78.9906 37.7635ZM75.5863 37.7635C75.5863 38.5749 76.0613 39.1687 76.7937 39.1687C77.526 39.1687 78.001 38.5749 78.001 37.7635C78.001 36.9322 77.526 36.3582 76.7937 36.3582C76.0613 36.3582 75.5863 36.952 75.5863 37.7635Z" fill="#FFD94A"/>
<path d="M81.2666 35.6259V36.2791C81.5437 35.8238 81.9791 35.5269 82.6323 35.5269C83.7011 35.5269 84.1959 36.378 84.1959 37.1697V39.901H83.2261V37.3874C83.2261 36.9322 83.1271 36.378 82.375 36.378C81.6823 36.378 81.3062 36.952 81.3062 37.7635V39.8812H80.3166V35.6259H81.2666Z" fill="#FFD94A"/>
<path d="M87.3033 40C86.4127 40 85.7397 39.6635 85.4033 39.3666L85.8783 38.6739C86.1554 38.9114 86.67 39.2083 87.2241 39.2083C87.8575 39.2083 88.0356 38.9312 88.0356 38.6739C88.0356 38.3968 87.8179 38.278 87.4221 38.1989L86.8085 38.0603C86.2543 37.9416 85.6012 37.6447 85.6012 36.7936C85.6012 36.1801 86.1158 35.5071 87.1846 35.5071C88.0554 35.5071 88.5898 35.8634 88.9065 36.1009L88.4117 36.8134C88.194 36.6353 87.7585 36.279 87.1648 36.279C86.6304 36.279 86.4918 36.5363 86.4918 36.7343C86.4918 37.0113 86.67 37.1301 87.0064 37.2093L87.7189 37.3676C88.4908 37.5457 88.946 37.8822 88.946 38.5749C88.9658 39.3468 88.4315 40 87.3033 40Z" fill="#FFD94A"/>
<path d="M92.667 37.803C92.667 36.4967 93.4587 35.5269 94.6264 35.5269C95.24 35.5269 95.6952 35.7644 96.0119 36.1801V33.7061H96.9817V39.8812H96.0514V39.2677C95.7546 39.7031 95.2796 39.9802 94.6264 39.9802C93.4785 40 92.667 39.0895 92.667 37.803ZM96.0317 37.7634C96.0317 36.9322 95.5369 36.3582 94.8243 36.3582C94.1118 36.3582 93.6566 36.952 93.6566 37.7634C93.6566 38.5749 94.1118 39.1687 94.8243 39.1687C95.5566 39.1885 96.0317 38.5947 96.0317 37.7634Z" fill="#FFD94A"/>
<path d="M98.3474 37.7635C98.3474 36.4572 99.238 35.5269 100.465 35.5269C101.573 35.5269 102.385 36.2988 102.385 37.5655C102.385 37.7635 102.365 37.9416 102.345 38.001H99.3172C99.3963 38.8322 99.9109 39.2083 100.564 39.2083C101.079 39.2083 101.455 38.951 101.752 38.5749L102.345 39.1291C101.93 39.7031 101.296 40 100.524 40C99.2182 40 98.3474 39.1687 98.3474 37.7635ZM99.337 37.3082H101.415C101.356 36.5561 100.901 36.2988 100.426 36.2988C99.9109 36.2988 99.4755 36.6155 99.337 37.3082Z" fill="#FFD94A"/>
<path d="M106.977 35.6259L108.085 38.7729L109.213 35.6259H110.223L108.56 39.901H107.551L105.908 35.6259H106.977Z" fill="#FFD94A"/>
<path d="M112.499 40C111.568 40 111.093 39.426 111.093 38.7728C111.093 38.0009 111.687 37.6249 112.459 37.427L113.884 37.0707C113.845 36.6749 113.627 36.3582 112.994 36.3582C112.4 36.3582 111.925 36.7738 111.648 37.0707L111.074 36.5165C111.39 36.1405 112.103 35.5467 113.053 35.5467C114.339 35.5467 114.814 36.3186 114.814 37.1895V39.9208H113.904V39.2479C113.647 39.7229 113.152 40 112.499 40ZM112.716 39.2083C113.31 39.2083 113.904 38.6937 113.904 37.8624V37.803L112.736 38.0801C112.281 38.1989 112.083 38.3968 112.083 38.6739C112.063 38.9906 112.241 39.2083 112.716 39.2083Z" fill="#FFD94A"/>
<path d="M118.278 35.5269C119.05 35.5269 119.802 35.8832 120.158 36.7343L119.327 37.1499C119.07 36.6155 118.733 36.378 118.298 36.378C117.605 36.378 117.17 36.9718 117.17 37.7833C117.17 38.5947 117.625 39.1687 118.318 39.1687C118.832 39.1687 119.169 38.852 119.406 38.2979L120.218 38.6937C119.842 39.5448 119.188 40 118.298 40C117.031 40 116.18 39.1489 116.18 37.7833C116.16 36.477 117.031 35.5269 118.278 35.5269Z" fill="#FFD94A"/>
<path d="M122.632 40C121.702 40 121.227 39.426 121.227 38.7728C121.227 38.0009 121.821 37.6249 122.593 37.427L124.018 37.0707C123.978 36.6749 123.761 36.3582 123.127 36.3582C122.533 36.3582 122.058 36.7738 121.781 37.0707L121.207 36.5165C121.524 36.1405 122.237 35.5467 123.187 35.5467C124.473 35.5467 124.948 36.3186 124.948 37.1895V39.9208H124.097V39.2479C123.78 39.7229 123.305 40 122.632 40ZM122.87 39.2083C123.464 39.2083 124.057 38.6937 124.057 37.8624V37.803L122.89 38.0801C122.434 38.1989 122.237 38.3968 122.237 38.6739C122.217 38.9906 122.395 39.2083 122.87 39.2083Z" fill="#FFD94A"/>
<path d="M127.501 35.6259V36.2791C127.778 35.8238 128.214 35.5269 128.867 35.5269C129.936 35.5269 130.431 36.378 130.431 37.1697V39.901H129.461V37.3874C129.461 36.9322 129.362 36.378 128.61 36.378C127.917 36.378 127.541 36.952 127.541 37.7635V39.8812H126.551V35.6259H127.501Z" fill="#FFD94A"/>
<path d="M133.874 35.5269C134.646 35.5269 135.398 35.8832 135.755 36.7343L134.923 37.1499C134.666 36.6155 134.33 36.378 133.894 36.378C133.201 36.378 132.766 36.9718 132.766 37.7833C132.766 38.5947 133.221 39.1687 133.914 39.1687C134.428 39.1687 134.765 38.852 135.002 38.2979L135.814 38.6937C135.438 39.5448 134.785 40 133.894 40C132.627 40 131.776 39.1489 131.776 37.7833C131.757 36.477 132.627 35.5269 133.874 35.5269Z" fill="#FFD94A"/>
<path d="M136.744 37.7635C136.744 36.4572 137.635 35.5269 138.862 35.5269C139.97 35.5269 140.782 36.2988 140.782 37.5655C140.782 37.7635 140.762 37.9416 140.742 38.001H137.714C137.793 38.8322 138.308 39.2083 138.961 39.2083C139.476 39.2083 139.852 38.951 140.148 38.5749L140.742 39.1291C140.327 39.7031 139.693 40 138.921 40C137.635 40 136.744 39.1687 136.744 37.7635ZM137.754 37.3082H139.832C139.772 36.5561 139.317 36.2988 138.842 36.2988C138.308 36.2988 137.872 36.6155 137.754 37.3082Z" fill="#FFD94A"/>
<path d="M143.691 40C142.801 40 142.128 39.6635 141.791 39.3666L142.266 38.6739C142.543 38.9114 143.058 39.2083 143.612 39.2083C144.245 39.2083 144.424 38.9312 144.424 38.6739C144.424 38.3968 144.206 38.278 143.81 38.1989L143.196 38.0603C142.642 37.9416 141.989 37.6447 141.989 36.7936C141.989 36.1801 142.504 35.5071 143.572 35.5071C144.443 35.5071 144.978 35.8634 145.294 36.1009L144.8 36.8134C144.582 36.6353 144.146 36.279 143.553 36.279C143.018 36.279 142.88 36.5363 142.88 36.7343C142.88 37.0113 143.058 37.1301 143.394 37.2093L144.107 37.3676C144.879 37.5457 145.334 37.8822 145.334 38.5749C145.374 39.3468 144.819 40 143.691 40Z" fill="#FFD94A"/>
<path d="M53.5378 29.1737C50.1138 29.1737 48.3523 27.0163 48.3523 24.5621C48.3523 21.5735 50.7471 20.1682 53.4389 19.5349L58.3671 18.3672C58.2088 17.0213 57.3577 16.1702 55.5368 16.1702C53.5972 16.1702 51.8357 17.5161 50.7273 18.5255L48.3325 15.9525C49.7179 14.4681 52.3899 12.4691 55.9723 12.4691C60.9995 12.4691 62.7808 15.5171 62.7808 18.7432V28.7976H58.6442V26.6007C57.5556 28.2237 55.8535 29.1737 53.5378 29.1737ZM54.765 25.6903C56.6254 25.6903 58.4067 24.2059 58.4067 21.7912V21.4547L54.8837 22.2662C53.5378 22.5829 52.8649 23.1767 52.8649 24.0871C52.8847 25.1163 53.4785 25.6903 54.765 25.6903Z" fill="#7EB1E0"/>
<path d="M75.5072 28.7976V19.3766C75.5072 17.9713 75.2301 16.2692 73.0925 16.2692C71.1727 16.2692 70.1435 17.9911 70.1435 20.3464V28.7976H65.6309V12.8451H69.906V14.9431C70.8758 13.3993 72.38 12.4691 74.5769 12.4691C77.0312 12.4691 78.6343 13.7952 79.4062 15.5369C80.3562 13.6764 81.9792 12.4691 84.4334 12.4691C88.1346 12.4691 89.8961 15.4775 89.8961 18.4067V28.7976H85.3835V19.3766C85.3835 17.9713 85.1064 16.2692 82.9688 16.2692C81.049 16.2692 80.0396 17.9911 80.0396 20.3464V28.7976H75.5072Z" fill="#7EB1E0"/>
<path d="M97.7338 7.91688C97.7338 9.36171 96.6255 10.5492 94.9629 10.5492C93.3597 10.5492 92.2712 9.36171 92.2712 7.91688C92.2712 6.47205 93.3795 5.28452 94.9629 5.28452C96.6452 5.28452 97.7338 6.47205 97.7338 7.91688ZM97.239 12.8451V28.7976H92.7264V12.8451H97.239Z" fill="#7EB1E0"/>
<path d="M103.295 12.8451L106.838 23.5131L110.44 12.8451H115.092L109.055 28.7976H104.404L98.4067 12.8451H103.295Z" fill="#7EB1E0"/>
<path d="M120.594 29.1737C117.17 29.1737 115.408 27.0163 115.408 24.5621C115.408 21.5735 117.803 20.1682 120.495 19.5349L125.423 18.3672C125.265 17.0213 124.414 16.1702 122.593 16.1702C120.653 16.1702 118.892 17.5161 117.783 18.5255L115.388 15.9525C116.774 14.4681 119.446 12.4691 123.028 12.4691C128.055 12.4691 129.837 15.5171 129.837 18.7432V28.7976H125.7V26.6007C124.612 28.2237 122.929 29.1737 120.594 29.1737ZM121.821 25.6903C123.681 25.6903 125.463 24.2059 125.463 21.7912V21.4547L121.94 22.2662C120.594 22.5829 119.921 23.1767 119.921 24.0871C119.941 25.1163 120.534 25.6903 121.821 25.6903Z" fill="#7EB1E0"/>
<path d="M139.951 12.4691C142.801 12.4691 145.829 13.7556 147.076 17.0807L143.276 18.8026C142.523 17.1598 141.455 16.3286 140.01 16.3286C137.773 16.3286 136.408 18.2088 136.408 20.9203C136.408 23.5923 137.813 25.433 140.049 25.433C141.692 25.433 142.741 24.4236 143.572 22.5037L147.214 24.2652C145.809 27.4716 143.355 29.1737 139.951 29.1737C134.963 29.1737 131.816 26.0267 131.816 20.9203C131.816 15.9921 135.121 12.4691 139.951 12.4691Z" fill="#7EB1E0"/>
<path d="M20.8807 7.58041L33.5279 16.4275C36.2593 18.3474 39.6041 17.9911 41.7813 15.5369L20.8807 0L0 15.5567C2.15735 17.9911 5.50222 18.3474 8.25334 16.4275L20.8807 7.58041Z" fill="#E61B5B"/>
<path d="M33.528 37.2291V16.4275L20.9006 7.58041L8.25336 16.4275V37.2093C8.25336 38.6937 9.46068 39.8813 10.9253 39.8813H30.8362C32.3207 39.901 33.528 38.6937 33.528 37.2291Z" fill="#FFD94A"/>
<path d="M20.8808 36.4176C22.9194 36.4176 24.7996 35.6655 26.2049 34.4186H15.5567C16.9817 35.6655 18.8422 36.4176 20.8808 36.4176Z" fill="#E61B5B"/>
<path d="M15.5567 34.3988H26.2247C27.0757 33.6665 27.7487 32.7561 28.2237 31.7269H13.5379C14.0129 32.7561 14.7056 33.6665 15.5567 34.3988Z" fill="white"/>
<path d="M27.3924 18.1098C24.5621 18.3473 23.2756 19.0994 22.761 19.9307C22.2266 19.5349 21.5735 19.3172 20.8808 19.3172C20.188 19.3172 19.5547 19.5349 19.0005 19.9307C18.3672 18.9213 16.6254 18.0307 12.4097 18.0307C8.1346 18.0307 5.99704 18.9609 5.99704 21.7318C5.99704 23.4339 6.45226 25.1954 7.16478 26.4621C8.51065 28.8966 10.7472 29.0351 12.8451 29.0351C16.2098 29.0351 18.6245 27.5111 19.1588 23.7308C19.1984 23.5131 19.2182 23.1173 19.2776 22.86C19.3963 22.0881 19.9901 21.4151 20.9006 21.4151C21.8308 21.4151 22.4048 22.0881 22.5235 22.86C22.5631 23.1173 22.6027 23.4933 22.6423 23.7308C23.1767 27.5111 25.5913 29.0351 28.956 29.0351C31.0342 29.0351 33.2707 28.8768 34.6363 26.4621C35.052 25.71 35.3686 24.7996 35.5864 23.8298L27.3924 18.1098Z" fill="#2E1D67"/>
<path d="M35.7645 21.7318C35.7645 18.9609 33.6269 18.0307 29.3518 18.0307C28.6195 18.0307 27.9862 18.0505 27.3924 18.1098L35.5468 23.81C35.6853 23.1371 35.7645 22.4245 35.7645 21.7318Z" fill="#0068B2"/>
</g>
<defs>
<clipPath id="clip0">
<rect width="147.214" height="40" fill="white"/>
</clipPath>
</defs>
</svg>
