<?xml version="1.0" encoding="utf-8"?>
<!-- Generator: Adobe Illustrator 20.1.0, SVG Export Plug-In . SVG Version: 6.00 Build 0)  -->
<svg version="1.1" id="Ebene_1" xmlns="http://www.w3.org/2000/svg" xmlns:xlink="http://www.w3.org/1999/xlink" x="0px" y="0px"
	 viewBox="0 0 106.8 31.5" style="enable-background:new 0 0 106.8 31.5;" xml:space="preserve">
<style>
	.st0{fill:#2D2D2D;}
	.st1{fill:#99C000;}
	.st2{fill:#FFB200;}
</style>
<g id="Wissen_rund_ums_Bauen">
	<path class="st0" d="M7.5,31.3H6.6l-1.8-5.4L3,31.3H2.1L0,24.9h0.8l1.8,5.6l1.8-5.6h0.8L7,30.5l1.8-5.6h0.8L7.5,31.3z"/>
	<path class="st0" d="M11.5,25.4c0,0.3-0.2,0.5-0.5,0.5s-0.5-0.2-0.5-0.5s0.2-0.5,0.5-0.5C11.2,24.9,11.5,25.2,11.5,25.4z
		 M11.3,31.3h-0.7V27h0.7V31.3z"/>
	<path class="st0" d="M15.8,27.9c-0.3-0.2-0.8-0.4-1.4-0.4c-0.6,0-1,0.3-1,0.7c0,0.4,0.3,0.5,0.9,0.6l0.5,0.1
		c0.9,0.1,1.5,0.5,1.5,1.2c0,0.8-0.7,1.3-1.9,1.3c-0.6,0-1.3-0.1-1.8-0.6l0.3-0.5c0.3,0.3,0.8,0.5,1.5,0.5s1.2-0.2,1.2-0.7
		c0-0.3-0.3-0.6-0.9-0.6l-0.5-0.1c-1-0.1-1.4-0.6-1.4-1.2c0-0.8,0.7-1.3,1.7-1.3c0.7,0,1.3,0.2,1.7,0.5L15.8,27.9z"/>
	<path class="st0" d="M20.4,27.9c-0.3-0.2-0.8-0.4-1.4-0.4s-1,0.3-1,0.7c0,0.4,0.3,0.5,0.9,0.6l0.5,0.1c0.9,0.1,1.5,0.5,1.5,1.2
		c0,0.8-0.7,1.3-1.9,1.3c-0.6,0-1.3-0.1-1.8-0.6l0.3-0.5c0.3,0.3,0.8,0.5,1.5,0.5s1.2-0.2,1.2-0.7c0-0.3-0.3-0.6-0.9-0.6l-0.5-0.1
		c-1-0.1-1.4-0.6-1.4-1.2c0-0.8,0.7-1.3,1.7-1.3c0.7,0,1.3,0.2,1.7,0.5L20.4,27.9z"/>
	<path class="st0" d="M25.9,29.1c0,0.1,0,0.2,0,0.3h-3.5c0.1,0.9,0.8,1.4,1.5,1.4c0.5,0,1-0.2,1.4-0.5l0.4,0.5
		c-0.5,0.5-1.1,0.7-1.8,0.7c-1.3,0-2.2-0.9-2.2-2.3c0-1.3,0.9-2.3,2.2-2.3C25,26.9,25.9,27.8,25.9,29.1z M22.4,28.8h2.8
		c-0.1-0.8-0.6-1.3-1.4-1.3S22.5,28.1,22.4,28.8z"/>
	<path class="st0" d="M31.1,28.6v2.7h-0.7v-2.4c0-0.8-0.5-1.3-1.3-1.3c-0.7,0-1.3,0.5-1.3,1.3v2.5h-0.7v-4.3h0.7v0.6
		c0.4-0.5,0.9-0.7,1.5-0.7C30.4,26.9,31.1,27.6,31.1,28.6z"/>
	<path class="st0" d="M37.9,27l-0.2,0.7c-0.2-0.1-0.5-0.2-0.8-0.2c-0.7,0-1.2,0.5-1.2,1.4v2.4H35V27h0.7v0.6
		c0.3-0.4,0.8-0.7,1.3-0.7C37.4,26.9,37.7,26.9,37.9,27z"/>
	<path class="st0" d="M42.8,29.5c0,1.3-0.9,1.9-2,1.9s-2-0.6-2-1.9V27h0.7v2.5c0,0.9,0.5,1.3,1.3,1.3c0.7,0,1.3-0.4,1.3-1.3V27h0.7
		V29.5z"/>
	<path class="st0" d="M48.3,28.6v2.7h-0.7v-2.4c0-0.8-0.5-1.3-1.3-1.3c-0.7,0-1.3,0.5-1.3,1.3v2.5h-0.7v-4.3H45v0.6
		c0.4-0.5,0.9-0.7,1.5-0.7C47.6,26.9,48.3,27.6,48.3,28.6z"/>
	<path class="st0" d="M53.3,27.6v-2.9H54v6.6h-0.7v-0.6c-0.3,0.4-0.9,0.7-1.6,0.7c-1.2,0-2.2-1-2.2-2.3s1-2.3,2.2-2.3
		C52.4,26.9,52.9,27.2,53.3,27.6z M50.2,29.1c0,0.9,0.6,1.6,1.6,1.6c0.9,0,1.5-0.7,1.5-1.6s-0.6-1.6-1.5-1.6
		C50.8,27.5,50.2,28.3,50.2,29.1z"/>
	<path class="st0" d="M61.9,29.5c0,1.3-0.9,1.9-2,1.9s-2-0.6-2-1.9V27h0.7v2.5c0,0.9,0.5,1.3,1.3,1.3s1.3-0.4,1.3-1.3V27h0.7V29.5z"
		/>
	<path class="st0" d="M70.7,28.6v2.7H70v-2.4c0-0.8-0.5-1.3-1.3-1.3c-0.7,0-1.3,0.5-1.3,1.3v2.5h-0.7v-2.5c0-0.8-0.5-1.3-1.3-1.3
		c-0.7,0-1.3,0.5-1.3,1.3v2.5h-0.7v-4.3h0.7v0.6c0.4-0.5,0.9-0.7,1.5-0.7c0.8,0,1.4,0.3,1.6,0.9c0.3-0.7,1-0.9,1.6-0.9
		C70,26.9,70.7,27.6,70.7,28.6z"/>
	<path class="st0" d="M75.2,27.9c-0.3-0.2-0.8-0.4-1.4-0.4s-1,0.3-1,0.7c0,0.4,0.3,0.5,0.9,0.6l0.5,0.1c0.9,0.1,1.5,0.5,1.5,1.2
		c0,0.8-0.7,1.3-1.9,1.3c-0.6,0-1.3-0.1-1.8-0.6l0.3-0.5c0.3,0.3,0.8,0.5,1.5,0.5s1.2-0.2,1.2-0.7c0-0.3-0.3-0.6-0.9-0.6l-0.5-0.1
		c-1-0.1-1.4-0.6-1.4-1.2c0-0.8,0.7-1.3,1.7-1.3c0.7,0,1.3,0.2,1.7,0.5L75.2,27.9z"/>
	<path class="st0" d="M81.9,24.9c1.4,0,2.3,0.5,2.3,1.7c0,0.7-0.4,1.2-1,1.4c0.6,0.2,1.1,0.7,1.1,1.5c0,1.2-0.9,1.8-2.3,1.8h-2.6
		v-6.4H81.9z M80.1,25.6v2.1h1.7c0.9,0,1.6-0.2,1.6-1.1c0-0.8-0.7-1.1-1.6-1.1h-1.7V25.6z M80.1,28.4v2.2H82c1,0,1.6-0.3,1.6-1.1
		c0-0.9-0.6-1.1-1.6-1.1H80.1z"/>
	<path class="st0" d="M89.8,31.3h-0.7v-0.6c-0.3,0.4-0.9,0.7-1.6,0.7c-1.2,0-2.2-1-2.2-2.3s1-2.3,2.2-2.3c0.7,0,1.2,0.3,1.6,0.7
		v-0.6h0.7V31.3z M86.1,29.1c0,0.9,0.6,1.6,1.6,1.6c0.9,0,1.5-0.7,1.5-1.6s-0.6-1.6-1.5-1.6C86.7,27.5,86.1,28.3,86.1,29.1z"/>
	<path class="st0" d="M95.3,29.5c0,1.3-0.9,1.9-2,1.9s-2-0.6-2-1.9V27H92v2.5c0,0.9,0.5,1.3,1.3,1.3s1.3-0.4,1.3-1.3V27h0.7V29.5z"
		/>
	<path class="st0" d="M100.8,29.1c0,0.1,0,0.2,0,0.3h-3.5c0.1,0.9,0.8,1.4,1.5,1.4c0.5,0,1-0.2,1.4-0.5l0.4,0.5
		c-0.5,0.5-1.1,0.7-1.8,0.7c-1.3,0-2.2-0.9-2.2-2.3c0-1.3,0.9-2.3,2.2-2.3C99.9,26.9,100.7,27.8,100.8,29.1z M97.3,28.8h2.8
		c-0.1-0.8-0.6-1.3-1.4-1.3S97.4,28.1,97.3,28.8z"/>
	<path class="st0" d="M106,28.6v2.7h-0.7v-2.4c0-0.8-0.5-1.3-1.3-1.3c-0.7,0-1.3,0.5-1.3,1.3v2.5H102v-4.3h0.7v0.6
		c0.4-0.5,0.9-0.7,1.5-0.7C105.3,26.9,106,27.6,106,28.6z"/>
</g>
<g id="bauen.de">
	<path class="st1" d="M106.8,12c0,0.4,0,0.8-0.1,1.1H98c0.4,1.8,1.6,2.5,3.1,2.5c1.1,0,2.2-0.4,3.1-1.2l1.9,2.1
		c-1.4,1.3-3.2,1.9-5.2,1.9c-3.7,0-6.3-2.5-6.3-6.4c0-3.8,2.5-6.5,6.2-6.5C104.4,5.6,106.8,8.2,106.8,12z M98.1,10.9h5.4
		c-0.3-1.6-1.2-2.4-2.7-2.4S98.4,9.4,98.1,10.9z"/>
	<path class="st1" d="M89,7.2V0h3.3v18.2H89v-1.4c-0.8,1-2,1.7-3.7,1.7c-3.4,0-5.9-2.8-5.9-6.4s2.5-6.4,5.9-6.4
		C87,5.6,88.2,6.3,89,7.2z M82.8,12.1c0,1.9,1.2,3.4,3.2,3.4c1.9,0,3.2-1.4,3.2-3.4S87.9,8.7,86,8.7S82.8,10.2,82.8,12.1z"/>
	<polygon class="st2" points="75.3,12.9 73.2,15.2 73.2,18.2 77.5,18.2 77.5,15.2 	"/>
	<path class="st1" d="M70.5,10.4v7.8h-3.3v-6.7c0-1.8-0.9-2.7-2.4-2.7c-1.4,0-2.6,0.9-2.6,2.8v6.7H59V5.9h3.2v1.4
		c0.9-1.3,2.2-1.8,3.6-1.8C68.5,5.6,70.5,7.5,70.5,10.4z"/>
	<path class="st1" d="M56.5,12c0,0.4,0,0.8-0.1,1.1h-8.7c0.4,1.8,1.6,2.5,3.1,2.5c1.1,0,2.2-0.4,3.1-1.2l1.9,2.1
		c-1.4,1.3-3.2,1.9-5.2,1.9c-3.7,0-6.3-2.5-6.3-6.4c0-3.8,2.5-6.5,6.2-6.5C54.1,5.6,56.5,8.2,56.5,12z M47.8,10.9h5.4
		c-0.3-1.6-1.2-2.4-2.7-2.4S48.1,9.4,47.8,10.9z"/>
	<path class="st1" d="M42,13c0,3.9-2.7,5.5-5.8,5.5s-5.8-1.7-5.8-5.5V6h3.3v6.7c0,2,1.1,2.8,2.5,2.8s2.5-0.8,2.5-2.8V5.9H42V13z"/>
	<path class="st1" d="M27.5,18.2h-3.2v-1.4c-0.8,1-2,1.7-3.7,1.7c-3.4,0-5.9-2.8-5.9-6.4s2.5-6.4,5.9-6.4c1.7,0,2.9,0.7,3.7,1.7V5.9
		h3.2V18.2z M18,12.1c0,1.9,1.2,3.4,3.2,3.4c1.9,0,3.2-1.4,3.2-3.4s-1.3-3.4-3.2-3.4C19.3,8.7,18,10.2,18,12.1z"/>
	<path class="st1" d="M12.9,12.1c0,3.7-2.5,6.4-5.9,6.4c-1.7,0-2.9-0.7-3.7-1.7v1.4H0.1V0h3.3v7.2c0.8-1,1.9-1.6,3.6-1.6
		C10.3,5.6,12.9,8.4,12.9,12.1z M3.2,12.1c0,1.9,1.3,3.4,3.1,3.4c1.9,0,3.2-1.5,3.2-3.4S8.3,8.7,6.3,8.7C4.5,8.7,3.2,10.1,3.2,12.1z
		"/>
</g>
</svg>
