<svg width="65" height="40" viewBox="0 0 65 40" fill="none" xmlns="http://www.w3.org/2000/svg">
<g clip-path="url(#clip0)">
<path d="M64.7673 0H0V40H64.7673V0Z" fill="white"/>
<path d="M17.5499 10.8262C17.5499 11.6619 17.094 12.0798 16.6002 12.3457C17.3979 12.6116 17.9297 13.0674 17.9297 13.9791C17.9297 15.1947 16.9421 15.8404 15.4226 15.8404H12.3077V9.11679H15.3466C16.6762 9.11679 17.5499 9.76256 17.5499 10.8262ZM16.3343 11.0161C16.3343 10.4843 15.9164 10.1424 15.1567 10.1424H13.4473V11.9278H15.0807C15.8405 11.9658 16.3343 11.6619 16.3343 11.0161ZM16.7142 13.8651C16.7142 13.2953 16.2583 12.9534 15.3466 12.9534H13.4853V14.8148H15.4606C16.2203 14.8148 16.7142 14.4729 16.7142 13.8651Z" fill="black"/>
<path d="M24.9193 10.1804H21.1206V11.9278H24.5014V12.9914H21.1206V14.7768H24.9573V15.8404H19.943V9.11679H24.9193V10.1804Z" fill="black"/>
<path d="M27.0086 9.11679H28.1862V14.7768H31.7189V15.8404H27.0086V9.11679Z" fill="black"/>
<path d="M33.7322 9.11679H34.9098V14.7768H38.4426V15.8404H33.7322V9.11679Z" fill="black"/>
<path d="M45.4321 10.1804H41.6334V11.9278H45.0142V12.9914H41.6334V14.7768H45.5081V15.8404H40.4558V9.11679H45.4321V10.1804Z" fill="black"/>
<path d="M50.3324 11.9278C51.7379 12.2697 52.4976 12.8015 52.4976 13.9031C52.4976 15.1567 51.51 15.9164 50.1045 15.9164C49.0788 15.9164 48.0912 15.5745 47.2935 14.8528L48.0152 14.0171C48.661 14.5869 49.3068 14.8908 50.1425 14.8908C50.8642 14.8908 51.3201 14.5489 51.3201 14.0171C51.3201 13.5233 51.0541 13.2573 49.8006 12.9914C48.3571 12.6496 47.5594 12.2317 47.5594 10.9781C47.5594 9.80056 48.509 9.00284 49.8766 9.00284C50.8642 9.00284 51.6239 9.30673 52.3077 9.83855L51.6619 10.7502C51.0541 10.2944 50.4464 10.0665 49.8386 10.0665C49.1548 10.0665 48.737 10.4083 48.737 10.8642C48.699 11.396 49.0408 11.6239 50.3324 11.9278Z" fill="black"/>
<path d="M19.1073 21.6524H17.8917V18.3476H19.1073C20.1329 18.3476 20.8547 19.0693 20.8547 19.981C20.8547 20.9307 20.1329 21.6524 19.1073 21.6524ZM19.1073 18.8794H18.4615V21.1206H19.1073C19.7911 21.1206 20.2469 20.6648 20.2469 20.019C20.2469 19.3732 19.7911 18.8794 19.1073 18.8794Z" fill="black"/>
<path d="M24.3874 18.8794H22.5261V19.7531H24.1975V20.2469H22.5261V21.1586H24.4254V21.6524H21.9563V18.3476H24.3874V18.8794Z" fill="black"/>
<path d="M27.3124 20.8547H27.2744L26.2488 19.2973V21.6524H25.679V18.3476H26.2868L27.3124 19.9051L28.3001 18.3476H28.9079V21.6524H28.3381V19.2973L27.3124 20.8547Z" fill="black"/>
<path d="M32.5926 18.8794H30.7312V19.7531H32.4026V20.2469H30.7312V21.1586H32.6305V21.6524H30.1614V18.3476H32.5926V18.8794Z" fill="black"/>
<path d="M36.4672 20.2469C36.4672 21.2346 35.8974 21.7284 35.0617 21.7284C34.188 21.7284 33.6562 21.2346 33.6562 20.2849V18.3856H34.226V20.2469C34.226 20.8547 34.5299 21.1966 35.0617 21.1966C35.5935 21.1966 35.8974 20.8927 35.8974 20.2849V18.3856H36.4672V20.2469Z" fill="black"/>
<path d="M39.7721 21.6524L38.9744 20.5128H38.2526V21.6524H37.6828V18.3476H39.1643C39.924 18.3476 40.3799 18.7654 40.3799 19.4112C40.3799 19.943 40.038 20.2849 39.5821 20.3989L40.4558 21.6524H39.7721V21.6524ZM39.0503 18.8794H38.2146V19.981H39.0503C39.4682 19.981 39.7341 19.7531 39.7341 19.4112C39.7341 19.0693 39.5062 18.8794 39.0503 18.8794Z" fill="black"/>
<path d="M43.8746 18.8794H42.0133V19.7531H43.6467V20.2469H42.0133V21.1586H43.9126V21.6524H41.4435V18.3476H43.8746V18.8794Z" fill="black"/>
<path d="M46.2298 19.7531C46.9136 19.9051 47.2934 20.171 47.2934 20.7408C47.2934 21.3485 46.7996 21.7284 46.1158 21.7284C45.622 21.7284 45.1282 21.5385 44.7483 21.1966L45.0902 20.7787C45.3941 21.0447 45.736 21.1966 46.1158 21.1966C46.4577 21.1966 46.6856 21.0447 46.6856 20.7787C46.6856 20.5508 46.5717 20.3989 45.9259 20.2849C45.2042 20.133 44.8243 19.9051 44.8243 19.2973C44.8243 18.7275 45.2801 18.3476 45.9639 18.3476C46.4577 18.3476 46.8376 18.4995 47.1795 18.7655L46.8756 19.2213C46.5717 18.9934 46.2678 18.8794 45.9639 18.8794C45.622 18.8794 45.4321 19.0693 45.4321 19.2593C45.4701 19.4872 45.622 19.6012 46.2298 19.7531Z" fill="black"/>
<path d="M64.2355 39.4682H0.531814V0.531814H64.2735V39.4682H64.2355ZM64.7673 0H0V40H64.7673V0Z" fill="black"/>
<path d="M63.1719 38.3666H1.63342V1.63345H63.1719V38.3666ZM63.3238 1.44351H1.44348V38.5565H63.3238V1.44351V1.44351Z" fill="black"/>
<path d="M17.4359 30.7312C17.3979 30.7312 17.3979 30.7312 17.3979 30.7312C17.3979 30.7312 17.3979 30.7312 17.3599 30.7312C17.3979 30.5413 17.3979 30.4273 17.3599 30.3134C17.3219 30.1994 17.17 30.1614 16.9801 30.1614H16.6382H16.6002L16.2583 31.2251H16.4103C16.4862 31.2251 16.5622 31.2251 16.6002 31.2251C16.6382 31.2251 16.7142 31.1871 16.7521 31.1871C16.7901 31.1491 16.8281 31.1111 16.8281 31.0731C16.8661 31.0351 16.8661 30.9971 16.9041 30.9212H16.9421H16.9801L16.7142 31.7569H16.6762C16.6762 31.7569 16.6762 31.7569 16.6382 31.7569C16.6382 31.6809 16.6762 31.6429 16.6762 31.6049C16.6762 31.5669 16.6762 31.529 16.6382 31.491C16.6382 31.453 16.6002 31.415 16.5622 31.415C16.5242 31.377 16.4482 31.377 16.3723 31.377H16.2203L15.8405 32.5546C15.8405 32.5546 15.8405 32.5546 15.8784 32.5546H16.2203C16.2203 32.5546 16.2203 32.5546 16.2203 32.5926V32.6306H15.1187C15.1187 32.6306 15.1187 32.6306 15.1187 32.5926V32.5546H15.4226H15.4606L16.1823 30.2374H15.8784C15.8784 30.2374 15.8784 30.2374 15.8784 30.1994V30.1614H17.6258L17.4359 30.7312Z" fill="black"/>
<path d="M18.2716 32.4406C18.2336 32.4786 18.1956 32.5166 18.1577 32.5546C18.1197 32.5926 18.0817 32.5926 18.0437 32.6306C18.0057 32.6686 17.9677 32.6686 17.9297 32.6686C17.8538 32.6686 17.7778 32.6306 17.7018 32.5926C17.6638 32.5546 17.6258 32.4786 17.6258 32.4027C17.6258 32.3267 17.6258 32.2507 17.6638 32.1747C17.7018 32.0988 17.7398 31.9848 17.7778 31.9088C17.8158 31.7949 17.8538 31.7189 17.8917 31.6049C17.9297 31.491 17.9297 31.415 17.9297 31.339C17.9297 31.301 17.9297 31.2631 17.9297 31.2631C17.9297 31.2631 17.8917 31.2251 17.8538 31.2251C17.8158 31.2251 17.7778 31.2251 17.7398 31.2631C17.7018 31.301 17.6638 31.339 17.6258 31.415L17.5499 31.377C17.5879 31.301 17.6258 31.2631 17.6258 31.2251C17.6638 31.1871 17.7018 31.1491 17.7398 31.1111C17.7778 31.0731 17.8158 31.0731 17.8538 31.0731C17.8917 31.0731 17.9297 31.0731 17.9297 31.0731C18.0057 31.0731 18.0817 31.1111 18.1197 31.1491C18.1577 31.1871 18.1577 31.2631 18.1577 31.339C18.1577 31.415 18.1577 31.529 18.1197 31.6049C18.0817 31.7189 18.0437 31.7949 18.0057 31.8708C17.9677 31.9468 17.9297 32.0608 17.8917 32.1368C17.8538 32.2127 17.8538 32.2887 17.8538 32.3267C17.8538 32.3647 17.8538 32.4027 17.8917 32.4406C17.9297 32.4786 17.9297 32.4786 17.9677 32.4786C18.0057 32.4786 18.0817 32.4786 18.1197 32.4406C18.1577 32.4027 18.1956 32.3647 18.2716 32.2507L18.3476 32.2887C18.3476 32.3267 18.3096 32.4027 18.2716 32.4406ZM18.3856 30.4653C18.3476 30.5033 18.3096 30.5033 18.2716 30.5033C18.2336 30.5033 18.1956 30.5033 18.1577 30.4653C18.1197 30.4274 18.1197 30.3894 18.1197 30.3514C18.1197 30.3134 18.1197 30.2754 18.1577 30.2374C18.1956 30.1994 18.2336 30.1994 18.2716 30.1994C18.3096 30.1994 18.3476 30.1994 18.3856 30.2374C18.4236 30.2754 18.4236 30.3134 18.4236 30.3514C18.4236 30.3894 18.4236 30.4274 18.3856 30.4653Z" fill="black"/>
<path d="M20.3229 32.4406C20.2849 32.4786 20.2469 32.5166 20.2089 32.5546C20.1709 32.5926 20.133 32.5926 20.095 32.6306C20.057 32.6306 20.019 32.6686 19.981 32.6686C19.867 32.6686 19.8291 32.6306 19.7531 32.5926C19.7151 32.5546 19.6771 32.4786 19.6771 32.4027C19.6771 32.3267 19.6771 32.2507 19.7151 32.1747C19.7531 32.0988 19.7911 32.0228 19.8291 31.9468C19.867 31.8708 19.905 31.7949 19.943 31.7189C19.981 31.6429 19.981 31.5669 19.981 31.491C19.981 31.453 19.981 31.415 19.943 31.377C19.905 31.339 19.867 31.339 19.8291 31.339C19.7531 31.339 19.6771 31.377 19.5632 31.491C19.4492 31.6049 19.3352 31.7569 19.2213 31.9468L18.9934 32.5926H18.7274L19.1073 31.377C19.1073 31.339 19.1073 31.301 19.1073 31.2631C19.1073 31.2251 19.0693 31.2251 19.0313 31.2251C18.9934 31.2251 18.9554 31.2251 18.9174 31.2631C18.8794 31.301 18.8414 31.339 18.8034 31.415L18.7274 31.377C18.7654 31.301 18.8034 31.2631 18.8414 31.2251C18.8794 31.1871 18.9174 31.1491 18.9554 31.1111C18.9934 31.0731 19.0313 31.0731 19.0693 31.0731C19.1073 31.0731 19.1453 31.0731 19.1833 31.0731C19.2972 31.0731 19.3732 31.1111 19.3732 31.2251C19.3732 31.339 19.3732 31.453 19.2972 31.6809C19.3352 31.6049 19.4112 31.491 19.4872 31.415C19.5632 31.339 19.6011 31.2631 19.6771 31.2251C19.7531 31.1871 19.8291 31.1491 19.867 31.1111C19.943 31.0731 19.981 31.0731 20.057 31.0731C20.095 31.0731 20.095 31.0731 20.133 31.0731C20.1709 31.0731 20.1709 31.1111 20.2089 31.1111C20.2469 31.1491 20.2469 31.1491 20.2849 31.1871C20.2849 31.2251 20.3229 31.2631 20.3229 31.301C20.3229 31.377 20.3229 31.453 20.2849 31.5669C20.2469 31.6429 20.2089 31.7569 20.1709 31.8329C20.133 31.9088 20.095 32.0228 20.057 32.0988C20.019 32.1747 20.019 32.2507 20.019 32.3267C20.019 32.3647 20.019 32.4027 20.057 32.4406C20.057 32.4786 20.095 32.4786 20.133 32.4786C20.1709 32.4786 20.2469 32.4786 20.2849 32.4406C20.3229 32.4027 20.3609 32.3647 20.4368 32.2507L20.5128 32.2887C20.3989 32.3267 20.3609 32.4027 20.3229 32.4406Z" fill="black"/>
<path d="M21.9943 31.5669C21.9563 31.6429 21.9183 31.6809 21.8424 31.7189C21.7664 31.7569 21.6904 31.7949 21.5765 31.8328C21.4625 31.8708 21.3485 31.8708 21.2346 31.8708H21.0446C21.0446 31.9088 21.0446 31.9468 21.0067 31.9468C21.0067 31.9848 21.0067 31.9848 21.0067 32.0228C21.0067 32.0608 21.0067 32.0608 21.0067 32.0988C21.0067 32.1367 21.0067 32.1367 21.0067 32.1747C21.0067 32.2127 21.0067 32.2507 21.0067 32.2887C21.0067 32.3267 21.0446 32.3647 21.0446 32.4026C21.0826 32.4406 21.0826 32.4786 21.1586 32.4786C21.1966 32.5166 21.2346 32.5166 21.3105 32.5166C21.4245 32.5166 21.5385 32.4786 21.6144 32.4406C21.6904 32.4026 21.7664 32.3267 21.8424 32.2127L21.8803 32.2887C21.8044 32.4026 21.6904 32.4786 21.6144 32.5166C21.5005 32.5546 21.4245 32.5926 21.2726 32.5926C21.1966 32.5926 21.1206 32.5926 21.0446 32.5546C20.9687 32.5166 20.9307 32.4786 20.8547 32.4406C20.7787 32.4026 20.7787 32.3267 20.7407 32.2507C20.7028 32.1747 20.7028 32.0988 20.7028 32.0228C20.7028 31.9088 20.7407 31.7569 20.7787 31.6429C20.8167 31.529 20.8927 31.415 20.9687 31.339C21.0446 31.263 21.1586 31.1871 21.2726 31.1111C21.3865 31.0731 21.5005 31.0351 21.6144 31.0351C21.6904 31.0351 21.7664 31.0351 21.8044 31.0731C21.8424 31.1111 21.8803 31.1111 21.9183 31.1491C21.9563 31.1871 21.9563 31.2251 21.9943 31.2251C21.9943 31.263 22.0323 31.301 22.0323 31.339C22.0703 31.415 22.0323 31.491 21.9943 31.5669ZM21.6524 31.1491C21.5765 31.1491 21.5005 31.1491 21.4625 31.1871C21.4245 31.2251 21.3485 31.263 21.3105 31.301C21.2726 31.339 21.2346 31.415 21.1966 31.491C21.1586 31.5669 21.1206 31.6809 21.0826 31.7569H21.2726C21.3865 31.7569 21.4625 31.7569 21.5385 31.7189C21.6144 31.6809 21.6524 31.6429 21.6904 31.6049C21.7284 31.5669 21.7664 31.491 21.7664 31.453C21.7664 31.415 21.8044 31.339 21.8044 31.301C21.8424 31.1871 21.7664 31.1491 21.6524 31.1491Z" fill="black"/>
<path d="M23.4378 31.491C23.3998 31.529 23.3618 31.529 23.3238 31.529C23.2859 31.529 23.2479 31.529 23.2099 31.491C23.1719 31.453 23.1719 31.415 23.1719 31.415C23.1719 31.377 23.1719 31.339 23.2099 31.339C23.2099 31.339 23.2479 31.301 23.2479 31.263C23.2479 31.2251 23.2479 31.2251 23.2099 31.1871C23.2099 31.1491 23.1719 31.1491 23.0959 31.1491C23.0199 31.1491 22.944 31.1871 22.906 31.2251C22.868 31.263 22.83 31.339 22.83 31.415C22.83 31.491 22.868 31.5289 22.906 31.6049C22.944 31.6429 23.0199 31.7189 23.0579 31.7569C23.0959 31.7949 23.1719 31.8708 23.2099 31.9088C23.2479 31.9848 23.2858 32.0608 23.2858 32.1367C23.2858 32.1747 23.2859 32.2507 23.2479 32.2887C23.2479 32.3647 23.2099 32.4026 23.1719 32.4406C23.1339 32.4786 23.0579 32.5166 23.0199 32.5546C22.944 32.5926 22.868 32.5926 22.754 32.5926C22.6401 32.5926 22.5261 32.5546 22.4501 32.4786C22.3742 32.4026 22.3362 32.3267 22.3362 32.2507C22.3362 32.2127 22.3362 32.1747 22.3742 32.0988C22.4122 32.0608 22.4501 32.0228 22.4881 32.0228C22.5261 32.0228 22.5641 32.0228 22.6021 32.0608C22.6401 32.0988 22.6401 32.1367 22.6401 32.1367C22.6401 32.1747 22.6401 32.2127 22.6401 32.2127L22.6021 32.2507C22.6021 32.2507 22.5641 32.2507 22.5641 32.2887V32.3267C22.5641 32.3647 22.5641 32.4026 22.6021 32.4026C22.6401 32.4406 22.716 32.4406 22.792 32.4406C22.868 32.4406 22.944 32.4026 23.0199 32.3647C23.0579 32.3267 23.0959 32.2507 23.0959 32.1367C23.0959 32.0988 23.0959 32.0228 23.0579 31.9848C23.0199 31.9468 23.0199 31.9088 22.982 31.8708C22.944 31.8328 22.906 31.7949 22.868 31.7569C22.83 31.7189 22.792 31.6809 22.754 31.6429C22.716 31.6049 22.6781 31.5669 22.6781 31.529C22.6401 31.491 22.6401 31.453 22.6401 31.377C22.6401 31.301 22.6401 31.263 22.6781 31.1871C22.716 31.1111 22.754 31.0731 22.792 31.0351C22.83 30.9971 22.906 30.9592 22.944 30.9212C23.0199 30.8832 23.0579 30.8832 23.1339 30.8832C23.2479 30.8832 23.3238 30.9212 23.3998 30.9592C23.4758 31.0351 23.5138 31.1111 23.5138 31.1871C23.5138 31.415 23.4758 31.453 23.4378 31.491Z" fill="black"/>
<path d="M24.8433 31.0731C24.8433 31.0731 24.8433 31.1111 24.8433 31.0731C24.8433 31.1111 24.8433 31.1111 24.8053 31.1491H24.5394L24.1595 32.3647C24.1595 32.4027 24.1595 32.4407 24.1595 32.4407C24.1595 32.4786 24.1975 32.4786 24.2355 32.4786C24.2735 32.4786 24.3495 32.4786 24.3875 32.4407C24.4255 32.4027 24.4634 32.3647 24.5394 32.2507L24.6154 32.2887C24.5774 32.3647 24.5394 32.4027 24.5014 32.4407C24.4634 32.4786 24.4255 32.5166 24.3875 32.5546C24.3495 32.5926 24.3115 32.5926 24.2735 32.6306C24.2355 32.6686 24.1975 32.6686 24.1595 32.6686C24.0456 32.6686 23.9696 32.6306 23.9316 32.5546C23.8936 32.4786 23.8936 32.3647 23.9316 32.2127L24.2735 31.1491H24.0076C24.0076 31.1491 24.0076 31.1491 24.0076 31.1111V31.0731H24.2735L24.4255 30.5793L24.7293 30.5413L24.5774 31.0731H24.8433Z" fill="black"/>
<path d="M27.3504 31.9848C27.3124 32.0988 27.2365 32.2127 27.1225 32.3267C27.0465 32.4406 26.9326 32.5166 26.8186 32.5546C26.7046 32.6306 26.5907 32.6306 26.4387 32.6306C26.3628 32.6306 26.2868 32.6306 26.2488 32.5926C26.2108 32.5546 26.1728 32.5546 26.1348 32.5166L25.755 33.6942H25.4891L26.2108 31.377C26.2108 31.339 26.2108 31.301 26.2108 31.2631C26.2108 31.2251 26.1728 31.2251 26.1348 31.2251C26.0969 31.2251 26.0589 31.2251 26.0209 31.2631C25.9829 31.301 25.9449 31.339 25.9069 31.415L25.831 31.377C25.8689 31.301 25.9069 31.2251 25.9829 31.1491C26.0589 31.0731 26.1348 31.0731 26.2488 31.0731C26.3248 31.0731 26.4008 31.1111 26.4387 31.1871C26.4767 31.2631 26.4767 31.339 26.4387 31.491C26.4767 31.453 26.5147 31.377 26.5147 31.339C26.5527 31.301 26.5907 31.2631 26.6287 31.2251C26.6667 31.1871 26.7046 31.1491 26.7426 31.1491C26.7806 31.1111 26.8186 31.1111 26.8946 31.1111C26.9706 31.1111 27.0465 31.1111 27.1225 31.1491C27.1985 31.1871 27.2365 31.2251 27.2745 31.2631C27.3124 31.301 27.3504 31.377 27.3504 31.453C27.3504 31.529 27.3884 31.6049 27.3884 31.6429C27.4264 31.7189 27.4264 31.8329 27.3504 31.9848ZM27.1225 31.2631C27.0845 31.2251 27.0085 31.1871 26.9326 31.1871C26.8566 31.1871 26.8186 31.2251 26.7806 31.2631C26.7426 31.301 26.6667 31.377 26.6287 31.453C26.5907 31.529 26.5527 31.6049 26.4767 31.7189C26.4387 31.7949 26.4008 31.9088 26.3628 31.9848L26.2108 32.4027C26.2108 32.4786 26.2488 32.5166 26.3248 32.5166C26.4008 32.5166 26.4387 32.5546 26.5147 32.5546C26.5527 32.5546 26.6287 32.5546 26.6667 32.5166C26.7046 32.4786 26.7426 32.4786 26.7806 32.4406C26.8566 32.4027 26.8946 32.3267 26.9706 32.2507C27.0465 32.1747 27.0845 32.0988 27.0845 31.9848C27.1225 31.9088 27.1605 31.7949 27.1605 31.7189C27.1605 31.6429 27.1985 31.529 27.1985 31.453C27.1605 31.377 27.1605 31.301 27.1225 31.2631Z" fill="black"/>
<path d="M29.1738 31.415C29.1738 31.453 29.1358 31.453 29.1358 31.491C29.1358 31.529 29.0978 31.529 29.0598 31.529C29.0218 31.529 29.0218 31.5669 28.9838 31.5669C28.9459 31.5669 28.9079 31.5669 28.8699 31.529C28.8319 31.491 28.8699 31.453 28.8699 31.453C28.8699 31.415 28.8699 31.377 28.8699 31.377V31.339C28.8699 31.301 28.8699 31.301 28.8699 31.2631C28.8699 31.2251 28.8319 31.2251 28.8319 31.2251C28.7939 31.2251 28.7939 31.2251 28.7559 31.2631C28.7179 31.301 28.68 31.339 28.642 31.377C28.604 31.415 28.566 31.491 28.528 31.5669C28.49 31.6429 28.414 31.7569 28.3761 31.8708L28.1481 32.5926H27.8822L28.2621 31.377C28.2621 31.339 28.2621 31.301 28.2621 31.2631C28.2621 31.2251 28.2241 31.2251 28.1861 31.2251C28.1481 31.2251 28.1102 31.2251 28.0722 31.2631C28.0342 31.301 27.9962 31.339 27.9582 31.415L27.8822 31.377C27.9202 31.301 27.9582 31.2631 27.9962 31.2251C28.0342 31.1871 28.0722 31.1491 28.1102 31.1111C28.1481 31.0731 28.1861 31.0731 28.2241 31.0731C28.2621 31.0731 28.3001 31.0731 28.3381 31.0731C28.452 31.0731 28.49 31.1111 28.528 31.1871C28.566 31.2631 28.566 31.377 28.49 31.529C28.642 31.2251 28.7939 31.0731 28.9838 31.0731C29.0598 31.0731 29.1358 31.1111 29.1738 31.1491C29.2118 31.1871 29.2498 31.2631 29.2498 31.339C29.2118 31.377 29.2118 31.377 29.1738 31.415Z" fill="black"/>
<path d="M30.8452 32.0228C30.8072 32.1367 30.7312 32.2507 30.6553 32.3267C30.5793 32.4027 30.4653 32.4786 30.3514 32.5546C30.2374 32.6306 30.1235 32.6306 30.0095 32.6306C29.9335 32.6306 29.8576 32.6306 29.7816 32.5926C29.7056 32.5546 29.6676 32.5166 29.5916 32.4786C29.5157 32.4406 29.5157 32.3647 29.4777 32.2887C29.4397 32.2127 29.4397 32.1367 29.4397 32.0608C29.4397 31.9468 29.4777 31.7949 29.5157 31.6809C29.5537 31.5669 29.6296 31.453 29.7056 31.377C29.7816 31.301 29.8955 31.2251 30.0095 31.1491C30.1235 31.1111 30.2374 31.0731 30.3514 31.0731C30.4274 31.0731 30.5033 31.0731 30.5793 31.1111C30.6553 31.1491 30.6933 31.1871 30.7692 31.2251C30.8072 31.2631 30.8452 31.339 30.8832 31.415C30.9212 31.491 30.9212 31.5669 30.9212 31.6429C30.9212 31.7949 30.9212 31.9088 30.8452 32.0228ZM30.6933 31.377C30.6933 31.339 30.6553 31.301 30.6553 31.2631C30.6173 31.2251 30.6173 31.1871 30.5413 31.1871C30.5033 31.1491 30.4274 31.1491 30.3894 31.1491C30.2754 31.1491 30.1994 31.1871 30.1235 31.2251C30.0475 31.2631 30.0095 31.339 29.9715 31.415C29.9715 31.453 29.9335 31.491 29.8955 31.5669C29.8575 31.6429 29.8576 31.7189 29.8196 31.7949C29.7816 31.8708 29.7816 31.9468 29.7436 32.0228C29.7056 32.0988 29.7056 32.1747 29.7056 32.2127C29.7056 32.2507 29.7056 32.2887 29.7056 32.3267C29.7056 32.3647 29.7436 32.4027 29.7436 32.4406C29.7816 32.4786 29.7816 32.5166 29.8576 32.5166C29.8955 32.5546 29.9335 32.5546 30.0095 32.5546C30.1235 32.5546 30.1994 32.5166 30.2754 32.4786C30.3514 32.4406 30.3894 32.3647 30.4274 32.2887C30.4274 32.2507 30.4653 32.2127 30.5033 32.1367C30.5413 32.0608 30.5413 31.9848 30.5793 31.9088C30.6173 31.8329 30.6173 31.7569 30.6553 31.6809C30.6553 31.6049 30.6933 31.529 30.6933 31.491C30.6933 31.453 30.6933 31.415 30.6933 31.377Z" fill="black"/>
<path d="M32.8585 31.9848C32.8205 32.0988 32.7445 32.2127 32.6306 32.3267C32.5546 32.4406 32.4407 32.5166 32.3267 32.5546C32.2127 32.6306 32.0988 32.6306 31.9468 32.6306C31.8709 32.6306 31.7949 32.6306 31.7569 32.5926C31.7189 32.5546 31.6809 32.5546 31.6429 32.5166L31.2631 33.6942H30.9972L31.7189 31.377C31.7189 31.339 31.7189 31.301 31.7189 31.2631C31.7189 31.2251 31.6809 31.2251 31.6429 31.2251C31.605 31.2251 31.567 31.2251 31.529 31.2631C31.491 31.301 31.453 31.339 31.415 31.415L31.339 31.377C31.377 31.301 31.415 31.2251 31.491 31.1491C31.567 31.0731 31.6429 31.0731 31.7569 31.0731C31.8329 31.0731 31.9088 31.1111 31.9468 31.1871C31.9848 31.2631 31.9848 31.339 31.9468 31.491C31.9848 31.453 32.0228 31.377 32.0228 31.339C32.0608 31.301 32.0988 31.2631 32.1368 31.2251C32.1747 31.1871 32.2127 31.1491 32.2507 31.1491C32.2887 31.1111 32.3267 31.1111 32.4027 31.1111C32.4786 31.1111 32.5546 31.1111 32.6306 31.1491C32.7066 31.1871 32.7445 31.2251 32.7825 31.2631C32.8205 31.301 32.8585 31.377 32.8585 31.453C32.8585 31.529 32.8965 31.6049 32.8965 31.6429C32.9345 31.7189 32.8965 31.8329 32.8585 31.9848ZM32.6306 31.2631C32.5926 31.2251 32.5166 31.1871 32.4407 31.1871C32.3647 31.1871 32.3267 31.2251 32.2887 31.2631C32.2507 31.301 32.1747 31.377 32.1368 31.453C32.0988 31.529 32.0608 31.6049 31.9848 31.7189C31.9468 31.7949 31.9088 31.9088 31.8709 31.9848L31.7189 32.4406C31.7189 32.5166 31.7569 32.5546 31.8329 32.5546C31.9088 32.5546 31.9468 32.5926 32.0228 32.5926C32.0608 32.5926 32.1368 32.5926 32.1747 32.5546C32.2127 32.5166 32.2507 32.5166 32.2887 32.4786C32.3647 32.4406 32.4027 32.3647 32.4786 32.2887C32.5546 32.2127 32.5926 32.1367 32.5926 32.0228C32.6306 31.9468 32.6686 31.8329 32.6686 31.7569C32.6686 31.6809 32.7066 31.5669 32.7066 31.491C32.6686 31.377 32.6686 31.301 32.6306 31.2631Z" fill="black"/>
<path d="M34.6059 31.5669C34.5679 31.6429 34.5299 31.6809 34.4539 31.7189C34.378 31.7569 34.302 31.7949 34.188 31.8329C34.0741 31.8708 33.9601 31.8708 33.8462 31.8708H33.6562C33.6562 31.9088 33.6562 31.9468 33.6182 31.9468C33.6182 31.9848 33.6182 31.9848 33.6182 32.0228C33.6182 32.0608 33.6182 32.0608 33.6182 32.0988C33.6182 32.1367 33.6182 32.1367 33.6182 32.1747C33.6182 32.2127 33.6182 32.2507 33.6182 32.2887C33.6182 32.3267 33.6562 32.3647 33.6562 32.4027C33.6942 32.4406 33.6942 32.4786 33.7702 32.4786C33.8082 32.5166 33.8462 32.5166 33.9221 32.5166C34.0361 32.5166 34.1501 32.4786 34.226 32.4406C34.302 32.4027 34.378 32.3267 34.4539 32.2127L34.4919 32.2887C34.416 32.4027 34.302 32.4786 34.226 32.5166C34.1121 32.5546 34.0361 32.5926 33.8841 32.5926C33.8082 32.5926 33.7322 32.5926 33.6562 32.5546C33.5803 32.5166 33.5423 32.4786 33.4663 32.4406C33.3903 32.4027 33.4283 32.3647 33.4283 32.2887C33.3903 32.2127 33.3903 32.1367 33.3903 32.0608C33.3903 31.9468 33.4283 31.7949 33.4663 31.6809C33.5043 31.5669 33.5803 31.453 33.6562 31.377C33.7322 31.301 33.8462 31.2251 33.9601 31.1491C34.0741 31.0731 34.188 31.0731 34.302 31.0731C34.378 31.0731 34.4539 31.0731 34.4919 31.1111C34.5299 31.1491 34.5679 31.1491 34.5679 31.1491C34.6059 31.1871 34.6059 31.2251 34.6439 31.2251C34.6439 31.2631 34.6819 31.301 34.6819 31.339C34.6819 31.415 34.6439 31.491 34.6059 31.5669ZM34.264 31.1491C34.188 31.1491 34.1121 31.1491 34.0741 31.1871C34.0361 31.2251 33.9601 31.2631 33.9221 31.301C33.8841 31.339 33.8462 31.415 33.8082 31.491C33.7702 31.5669 33.7322 31.6809 33.6942 31.7569H33.8841C33.9981 31.7569 34.0741 31.7569 34.1501 31.7189C34.226 31.6809 34.264 31.6429 34.302 31.6049C34.34 31.5669 34.378 31.491 34.378 31.453C34.378 31.415 34.416 31.339 34.416 31.301C34.416 31.1871 34.378 31.1491 34.264 31.1491Z" fill="black"/>
<path d="M36.3533 31.415C36.3533 31.453 36.3153 31.453 36.3153 31.491C36.3153 31.529 36.2773 31.529 36.2393 31.529C36.2013 31.529 36.2013 31.5669 36.1633 31.5669C36.1254 31.5669 36.0874 31.5669 36.0494 31.529C36.0114 31.491 36.0114 31.453 36.0114 31.453C36.0114 31.415 36.0114 31.377 36.0114 31.377V31.339C36.0114 31.301 36.0114 31.301 36.0114 31.2631L35.9734 31.2251C35.9354 31.2251 35.9354 31.2251 35.8974 31.2631C35.8595 31.301 35.8215 31.339 35.7835 31.377C35.7455 31.415 35.7075 31.491 35.6695 31.5669C35.6315 31.6429 35.5556 31.7569 35.5176 31.8708L35.3276 32.5926H35.0617L35.4416 31.377C35.4416 31.339 35.4416 31.301 35.4416 31.2631C35.4416 31.2251 35.4036 31.2251 35.3656 31.2251C35.3276 31.2251 35.2897 31.2251 35.2517 31.2631C35.2137 31.301 35.1757 31.339 35.1377 31.415L35.0617 31.377C35.0997 31.301 35.1377 31.2631 35.1757 31.2251C35.2137 31.1871 35.2517 31.1491 35.2897 31.1111C35.3276 31.0731 35.3656 31.0731 35.4036 31.0731C35.4416 31.0731 35.4796 31.0731 35.5176 31.0731C35.6315 31.0731 35.6695 31.1111 35.7075 31.1871C35.7455 31.2631 35.7455 31.377 35.6695 31.529C35.8215 31.2251 35.9734 31.0731 36.1633 31.0731C36.2393 31.0731 36.3153 31.1111 36.3533 31.1491C36.3913 31.1871 36.4293 31.2631 36.4293 31.339C36.3533 31.377 36.3533 31.377 36.3533 31.415Z" fill="black"/>
<path d="M37.6068 31.0731C37.6068 31.0731 37.6068 31.1111 37.6068 31.0731C37.6068 31.1111 37.6069 31.1111 37.5689 31.1491H37.303L36.9231 32.3647C36.9231 32.4027 36.9231 32.4407 36.9231 32.4407C36.9231 32.4786 36.9611 32.4786 36.9991 32.4786C37.0371 32.4786 37.113 32.4786 37.151 32.4407C37.189 32.4027 37.227 32.3647 37.303 32.2507L37.3789 32.2887C37.3409 32.3647 37.303 32.4027 37.265 32.4407C37.227 32.4786 37.189 32.5166 37.151 32.5546C37.113 32.5926 37.075 32.5926 37.0371 32.6306C36.9991 32.6306 36.9611 32.6686 36.9231 32.6686C36.8091 32.6686 36.7332 32.6306 36.6952 32.5546C36.6572 32.4786 36.6572 32.3647 36.6952 32.2127L37.0371 31.1491H36.7712C36.7712 31.1491 36.7712 31.1491 36.7712 31.1111V31.0731H37.0371L37.189 30.5793L37.4929 30.5413L37.3409 31.0731H37.6068Z" fill="black"/>
<path d="M38.4425 32.4406C38.4046 32.4786 38.3666 32.5166 38.3286 32.5546C38.2906 32.5926 38.2526 32.5926 38.2146 32.6306C38.1766 32.6306 38.1386 32.6686 38.1007 32.6686C38.0247 32.6686 37.9487 32.6306 37.8727 32.5926C37.8348 32.5546 37.7968 32.4786 37.7968 32.4027C37.7968 32.3267 37.7968 32.2507 37.8348 32.1747C37.8727 32.0988 37.9107 31.9848 37.9487 31.9088C37.9867 31.7949 38.0247 31.7189 38.0627 31.6049C38.1007 31.491 38.1007 31.415 38.1007 31.339C38.1007 31.301 38.1007 31.2631 38.1007 31.2631C38.1007 31.2631 38.0627 31.2251 38.0247 31.2251C37.9867 31.2251 37.9487 31.2251 37.9107 31.2631C37.8727 31.301 37.8348 31.339 37.7968 31.415L37.7208 31.377C37.7588 31.301 37.7968 31.2631 37.7968 31.2251C37.8348 31.1871 37.8727 31.1491 37.9107 31.1111C37.9487 31.0731 37.9867 31.0731 38.0247 31.0731C38.0627 31.0731 38.1007 31.0731 38.1007 31.0731C38.1766 31.0731 38.2526 31.1111 38.2906 31.1491C38.3286 31.1871 38.3286 31.2631 38.3286 31.339C38.3286 31.415 38.3286 31.529 38.2906 31.6049C38.2526 31.7189 38.2146 31.7949 38.1766 31.8708C38.1386 31.9468 38.1007 32.0608 38.0627 32.1368C38.0247 32.2127 38.0247 32.2887 38.0247 32.3267C38.0247 32.3647 38.0247 32.4027 38.0627 32.4406C38.0627 32.4786 38.1007 32.4786 38.1386 32.4786C38.1766 32.4786 38.2526 32.4786 38.2906 32.4406C38.3286 32.4027 38.3666 32.3647 38.4425 32.2507L38.5185 32.2887C38.5185 32.3267 38.4805 32.4027 38.4425 32.4406ZM38.5565 30.4653C38.5185 30.5033 38.4805 30.5033 38.4425 30.5033C38.4046 30.5033 38.3666 30.5033 38.3286 30.4653C38.2906 30.4274 38.2906 30.3894 38.2906 30.3514C38.2906 30.3134 38.2906 30.2754 38.3286 30.2374C38.3666 30.1994 38.4046 30.1994 38.4425 30.1994C38.4805 30.1994 38.5185 30.1994 38.5565 30.2374C38.5945 30.2754 38.5945 30.3134 38.5945 30.3514C38.5945 30.3894 38.5945 30.4274 38.5565 30.4653Z" fill="black"/>
<path d="M40.152 31.5669C40.114 31.6429 40.076 31.6809 40 31.7189C39.924 31.7569 39.8481 31.7949 39.7341 31.8328C39.6201 31.8708 39.5062 31.8708 39.3922 31.8708H39.2023C39.2023 31.9088 39.2023 31.9468 39.1643 31.9468C39.1643 31.9848 39.1643 31.9848 39.1643 32.0228C39.1643 32.0608 39.1643 32.0608 39.1643 32.0988C39.1643 32.1367 39.1643 32.1367 39.1643 32.1747C39.1643 32.2127 39.1643 32.2507 39.1643 32.2887C39.1643 32.3267 39.2023 32.3647 39.2023 32.4026C39.2023 32.4406 39.2403 32.4786 39.3162 32.4786C39.3542 32.5166 39.3922 32.5166 39.4682 32.5166C39.5822 32.5166 39.6961 32.4786 39.7721 32.4406C39.8481 32.4026 39.924 32.3267 40 32.2127L40.038 32.2887C39.962 32.4026 39.8481 32.4786 39.7721 32.5166C39.6581 32.5546 39.5822 32.5926 39.4302 32.5926C39.3542 32.5926 39.2783 32.5926 39.2023 32.5546C39.1263 32.5166 39.0883 32.4786 39.0124 32.4406C38.9364 32.4026 38.9364 32.3267 38.8984 32.2507C38.8604 32.1747 38.8604 32.0988 38.8604 32.0228C38.8604 31.9088 38.8984 31.7569 38.9364 31.6429C38.9744 31.529 39.0503 31.415 39.1263 31.339C39.2023 31.263 39.3163 31.1871 39.4302 31.1111C39.5442 31.0731 39.6581 31.0351 39.7721 31.0351C39.8481 31.0351 39.924 31.0351 39.962 31.0731C40 31.1111 40.038 31.1111 40.076 31.1491C40.114 31.1871 40.114 31.2251 40.152 31.2251C40.152 31.263 40.1899 31.301 40.1899 31.339C40.1899 31.415 40.1899 31.491 40.152 31.5669ZM39.7721 31.1491C39.6961 31.1491 39.6201 31.1491 39.5822 31.1871C39.5442 31.2251 39.4682 31.263 39.4302 31.301C39.3922 31.339 39.3542 31.415 39.3162 31.491C39.2783 31.5669 39.2403 31.6809 39.2023 31.7569H39.3922C39.5062 31.7569 39.5822 31.7569 39.6581 31.7189C39.7341 31.6809 39.7721 31.6429 39.8101 31.6049C39.8481 31.5669 39.886 31.491 39.886 31.453C39.886 31.415 39.924 31.339 39.924 31.301C39.962 31.1871 39.886 31.1491 39.7721 31.1491Z" fill="black"/>
<path d="M41.5955 31.491C41.5575 31.529 41.5195 31.529 41.4815 31.529C41.4435 31.529 41.4055 31.529 41.3675 31.491C41.3295 31.453 41.3295 31.415 41.3295 31.415C41.3295 31.377 41.3295 31.339 41.3675 31.339C41.3675 31.339 41.4055 31.301 41.4055 31.263C41.4055 31.2251 41.4055 31.2251 41.3675 31.1871C41.3295 31.1491 41.2916 31.1491 41.2536 31.1491C41.1776 31.1491 41.1016 31.1871 41.0636 31.2251C41.0257 31.263 40.9877 31.339 40.9877 31.415C40.9877 31.491 41.0257 31.5289 41.0636 31.6049C41.1016 31.6429 41.1776 31.7189 41.2156 31.7569C41.2916 31.7949 41.3295 31.8708 41.3675 31.9088C41.4055 31.9848 41.4435 32.0608 41.4435 32.1367C41.4435 32.1747 41.4435 32.2507 41.4055 32.2887C41.4055 32.3647 41.3675 32.4026 41.3295 32.4406C41.2916 32.4786 41.2156 32.5166 41.1776 32.5546C41.1396 32.5926 41.0257 32.5926 40.9117 32.5926C40.7977 32.5926 40.6838 32.5546 40.6078 32.4786C40.5318 32.4026 40.4938 32.3267 40.4938 32.2507C40.4938 32.2127 40.4938 32.1747 40.5318 32.0988C40.5698 32.0608 40.6078 32.0228 40.6458 32.0228C40.6838 32.0228 40.7218 32.0228 40.7597 32.0608C40.7977 32.0988 40.7977 32.1367 40.7977 32.1367C40.7977 32.1747 40.7977 32.2127 40.7977 32.2127L40.7597 32.2507C40.7597 32.2507 40.7218 32.2507 40.7218 32.2887V32.3267C40.7218 32.3647 40.7218 32.4026 40.7597 32.4026C40.7977 32.4406 40.8737 32.4406 40.9497 32.4406C41.0257 32.4406 41.1016 32.4026 41.1776 32.3647C41.2156 32.3267 41.2536 32.2507 41.2536 32.1367C41.2536 32.0988 41.2536 32.0228 41.2156 31.9848C41.1776 31.9468 41.1776 31.9088 41.1396 31.8708C41.1016 31.8328 41.0636 31.7949 41.0257 31.7569C40.9877 31.7189 40.9497 31.6809 40.9117 31.6429C40.8737 31.6049 40.8357 31.5669 40.8357 31.529C40.7977 31.491 40.7977 31.453 40.7977 31.377C40.7977 31.301 40.7977 31.263 40.8357 31.1871C40.8737 31.1111 40.9117 31.0731 40.9497 31.0351C40.9877 30.9971 41.0636 30.9592 41.1016 30.9212C41.1776 30.8832 41.2156 30.8832 41.2916 30.8832C41.4055 30.8832 41.4815 30.9212 41.5575 30.9592C41.6334 31.0351 41.6714 31.1111 41.6714 31.1871C41.6334 31.415 41.5955 31.453 41.5955 31.491Z" fill="black"/>
<path d="M44.2545 32.0228C44.2165 32.1367 44.1405 32.2507 44.0646 32.3267C43.9886 32.4027 43.8746 32.4786 43.7607 32.5546C43.6467 32.5926 43.5328 32.6306 43.4188 32.6306C43.3428 32.6306 43.2668 32.6306 43.1909 32.5926C43.1149 32.5546 43.0769 32.5166 43.0009 32.4786C42.925 32.4406 42.925 32.3647 42.887 32.2887C42.849 32.2127 42.849 32.1367 42.849 32.0608C42.849 31.9468 42.887 31.7949 42.925 31.6809C42.963 31.5669 43.0389 31.453 43.1149 31.377C43.1909 31.301 43.3048 31.2251 43.4188 31.1491C43.5328 31.1111 43.6467 31.0731 43.7607 31.0731C43.8366 31.0731 43.9126 31.0731 43.9886 31.1111C44.0646 31.1491 44.1026 31.1871 44.1785 31.2251C44.2165 31.2631 44.2545 31.339 44.2925 31.415C44.3305 31.491 44.3305 31.5669 44.3305 31.6429C44.3305 31.7949 44.2925 31.9088 44.2545 32.0228ZM44.0646 31.377C44.0646 31.339 44.0266 31.301 44.0266 31.2631C43.9886 31.2251 43.9886 31.1871 43.9126 31.1871C43.8746 31.1491 43.8366 31.1491 43.7607 31.1491C43.6467 31.1491 43.5707 31.1871 43.4948 31.2251C43.4188 31.2631 43.3808 31.339 43.3428 31.415C43.3428 31.453 43.3048 31.491 43.2669 31.5669C43.2289 31.6429 43.2289 31.7189 43.1909 31.7949C43.1529 31.8708 43.1529 31.9468 43.1149 32.0228C43.1149 32.0988 43.0769 32.1747 43.0769 32.2127C43.0769 32.2507 43.0769 32.2887 43.0769 32.3267C43.0769 32.3647 43.1149 32.4027 43.1149 32.4406C43.1529 32.4786 43.1529 32.5166 43.2289 32.5166C43.2669 32.5546 43.3048 32.5546 43.3808 32.5546C43.4948 32.5546 43.5707 32.5166 43.6467 32.4786C43.7227 32.4406 43.7607 32.3647 43.7987 32.2887C43.7987 32.2507 43.8366 32.2127 43.8746 32.1367C43.9126 32.0608 43.9126 31.9848 43.9506 31.9088C43.9886 31.8329 43.9886 31.7569 44.0266 31.6809C44.0266 31.6049 44.0646 31.529 44.0646 31.491C44.1026 31.453 44.1026 31.415 44.0646 31.377Z" fill="black"/>
<path d="M46.3818 32.4407C46.3438 32.4786 46.3058 32.5166 46.2678 32.5546C46.2298 32.5926 46.1918 32.5926 46.1539 32.6306C46.1159 32.6306 46.0779 32.6686 46.0399 32.6686C45.9259 32.6686 45.888 32.6306 45.812 32.5926C45.774 32.5546 45.736 32.4786 45.736 32.4027C45.736 32.3267 45.736 32.2507 45.774 32.1747C45.812 32.0988 45.85 32.0228 45.888 31.9468C45.9259 31.8709 45.9639 31.7949 46.0019 31.7189C46.0399 31.6429 46.0399 31.567 46.0399 31.491C46.0399 31.453 46.0399 31.415 46.0019 31.377C45.9639 31.339 45.9259 31.339 45.888 31.339C45.812 31.339 45.736 31.377 45.622 31.491C45.5081 31.6049 45.3941 31.7569 45.2802 31.9468L45.0523 32.6686H44.7863L45.1662 31.453C45.1662 31.415 45.1662 31.377 45.1662 31.339C45.1662 31.3011 45.1282 31.3011 45.0902 31.3011C45.0522 31.3011 45.0143 31.3011 44.9763 31.339C44.9383 31.377 44.9003 31.415 44.8623 31.491L44.7863 31.453C44.8243 31.377 44.8623 31.339 44.9003 31.3011C44.9383 31.2631 44.9763 31.2251 45.0143 31.1871C45.0523 31.1491 45.0902 31.1491 45.1282 31.1491C45.1662 31.1491 45.2042 31.1491 45.2422 31.1491C45.3561 31.1491 45.4321 31.1871 45.4321 31.3011C45.4701 31.377 45.4321 31.529 45.3561 31.7569C45.3941 31.6809 45.4701 31.567 45.5461 31.491C45.622 31.415 45.66 31.339 45.736 31.3011C45.812 31.2631 45.888 31.2251 45.9259 31.1871C46.0019 31.1491 46.0399 31.1491 46.1159 31.1491C46.1539 31.1491 46.1539 31.1491 46.1918 31.1491C46.2298 31.1491 46.2298 31.1871 46.2678 31.1871C46.3058 31.2251 46.3058 31.2251 46.3438 31.2631C46.3438 31.3011 46.3818 31.339 46.3818 31.377C46.3818 31.453 46.3818 31.529 46.3438 31.6429C46.3058 31.7189 46.2678 31.8329 46.2298 31.9088C46.1918 31.9848 46.1539 32.0988 46.1159 32.1747C46.0779 32.2507 46.0779 32.3267 46.0779 32.4027C46.0779 32.4407 46.0779 32.4786 46.1159 32.5166C46.1539 32.5546 46.1539 32.5546 46.1918 32.5546C46.2298 32.5546 46.3058 32.5546 46.3438 32.5166C46.3818 32.4786 46.4198 32.4407 46.4957 32.3267L46.5717 32.3647C46.4577 32.3267 46.4577 32.4027 46.3818 32.4407Z" fill="black"/>
<path d="M47.1035 32.3647C47.1035 32.4027 47.1035 32.4406 47.1035 32.4406C47.1035 32.4786 47.1415 32.4786 47.1795 32.4786C47.2555 32.4786 47.2935 32.4406 47.3315 32.4027C47.3694 32.3647 47.4074 32.2887 47.4454 32.2507L47.5214 32.2887C47.4834 32.3647 47.4454 32.4027 47.4074 32.4406C47.3694 32.4786 47.3315 32.5166 47.2935 32.5546C47.2555 32.5926 47.2175 32.5926 47.1795 32.6306C47.1415 32.6306 47.1035 32.6686 47.0656 32.6686C46.9516 32.6686 46.8756 32.6306 46.8376 32.5546C46.7996 32.4786 46.7996 32.3647 46.8376 32.2507L47.4834 30.1235H47.2935C47.2935 30.1235 47.2935 30.1235 47.2935 30.0855V30.0475H47.7873L47.1035 32.3647Z" fill="black"/>
<path d="M49.5347 31.263C49.4967 31.263 49.4967 31.301 49.4587 31.301C49.3827 31.339 49.3068 31.339 49.2688 31.415C49.2308 31.453 49.1548 31.529 49.1168 31.6049C49.0788 31.6809 49.0029 31.7949 48.9269 31.9468C48.8509 32.0988 48.7749 32.2887 48.699 32.5166C48.623 32.7065 48.547 32.8965 48.471 33.0484C48.3951 33.2004 48.3191 33.3143 48.2811 33.4283C48.2051 33.5423 48.1292 33.6182 48.0532 33.6562C47.9772 33.6942 47.9012 33.7322 47.7873 33.7322C47.6733 33.7322 47.5974 33.6942 47.5214 33.6562C47.4454 33.5802 47.4454 33.5423 47.4454 33.4283C47.4454 33.3523 47.4454 33.3143 47.4834 33.2763C47.5214 33.2384 47.5594 33.2384 47.5974 33.2384C47.6353 33.2384 47.6733 33.2384 47.7113 33.2763C47.7493 33.3143 47.7493 33.3143 47.7493 33.3523C47.7493 33.3903 47.7493 33.4283 47.7113 33.4663C47.6733 33.5043 47.6733 33.5423 47.6733 33.5423C47.6733 33.5802 47.6733 33.6182 47.7113 33.6182C47.7113 33.6182 47.7493 33.6182 47.7873 33.6182C47.8633 33.6182 47.9392 33.5802 48.0152 33.5423C48.0912 33.5043 48.1292 33.4283 48.2051 33.3143C48.2811 33.2384 48.3191 33.1244 48.3951 32.9725C48.471 32.8205 48.509 32.7065 48.585 32.5166L48.471 31.7949C48.4331 31.6809 48.4331 31.5669 48.3951 31.491C48.3571 31.415 48.3571 31.377 48.3191 31.339C48.2811 31.301 48.2811 31.301 48.2431 31.263C48.2051 31.2251 48.2051 31.263 48.1672 31.263C48.1292 31.263 48.0912 31.263 48.0912 31.301C48.0912 31.339 48.0532 31.377 48.0152 31.415L47.9392 31.377C48.0152 31.263 48.0912 31.1871 48.1292 31.1111C48.2051 31.0731 48.2811 31.0351 48.3571 31.0351C48.3951 31.0351 48.4331 31.0351 48.471 31.0731C48.509 31.0731 48.509 31.1111 48.547 31.1491C48.585 31.1871 48.585 31.263 48.623 31.339C48.661 31.415 48.661 31.529 48.699 31.6429L48.7749 32.0988C48.9269 31.7569 49.0408 31.491 49.1548 31.301C49.2688 31.1111 49.3827 31.0351 49.4967 31.0351C49.5347 31.0351 49.5727 31.0351 49.5727 31.0731C49.5727 31.0731 49.6107 31.1111 49.6107 31.1491C49.5727 31.1871 49.5347 31.2251 49.5347 31.263Z" fill="black"/>
<path d="M49.6107 32.5926C49.5727 32.6306 49.5347 32.6686 49.4587 32.6686C49.4207 32.6686 49.3827 32.6686 49.3447 32.6306C49.3068 32.5926 49.3068 32.5546 49.3068 32.5166C49.3068 32.4406 49.3447 32.4027 49.3827 32.3647C49.4207 32.3267 49.4587 32.2887 49.5347 32.2887C49.5727 32.2887 49.6107 32.2887 49.6486 32.3267C49.6866 32.3647 49.6866 32.4027 49.6866 32.4406C49.6866 32.4786 49.6486 32.5166 49.6107 32.5926Z" fill="black"/>
</g>
<defs>
<clipPath id="clip0">
<rect width="64.7673" height="40" fill="white"/>
</clipPath>
</defs>
</svg>
