<svg width="407" height="98" viewBox="0 0 407 98" fill="none" xmlns="http://www.w3.org/2000/svg">
<path d="M41.1943 69.9274C41.1943 60.0683 46.7038 53.8863 54.9022 53.8863C59.0955 53.8863 61.7327 55.8685 63.3827 57.6153L62.1088 59.0795C60.5057 57.3328 58.3386 55.8732 54.9492 55.8732C47.8367 55.8732 43.4555 61.2971 43.4555 69.9321C43.4555 78.5671 47.6017 84.1323 54.6672 84.1323C57.4924 84.1323 60.1297 83.2848 61.6387 81.7734V72.1026H54.1971V70.2617H63.7118V82.5786C61.7797 84.6549 58.5784 86.1192 54.5262 86.1192C46.5205 86.1145 41.1943 79.8383 41.1943 69.9274Z" fill="black"/>
<path d="M76.0564 54.4513H84.9599C91.1323 54.4513 95.1374 56.716 95.1374 62.6625C95.1374 67.6156 92.0771 70.4971 87.1741 71.1092L95.7486 85.5495H93.2524L84.8189 71.2551H78.2235V85.5495H76.0564V54.4513ZM84.3958 69.4566C89.8583 69.4566 92.9233 67.239 92.9233 62.6625C92.9233 57.9919 89.863 56.2922 84.3958 56.2922H78.2235V69.4566H84.3958Z" fill="black"/>
<path d="M104.088 69.8803C104.088 60.0683 109.41 53.8863 116.856 53.8863C124.344 53.8863 129.671 60.0683 129.671 69.8803C129.671 79.7395 124.349 86.1098 116.856 86.1098C109.41 86.1145 104.088 79.7442 104.088 69.8803ZM127.362 69.8803C127.362 61.2924 123.169 55.8685 116.856 55.8685C110.543 55.8685 106.349 61.2924 106.349 69.8803C106.349 78.5153 110.543 84.1276 116.856 84.1276C123.169 84.1323 127.362 78.5153 127.362 69.8803Z" fill="black"/>
<path d="M141.07 73.6093V54.4513H143.237V73.3739C143.237 81.6322 147.102 84.1323 151.483 84.1323C155.958 84.1323 159.963 81.6322 159.963 73.3739V54.4513H161.989V73.6093C161.989 83.3272 156.856 86.1145 151.483 86.1145C146.157 86.1145 141.07 83.3272 141.07 73.6093Z" fill="black"/>
<path d="M175.415 54.4513H183.237C190.256 54.4513 194.496 56.716 194.496 63.1334C194.496 69.2212 190.35 72.1921 183.425 72.1921H177.582V85.5448H175.415V54.4513ZM182.904 70.3511C189.217 70.3511 192.277 68.2277 192.277 63.1334C192.277 57.8978 189.123 56.2922 182.716 56.2922H177.582V70.3511H182.904Z" fill="black"/>
<path d="M205.661 54.4513H222.669V56.3393H207.828V68.0865H220.267V69.9745H207.828V83.6567H223.139V85.5448H205.661V54.4513Z" fill="black"/>
<path d="M285.91 74.2416C285.774 75.0279 285.36 75.4187 284.674 75.4187H269.053L269.034 75.5176C268.917 76.1956 268.879 76.8641 268.931 77.5092C268.982 78.1589 269.156 78.7239 269.467 79.2088C269.772 79.6938 270.219 80.0846 270.806 80.3765C271.389 80.6684 272.174 80.8144 273.157 80.8144C273.937 80.8144 274.774 80.8002 275.662 80.7673C276.551 80.7343 277.43 80.7014 278.3 80.6684C279.169 80.6355 279.983 80.5978 280.744 80.546C281.506 80.4989 282.131 80.4377 282.634 80.3718H282.78C283.4 80.3718 283.663 80.6355 283.574 81.1581L282.916 84.9153C282.845 85.3108 282.728 85.6074 282.563 85.8052C282.399 86.0029 282.093 86.1536 281.651 86.2477C280.015 86.6432 278.427 86.9398 276.889 87.1376C275.352 87.3353 273.523 87.4342 271.403 87.4342C269.932 87.4342 268.503 87.2223 267.107 86.7986C265.711 86.3749 264.512 85.6733 263.51 84.6893C262.504 83.71 261.785 82.4058 261.348 80.7908C260.911 79.1712 260.901 77.1843 261.31 74.8301L261.907 71.3978C262.251 69.4345 262.838 67.6547 263.675 66.0539C264.507 64.4531 265.555 63.0924 266.811 61.9813C268.066 60.8701 269.514 60.0085 271.154 59.4058C272.795 58.7985 274.595 58.4971 276.556 58.4971C278.544 58.4971 280.246 58.8267 281.647 59.4812C283.052 60.1356 284.157 61.0349 284.97 62.179C285.783 63.3231 286.305 64.6791 286.536 66.2517C286.766 67.8242 286.719 69.538 286.395 71.4025L285.91 74.2416ZM278.859 70.3196C279.179 68.4881 279.024 67.1227 278.398 66.2234C277.773 65.3241 276.772 64.8768 275.404 64.8768C274.031 64.8768 272.856 65.3336 271.883 66.2517C270.905 67.1651 270.261 68.5258 269.951 70.3243L269.913 70.5221H278.826L278.859 70.3196Z" fill="black"/>
<path d="M334.875 74.6828C334.532 76.6461 333.954 78.4117 333.141 79.9796C332.327 81.5475 331.307 82.8846 330.085 83.9769C328.863 85.074 327.438 85.9262 325.812 86.5288C324.185 87.1315 322.371 87.4375 320.378 87.4375C318.384 87.4375 316.678 87.1362 315.263 86.5288C313.848 85.9262 312.71 85.074 311.855 83.9769C310.999 82.8799 310.44 81.5475 310.172 79.9796C309.904 78.4117 309.946 76.6461 310.285 74.6828L310.882 71.2505C311.225 69.2871 311.803 67.5215 312.616 65.9536C313.43 64.3811 314.454 63.0486 315.695 61.9563C316.936 60.8593 318.366 60.0118 319.992 59.4044C321.619 58.7971 323.428 58.4957 325.426 58.4957C327.424 58.4957 329.131 58.7971 330.546 59.4044C331.961 60.0118 333.089 60.8593 333.93 61.9563C334.772 63.0533 335.322 64.3858 335.585 65.9536C335.853 67.5215 335.815 69.2871 335.472 71.2505L334.875 74.6828ZM327.542 71.2505C328.237 67.2578 327.142 65.2662 324.251 65.2662C322.822 65.2662 321.647 65.7653 320.725 66.7635C319.804 67.7616 319.169 69.2589 318.822 71.2505L318.22 74.6828C317.872 76.6791 317.985 78.181 318.554 79.198C319.122 80.2103 320.124 80.7188 321.553 80.7188C324.444 80.7188 326.24 78.7037 326.94 74.6828L327.542 71.2505Z" fill="black"/>
<path d="M363.89 62.9591C363.829 63.317 363.711 63.5665 363.542 63.6936C363.373 63.8255 363.133 63.9385 362.823 64.0373L361.22 64.5317C361.431 64.9884 361.586 65.5628 361.68 66.2502C361.774 66.9376 361.765 67.5733 361.666 68.1618L361.596 68.5526C361.036 71.7589 359.574 74.0895 357.214 75.5444C354.854 76.9992 351.747 77.729 347.897 77.729C346.755 77.729 345.753 77.6537 344.898 77.5077C344.042 77.3618 343.389 77.1876 342.933 76.9945C342.641 77.1593 342.435 77.3288 342.303 77.5077C342.171 77.6866 342.087 77.8938 342.049 78.1198C341.979 78.5106 342.026 78.8072 342.19 79.005C342.35 79.2027 342.712 79.3628 343.281 79.4946L348.602 80.7235C350.642 81.1802 352.363 81.6322 353.754 82.07C355.146 82.5126 356.241 83.0164 357.04 83.5908C357.84 84.1652 358.361 84.8479 358.615 85.6531C358.869 86.4535 358.893 87.4422 358.686 88.6193L358.615 89.0101C357.684 94.3398 352.941 97.0047 344.385 97.0047C340.305 97.0047 337.329 96.3173 335.463 94.9425C333.597 93.5677 332.892 91.5902 333.343 89.0053L333.414 88.6146C333.592 87.6023 333.987 86.6371 334.603 85.719C335.219 84.8056 336.121 83.9392 337.311 83.12C336.516 82.6303 335.994 81.9523 335.759 81.086C335.515 80.2197 335.468 79.3769 335.609 78.5577C335.769 77.6443 336.112 76.8392 336.643 76.1517C337.17 75.4643 337.79 74.8758 338.495 74.3861C337.832 73.6987 337.419 72.7994 337.254 71.6883C337.09 70.5771 337.09 69.5319 337.264 68.5479L337.329 68.1571C337.814 65.3792 339.177 63.1381 341.415 61.4384C343.657 59.7387 346.915 58.8865 351.192 58.8865H363.387C363.744 58.8865 364.021 59.0089 364.205 59.2537C364.388 59.4986 364.454 59.7999 364.388 60.1624L363.89 62.9591ZM350.591 88.6146C350.633 88.3839 350.614 88.1626 350.534 87.9507C350.454 87.7388 350.257 87.5317 349.933 87.3386C349.608 87.1409 349.138 86.9478 348.518 86.7501C347.897 86.5523 347.056 86.3263 345.993 86.0627L342.505 85.2764C342.138 85.7048 341.819 86.1521 341.56 86.6277C341.297 87.1032 341.09 87.7624 340.944 88.6146L340.874 89.0053C340.728 89.8575 340.958 90.4837 341.574 90.8934C342.19 91.2983 343.441 91.5054 345.34 91.5054C346.35 91.5054 347.178 91.4489 347.817 91.3312C348.456 91.2182 348.969 91.044 349.35 90.818C349.735 90.5873 350.008 90.319 350.177 90.0082C350.346 89.6975 350.464 89.3632 350.525 89.0006L350.591 88.6146ZM353.919 68.1571C354.098 67.1448 353.952 66.302 353.482 65.6334C353.012 64.9602 351.912 64.6259 350.182 64.6259C348.452 64.6259 347.215 64.9602 346.482 65.6334C345.744 66.302 345.288 67.1448 345.109 68.1571L345.044 68.5479C344.968 68.9763 344.954 69.3906 344.997 69.8003C345.039 70.2099 345.194 70.5771 345.462 70.902C345.73 71.2316 346.134 71.4905 346.675 71.6883C347.211 71.8813 347.953 71.9802 348.898 71.9802C350.628 71.9802 351.846 71.6695 352.542 71.048C353.237 70.4265 353.675 69.5931 353.863 68.5479L353.919 68.1571Z" fill="black"/>
<path d="M386.402 74.2402C386.266 75.0265 385.852 75.4173 385.17 75.4173H369.544L369.526 75.5162C369.408 76.1941 369.371 76.8627 369.422 77.5078C369.474 78.1575 369.653 78.7225 369.958 79.2074C370.264 79.6924 370.71 80.0832 371.298 80.3751C371.881 80.667 372.666 80.813 373.648 80.813C374.429 80.813 375.266 80.7988 376.154 80.7659C377.042 80.7329 377.922 80.7 378.791 80.667C379.661 80.6341 380.479 80.5964 381.236 80.5446C381.997 80.4975 382.622 80.4363 383.125 80.3704H383.271C383.892 80.3704 384.155 80.6341 384.066 81.1567L383.408 84.9139C383.337 85.3094 383.219 85.606 383.055 85.8037C382.89 86.0015 382.585 86.1522 382.143 86.2463C380.507 86.6418 378.923 86.9384 377.386 87.1362C375.848 87.3339 374.02 87.4328 371.9 87.4328C370.428 87.4328 368.999 87.2209 367.603 86.7972C366.207 86.3734 365.008 85.6719 364.007 84.6879C363.006 83.7086 362.282 82.4044 361.849 80.7894C361.412 79.1698 361.402 77.1829 361.811 74.8287L362.408 71.3964C362.752 69.4331 363.339 67.6533 364.176 66.0525C365.008 64.4517 366.056 63.091 367.312 61.9799C368.567 60.8687 370.015 60.0071 371.655 59.4044C373.296 58.7971 375.096 58.4957 377.052 58.4957C379.045 58.4957 380.742 58.8253 382.148 59.4798C383.553 60.1342 384.658 61.0335 385.471 62.1776C386.285 63.3217 386.806 64.6777 387.037 66.2503C387.267 67.8228 387.225 69.5366 386.9 71.4011L386.402 74.2402ZM379.351 70.3182C379.67 68.4867 379.515 67.1213 378.89 66.222C378.265 65.3227 377.263 64.8754 375.891 64.8754C374.518 64.8754 373.348 65.3322 372.37 66.2503C371.397 67.1637 370.748 68.5244 370.438 70.3229L370.405 70.5207H379.318L379.351 70.3182Z" fill="black"/>
<path d="M404.858 64.8189C404.693 65.0166 404.496 65.1155 404.265 65.1155H403.875C402.667 65.1155 401.511 65.2803 400.411 65.6052C399.306 65.93 398.258 66.3397 397.256 66.8293L393.914 85.9638C393.867 86.2227 393.731 86.4629 393.496 86.6747C393.265 86.8866 393.016 86.9949 392.753 86.9949H386.825C386.562 86.9949 386.346 86.8866 386.172 86.6747C385.993 86.4582 385.932 86.2227 385.979 85.9638L390.534 59.8658C390.581 59.6021 390.717 59.3761 390.948 59.1784C391.178 58.9806 391.423 58.8818 391.686 58.8818H397.515C397.778 58.8818 397.99 58.9806 398.15 59.1784C398.309 59.3761 398.37 59.6068 398.323 59.8705L398.15 60.8592C399.193 60.1012 400.335 59.5174 401.567 59.1078C402.799 58.6934 404.002 58.491 405.177 58.491C405.436 58.491 405.647 58.5898 405.812 58.7876C405.977 58.9853 406.033 59.216 405.986 59.4797L405.168 64.1739C405.126 64.4093 405.022 64.6211 404.858 64.8189Z" fill="black"/>
<path d="M307.163 86.783C306.754 86.8819 306.247 86.9619 305.584 87.0561C304.78 87.1691 303.863 87.2633 302.947 87.3339C302.194 87.3904 301.076 87.4186 300.422 87.4186C298.852 87.4186 297.367 87.2868 295.961 87.0279C294.555 86.7689 293.371 86.2604 292.412 85.5071C291.453 84.7538 290.766 83.685 290.362 82.2913C289.953 80.9024 289.949 79.0944 290.343 76.8721L294.847 51.5086C294.894 51.2496 295.03 51.0189 295.261 50.8212C295.491 50.6234 295.735 50.5245 295.999 50.5245H302.415C302.674 50.5245 302.89 50.6234 303.05 50.8212C303.215 51.0189 303.271 51.2449 303.224 51.5086L298.725 76.8721C298.5 78.148 298.579 79.0238 298.97 79.4946C299.36 79.9701 300.126 80.2056 301.268 80.2056H308.339C308.597 80.2056 308.809 80.3044 308.973 80.4975C309.133 80.6952 309.189 80.9259 309.142 81.1849L308.334 85.7472C308.226 86.3075 307.84 86.6512 307.163 86.783Z" fill="black"/>
<path d="M261.921 54.6255C260.516 54.2394 259.026 53.9145 257.498 53.6603C255.98 53.4108 254.047 53.2836 251.758 53.2836C247.795 53.2836 244.693 54.037 242.54 55.5295C240.415 56.9985 239.084 59.1878 238.577 62.0269C238.257 63.8443 238.403 65.464 239.019 66.8388C239.634 68.2136 240.655 69.3624 242.046 70.2523L248.961 74.7063C249.779 75.2242 250.315 75.695 250.616 76.1423C250.945 76.6414 251.058 77.1829 250.959 77.762C250.794 78.6942 250.385 79.4052 249.746 79.8619C249.121 80.3139 248.063 80.5304 246.507 80.5304C246.023 80.5304 245.37 80.5116 244.566 80.4692C243.757 80.4316 242.873 80.3704 241.938 80.2903C241.012 80.215 240.058 80.1208 239.099 80.022C238.172 79.9278 237.312 79.8195 236.537 79.6971H236.339C236.123 79.6971 235.958 79.7536 235.822 79.8807C235.676 80.0172 235.592 80.1726 235.554 80.3704L234.698 85.1775C234.623 85.606 234.745 85.7943 235.183 85.912C235.874 86.105 236.659 86.2793 237.524 86.4346C238.384 86.59 239.291 86.7265 240.227 86.8442C241.153 86.962 242.084 87.0514 242.986 87.1079C243.889 87.1644 244.754 87.1974 245.567 87.1974C247.668 87.1974 249.549 86.9478 251.156 86.4488C252.759 85.9544 254.151 85.2764 255.298 84.4242C256.436 83.5814 257.362 82.5691 258.053 81.4109C258.744 80.248 259.214 78.9908 259.449 77.6772C259.58 76.9286 259.642 76.1659 259.623 75.4125C259.609 74.6922 259.453 73.9718 259.162 73.2656C258.871 72.5546 258.419 71.8484 257.822 71.1657C257.221 70.4783 256.379 69.7814 255.331 69.0987L248.721 64.8801C248.148 64.494 247.725 64.1456 247.429 63.8113C247.057 63.3923 246.911 62.8509 247.02 62.2529C247.208 61.1841 247.814 60.6992 248.284 60.4826C248.876 60.2095 249.77 60.0777 251.006 60.0777C251.763 60.0777 252.637 60.1059 253.601 60.1671C254.546 60.2236 255.495 60.2943 256.421 60.3743C257.343 60.4543 258.198 60.5438 258.974 60.6427C259.726 60.7415 260.318 60.8075 260.732 60.8451H260.883C261.16 60.8451 261.437 60.7933 261.55 60.1718L262.406 55.3647C262.486 54.9362 262.363 54.7479 261.921 54.6255Z" fill="black"/>
<path d="M4.50819 81.6463V24.0311L0 21.9594V86.1615L4.50819 81.6463Z" fill="url(#paint0_linear)"/>
<path d="M27.0444 27.4257L31.5526 24.0405V0L31.4492 0.0847491L27.0444 9.64256V27.4257Z" fill="url(#paint1_linear)"/>
<path d="M27.0444 81.6463H4.50819L0 86.1615H31.5009L27.0444 81.5192V81.6463Z" fill="url(#paint2_linear)"/>
<path d="M4.50819 23.9768L27.0444 9.58829V9.64478L31.4492 0.0869751L0 21.8486V21.9616L4.50819 24.0333V23.9768Z" fill="url(#paint3_linear)"/>
<path d="M66.49 33.1133L47.3761 17.7973L47.2961 17.8585V23.5179L61.9395 35.2509L66.49 33.2216V33.1133Z" fill="url(#paint4_linear)"/>
<path d="M61.9395 35.2509L61.9818 35.2838V46.7014H66.49V33.2216L61.9395 35.2509Z" fill="url(#paint5_linear)"/>
<path d="M27.0444 33.0663V33.1086L31.5996 35.2933L47.2866 23.5085L47.296 23.5179V17.8585L27.0444 33.0663Z" fill="url(#paint6_linear)"/>
<path d="M27.0444 81.5192L31.5009 86.1616H31.5526V35.3262L31.5996 35.2933L27.0444 33.1086V81.5192Z" fill="url(#paint7_linear)"/>
<defs>
<linearGradient id="paint0_linear" x1="2.25386" y1="86.1615" x2="2.25386" y2="21.9606" gradientUnits="userSpaceOnUse">
<stop offset="0.0927" stop-color="#A61B34"/>
<stop offset="0.1656" stop-color="#B1192A"/>
<stop offset="0.2978" stop-color="#BC171F"/>
<stop offset="0.4837" stop-color="#C31619"/>
<stop offset="1" stop-color="#C51617"/>
</linearGradient>
<linearGradient id="paint1_linear" x1="29.2996" y1="27.4251" x2="29.2996" y2="0" gradientUnits="userSpaceOnUse">
<stop stop-color="#E63635"/>
<stop offset="0.1957" stop-color="#E13231"/>
<stop offset="0.4229" stop-color="#D32827"/>
<stop offset="0.6465" stop-color="#BE1818"/>
</linearGradient>
<linearGradient id="paint2_linear" x1="0" y1="83.841" x2="31.5015" y2="83.841" gradientUnits="userSpaceOnUse">
<stop offset="0.1469" stop-color="#A61B34"/>
<stop offset="0.6098" stop-color="#64247E"/>
</linearGradient>
<linearGradient id="paint3_linear" x1="1.53316" y1="24.1559" x2="32.9304" y2="2.2057" gradientUnits="userSpaceOnUse">
<stop stop-color="#C61617"/>
<stop offset="0.8225" stop-color="#BE1818"/>
</linearGradient>
<linearGradient id="paint4_linear" x1="46.2568" y1="19.0547" x2="64.8097" y2="35.1572" gradientUnits="userSpaceOnUse">
<stop stop-color="#00749C"/>
<stop offset="0.279" stop-color="#0580AF"/>
<stop offset="0.9189" stop-color="#119AD7"/>
</linearGradient>
<linearGradient id="paint5_linear" x1="64.2132" y1="47.2943" x2="64.2132" y2="33.8168" gradientUnits="userSpaceOnUse">
<stop stop-color="#0086CD"/>
<stop offset="0.9041" stop-color="#119AD7"/>
</linearGradient>
<linearGradient id="paint6_linear" x1="28.0598" y1="34.5605" x2="48.8251" y2="20.0432" gradientUnits="userSpaceOnUse">
<stop stop-color="#00749C"/>
<stop offset="0.6202" stop-color="#0077A1"/>
<stop offset="1" stop-color="#007BA7"/>
</linearGradient>
<linearGradient id="paint7_linear" x1="29.3225" y1="86.1616" x2="29.3225" y2="33.1101" gradientUnits="userSpaceOnUse">
<stop stop-color="#66247A"/>
<stop offset="0.5644" stop-color="#2C548F"/>
<stop offset="1" stop-color="#04759D"/>
</linearGradient>
</defs>
</svg>
