<svg width="173" height="60" viewBox="0 0 173 60" fill="none" xmlns="http://www.w3.org/2000/svg">
<path fill-rule="evenodd" clip-rule="evenodd" d="M55.2068 22.9286V30.509H47.4524V22.9286H44.165V41.1898H47.4524V33.6116H55.2068V41.1898H58.4942V22.9286H55.2068Z" fill="#0F1E6C"/>
<path fill-rule="evenodd" clip-rule="evenodd" d="M62.0723 32.0594C62.0723 30.564 62.2463 29.2512 62.5944 28.121C62.9403 26.9908 63.3894 26.0905 63.9373 25.418C64.4852 24.7455 65.1469 24.1998 65.9226 23.7765C66.6983 23.3532 67.4546 23.0717 68.1958 22.9278C68.935 22.786 69.7321 22.7151 70.5873 22.7151C71.4446 22.7151 72.2417 22.786 72.9808 22.9278C73.72 23.0717 74.4784 23.3532 75.2541 23.7765C76.0297 24.1998 76.6958 24.7455 77.2523 25.418C77.8088 26.0905 78.2621 26.9908 78.6081 28.121C78.9562 29.2512 79.1302 30.564 79.1302 32.0594C79.1302 33.542 78.9562 34.8526 78.6081 35.9957C78.2621 37.1388 77.8088 38.0412 77.2523 38.7073C76.6958 39.3712 76.0297 39.9148 75.2541 40.3402C74.4784 40.7635 73.72 41.0471 72.9808 41.1911C72.2417 41.3329 71.4446 41.4038 70.5873 41.4038C69.7321 41.4038 68.935 41.3329 68.1958 41.1911C67.4546 41.0471 66.6983 40.7635 65.9226 40.3402C65.1469 39.9148 64.4852 39.3712 63.9373 38.7073C63.3894 38.0412 62.9403 37.1388 62.5944 35.9957C62.2463 34.8526 62.0723 33.542 62.0723 32.0594ZM65.362 32.0336C65.362 33.4023 65.4973 34.5368 65.7681 35.4349C66.0409 36.333 66.4406 36.9927 66.9713 37.4159C67.502 37.8392 68.0456 38.125 68.6021 38.2775C69.1607 38.4279 69.8225 38.5031 70.5874 38.5031C71.2127 38.5031 71.752 38.4623 72.2053 38.3828C72.6608 38.3033 73.1271 38.1314 73.6084 37.8693C74.0897 37.6072 74.4829 37.2419 74.7858 36.7757C75.0888 36.3094 75.3402 35.6756 75.54 34.8741C75.742 34.0748 75.8408 33.1273 75.8408 32.0336C75.8408 30.68 75.7054 29.5563 75.4347 28.6582C75.1618 27.76 74.7557 27.0983 74.2186 26.6771C73.6771 26.2538 73.1357 25.9724 72.5856 25.8306C72.0377 25.6866 71.3717 25.6157 70.5874 25.6157C69.9815 25.6157 69.4508 25.6565 68.9974 25.736C68.5419 25.8155 68.0735 25.9896 67.5858 26.256C67.1002 26.5224 66.7092 26.8834 66.4105 27.3367C66.1118 27.7901 65.8626 28.4132 65.6628 29.2039C65.4608 29.9967 65.362 30.94 65.362 32.0336Z" fill="#0F1E6C"/>
<path fill-rule="evenodd" clip-rule="evenodd" d="M96.9503 22.9286L91.6689 30.5627L86.3876 22.9286H82.7393V41.1898H86.0288V27.6879L91.6689 35.7624L97.3091 27.6879V41.1898H100.599V22.9286H96.9503Z" fill="#0F1E6C"/>
<path fill-rule="evenodd" clip-rule="evenodd" d="M105.475 22.9286V41.1898H117.627V38.2355H108.762V33.6116H116.448V30.509H108.762V25.883H117.627V22.9286H105.475Z" fill="#0F1E6C"/>
<path fill-rule="evenodd" clip-rule="evenodd" d="M122.259 41.19V22.9288H128.561C131.388 22.9288 133.533 23.7045 134.996 25.2558C136.459 26.805 137.192 29.0782 137.192 32.0734C137.192 35.0492 136.461 37.3139 135.002 38.863C133.546 40.4143 131.397 41.19 128.561 41.19H122.259ZM125.548 38.2356H128.554C130.454 38.2356 131.82 37.7543 132.652 36.7918C133.486 35.8292 133.902 34.2564 133.902 32.0734C133.902 29.871 133.486 28.2896 132.652 27.3271C131.82 26.3645 130.454 25.8832 128.554 25.8832H125.548V38.2356Z" fill="#0F1E6C"/>
<path fill-rule="evenodd" clip-rule="evenodd" d="M145.355 22.9286L138.097 41.1898H141.627L143.296 36.7787H151.025L152.694 41.1898H156.225L148.964 22.9286H145.355ZM147.162 26.6587L149.873 33.8243H144.42L147.162 26.6587Z" fill="#0F1E6C"/>
<path fill-rule="evenodd" clip-rule="evenodd" d="M167.723 22.9286L162.91 30.3479L158.071 22.9286H154.101L161.266 33.3559V41.1898H164.556V33.3559L171.694 22.9286H167.723Z" fill="#0F1E6C"/>
<path fill-rule="evenodd" clip-rule="evenodd" d="M32.0059 20.6975H31.2303C26.2111 20.6975 21.194 20.6911 16.1749 20.6997C13.9919 20.704 12.273 21.9158 11.6649 23.914C11.5016 24.4512 11.4608 25.042 11.4608 25.6093C11.4457 30.5726 11.4522 35.5359 11.4543 40.4992C11.4543 40.6926 11.4543 40.8881 11.4543 41.1266C11.2287 41.1395 11.0568 41.1567 10.8828 41.1567C8.12396 41.1589 5.36298 41.161 2.60414 41.1567C0.956149 41.1546 0.00860531 40.2006 0.00860531 38.5504C0.00645669 31.5438 0.0150512 24.5371 1.08132e-05 17.5326C-0.00213781 16.5872 0.315859 15.8502 1.00557 15.2099C5.39736 11.1512 9.77411 7.07307 14.1637 3.01002C15.4164 1.84762 16.6218 1.8691 17.8637 3.02506C22.2297 7.08597 26.5935 11.1512 30.9767 15.1949C31.6879 15.8524 32.0339 16.6001 32.0124 17.5605C31.9866 18.579 32.0059 19.5974 32.0059 20.6975Z" fill="#0F1E6C"/>
<path fill-rule="evenodd" clip-rule="evenodd" d="M31.7932 22.9157C25.7319 28.9749 19.7093 34.9953 13.6695 41.0329C13.6609 40.8933 13.6438 40.7429 13.6438 40.5903C13.6416 35.5196 13.6416 30.4467 13.6416 25.3738C13.6416 23.8826 14.5934 22.9007 16.0781 22.8985C21.2413 22.8921 26.4044 22.8985 31.5676 22.9007C31.6342 22.9007 31.7029 22.9093 31.7932 22.9157Z" fill="#5694DD"/>
<path d="M44.1311 56H45.1321V51.307C45.1321 50.553 45.0541 49.539 45.0021 48.785H45.0541L45.7301 50.683L47.3681 55.142H47.9921L49.6301 50.683L50.3061 48.785H50.3581C50.3061 49.539 50.2151 50.553 50.2151 51.307V56H51.2421V47.472H49.9681L48.3301 52.048L47.7321 53.79H47.6801L47.0691 52.048L45.4181 47.472H44.1311V56ZM52.9799 52.854C52.9799 54.921 54.3189 56.156 56.0089 56.156C56.8669 56.156 57.5429 55.857 58.0889 55.506L57.7119 54.804C57.2439 55.103 56.7369 55.298 56.1389 55.298C54.9299 55.298 54.1109 54.44 54.0329 53.075H58.2969C58.3229 52.919 58.3359 52.711 58.3359 52.49C58.3359 50.683 57.4259 49.526 55.8139 49.526C54.3709 49.526 52.9799 50.787 52.9799 52.854ZM54.0199 52.373C54.1499 51.099 54.9559 50.371 55.8399 50.371C56.8279 50.371 57.3999 51.086 57.3999 52.373H54.0199ZM60.4432 48.382C60.8592 48.382 61.1842 48.096 61.1842 47.693C61.1842 47.277 60.8592 47.004 60.4432 47.004C60.0272 47.004 59.7022 47.277 59.7022 47.693C59.7022 48.096 60.0272 48.382 60.4432 48.382ZM59.8972 56H60.9632V49.682H59.8972V56ZM63.0964 56H64.1624V51.424C64.7994 50.787 65.2414 50.449 65.8914 50.449C66.7234 50.449 67.0874 50.956 67.0874 52.139V56H68.1534V51.996C68.1534 50.384 67.5554 49.526 66.2294 49.526C65.3584 49.526 64.7084 49.994 64.1104 50.592H64.0714L63.9804 49.682H63.0964V56ZM72.8987 56H73.9907V47.472H72.8987V56ZM76.1852 56H77.2512V51.424C77.8362 50.774 78.3692 50.449 78.8372 50.449C79.6432 50.449 80.0202 50.956 80.0202 52.139V56H81.0862V51.424C81.6712 50.774 82.1782 50.449 82.6722 50.449C83.4652 50.449 83.8422 50.956 83.8422 52.139V56H84.9082V51.996C84.9082 50.384 84.2842 49.526 82.9842 49.526C82.2172 49.526 81.5672 50.02 80.9042 50.735C80.6442 49.981 80.1242 49.526 79.1622 49.526C78.4082 49.526 77.7452 49.994 77.1992 50.592H77.1602L77.0692 49.682H76.1852V56ZM86.9636 56H88.0296V51.424C88.6146 50.774 89.1476 50.449 89.6156 50.449C90.4216 50.449 90.7986 50.956 90.7986 52.139V56H91.8646V51.424C92.4496 50.774 92.9566 50.449 93.4506 50.449C94.2436 50.449 94.6206 50.956 94.6206 52.139V56H95.6866V51.996C95.6866 50.384 95.0626 49.526 93.7626 49.526C92.9956 49.526 92.3456 50.02 91.6826 50.735C91.4226 49.981 90.9026 49.526 89.9406 49.526C89.1866 49.526 88.5236 49.994 87.9776 50.592H87.9386L87.8476 49.682H86.9636V56ZM97.2739 52.854C97.2739 54.947 98.6519 56.156 100.199 56.156C101.746 56.156 103.124 54.947 103.124 52.854C103.124 50.735 101.746 49.526 100.199 49.526C98.6519 49.526 97.2739 50.735 97.2739 52.854ZM98.3789 52.854C98.3789 51.398 99.1199 50.41 100.199 50.41C101.291 50.41 102.019 51.398 102.019 52.854C102.019 54.297 101.291 55.272 100.199 55.272C99.1199 55.272 98.3789 54.297 98.3789 52.854ZM104.788 56H105.646L105.737 55.376H105.776C106.335 55.87 106.998 56.156 107.583 56.156C109.026 56.156 110.313 54.895 110.313 52.737C110.313 50.787 109.442 49.526 107.804 49.526C107.102 49.526 106.4 49.903 105.828 50.41L105.854 49.266V46.744H104.788V56ZM105.854 54.596V51.281C106.452 50.722 107.011 50.423 107.544 50.423C108.74 50.423 109.208 51.359 109.208 52.75C109.208 54.31 108.441 55.259 107.401 55.259C106.985 55.259 106.413 55.077 105.854 54.596ZM112.545 48.382C112.961 48.382 113.286 48.096 113.286 47.693C113.286 47.277 112.961 47.004 112.545 47.004C112.129 47.004 111.804 47.277 111.804 47.693C111.804 48.096 112.129 48.382 112.545 48.382ZM111.999 56H113.065V49.682H111.999V56ZM115.198 54.726C115.198 55.649 115.523 56.156 116.329 56.156C116.615 56.156 116.797 56.117 116.94 56.052L116.797 55.246C116.68 55.272 116.628 55.272 116.563 55.272C116.407 55.272 116.264 55.142 116.264 54.804V46.744H115.198V54.726ZM119.057 48.382C119.473 48.382 119.798 48.096 119.798 47.693C119.798 47.277 119.473 47.004 119.057 47.004C118.641 47.004 118.316 47.277 118.316 47.693C118.316 48.096 118.641 48.382 119.057 48.382ZM118.511 56H119.577V49.682H118.511V56ZM121.243 52.854C121.243 54.921 122.582 56.156 124.272 56.156C125.13 56.156 125.806 55.857 126.352 55.506L125.975 54.804C125.507 55.103 125 55.298 124.402 55.298C123.193 55.298 122.374 54.44 122.296 53.075H126.56C126.586 52.919 126.599 52.711 126.599 52.49C126.599 50.683 125.689 49.526 124.077 49.526C122.634 49.526 121.243 50.787 121.243 52.854ZM122.283 52.373C122.413 51.099 123.219 50.371 124.103 50.371C125.091 50.371 125.663 51.086 125.663 52.373H122.283ZM128.16 56H129.226V51.424C129.863 50.787 130.305 50.449 130.955 50.449C131.787 50.449 132.151 50.956 132.151 52.139V56H133.217V51.996C133.217 50.384 132.619 49.526 131.293 49.526C130.422 49.526 129.772 49.994 129.174 50.592H129.135L129.044 49.682H128.16V56ZM135.269 56H136.335V51.424C136.92 50.774 137.453 50.449 137.921 50.449C138.727 50.449 139.104 50.956 139.104 52.139V56H140.17V51.424C140.755 50.774 141.262 50.449 141.756 50.449C142.549 50.449 142.926 50.956 142.926 52.139V56H143.992V51.996C143.992 50.384 143.368 49.526 142.068 49.526C141.301 49.526 140.651 50.02 139.988 50.735C139.728 49.981 139.208 49.526 138.246 49.526C137.492 49.526 136.829 49.994 136.283 50.592H136.244L136.153 49.682H135.269V56ZM145.735 54.362C145.735 55.493 146.528 56.156 147.594 56.156C148.374 56.156 149.076 55.74 149.687 55.246H149.713L149.804 56H150.688V52.126C150.688 50.553 150.038 49.526 148.491 49.526C147.477 49.526 146.593 49.968 146.008 50.345L146.437 51.086C146.931 50.748 147.581 50.41 148.322 50.41C149.349 50.41 149.622 51.19 149.622 51.996C146.931 52.295 145.735 52.984 145.735 54.362ZM146.788 54.284C146.788 53.478 147.503 52.958 149.622 52.698V54.453C149.011 54.999 148.504 55.298 147.893 55.298C147.269 55.298 146.788 54.999 146.788 54.284ZM152.7 56H153.753V54.336L154.936 52.958L156.782 56H157.952L155.547 52.217L157.666 49.682H156.483L153.792 53.01H153.753V46.744H152.7V56ZM159.136 54.726C159.136 55.649 159.461 56.156 160.267 56.156C160.553 56.156 160.735 56.117 160.878 56.052L160.735 55.246C160.618 55.272 160.566 55.272 160.501 55.272C160.345 55.272 160.202 55.142 160.202 54.804V46.744H159.136V54.726ZM161.982 52.854C161.982 54.921 163.321 56.156 165.011 56.156C165.869 56.156 166.545 55.857 167.091 55.506L166.714 54.804C166.246 55.103 165.739 55.298 165.141 55.298C163.932 55.298 163.113 54.44 163.035 53.075H167.299C167.325 52.919 167.338 52.711 167.338 52.49C167.338 50.683 166.428 49.526 164.816 49.526C163.373 49.526 161.982 50.787 161.982 52.854ZM163.022 52.373C163.152 51.099 163.958 50.371 164.842 50.371C165.83 50.371 166.402 51.086 166.402 52.373H163.022ZM168.899 56H169.965V51.944C170.394 50.878 171.031 50.488 171.564 50.488C171.824 50.488 171.967 50.527 172.175 50.592L172.383 49.656C172.175 49.565 171.98 49.526 171.707 49.526C170.992 49.526 170.342 50.033 169.913 50.826H169.874L169.783 49.682H168.899V56Z" fill="#0F1E6C"/>
</svg>
