<svg width="136" height="34" viewBox="0 0 136 34" fill="none" xmlns="http://www.w3.org/2000/svg">
<path d="M24.1778 13.4741V3.39998C24.1778 2.01479 23.0444 1.00739 21.7852 1.00739C20.4 1.00739 19.3926 2.14072 19.3926 3.39998V10.7037L24.1778 13.4741Z" fill="#405FF6"/>
<path d="M23.0444 15.6148L14.2296 10.4518C13.8518 10.2 13.474 10.0741 12.9703 10.0741C12.5926 10.0741 12.0889 10.2 11.837 10.4518L3.0222 15.6148C2.26664 15.9926 1.76294 16.8741 1.76294 17.6296V30.3481C1.76294 31.7333 2.89627 32.7407 4.15553 32.7407C5.54072 32.7407 6.54812 31.6074 6.54812 30.3481V19.1407L12.9703 15.4889L19.3926 19.1407V30.3481C19.3926 31.7333 20.5259 32.7407 21.7852 32.7407C23.1703 32.7407 24.1778 31.6074 24.1778 30.3481V17.6296C24.1778 16.8741 23.674 16.1185 23.0444 15.6148ZM6.54812 3.39999C6.54812 2.0148 5.41479 1.0074 4.15553 1.0074C2.77035 1.0074 1.76294 2.14073 1.76294 3.39999V13.4741L6.54812 10.7037V3.39999ZM69.637 10.2C68.2518 10.2 67.2444 11.3333 67.2444 12.5926V23.1704C67.2444 26.5704 65.2296 28.5852 62.3333 28.5852C59.437 28.5852 57.5481 26.5704 57.5481 23.1704V12.5926C57.5481 11.2074 56.4148 10.2 55.1555 10.2C53.7703 10.2 52.7629 11.3333 52.7629 12.5926V23.0444C52.7629 26.0667 53.6444 32.9926 62.4592 32.9926C71.1481 32.9926 72.1555 26.0667 72.1555 23.0444V12.5926C72.0296 11.3333 70.8963 10.2 69.637 10.2ZM38.4074 10.0741C31.4815 10.0741 27.074 15.1111 27.074 21.5333C27.074 27.9555 31.4815 32.9926 38.4074 32.9926C45.3333 32.9926 49.7407 27.9555 49.7407 21.5333C49.7407 15.1111 45.3333 10.0741 38.4074 10.0741ZM38.4074 28.5852C34.3777 28.5852 31.8592 25.437 31.8592 21.5333C31.8592 17.6296 34.3777 14.4815 38.4074 14.4815C42.437 14.4815 44.9555 17.7555 44.9555 21.5333C44.9555 25.437 42.437 28.5852 38.4074 28.5852ZM90.7925 21.6592C89.5333 20.5259 87.3925 19.7704 84.4963 19.1407C83.1111 18.8889 82.1037 18.5111 81.3481 18.2592C80.5925 17.8815 79.7111 17.5037 79.7111 16.3704C79.7111 15.9926 79.837 15.363 80.7185 14.9852C81.474 14.6074 82.3555 14.4815 83.4888 14.4815C87.2666 14.4815 88.6518 16.2444 90.1629 16.2444C91.2962 16.2444 92.3037 15.237 92.3037 14.1037C92.3037 13.3481 91.9259 12.5926 91.2962 12.2148C87.8963 10.2 85.2518 10.0741 83.4888 10.0741C81.9777 10.0741 80.5926 10.3259 79.3333 10.7037C78.074 11.2074 76.9407 11.963 76.1851 12.8444C75.3037 13.8518 74.9259 14.9852 74.9259 16.4963C74.9259 19.8963 77.5703 22.1629 82.8592 23.1704C84.7481 23.5481 86.1333 23.9259 86.8888 24.4296C87.5185 24.9333 87.8963 25.437 87.8963 26.0667C87.8963 26.6963 87.5185 27.4518 86.8888 27.8296C86.2592 28.2074 85.1259 28.4592 83.9925 28.4592C81.9777 28.4592 80.3407 27.9555 77.6963 26.4444C77.3185 26.1926 76.9407 26.0667 76.437 26.0667C75.1777 26.0667 74.1703 27.0741 74.1703 28.3333C74.1703 28.9629 74.5481 29.5926 74.9259 29.9704C75.3037 30.3481 76.8148 31.2296 78.4518 31.8592C79.837 32.3629 81.2222 32.7407 83.6148 32.7407C85.5037 32.7407 87.1407 32.4889 88.3999 31.8592C89.7851 31.2296 90.7925 30.4741 91.5481 29.3407C92.3037 28.3333 92.5555 27.0741 92.5555 25.8148C92.6814 24.1778 92.0518 22.7926 90.7925 21.6592ZM131.089 0.88147C129.704 0.88147 128.696 2.0148 128.696 3.27406V30.2222C128.696 31.6074 129.83 32.6148 131.089 32.6148C132.474 32.6148 133.481 31.4815 133.481 30.2222V3.39999C133.481 2.0148 132.348 0.88147 131.089 0.88147ZM122.148 0.88147C120.763 0.88147 119.756 2.0148 119.756 3.27406V30.2222C119.756 31.6074 120.889 32.6148 122.148 32.6148C123.533 32.6148 124.541 31.4815 124.541 30.2222V3.39999C124.667 2.0148 123.533 0.88147 122.148 0.88147ZM111.444 11.4592C109.933 10.5778 108.044 10.0741 105.904 10.0741C103.763 10.0741 101.874 10.5778 100.111 11.5852C98.474 12.5926 97.0888 13.9778 96.0814 15.7407C95.2 17.5037 94.6962 19.5185 94.6962 21.6592C94.6962 23.8 95.2 25.8148 96.2074 27.5778C97.2148 29.3407 98.6 30.7259 100.363 31.6074C102.126 32.6148 104.141 33.1185 106.407 33.1185C107.667 33.1185 109.052 32.8667 110.437 32.3629C111.948 31.8592 113.333 31.1037 113.963 30.4741C114.467 30.0963 114.718 29.4667 114.718 28.837C114.718 27.5778 113.711 26.5704 112.452 26.5704C111.948 26.5704 111.57 26.6963 111.193 26.9481C111.193 26.9481 109.807 27.9555 108.674 28.3333C107.918 28.5852 107.037 28.7111 106.407 28.7111C104.518 28.7111 102.881 28.2074 101.622 27.0741C100.489 26.1926 99.7333 24.8074 99.3555 23.4222H113.711C115.096 23.4222 116.104 22.2889 116.104 21.0296C116.104 18.8889 115.6 17 114.844 15.4889C114.215 13.7259 112.956 12.3407 111.444 11.4592ZM99.6074 19.5185C99.9851 17.8815 101.37 14.3555 106.03 14.3555C110.311 14.3555 111.444 18.1333 111.696 19.5185H99.6074Z" fill="#405FF6"/>
</svg>
