<?xml version="1.0" encoding="utf-8"?>
<!-- Generator: Adobe Illustrator 16.0.4, SVG Export Plug-In . SVG Version: 6.00 Build 0)  -->
<!DOCTYPE svg PUBLIC "-//W3C//DTD SVG 1.1//EN" "http://www.w3.org/Graphics/SVG/1.1/DTD/svg11.dtd">
<svg version="1.1" id="Ebene_1" xmlns="http://www.w3.org/2000/svg" xmlns:xlink="http://www.w3.org/1999/xlink" x="0px" y="0px"
	 width="486.311px" height="90px" viewBox="0 0 486.311 90" enable-background="new 0 0 486.311 119.379"
	 xml:space="preserve">
<g>

	<g id="net.de">
		<path fill="#00AAE1" d="M275.042,36.1v26.566h-11.387V39.42c0-6.167-2.846-9.487-8.064-9.487c-4.742,0-9.012,3.32-9.012,9.487
			v23.245h-11.388V20.445h10.911v4.744c2.848-4.27,7.592-6.168,12.336-6.168C268.401,19.496,275.042,26.138,275.042,36.1z"/>
		<path fill="#00AAE1" d="M323.905,41.792c0,1.424,0,2.847,0,3.795h-29.889c1.424,6.167,5.693,8.539,10.912,8.539
			c3.795,0,7.592-1.423,10.438-4.271l6.641,7.117c-4.744,4.27-10.912,6.168-18.025,6.168c-12.811,0-21.822-8.539-21.822-21.823
			c0-13.283,8.537-22.297,21.346-22.297C315.841,19.496,323.905,28.509,323.905,41.792z M294.016,37.997h18.504
			c-0.949-5.218-4.27-8.539-9.016-8.539C298.286,29.458,294.966,32.779,294.016,37.997z"/>
		<path fill="#00AAE1" d="M362.331,30.881h-15.18v15.181c0,5.219,2.846,7.115,6.166,7.115c2.846,0,5.693-1.423,8.064-2.845
			l4.27,9.013c-3.795,2.373-8.064,4.27-13.758,4.27c-10.438,0-15.654-5.692-15.654-16.604V30.881h-8.064v-9.962h7.59V8.584h11.387
			v12.334h15.18V30.881z"/>
		<path fill="#00AAE1" d="M424.003,25.189V4.79h11.385v57.876h-10.91v-4.743c-2.848,3.32-6.643,5.692-12.334,5.692
			c-11.387,0-20.4-9.488-20.4-22.296c0-12.809,8.541-22.297,20.4-22.297C416.887,19.496,421.157,21.868,424.003,25.189z
			 M402.655,41.792c0,6.642,4.27,11.385,10.91,11.385c6.643,0,10.912-4.743,10.912-11.385c0-6.641-4.27-11.385-10.912-11.385
			C406.925,30.407,402.655,35.151,402.655,41.792z"/>
		<path fill="#00AAE1" d="M486.149,41.792c0,1.424,0,2.847,0,3.795H456.26c1.426,6.167,5.695,8.539,10.912,8.539
			c3.795,0,7.59-1.423,10.438-3.794l6.641,7.114c-4.744,4.27-10.91,6.168-18.025,6.168c-12.811,0-21.824-8.54-21.824-21.823
			s8.539-22.296,21.348-22.296C477.61,19.496,486.149,28.509,486.149,41.792z M456.26,37.997h18.502
			c-0.947-5.218-4.268-8.539-9.014-8.539C460.057,29.458,457.21,32.779,456.26,37.997z"/>
		<path fill="#00AAE1" d="M386.526,56.024c0.473,4.27-3.322,8.066-7.592,7.591c-3.32,0-6.641-3.321-6.641-6.642
			c-0.475-4.27,3.32-8.064,7.59-7.59C383.204,49.383,386.526,52.704,386.526,56.024z"/>
	</g>
	<g id="immo">
		<path fill="#2D2D2D" d="M14.597,7.161c0,4.27-3.321,7.117-7.116,7.117c-4.27,0-7.116-3.322-7.116-7.117
			c0-4.269,3.321-7.116,7.116-7.116C11.751-0.429,14.597,2.892,14.597,7.161z M13.174,62.666H1.788V20.445h11.386V62.666z"/>
		<path fill="#2D2D2D" d="M92.873,36.1v26.566H81.487V39.42c0-6.167-2.846-9.487-8.065-9.487c-4.744,0-9.014,3.32-9.014,9.487
			v23.245H53.023V39.42c0-6.167-2.846-9.487-8.064-9.487c-4.744,0-9.014,3.32-9.014,9.487v23.245H24.559V20.445H35.47v4.744
			c2.846-4.27,7.59-6.168,12.334-6.168c6.167,0,10.911,2.847,13.757,7.117c3.321-5.219,8.54-7.117,14.232-7.117
			C86.231,19.496,92.873,26.138,92.873,36.1z"/>
		<path fill="#2D2D2D" d="M172.572,36.1v26.566h-11.386V39.42c0-6.167-2.846-9.487-8.065-9.487c-4.743,0-9.013,3.32-9.013,9.487
			v23.245h-11.386V39.42c0-6.167-2.847-9.487-8.065-9.487c-4.744,0-9.014,3.32-9.014,9.487v23.245h-11.386V20.445h10.911v4.744
			c2.846-4.27,7.59-6.168,12.334-6.168c6.167,0,10.911,2.847,13.757,7.117c3.321-5.219,8.54-7.117,14.232-7.117
			C165.93,19.496,172.572,26.138,172.572,36.1z"/>
		<path fill="#2D2D2D" d="M226.653,41.792c0,12.81-9.487,22.298-22.771,22.298c-13.283,0-22.771-9.488-22.771-22.298
			c0-12.808,9.488-22.296,22.771-22.296C217.166,19.496,226.653,28.984,226.653,41.792z M192.97,41.792
			c0,6.642,4.745,11.385,10.911,11.385c6.167,0,11.386-4.743,11.386-11.385c0-6.641-4.745-11.385-11.386-11.385
			C197.715,30.407,192.97,35.151,192.97,41.792z"/>
	</g>
</g>
</svg>
