<svg xmlns="http://www.w3.org/2000/svg" xmlns:xlink="http://www.w3.org/1999/xlink" width="190" height="16" viewBox="0 0 190 16">
    <defs>
        <path id="a" d="M0 14.996h189.926V0H0z"/>
    </defs>
    <g fill="none" fill-rule="evenodd" transform="translate(0 .886)">
        <path fill="#FFB200" d="M185.427 5.09c2.561 0 4.468 2.03 4.499 4.897 0 .174-.01.337-.02.48h-8.05c.174 2.234 1.745 3.519 3.714 3.519 1.336 0 2.397-.53 3.244-1.367l.622.796c-1.214 1.234-2.55 1.58-3.937 1.58-2.806 0-4.825-2.02-4.825-4.947 0-2.897 2.05-4.958 4.753-4.958m-.02 1.03c-1.949 0-3.305 1.398-3.53 3.347h6.866c-.174-1.99-1.53-3.346-3.336-3.346M177.644 5.08c.683 0 1.275.112 1.795.367l-.296 1.133c-.469-.255-1.122-.388-1.703-.388-1.602 0-2.744 1.296-2.744 3.234v5.417h-1.153v-9.6h1.142v1.633c.623-1.123 1.694-1.796 2.959-1.796M169.84 5.243v9.6h-1.153v-1.847c-.775 1.204-2.06 2-3.805 2-2.693 0-4.795-2.091-4.795-4.948 0-2.856 2.102-4.958 4.795-4.958 1.744 0 3.03.806 3.805 2V5.243h1.153zm-4.825.94c-2.204 0-3.744 1.692-3.744 3.865 0 2.163 1.56 3.856 3.744 3.856 2.173 0 3.733-1.652 3.733-3.856 0-2.203-1.56-3.866-3.733-3.866zM150.906 5.243l3.163 8.417 3.254-8.417h1.204l-3.764 9.6h-1.367l-3.163-8.385-3.142 8.385h-1.357l-3.764-9.6h1.235l3.244 8.406 3.152-8.406zM140.583 5.243v1.061h-4.428v5.234c0 1.622.857 2.366 2.133 2.366.826 0 1.58-.285 2.142-.734l.55.867c-.683.571-1.631.959-2.784.959-2 0-3.204-1.112-3.204-3.438V6.304h-2.203v-1.06h2.203V2.111h1.163v3.131h4.428zM131.81 5.243v1.061h-4.132v8.539h-1.163V6.304h-2.356v-1.06h2.356V3.59c0-2.112.888-3.591 3.173-3.591a4.89 4.89 0 0 1 2.59.714l-.417.97a4.203 4.203 0 0 0-2.102-.593c-1.489 0-2.08.929-2.08 2.5v1.652h4.13zM117.61 5.09c2.846 0 4.998 2.133 4.998 4.958 0 2.826-2.152 4.948-4.998 4.948s-4.978-2.122-4.978-4.948c0-2.825 2.132-4.958 4.978-4.958m0 1.092c-2.153 0-3.795 1.632-3.795 3.866s1.642 3.856 3.795 3.856c2.162 0 3.805-1.622 3.805-3.856s-1.643-3.866-3.805-3.866M109.806 1.979l-.643 1.01c-1.112-.786-2.59-1.398-4.468-1.398-2.295 0-3.978 1.061-3.978 2.847 0 1.417 1.05 2.285 3.488 2.56l1.561.173c2.54.286 4.387 1.286 4.387 3.663 0 2.775-2.53 4.162-5.61 4.162-2.143 0-4.265-.786-5.53-1.785l.683-.99c1 .796 2.857 1.592 4.836 1.592 2.417 0 4.325-.95 4.325-2.877 0-1.55-1.244-2.306-3.621-2.571l-1.622-.184c-2.612-.296-4.193-1.469-4.193-3.662 0-2.632 2.346-4.111 5.284-4.111 2.214 0 3.866.694 5.1 1.571"/>
        <path fill="#333" d="M96.87 5.243v1.061h-4.427v5.234c0 1.622.857 2.366 2.133 2.366.826 0 1.58-.285 2.142-.734l.55.867c-.683.571-1.632.959-2.784.959-2 0-3.204-1.112-3.204-3.438V6.304h-2.203v-1.06h2.203V2.111h1.163v3.131h4.428z"/>
        <mask id="b" fill="#fff">
            <use xlink:href="#a"/>
        </mask>
        <path fill="#333" d="M85.507 14.843h1.162V.153h-1.162zM78.06 5.09c2.56 0 4.468 2.03 4.498 4.897 0 .174-.01.337-.02.48H74.49c.174 2.234 1.745 3.519 3.714 3.519 1.336 0 2.397-.53 3.243-1.367l.623.796c-1.214 1.234-2.55 1.58-3.938 1.58-2.805 0-4.825-2.02-4.825-4.947 0-2.897 2.05-4.958 4.754-4.958m-.02 1.03c-1.949 0-3.306 1.398-3.53 3.347h6.865c-.173-1.99-1.53-3.346-3.336-3.346M64.125 5.243l3.162 8.417 3.254-8.417h1.204l-3.764 9.6h-1.367l-3.162-8.385-3.142 8.385h-1.357l-3.765-9.6h1.235l3.244 8.406 3.152-8.406zM48.7 5.09c2.847 0 4.999 2.133 4.999 4.958 0 2.826-2.152 4.948-4.998 4.948-2.847 0-4.979-2.122-4.979-4.948 0-2.825 2.132-4.958 4.979-4.958m0 1.092c-2.153 0-3.795 1.632-3.795 3.866s1.642 3.856 3.795 3.856c2.162 0 3.804-1.622 3.804-3.856s-1.642-3.866-3.804-3.866M36.837 5.09c2.407 0 4.05 1.49 4.05 3.867v5.886h-1.164v-5.53c0-1.937-1.132-3.12-3.09-3.12-1.806 0-3.214 1.295-3.214 3.182v5.468h-1.163v-5.53c0-1.937-1.122-3.12-3.08-3.12-1.806 0-3.214 1.295-3.214 3.182v5.468h-1.163v-9.6h1.153v1.684c.755-1.286 2.101-1.837 3.427-1.837 1.796 0 3.163.827 3.734 2.234.714-1.57 2.234-2.234 3.724-2.234M17.148 5.09c2.408 0 4.05 1.49 4.05 3.867v5.886h-1.163v-5.53c0-1.937-1.132-3.12-3.091-3.12-1.806 0-3.213 1.295-3.213 3.182v5.468h-1.163v-5.53c0-1.937-1.122-3.12-3.08-3.12-1.806 0-3.214 1.295-3.214 3.182v5.468H5.11v-9.6h1.152v1.684C7.018 5.64 8.365 5.09 9.691 5.09c1.795 0 3.163.827 3.734 2.234.714-1.57 2.234-2.234 3.723-2.234M.826.949c.47 0 .837.377.837.846 0 .47-.367.827-.837.827A.81.81 0 0 1 0 1.795C0 1.326.357.95.826.95M.245 14.843h1.163v-9.6H.245z" mask="url(#b)"/>
    </g>
</svg>
