<?xml version="1.0" encoding="utf-8"?>
<!-- Generator: Adobe Illustrator 23.1.0, SVG Export Plug-In . SVG Version: 6.00 Build 0)  -->
<svg version="1.1" id="Calque_1" xmlns="http://www.w3.org/2000/svg" xmlns:xlink="http://www.w3.org/1999/xlink" x="0px" y="0px"
	 viewBox="0 0 600 201" style="enable-background:new 0 0 600 201;" xml:space="preserve">
<style type="text/css">
	.st0{fill:#1D1D1B;}
	.st1{fill:none;stroke:#009EE2;stroke-width:4.333;stroke-miterlimit:10;}
	.st2{fill:#009EE2;}
</style>
<g>
	<g>
		<path class="st0" d="M51.4,79v13.7H15V30.5h14.2V79H51.4z"/>
		<path class="st0" d="M97.6,82.9H74.5l-3.1,9.8H55.9L77,30.5h18.1l21.1,62.1h-15.5L97.6,82.9z M93.4,69.6l-7.3-22.8l-7.3,22.8H93.4
			z"/>
		<path class="st0" d="M144.8,61.6c0-18.3,13.6-32.3,32.3-32.3c11.3,0,21.2,5.6,26.6,14.4l-12.2,7.1c-2.8-4.8-8.1-7.6-14.4-7.6
			c-11,0-18.1,7.4-18.1,18.5c0,11.1,7.1,18.5,18.1,18.5c6.3,0,11.7-2.8,14.4-7.6l12.2,7.1c-5.3,8.8-15.3,14.4-26.6,14.4
			C158.4,93.9,144.8,79.9,144.8,61.6z"/>
		<path class="st0" d="M208.7,61.6c0-18.3,14.5-32.3,32.3-32.3s32.3,14,32.3,32.3S258.9,93.9,241,93.9S208.7,79.9,208.7,61.6z
			 M259.1,61.6c0-11.1-8-18.5-18.1-18.5c-10.1,0-18.1,7.4-18.1,18.5c0,11.1,8,18.5,18.1,18.5C251.1,80,259.1,72.7,259.1,61.6z"/>
		<path class="st0" d="M321.3,44.2h-16v48.4h-14.2V44.2h-16V30.5h46.1V44.2z"/>
		<path class="st0" d="M368.5,79v13.7h-39V30.5H368v13.7h-24.4v10.3h22.2V68h-22.2v11H368.5z"/>
	</g>
	<g>
		<path class="st0" d="M148.9,112v62.1h-14.2V112H148.9z"/>
		<path class="st0" d="M223.5,174.1h-14.2V138l-16.1,26.4h-1.6L175.6,138v36.1h-14.2V112h14.2l16.9,27.6l16.9-27.6h14.2V174.1z"/>
		<path class="st0" d="M298.1,174.1h-14.2V138l-16.1,26.4h-1.6L250.2,138v36.1H236V112h14.2l16.9,27.6l16.9-27.6h14.2V174.1z"/>
		<path class="st0" d="M308,143c0-18.3,14.5-32.3,32.3-32.3s32.3,14,32.3,32.3s-14.5,32.3-32.3,32.3S308,161.3,308,143z M358.4,143
			c0-11.1-8-18.5-18.1-18.5s-18.1,7.4-18.1,18.5c0,11.1,8,18.5,18.1,18.5S358.4,154.1,358.4,143z"/>
	</g>
	<line class="st1" x1="409" y1="30.1" x2="409" y2="176.3"/>
	<g>
		<path class="st2" d="M451.6,57.7c0,4.3-3.4,7.7-7.9,7.7h-3.4v7.1h-5.1V49.9h8.5C448.2,49.9,451.6,53.4,451.6,57.7z M446.5,57.7
			c0-1.6-1.2-2.9-2.7-2.9h-3.4v5.8h3.4C445.3,60.6,446.5,59.3,446.5,57.7z"/>
		<path class="st2" d="M470.3,56.4v16.1h-4.8v-1.5c-1.1,1.2-2.6,2-4.8,2c-4.2,0-7.7-3.7-7.7-8.5c0-4.8,3.5-8.5,7.7-8.5
			c2.2,0,3.7,0.7,4.8,2v-1.5H470.3z M465.4,64.4c0-2.4-1.6-3.9-3.8-3.9c-2.2,0-3.8,1.5-3.8,3.9c0,2.4,1.6,3.9,3.8,3.9
			C463.8,68.3,465.4,66.8,465.4,64.4z"/>
		<path class="st2" d="M484.1,56.1v5.5c-2-0.3-4.8,0.5-4.8,3.7v7.3h-4.8V56.4h4.8v2.9C479.9,57.1,482.1,56.1,484.1,56.1z"/>
	</g>
</g>
<g>
	<path class="st2" d="M451.4,142v6.1h-17.5V142H451.4z"/>
	<g>
		<path class="st0" d="M453.4,111.9v7.3H434V86.1h7.6v25.8H453.4z"/>
		<path class="st0" d="M456.1,102.6c0-9.7,7.7-17.2,17.2-17.2s17.2,7.5,17.2,17.2c0,9.7-7.7,17.2-17.2,17.2S456.1,112.4,456.1,102.6
			z M482.9,102.6c0-5.9-4.3-9.8-9.6-9.8s-9.6,3.9-9.6,9.8c0,5.9,4.3,9.8,9.6,9.8S482.9,108.5,482.9,102.6z"/>
		<path class="st0" d="M529.2,103.6c0,10.1-7,16.3-16.3,16.3c-10.4,0-17.9-7.7-17.9-17.2c0-9.6,7.6-17.3,17.3-17.3
			c6.3,0,11.7,3.1,14.5,7.6l-6.4,3.7c-1.4-2.2-4.3-3.9-8.1-3.9c-5.6,0-9.7,4.1-9.7,9.9c0,5.6,4,9.7,10.4,9.7c4.4,0,7.3-1.9,8.5-5.1
			h-8.8v-6.6h16.6V103.6z"/>
		<path class="st0" d="M543.7,86.1v33.1h-7.6V86.1H543.7z"/>
		<path class="st0" d="M550.7,102.6c0-9.7,7.2-17.2,17.2-17.2c6,0,11.3,3,14.2,7.7l-6.5,3.8c-1.5-2.6-4.3-4.1-7.7-4.1
			c-5.9,0-9.6,3.9-9.6,9.8c0,5.9,3.8,9.8,9.6,9.8c3.4,0,6.2-1.5,7.7-4.1l6.5,3.8c-2.8,4.7-8.1,7.7-14.2,7.7
			C557.9,119.8,550.7,112.4,550.7,102.6z"/>
	</g>
	<g>
		<path class="st0" d="M464.3,127.7v33.1h-7.6v-33.1H464.3z"/>
		<path class="st0" d="M504.3,160.8h-7.6v-19.2l-8.6,14h-0.9l-8.6-14v19.2h-7.6v-33.1h7.6l9,14.7l9-14.7h7.6V160.8z"/>
		<path class="st0" d="M544.4,160.8h-7.6v-19.2l-8.6,14h-0.9l-8.6-14v19.2h-7.6v-33.1h7.6l9,14.7l9-14.7h7.6V160.8z"/>
		<path class="st0" d="M549.9,144.3c0-9.7,7.7-17.2,17.2-17.2s17.2,7.5,17.2,17.2c0,9.7-7.7,17.2-17.2,17.2S549.9,154,549.9,144.3z
			 M576.8,144.3c0-5.9-4.3-9.8-9.6-9.8c-5.4,0-9.6,3.9-9.6,9.8c0,5.9,4.3,9.8,9.6,9.8C572.5,154.1,576.8,150.2,576.8,144.3z"/>
	</g>
</g>
</svg>
