<?xml version="1.0" encoding="utf-8"?>
<!-- Generator: Adobe Illustrator 24.3.0, SVG Export Plug-In . SVG Version: 6.00 Build 0)  -->
<svg version="1.1" id="Calque_1" xmlns="http://www.w3.org/2000/svg" xmlns:xlink="http://www.w3.org/1999/xlink" x="0px" y="0px"
	 viewBox="0 0 447.7 168.3" style="enable-background:new 0 0 447.7 168.3;" xml:space="preserve">
<style type="text/css">
	.st0{fill:#008BE3;}
</style>
<rect x="20.8" y="116.1" class="st0" width="30.3" height="10.6"/>
<polygon points="54.5,64 54.5,76.6 20.9,76.6 20.9,19.2 34.1,19.2 34.1,64 "/>
<path d="M59.2,47.9C59.2,31,72.6,18.1,89,18.1c16.5,0,29.8,12.9,29.8,29.8c0,16.9-13.4,29.8-29.8,29.8
	C72.6,77.7,59.2,64.8,59.2,47.9 M105.7,47.9c0-10.2-7.4-17-16.7-17c-9.3,0-16.7,6.8-16.7,17c0,10.2,7.4,17,16.7,17
	C98.4,64.9,105.7,58.1,105.7,47.9"/>
<path d="M185.9,49.5c0,17.5-12.2,28.2-28.3,28.2c-18,0-31-13.3-31-29.7c0-16.6,13.2-29.9,30.1-29.9c11,0,20.2,5.4,25.1,13.1
	l-11.1,6.4c-2.4-3.8-7.5-6.7-14-6.7c-9.7,0-16.9,7.1-16.9,17.2c0,9.8,6.9,16.9,18,16.9c7.6,0,12.6-3.4,14.7-8.8h-15.3V44.6h28.8
	V49.5z"/>
<rect x="198" y="19.2" width="13.1" height="57.4"/>
<path d="M223.1,47.9c0-16.9,12.5-29.8,29.8-29.8c10.4,0,19.6,5.2,24.6,13.3l-11.3,6.6c-2.5-4.4-7.5-7-13.3-7
	c-10.2,0-16.7,6.8-16.7,17c0,10.2,6.6,17,16.7,17c5.8,0,10.8-2.6,13.3-7l11.3,6.6c-4.9,8.1-14.1,13.3-24.6,13.3
	C235.7,77.7,223.1,64.8,223.1,47.9"/>
<rect x="60.3" y="91.3" width="13.1" height="57.4"/>
<polygon points="142.8,148.7 129.7,148.7 129.7,115.3 114.9,139.7 113.4,139.7 98.6,115.3 98.6,148.7 85.5,148.7 85.5,91.3 
	98.6,91.3 114.2,116.8 129.7,91.3 142.8,91.3 "/>
<polygon points="212.2,148.7 199.1,148.7 199.1,115.3 184.3,139.7 182.8,139.7 168,115.3 168,148.7 154.9,148.7 154.9,91.3 
	168,91.3 183.6,116.8 199.1,91.3 212.2,91.3 "/>
<path d="M221.8,120c0-16.9,13.4-29.8,29.8-29.8c16.5,0,29.8,12.9,29.8,29.8c0,16.9-13.4,29.8-29.8,29.8
	C235.2,149.8,221.8,136.9,221.8,120 M268.3,120c0-10.2-7.4-17-16.7-17c-9.3,0-16.7,6.8-16.7,17c0,10.2,7.4,17,16.7,17
	C261,137,268.3,130.2,268.3,120"/>
<g>
	<path class="st0" d="M332.7,67.6v36.6h-6.3l-14.1-19.9v19.9h-8.4V67.6h6.3l14.1,19.9V67.6H332.7z"/>
	<path class="st0" d="M363.7,96.1v8.1h-23V67.6h22.8v8.1h-14.4v6.1h13.1v8h-13.1v6.5H363.7z"/>
	<path class="st0" d="M369.9,92.4V67.6h8.4v24.1c0,2.8,1.3,5.1,5.8,5.1c4.4,0,5.8-2.4,5.8-5.1V67.6h8.4v24.8
		c0,7.8-6.1,12.6-14.1,12.6C376,104.9,369.9,100.2,369.9,92.4z"/>
	<path class="st0" d="M414.3,75.6v7.1h13.6v8.1h-13.6v13.4h-8.4V67.6h22.2v8.1H414.3z"/>
</g>
</svg>
