<svg width="80" height="40" viewBox="0 0 80 40" fill="none" xmlns="http://www.w3.org/2000/svg">
<g clip-path="url(#clip0)">
<path d="M9.20771 29.7787V33.005H0V29.7787H9.20771Z" fill="#009FE3"/>
<path d="M10.2355 13.9329V17.7588H0.0428162V0.342621H4.02569V13.9329H10.2355V13.9329Z" fill="black"/>
<path d="M11.6631 9.05068C11.6631 3.92577 15.7173 0 20.7138 0C25.7102 0 29.7644 3.92577 29.7644 9.05068C29.7644 14.1756 25.7102 18.1014 20.7138 18.1014C15.7173 18.1014 11.6631 14.1756 11.6631 9.05068ZM25.7816 9.05068C25.7816 5.93862 23.5403 3.88294 20.6995 3.88294C17.8587 3.88294 15.6174 5.95289 15.6174 9.05068C15.6174 12.1485 17.8587 14.2184 20.6995 14.2184C23.5403 14.2184 25.7816 12.1627 25.7816 9.05068Z" fill="black"/>
<path d="M50.1356 9.55033C50.1356 14.8751 46.424 18.1014 41.556 18.1014C36.0885 18.1014 32.1485 14.0757 32.1485 9.06496C32.1485 4.01143 36.1599 -0.014267 41.2848 -0.014267C44.6253 -0.014267 47.4233 1.62742 48.8936 3.9686L45.5103 5.91007C44.7823 4.76803 43.2263 3.86867 41.2562 3.86867C38.3155 3.86867 36.1313 6.03855 36.1313 9.09351C36.1313 12.0485 38.2156 14.2184 41.5989 14.2184C43.9115 14.2184 45.4247 13.2049 46.0528 11.5346H41.399V8.06568H50.1356V9.55033V9.55033Z" fill="black"/>
<path d="M57.773 0.342621V17.7588H53.7902V0.342621H57.773Z" fill="black"/>
<path d="M61.4419 9.05068C61.4419 3.92577 65.2391 0 70.4925 0C73.6474 0 76.4454 1.57031 77.9586 4.0257L74.5325 6.00999C73.7616 4.6681 72.2627 3.86867 70.5068 3.86867C67.4233 3.86867 65.4247 5.93862 65.4247 9.03641C65.4247 12.1342 67.409 14.2041 70.5068 14.2041C72.277 14.2041 73.7902 13.4047 74.5325 12.0628L77.9586 14.0471C76.4597 16.5168 73.676 18.0728 70.4925 18.0728C65.2391 18.1156 61.4419 14.1756 61.4419 9.05068Z" fill="black"/>
<path d="M15.9743 22.2413V39.6574H12.0057V22.2413H15.9743Z" fill="black"/>
<path d="M37.045 39.6574H33.0621V29.5361L28.5653 36.9308H28.1228L23.626 29.5361V39.6574H19.6431V22.2413H23.626L28.3512 29.9786L33.0764 22.2413H37.0592V39.6574H37.045Z" fill="black"/>
<path d="M58.1156 39.6574H54.1328V29.5361L49.636 36.9308H49.1934L44.6824 29.5361V39.6574H40.6995V22.2413H44.6824L49.4076 29.9786L54.1328 22.2413H58.1156V39.6574Z" fill="black"/>
<path d="M61.0278 30.9493C61.0278 25.8244 65.0821 21.8987 70.0785 21.8987C75.0749 21.8987 79.1292 25.8244 79.1292 30.9493C79.1292 36.0742 75.0749 40 70.0785 40C65.0821 40 61.0278 36.0742 61.0278 30.9493ZM75.1606 30.9493C75.1606 27.8373 72.9193 25.7816 70.0785 25.7816C67.2377 25.7816 64.9964 27.8515 64.9964 30.9493C64.9964 34.0614 67.2377 36.1171 70.0785 36.1171C72.9193 36.1171 75.1606 34.0614 75.1606 30.9493Z" fill="black"/>
</g>
<defs>
<clipPath id="clip0">
<rect width="79.1435" height="40" fill="white"/>
</clipPath>
</defs>
</svg>
