<svg width="123" height="40" viewBox="0 0 123 40" fill="none" xmlns="http://www.w3.org/2000/svg">
<path d="M9.15308 29.7368H0V32.9824H9.15308V29.7368Z" fill="#2D85C7"/>
<path d="M10.1992 13.9474V17.7193H0.0871887V0.350861H4.00994V13.9474H10.1992Z" fill="#010202"/>
<path d="M11.5939 9.03509C11.5939 3.94737 15.6038 0 20.5726 0C25.5415 0 29.5514 3.94737 29.5514 9.03509C29.5514 14.1228 25.5415 18.0702 20.5726 18.0702C15.6038 18.0702 11.5939 14.1228 11.5939 9.03509ZM25.6286 9.03509C25.6286 5.96491 23.3622 3.85965 20.5726 3.85965C17.7831 3.85965 15.5167 5.87719 15.5167 9.03509C15.5167 12.1053 17.7831 14.2105 20.5726 14.2105C23.3622 14.2105 25.6286 12.1053 25.6286 9.03509Z" fill="#010202"/>
<path d="M49.8625 9.5614C49.8625 14.9123 46.2013 18.1579 41.3196 18.1579C35.9149 18.1579 31.9922 14.1228 31.9922 9.12281C31.9922 4.03509 36.0021 0 41.0581 0C44.3706 0 47.1602 1.66667 48.6421 3.94737L45.2424 5.87719C44.545 4.73684 42.9759 3.85965 40.9709 3.85965C38.0942 3.85965 35.9149 6.05263 35.9149 9.12281C35.9149 12.1053 38.0071 14.2105 41.3196 14.2105C43.5861 14.2105 45.1552 13.1579 45.7654 11.4912H41.1453V7.98246H49.8625V9.5614Z" fill="#010202"/>
<path d="M57.4465 0.350861H53.5237V17.807H57.4465V0.350861Z" fill="#010202"/>
<path d="M61.1077 9.03509C61.1077 3.94737 64.8561 0 70.0864 0C73.2246 0 76.0141 1.57895 77.4961 4.03509L74.0964 6.05263C73.3118 4.73684 71.8299 3.94737 70.0864 3.94737C67.0354 3.94737 65.0304 6.05263 65.0304 9.12281C65.0304 12.193 67.0354 14.2982 70.0864 14.2982C71.8299 14.2982 73.3118 13.5088 74.0964 12.193L77.4961 14.2105C76.0141 16.6667 73.2246 18.2456 70.0864 18.2456C64.8561 18.0702 61.1077 14.1228 61.1077 9.03509Z" fill="#010202"/>
<path d="M15.8653 22.193H11.9426V39.6491H15.8653V22.193Z" fill="#010202"/>
<path d="M36.8739 39.6491H32.8639V29.4737L28.4181 36.9298H27.9823L23.4493 29.4737V39.6491H19.5266V22.193H23.4493L28.1566 30L32.8639 22.193H36.8739V39.6491Z" fill="#010202"/>
<path d="M57.7952 39.6491H53.8724V29.4737L49.3395 36.9298H48.9036L44.4578 29.4737V39.6491H40.4479V22.193H44.4578L49.1651 30L53.8724 22.193H57.7952V39.6491Z" fill="#010202"/>
<path d="M60.6718 30.9649C60.6718 25.8772 64.6818 21.9298 69.6506 21.9298C74.6194 21.9298 78.6293 25.8772 78.6293 30.9649C78.6293 36.0526 74.6194 40 69.6506 40C64.6818 40 60.6718 36.0526 60.6718 30.9649ZM74.7066 30.9649C74.7066 27.8947 72.4401 25.7895 69.6506 25.7895C66.8611 25.7895 64.5946 27.8947 64.5946 30.9649C64.5946 34.0351 66.8611 36.1404 69.6506 36.1404C72.5273 36.1404 74.7066 34.0351 74.7066 30.9649Z" fill="#010202"/>
<path d="M94.146 15V26.1404H92.2282L88.0439 20.0877V26.1404H85.5159V15H87.3465L91.618 21.0526V15H94.146Z" fill="#2D85C7"/>
<path d="M103.561 23.6842V26.1404H96.5868V15H103.473V17.4561H99.1148V19.2982H103.038V21.7544H99.1148V23.6842H103.561Z" fill="#2D85C7"/>
<path d="M105.391 22.5439V15H107.919V22.2807C107.919 23.1579 108.355 23.8596 109.663 23.8596C110.97 23.8596 111.406 23.1579 111.406 22.2807V15H113.934V22.5439C113.934 24.9123 112.103 26.3158 109.663 26.3158C107.222 26.3158 105.391 24.9123 105.391 22.5439Z" fill="#2D85C7"/>
<path d="M118.816 17.4561V19.5614H122.913V22.0175H118.816V26.1404H116.288V15H123V17.4561H118.816Z" fill="#2D85C7"/>
</svg>
