<?xml version="1.0" encoding="utf-8"?>
<!-- Generator: Adobe Illustrator 23.1.0, SVG Export Plug-In . SVG Version: 6.00 Build 0)  -->
<svg version="1.1" id="Calque_1" xmlns="http://www.w3.org/2000/svg" xmlns:xlink="http://www.w3.org/1999/xlink" x="0px" y="0px"
	 viewBox="0 0 633.2 173" style="enable-background:new 0 0 633.2 173;" xml:space="preserve">
<style type="text/css">
	.st0{fill:#43B287;}
</style>
<rect x="16.4" y="117.7" class="st0" width="30.3" height="10.6"/>
<polygon points="50.1,65.5 50.1,78.1 16.5,78.1 16.5,20.8 29.6,20.8 29.6,65.5 "/>
<path d="M54.8,49.5c0-16.9,13.4-29.8,29.8-29.8s29.8,12.9,29.8,29.8c0,16.9-13.4,29.8-29.8,29.8S54.8,66.3,54.8,49.5 M101.3,49.5
	c0-10.2-7.4-17-16.7-17s-16.7,6.8-16.7,17c0,10.2,7.4,17,16.7,17S101.3,59.7,101.3,49.5"/>
<path d="M181.5,51.1c0,17.5-12.2,28.2-28.3,28.2c-18,0-31-13.3-31-29.7c0-16.6,13.2-29.9,30.1-29.9c11,0,20.2,5.4,25.1,13.1
	l-11.1,6.4c-2.4-3.8-7.5-6.7-14-6.7c-9.7,0-16.9,7.1-16.9,17.2c0,9.8,6.9,16.9,18,16.9c7.6,0,12.6-3.4,14.7-8.8h-15.3V46.2h28.8
	V51.1z"/>
<rect x="193.5" y="20.8" width="13.1" height="57.4"/>
<path d="M218.7,49.5c0-16.9,12.5-29.8,29.8-29.8c10.4,0,19.6,5.2,24.6,13.3l-11.3,6.6c-2.5-4.4-7.5-7-13.3-7
	c-10.2,0-16.7,6.8-16.7,17c0,10.2,6.6,17,16.7,17c5.8,0,10.8-2.6,13.3-7l11.3,6.6c-4.9,8.1-14.1,13.3-24.6,13.3
	C231.2,79.3,218.7,66.3,218.7,49.5"/>
<rect x="55.9" y="92.9" width="13.1" height="57.4"/>
<polygon points="138.4,150.2 125.3,150.2 125.3,116.9 110.5,141.2 109,141.2 94.1,116.9 94.1,150.2 81,150.2 81,92.9 94.1,92.9 
	109.7,118.4 125.3,92.9 138.4,92.9 "/>
<polygon points="207.8,150.2 194.7,150.2 194.7,116.9 179.8,141.2 178.4,141.2 163.5,116.9 163.5,150.2 150.4,150.2 150.4,92.9 
	163.5,92.9 179.1,118.4 194.7,92.9 207.8,92.9 "/>
<path d="M217.4,121.6c0-16.9,13.4-29.8,29.8-29.8c16.5,0,29.8,12.9,29.8,29.8c0,16.9-13.4,29.8-29.8,29.8
	C230.7,151.4,217.4,138.4,217.4,121.6 M263.9,121.6c0-10.2-7.4-17-16.7-17c-9.3,0-16.7,6.8-16.7,17c0,10.2,7.4,17,16.7,17
	C256.5,138.6,263.9,131.8,263.9,121.6"/>
<g>
	<path class="st0" d="M309.2,50.7v7.1h13.6v8.1h-13.6v13.4h-8.4V42.7H323v8.1H309.2z"/>
	<path class="st0" d="M349.7,73.5h-13.6l-1.8,5.8h-9.2l12.4-36.6h10.7l12.4,36.6h-9.2L349.7,73.5z M347.2,65.7l-4.3-13.4l-4.3,13.4
		H347.2z"/>
	<path class="st0" d="M373.9,42.7v36.6h-8.4V42.7H373.9z"/>
	<path class="st0" d="M394.3,67.3h-4v12h-8.4V42.7h14.6c7,0,12.6,5.6,12.6,12.6c0,4.5-2.7,8.6-6.7,10.6l7.8,13.4h-9L394.3,67.3z
		 M390.3,59.9h6.3c2.3,0,4.2-2,4.2-4.7c0-2.7-1.9-4.7-4.2-4.7h-6.3V59.9z"/>
	<path class="st0" d="M438.9,71.2v8.1h-23V42.7h22.8v8.1h-14.4v6.1h13.1v8h-13.1v6.5H438.9z"/>
</g>
<g>
	<path class="st0" d="M299.2,108.5c0-10.8,8-19,19-19c6.6,0,12.5,3.3,15.7,8.5l-7.2,4.2c-1.6-2.8-4.8-4.5-8.5-4.5
		c-6.5,0-10.7,4.3-10.7,10.9c0,6.5,4.2,10.9,10.7,10.9c3.7,0,6.9-1.7,8.5-4.5l7.2,4.2c-3.1,5.2-9,8.5-15.7,8.5
		C307.2,127.6,299.2,119.3,299.2,108.5z"/>
	<path class="st0" d="M337.5,108.5c0-10.8,8.5-19,19-19s19,8.3,19,19s-8.5,19-19,19S337.5,119.3,337.5,108.5z M367.2,108.5
		c0-6.5-4.7-10.9-10.7-10.9c-6,0-10.7,4.3-10.7,10.9c0,6.5,4.7,10.9,10.7,10.9C362.5,119.4,367.2,115.1,367.2,108.5z"/>
	<path class="st0" d="M410.9,90.2v36.6h-6.3L390.5,107v19.9h-8.4V90.2h6.3l14.1,19.9V90.2H410.9z"/>
	<path class="st0" d="M416.6,118.5l7.2-4.2c1.3,3,3.6,5.1,7.7,5.1c4,0,5-1.6,5-3c0-2.2-2.1-3.1-7.6-4.7c-5.4-1.5-10.8-4.1-10.8-11.1
		c0-7.1,6-11.1,12.3-11.1c6,0,10.7,2.9,13.4,8.3l-7.1,4.1c-1.3-2.6-3-4.2-6.3-4.2c-2.6,0-3.9,1.3-3.9,2.8c0,1.7,0.9,2.8,6.6,4.6
		c5.5,1.7,11.8,3.6,11.8,11.4c0,7.1-5.6,11.2-13.6,11.2C423.5,127.6,418.6,123.9,416.6,118.5z"/>
	<path class="st0" d="M474,98.3h-9.4v28.6h-8.4V98.3h-9.4v-8.1H474V98.3z"/>
	<path class="st0" d="M491.8,114.8h-4v12h-8.4V90.2h14.6c7,0,12.6,5.6,12.6,12.6c0,4.5-2.7,8.6-6.7,10.6l7.8,13.4h-9L491.8,114.8z
		 M487.8,107.5h6.3c2.3,0,4.2-2,4.2-4.7c0-2.7-1.9-4.7-4.2-4.7h-6.3V107.5z"/>
	<path class="st0" d="M512.9,115V90.2h8.4v24.1c0,2.8,1.3,5.1,5.8,5.1s5.8-2.4,5.8-5.1V90.2h8.4V115c0,7.8-6.1,12.6-14.1,12.6
		C518.9,127.6,512.9,122.9,512.9,115z"/>
	<path class="st0" d="M557.3,90.2v36.6h-8.4V90.2H557.3z"/>
	<path class="st0" d="M577.6,114.8h-4v12h-8.4V90.2h14.6c7,0,12.6,5.6,12.6,12.6c0,4.5-2.7,8.6-6.7,10.6l7.8,13.4h-9L577.6,114.8z
		 M573.6,107.5h6.3c2.3,0,4.2-2,4.2-4.7c0-2.7-1.9-4.7-4.2-4.7h-6.3V107.5z"/>
	<path class="st0" d="M622.2,118.8v8.1h-23V90.2H622v8.1h-14.4v6.1h13.1v8h-13.1v6.5H622.2z"/>
</g>
</svg>
