<?xml version="1.0" encoding="UTF-8" standalone="no"?>
<svg
   xmlns:dc="http://purl.org/dc/elements/1.1/"
   xmlns:cc="http://creativecommons.org/ns#"
   xmlns:rdf="http://www.w3.org/1999/02/22-rdf-syntax-ns#"
   xmlns:svg="http://www.w3.org/2000/svg"
   xmlns="http://www.w3.org/2000/svg"
   xmlns:sodipodi="http://sodipodi.sourceforge.net/DTD/sodipodi-0.dtd"
   xmlns:inkscape="http://www.inkscape.org/namespaces/inkscape"
   version="1.1"
   id="svg2"
   xml:space="preserve"
   width="1122.52"
   height="793.70135"
   viewBox="200 200 822.52 493.70135"
   sodipodi:docname="LUX RESIDENCE_CMJN.ai"><metadata
     id="metadata8"><rdf:RDF><cc:Work
         rdf:about=""><dc:format>image/svg+xml</dc:format><dc:type
           rdf:resource="http://purl.org/dc/dcmitype/StillImage" /></cc:Work></rdf:RDF></metadata><defs
     id="defs6"><clipPath
       clipPathUnits="userSpaceOnUse"
       id="clipPath26"><path
         d="M 0,595.276 H 841.89 V 0 H 0 Z"
         id="path24" /></clipPath></defs><sodipodi:namedview
     pagecolor="#ffffff"
     bordercolor="#666666"
     borderopacity="1"
     objecttolerance="10"
     gridtolerance="10"
     guidetolerance="10"
     inkscape:pageopacity="0"
     inkscape:pageshadow="2"
     inkscape:window-width="640"
     inkscape:window-height="480"
     id="namedview4" /><g
     id="g10"
     inkscape:groupmode="layer"
     inkscape:label="LUX RESIDENCE_CMJN"
     transform="matrix(1.3333333,0,0,-1.3333333,0,793.70133)"><g
       id="g12"
       transform="translate(356.9189,264.9551)"><path
         d="m 0,0 h -88.251 v 142.44 h -12 V -12 H 0 Z"
         style="fill:#1d1d1b;fill-opacity:1;fill-rule:nonzero;stroke:none"
         id="path14" /></g><g
       id="g16"
       transform="translate(416.0786,375.8843)"><path
         d="M 0,0 H -12 V -76.349 H -81.993 V 0 h -12 V -88.348 H 0 Z"
         style="fill:#1d1d1b;fill-opacity:1;fill-rule:nonzero;stroke:none"
         id="path18" /></g><g
       id="g20"><g
         id="g22"
         clip-path="url(#clipPath26)"><g
           id="g28"
           transform="translate(579.1816,407.7822)"><path
             d="m 0,0 9.819,-0.009 0.01,12 L 0.005,12 c -34.951,0 -64.881,-21.829 -76.927,-52.561 -12.447,29.882 -41.95,50.948 -76.288,50.948 h -9.82 v -12 h 9.82 c 38.933,0 70.606,-31.675 70.606,-70.608 0,-38.932 -31.673,-70.606 -70.606,-70.606 h -9.82 v -12 h 9.82 c 34.95,0 64.88,21.828 76.926,52.56 12.447,-29.883 41.949,-50.947 76.284,-50.947 l 9.819,-0.01 0.01,12 -9.824,0.01 c -38.933,0 -70.609,31.674 -70.609,70.607 C -70.604,-31.675 -38.928,0 0,0"
             style="fill:#1d1d1b;fill-opacity:1;fill-rule:nonzero;stroke:none"
             id="path30" /></g><g
           id="g32"
           transform="translate(243.835,213.5127)"><path
             d="m 0,0 c 0,-5.564 -4.308,-9.162 -10.974,-9.162 h -6.218 V 8.52 c 1.11,0.251 3.156,0.492 5.986,0.492 C -6.094,8.956 0,7.348 0,0 m 5.441,-22.608 c -1.216,5.32 -3.467,8.686 -6.865,10.253 5.651,2.272 8.991,7.109 8.991,13.11 0,4.099 -1.481,7.664 -4.165,10.033 -3.272,2.961 -7.915,4.281 -15.055,4.281 -4.689,0 -9.439,-0.399 -12.706,-1.067 l -0.4,-0.082 v -51.106 h 7.567 v 22.042 h 5.671 c 5.716,-0.215 8.26,-2.701 9.722,-9.499 1.647,-7.282 2.679,-10.959 3.451,-12.293 l 0.144,-0.25 h 7.92 l -0.397,0.738 c -1.047,1.944 -2.321,7.188 -3.878,13.84"
             style="fill:#1d1d1b;fill-opacity:1;fill-rule:nonzero;stroke:none"
             id="path34" /></g><g
           id="g36"
           transform="translate(274.7988,200.1807)"><path
             d="M 0,0 H 19.777 V 6.436 H 0 v 15.078 h 20.909 v 6.509 H -7.567 v -51.877 h 29.609 v 6.511 l -22.042,0 z"
             style="fill:#1d1d1b;fill-opacity:1;fill-rule:nonzero;stroke:none"
             id="path38" /></g><g
           id="g40"
           transform="translate(327.8437,206.1279)"><path
             d="m 0,0 c -7.416,2.871 -9.796,5.144 -9.796,9.349 0,3.546 2.81,7.123 9.087,7.123 4.221,0 7.454,-1.281 9.422,-2.355 l 0.523,-0.285 2.135,6.315 -0.36,0.205 c -1.684,0.955 -5.417,2.554 -11.493,2.554 -9.984,0 -16.956,-5.885 -16.956,-14.313 0,-6.826 4.375,-11.558 13.756,-14.885 6.755,-2.598 9.266,-5.212 9.266,-9.646 0,-5.047 -3.886,-8.183 -10.143,-8.183 -3.905,0 -8.209,1.214 -11.513,3.247 l -0.553,0.341 -1.956,-6.488 0.309,-0.205 c 2.894,-1.929 8.471,-3.33 13.26,-3.33 13.518,0 18.315,8.16 18.315,15.145 C 13.303,-8.11 9.449,-3.646 0,0"
             style="fill:#1d1d1b;fill-opacity:1;fill-rule:nonzero;stroke:none"
             id="path42" /></g><path
           d="m 356.675,176.327 h 7.567 v 51.877 h -7.567 z"
           style="fill:#1d1d1b;fill-opacity:1;fill-rule:nonzero;stroke:none"
           id="path44" /><g
           id="g46"
           transform="translate(395.9722,182.1582)"><path
             d="m 0,0 c -1.801,0 -4.333,0.033 -6.143,0.302 v 39.326 c 1.448,0.284 3.789,0.587 7.2,0.587 6.671,0 11.802,-1.759 15.25,-5.229 3.26,-3.281 4.895,-7.956 4.857,-13.897 C 21.164,7.489 13.648,0 0,0 m 21.703,39.949 c -4.674,4.358 -11.526,6.475 -20.948,6.475 -4.647,0 -9.37,-0.358 -14.04,-1.064 L -13.71,45.296 V -5.626 l 0.443,-0.051 c 3.544,-0.403 7.576,-0.607 11.984,-0.607 10.061,0 17.962,2.583 22.845,7.467 4.888,4.808 7.472,11.771 7.472,20.132 0,7.906 -2.468,14.175 -7.331,18.634"
             style="fill:#1d1d1b;fill-opacity:1;fill-rule:nonzero;stroke:none"
             id="path48" /></g><g
           id="g50"
           transform="translate(447.6465,200.1807)"><path
             d="M 0,0 H 19.777 V 6.436 H 0 v 15.078 h 20.91 v 6.509 H -7.566 v -51.877 h 29.608 v 6.511 l -22.042,0 z"
             style="fill:#1d1d1b;fill-opacity:1;fill-rule:nonzero;stroke:none"
             id="path52" /></g><g
           id="g54"
           transform="translate(516.7676,206.417)"><path
             d="m 0,0 c 0,-6.663 0.103,-12.494 0.571,-18.7 -2.266,4.652 -4.955,9.423 -8.177,14.514 l -16.453,25.973 h -7.946 V -30.09 h 7.19 v 22.239 c 0,7.68 -0.124,13.381 -0.424,19.111 2.15,-4.385 4.951,-9.303 8.709,-15.299 L -0.229,-30.09 h 7.418 v 51.877 l -7.189,0 z"
             style="fill:#1d1d1b;fill-opacity:1;fill-rule:nonzero;stroke:none"
             id="path56" /></g><g
           id="g58"
           transform="translate(566.2539,222.5244)"><path
             d="m 0,0 c 3.735,0 7.304,-0.732 10.048,-2.063 l 0.53,-0.258 1.87,6.319 -0.365,0.19 C 11.039,4.733 7.068,6.51 -0.227,6.51 c -16.191,0 -27.07,-10.94 -27.07,-27.222 0,-15.939 10.064,-26.24 25.637,-26.24 6.431,0 11.273,1.275 13.659,2.47 l 0.362,0.18 -1.614,6.19 -0.549,-0.266 c -2.619,-1.272 -6.642,-2.062 -10.5,-2.062 -11.928,0 -19.052,7.46 -19.052,19.956 C -19.354,-7.85 -11.938,0 0,0"
             style="fill:#1d1d1b;fill-opacity:1;fill-rule:nonzero;stroke:none"
             id="path60" /></g><g
           id="g62"
           transform="translate(600.8682,182.8379)"><path
             d="m 0,0 v 17.343 h 19.777 v 6.434 H 0 v 15.078 h 20.91 v 6.511 H -7.566 V -6.511 H 22.042 V 0 Z"
             style="fill:#1d1d1b;fill-opacity:1;fill-rule:nonzero;stroke:none"
             id="path64" /></g></g></g></g></svg>
