<?xml version="1.0" encoding="UTF-8" standalone="no"?>
<svg
   xmlns:dc="http://purl.org/dc/elements/1.1/"
   xmlns:cc="http://creativecommons.org/ns#"
   xmlns:rdf="http://www.w3.org/1999/02/22-rdf-syntax-ns#"
   xmlns:svg="http://www.w3.org/2000/svg"
   xmlns="http://www.w3.org/2000/svg"
   xmlns:sodipodi="http://sodipodi.sourceforge.net/DTD/sodipodi-0.dtd"
   xmlns:inkscape="http://www.inkscape.org/namespaces/inkscape"
   version="1.1"
   id="svg2"
   xml:space="preserve"
   width="316"
   height="158.66667"
   viewBox="0 0 316 158.66667"
   sodipodi:docname="Brand_Dconstruire_CMJN.ai"><metadata
     id="metadata8"><rdf:RDF><cc:Work
         rdf:about=""><dc:format>image/svg+xml</dc:format><dc:type
           rdf:resource="http://purl.org/dc/dcmitype/StillImage" /></cc:Work></rdf:RDF></metadata><defs
     id="defs6"><clipPath
       clipPathUnits="userSpaceOnUse"
       id="clipPath18"><path
         d="M 0,119 H 237 V 0 H 0 Z"
         id="path16" /></clipPath></defs><sodipodi:namedview
     pagecolor="#ffffff"
     bordercolor="#666666"
     borderopacity="1"
     objecttolerance="10"
     gridtolerance="10"
     guidetolerance="10"
     inkscape:pageopacity="0"
     inkscape:pageshadow="2"
     inkscape:window-width="640"
     inkscape:window-height="480"
     id="namedview4" /><g
     id="g10"
     inkscape:groupmode="layer"
     inkscape:label="Brand_Dconstruire_CMJN"
     transform="matrix(1.3333333,0,0,-1.3333333,0,158.66667)"><g
       id="g12"><g
         id="g14"
         clip-path="url(#clipPath18)"><g
           id="g20"
           transform="translate(72.6724,81.3467)"><path
             d="M 0,0 C 0.335,1.92 0.175,3.353 -0.483,4.298 -1.141,5.239 -2.191,5.711 -3.631,5.711 -5.073,5.711 -6.306,5.23 -7.332,4.271 -8.357,3.31 -9.035,1.886 -9.364,0 l -0.037,-0.206 h 9.366 z M 7.41,-4.116 C 7.267,-4.94 6.833,-5.353 6.113,-5.353 h -16.414 l -0.018,-0.101 c -0.124,-0.712 -0.161,-1.412 -0.108,-2.091 0.052,-0.68 0.239,-1.274 0.563,-1.783 0.322,-0.51 0.791,-0.92 1.407,-1.225 0.615,-0.307 1.437,-0.459 2.467,-0.459 0.823,0 1.7,0.017 2.633,0.052 0.932,0.034 1.856,0.069 2.771,0.103 0.914,0.034 1.77,0.077 2.57,0.128 0.798,0.052 1.458,0.112 1.986,0.181 h 0.155 c 0.649,0 0.929,-0.277 0.833,-0.827 l -0.689,-3.94 c -0.074,-0.415 -0.197,-0.726 -0.37,-0.933 -0.173,-0.207 -0.492,-0.363 -0.955,-0.466 -1.72,-0.414 -3.387,-0.726 -5.001,-0.933 -1.614,-0.208 -3.536,-0.311 -5.766,-0.311 -1.544,0 -3.049,0.223 -4.515,0.669 -1.466,0.444 -2.726,1.182 -3.779,2.212 -1.056,1.029 -1.813,2.393 -2.27,4.091 -0.459,1.698 -0.471,3.783 -0.039,6.252 l 0.63,3.603 c 0.359,2.057 0.978,3.926 1.856,5.607 0.876,1.681 1.975,3.106 3.294,4.271 1.317,1.167 2.839,2.066 4.563,2.703 1.723,0.634 3.614,0.952 5.673,0.952 2.091,0 3.876,-0.344 5.351,-1.031 C 4.416,10.686 5.581,9.742 6.435,8.542 7.288,7.341 7.835,5.917 8.081,4.271 8.323,2.623 8.274,0.823 7.933,-1.131 Z"
             style="fill:#54b476;fill-opacity:1;fill-rule:nonzero;stroke:none"
             id="path22" /></g><g
           id="g24"
           transform="translate(123.8213,80.3687)"><path
             d="M 0,0 C 0.732,4.187 -0.421,6.277 -3.456,6.277 -4.958,6.277 -6.192,5.754 -7.16,4.708 -8.127,3.662 -8.794,2.092 -9.16,0 l -0.631,-3.602 c -0.365,-2.092 -0.249,-3.671 0.35,-4.734 0.599,-1.063 1.649,-1.596 3.15,-1.596 3.037,0 4.923,2.112 5.661,6.33 z M 7.705,-3.602 C 7.346,-5.66 6.737,-7.513 5.884,-9.158 c -0.857,-1.647 -1.926,-3.046 -3.209,-4.194 -1.284,-1.15 -2.779,-2.043 -4.489,-2.677 -1.709,-0.634 -3.614,-0.951 -5.71,-0.951 -2.096,0 -3.889,0.317 -5.376,0.951 -1.488,0.634 -2.681,1.527 -3.58,2.677 -0.899,1.148 -1.488,2.547 -1.767,4.194 -0.28,1.645 -0.239,3.498 0.122,5.556 L -17.497,0 c 0.362,2.059 0.968,3.912 1.823,5.557 0.856,1.647 1.933,3.046 3.235,4.195 1.301,1.149 2.805,2.04 4.516,2.676 1.708,0.635 3.611,0.952 5.708,0.952 2.097,0 3.89,-0.317 5.376,-0.952 C 4.649,11.792 5.833,10.901 6.716,9.752 7.598,8.603 8.177,7.204 8.457,5.557 8.736,3.912 8.696,2.059 8.336,0 Z"
             style="fill:#54b476;fill-opacity:1;fill-rule:nonzero;stroke:none"
             id="path26" /></g><g
           id="g28"
           transform="translate(151.5342,83.6113)"><path
             d="m 0,0 c 0.187,1.063 0.032,1.947 -0.462,2.648 -0.495,0.705 -1.65,1.058 -3.47,1.058 -1.817,0 -3.115,-0.353 -3.888,-1.058 C -8.596,1.947 -9.075,1.063 -9.262,0 l -0.071,-0.412 c -0.079,-0.447 -0.095,-0.883 -0.05,-1.312 0.045,-0.43 0.208,-0.816 0.49,-1.157 0.284,-0.344 0.708,-0.619 1.274,-0.825 0.562,-0.204 1.342,-0.307 2.337,-0.307 1.819,0 3.094,0.325 3.825,0.976 0.732,0.651 1.192,1.526 1.386,2.625 z m -3.496,-21.458 c 0.044,0.241 0.025,0.472 -0.058,0.694 -0.081,0.223 -0.292,0.438 -0.633,0.644 -0.342,0.206 -0.837,0.412 -1.487,0.617 -0.65,0.207 -1.536,0.445 -2.653,0.722 l -3.663,0.823 c -0.386,-0.447 -0.72,-0.919 -0.993,-1.416 -0.278,-0.499 -0.493,-1.191 -0.648,-2.084 l -0.073,-0.411 c -0.155,-0.893 0.089,-1.553 0.734,-1.983 0.646,-0.426 1.963,-0.643 3.953,-0.643 1.063,0 1.93,0.061 2.604,0.181 0.672,0.121 1.211,0.301 1.612,0.54 0.404,0.241 0.693,0.524 0.869,0.849 0.177,0.327 0.3,0.677 0.366,1.056 z M 10.474,5.454 C 10.41,5.076 10.285,4.819 10.106,4.682 9.93,4.545 9.676,4.424 9.35,4.323 L 7.666,3.807 C 7.89,3.326 8.05,2.728 8.147,2.006 8.245,1.285 8.238,0.617 8.131,0 L 8.059,-0.412 C 7.471,-3.774 5.937,-6.219 3.457,-7.744 c -2.479,-1.527 -5.744,-2.293 -9.791,-2.293 -1.201,0 -2.251,0.08 -3.15,0.234 -0.899,0.155 -1.587,0.336 -2.066,0.54 -0.305,-0.172 -0.525,-0.351 -0.66,-0.54 -0.138,-0.19 -0.227,-0.404 -0.268,-0.644 -0.072,-0.411 -0.023,-0.72 0.147,-0.926 0.169,-0.206 0.551,-0.377 1.145,-0.514 l 5.589,-1.287 c 2.146,-0.48 3.951,-0.952 5.413,-1.415 1.462,-0.464 2.612,-0.994 3.452,-1.596 0.838,-0.6 1.389,-1.318 1.655,-2.161 0.265,-0.84 0.289,-1.877 0.072,-3.112 l -0.072,-0.411 c -0.976,-5.592 -5.96,-8.389 -14.948,-8.389 -4.288,0 -7.412,0.721 -9.373,2.162 -1.96,1.44 -2.704,3.516 -2.23,6.227 l 0.071,0.411 c 0.188,1.063 0.604,2.075 1.251,3.035 0.648,0.961 1.597,1.869 2.845,2.728 -0.836,0.514 -1.381,1.226 -1.632,2.135 -0.255,0.909 -0.305,1.792 -0.156,2.65 0.168,0.96 0.53,1.802 1.085,2.523 0.556,0.72 1.204,1.337 1.945,1.851 -0.698,0.721 -1.133,1.662 -1.305,2.83 -0.175,1.166 -0.171,2.265 0.008,3.294 L -17.444,0 c 0.509,2.914 1.943,5.264 4.295,7.049 2.353,1.784 5.776,2.675 10.27,2.675 H 9.934 c 0.377,0 0.665,-0.128 0.86,-0.385 0.192,-0.257 0.26,-0.575 0.192,-0.951 z"
             style="fill:#54b476;fill-opacity:1;fill-rule:nonzero;stroke:none"
             id="path30" /></g><g
           id="g32"
           transform="translate(178.2529,81.3467)"><path
             d="m 0,0 c 0.337,1.92 0.176,3.353 -0.483,4.298 -0.658,0.941 -1.708,1.413 -3.149,1.413 -1.441,0 -2.674,-0.481 -3.7,-1.44 C -8.356,3.31 -9.034,1.886 -9.363,0 L -9.4,-0.206 h 9.365 z M 7.41,-4.116 C 7.268,-4.94 6.834,-5.353 6.115,-5.353 h -16.416 l -0.017,-0.101 c -0.125,-0.712 -0.162,-1.412 -0.109,-2.091 0.053,-0.68 0.241,-1.274 0.563,-1.783 0.322,-0.51 0.791,-0.92 1.408,-1.225 0.614,-0.307 1.437,-0.459 2.467,-0.459 0.822,0 1.7,0.017 2.632,0.052 0.932,0.034 1.856,0.069 2.772,0.103 0.913,0.034 1.771,0.077 2.569,0.128 0.798,0.052 1.458,0.112 1.987,0.181 h 0.154 c 0.65,0 0.93,-0.277 0.834,-0.827 l -0.689,-3.94 c -0.075,-0.415 -0.198,-0.726 -0.37,-0.933 -0.173,-0.207 -0.493,-0.363 -0.958,-0.466 -1.716,-0.414 -3.384,-0.726 -4.999,-0.933 -1.613,-0.208 -3.537,-0.311 -5.766,-0.311 -1.544,0 -3.048,0.223 -4.514,0.669 -1.467,0.444 -2.726,1.182 -3.781,2.212 -1.054,1.029 -1.812,2.393 -2.269,4.091 -0.457,1.698 -0.47,3.783 -0.038,6.252 l 0.629,3.603 c 0.36,2.057 0.979,3.926 1.856,5.607 0.877,1.681 1.975,3.106 3.294,4.271 1.317,1.167 2.839,2.066 4.563,2.703 1.724,0.634 3.614,0.952 5.672,0.952 2.093,0 3.877,-0.344 5.352,-1.031 C 4.416,10.686 5.581,9.742 6.434,8.542 7.287,7.341 7.837,5.917 8.079,4.271 8.323,2.623 8.275,0.823 7.934,-1.131 Z"
             style="fill:#54b476;fill-opacity:1;fill-rule:nonzero;stroke:none"
             id="path34" /></g><g
           id="g36"
           transform="translate(205.0537,87.1123)"><path
             d="m 0,0 c -0.174,-0.208 -0.381,-0.31 -0.62,-0.31 h -0.411 c -1.27,0 -2.485,-0.172 -3.641,-0.515 -1.159,-0.342 -2.263,-0.771 -3.312,-1.284 l -3.51,-20.074 c -0.05,-0.274 -0.195,-0.523 -0.44,-0.745 -0.244,-0.222 -0.504,-0.334 -0.778,-0.334 h -6.225 c -0.276,0 -0.505,0.112 -0.689,0.334 -0.186,0.225 -0.253,0.473 -0.205,0.747 l 4.788,27.375 c 0.048,0.275 0.192,0.514 0.435,0.721 0.241,0.207 0.499,0.308 0.774,0.308 h 6.122 c 0.275,0 0.497,-0.104 0.667,-0.311 0.171,-0.208 0.232,-0.449 0.182,-0.727 L -7.045,4.148 c 1.099,0.794 2.296,1.408 3.59,1.84 1.293,0.432 2.557,0.648 3.792,0.648 0.274,0 0.496,-0.104 0.666,-0.311 C 1.174,6.117 1.232,5.875 1.185,5.598 L 0.323,0.673 C 0.281,0.433 0.173,0.208 0,0"
             style="fill:#54b476;fill-opacity:1;fill-rule:nonzero;stroke:none"
             id="path38" /></g><g
           id="g40"
           transform="translate(102.4087,64.0742)"><path
             d="m 0,0 c -0.429,-0.103 -0.964,-0.19 -1.658,-0.287 -0.846,-0.116 -1.808,-0.219 -2.771,-0.292 -0.791,-0.06 -1.967,-0.09 -2.654,-0.09 -1.647,0 -3.209,0.136 -4.687,0.411 -1.478,0.274 -2.72,0.806 -3.73,1.594 -1.009,0.792 -1.727,1.912 -2.153,3.372 -0.428,1.458 -0.432,3.353 -0.018,5.686 l 4.729,26.604 c 0.049,0.273 0.194,0.513 0.437,0.719 0.243,0.205 0.5,0.31 0.775,0.31 h 6.741 c 0.273,0 0.497,-0.105 0.664,-0.31 0.171,-0.206 0.231,-0.446 0.181,-0.719 L -8.873,10.394 C -9.111,9.055 -9.024,8.138 -8.616,7.641 -8.207,7.144 -7.402,6.894 -6.201,6.894 H 1.227 C 1.5,6.894 1.722,6.792 1.893,6.586 2.061,6.38 2.122,6.139 2.072,5.866 L 1.222,1.081 C 1.118,0.497 0.712,0.136 0,0"
             style="fill:#54b476;fill-opacity:1;fill-rule:nonzero;stroke:none"
             id="path42" /></g><g
           id="g44"
           transform="translate(54.876,97.8042)"><path
             d="m 0,0 c -1.478,0.406 -3.041,0.748 -4.645,1.014 -1.596,0.263 -3.625,0.397 -6.029,0.397 -4.161,0 -7.422,-0.792 -9.686,-2.357 -2.232,-1.541 -3.633,-3.835 -4.165,-6.817 -0.338,-1.909 -0.183,-3.607 0.465,-5.047 0.647,-1.444 1.717,-2.648 3.179,-3.581 l 7.266,-4.67 c 0.857,-0.545 1.425,-1.037 1.737,-1.504 0.347,-0.522 0.465,-1.094 0.358,-1.698 -0.173,-0.98 -0.603,-1.722 -1.273,-2.205 -0.655,-0.472 -1.767,-0.701 -3.402,-0.701 -0.508,0 -1.197,0.021 -2.04,0.063 -0.85,0.041 -1.779,0.104 -2.759,0.189 -0.972,0.081 -1.975,0.176 -2.981,0.28 -0.97,0.1 -1.878,0.214 -2.694,0.339 h -0.205 c -0.229,0 -0.4,-0.06 -0.542,-0.19 -0.154,-0.142 -0.244,-0.307 -0.282,-0.515 l -0.897,-5.044 c -0.08,-0.45 0.048,-0.646 0.51,-0.773 0.727,-0.203 1.553,-0.386 2.458,-0.549 0.901,-0.162 1.858,-0.308 2.841,-0.431 0.974,-0.122 1.949,-0.216 2.898,-0.278 0.947,-0.06 1.857,-0.091 2.71,-0.091 2.207,0 4.184,0.264 5.874,0.784 1.682,0.517 3.146,1.232 4.352,2.123 1.194,0.882 2.167,1.945 2.894,3.162 0.727,1.22 1.22,2.538 1.465,3.915 0.139,0.784 0.202,1.584 0.185,2.377 -0.016,0.754 -0.18,1.512 -0.484,2.251 -0.308,0.746 -0.782,1.488 -1.41,2.205 -0.633,0.722 -1.515,1.452 -2.619,2.169 l -6.943,4.426 c -0.603,0.405 -1.047,0.772 -1.36,1.123 -0.392,0.442 -0.541,1.008 -0.429,1.637 0.199,1.122 0.834,1.629 1.33,1.857 0.624,0.287 1.561,0.427 2.861,0.427 0.797,0 1.715,-0.032 2.728,-0.095 0.993,-0.061 1.991,-0.135 2.963,-0.219 0.965,-0.083 1.869,-0.179 2.682,-0.282 0.791,-0.102 1.411,-0.174 1.845,-0.213 h 0.161 c 0.291,0 0.583,0.054 0.7,0.705 l 0.896,5.043 C 0.593,-0.323 0.463,-0.128 0,0"
             style="fill:#54b476;fill-opacity:1;fill-rule:nonzero;stroke:none"
             id="path46" /></g><g
           id="g48"
           transform="translate(38.2397,18.0752)"><path
             d="m 0,0 c -0.169,-0.172 -0.465,-0.292 -0.89,-0.361 -0.887,-0.17 -1.902,-0.308 -3.037,-0.413 -1.135,-0.101 -2.304,-0.154 -3.508,-0.154 -1.75,0 -3.253,0.302 -4.504,0.903 -1.25,0.601 -2.25,1.443 -3.002,2.525 -0.753,1.082 -1.232,2.397 -1.437,3.942 -0.209,1.549 -0.143,3.267 0.194,5.157 l 0.716,4.019 c 0.335,1.89 0.882,3.609 1.636,5.156 0.759,1.545 1.697,2.861 2.817,3.945 1.119,1.082 2.422,1.924 3.904,2.523 1.479,0.601 3.098,0.903 4.85,0.903 1.204,0 2.351,-0.051 3.451,-0.154 1.098,-0.105 2.062,-0.241 2.889,-0.415 0.399,-0.067 0.656,-0.18 0.768,-0.334 0.108,-0.154 0.131,-0.42 0.063,-0.798 L 4.58,24.589 C 4.529,24.312 4.409,24.114 4.217,23.993 4.022,23.876 3.806,23.814 3.566,23.814 H 3.36 c -1.11,0.138 -2.124,0.233 -3.042,0.283 -0.92,0.052 -2.017,0.078 -3.288,0.078 -2.059,0 -3.775,-0.695 -5.137,-2.089 -1.364,-1.391 -2.308,-3.547 -2.826,-6.468 l -0.715,-4.019 C -12.169,8.679 -12,6.52 -11.15,5.131 c 0.853,-1.393 2.326,-2.09 4.423,-2.09 1.27,0 2.375,0.025 3.312,0.077 0.939,0.052 1.986,0.147 3.144,0.284 h 0.206 C 0.176,3.402 0.369,3.341 0.521,3.221 0.672,3.103 0.722,2.903 0.673,2.629 L 0.344,0.772 C 0.282,0.429 0.168,0.172 0,0"
             style="fill:#54b476;fill-opacity:1;fill-rule:nonzero;stroke:none"
             id="path50" /></g><g
           id="g52"
           transform="translate(59.0508,33.6436)"><path
             d="m 0,0 c 0.47,2.646 0.292,4.74 -0.532,6.286 -0.825,1.547 -2.459,2.32 -4.897,2.32 -2.407,0 -4.293,-0.765 -5.665,-2.294 C -12.467,4.783 -13.392,2.679 -13.867,0 l -0.697,-3.92 c -0.473,-2.644 -0.3,-4.739 0.504,-6.288 0.809,-1.547 2.432,-2.319 4.872,-2.319 2.406,0 4.303,0.764 5.69,2.295 1.39,1.526 2.324,3.632 2.8,6.312 z M 3.837,-3.92 C 3.502,-5.809 2.956,-7.526 2.199,-9.073 c -0.756,-1.546 -1.711,-2.871 -2.871,-3.967 -1.157,-1.101 -2.511,-1.952 -4.063,-2.554 -1.549,-0.6 -3.27,-0.902 -5.159,-0.902 -1.89,0 -3.494,0.302 -4.814,0.902 -1.319,0.602 -2.362,1.453 -3.128,2.554 -0.767,1.096 -1.254,2.421 -1.459,3.967 -0.207,1.547 -0.141,3.264 0.193,5.153 L -18.403,0 c 0.336,1.889 0.882,3.606 1.637,5.153 0.759,1.546 1.715,2.869 2.874,3.969 1.156,1.101 2.502,1.952 4.036,2.552 1.533,0.6 3.246,0.902 5.132,0.902 1.892,0 3.505,-0.302 4.843,-0.902 1.335,-0.6 2.386,-1.451 3.152,-2.552 C 4.038,8.022 4.525,6.699 4.73,5.153 4.936,3.606 4.871,1.889 4.533,0 Z"
             style="fill:#54b476;fill-opacity:1;fill-rule:nonzero;stroke:none"
             id="path54" /></g><g
           id="g56"
           transform="translate(84.689,17.8184)"><path
             d="m 0,0 c -0.243,-0.207 -0.502,-0.31 -0.778,-0.31 h -2.473 c -0.276,0 -0.499,0.103 -0.667,0.31 -0.171,0.205 -0.232,0.444 -0.185,0.719 l 3.014,16.923 c 0.232,1.304 0.314,2.39 0.243,3.266 -0.068,0.873 -0.284,1.57 -0.659,2.083 -0.371,0.515 -0.898,0.883 -1.58,1.108 -0.686,0.222 -1.507,0.333 -2.467,0.333 -1.102,0 -2.268,-0.19 -3.503,-0.565 -1.235,-0.379 -2.507,-0.856 -3.811,-1.442 L -16.73,0.719 C -16.779,0.444 -16.922,0.205 -17.167,0 c -0.242,-0.207 -0.502,-0.31 -0.775,-0.31 h -2.526 c -0.276,0 -0.488,0.103 -0.64,0.31 -0.154,0.205 -0.203,0.447 -0.154,0.722 l 4.675,26.287 c 0.048,0.275 0.185,0.516 0.411,0.721 0.226,0.207 0.474,0.31 0.753,0.31 h 2.576 c 0.275,0 0.489,-0.105 0.638,-0.314 0.152,-0.209 0.205,-0.453 0.155,-0.732 l -0.178,-0.995 c 1.587,0.8 3.032,1.4 4.341,1.8 1.307,0.401 2.737,0.602 4.282,0.602 3.127,0 5.239,-0.927 6.335,-2.785 1.096,-1.853 1.338,-4.5 0.727,-7.938 L 0.436,0.722 C 0.389,0.447 0.242,0.205 0,0"
             style="fill:#54b476;fill-opacity:1;fill-rule:nonzero;stroke:none"
             id="path58" /></g><g
           id="g60"
           transform="translate(107.5991,24.6201)"><path
             d="m 0,0 c -0.232,-1.304 -0.665,-2.43 -1.295,-3.375 -0.635,-0.947 -1.423,-1.718 -2.372,-2.319 -0.95,-0.602 -2.044,-1.049 -3.283,-1.34 -1.233,-0.291 -2.576,-0.439 -4.017,-0.439 -0.485,0 -1.059,0.009 -1.723,0.028 -0.668,0.017 -1.364,0.058 -2.091,0.126 -0.729,0.071 -1.462,0.148 -2.201,0.233 -0.743,0.085 -1.405,0.215 -1.993,0.387 -0.692,0.173 -0.992,0.516 -0.899,1.029 l 0.321,1.807 c 0.043,0.239 0.161,0.429 0.359,0.564 0.195,0.139 0.43,0.206 0.706,0.206 h 0.206 c 0.607,-0.067 1.273,-0.134 2,-0.206 0.727,-0.066 1.463,-0.128 2.208,-0.18 0.75,-0.05 1.446,-0.094 2.093,-0.127 0.646,-0.036 1.21,-0.051 1.69,-0.051 1.686,0 3,0.257 3.953,0.772 0.949,0.515 1.552,1.477 1.803,2.885 0.14,0.794 -0.015,1.479 -0.46,2.063 -0.444,0.585 -1.329,1.324 -2.648,2.217 l -4.653,3.093 c -1.411,0.963 -2.495,2.02 -3.251,3.169 -0.757,1.151 -0.989,2.552 -0.696,4.203 0.238,1.339 0.674,2.447 1.314,3.323 0.636,0.877 1.413,1.581 2.335,2.114 0.918,0.531 1.966,0.903 3.135,1.108 1.17,0.207 2.425,0.31 3.766,0.31 1.445,0 2.83,-0.061 4.168,-0.181 1.337,-0.121 2.587,-0.283 3.754,-0.49 0.633,-0.103 0.9,-0.447 0.793,-1.03 l -0.3,-1.702 C 2.617,17.612 2.273,17.322 1.691,17.322 H 1.534 c -0.88,0.068 -2.057,0.153 -3.535,0.255 -1.475,0.107 -2.937,0.156 -4.381,0.156 -1.443,0 -2.632,-0.171 -3.57,-0.515 -0.938,-0.344 -1.523,-1.169 -1.755,-2.473 -0.14,-0.792 0.029,-1.47 0.513,-2.038 0.484,-0.564 1.264,-1.193 2.345,-1.88 L -4.284,7.785 C -2.383,6.514 -1.124,5.275 -0.513,4.074 0.095,2.871 0.269,1.513 0,0"
             style="fill:#54b476;fill-opacity:1;fill-rule:nonzero;stroke:none"
             id="path62" /></g><g
           id="g64"
           transform="translate(122.2949,17.4063)"><path
             d="m 0,0 c -0.53,-0.069 -1.107,-0.131 -1.734,-0.181 -0.629,-0.05 -1.182,-0.078 -1.663,-0.078 -1.203,0 -2.226,0.095 -3.068,0.283 -0.842,0.189 -1.501,0.542 -1.977,1.057 -0.476,0.516 -0.781,1.221 -0.913,2.116 -0.132,0.89 -0.076,2.042 0.176,3.451 l 3.2,17.989 -4.898,0.569 c -0.64,0.068 -0.912,0.379 -0.816,0.928 l 0.251,1.39 c 0.107,0.619 0.489,0.928 1.143,0.928 H -5.3 l 0.901,5.053 c 0.102,0.584 0.472,0.928 1.109,1.03 l 2.752,0.411 h 0.156 c 0.205,0 0.374,-0.075 0.5,-0.23 0.129,-0.154 0.167,-0.37 0.118,-0.645 l -0.999,-5.619 h 5.567 c 0.274,0 0.497,-0.102 0.664,-0.309 C 5.64,27.937 5.701,27.696 5.65,27.421 L 5.34,25.668 C 5.291,25.393 5.144,25.152 4.9,24.947 4.657,24.742 4.397,24.637 4.124,24.637 H -1.441 L -4.634,6.692 C -4.884,5.288 -4.837,4.395 -4.492,4.019 -4.146,3.641 -3.458,3.452 -2.428,3.452 h 2.887 c 0.724,0 1.04,-0.244 0.952,-0.733 L 1.087,0.889 C 1.001,0.401 0.638,0.103 0,0"
             style="fill:#54b476;fill-opacity:1;fill-rule:nonzero;stroke:none"
             id="path66" /></g><g
           id="g68"
           transform="translate(140.5264,42.25)"><path
             d="m 0,0 c -1.203,0 -2.389,-0.163 -3.563,-0.487 -1.176,-0.325 -2.488,-0.884 -3.933,-1.672 l -3.835,-21.554 c -0.049,-0.274 -0.193,-0.514 -0.439,-0.719 -0.241,-0.207 -0.5,-0.309 -0.774,-0.309 h -2.526 c -0.277,0 -0.489,0.102 -0.64,0.309 -0.155,0.205 -0.203,0.448 -0.155,0.722 l 4.676,26.287 c 0.048,0.276 0.182,0.517 0.412,0.722 0.224,0.207 0.474,0.309 0.75,0.309 h 2.423 c 0.274,0 0.488,-0.105 0.638,-0.314 0.152,-0.209 0.203,-0.452 0.154,-0.731 L -7.009,1.465 c 1.469,0.902 2.828,1.549 4.084,1.931 1.252,0.382 2.466,0.574 3.632,0.574 0.721,0 1.026,-0.315 0.916,-0.941 L 1.241,0.888 C 1.134,0.296 0.721,0 0,0"
             style="fill:#54b476;fill-opacity:1;fill-rule:nonzero;stroke:none"
             id="path70" /></g><g
           id="g72"
           transform="translate(160.0215,17.8184)"><path
             d="m 0,0 c -0.227,-0.207 -0.478,-0.31 -0.751,-0.31 h -2.578 c -0.275,0 -0.489,0.105 -0.639,0.315 -0.151,0.208 -0.203,0.452 -0.154,0.733 l 0.176,0.993 c -1.584,-0.799 -3.031,-1.4 -4.338,-1.8 -1.311,-0.401 -2.737,-0.602 -4.284,-0.602 -3.127,0 -5.24,0.928 -6.335,2.784 -1.095,1.855 -1.337,4.501 -0.728,7.937 l 3.019,16.959 c 0.05,0.275 0.197,0.516 0.438,0.721 0.242,0.207 0.5,0.31 0.775,0.31 h 2.476 c 0.273,0 0.495,-0.103 0.665,-0.308 0.169,-0.207 0.231,-0.446 0.181,-0.72 l -3.01,-16.925 c -0.231,-1.303 -0.312,-2.393 -0.247,-3.265 0.069,-0.877 0.287,-1.569 0.662,-2.083 0.37,-0.514 0.892,-0.884 1.555,-1.107 0.664,-0.223 1.497,-0.334 2.492,-0.334 1.1,0 2.267,0.188 3.503,0.565 1.233,0.377 2.506,0.859 3.813,1.443 l 3.862,21.706 c 0.048,0.274 0.193,0.513 0.438,0.72 0.241,0.205 0.501,0.308 0.776,0.308 h 2.525 c 0.272,0 0.488,-0.103 0.639,-0.31 0.152,-0.205 0.208,-0.446 0.159,-0.721 L 0.412,0.722 C 0.363,0.447 0.224,0.205 0,0"
             style="fill:#54b476;fill-opacity:1;fill-rule:nonzero;stroke:none"
             id="path74" /></g><g
           id="g76"
           transform="translate(174.9434,51.4258)"><path
             d="m 0,0 c -0.049,-0.274 -0.196,-0.515 -0.438,-0.721 -0.242,-0.207 -0.5,-0.311 -0.779,-0.311 h -2.627 c -0.274,0 -0.498,0.104 -0.669,0.311 C -4.68,-0.515 -4.739,-0.274 -4.692,0 l 0.735,4.124 c 0.049,0.274 0.195,0.516 0.436,0.721 0.244,0.206 0.502,0.31 0.775,0.31 h 2.631 c 0.277,0 0.498,-0.104 0.667,-0.31 C 0.722,4.64 0.783,4.398 0.733,4.124 Z m -5.954,-32.886 c -0.047,-0.274 -0.194,-0.516 -0.437,-0.721 -0.241,-0.207 -0.502,-0.31 -0.777,-0.31 h -2.474 c -0.275,0 -0.498,0.103 -0.665,0.31 -0.171,0.205 -0.23,0.447 -0.183,0.721 l 4.678,26.287 c 0.047,0.276 0.192,0.517 0.435,0.722 0.243,0.207 0.502,0.31 0.777,0.31 h 2.477 c 0.272,0 0.495,-0.103 0.665,-0.31 0.169,-0.205 0.23,-0.446 0.181,-0.722 z"
             style="fill:#54b476;fill-opacity:1;fill-rule:nonzero;stroke:none"
             id="path78" /></g><g
           id="g80"
           transform="translate(188.9277,42.25)"><path
             d="M 0,0 C -1.202,0 -2.39,-0.163 -3.566,-0.487 -4.739,-0.812 -6.05,-1.371 -7.495,-2.159 l -3.835,-21.554 c -0.051,-0.274 -0.196,-0.514 -0.439,-0.719 -0.243,-0.207 -0.502,-0.309 -0.776,-0.309 h -2.526 c -0.275,0 -0.486,0.102 -0.639,0.309 -0.154,0.205 -0.203,0.448 -0.154,0.722 l 4.676,26.287 c 0.048,0.276 0.182,0.517 0.412,0.722 0.224,0.207 0.474,0.309 0.747,0.309 h 2.423 c 0.277,0 0.49,-0.105 0.641,-0.314 0.153,-0.209 0.202,-0.452 0.153,-0.731 L -7.009,1.465 c 1.468,0.902 2.829,1.549 4.085,1.931 1.252,0.382 2.462,0.574 3.63,0.574 0.726,0 1.027,-0.315 0.917,-0.941 L 1.242,0.888 C 1.139,0.296 0.721,0 0,0"
             style="fill:#54b476;fill-opacity:1;fill-rule:nonzero;stroke:none"
             id="path82" /></g><g
           id="g84"
           transform="translate(205.9385,34.1592)"><path
             d="m 0,0 c 0.522,2.919 0.333,5.001 -0.562,6.235 -0.895,1.238 -2.479,1.856 -4.75,1.856 -2.233,0 -4.056,-0.654 -5.474,-1.959 C -12.204,4.827 -13.163,2.783 -13.655,0 L -13.74,-0.466 H -0.079 Z M 4.046,-2.785 C 3.91,-3.541 3.517,-3.918 2.865,-3.918 h -17.219 l -0.127,-0.722 c -0.546,-3.058 -0.33,-5.223 0.648,-6.495 0.978,-1.272 2.651,-1.908 5.02,-1.908 1.512,0 3.129,0.052 4.848,0.156 1.721,0.103 3.195,0.239 4.432,0.411 h 0.256 c 0.206,0 0.385,-0.051 0.538,-0.156 0.155,-0.1 0.206,-0.293 0.157,-0.564 L 1.105,-14.95 c -0.059,-0.344 -0.176,-0.611 -0.346,-0.8 -0.172,-0.188 -0.47,-0.315 -0.893,-0.386 -1.526,-0.274 -3.034,-0.489 -4.525,-0.643 -1.484,-0.155 -3.107,-0.233 -4.859,-0.233 -1.478,0 -2.887,0.198 -4.225,0.592 -1.337,0.398 -2.465,1.066 -3.377,2.013 -0.916,0.943 -1.566,2.206 -1.958,3.786 -0.387,1.581 -0.366,3.576 0.061,5.981 L -18.193,0 c 0.662,3.709 2.16,6.647 4.501,8.813 2.338,2.166 5.362,3.248 9.061,3.248 1.889,0 3.483,-0.283 4.787,-0.853 C 1.462,10.643 2.492,9.835 3.246,8.787 4.003,7.738 4.492,6.468 4.706,4.973 4.918,3.479 4.864,1.82 4.539,0 Z"
             style="fill:#54b476;fill-opacity:1;fill-rule:nonzero;stroke:none"
             id="path86" /></g></g></g></g></svg>
