<svg width="148" height="40" viewBox="0 0 148 40" fill="none" xmlns="http://www.w3.org/2000/svg">
<g clip-path="url(#clip0)">
<path d="M43.9968 20.4329C43.8814 21.1256 43.5351 21.4719 42.9579 21.4719H29.5091V21.5296C29.3937 22.1068 29.3937 22.684 29.3937 23.2612C29.4514 23.8384 29.5668 24.3002 29.8554 24.7042C30.144 25.1083 30.4904 25.4546 31.0098 25.6855C31.5293 25.9163 32.1642 26.0895 33.03 26.0895C33.7227 26.0895 34.4153 26.0895 35.1657 26.0318C35.916 26.0318 36.6664 25.9741 37.4168 25.9741C38.1671 25.9741 38.8598 25.9163 39.4947 25.8586C40.1296 25.8009 40.7068 25.7432 41.1108 25.6855H41.2263C41.7458 25.6855 41.9766 25.9163 41.9189 26.3781L41.3417 29.6104C41.284 29.9567 41.1686 30.1876 41.0531 30.3608C40.9377 30.5339 40.6491 30.6494 40.245 30.7648C38.8598 31.1111 37.4745 31.342 36.1469 31.5152C34.8194 31.6883 33.2609 31.7461 31.4139 31.7461C30.144 31.7461 28.9319 31.5729 27.7198 31.2266C26.5077 30.8803 25.4687 30.2453 24.6029 29.4373C23.7371 28.5715 23.1022 27.4748 22.7559 26.0895C22.3518 24.7042 22.3518 22.9726 22.6981 20.9524L23.2176 18.0087C23.5062 16.3348 24.0257 14.7764 24.7184 13.3911C25.411 12.0058 26.3345 10.8514 27.4312 9.87016C28.5279 8.88892 29.74 8.19628 31.183 7.6768C32.5683 7.15731 34.1267 6.86871 35.8006 6.86871C37.5322 6.86871 38.9752 7.15731 40.1873 7.73451C41.3994 8.31171 42.323 9.06208 43.0733 10.0433C43.766 11.0246 44.2277 12.179 44.4009 13.5642C44.574 14.8918 44.5741 16.3925 44.2855 18.0087L43.9968 20.4329ZM37.9362 17.0274C38.2248 15.469 38.0517 14.2569 37.5322 13.5065C37.0127 12.7562 36.1469 12.3521 34.9348 12.3521C33.7804 12.3521 32.7414 12.7562 31.9334 13.5065C31.0676 14.3146 30.5481 15.469 30.2595 17.0274L30.2018 17.2006H37.8785L37.9362 17.0274Z" fill="#E62733"/>
<path d="M86.1325 20.7792C85.8439 22.4531 85.3244 23.9539 84.6318 25.3391C83.9391 26.6667 83.0733 27.8211 82.0344 28.7446C80.9954 29.6681 79.7833 30.4185 78.3403 30.938C76.955 31.4575 75.3966 31.6883 73.665 31.6883C71.9334 31.6883 70.4904 31.4575 69.2782 30.938C68.0661 30.4185 67.0849 29.6681 66.3345 28.7446C65.5842 27.8211 65.1224 26.6667 64.8915 25.3391C64.6606 24.0116 64.7184 22.4531 65.007 20.7792L65.5264 17.8355C65.815 16.1616 66.3345 14.6609 67.0272 13.2756C67.7198 11.9481 68.5856 10.7937 69.6823 9.87016C70.7212 8.94664 71.9911 8.19628 73.3764 7.6768C74.7616 7.15731 76.3201 6.86871 78.0517 6.86871C79.7833 6.86871 81.2263 7.15731 82.4384 7.6768C83.6505 8.19628 84.6318 8.94664 85.3244 9.87016C86.0748 10.7937 86.5365 11.9481 86.7674 13.2756C86.9983 14.6032 86.9406 16.1616 86.652 17.8355L86.1325 20.7792ZM79.841 17.8355C80.4182 14.43 79.4947 12.6984 77.0127 12.6984C75.8006 12.6984 74.7616 13.1025 73.9536 13.9683C73.1455 14.8341 72.626 16.1039 72.3374 17.8355L71.8179 20.7792C71.5293 22.5109 71.587 23.7807 72.1065 24.6465C72.5683 25.5123 73.4341 25.9741 74.7039 25.9741C77.1859 25.9741 78.7443 24.2425 79.3215 20.7792L79.841 17.8355Z" fill="#E62733"/>
<path d="M111.068 10.7359C111.01 11.0245 110.894 11.2554 110.779 11.3709C110.606 11.4863 110.433 11.6017 110.144 11.6595L108.759 12.0635C108.932 12.4676 109.047 12.9293 109.163 13.5642C109.221 14.1414 109.221 14.7186 109.163 15.1804L109.105 15.5267C108.643 18.2973 107.373 20.2598 105.353 21.5296C103.333 22.7994 100.678 23.4344 97.3302 23.4344C96.349 23.4344 95.4832 23.3766 94.7328 23.2612C93.9824 23.1458 93.4052 22.9726 93.0589 22.7994C92.828 22.9149 92.6549 23.088 92.5394 23.2612C92.424 23.4344 92.3663 23.6075 92.3086 23.7807C92.2508 24.127 92.3086 24.3579 92.424 24.531C92.5394 24.7042 92.8858 24.8196 93.3475 24.9351L97.9074 25.974C99.639 26.3781 101.14 26.7244 102.352 27.1284C103.564 27.5325 104.487 27.9365 105.18 28.456C105.873 28.9755 106.335 29.5527 106.508 30.2453C106.739 30.938 106.739 31.8038 106.565 32.785L106.508 33.1313C105.7 37.6912 101.601 40 94.271 40C90.7501 40 88.2104 39.4228 86.5943 38.2107C84.9781 37.0563 84.4009 35.3247 84.7472 33.1313L84.805 32.785C84.9781 31.9192 85.3244 31.1111 85.8439 30.3031C86.3634 29.495 87.1715 28.7446 88.1527 28.052C87.4601 27.6479 86.9983 27.0707 86.8252 26.3204C86.5943 25.57 86.5943 24.8774 86.7097 24.127C86.8251 23.3189 87.1715 22.6263 87.5755 22.0491C88.0373 21.4719 88.5568 20.9524 89.1917 20.5484C88.6145 19.9712 88.2682 19.1631 88.095 18.2396C87.9796 17.2583 87.9796 16.3925 88.095 15.5267L88.1527 15.1804C88.5567 12.8139 89.7689 10.8514 91.6736 9.40839C93.5784 7.96539 96.4067 7.21503 100.101 7.21503H110.606C110.894 7.21503 111.125 7.33047 111.298 7.50363C111.472 7.73451 111.529 7.96539 111.472 8.25399L111.068 10.7359ZM99.639 32.785C99.6967 32.6119 99.639 32.381 99.5813 32.2078C99.5236 32.0346 99.3504 31.8615 99.0618 31.6883C98.7732 31.5152 98.3692 31.342 97.8497 31.1689C97.3302 30.9957 96.5798 30.8225 95.6563 30.5917L92.6549 29.899C92.3663 30.2453 92.0777 30.6494 91.8468 31.0534C91.6159 31.4574 91.4428 32.0346 91.3273 32.785L91.2696 33.1313C91.1542 33.8817 91.3273 34.4012 91.8468 34.7475C92.3663 35.0938 93.463 35.267 95.0791 35.267C95.9449 35.267 96.6376 35.2093 97.2148 35.0938C97.792 34.9784 98.196 34.8629 98.5423 34.6321C98.8886 34.4589 99.1195 34.228 99.235 33.9394C99.4081 33.6508 99.4658 33.3622 99.5236 33.0736L99.639 32.785ZM102.467 15.1804C102.64 14.3146 102.467 13.5642 102.063 12.987C101.659 12.4098 100.736 12.1212 99.235 12.1212C97.7342 12.1212 96.6953 12.4098 96.0604 12.987C95.4254 13.5642 95.0214 14.2569 94.906 15.1804L94.8482 15.5267C94.7905 15.873 94.7905 16.2771 94.7905 16.6234C94.8482 16.9697 94.9637 17.316 95.1946 17.5469C95.4254 17.8355 95.7718 18.0664 96.2335 18.2396C96.6953 18.4127 97.3302 18.4704 98.1383 18.4704C99.639 18.4704 100.678 18.1818 101.255 17.6624C101.832 17.1429 102.236 16.3925 102.41 15.5267L102.467 15.1804Z" fill="#E62733"/>
<path d="M130.404 20.4329C130.288 21.1256 129.942 21.4719 129.365 21.4719H115.916V21.5296C115.801 22.1068 115.801 22.684 115.801 23.2612C115.858 23.8384 115.974 24.3002 116.262 24.7042C116.551 25.1083 116.897 25.4546 117.417 25.6855C117.936 25.9163 118.571 26.0895 119.437 26.0895C120.13 26.0895 120.822 26.0895 121.573 26.0318C122.323 26.0318 123.073 25.9741 123.824 25.9741C124.574 25.9741 125.267 25.9163 125.902 25.8586C126.537 25.8009 127.114 25.7432 127.518 25.6855H127.633C128.153 25.6855 128.384 25.9163 128.326 26.3781L127.749 29.6104C127.691 29.9567 127.576 30.1876 127.46 30.3608C127.345 30.5339 127.056 30.6494 126.652 30.7648C125.267 31.1111 123.881 31.342 122.554 31.5152C121.226 31.6883 119.668 31.7461 117.821 31.7461C116.551 31.7461 115.339 31.5729 114.127 31.2266C112.915 30.8803 111.876 30.2453 111.01 29.4373C110.144 28.5715 109.509 27.4748 109.163 26.0895C108.816 24.7042 108.759 22.9726 109.105 20.9524L109.625 18.0087C109.913 16.3348 110.433 14.7764 111.125 13.3911C111.818 12.0058 112.741 10.8514 113.838 9.87016C114.935 8.88892 116.147 8.19628 117.59 7.6768C118.975 7.15731 120.534 6.86871 122.208 6.86871C123.939 6.86871 125.382 7.15731 126.594 7.73451C127.806 8.31171 128.73 9.06208 129.48 10.0433C130.173 11.0246 130.635 12.179 130.808 13.5642C130.981 14.8918 130.981 16.3925 130.692 18.0087L130.404 20.4329ZM124.343 17.0274C124.632 15.469 124.459 14.2569 123.939 13.5065C123.42 12.7562 122.554 12.3521 121.342 12.3521C120.187 12.3521 119.148 12.7562 118.34 13.5065C117.474 14.3146 116.955 15.469 116.666 17.0274L116.609 17.2006H124.285L124.343 17.0274Z" fill="#E62733"/>
<path d="M146.277 12.3521C146.161 12.5252 145.988 12.583 145.757 12.583H145.411C144.372 12.583 143.391 12.6984 142.41 12.987C141.486 13.2756 140.563 13.6219 139.697 14.026L136.811 30.4762C136.753 30.7071 136.638 30.8802 136.464 31.1111C136.291 31.2843 136.06 31.3997 135.829 31.3997H130.75C130.519 31.3997 130.346 31.2843 130.173 31.1111C130 30.9379 129.942 30.7071 130 30.4762L133.925 8.08079C133.982 7.84991 134.098 7.67675 134.271 7.50359C134.444 7.33043 134.675 7.27271 134.906 7.27271H139.928C140.158 7.27271 140.332 7.33043 140.447 7.50359C140.563 7.67675 140.62 7.84991 140.62 8.08079L140.447 8.94659C141.371 8.31167 142.352 7.79219 143.391 7.44587C144.43 7.09955 145.469 6.92639 146.508 6.92639C146.739 6.92639 146.912 6.98411 147.027 7.15727C147.143 7.33043 147.2 7.50359 147.2 7.73447L146.508 11.7749C146.508 12.0058 146.45 12.1789 146.277 12.3521Z" fill="#E62733"/>
<path d="M62.2941 31.1688C61.9478 31.2266 61.486 31.342 60.9088 31.3997C60.2162 31.5152 59.4081 31.5729 58.6577 31.6306C58.0228 31.6883 57.0416 31.6883 56.4644 31.6883C55.1368 31.6883 53.8093 31.5729 52.6549 31.342C51.4427 31.1111 50.4038 30.7071 49.5957 30.0144C48.7876 29.3795 48.2104 28.456 47.8064 27.2439C47.4601 26.0317 47.4601 24.4733 47.8064 22.5685L51.6736 0.80808C51.7313 0.577199 51.8468 0.404039 52.0199 0.230879C52.1931 0.0577187 52.424 0 52.6549 0H58.196C58.4269 0 58.6 0.0577187 58.7155 0.230879C58.8309 0.404039 58.8886 0.577199 58.8886 0.80808L55.0214 22.5685C54.8482 23.6652 54.9059 24.4156 55.2523 24.8196C55.5986 25.2237 56.2335 25.4545 57.2147 25.4545H63.2753C63.5062 25.4545 63.6794 25.5123 63.7948 25.6854C63.9103 25.8586 63.968 26.0317 63.968 26.2626L63.2753 30.1876C63.2176 30.7648 62.8713 31.0534 62.2941 31.1688Z" fill="#E62733"/>
<path d="M23.3908 3.57866C22.1787 3.23234 20.9088 2.94374 19.5813 2.77058C18.2537 2.5397 16.6375 2.42426 14.6751 2.42426C11.2696 2.42426 8.61446 3.05918 6.76742 4.32902C4.92038 5.59886 3.8237 7.4459 3.36194 9.92786C3.07334 11.4863 3.18878 12.8716 3.76598 14.0837C4.28546 15.2381 5.15126 16.2771 6.36338 17.0274L12.2508 20.837C12.9435 21.2987 13.4052 21.7028 13.6938 22.0491C13.9824 22.4531 14.0979 22.9726 13.9824 23.4344C13.867 24.2424 13.4629 24.8196 12.9435 25.2237C12.424 25.6277 11.5005 25.8009 10.1729 25.8009C9.76886 25.8009 9.19166 25.8009 8.49902 25.7432C7.80638 25.6854 7.05602 25.6854 6.24794 25.57C5.43986 25.5123 4.63178 25.3968 3.8237 25.3391C3.01562 25.2814 2.26526 25.166 1.63033 25.0505H1.45717C1.28401 25.0505 1.11085 25.1082 0.995415 25.2237C0.879975 25.3391 0.822254 25.4546 0.764534 25.6277L0.0141733 29.7836C-0.0435467 30.1299 0.0718938 30.303 0.418214 30.4185C0.995415 30.5916 1.68806 30.7071 2.43842 30.8802C3.18878 30.9957 3.93914 31.1111 4.74722 31.2266C5.5553 31.342 6.36338 31.3997 7.11374 31.4574C7.8641 31.5152 8.61446 31.5152 9.3071 31.5152C11.0964 31.5152 12.7126 31.2843 14.0979 30.8802C15.4831 30.4762 16.6953 29.899 17.6765 29.1486C18.6578 28.3983 19.4658 27.5325 20.043 26.5512C20.6202 25.57 21.0243 24.4733 21.2552 23.3189C21.3706 22.684 21.4283 22.0491 21.4283 21.3564C21.4283 20.7215 21.2552 20.1443 21.0243 19.5094C20.7934 18.8745 20.3894 18.2973 19.8699 17.7201C19.3504 17.1429 18.6578 16.508 17.7342 15.9308L12.0199 12.4098C11.5005 12.0635 11.1541 11.7749 10.9233 11.4863C10.5769 11.14 10.4615 10.6782 10.5769 10.1587C10.7501 9.23522 11.2696 8.83118 11.6736 8.65802C12.1931 8.42714 12.9435 8.3117 14.0401 8.3117C14.6751 8.3117 15.4254 8.3117 16.2912 8.36942C17.0993 8.42714 17.9074 8.48486 18.7155 8.54258C19.5236 8.6003 20.2739 8.71574 20.9088 8.77346C21.5438 8.83118 22.0632 8.8889 22.4096 8.94662H22.525C22.7559 8.94662 22.9868 8.8889 23.1022 8.36942L23.8526 4.21358C23.8526 3.86726 23.7371 3.6941 23.3908 3.57866Z" fill="#E62733"/>
</g>
<defs>
<clipPath id="clip0">
<rect width="147.2" height="40" fill="white"/>
</clipPath>
</defs>
</svg>
