<svg width="85" height="40" viewBox="0 0 85 40" fill="none" xmlns="http://www.w3.org/2000/svg">
<g clip-path="url(#clip0)">
<path d="M25.3278 11.7179C25.2614 12.1162 25.0622 12.3154 24.7303 12.3154H16.9959V12.3486C16.9295 12.6805 16.9295 13.0125 16.9295 13.3444C16.9627 13.6764 17.0291 13.9419 17.195 14.1743C17.361 14.4067 17.5602 14.6058 17.8589 14.7386C18.1577 14.8714 18.5228 14.971 19.0208 14.971C19.4191 14.971 19.8174 14.971 20.249 14.9378C20.6805 14.9378 21.112 14.9046 21.5436 14.9046C21.9751 14.9046 22.3735 14.8714 22.7386 14.8382C23.1037 14.805 23.4357 14.7718 23.6681 14.7386H23.7344C24.0332 14.7386 24.166 14.8714 24.1328 15.1369L23.8008 16.9959C23.7676 17.195 23.7013 17.3278 23.6349 17.4274C23.5685 17.527 23.4025 17.5934 23.1701 17.6598C22.3735 17.8589 21.5768 17.9917 20.8133 18.0913C20.0498 18.1909 19.1535 18.2241 18.0913 18.2241C17.361 18.2241 16.6639 18.1245 15.9668 17.9253C15.2697 17.7262 14.6722 17.361 14.1743 16.8963C13.6764 16.3984 13.3112 15.7676 13.112 14.971C12.8797 14.1743 12.8797 13.1784 13.0788 12.0166L13.3776 10.3237C13.5436 9.36101 13.8423 8.46474 14.2407 7.66806C14.639 6.87138 15.1701 6.20748 15.8008 5.64316C16.4315 5.07885 17.1286 4.68051 17.9585 4.38175C18.7552 4.083 19.6515 3.91702 20.6141 3.91702C21.61 3.91702 22.4398 4.083 23.1369 4.41495C23.834 4.7469 24.3652 5.17843 24.7967 5.74275C25.195 6.30706 25.4606 6.97096 25.5602 7.76765C25.6598 8.53113 25.6598 9.3942 25.4938 10.3237L25.3278 11.7179ZM21.8423 9.75935C22.0083 8.86308 21.9087 8.16599 21.61 7.73445C21.3112 7.30291 20.8133 7.07055 20.1162 7.07055C19.4523 7.07055 18.8548 7.30291 18.3901 7.73445C17.8921 8.19918 17.5934 8.86308 17.4274 9.75935L17.3942 9.85893H21.8091L21.8423 9.75935Z" fill="#C93665"/>
<path d="M49.5602 11.917C49.3942 12.8797 49.0954 13.7427 48.6971 14.5394C48.2987 15.3029 47.8008 15.9668 47.2033 16.4979C46.6058 17.0291 45.9087 17.4606 45.0788 17.7593C44.2821 18.0581 43.3859 18.1909 42.39 18.1909C41.3942 18.1909 40.5643 18.0249 39.8672 17.7593C39.1701 17.4606 38.6058 17.0291 38.1743 16.4979C37.7427 15.9668 37.4772 15.3029 37.3444 14.5394C37.2116 13.7759 37.2448 12.8797 37.4108 11.917L37.7095 10.2241C37.8755 9.26142 38.1743 8.39835 38.5726 7.60167C38.9709 6.83818 39.4689 6.17428 40.0996 5.64316C40.6971 5.11204 41.4274 4.68051 42.2241 4.38175C43.0207 4.083 43.917 3.91702 44.9128 3.91702C45.9087 3.91702 46.7386 4.083 47.4357 4.38175C48.1328 4.68051 48.6971 5.11204 49.0954 5.64316C49.527 6.17428 49.7925 6.83818 49.9253 7.60167C50.0581 8.36516 50.0249 9.26142 49.8589 10.2241L49.5602 11.917ZM45.9087 10.2241C46.2406 8.26557 45.7095 7.26972 44.2821 7.26972C43.585 7.26972 42.9875 7.50209 42.5228 8.00001C42.0581 8.49794 41.7593 9.22823 41.5933 10.2241L41.2946 11.917C41.1286 12.9129 41.1618 13.6432 41.4606 14.1411C41.7261 14.639 42.224 14.9046 42.9543 14.9046C44.3817 14.9046 45.278 13.9087 45.6099 11.917L45.9087 10.2241Z" fill="#C93665"/>
<path d="M63.9004 6.14108C63.8672 6.30705 63.8008 6.43983 63.7344 6.50622C63.6348 6.57261 63.5353 6.639 63.3693 6.6722L62.5726 6.90456C62.6722 7.13693 62.7386 7.40249 62.805 7.76763C62.8382 8.09958 62.8382 8.43153 62.805 8.69709L62.7718 8.89626C62.5062 10.4896 61.7759 11.6183 60.6141 12.3485C59.4523 13.0788 57.9253 13.444 56 13.444C55.4357 13.444 54.9377 13.4108 54.5062 13.3444C54.0747 13.278 53.7427 13.1784 53.5436 13.0788C53.4108 13.1452 53.3112 13.2448 53.2448 13.3444C53.1784 13.444 53.1452 13.5436 53.112 13.6432C53.0788 13.8423 53.112 13.9751 53.1784 14.0747C53.2448 14.1743 53.444 14.2407 53.7095 14.3071L56.3319 14.9046C57.3278 15.1369 58.1909 15.3361 58.888 15.5685C59.585 15.8008 60.1162 16.0332 60.5145 16.3319C60.9128 16.6307 61.1784 16.9627 61.278 17.361C61.4108 17.7593 61.4108 18.2573 61.3112 18.8216L61.278 19.0207C60.8133 21.6432 58.4564 22.971 54.2406 22.971C52.2158 22.971 50.7552 22.639 49.8257 21.9419C48.8963 21.278 48.5643 20.2822 48.7635 19.0207L48.7967 18.8216C48.8963 18.3237 49.0954 17.8589 49.3942 17.3942C49.6929 16.9295 50.1577 16.4979 50.722 16.0996C50.3236 15.8672 50.0581 15.5353 49.9585 15.1037C49.8257 14.6722 49.8257 14.2739 49.8921 13.8423C49.9585 13.3776 50.1577 12.9793 50.39 12.6473C50.6556 12.3154 50.9543 12.0166 51.3195 11.7842C50.9875 11.4523 50.7884 10.9876 50.6888 10.4564C50.6224 9.89211 50.6224 9.39419 50.6888 8.89626L50.722 8.69709C50.9543 7.3361 51.6514 6.20747 52.7469 5.37759C53.8423 4.54772 55.4689 4.11618 57.5933 4.11618H63.6348C63.8008 4.11618 63.9336 4.18257 64.0332 4.28216C64.1328 4.41494 64.166 4.54772 64.1328 4.71369L63.9004 6.14108ZM57.3278 18.7884C57.361 18.6888 57.3278 18.556 57.2946 18.4564C57.2614 18.3568 57.1618 18.2573 56.9958 18.1577C56.8299 18.0581 56.5975 17.9585 56.2987 17.8589C56 17.7593 55.5685 17.6597 55.0373 17.527L53.3112 17.1286C53.1452 17.3278 52.9792 17.5602 52.8465 17.7925C52.7137 18.0249 52.6141 18.3568 52.5477 18.7884L52.5145 18.9876C52.4481 19.4191 52.5477 19.7178 52.8465 19.917C53.1452 20.1162 53.7759 20.2158 54.7054 20.2158C55.2033 20.2158 55.6016 20.1826 55.9336 20.1162C56.2655 20.0498 56.4979 19.9834 56.6971 19.8506C56.8963 19.751 57.029 19.6183 57.0954 19.4523C57.195 19.2863 57.2282 19.1203 57.2614 18.9544L57.3278 18.7884ZM58.9543 8.69709C59.0539 8.19917 58.9543 7.76763 58.722 7.43568C58.4896 7.10373 57.9585 6.93776 57.0954 6.93776C56.2324 6.93776 55.6348 7.10373 55.2697 7.43568C54.9046 7.76763 54.6722 8.16597 54.6058 8.69709L54.5726 8.89626C54.5394 9.09543 54.5394 9.3278 54.5394 9.52697C54.5726 9.72614 54.639 9.92531 54.7718 10.0581C54.9046 10.2241 55.1037 10.3568 55.3693 10.4564C55.6348 10.556 56 10.5892 56.4647 10.5892C57.3278 10.5892 57.9253 10.4232 58.2572 10.1245C58.5892 9.82572 58.8216 9.39419 58.9211 8.89626L58.9543 8.69709Z" fill="#C93665"/>
<path d="M75.0207 11.7179C74.9544 12.1162 74.7552 12.3154 74.4232 12.3154H66.6888V12.3486C66.6224 12.6805 66.6224 13.0125 66.6224 13.3444C66.6556 13.6764 66.722 13.9419 66.888 14.1743C67.0539 14.4067 67.2531 14.6058 67.5519 14.7386C67.8506 14.8714 68.2158 14.971 68.7137 14.971C69.112 14.971 69.5104 14.971 69.9419 14.9378C70.3734 14.9378 70.805 14.9046 71.2365 14.9046C71.6681 14.9046 72.0664 14.8714 72.4315 14.8382C72.7967 14.805 73.1286 14.7718 73.361 14.7386H73.4274C73.7261 14.7386 73.8589 14.8714 73.8257 15.1369L73.4938 16.9959C73.4606 17.195 73.3942 17.3278 73.3278 17.4274C73.2614 17.527 73.0954 17.5934 72.8631 17.6598C72.0664 17.8589 71.2697 17.9917 70.5062 18.0913C69.7427 18.1909 68.8465 18.2241 67.7842 18.2241C67.0539 18.2241 66.3568 18.1245 65.6598 17.9253C64.9627 17.7262 64.3651 17.361 63.8672 16.8963C63.3693 16.3984 63.0041 15.7676 62.805 14.971C62.6058 14.1743 62.5726 13.1784 62.7718 12.0166L63.0705 10.3237C63.2365 9.36101 63.5353 8.46474 63.9336 7.66806C64.332 6.87138 64.8631 6.20748 65.4938 5.64316C66.1245 5.07885 66.8216 4.68051 67.6515 4.38175C68.4481 4.083 69.3444 3.91702 70.3071 3.91702C71.3029 3.91702 72.1328 4.083 72.8299 4.41495C73.527 4.7469 74.0581 5.17843 74.4896 5.74275C74.888 6.30706 75.1535 6.97096 75.2531 7.76765C75.3527 8.53113 75.3527 9.3942 75.1867 10.3237L75.0207 11.7179ZM71.5353 9.75935C71.7012 8.86308 71.6017 8.16599 71.3029 7.73445C71.0042 7.30291 70.5062 7.07055 69.8091 7.07055C69.1452 7.07055 68.5477 7.30291 68.083 7.73445C67.5851 8.19918 67.2863 8.86308 67.1203 9.75935L67.0871 9.85893H71.5021L71.5353 9.75935Z" fill="#C93665"/>
<path d="M84.1494 7.07056C84.083 7.17014 83.9834 7.20334 83.8507 7.20334H83.6515C83.054 7.20334 82.4897 7.26973 81.9253 7.4357C81.3942 7.60168 80.8631 7.80085 80.3652 8.03321L78.7054 17.4938C78.6722 17.6266 78.6058 17.7262 78.5063 17.8589C78.4067 17.9585 78.2739 18.0249 78.1411 18.0249H75.22C75.0872 18.0249 74.9876 17.9585 74.888 17.8589C74.7884 17.7594 74.7552 17.6266 74.7884 17.4938L77.0457 4.61413C77.0789 4.48135 77.1453 4.38176 77.2448 4.28218C77.3444 4.18259 77.4772 4.1494 77.61 4.1494H80.498C80.6307 4.1494 80.7303 4.18259 80.7967 4.28218C80.8631 4.38176 80.8963 4.48135 80.8963 4.61413L80.7967 5.11205C81.3278 4.74691 81.8922 4.44815 82.4897 4.24898C83.0872 4.04981 83.6847 3.95023 84.2822 3.95023C84.415 3.95023 84.5146 3.98342 84.5809 4.08301C84.6473 4.18259 84.6805 4.28218 84.6805 4.41496L84.2822 6.73861C84.2822 6.83819 84.249 6.97097 84.1494 7.07056Z" fill="#C93665"/>
<path d="M35.8506 17.8921C35.6514 17.9253 35.3859 17.9917 35.0539 18.0249C34.6556 18.0913 34.1909 18.1245 33.7593 18.1577C33.3942 18.1909 32.8299 18.1909 32.4979 18.1909C31.7344 18.1909 30.971 18.1245 30.3071 17.9917C29.61 17.8589 29.0124 17.6266 28.5477 17.2282C28.083 16.8631 27.751 16.332 27.5187 15.6349C27.3195 14.9378 27.3195 14.0415 27.5187 12.9461L29.7427 0.431535C29.7759 0.298755 29.8423 0.19917 29.9419 0.0995851C30.0747 0.033195 30.2075 0 30.3071 0H33.4938C33.6266 0 33.7261 0.033195 33.7925 0.13278C33.8589 0.232365 33.8921 0.33195 33.8921 0.46473L31.668 12.9793C31.5685 13.61 31.6017 14.0415 31.8008 14.2739C32 14.5062 32.3651 14.639 32.9295 14.639H36.4149C36.5477 14.639 36.6473 14.6722 36.7137 14.7718C36.7801 14.8714 36.8133 14.971 36.8133 15.1037L36.4149 17.361C36.3817 17.6598 36.1826 17.8257 35.8506 17.8921Z" fill="#C93665"/>
<path d="M13.4772 2.02489C12.7801 1.82572 12.0498 1.65975 11.2863 1.56016C10.5228 1.42738 9.59336 1.36099 8.46473 1.36099C6.50623 1.36099 4.97926 1.72614 3.91702 2.45643C2.85477 3.18672 2.22407 4.24896 1.95851 5.67635C1.79253 6.57261 1.85892 7.36929 2.19087 8.06639C2.48963 8.73029 2.98756 9.3278 3.68465 9.75933L7.07054 11.9502C7.46888 12.2158 7.73444 12.4481 7.90042 12.6473C8.06639 12.8797 8.13278 13.1784 8.06639 13.444C8 13.9087 7.76764 14.2407 7.46888 14.473C7.17013 14.7054 6.63901 14.805 5.87552 14.805C5.64316 14.805 5.31121 14.805 4.91287 14.7718C4.51453 14.7386 4.08299 14.7386 3.61826 14.6722C3.12033 14.639 2.6556 14.6058 2.19087 14.5726C1.72614 14.5394 1.29461 14.473 0.929464 14.4066H0.829878C0.730293 14.4066 0.630708 14.4398 0.564318 14.5062C0.497928 14.5726 0.464733 14.639 0.431538 14.7386L2.95167e-06 17.0954C-0.0331921 17.2946 0.033198 17.3942 0.232368 17.4606C0.564318 17.5602 0.962658 17.6266 1.39419 17.7261C1.82573 17.7925 2.25726 17.8589 2.72199 17.9253C3.18672 17.9917 3.65146 18.0249 4.08299 18.0581C4.51453 18.0913 4.94606 18.0913 5.3444 18.0913C6.37345 18.0913 7.30291 17.9585 8.09959 17.7261C8.89627 17.4938 9.59336 17.1618 10.1577 16.7303C10.722 16.2988 11.1867 15.8008 11.5187 15.2365C11.8506 14.6722 12.083 14.0415 12.2158 13.3776C12.2822 13.0124 12.3154 12.6473 12.3154 12.249C12.3154 11.8838 12.2158 11.5519 12.083 11.1867C11.9502 10.8216 11.7178 10.4896 11.4191 10.1577C11.1203 9.82572 10.722 9.46058 10.1909 9.12863L6.93776 7.03734C6.63901 6.83817 6.43984 6.6722 6.30706 6.50622C6.10789 6.30705 6.0415 6.04149 6.10789 5.74273C6.20747 5.21161 6.50623 4.97925 6.73859 4.87966C7.03735 4.74688 7.46888 4.68049 8.09959 4.68049C8.46473 4.68049 8.89627 4.68049 9.39419 4.71369C9.85892 4.74688 10.3237 4.78008 10.7884 4.81327C11.2531 4.84647 11.6847 4.91286 12.0498 4.94605C12.4149 4.97925 12.7137 5.01244 12.9129 5.04564H12.9461C13.0788 5.04564 13.2116 5.01244 13.278 4.71369L13.7095 2.32365C13.7427 2.19087 13.6764 2.09128 13.4772 2.02489Z" fill="#C93665"/>
<path d="M34.2573 39.6681C34.1577 39.7677 34.0249 39.8009 33.8921 39.8009H32.7303C32.5975 39.8009 32.4979 39.7677 32.4315 39.6681C32.3651 39.5685 32.3319 39.4689 32.3319 39.3361L33.7593 31.3693C33.8589 30.7718 33.8921 30.2407 33.8589 29.8423C33.8257 29.444 33.7261 29.1121 33.5602 28.8465C33.3942 28.6141 33.1286 28.415 32.8299 28.3154C32.4979 28.2158 32.1328 28.1494 31.668 28.1494C31.1369 28.1494 30.6058 28.249 30.0083 28.415C29.4108 28.5809 28.8133 28.8133 28.2158 29.0789L26.39 39.3029C26.3568 39.4357 26.2905 39.5353 26.1909 39.6349C26.0913 39.7345 25.9585 39.7677 25.8257 39.7677H24.6307C24.4979 39.7677 24.3983 39.7345 24.3319 39.6349C24.2656 39.5353 24.2324 39.4357 24.2656 39.3029L26.4564 26.9212C26.4896 26.7884 26.556 26.6888 26.6556 26.5892C26.7552 26.4897 26.888 26.4565 27.0207 26.4565H28.2158C28.3485 26.4565 28.4481 26.4897 28.5145 26.5892C28.5809 26.6888 28.6141 26.7884 28.5809 26.9212L28.4813 27.3859C29.2116 27.0208 29.9087 26.722 30.5394 26.5228C31.1701 26.3237 31.834 26.2241 32.5643 26.2241C34.0249 26.2241 35.0207 26.6556 35.5519 27.5187C36.083 28.3818 36.1826 29.6432 35.8838 31.2697L34.4564 39.2365C34.4564 39.4689 34.39 39.5685 34.2573 39.6681Z" fill="#C93665"/>
<path d="M47.4357 33.2946C47.3693 33.6598 47.1701 33.8257 46.8713 33.8257H38.7718L38.7054 34.1577C38.4398 35.5851 38.5394 36.6141 39.0041 37.2116C39.4689 37.8091 40.2655 38.1079 41.361 38.1079C42.0581 38.1079 42.8216 38.0747 43.6514 38.0415C44.4481 38.0083 45.1452 37.9419 45.7427 37.8423H45.8755C45.9751 37.8423 46.0747 37.8755 46.1411 37.9087C46.2074 37.9419 46.2406 38.0415 46.2074 38.1743L46.0747 39.0042C46.0415 39.1701 45.9751 39.3029 45.9087 39.3693C45.8423 39.4689 45.6763 39.5021 45.4772 39.5353C44.7469 39.6681 44.0498 39.7677 43.3527 39.834C42.6556 39.9004 41.8921 39.9336 41.0622 39.9336C40.3651 39.9336 39.7012 39.834 39.0705 39.6681C38.4398 39.4689 37.9087 39.1701 37.4772 38.7054C37.0456 38.2739 36.7469 37.6764 36.5477 36.9129C36.3485 36.1826 36.3817 35.2199 36.5809 34.0913L36.9792 31.9004C37.278 30.1411 38.0083 28.7801 39.1037 27.7511C40.1991 26.722 41.6265 26.2241 43.3859 26.2241C44.2821 26.2241 45.0124 26.3569 45.6431 26.6224C46.2738 26.888 46.7386 27.2531 47.1037 27.7511C47.4689 28.249 47.7012 28.8465 47.8008 29.5436C47.9004 30.2407 47.8672 31.0374 47.7344 31.9004L47.4357 33.2946ZM45.5435 31.9668C45.7759 30.6058 45.7095 29.61 45.278 29.0457C44.8465 28.4482 44.1162 28.1826 43.0539 28.1826C41.9917 28.1826 41.1286 28.4814 40.4647 29.1121C39.8008 29.7428 39.3361 30.7054 39.1037 32L39.0705 32.2324H45.5104L45.5435 31.9668Z" fill="#C93665"/>
<path d="M57.6265 39.6681C57.527 39.7677 57.3942 39.8008 57.2614 39.8008H56.0332C55.9004 39.8008 55.8008 39.7677 55.7344 39.6681C55.668 39.5685 55.6348 39.4689 55.668 39.3361L55.7344 38.8714C55.0041 39.2365 54.307 39.5353 53.7095 39.7345C53.0788 39.9336 52.4149 40.0332 51.6846 40.0332C50.2241 40.0332 49.2282 39.6017 48.6971 38.7386C48.166 37.8755 48.0664 36.6141 48.3651 34.9876L49.7925 27.0208C49.8257 26.888 49.8921 26.7884 49.9917 26.6888C50.0913 26.5892 50.2241 26.556 50.3568 26.556H51.5187C51.6514 26.556 51.751 26.5892 51.8174 26.6888C51.8838 26.7884 51.917 26.888 51.917 27.0208L50.4896 34.9876C50.39 35.5851 50.3568 36.1162 50.39 36.5145C50.4232 36.9129 50.5228 37.2448 50.6888 37.5104C50.8548 37.7428 51.1203 37.9419 51.4191 38.0415C51.7178 38.1411 52.1162 38.2075 52.5809 38.2075C53.112 38.2075 53.6431 38.1079 54.2406 37.9419C54.8382 37.776 55.4357 37.5436 56.0332 37.278L57.8589 27.054C57.8921 26.9212 57.9585 26.8216 58.0581 26.722C58.1577 26.6224 58.2904 26.5892 58.4232 26.5892H59.6182C59.751 26.5892 59.8506 26.6224 59.917 26.722C59.9834 26.8216 60.0166 26.9212 59.9834 27.054L57.7925 39.4357C57.8257 39.4689 57.7593 39.5685 57.6265 39.6681Z" fill="#C93665"/>
<path d="M68.9129 23.0706H67.751C67.1867 23.0706 66.7884 23.1701 66.5228 23.4025C66.2573 23.6349 66.0913 24.0664 65.9585 24.7303L65.6598 26.4896H68.2158C68.3485 26.4896 68.4481 26.5228 68.5145 26.6224C68.5809 26.6888 68.6141 26.8216 68.5809 26.9544L68.4149 27.8838C68.3817 28.1494 68.1826 28.2822 67.8838 28.2822H65.3278L63.3693 39.3361C63.3361 39.4689 63.2697 39.5685 63.1701 39.6681C63.0705 39.7677 62.9378 39.8009 62.805 39.8009H61.61C61.4772 39.8009 61.3776 39.7677 61.3112 39.6681C61.2448 39.5685 61.2116 39.4689 61.2116 39.3361L63.1701 28.2822L60.8797 28.0166C60.5809 27.9834 60.4481 27.8506 60.4813 27.5851L60.6141 26.9212C60.6473 26.7884 60.7137 26.6888 60.8133 26.5892C60.9129 26.5228 61.0456 26.4565 61.1784 26.4565H63.5353L63.834 24.6971C63.9336 24.0664 64.1328 23.5021 64.3651 23.0706C64.5975 22.639 64.8963 22.2739 65.2282 22.0415C65.5602 21.776 65.9585 21.61 66.39 21.5104C66.8216 21.4108 67.3195 21.3444 67.8506 21.3444C68.1826 21.3444 68.4481 21.3444 68.6473 21.4108C68.8465 21.444 69.0456 21.4772 69.1784 21.5104C69.4772 21.5768 69.61 21.7096 69.5768 21.9087L69.444 22.7054C69.3776 22.9378 69.2116 23.0706 68.9129 23.0706Z" fill="#C93665"/>
</g>
<defs>
<clipPath id="clip0">
<rect width="84.7137" height="40" fill="white"/>
</clipPath>
</defs>
</svg>
