<svg width="85" height="40" viewBox="0 0 85 40" fill="none" xmlns="http://www.w3.org/2000/svg">
<g clip-path="url(#clip0)">
<path d="M25.3278 11.7178C25.2614 12.1162 25.0622 12.3153 24.7303 12.3153H16.9958V12.3485C16.9295 12.6805 16.9295 13.0124 16.9295 13.3444C16.9626 13.6763 17.029 13.9419 17.195 14.1743C17.361 14.4066 17.5602 14.6058 17.8589 14.7386C18.1577 14.8714 18.5228 14.9709 19.0207 14.9709C19.4191 14.9709 19.8174 14.9709 20.249 14.9377C20.6805 14.9377 21.112 14.9045 21.5436 14.9045C21.9751 14.9045 22.3734 14.8713 22.7386 14.8382C23.1037 14.805 23.4357 14.7718 23.668 14.7386H23.7344C24.0332 14.7386 24.166 14.8713 24.1328 15.1369L23.8008 16.9958C23.7676 17.195 23.7012 17.3278 23.6348 17.4274C23.5685 17.527 23.4025 17.5933 23.1701 17.6597C22.3734 17.8589 21.5768 17.9917 20.8133 18.0913C20.0498 18.1909 19.1535 18.224 18.0913 18.224C17.361 18.224 16.6639 18.1245 15.9668 17.9253C15.2697 17.7261 14.6722 17.361 14.1743 16.8962C13.6763 16.3983 13.3112 15.7676 13.112 14.9709C12.8797 14.1743 12.8797 13.1784 13.0788 12.0166L13.3776 10.3236C13.5436 9.36098 13.8423 8.46471 14.2407 7.66803C14.639 6.87135 15.1701 6.20745 15.8008 5.64313C16.4315 5.07882 17.1286 4.68048 17.9585 4.38172C18.7552 4.08297 19.6514 3.91699 20.6141 3.91699C21.61 3.91699 22.4398 4.08297 23.1369 4.41492C23.834 4.74687 24.3651 5.1784 24.7967 5.74272C25.195 6.30703 25.4606 6.97093 25.5602 7.76761C25.6597 8.5311 25.6597 9.39417 25.4938 10.3236L25.3278 11.7178ZM21.8423 9.75932C22.0083 8.86305 21.9087 8.16595 21.61 7.73442C21.3112 7.30288 20.8133 7.07052 20.1162 7.07052C19.4523 7.07052 18.8548 7.30288 18.39 7.73442C17.8921 8.19915 17.5934 8.86305 17.4274 9.75932L17.3942 9.8589H21.8091L21.8423 9.75932Z" fill="#EF7F3D"/>
<path d="M49.5602 11.917C49.3942 12.8796 49.0954 13.7427 48.6971 14.5394C48.2987 15.3029 47.8008 15.9668 47.2033 16.4979C46.6058 17.029 45.9087 17.4606 45.0788 17.7593C44.2821 18.0581 43.3859 18.1909 42.39 18.1909C41.3942 18.1909 40.5643 18.0249 39.8672 17.7593C39.1701 17.4606 38.6058 17.029 38.1743 16.4979C37.7427 15.9668 37.4772 15.3029 37.3444 14.5394C37.2116 13.7759 37.2448 12.8796 37.4108 11.917L37.7095 10.224C37.8755 9.26139 38.1743 8.39832 38.5726 7.60164C38.9709 6.83815 39.4689 6.17425 40.0996 5.64313C40.6971 5.11201 41.4274 4.68048 42.2241 4.38172C43.0207 4.08297 43.917 3.91699 44.9128 3.91699C45.9087 3.91699 46.7386 4.08297 47.4357 4.38172C48.1328 4.68048 48.6971 5.11201 49.0954 5.64313C49.527 6.17425 49.7925 6.83815 49.9253 7.60164C50.0581 8.36512 50.0249 9.26139 49.8589 10.224L49.5602 11.917ZM45.9087 10.224C46.2406 8.26554 45.7095 7.26969 44.2821 7.26969C43.585 7.26969 42.9875 7.50205 42.5228 7.99998C42.0581 8.49791 41.7593 9.2282 41.5933 10.224L41.2946 11.917C41.1286 12.9128 41.1618 13.6431 41.4606 14.1411C41.7261 14.639 42.224 14.9045 42.9543 14.9045C44.3817 14.9045 45.278 13.9087 45.6099 11.917L45.9087 10.224Z" fill="#EF7F3D"/>
<path d="M63.9004 6.14105C63.8672 6.30702 63.8008 6.4398 63.7344 6.50619C63.6348 6.57258 63.5353 6.63897 63.3693 6.67217L62.5726 6.90453C62.6722 7.1369 62.7386 7.40246 62.805 7.7676C62.8382 8.09955 62.8382 8.4315 62.805 8.69706L62.7718 8.89623C62.5062 10.4896 61.7759 11.6182 60.6141 12.3485C59.4523 13.0788 57.9253 13.444 56 13.444C55.4357 13.444 54.9377 13.4108 54.5062 13.3444C54.0747 13.278 53.7427 13.1784 53.5436 13.0788C53.4108 13.1452 53.3112 13.2448 53.2448 13.3444C53.1784 13.444 53.1452 13.5435 53.112 13.6431C53.0788 13.8423 53.112 13.9751 53.1784 14.0747C53.2448 14.1742 53.444 14.2406 53.7095 14.307L56.3319 14.9045C57.3278 15.1369 58.1909 15.3361 58.888 15.5684C59.585 15.8008 60.1162 16.0332 60.5145 16.3319C60.9128 16.6307 61.1784 16.9626 61.278 17.361C61.4108 17.7593 61.4108 18.2572 61.3112 18.8215L61.278 19.0207C60.8133 21.6431 58.4564 22.9709 54.2406 22.9709C52.2158 22.9709 50.7552 22.639 49.8257 21.9419C48.8963 21.278 48.5643 20.2821 48.7635 19.0207L48.7967 18.8215C48.8963 18.3236 49.0954 17.8589 49.3942 17.3942C49.6929 16.9294 50.1577 16.4979 50.722 16.0996C50.3236 15.8672 50.0581 15.5352 49.9585 15.1037C49.8257 14.6722 49.8257 14.2738 49.8921 13.8423C49.9585 13.3776 50.1577 12.9792 50.39 12.6473C50.6556 12.3153 50.9543 12.0166 51.3195 11.7842C50.9875 11.4522 50.7884 10.9875 50.6888 10.4564C50.6224 9.89208 50.6224 9.39416 50.6888 8.89623L50.722 8.69706C50.9543 7.33607 51.6514 6.20744 52.7469 5.37756C53.8423 4.54769 55.4689 4.11615 57.5933 4.11615H63.6348C63.8008 4.11615 63.9336 4.18254 64.0332 4.28213C64.1328 4.41491 64.166 4.54769 64.1328 4.71366L63.9004 6.14105ZM57.3278 18.7883C57.361 18.6888 57.3278 18.556 57.2946 18.4564C57.2614 18.3568 57.1618 18.2572 56.9958 18.1576C56.8299 18.0581 56.5975 17.9585 56.2987 17.8589C56 17.7593 55.5685 17.6597 55.0373 17.5269L53.3112 17.1286C53.1452 17.3278 52.9792 17.5601 52.8465 17.7925C52.7137 18.0249 52.6141 18.3568 52.5477 18.7883L52.5145 18.9875C52.4481 19.4191 52.5477 19.7178 52.8465 19.917C53.1452 20.1161 53.7759 20.2157 54.7054 20.2157C55.2033 20.2157 55.6016 20.1825 55.9336 20.1161C56.2655 20.0498 56.4979 19.9834 56.6971 19.8506C56.8963 19.751 57.029 19.6182 57.0954 19.4522C57.195 19.2863 57.2282 19.1203 57.2614 18.9543L57.3278 18.7883ZM58.9543 8.69706C59.0539 8.19914 58.9543 7.7676 58.722 7.43565C58.4896 7.1037 57.9585 6.93773 57.0954 6.93773C56.2324 6.93773 55.6348 7.1037 55.2697 7.43565C54.9046 7.7676 54.6722 8.16594 54.6058 8.69706L54.5726 8.89623C54.5394 9.0954 54.5394 9.32777 54.5394 9.52694C54.5726 9.72611 54.639 9.92528 54.7718 10.0581C54.9046 10.224 55.1037 10.3568 55.3693 10.4564C55.6348 10.556 56 10.5892 56.4647 10.5892C57.3278 10.5892 57.9253 10.4232 58.2572 10.1244C58.5892 9.82569 58.8216 9.39416 58.9211 8.89623L58.9543 8.69706Z" fill="#EF7F3D"/>
<path d="M75.0207 11.7178C74.9544 12.1162 74.7552 12.3153 74.4232 12.3153H66.6888V12.3485C66.6224 12.6805 66.6224 13.0124 66.6224 13.3444C66.6556 13.6763 66.722 13.9419 66.888 14.1743C67.0539 14.4066 67.2531 14.6058 67.5519 14.7386C67.8506 14.8714 68.2158 14.9709 68.7137 14.9709C69.112 14.9709 69.5104 14.9709 69.9419 14.9377C70.3734 14.9377 70.805 14.9045 71.2365 14.9045C71.6681 14.9045 72.0664 14.8713 72.4315 14.8382C72.7967 14.805 73.1286 14.7718 73.361 14.7386H73.4274C73.7261 14.7386 73.8589 14.8713 73.8257 15.1369L73.4938 16.9958C73.4606 17.195 73.3942 17.3278 73.3278 17.4274C73.2614 17.527 73.0954 17.5933 72.8631 17.6597C72.0664 17.8589 71.2697 17.9917 70.5062 18.0913C69.7427 18.1909 68.8465 18.224 67.7842 18.224C67.0539 18.224 66.3568 18.1245 65.6598 17.9253C64.9627 17.7261 64.3651 17.361 63.8672 16.8962C63.3693 16.3983 63.0041 15.7676 62.805 14.9709C62.6058 14.1743 62.5726 13.1784 62.7718 12.0166L63.0705 10.3236C63.2365 9.36098 63.5353 8.46471 63.9336 7.66803C64.332 6.87135 64.8631 6.20745 65.4938 5.64313C66.1245 5.07882 66.8216 4.68048 67.6515 4.38172C68.4481 4.08297 69.3444 3.91699 70.3071 3.91699C71.3029 3.91699 72.1328 4.08297 72.8299 4.41492C73.527 4.74687 74.0581 5.1784 74.4896 5.74272C74.888 6.30703 75.1535 6.97093 75.2531 7.76761C75.3527 8.5311 75.3527 9.39417 75.1867 10.3236L75.0207 11.7178ZM71.5353 9.75932C71.7012 8.86305 71.6017 8.16595 71.3029 7.73442C71.0042 7.30288 70.5062 7.07052 69.8091 7.07052C69.1452 7.07052 68.5477 7.30288 68.083 7.73442C67.5851 8.19915 67.2863 8.86305 67.1203 9.75932L67.0871 9.8589H71.5021L71.5353 9.75932Z" fill="#EF7F3D"/>
<path d="M84.1494 7.07053C84.083 7.17011 83.9834 7.20331 83.8506 7.20331H83.6515C83.0539 7.20331 82.4896 7.2697 81.9253 7.43567C81.3942 7.60165 80.8631 7.80082 80.3652 8.03318L78.7054 17.4938C78.6722 17.6265 78.6058 17.7261 78.5062 17.8589C78.4066 17.9585 78.2739 18.0249 78.1411 18.0249H75.2199C75.0871 18.0249 74.9876 17.9585 74.888 17.8589C74.7884 17.7593 74.7552 17.6265 74.7884 17.4938L77.0456 4.6141C77.0788 4.48132 77.1452 4.38173 77.2448 4.28215C77.3444 4.18256 77.4772 4.14937 77.61 4.14937H80.4979C80.6307 4.14937 80.7303 4.18256 80.7967 4.28215C80.8631 4.38173 80.8963 4.48132 80.8963 4.6141L80.7967 5.11202C81.3278 4.74688 81.8921 4.44812 82.4896 4.24895C83.0871 4.04978 83.6846 3.9502 84.2822 3.9502C84.4149 3.9502 84.5145 3.98339 84.5809 4.08298C84.6473 4.18256 84.6805 4.28215 84.6805 4.41493L84.2822 6.73858C84.2822 6.83816 84.249 6.97094 84.1494 7.07053Z" fill="#EF7F3D"/>
<path d="M35.8506 17.8921C35.6514 17.9253 35.3859 17.9917 35.0539 18.0249C34.6556 18.0913 34.1909 18.1245 33.7593 18.1577C33.3942 18.1909 32.8299 18.1909 32.4979 18.1909C31.7344 18.1909 30.971 18.1245 30.3071 17.9917C29.61 17.8589 29.0124 17.6266 28.5477 17.2282C28.083 16.8631 27.751 16.332 27.5187 15.6349C27.3195 14.9378 27.3195 14.0415 27.5187 12.9461L29.7427 0.431535C29.7759 0.298755 29.8423 0.19917 29.9419 0.0995851C30.0747 0.033195 30.2075 0 30.3071 0H33.4938C33.6266 0 33.7261 0.033195 33.7925 0.13278C33.8589 0.232365 33.8921 0.33195 33.8921 0.46473L31.668 12.9793C31.5685 13.61 31.6017 14.0415 31.8008 14.2739C32 14.5062 32.3651 14.639 32.9295 14.639H36.4149C36.5477 14.639 36.6473 14.6722 36.7137 14.7718C36.7801 14.8714 36.8133 14.971 36.8133 15.1037L36.4149 17.361C36.3817 17.6598 36.1826 17.8257 35.8506 17.8921Z" fill="#EF7F3D"/>
<path d="M13.4772 2.02492C12.7801 1.82575 12.0498 1.65978 11.2863 1.56019C10.5228 1.42741 9.59336 1.36102 8.46473 1.36102C6.50623 1.36102 4.97926 1.72617 3.91702 2.45646C2.85477 3.18675 2.22407 4.24899 1.95851 5.67638C1.79253 6.57264 1.85892 7.36932 2.19087 8.06642C2.48963 8.73032 2.98756 9.32783 3.68465 9.75936L7.07054 11.9502C7.46888 12.2158 7.73444 12.4482 7.90042 12.6473C8.06639 12.8797 8.13278 13.1785 8.06639 13.444C8 13.9087 7.76764 14.2407 7.46888 14.4731C7.17013 14.7054 6.63901 14.805 5.87552 14.805C5.64316 14.805 5.31121 14.805 4.91287 14.7718C4.51453 14.7386 4.08299 14.7386 3.61826 14.6722C3.12033 14.639 2.6556 14.6058 2.19087 14.5726C1.72614 14.5394 1.29461 14.4731 0.929464 14.4067H0.829878C0.730293 14.4067 0.630708 14.4399 0.564318 14.5063C0.497928 14.5726 0.464733 14.639 0.431538 14.7386L2.95167e-06 17.0955C-0.0331921 17.2946 0.033198 17.3942 0.232368 17.4606C0.564318 17.5602 0.962658 17.6266 1.39419 17.7262C1.82573 17.7926 2.25726 17.859 2.72199 17.9253C3.18672 17.9917 3.65146 18.0249 4.08299 18.0581C4.51453 18.0913 4.94606 18.0913 5.3444 18.0913C6.37345 18.0913 7.30291 17.9585 8.09959 17.7262C8.89627 17.4938 9.59336 17.1619 10.1577 16.7303C10.722 16.2988 11.1867 15.8009 11.5187 15.2365C11.8506 14.6722 12.083 14.0415 12.2158 13.3776C12.2822 13.0125 12.3154 12.6473 12.3154 12.249C12.3154 11.8838 12.2158 11.5519 12.083 11.1868C11.9502 10.8216 11.7178 10.4897 11.4191 10.1577C11.1203 9.82575 10.722 9.46061 10.1909 9.12866L6.93776 7.03737C6.63901 6.8382 6.43984 6.67223 6.30706 6.50625C6.10789 6.30708 6.0415 6.04152 6.10789 5.74277C6.20747 5.21165 6.50623 4.97928 6.73859 4.8797C7.03735 4.74692 7.46888 4.68053 8.09959 4.68053C8.46473 4.68053 8.89627 4.68053 9.39419 4.71372C9.85892 4.74692 10.3237 4.78011 10.7884 4.81331C11.2531 4.8465 11.6847 4.91289 12.0498 4.94609C12.4149 4.97928 12.7137 5.01248 12.9129 5.04567H12.9461C13.0788 5.04567 13.2116 5.01248 13.278 4.71372L13.7095 2.32368C13.7427 2.1909 13.6764 2.09131 13.4772 2.02492Z" fill="#EF7F3D"/>
<path d="M11.6515 26.888C11.6515 26.9544 11.6183 27.0207 11.5851 27.0539L6.24067 38.6058C5.97511 39.1701 5.64316 39.5353 5.21163 39.7012C4.78009 39.9004 4.31536 39.9668 3.81744 39.9668C3.28632 39.9668 2.85478 39.8672 2.52283 39.7012C2.15769 39.5021 1.95852 39.1369 1.89213 38.6058L0.66391 27.0539C0.66391 27.0207 0.66391 26.9544 0.66391 26.888C0.697105 26.6224 0.86308 26.4896 1.12864 26.4896H2.45644C2.65561 26.4896 2.78839 26.6556 2.82159 26.9544L3.71785 37.5768C3.75105 37.8755 3.78424 38.0747 3.85063 38.1411C3.88383 38.2407 3.98341 38.2739 4.11619 38.2739C4.21578 38.2739 4.31536 38.2407 4.41495 38.1411C4.51453 38.0415 4.61412 37.8755 4.7469 37.5768L9.42739 26.9544C9.59337 26.6556 9.75935 26.4896 9.95852 26.4896H11.2863C11.5851 26.4896 11.6847 26.6224 11.6515 26.888Z" fill="#EF7F3D"/>
<path d="M19.1535 39.3693C19.1203 39.5021 19.0539 39.6017 18.9544 39.7013C18.8548 39.8009 18.722 39.8341 18.5892 39.8341H17.4606C17.3278 39.8341 17.2282 39.8009 17.1618 39.7013C17.0954 39.6017 17.0622 39.5021 17.0622 39.3693L17.1618 38.8382C16.5311 39.1702 15.8672 39.4689 15.2033 39.7013C14.5394 39.9336 13.8755 40.0332 13.2116 40.0332C12.6805 40.0332 12.2158 39.9668 11.751 39.8672C11.2863 39.7345 10.9212 39.5353 10.5892 39.2365C10.2905 38.9378 10.0581 38.5394 9.92531 38.0083C9.79253 37.5104 9.79253 36.8797 9.92531 36.1162L9.9917 35.8175C10.0913 35.1867 10.3237 34.5892 10.5892 34.0913C10.888 33.5934 11.2863 33.195 11.8174 32.8631C12.3486 32.5311 12.9793 32.2988 13.7427 32.1328C14.5062 31.9668 15.4357 31.9004 16.5311 31.9004H18.3237L18.4896 30.9378C18.6556 29.9087 18.5892 29.2116 18.2905 28.8133C17.9585 28.415 17.3278 28.2158 16.3983 28.2158C15.6017 28.2158 14.9046 28.249 14.3071 28.2822C13.7095 28.3154 13.1452 28.3818 12.6473 28.415H12.5145C12.4149 28.415 12.3154 28.3818 12.2158 28.3486C12.1494 28.3154 12.1162 28.1826 12.1494 28.0166L12.3154 27.1536C12.3486 26.888 12.5477 26.7552 12.9129 26.6888C13.444 26.6224 13.9751 26.5228 14.6058 26.4565C15.2033 26.3901 15.9336 26.3569 16.7635 26.3569C18.4564 26.3569 19.5851 26.7552 20.1826 27.5851C20.7801 28.3818 20.9461 29.5104 20.6805 30.9378L19.1535 39.3693ZM18.0581 33.3942H16.2656C15.5353 33.3942 14.9378 33.4274 14.4066 33.527C13.9087 33.6266 13.5104 33.7594 13.1784 33.9253C12.8797 34.1245 12.6473 34.3569 12.4813 34.6556C12.3154 34.9544 12.1826 35.3195 12.1162 35.7511L12.0498 36.0498C11.8838 36.9129 11.9834 37.5104 12.3154 37.8092C12.6473 38.1079 13.1784 38.2739 13.8755 38.2739C14.4398 38.2739 15.0042 38.2075 15.5353 38.0415C16.0664 37.8755 16.6639 37.6432 17.3278 37.3112L18.0581 33.3942Z" fill="#EF7F3D"/>
<path d="M28.8797 39.5685C28.8133 39.6349 28.6473 39.7013 28.4481 39.7345C28.0166 39.8008 27.5519 39.8672 27.0208 39.9336C26.4896 39.9668 25.9253 40 25.361 40C24.5311 40 23.834 39.8672 23.2365 39.5685C22.639 39.2697 22.1743 38.9046 21.8091 38.3735C21.444 37.8755 21.2448 37.2448 21.1452 36.5145C21.0456 35.7842 21.0788 34.9876 21.2448 34.0913L21.5768 32.1992C21.7427 31.3029 22.0083 30.5062 22.3403 29.7759C22.7054 29.0457 23.1369 28.4149 23.6681 27.917C24.1992 27.4191 24.7967 27.0208 25.4938 26.722C26.1909 26.4232 26.9544 26.2905 27.7842 26.2905C28.3486 26.2905 28.8797 26.3237 29.4108 26.3569C29.9419 26.3901 30.3734 26.4564 30.7718 26.556C30.971 26.5892 31.0705 26.6556 31.1369 26.722C31.2033 26.7884 31.2033 26.9212 31.1701 27.0871L31.0042 27.9502C30.971 28.083 30.9378 28.1826 30.8382 28.2158C30.7386 28.2822 30.639 28.3154 30.5394 28.3154H30.4398C29.9087 28.249 29.444 28.2158 29.0125 28.1826C28.5809 28.1494 28.0498 28.1494 27.4523 28.1494C26.4896 28.1494 25.6598 28.4813 25.0291 29.1452C24.3983 29.8091 23.9336 30.805 23.7013 32.1992L23.3693 34.0913C23.1369 35.4523 23.2033 36.4813 23.6017 37.1452C24 37.8091 24.6971 38.1411 25.693 38.1411C26.2905 38.1411 26.8216 38.1411 27.2531 38.1079C27.6847 38.0747 28.1826 38.0415 28.7469 37.9751H28.8465C28.9461 37.9751 29.0456 38.0083 29.112 38.0747C29.1784 38.1411 29.2116 38.2407 29.1784 38.3403L29.0125 39.2033C29.0125 39.3693 28.9793 39.5021 28.8797 39.5685Z" fill="#EF7F3D"/>
<path d="M39.3693 39.3693C39.3361 39.5021 39.2697 39.6017 39.1701 39.7013C39.0706 39.8009 38.9378 39.8341 38.805 39.8341H37.6764C37.5436 39.8341 37.444 39.8009 37.3776 39.7013C37.3112 39.6017 37.278 39.5021 37.278 39.3693L37.3776 38.8382C36.7469 39.1702 36.083 39.4689 35.4191 39.7013C34.7552 39.9336 34.0913 40.0332 33.4274 40.0332C32.8963 40.0332 32.4315 39.9668 31.9668 39.8672C31.5021 39.7345 31.1369 39.5353 30.805 39.2365C30.5062 38.9378 30.2739 38.5394 30.1411 38.0083C30.0083 37.5104 30.0083 36.8797 30.1411 36.1162L30.2075 35.8175C30.3071 35.1867 30.5394 34.5892 30.805 34.0913C31.1037 33.5934 31.5021 33.195 32.0332 32.8631C32.5643 32.5311 33.195 32.2988 33.9585 32.1328C34.722 31.9668 35.6515 31.9004 36.7469 31.9004H38.5394L38.7054 30.9378C38.8714 29.9087 38.805 29.2116 38.5062 28.8133C38.1743 28.415 37.5436 28.2158 36.6141 28.2158C35.8174 28.2158 35.1203 28.249 34.5228 28.2822C33.9253 28.3154 33.361 28.3818 32.8631 28.415H32.7303C32.6307 28.415 32.5311 28.3818 32.4315 28.3486C32.3652 28.3154 32.332 28.1826 32.3652 28.0166L32.5311 27.1536C32.5643 26.888 32.7635 26.7552 33.1286 26.6888C33.6598 26.6224 34.1909 26.5228 34.8216 26.4565C35.4191 26.3901 36.1494 26.3569 36.9793 26.3569C38.6722 26.3569 39.8008 26.7552 40.3984 27.5851C40.9959 28.3818 41.1618 29.5104 40.8963 30.9378L39.3693 39.3693ZM38.3071 33.3942H36.5145C35.7842 33.3942 35.1867 33.4274 34.6556 33.527C34.1577 33.6266 33.7593 33.7594 33.4274 33.9253C33.1286 34.1245 32.8963 34.3569 32.7303 34.6556C32.5643 34.9544 32.4315 35.3195 32.3652 35.7511L32.2988 36.0498C32.1328 36.9129 32.2324 37.5104 32.5643 37.8092C32.8963 38.1079 33.4274 38.2739 34.1245 38.2739C34.6888 38.2739 35.2531 38.2075 35.7842 38.0415C36.3154 37.8755 36.9129 37.6432 37.5768 37.3112L38.3071 33.3942Z" fill="#EF7F3D"/>
<path d="M51.0208 39.7012C50.9212 39.8008 50.7884 39.834 50.6556 39.834H49.4606C49.3278 39.834 49.2282 39.8008 49.1618 39.7012C49.0955 39.6017 49.0623 39.5021 49.0623 39.3693L50.4896 31.4025C50.5892 30.805 50.6224 30.2739 50.5892 29.8755C50.556 29.4772 50.4565 29.1452 50.2905 28.8797C50.1245 28.6473 49.8589 28.4481 49.5602 28.3486C49.2282 28.249 48.8631 28.1826 48.3984 28.1826C47.8672 28.1826 47.3361 28.2822 46.7386 28.4481C46.1411 28.6141 45.5436 28.8465 44.9461 29.112L43.1204 39.3361C43.0872 39.4689 43.0208 39.5685 42.9212 39.6681C42.8216 39.7676 42.6888 39.8008 42.556 39.8008H41.361C41.2282 39.8008 41.1287 39.7676 41.0623 39.6681C40.9959 39.5685 40.9627 39.4689 40.9959 39.3361L43.1867 26.9544C43.2199 26.8216 43.2863 26.722 43.3859 26.6224C43.4855 26.5228 43.6183 26.4896 43.7511 26.4896H44.9793C45.1121 26.4896 45.2116 26.5228 45.278 26.6224C45.3444 26.722 45.3776 26.8216 45.3444 26.9544L45.2448 27.4191C46.0083 27.0539 46.6722 26.7552 47.3029 26.556C47.9336 26.3568 48.5975 26.2573 49.3278 26.2573C50.7884 26.2573 51.7843 26.6888 52.3154 27.5519C52.8465 28.4149 52.9461 29.6764 52.6473 31.3029L51.2199 39.3029C51.1867 39.4689 51.1204 39.6017 51.0208 39.7012Z" fill="#EF7F3D"/>
<path d="M60.9461 39.5685C60.8797 39.6349 60.7137 39.7013 60.5145 39.7345C60.083 39.8008 59.6183 39.8672 59.0871 39.9336C58.556 39.9668 57.9917 40 57.4274 40C56.5975 40 55.9004 39.8672 55.3029 39.5685C54.7054 39.2697 54.2407 38.9046 53.8755 38.3735C53.5104 37.8755 53.3112 37.2448 53.2116 36.5145C53.112 35.7842 53.1452 34.9876 53.3112 34.0913L53.6432 32.1992C53.8091 31.3029 54.0747 30.5062 54.4066 29.7759C54.7718 29.0457 55.2033 28.4149 55.7344 27.917C56.2656 27.4191 56.8631 27.0208 57.5602 26.722C58.2573 26.4232 59.0208 26.2905 59.8506 26.2905C60.4149 26.2905 60.9461 26.3237 61.4772 26.3569C62.0083 26.3901 62.4398 26.4564 62.8382 26.556C63.0373 26.5892 63.1369 26.6556 63.2033 26.722C63.2697 26.7884 63.2697 26.9212 63.2365 27.0871L63.0705 27.9502C63.0373 28.083 63.0042 28.1826 62.9046 28.2158C62.805 28.2822 62.7054 28.3154 62.6058 28.3154H62.5062C61.9751 28.249 61.5104 28.2158 61.0788 28.1826C60.6473 28.1494 60.1162 28.1494 59.5187 28.1494C58.556 28.1494 57.7261 28.4813 57.0954 29.1452C56.4647 29.8091 56 30.805 55.7676 32.1992L55.4357 34.0913C55.2033 35.4523 55.2697 36.4813 55.6681 37.1452C56.0664 37.8091 56.7635 38.1411 57.7593 38.1411C58.3569 38.1411 58.888 38.1411 59.3195 38.1079C59.751 38.0747 60.249 38.0415 60.8133 37.9751H60.9129C61.0125 37.9751 61.112 38.0083 61.1784 38.0747C61.2448 38.1411 61.278 38.2407 61.2448 38.3403L61.0788 39.2033C61.0788 39.3693 61.0456 39.5021 60.9461 39.5685Z" fill="#EF7F3D"/>
<path d="M73.4938 33.2946C73.4274 33.6598 73.2282 33.8257 72.9294 33.8257H64.8299L64.7635 34.1577C64.4979 35.5851 64.5975 36.6141 65.0622 37.2116C65.527 37.8091 66.3236 38.1079 67.4191 38.1079C68.1162 38.1079 68.8797 38.0747 69.7095 38.0415C70.5062 38.0083 71.2033 37.9419 71.8008 37.8423H71.9336C72.0332 37.8423 72.0996 37.8755 72.1992 37.9087C72.2655 37.9419 72.2987 38.0415 72.2655 38.1743L72.1328 39.0042C72.0996 39.1701 72.0332 39.3029 71.9668 39.3693C71.9004 39.4689 71.7344 39.5353 71.5353 39.5685C70.805 39.7012 70.1079 39.8008 69.4108 39.8672C68.7137 39.9336 67.9502 39.9668 67.1203 39.9668C66.4232 39.9668 65.7593 39.8672 65.1286 39.7012C64.4979 39.5021 63.9668 39.2033 63.5353 38.7386C63.1037 38.3071 62.805 37.7095 62.6058 36.9461C62.4066 36.2158 62.4398 35.2531 62.639 34.1245L63.0373 31.9336C63.3361 30.1743 64.0664 28.8133 65.1618 27.7842C66.2572 26.7552 67.6846 26.2573 69.444 26.2573C70.3402 26.2573 71.0705 26.39 71.7012 26.6556C72.3319 26.9212 72.7967 27.3195 73.1618 27.7842C73.527 28.2822 73.7593 28.8797 73.8589 29.5768C73.9585 30.2739 73.9253 31.0705 73.7925 31.9336L73.4938 33.2946ZM71.5685 32C71.8008 30.639 71.7344 29.6432 71.3029 29.0788C70.8714 28.4813 70.1411 28.2158 69.0788 28.2158C68.0166 28.2158 67.1535 28.5145 66.4896 29.1452C65.8257 29.7759 65.361 30.7386 65.1286 32.0332L65.0954 32.2656H71.5353L71.5685 32Z" fill="#EF7F3D"/>
<path d="M82.6224 36.4814C82.5228 37.1121 82.3237 37.6432 82.0249 38.0747C81.7261 38.5063 81.361 38.8714 80.8963 39.1702C80.4647 39.4689 79.9336 39.6681 79.3361 39.8009C78.7386 39.9336 78.1079 40 77.444 40C77.2116 40 76.9461 40 76.6473 40C76.3486 40 76.0166 39.9668 75.6515 39.9336C75.3195 39.9004 74.9544 39.8672 74.6224 39.8341C74.2905 39.8009 73.9585 39.7345 73.693 39.6681C73.361 39.6017 73.2282 39.4357 73.2614 39.1702L73.4274 38.3071C73.4606 38.2075 73.4938 38.1079 73.5934 38.0415C73.693 37.9751 73.7925 37.9419 73.9253 37.9419H74.0249C74.3237 37.9751 74.6224 38.0083 74.9544 38.0415C75.2863 38.0747 75.6515 38.1079 75.9834 38.1411C76.3486 38.1743 76.6473 38.1743 76.9793 38.2075C77.278 38.2407 77.5436 38.2407 77.7759 38.2407C78.5726 38.2407 79.2033 38.1079 79.6349 37.8755C80.0664 37.6432 80.3651 37.1785 80.4979 36.5145C80.5643 36.1494 80.4979 35.8175 80.2656 35.5519C80.0664 35.2863 79.6349 34.9212 79.0042 34.5228L76.8133 33.0623C76.1494 32.5975 75.6515 32.0996 75.2863 31.5685C74.9212 31.0374 74.8216 30.3735 74.9544 29.5768C75.0539 28.9461 75.2863 28.415 75.5851 28.0166C75.8838 27.6183 76.249 27.2863 76.6805 27.0208C77.112 26.7552 77.61 26.5892 78.1743 26.4897C78.7386 26.3901 79.3029 26.3569 79.9336 26.3569C80.5975 26.3569 81.2614 26.3901 81.8921 26.4565C82.5228 26.5228 83.1203 26.5892 83.6515 26.6888C83.9502 26.722 84.083 26.888 84.0166 27.1867L83.8838 27.9834C83.8506 28.249 83.6846 28.3818 83.3859 28.3818H83.3195C82.888 28.3486 82.3568 28.3154 81.6598 28.249C80.9627 28.2158 80.2656 28.1826 79.6017 28.1826C78.9378 28.1826 78.3734 28.249 77.9087 28.415C77.4772 28.5809 77.1784 28.9793 77.0788 29.5768C77.0125 29.9419 77.0788 30.2739 77.3112 30.5394C77.5436 30.805 77.9087 31.1038 78.4066 31.4357L80.5643 32.8631C81.4606 33.4606 82.0581 34.0581 82.3569 34.6224C82.6556 35.1536 82.7552 35.7843 82.6224 36.4814Z" fill="#EF7F3D"/>
</g>
<defs>
<clipPath id="clip0">
<rect width="84.7137" height="40" fill="white"/>
</clipPath>
</defs>
</svg>
