<svg width="66" height="40" viewBox="0 0 66 40" fill="none" xmlns="http://www.w3.org/2000/svg">
<g clip-path="url(#clip0)">
<path d="M1.57026 28.4362V8.36603L0 7.6485V30.0065L1.57026 28.4362Z" fill="url(#paint0_linear)"/>
<path d="M9.43195 9.55154L11.0074 8.37125V0L10.971 0.0311972L9.43195 3.3589V9.55154Z" fill="url(#paint1_linear)"/>
<path d="M9.43194 28.4362H1.57026L0 30.0065H10.9866L9.43194 28.3894V28.4362Z" fill="url(#paint2_linear)"/>
<path d="M1.57026 8.35044L9.43195 3.33809V3.35889L10.971 0.031189L0 7.6069V7.6485L1.57026 8.36603V8.35044Z" fill="url(#paint3_linear)"/>
<path d="M23.1899 11.5326L16.5241 6.19785L16.4981 6.21864V8.18927L21.6041 12.2761L23.1899 11.569V11.5326Z" fill="url(#paint4_linear)"/>
<path d="M21.6041 12.2761L21.6197 12.2865V16.2641H23.19V11.569L21.6041 12.2761Z" fill="url(#paint5_linear)"/>
<path d="M9.43195 11.517V11.5326L11.023 12.2917L16.4929 8.18405L16.4981 8.18925V6.21863L9.43195 11.517Z" fill="url(#paint6_linear)"/>
<path d="M9.43195 28.3895L10.9866 30.0065H11.0074V12.3021L11.023 12.2917L9.43195 11.5326V28.3895Z" fill="url(#paint7_linear)"/>
<path d="M28.0359 13.0456C28.0359 11.0126 29.1746 9.74393 30.8644 9.74393C31.7276 9.74393 32.2735 10.1495 32.6115 10.5135L32.3515 10.815C32.0187 10.4563 31.5768 10.1547 30.8748 10.1547C29.4086 10.1547 28.5038 11.2726 28.5038 13.0508C28.5038 14.8291 29.3566 15.973 30.8176 15.973C31.4 15.973 31.9459 15.7962 32.2579 15.4894V13.498H30.724V13.1184H32.6843V15.6506C32.2839 16.077 31.6236 16.3785 30.7916 16.3785C29.133 16.3785 28.0359 15.089 28.0359 13.0456Z" fill="black"/>
<path d="M35.2216 9.86353H37.0571C38.331 9.86353 39.1577 10.3315 39.1577 11.5534C39.1577 12.5725 38.5286 13.1652 37.5146 13.29L39.2825 16.2641H38.7677L37.0311 13.3212H35.6688V16.2641H35.2216V9.86353ZM36.9427 12.952C38.071 12.952 38.7001 12.4945 38.7001 11.5534C38.7001 10.5915 38.071 10.2431 36.9427 10.2431H35.6688V12.952H36.9427Z" fill="black"/>
<path d="M41.0035 13.0404C41.0035 11.0178 42.1006 9.74911 43.6345 9.74911C45.1787 9.74911 46.2758 11.023 46.2758 13.0404C46.2758 15.0734 45.1787 16.3837 43.6345 16.3837C42.1006 16.3785 41.0035 15.0682 41.0035 13.0404ZM45.8027 13.0404C45.8027 11.2726 44.9396 10.1547 43.6345 10.1547C42.3294 10.1547 41.4663 11.2726 41.4663 13.0404C41.4663 14.8187 42.3294 15.973 43.6345 15.973C44.9396 15.973 45.8027 14.8187 45.8027 13.0404Z" fill="black"/>
<path d="M48.6313 13.8048V9.85831H49.0784V13.7528C49.0784 15.453 49.874 15.9678 50.7787 15.9678C51.7042 15.9678 52.5257 15.453 52.5257 13.7528V9.85831H52.9416V13.8048C52.9416 15.8066 51.8809 16.3785 50.7735 16.3785C49.6816 16.3785 48.6313 15.8066 48.6313 13.8048Z" fill="black"/>
<path d="M55.713 9.86353H57.3249C58.7703 9.86353 59.6491 10.3315 59.6491 11.6522C59.6491 12.9053 58.7963 13.5188 57.3665 13.5188H56.1602V16.2693H55.713V9.86353ZM57.2573 13.134C58.5572 13.134 59.1915 12.6973 59.1915 11.647C59.1915 10.5707 58.5416 10.2379 57.2209 10.2379H56.1602V13.134H57.2573V13.134Z" fill="black"/>
<path d="M61.9524 9.86353H65.4621V10.2535H62.3996V12.6713H64.963V13.0612H62.3996V15.8794H65.5557V16.2693H61.9524V9.86353Z" fill="black"/>
<path d="M30.0741 25.9665C30.0325 26.1953 29.9129 26.3097 29.7101 26.3097H25.1293L25.1241 26.3357C25.0878 26.5332 25.0774 26.7308 25.093 26.918C25.1085 27.1052 25.1605 27.2716 25.2489 27.4172C25.3373 27.5575 25.4673 27.6719 25.6441 27.7603C25.8157 27.8435 26.0445 27.8903 26.3304 27.8903C26.5592 27.8903 26.8036 27.8851 27.0636 27.8747C27.3236 27.8643 27.5835 27.8539 27.8383 27.8435C28.0931 27.8331 28.3323 27.8227 28.5558 27.8071C28.7794 27.7915 28.9614 27.7759 29.1122 27.7551H29.1538C29.3358 27.7551 29.4138 27.8331 29.3878 27.9839L29.1954 29.0862C29.1746 29.2006 29.1382 29.289 29.0914 29.3462C29.0446 29.4034 28.9562 29.4502 28.8262 29.4762C28.3479 29.5906 27.8799 29.679 27.4327 29.7361C26.9804 29.7933 26.4448 29.8245 25.8261 29.8245C25.3945 29.8245 24.9734 29.7621 24.5678 29.6374C24.157 29.5126 23.8087 29.3098 23.5123 29.0186C23.2159 28.7326 23.0079 28.3531 22.8779 27.8747C22.748 27.4016 22.748 26.8192 22.8675 26.1277L23.0443 25.1242C23.1431 24.5522 23.3147 24.0271 23.5643 23.5591C23.8087 23.0911 24.1154 22.6908 24.4846 22.3684C24.8538 22.0408 25.2749 21.7913 25.7585 21.6145C26.2368 21.4377 26.7672 21.3493 27.3392 21.3493C27.9215 21.3493 28.4207 21.4429 28.8314 21.6353C29.2422 21.8277 29.5698 22.0876 29.8089 22.4256C30.0481 22.7584 30.1989 23.1587 30.2665 23.6163C30.3341 24.0739 30.3185 24.5782 30.2249 25.1242L30.0741 25.9665ZM28.0099 24.8174C28.1035 24.2818 28.0567 23.8815 27.8747 23.6163C27.6927 23.3511 27.3963 23.2211 26.996 23.2211C26.5956 23.2211 26.2472 23.3563 25.9613 23.6215C25.6753 23.8919 25.4881 24.287 25.3945 24.8122L25.3841 24.8694H27.9995L28.0099 24.8174Z" fill="black"/>
<path d="M44.43 26.0965C44.3312 26.6684 44.1596 27.1884 43.9205 27.6459C43.6813 28.1035 43.3849 28.4935 43.0261 28.8158C42.6674 29.1382 42.2514 29.3878 41.7731 29.5646C41.2947 29.7414 40.7643 29.8297 40.182 29.8297C39.5996 29.8297 39.0953 29.7414 38.6793 29.5646C38.2634 29.3878 37.9306 29.1382 37.681 28.8158C37.4314 28.4935 37.265 28.1035 37.1871 27.6459C37.1091 27.1884 37.1195 26.6684 37.2182 26.0965L37.395 25.093C37.4938 24.521 37.6654 24.0011 37.9046 23.5435C38.1438 23.086 38.4453 22.696 38.8093 22.3736C39.1733 22.0512 39.5944 21.8069 40.0676 21.6249C40.546 21.4481 41.0763 21.3597 41.6587 21.3597C42.2462 21.3597 42.7454 21.4481 43.1613 21.6249C43.5773 21.8017 43.9049 22.0512 44.1544 22.3736C44.3988 22.696 44.56 23.086 44.638 23.5435C44.716 24.0011 44.7056 24.521 44.6068 25.093L44.43 26.0965ZM42.2826 25.093C42.4854 23.9231 42.163 23.3407 41.3207 23.3407C40.8995 23.3407 40.5564 23.4863 40.286 23.7775C40.0156 24.0687 39.8284 24.5054 39.7296 25.093L39.5528 26.0965C39.4489 26.6788 39.4853 27.1208 39.6516 27.4172C39.818 27.7135 40.1092 27.8643 40.5304 27.8643C41.3779 27.8643 41.903 27.2768 42.111 26.0965L42.2826 25.093Z" fill="black"/>
<path d="M52.9364 22.6648C52.9208 22.7688 52.8844 22.8416 52.8324 22.878C52.7804 22.9144 52.7128 22.9508 52.6193 22.9768L52.1513 23.1223C52.2137 23.2575 52.2605 23.4239 52.2865 23.6267C52.3125 23.8295 52.3125 24.0167 52.2813 24.1883L52.2605 24.3026C52.0941 25.2386 51.6677 25.9249 50.9762 26.3513C50.2847 26.7776 49.3748 26.9908 48.2465 26.9908C47.9137 26.9908 47.6173 26.97 47.3678 26.9232C47.1182 26.8816 46.9258 26.8296 46.7906 26.7724C46.7074 26.8192 46.645 26.8712 46.6086 26.9232C46.5722 26.9752 46.5462 27.0376 46.5358 27.1052C46.5151 27.2196 46.5306 27.308 46.5774 27.3652C46.6242 27.4224 46.7334 27.4692 46.8946 27.5108L48.4545 27.8695C49.0524 28.0047 49.5568 28.1347 49.9675 28.2647C50.3731 28.3947 50.6954 28.5403 50.9294 28.7118C51.1634 28.8782 51.3194 29.081 51.3922 29.315C51.465 29.549 51.4754 29.8401 51.413 30.1833L51.3922 30.2977C51.1218 31.8576 49.7283 32.6375 47.2222 32.6375C46.0263 32.6375 45.1528 32.4347 44.6068 32.0343C44.0609 31.634 43.8529 31.0516 43.9829 30.2977L44.0037 30.1833C44.0557 29.8869 44.1701 29.6062 44.3521 29.3358C44.534 29.0654 44.7992 28.8158 45.1476 28.5767C44.9136 28.4311 44.7628 28.2335 44.69 27.9787C44.6172 27.7239 44.6068 27.4796 44.6484 27.2404C44.6952 26.97 44.794 26.736 44.95 26.5384C45.106 26.3357 45.288 26.1641 45.4908 26.0237C45.2984 25.8209 45.1736 25.5609 45.1268 25.2334C45.08 24.9058 45.08 24.599 45.1268 24.313L45.1476 24.1987C45.288 23.3875 45.6883 22.7272 46.3435 22.2332C46.9986 21.7341 47.9553 21.4845 49.2084 21.4845H52.7856C52.8896 21.4845 52.9728 21.5209 53.0248 21.5937C53.0768 21.6665 53.0976 21.7549 53.0768 21.8589L52.9364 22.6648ZM49.042 30.1729C49.0524 30.1053 49.0472 30.0429 49.0264 29.9805C49.0056 29.9181 48.9432 29.8557 48.8496 29.7985C48.756 29.7414 48.6156 29.6842 48.4337 29.627C48.2517 29.5698 48.0073 29.5022 47.6953 29.4242L46.671 29.1954C46.5618 29.3202 46.4683 29.4502 46.3955 29.5906C46.3175 29.731 46.2603 29.9233 46.2135 30.1729L46.1927 30.2873C46.1511 30.5369 46.2187 30.7189 46.3955 30.8385C46.5774 30.958 46.9414 31.0152 47.4978 31.0152C47.7941 31.0152 48.0385 30.9996 48.2257 30.9632C48.4129 30.932 48.5636 30.88 48.678 30.8125C48.7924 30.7449 48.8704 30.6669 48.9224 30.5733C48.9692 30.4797 49.0056 30.3861 49.0264 30.2769L49.042 30.1729ZM50.0143 24.1883C50.0663 23.8919 50.0247 23.6475 49.8843 23.4499C49.7439 23.2523 49.4216 23.1535 48.9172 23.1535C48.4077 23.1535 48.0489 23.2523 47.8305 23.4499C47.6121 23.6475 47.4822 23.8919 47.4302 24.1883L47.4094 24.3026C47.3886 24.4274 47.3834 24.547 47.3938 24.6666C47.4042 24.7862 47.451 24.8954 47.5289 24.989C47.6069 25.0826 47.7265 25.1606 47.8825 25.2178C48.0385 25.275 48.2569 25.301 48.5325 25.301C49.042 25.301 49.3956 25.2126 49.5983 25.0306C49.8011 24.8486 49.9311 24.6042 49.9831 24.2974L50.0143 24.1883Z" fill="black"/>
<path d="M59.5398 25.9665C59.4982 26.1953 59.3786 26.3097 59.1758 26.3097H54.5951L54.5899 26.3357C54.5535 26.5332 54.5431 26.7308 54.5587 26.918C54.5743 27.1052 54.6263 27.2716 54.7146 27.4172C54.803 27.5575 54.933 27.6719 55.1098 27.7603C55.2814 27.8435 55.5102 27.8903 55.7961 27.8903C56.0249 27.8903 56.2693 27.8851 56.5293 27.8747C56.7892 27.8643 57.0492 27.8539 57.304 27.8435C57.5588 27.8331 57.7979 27.8227 58.0215 27.8071C58.2451 27.7915 58.4271 27.7759 58.5779 27.7551H58.6195C58.8015 27.7551 58.8794 27.8331 58.8534 27.9839L58.6611 29.0862C58.6403 29.2006 58.6039 29.289 58.5571 29.3462C58.5103 29.4034 58.4219 29.4502 58.2919 29.4762C57.8135 29.5906 57.3456 29.679 56.8984 29.7361C56.4461 29.7933 55.9105 29.8245 55.2918 29.8245C54.8602 29.8245 54.4391 29.7621 54.0335 29.6374C53.6227 29.5126 53.2744 29.3098 52.978 29.0186C52.6816 28.7326 52.4737 28.3531 52.3437 27.8747C52.2137 27.4016 52.2137 26.8192 52.3333 26.1277L52.5101 25.1242C52.6088 24.5522 52.7856 24.0271 53.03 23.5591C53.2744 23.0911 53.5812 22.6908 53.9503 22.3684C54.3195 22.0408 54.7406 21.7913 55.2242 21.6145C55.7025 21.4377 56.2329 21.3493 56.8048 21.3493C57.3872 21.3493 57.8863 21.4429 58.2971 21.6353C58.7079 21.8277 59.0354 22.0876 59.2694 22.4256C59.5086 22.7584 59.6594 23.1587 59.727 23.6163C59.7946 24.0739 59.779 24.5782 59.6854 25.1242L59.5398 25.9665ZM57.4704 24.8174C57.564 24.2818 57.5172 23.8815 57.3352 23.6163C57.1532 23.3511 56.8568 23.2211 56.4565 23.2211C56.0561 23.2211 55.7129 23.3563 55.4218 23.6215C55.1358 23.8919 54.9486 24.287 54.855 24.8122L54.8446 24.8694H57.46L57.4704 24.8174Z" fill="black"/>
<path d="M64.9526 23.2107C64.9058 23.2679 64.8486 23.2991 64.781 23.2991H64.6666C64.313 23.2991 63.975 23.3459 63.6527 23.4447C63.3303 23.5383 63.0235 23.6579 62.7272 23.8035L61.7496 29.4034C61.734 29.4814 61.6976 29.549 61.6248 29.6114C61.5572 29.6738 61.4845 29.705 61.4065 29.705H59.6698C59.5918 29.705 59.5294 29.6738 59.4774 29.6114C59.4254 29.549 59.4046 29.4814 59.4202 29.4034L60.7565 21.7653C60.7721 21.6873 60.8085 21.6197 60.8761 21.5625C60.9437 21.5053 61.0165 21.4741 61.0945 21.4741H62.8051C62.8831 21.4741 62.9455 21.5053 62.9923 21.5625C63.0391 21.6197 63.0547 21.6873 63.0443 21.7653L62.9923 22.0564C63.2991 21.8329 63.6319 21.6613 63.9959 21.5417C64.3546 21.4221 64.7082 21.3597 65.0566 21.3597C65.1346 21.3597 65.197 21.3909 65.2437 21.4481C65.2905 21.5053 65.3061 21.5729 65.2957 21.6509L65.0566 23.0236C65.0306 23.0912 64.9994 23.1535 64.9526 23.2107Z" fill="black"/>
<path d="M36.3083 29.6373C36.1887 29.6685 36.0379 29.6893 35.8456 29.7153C35.6116 29.7465 35.3412 29.7777 35.0708 29.7985C34.8524 29.8141 34.5197 29.8245 34.3325 29.8245C33.8749 29.8245 33.4382 29.7881 33.0222 29.7101C32.6115 29.6321 32.2631 29.4866 31.9823 29.263C31.7015 29.0446 31.4988 28.7274 31.3792 28.3219C31.2596 27.9163 31.2596 27.3859 31.374 26.736L32.6946 19.3111C32.7102 19.2331 32.7466 19.1655 32.8142 19.1083C32.8818 19.0511 32.9546 19.0199 33.0326 19.0199H34.9148C34.9928 19.0199 35.0552 19.0511 35.102 19.1083C35.1488 19.1655 35.1644 19.2331 35.154 19.3111L33.8333 26.736C33.7657 27.1104 33.7917 27.3651 33.9061 27.5055C34.0205 27.6459 34.2441 27.7135 34.5821 27.7135H36.6567C36.7347 27.7135 36.7971 27.7395 36.8439 27.7967C36.8907 27.8539 36.9063 27.9215 36.8959 27.9995L36.6567 29.3358C36.6203 29.5022 36.5059 29.6009 36.3083 29.6373Z" fill="black"/>
<path d="M23.0391 20.2262C22.6284 20.1118 22.1916 20.0182 21.7445 19.9454C21.2973 19.8726 20.7305 19.8362 20.0598 19.8362C18.9003 19.8362 17.9904 20.0598 17.356 20.4966C16.7321 20.9281 16.3421 21.5677 16.1913 22.3996C16.0978 22.9299 16.1394 23.4083 16.3213 23.8087C16.5033 24.2142 16.7997 24.547 17.2105 24.807L19.2383 26.112C19.4775 26.2628 19.6334 26.4032 19.7218 26.5332C19.8206 26.6788 19.8518 26.84 19.8206 27.0064C19.7738 27.2819 19.6542 27.4847 19.4671 27.6199C19.2851 27.7499 18.9731 27.8175 18.5155 27.8175C18.3752 27.8175 18.1828 27.8123 17.9436 27.8019C17.7044 27.7915 17.4496 27.7707 17.1741 27.7499C16.9037 27.7291 16.6229 27.7031 16.3421 27.6719C16.0718 27.6459 15.817 27.6095 15.5882 27.5783H15.531C15.4686 27.5783 15.4218 27.5939 15.3802 27.6303C15.3386 27.6719 15.3126 27.7135 15.3022 27.7759L15.0526 29.185C15.0318 29.3098 15.0682 29.367 15.193 29.3982C15.3958 29.4553 15.6246 29.5073 15.8794 29.5489C16.129 29.5957 16.3993 29.6321 16.6749 29.6685C16.9453 29.7049 17.2209 29.7309 17.4808 29.7465C17.746 29.7621 18.0008 29.7725 18.2348 29.7725C18.8483 29.7725 19.4047 29.6997 19.8726 29.5541C20.3406 29.4086 20.7513 29.211 21.0893 28.9614C21.4221 28.717 21.6925 28.4206 21.8952 28.0775C22.098 27.7395 22.2384 27.3703 22.306 26.9856C22.3424 26.7672 22.3632 26.5436 22.358 26.32C22.3528 26.112 22.306 25.8989 22.2228 25.6909C22.1344 25.4829 22.0044 25.2749 21.8276 25.0773C21.6509 24.8746 21.4065 24.6718 21.0945 24.4742L19.1551 23.2367C18.9887 23.1223 18.8639 23.0235 18.7755 22.9247C18.6663 22.7999 18.6247 22.644 18.6559 22.4672C18.7131 22.1552 18.8899 22.0148 19.0251 21.9472C19.1967 21.8692 19.4619 21.8276 19.8258 21.8276C20.0494 21.8276 20.3042 21.838 20.585 21.8536C20.8605 21.8692 21.1413 21.89 21.4117 21.916C21.6821 21.9368 21.9316 21.968 22.1604 21.994C22.3788 22.02 22.5556 22.0408 22.6752 22.0512H22.722C22.8052 22.0512 22.8832 22.0356 22.9196 21.8536L23.1691 20.4446C23.2055 20.3146 23.1691 20.2626 23.0391 20.2262Z" fill="black"/>
<path d="M49.354 36.7139L48.86 39.7609C48.834 39.8545 48.7508 39.9377 48.6521 39.9377L48.2361 39.9429C48.1425 39.9429 48.0957 39.9013 48.0957 39.8077V39.7713L48.5897 36.7243C48.6157 36.5839 48.6209 36.4643 48.6209 36.3603C48.6157 35.8976 48.3869 35.7624 47.9241 35.7676C47.6537 35.7728 47.2534 35.83 46.8634 36.0328C46.8894 36.0952 46.8842 36.1732 46.8842 36.2668C46.8842 36.4331 46.879 36.6255 46.853 36.7295L46.3591 39.7921C46.3331 39.8857 46.2655 39.9689 46.1719 39.9689L45.7091 39.9741C45.6155 39.9741 45.5947 39.9065 45.5947 39.8337V39.7973L46.0887 36.7347C46.1199 36.5319 46.1459 36.4019 46.1459 36.2616C46.1407 35.8872 45.9223 35.7832 45.6155 35.7884C45.2048 35.7936 44.6952 36.0172 44.4612 36.1316L43.8581 39.8129C43.8321 39.9065 43.7645 39.9896 43.6709 39.9896L43.2082 39.9949C43.1302 39.9949 43.0938 39.9533 43.0938 39.8649V39.8233L43.8165 35.3724C43.8425 35.2788 43.9205 35.1956 44.0141 35.1956L44.4301 35.1904C44.5184 35.1904 44.56 35.232 44.56 35.3308V35.3672L44.534 35.5336C44.976 35.258 45.3556 35.1228 45.8027 35.1176C46.1771 35.1124 46.5099 35.2684 46.6762 35.4972C47.2326 35.1852 47.6121 35.0916 48.1009 35.0864C48.9796 35.076 49.38 35.6376 49.3852 36.3343C49.3956 36.4695 49.38 36.5735 49.354 36.7139Z" fill="black"/>
<path d="M54.1584 37.161L54.0908 37.5302C54.0648 37.6446 54.0336 37.7226 53.9036 37.7226L50.9866 37.759L50.9606 37.863C50.9034 38.0658 50.893 38.2321 50.8982 38.3933C50.9086 39.0537 51.3298 39.3188 51.9953 39.3136C52.5101 39.3084 53.0925 39.2409 53.5032 39.1733H53.5188H53.5552C53.6332 39.1733 53.6696 39.1993 53.6696 39.2617V39.2876V39.298L53.6228 39.5944C53.5968 39.7244 53.5656 39.7712 53.4148 39.7972C52.8949 39.9012 52.4841 39.9584 51.8914 39.9636C51.0282 39.974 50.1703 39.5476 50.1547 38.3725C50.1547 38.2061 50.1703 38.0242 50.2015 37.8318L50.3055 37.2182C50.5603 35.8196 51.3402 35.0552 52.5881 35.0396C53.6696 35.0292 54.1896 35.7364 54.2 36.6411C54.2052 36.8023 54.1896 36.9791 54.1584 37.161ZM52.4841 35.7104C51.7198 35.7208 51.2258 36.3239 51.0802 37.1298L51.0698 37.1714L53.3784 37.1454L53.3888 37.1038C53.42 36.9271 53.4356 36.7711 53.4356 36.6255C53.4304 36.0015 53.1133 35.7052 52.4841 35.7104Z" fill="black"/>
<path d="M59.3163 33.4278L58.318 39.5372C58.292 39.6516 58.266 39.714 58.1048 39.74C57.5484 39.8492 57.0077 39.9012 56.4773 39.9064C55.4218 39.9168 54.8915 39.2721 54.8811 38.3205C54.8811 38.1438 54.8967 37.9618 54.9279 37.7694L55.0319 37.1402C55.2866 35.6376 56.0146 34.9928 57.2781 34.9772C57.5484 34.972 57.9592 34.9928 58.2816 35.05L58.5519 33.4278C58.5779 33.3342 58.6559 33.2614 58.7495 33.2614L59.1915 33.2562C59.2695 33.2562 59.3163 33.2978 59.3163 33.3862V33.4122V33.4278ZM58.1724 35.7052C57.8916 35.648 57.4496 35.6532 57.1689 35.6584C56.3057 35.6688 55.947 36.2927 55.791 37.1402L55.687 37.7694C55.6558 37.9774 55.6298 38.1698 55.635 38.3361C55.6402 38.9289 55.9054 39.2461 56.5761 39.2409C56.8829 39.2357 57.2989 39.2045 57.6056 39.1785L58.1724 35.7052Z" fill="black"/>
<path d="M61.0685 35.1748L60.3458 39.6256C60.3198 39.7192 60.2366 39.8024 60.1378 39.8024L59.7218 39.8076C59.6282 39.8076 59.5815 39.766 59.5815 39.6724V39.636L60.3042 35.1852C60.3302 35.0916 60.4134 35.0084 60.5122 35.0084L60.9281 35.0032C61.0217 35.0032 61.0685 35.0448 61.0685 35.1384V35.1748ZM61.3857 33.355L61.2713 34.0517C61.2453 34.1453 61.1621 34.2285 61.0633 34.2285L60.6214 34.2337C60.5278 34.2337 60.481 34.1921 60.481 34.0985V34.0621L60.5954 33.3654C60.6214 33.2718 60.7045 33.1886 60.8033 33.1886L61.2453 33.1834C61.3389 33.1834 61.3857 33.225 61.3857 33.3186V33.355Z" fill="black"/>
<path d="M65.7481 35.284L65.0514 39.5684C65.0254 39.662 64.9474 39.7452 64.8538 39.7452L64.5054 39.7504C64.4014 39.7504 64.3754 39.6932 64.3754 39.61V39.5736V39.558L64.417 39.2877C63.9179 39.662 63.5955 39.818 63.0235 39.8284C62.2852 39.8388 61.6613 39.3761 61.6457 38.305C61.6457 38.1386 61.6613 37.967 61.6925 37.7798L61.838 36.9167C62.098 35.414 63.0235 34.9148 64.079 34.9045C64.6042 34.8993 65.1605 34.9772 65.6077 35.0864C65.7117 35.1124 65.7637 35.154 65.7637 35.2164C65.7585 35.2372 65.7585 35.2684 65.7481 35.284ZM64.9266 35.622C64.6926 35.5804 64.4534 35.5388 64.079 35.544C63.1743 35.5544 62.7324 36.0484 62.5816 36.9791L62.436 37.8786C62.41 38.0086 62.4048 38.149 62.4048 38.279C62.4152 38.9497 62.7532 39.1785 63.1743 39.1733C63.5851 39.1681 63.9491 38.9809 64.4326 38.6533L64.9266 35.622Z" fill="black"/>
</g>
<defs>
<linearGradient id="paint0_linear" x1="0.786133" y1="30.0059" x2="0.786133" y2="7.64782" gradientUnits="userSpaceOnUse">
<stop offset="0.0926783" stop-color="#A61B34"/>
<stop offset="0.1656" stop-color="#B1192A"/>
<stop offset="0.2978" stop-color="#BC171F"/>
<stop offset="0.4837" stop-color="#C31619"/>
<stop offset="1" stop-color="#C51617"/>
</linearGradient>
<linearGradient id="paint1_linear" x1="10.2196" y1="9.55085" x2="10.2196" y2="0" gradientUnits="userSpaceOnUse">
<stop stop-color="#E63635"/>
<stop offset="0.1957" stop-color="#E13231"/>
<stop offset="0.4229" stop-color="#D32827"/>
<stop offset="0.6465" stop-color="#BE1818"/>
</linearGradient>
<linearGradient id="paint2_linear" x1="0" y1="29.1978" x2="10.9876" y2="29.1978" gradientUnits="userSpaceOnUse">
<stop offset="0.1469" stop-color="#A61B34"/>
<stop offset="0.6098" stop-color="#64247E"/>
</linearGradient>
<linearGradient id="paint3_linear" x1="0.534772" y1="8.41156" x2="11.4748" y2="0.751286" gradientUnits="userSpaceOnUse">
<stop stop-color="#C61617"/>
<stop offset="0.8225" stop-color="#BE1818"/>
</linearGradient>
<linearGradient id="paint4_linear" x1="16.1342" y1="6.63584" x2="22.5967" y2="12.2537" gradientUnits="userSpaceOnUse">
<stop stop-color="#00749C"/>
<stop offset="0.279" stop-color="#0580AF"/>
<stop offset="0.9189" stop-color="#119AD7"/>
</linearGradient>
<linearGradient id="paint5_linear" x1="22.3974" y1="16.4704" x2="22.3974" y2="11.7768" gradientUnits="userSpaceOnUse">
<stop stop-color="#0086CD"/>
<stop offset="0.9041" stop-color="#119AD7"/>
</linearGradient>
<linearGradient id="paint6_linear" x1="9.78716" y1="12.0358" x2="17.0226" y2="6.96947" gradientUnits="userSpaceOnUse">
<stop stop-color="#00749C"/>
<stop offset="0.6202" stop-color="#0077A1"/>
<stop offset="1" stop-color="#007BA7"/>
</linearGradient>
<linearGradient id="paint7_linear" x1="10.2276" y1="30.006" x2="10.2276" y2="11.5306" gradientUnits="userSpaceOnUse">
<stop stop-color="#66247A"/>
<stop offset="0.5644" stop-color="#2C548F"/>
<stop offset="1" stop-color="#04759D"/>
</linearGradient>
<clipPath id="clip0">
<rect width="65.7533" height="40" fill="white"/>
</clipPath>
</defs>
</svg>
