<svg width="180" height="40" viewBox="0 0 180 40" fill="none" xmlns="http://www.w3.org/2000/svg">
<g clip-path="url(#clip0)">
<path d="M70.9934 6.09271C70.5392 5.48722 69.9338 4.99526 69.2526 4.69252C68.42 4.31409 67.5118 4.16272 66.6036 4.16272C65.6575 4.16272 64.6736 4.31409 63.7654 4.65468C62.9328 4.95742 62.176 5.41154 61.4948 5.97918C60.8136 6.58467 60.2838 7.30368 59.8675 8.09839C59.4134 8.96877 59.1107 9.91485 58.9593 10.8988L58.6566 12.6774C58.4295 13.6991 58.4295 14.7587 58.6566 15.7805C58.8458 16.5374 59.2242 17.2564 59.7918 17.824C60.3216 18.3538 60.965 18.7323 61.684 18.9593C62.403 19.1864 63.1977 19.2999 63.9546 19.2999C64.9006 19.2999 65.8846 19.2621 66.8306 19.1485C67.6632 19.035 68.4957 18.8836 69.3283 18.6944C69.5175 18.6566 69.6689 18.5809 69.8202 18.4674C69.9338 18.316 69.9716 18.1646 70.0094 18.0132L70.35 16.0454C70.35 15.7805 70.2743 15.6291 69.9338 15.6291L68.9498 15.7048L67.6632 15.7805H66.3008H64.9763C64.5601 15.7805 64.1438 15.7048 63.7654 15.5534C63.4626 15.4021 63.2356 15.2129 63.0463 14.948C62.895 14.6831 62.7814 14.3803 62.7436 14.0776C62.7058 13.737 62.7058 13.3964 62.7436 13.018H70.9177C71.2583 13.018 71.4853 12.8288 71.561 12.4125L71.8259 10.9366C71.9773 10.0662 72.0151 9.12015 71.9016 8.24976C71.7124 7.45506 71.4096 6.73604 70.9934 6.09271ZM67.7767 10.369V10.4825H63.122V10.369C63.2356 9.57426 63.5761 8.8174 64.1816 8.24976C64.6736 7.79564 65.3548 7.53074 66.0359 7.53074C66.6414 7.4929 67.2469 7.7578 67.5875 8.24976C67.9659 8.89309 68.0416 9.64995 67.8524 10.369H67.7767Z" fill="#166886"/>
<path d="M97.4456 10.8231C97.6348 9.91485 97.6348 8.96877 97.5213 8.06054C97.4077 7.30368 97.105 6.58467 96.6509 5.97918C96.1968 5.37369 95.5534 4.91958 94.8723 4.65468C94.0019 4.31409 93.0936 4.16272 92.1854 4.16272C91.2015 4.16272 90.2554 4.31409 89.3472 4.65468C87.6821 5.26017 86.2819 6.47114 85.4872 8.06054C85.0331 8.93093 84.7304 9.87701 84.579 10.8231L84.2762 12.6017C84.087 13.5099 84.087 14.456 84.2006 15.3642C84.3141 16.1211 84.6168 16.8401 85.0709 17.4456C85.5629 18.0511 86.2062 18.5052 86.9252 18.8079C87.7956 19.1485 88.7039 19.2999 89.6121 19.2999C90.596 19.2999 91.5421 19.1485 92.4503 18.8079C93.2829 18.5052 94.0397 18.0511 94.7209 17.4834C95.3642 16.878 95.9319 16.1968 96.3103 15.4021C96.7644 14.5317 97.0671 13.5856 97.2185 12.6395L97.4456 10.8231ZM93.2829 10.8231L92.9801 12.6017C92.6017 14.6831 91.6556 15.7427 90.1797 15.7427C89.5364 15.8183 88.9309 15.4778 88.6282 14.948C88.3254 14.1911 88.2497 13.3586 88.439 12.6017L88.7417 10.8231C88.8552 9.95269 89.1958 9.15799 89.7256 8.47682C90.1797 7.94701 90.8609 7.68211 91.5799 7.68211C93.0936 7.68211 93.6613 8.70387 93.2829 10.8231Z" fill="#166886"/>
<path d="M108.723 17.2942C108.193 16.9536 107.625 16.6887 107.02 16.4995C106.263 16.2725 105.355 16.0454 104.333 15.7805L101.533 15.1372C101.306 15.0993 101.116 15.0236 100.965 14.8723C100.889 14.7209 100.851 14.5695 100.889 14.4182C100.927 14.3046 100.965 14.1911 101.041 14.1154C101.116 14.0019 101.23 13.9262 101.381 13.8505C101.722 13.964 102.062 14.0776 102.403 14.1154C102.933 14.1911 103.463 14.2289 103.955 14.2289C105.658 14.3046 107.323 13.9262 108.836 13.0937C110.085 12.2611 110.918 10.9366 111.107 9.46073V9.27152C111.145 8.93093 111.145 8.59035 111.107 8.2876C111.069 7.98486 110.993 7.68212 110.88 7.37937L111.712 7.11447C111.864 7.07663 111.977 7.00094 112.091 6.92526C112.204 6.81173 112.28 6.6982 112.28 6.54683L112.545 5.07095C112.583 4.91958 112.545 4.73037 112.469 4.57899C112.356 4.42762 112.204 4.38978 112.053 4.38978H105.695C103.879 4.27625 102.1 4.73037 100.587 5.71428C99.4513 6.54683 98.6566 7.83349 98.4674 9.23368V9.42289C98.3917 9.95269 98.3917 10.5203 98.4674 11.0501C98.5431 11.5799 98.7701 12.0719 99.1107 12.4503C98.7323 12.7152 98.4295 13.018 98.1268 13.3586C97.8619 13.737 97.6727 14.1533 97.597 14.6074C97.5213 15.0615 97.5591 15.5156 97.6727 15.9319C97.7862 16.386 98.0889 16.7644 98.5052 16.9915C97.9376 17.3699 97.4834 17.824 97.0672 18.3538C96.7644 18.8079 96.5374 19.3377 96.4238 19.8675V20.0568C96.1211 21.2299 96.5752 22.4409 97.5591 23.1599C98.9593 23.9924 100.587 24.3709 102.214 24.2573C106.679 24.2573 109.177 22.8571 109.669 20.0946V19.9054C109.782 19.4134 109.782 18.8836 109.669 18.3538C109.442 17.9376 109.139 17.5213 108.723 17.2942ZM102.441 9.42289V9.23368C102.517 8.74172 102.781 8.24976 103.16 7.90917C103.728 7.4929 104.409 7.30369 105.09 7.37937C105.998 7.37937 106.566 7.56859 106.831 7.90917C107.096 8.2876 107.171 8.77956 107.058 9.23368V9.42289C106.982 9.91485 106.755 10.369 106.377 10.7474C105.809 11.1258 105.128 11.315 104.484 11.2394C104.106 11.2394 103.728 11.2015 103.349 11.088C103.122 11.0123 102.895 10.8609 102.706 10.6717C102.554 10.5203 102.479 10.2933 102.479 10.1041C102.403 9.87701 102.403 9.64995 102.441 9.42289ZM105.317 20.1324C105.279 20.3217 105.241 20.473 105.128 20.6622C105.014 20.8515 104.863 21.0028 104.711 21.0785C104.484 21.192 104.219 21.2677 103.955 21.3056C103.538 21.3813 103.084 21.4191 102.668 21.3813C101.987 21.4569 101.306 21.3434 100.7 21.0785C100.36 20.8515 100.246 20.473 100.322 20.0946V19.9054C100.36 19.5648 100.473 19.1864 100.624 18.8836C100.776 18.6187 100.927 18.3917 101.116 18.1646L102.933 18.5809C103.5 18.7323 103.917 18.8458 104.257 18.9593C104.522 19.035 104.749 19.1485 105.014 19.2621C105.166 19.3377 105.279 19.4513 105.317 19.5648C105.355 19.6783 105.355 19.7919 105.317 19.9054V20.1324Z" fill="#166886"/>
<path d="M115.307 13.018H123.482C123.822 13.018 124.049 12.8288 124.125 12.4125L124.39 10.9366C124.541 10.0284 124.541 9.12014 124.39 8.24976C124.276 7.4929 124.011 6.77388 123.557 6.13055C123.103 5.52507 122.498 5.03311 121.816 4.73036C120.984 4.35193 120.076 4.20056 119.13 4.20056C118.184 4.20056 117.2 4.35193 116.329 4.69252C115.497 4.99526 114.74 5.44938 114.059 6.01702C113.377 6.62251 112.848 7.34153 112.431 8.13623C111.977 9.00662 111.675 9.95269 111.523 10.9366L111.22 12.7152C110.993 13.737 110.993 14.7966 111.22 15.8183C111.41 16.5752 111.788 17.2942 112.356 17.8619C112.885 18.3917 113.529 18.7701 114.248 18.9972C114.967 19.2242 115.762 19.3377 116.518 19.3377C117.464 19.3377 118.448 19.2999 119.394 19.1864C120.227 19.0728 121.06 18.9215 121.892 18.7323C122.081 18.6944 122.233 18.6187 122.384 18.5052C122.498 18.3538 122.535 18.2025 122.573 18.0511L122.914 16.0832C122.914 15.8183 122.838 15.667 122.498 15.667H122.422L121.438 15.7427L120.151 15.8183H118.789H117.464C117.048 15.8183 116.632 15.7427 116.254 15.5913C115.951 15.4399 115.724 15.2507 115.534 14.9858C115.383 14.7209 115.27 14.4182 115.232 14.1154C115.194 13.7748 115.194 13.4342 115.232 13.0558L115.307 13.018ZM115.762 10.369C115.875 9.57426 116.216 8.8174 116.783 8.24976C117.275 7.79564 117.956 7.53074 118.638 7.53074C119.243 7.4929 119.849 7.7578 120.189 8.24976C120.53 8.89309 120.643 9.68779 120.416 10.369V10.4825H115.762V10.369Z" fill="#166886"/>
<path d="M133.926 4.20056C133.283 4.20056 132.64 4.31409 132.034 4.5033C131.391 4.73036 130.785 5.03311 130.255 5.41153L130.331 4.88173C130.369 4.7682 130.331 4.61683 130.255 4.5033C130.18 4.38977 130.066 4.35193 129.915 4.35193H126.887C126.736 4.35193 126.622 4.42762 126.509 4.5033C126.395 4.57899 126.32 4.73036 126.282 4.88173L123.898 18.5052C123.86 18.6566 123.898 18.7701 124.011 18.8836C124.087 18.9972 124.201 19.035 124.352 19.0728H127.455C127.606 19.0728 127.758 18.9972 127.833 18.8836C127.947 18.7701 128.023 18.6566 128.061 18.5052L129.801 8.51466C130.331 8.24976 130.899 8.06054 131.466 7.87133C132.072 7.68211 132.677 7.60643 133.283 7.60643H133.51C133.623 7.60643 133.737 7.53074 133.813 7.45505C133.888 7.34153 133.964 7.228 133.964 7.11447L134.38 4.65468C134.418 4.54115 134.38 4.38978 134.305 4.27625C134.191 4.2384 134.04 4.16272 133.926 4.20056Z" fill="#166886"/>
<path d="M83.2545 15.5156H79.5459C79.0918 15.5535 78.6755 15.4399 78.3349 15.1372C78.1079 14.7209 78.07 14.229 78.2214 13.7748L80.5677 0.529801C80.6055 0.416272 80.5677 0.264901 80.492 0.151372C80.4163 0.037843 80.3028 0 80.1514 0H76.7455C76.5941 0 76.4806 0.0756859 76.3671 0.151372C76.2536 0.227058 76.1779 0.37843 76.14 0.529801L73.7938 13.7748C73.5667 14.7209 73.5667 15.667 73.7938 16.6131C73.9451 17.2564 74.3236 17.8619 74.8534 18.2781C75.3832 18.6944 76.0265 18.9593 76.7077 19.0728C77.4645 19.2242 78.2592 19.2621 79.0539 19.2621C79.3945 19.2621 80 19.2621 80.3784 19.2621C80.7569 19.2621 81.3245 19.1864 81.7408 19.1107C82.1571 19.035 82.3463 19.035 82.5733 18.9593C82.8761 18.9215 83.141 18.7323 83.1788 18.4295L83.5951 16.0454C83.6329 15.9319 83.5951 15.7805 83.5194 15.667C83.4437 15.6291 83.368 15.5535 83.2545 15.5156Z" fill="#166886"/>
<path d="M58.7701 5.07096L59.2242 2.57332C59.2242 2.34626 59.2242 2.27058 58.9593 2.19489C58.2025 2.00568 57.4456 1.81646 56.6887 1.70293C55.7048 1.55156 54.6831 1.51372 53.6991 1.51372C52.0341 1.40019 50.3311 1.81646 48.8931 2.64901C47.7578 3.44371 47.0009 4.69253 46.8117 6.05487C46.6225 6.88742 46.6982 7.75781 47.0388 8.55251C47.3794 9.30937 47.9092 9.91485 48.6282 10.3311L52.2233 12.6017C52.5639 12.7909 52.8666 13.0558 53.0937 13.3586C53.245 13.5856 53.3207 13.8884 53.2829 14.1911C53.245 14.6452 53.018 15.0615 52.6395 15.3264C52.1097 15.5913 51.5421 15.7427 50.9366 15.667H49.9527L48.5147 15.6291L47.0388 15.4778L45.7143 15.2886H45.6008C45.4872 15.2886 45.4115 15.3264 45.3359 15.3642C45.2602 15.4399 45.2223 15.5156 45.1845 15.6291L44.7304 18.1268C44.7304 18.3538 44.7304 18.4295 44.9953 18.5052C45.2602 18.5809 45.7521 18.6944 46.2062 18.7701C46.6604 18.8458 47.1145 18.9215 47.6443 18.9972C48.1362 19.0728 48.6282 19.1107 49.0823 19.1485C49.5743 19.1864 49.9905 19.1485 50.4447 19.1485C51.4286 19.1485 52.4125 19.035 53.3586 18.7701C54.1533 18.543 54.8723 18.2025 55.5156 17.7105C56.0832 17.2942 56.5752 16.7644 56.9536 16.1211C57.2942 15.5156 57.5591 14.8723 57.6727 14.1533C57.7483 13.7748 57.7862 13.3964 57.7483 13.018C57.7483 12.6395 57.6727 12.2233 57.5213 11.8827C57.3699 11.4664 57.105 11.088 56.8023 10.7474C56.4238 10.2933 55.9697 9.91485 55.4778 9.61211L52.0719 7.41722C51.807 7.26585 51.5799 7.07663 51.3907 6.84957C51.2015 6.62252 51.1258 6.31977 51.1637 6.01703C51.2015 5.60076 51.4664 5.26017 51.807 5.1088C52.2611 4.95743 52.7531 4.88174 53.245 4.88174C53.6613 4.88174 54.1154 4.88174 54.6074 4.88174L56.0832 4.99527L57.4078 5.14664L58.316 5.26017H58.3917C58.5809 5.3737 58.7323 5.3737 58.7701 5.07096Z" fill="#166886"/>
<path d="M45.6007 39.281C45.5629 39.3945 45.5251 39.4702 45.4494 39.5459C45.3737 39.6216 45.2602 39.6594 45.1466 39.6594H44.2384C44.1249 39.6594 44.0492 39.6216 43.9735 39.5459C43.8978 39.4702 43.8978 39.3567 43.8978 39.281L43.9735 38.8269C43.4437 39.0918 42.9139 39.3188 42.3841 39.5081C41.8543 39.6973 41.2867 39.773 40.7569 39.773C40.3406 39.773 39.9243 39.7351 39.5459 39.6216C39.1675 39.5081 38.8647 39.3567 38.5998 39.0918C38.3349 38.8269 38.1835 38.5241 38.07 38.1079C37.9565 37.6916 37.9565 37.1996 38.07 36.5563L38.1079 36.3292C38.1835 35.7994 38.3728 35.3453 38.5998 34.9291C38.8269 34.5128 39.1675 34.1722 39.5837 33.9073C40 33.6424 40.5298 33.4532 41.1731 33.3018C41.8165 33.1883 42.5733 33.1126 43.4437 33.1126H44.9196L45.0709 32.3179C45.2223 31.4853 45.1466 30.9177 44.9196 30.5771C44.6547 30.2365 44.1249 30.0852 43.368 30.0852C42.7247 30.0852 42.157 30.0852 41.6651 30.123C41.1731 30.1608 40.719 30.1987 40.3027 30.2365H40.1892C40.1135 30.2365 40 30.1987 39.9622 30.1608C39.8865 30.123 39.8865 30.0473 39.8865 29.8959L40 29.2148C40.0378 28.9877 40.1892 28.8742 40.492 28.8363C40.9082 28.7607 41.3623 28.7228 41.8543 28.6471C42.3463 28.6093 42.9139 28.5714 43.5951 28.5714C44.9574 28.5714 45.9035 28.912 46.3954 29.5554C46.8874 30.1987 47.0009 31.1448 46.8117 32.2801L45.6007 39.281ZM44.7304 34.3993H43.2545C42.649 34.3993 42.157 34.4371 41.7408 34.5128C41.3245 34.5885 40.9839 34.702 40.7569 34.8534C40.492 35.0047 40.3027 35.194 40.1892 35.4589C40.0378 35.6859 39.9622 35.9887 39.8865 36.3671L39.8486 36.5941C39.7351 37.3132 39.8108 37.8051 40.0757 38.0322C40.3406 38.2592 40.7947 38.4106 41.3623 38.4106C41.8165 38.4106 42.2706 38.3349 42.7247 38.2214C43.1788 38.1079 43.6708 37.8808 44.1627 37.6159L44.7304 34.3993Z" fill="#166886"/>
<path d="M9.15799 34.9291C9.04447 35.6859 8.81741 36.3292 8.55251 36.9726C8.28761 37.5781 7.90918 38.1079 7.4929 38.5241C7.07663 38.9404 6.54683 39.281 5.97919 39.508C5.41154 39.7351 4.73037 39.8486 3.97351 39.8486C3.36802 39.8486 2.76254 39.8108 2.19489 39.7729C1.5894 39.7351 0.983916 39.6216 0.378429 39.508C0.189214 39.4702 0.0756856 39.4324 0.0378427 39.3567C-2.87774e-07 39.281 -2.87774e-07 39.1675 0.0378427 39.0539L2.49763 25.1656C2.53548 25.052 2.57332 24.9764 2.64901 24.9007C2.72469 24.825 2.83822 24.7871 2.91391 24.7871H3.93567C4.0492 24.7871 4.12488 24.825 4.20057 24.9007C4.27625 24.9764 4.27625 25.052 4.27625 25.1656L3.63292 28.8742C4.01135 28.7985 4.42762 28.7606 4.88174 28.7228C5.29801 28.685 5.67644 28.685 6.01703 28.685C7.45506 28.685 8.47682 29.1012 9.04446 29.9338C9.61211 30.7663 9.76348 31.9773 9.49858 33.5289L9.15799 34.9291ZM7.64428 33.491C7.83349 32.4314 7.79565 31.5989 7.53075 31.0312C7.26585 30.4636 6.62252 30.1608 5.67644 30.1608C5.52507 30.1608 5.33586 30.1608 5.14664 30.1608C4.95743 30.1608 4.73037 30.1608 4.54115 30.1987C4.3141 30.1987 4.12488 30.2365 3.89782 30.2365C3.67077 30.2744 3.51939 30.2744 3.33018 30.3122L1.92999 38.1835C2.27058 38.2214 2.64901 38.2214 3.06528 38.2592C3.48155 38.2971 3.85998 38.2971 4.20057 38.2971C5.18448 38.2971 5.9035 37.9943 6.39546 37.4267C6.88742 36.859 7.19016 36.0265 7.37938 34.9291L7.64428 33.491Z" fill="#166886"/>
<path d="M37.1618 34.3614C37.1239 34.6641 36.9726 34.8155 36.7077 34.8155H30.0473L30.0095 35.0804C29.8202 36.2535 29.8959 37.0861 30.2744 37.578C30.6528 38.07 31.2961 38.297 32.2043 38.297C32.772 38.297 33.4153 38.2592 34.0587 38.2214C34.702 38.1835 35.3075 38.1457 35.7616 38.07H35.8751C35.9508 38.07 36.0265 38.1078 36.0643 38.1457C36.14 38.1835 36.14 38.2592 36.14 38.3727L36.0265 39.0539C35.9886 39.1674 35.9508 39.281 35.8751 39.3567C35.7994 39.4323 35.6859 39.4702 35.5345 39.508C34.929 39.6216 34.3614 39.6972 33.7938 39.7729C33.2261 39.8486 32.5828 39.8486 31.9394 39.8486C31.3718 39.8486 30.842 39.7729 30.3122 39.6216C29.7824 39.4702 29.3661 39.2053 29.0255 38.8647C28.6849 38.4863 28.42 38.0322 28.2687 37.3888C28.1173 36.7833 28.1173 36.0265 28.3065 35.0804L28.6093 33.3018C28.8742 31.8637 29.4418 30.7285 30.35 29.8959C31.2583 29.0634 32.4314 28.6471 33.8316 28.6471C34.5506 28.6471 35.1561 28.7606 35.6859 28.9877C36.1779 29.2147 36.5941 29.5175 36.859 29.9338C37.1618 30.35 37.351 30.842 37.4267 31.4096C37.5024 31.9773 37.5024 32.6206 37.351 33.3396L37.1618 34.3614ZM35.6102 33.2639C35.7994 32.1286 35.7237 31.3339 35.3832 30.8798C35.0426 30.3879 34.4371 30.1608 33.5667 30.1608C32.6963 30.1608 32.0151 30.4257 31.4475 30.9177C30.9177 31.4096 30.5393 32.2043 30.35 33.2639L30.3122 33.4532H35.5724L35.6102 33.2639Z" fill="#166886"/>
<path d="M145.43 34.3614C145.393 34.6641 145.241 34.8155 144.976 34.8155H138.354L138.316 35.0804C138.089 36.2535 138.202 37.0861 138.581 37.578C138.959 38.07 139.603 38.297 140.511 38.297C141.079 38.297 141.722 38.2592 142.365 38.2214C143.008 38.1835 143.614 38.1457 144.068 38.07H144.182C144.257 38.07 144.333 38.1078 144.371 38.1457C144.447 38.1835 144.447 38.2592 144.447 38.3727L144.333 39.0539C144.295 39.1674 144.257 39.281 144.182 39.3567C144.106 39.4323 143.992 39.4702 143.841 39.508C143.236 39.6216 142.668 39.6972 142.1 39.7729C141.533 39.8486 140.889 39.8486 140.246 39.8486C139.678 39.8486 139.149 39.7729 138.619 39.6216C138.089 39.4702 137.673 39.2053 137.332 38.8647C136.991 38.4863 136.727 38.0322 136.575 37.3888C136.424 36.7833 136.424 36.0265 136.613 35.0804L136.916 33.3018C137.181 31.8637 137.748 30.7285 138.657 29.8959C139.565 29.0634 140.738 28.6471 142.138 28.6471C142.857 28.6471 143.463 28.7606 143.992 28.9877C144.484 29.2147 144.901 29.5175 145.166 29.9338C145.468 30.35 145.658 30.842 145.733 31.4096C145.809 31.9773 145.809 32.6206 145.657 33.3396L145.43 34.3614ZM143.879 33.2639C144.068 32.1286 143.992 31.3339 143.652 30.8798C143.311 30.3879 142.706 30.1608 141.835 30.1608C140.965 30.1608 140.284 30.4257 139.716 30.9177C139.186 31.4096 138.808 32.2043 138.619 33.2639L138.581 33.4532H143.841L143.879 33.2639Z" fill="#166886"/>
<path d="M169.991 34.3614C169.953 34.6641 169.801 34.8155 169.536 34.8155H162.914L162.876 35.0804C162.649 36.2535 162.763 37.0861 163.141 37.578C163.519 38.07 164.163 38.297 165.071 38.297C165.639 38.297 166.282 38.2592 166.925 38.2214C167.569 38.1835 168.174 38.1457 168.628 38.07H168.742C168.817 38.07 168.893 38.1078 168.931 38.1457C169.007 38.1835 169.007 38.2592 169.007 38.3727L168.893 39.0539C168.855 39.1674 168.817 39.281 168.742 39.3567C168.666 39.4323 168.553 39.4702 168.401 39.508C167.796 39.6216 167.228 39.6972 166.66 39.7729C166.093 39.8486 165.449 39.8486 164.806 39.8486C164.238 39.8486 163.709 39.7729 163.179 39.6216C162.649 39.4702 162.233 39.2053 161.892 38.8647C161.552 38.4863 161.287 38.0322 161.135 37.3888C160.984 36.7833 160.984 36.0265 161.173 35.0804L161.476 33.3018C161.741 31.8637 162.308 30.7285 163.217 29.8959C164.125 29.0634 165.298 28.6471 166.698 28.6471C167.417 28.6471 168.023 28.7606 168.553 28.9877C169.044 29.2147 169.461 29.5175 169.726 29.9338C170.028 30.35 170.218 30.842 170.293 31.4096C170.369 31.9773 170.369 32.6206 170.218 33.3396L169.991 34.3614ZM168.439 33.2639C168.628 32.1286 168.553 31.3339 168.212 30.8798C167.871 30.3879 167.266 30.1608 166.395 30.1608C165.525 30.1608 164.844 30.4257 164.276 30.9177C163.746 31.4096 163.368 32.2043 163.179 33.2639L163.141 33.4532H168.401L168.439 33.2639Z" fill="#166886"/>
<path d="M27.5118 30.1608C27.0577 30.1608 26.6036 30.2365 26.1495 30.3501C25.6954 30.4636 25.2034 30.6906 24.6358 30.9934L23.1599 39.281C23.1599 39.3945 23.0842 39.4702 23.0085 39.5459C22.9328 39.6216 22.8193 39.6594 22.7058 39.6594H21.7219C21.6083 39.6594 21.5326 39.6216 21.457 39.5459C21.3813 39.4702 21.3813 39.3567 21.3813 39.281L23.1977 29.1391C23.2356 29.0256 23.2734 28.9499 23.3491 28.8742C23.4248 28.7985 23.5383 28.7607 23.6518 28.7607H24.5979C24.7114 28.7607 24.7871 28.7985 24.8628 28.8742C24.9385 28.9499 24.9385 29.0634 24.9385 29.1391L24.8628 29.5554C25.4305 29.2148 25.9603 28.9499 26.4522 28.7985C26.9442 28.6471 27.3983 28.5714 27.8524 28.5714C28.1173 28.5714 28.2308 28.685 28.193 28.9499L28.0038 29.8203C27.9659 30.0473 27.8146 30.1608 27.5118 30.1608Z" fill="#166886"/>
<path d="M152.999 30.1608C152.545 30.1608 152.091 30.2365 151.637 30.3501C151.183 30.4636 150.691 30.6906 150.123 30.9934L148.647 39.281C148.647 39.3945 148.571 39.4702 148.496 39.5459C148.42 39.6216 148.307 39.6594 148.193 39.6594H147.209C147.096 39.6594 147.02 39.6216 146.944 39.5459C146.868 39.4702 146.868 39.3567 146.868 39.281L148.685 29.1391C148.723 29.0256 148.761 28.9499 148.836 28.8742C148.912 28.7985 149.026 28.7607 149.139 28.7607H150.085C150.199 28.7607 150.274 28.7985 150.35 28.8742C150.426 28.9499 150.426 29.0634 150.426 29.1391L150.35 29.5554C150.918 29.2148 151.447 28.9499 151.939 28.7985C152.431 28.6471 152.886 28.5714 153.34 28.5714C153.605 28.5714 153.718 28.685 153.68 28.9499L153.529 29.7824C153.415 30.0473 153.264 30.1608 152.999 30.1608Z" fill="#166886"/>
<path d="M18.2025 39.5459C18.1268 39.6216 18.0132 39.6594 17.8997 39.6594H16.9158C16.8023 39.6594 16.7266 39.6216 16.6509 39.5459C16.5752 39.4702 16.5752 39.3567 16.5752 39.281L16.6509 38.9026C16.0454 39.2053 15.4778 39.4324 14.9858 39.5837C14.4938 39.7351 13.9262 39.8108 13.3207 39.8108C12.1097 39.8108 11.315 39.4702 10.8988 38.7512C10.4825 38.0322 10.369 37.0104 10.6339 35.6859L11.807 29.1391C11.8448 29.0256 11.8827 28.9499 11.9584 28.8742C12.0341 28.7985 12.1476 28.7607 12.2611 28.7607H13.245C13.3586 28.7607 13.4342 28.7985 13.5099 28.8742C13.5856 28.9499 13.5856 29.0634 13.5856 29.1391L12.4125 35.6481C12.3368 36.14 12.299 36.5563 12.299 36.8969C12.3368 37.2375 12.4125 37.5024 12.5639 37.6916C12.7152 37.8808 12.9044 38.0322 13.1693 38.1079C13.4342 38.1835 13.737 38.2214 14.1154 38.2214C14.5317 38.2214 14.9858 38.1457 15.4778 37.9943C15.9697 37.843 16.4617 37.6537 16.9536 37.4267L18.4295 29.0634C18.4295 28.9499 18.5052 28.8742 18.5809 28.7985C18.6566 28.7228 18.7701 28.685 18.8836 28.685H19.8675C19.9811 28.685 20.0568 28.7228 20.1324 28.7985C20.2081 28.8742 20.2081 28.9877 20.2081 29.0634L18.3917 39.2053C18.3538 39.3945 18.2781 39.4702 18.2025 39.5459Z" fill="#166886"/>
<path d="M55.8183 39.5459C55.7427 39.6216 55.6291 39.6594 55.5156 39.6594H54.5317C54.4182 39.6594 54.3425 39.6216 54.2668 39.5459C54.1911 39.4702 54.1911 39.3567 54.1911 39.281L54.2668 38.9026C53.6613 39.2053 53.0937 39.4324 52.6017 39.5837C52.1097 39.7351 51.5421 39.8108 50.9366 39.8108C49.7256 39.8108 48.9309 39.4702 48.5147 38.7512C48.0984 38.0322 47.9849 37.0104 48.2498 35.6859L49.4229 29.1391C49.4607 29.0256 49.4986 28.9499 49.5743 28.8742C49.6499 28.7985 49.7635 28.7607 49.877 28.7607H50.8231C50.9366 28.7607 51.0123 28.7985 51.088 28.8742C51.1637 28.9499 51.1637 29.0634 51.1637 29.1391L49.9905 35.6481C49.9148 36.14 49.877 36.5563 49.877 36.8969C49.9148 37.2375 49.9905 37.5024 50.1419 37.6916C50.2933 37.8808 50.4825 38.0322 50.7474 38.1079C51.0123 38.1835 51.315 38.2214 51.6935 38.2214C52.1097 38.2214 52.5638 38.1457 53.0558 37.9943C53.5478 37.843 54.0397 37.6537 54.5317 37.4267L56.0076 29.0634C56.0076 28.9499 56.0832 28.8742 56.1589 28.7985C56.2346 28.7228 56.3481 28.685 56.4617 28.685H57.4456C57.5591 28.685 57.6348 28.7228 57.7105 28.7985C57.7862 28.8742 57.7862 28.9877 57.7862 29.0634L55.9697 39.2053C55.9697 39.3945 55.9319 39.4702 55.8183 39.5459Z" fill="#166886"/>
<path d="M66.6414 39.4702C66.6036 39.6216 66.5279 39.6973 66.3387 39.6973H64.9763C64.8628 39.6973 64.7871 39.6594 64.7114 39.5459L62.5922 35.3832L59.035 39.5081C58.9593 39.5837 58.8836 39.6594 58.8458 39.6594C58.8079 39.6973 58.7323 39.6973 58.6566 39.6973H57.4834C57.3321 39.6973 57.2564 39.6216 57.2942 39.5081C57.2942 39.4324 57.3699 39.3188 57.4456 39.2431L61.9111 34.1343L59.4134 29.2526C59.3756 29.1391 59.3377 29.0634 59.3756 28.9877C59.4134 28.8363 59.527 28.7607 59.7162 28.7607H61.0028C61.0785 28.7607 61.1542 28.7985 61.192 28.8363C61.2299 28.8742 61.3056 28.9499 61.3434 29.0634L63.1977 32.8098L66.4144 29.0634C66.5279 28.9499 66.6036 28.8363 66.6793 28.8363C66.7171 28.7985 66.7928 28.7985 66.9063 28.7985H68.0416C68.2308 28.7985 68.2687 28.8742 68.2687 29.0256C68.2687 29.1012 68.193 29.1769 68.1173 29.2905L63.9546 34.0208L66.6414 39.2431C66.6414 39.281 66.6414 39.3567 66.6414 39.4702Z" fill="#166886"/>
<path d="M94.1911 39.3945C94.1154 39.4702 94.0019 39.5081 93.8505 39.5459C93.5099 39.6216 93.1315 39.6594 92.6774 39.6973C92.2233 39.7351 91.807 39.773 91.315 39.773C90.6339 39.773 90.0662 39.6594 89.5743 39.4324C89.0823 39.2053 88.7039 38.8647 88.4011 38.4484C88.0984 38.0322 87.9092 37.5402 87.8335 36.9347C87.7578 36.3292 87.7957 35.6859 87.9092 34.9669L88.1741 33.4153C88.2876 32.6963 88.5147 32.0151 88.8174 31.4475C89.1202 30.842 89.4607 30.3501 89.9149 29.9338C90.3311 29.5175 90.8609 29.1769 91.4286 28.9499C91.9962 28.7228 92.6395 28.6093 93.2829 28.6093C93.737 28.6093 94.1911 28.6471 94.6074 28.685C95.0237 28.7228 95.4021 28.7607 95.7048 28.8363C95.8562 28.8742 95.9697 28.912 96.0076 28.9499C96.0454 29.0256 96.0454 29.1012 96.0454 29.2526L95.9319 29.9716C95.894 30.0852 95.8562 30.1608 95.7805 30.1987C95.7048 30.2365 95.6291 30.2744 95.5156 30.2744H95.4399C95.0236 30.2365 94.6074 30.1987 94.2668 30.1608C93.9262 30.123 93.5099 30.123 93.018 30.123C92.2233 30.123 91.58 30.3879 91.0502 30.9177C90.5203 31.4475 90.1798 32.2801 89.9527 33.4153L89.6878 34.9669C89.4986 36.1022 89.5364 36.9347 89.877 37.4645C90.2176 37.9943 90.7852 38.2592 91.5799 38.2592C92.0719 38.2592 92.4882 38.2592 92.8666 38.2214C93.245 38.1835 93.6235 38.1835 94.0776 38.1079H94.1533C94.229 38.1079 94.3046 38.1457 94.3803 38.1836C94.456 38.2214 94.456 38.2971 94.456 38.4106L94.3425 39.1296C94.3046 39.2432 94.2668 39.3188 94.1911 39.3945Z" fill="#166886"/>
<path d="M159.054 39.3945C158.978 39.4702 158.865 39.5081 158.713 39.5459C158.373 39.6216 157.994 39.6594 157.54 39.6973C157.086 39.7351 156.67 39.773 156.178 39.773C155.497 39.773 154.929 39.6594 154.437 39.4324C153.945 39.2053 153.567 38.8647 153.264 38.4484C152.961 38.0322 152.772 37.5402 152.696 36.9347C152.621 36.3292 152.658 35.6859 152.772 34.9669L153.037 33.4153C153.15 32.6963 153.377 32.0151 153.68 31.4475C153.983 30.842 154.324 30.3501 154.778 29.9338C155.194 29.5175 155.724 29.1769 156.291 28.9499C156.859 28.7228 157.502 28.6093 158.146 28.6093C158.6 28.6093 159.054 28.6471 159.47 28.685C159.886 28.7228 160.265 28.7607 160.568 28.8363C160.719 28.8742 160.833 28.912 160.87 28.9499C160.908 29.0256 160.908 29.1012 160.908 29.2526L160.795 29.9716C160.757 30.0852 160.719 30.1608 160.643 30.1987C160.568 30.2365 160.492 30.2744 160.378 30.2744H160.303C159.886 30.2365 159.47 30.1987 159.13 30.1608C158.789 30.123 158.373 30.123 157.881 30.123C157.086 30.123 156.443 30.3879 155.913 30.9177C155.383 31.4475 155.043 32.2801 154.816 33.4153L154.551 34.9669C154.361 36.1022 154.399 36.9347 154.74 37.4645C155.08 37.9943 155.648 38.2592 156.443 38.2592C156.935 38.2592 157.351 38.2592 157.729 38.2214C158.108 38.1835 158.486 38.1835 158.94 38.1079H159.016C159.092 38.1079 159.167 38.1457 159.243 38.1836C159.319 38.2214 159.319 38.2971 159.319 38.4106L159.205 39.1296C159.167 39.2432 159.13 39.3188 159.054 39.3945Z" fill="#166886"/>
<path d="M118.524 39.8108C118.448 39.8865 118.335 39.9243 118.221 39.9243H117.275C117.162 39.9243 117.086 39.8865 117.01 39.8108C116.935 39.7351 116.935 39.6216 116.935 39.5459L118.184 32.5071C118.259 32.0908 118.259 31.7502 118.221 31.4853C118.184 31.2204 118.108 30.9934 117.956 30.842C117.843 30.6906 117.654 30.5771 117.427 30.5014C117.2 30.4257 116.973 30.3879 116.746 30.3879C116.405 30.3879 115.989 30.4257 115.572 30.5393C115.156 30.6528 114.74 30.7663 114.324 30.9177C114.361 31.3718 114.324 31.8638 114.21 32.4693L112.961 39.5459C112.923 39.6594 112.886 39.7351 112.81 39.8108C112.734 39.8865 112.621 39.9243 112.545 39.9243H111.485C111.372 39.9243 111.296 39.8865 111.258 39.8108C111.22 39.7351 111.183 39.6216 111.22 39.5459L112.469 32.4693C112.545 32.0151 112.583 31.6746 112.583 31.4097C112.583 31.1448 112.507 30.9177 112.394 30.7663C112.28 30.615 112.129 30.5014 111.977 30.4636C111.788 30.4257 111.561 30.3879 111.334 30.3879C110.993 30.3879 110.577 30.4636 110.123 30.615C109.669 30.7663 109.215 30.9555 108.761 31.1448L107.285 39.508C107.247 39.6216 107.209 39.6973 107.133 39.7729C107.058 39.8486 106.944 39.8865 106.868 39.8865H105.809C105.695 39.8865 105.62 39.8486 105.582 39.7729C105.544 39.6973 105.506 39.5837 105.544 39.508L107.36 29.3661C107.36 29.2526 107.436 29.1769 107.512 29.1012C107.588 29.0256 107.701 28.9877 107.815 28.9877H108.798C108.912 28.9877 108.988 29.0256 109.063 29.1012C109.139 29.1769 109.139 29.2905 109.139 29.3661L109.063 29.7446C109.518 29.4797 109.972 29.2905 110.501 29.1012C111.031 28.912 111.561 28.8363 112.129 28.8363C112.545 28.8363 112.923 28.912 113.226 29.0255C113.529 29.1391 113.794 29.3661 113.983 29.6689C114.588 29.404 115.194 29.2148 115.762 29.0634C116.367 28.912 116.897 28.8363 117.427 28.8363C117.881 28.8363 118.297 28.912 118.638 29.0255C119.016 29.1391 119.319 29.3283 119.546 29.631C119.773 29.9338 119.962 30.2744 120.038 30.7663C120.114 31.2204 120.114 31.8259 119.962 32.5071L118.713 39.5459C118.676 39.6594 118.638 39.7351 118.524 39.8108Z" fill="#166886"/>
<path d="M133.434 39.8108C133.359 39.8865 133.245 39.9243 133.131 39.9243H132.185C132.072 39.9243 131.996 39.8865 131.921 39.8108C131.845 39.7351 131.845 39.6216 131.845 39.5459L133.094 32.5071C133.169 32.0908 133.169 31.7502 133.131 31.4853C133.094 31.2204 133.018 30.9934 132.867 30.842C132.753 30.6906 132.564 30.5771 132.337 30.5014C132.11 30.4257 131.883 30.3879 131.656 30.3879C131.315 30.3879 130.899 30.4257 130.482 30.5393C130.066 30.6528 129.65 30.7663 129.234 30.9177C129.272 31.3718 129.234 31.8638 129.12 32.4693L127.871 39.5459C127.833 39.6594 127.796 39.7351 127.72 39.8108C127.644 39.8865 127.531 39.9243 127.455 39.9243H126.395C126.282 39.9243 126.206 39.8865 126.168 39.8108C126.131 39.7351 126.093 39.6216 126.131 39.5459L127.379 32.4693C127.455 32.0151 127.493 31.6746 127.493 31.4097C127.493 31.1448 127.417 30.9177 127.304 30.7663C127.19 30.615 127.039 30.5014 126.887 30.4636C126.698 30.4257 126.471 30.3879 126.244 30.3879C125.904 30.3879 125.487 30.4636 125.033 30.615C124.579 30.7663 124.125 30.9555 123.671 31.1448L122.195 39.508C122.157 39.6216 122.119 39.6973 122.044 39.7729C121.968 39.8486 121.854 39.8865 121.779 39.8865H120.719C120.605 39.8865 120.53 39.8486 120.492 39.7729C120.454 39.6973 120.416 39.5837 120.454 39.508L122.271 29.3661C122.271 29.2526 122.346 29.1769 122.422 29.1012C122.498 29.0256 122.611 28.9877 122.725 28.9877H123.709C123.822 28.9877 123.898 29.0256 123.974 29.1012C124.049 29.1769 124.049 29.2905 124.049 29.3661L123.974 29.7446C124.428 29.4797 124.882 29.2905 125.412 29.1012C125.941 28.912 126.471 28.8363 127.039 28.8363C127.455 28.8363 127.833 28.912 128.136 29.0255C128.439 29.1391 128.704 29.3661 128.893 29.6689C129.499 29.404 130.104 29.2148 130.672 29.0634C131.277 28.912 131.807 28.8363 132.337 28.8363C132.791 28.8363 133.207 28.912 133.548 29.0255C133.926 29.1391 134.229 29.3283 134.456 29.631C134.683 29.9338 134.872 30.2744 134.948 30.7663C135.024 31.2204 135.024 31.8259 134.872 32.5071L133.623 39.5459C133.586 39.6594 133.548 39.7351 133.434 39.8108Z" fill="#166886"/>
<path d="M104.56 35.1561C104.447 35.8751 104.219 36.5563 103.917 37.1239C103.614 37.7294 103.273 38.2214 102.819 38.6377C102.365 39.0539 101.835 39.3945 101.268 39.6216C100.662 39.8486 100.019 39.9622 99.2621 39.9622C98.5431 39.9622 97.8997 39.8486 97.4078 39.6216C96.9158 39.3945 96.4995 39.0539 96.1968 38.6377C95.8941 38.2214 95.7048 37.6916 95.6292 37.1239C95.5535 36.5185 95.5913 35.8751 95.7048 35.1561L95.9697 33.6424C96.0833 32.9234 96.3103 32.2422 96.6131 31.6746C96.9158 31.0691 97.2564 30.5771 97.7105 30.1608C98.1646 29.7446 98.6566 29.404 99.2621 29.1769C99.8676 28.9499 100.511 28.8363 101.23 28.8363C101.949 28.8363 102.592 28.9499 103.084 29.1769C103.614 29.404 103.992 29.7446 104.295 30.1608C104.598 30.5771 104.787 31.1069 104.863 31.6746C104.939 32.28 104.901 32.9234 104.787 33.6424L104.56 35.1561ZM103.084 33.6424C103.273 32.6206 103.198 31.8259 102.895 31.2204C102.592 30.615 101.949 30.3122 101.003 30.3122C100.095 30.3122 99.3378 30.615 98.808 31.1826C98.2782 31.7881 97.9376 32.5828 97.7484 33.6045L97.4835 35.1183C97.2942 36.14 97.3699 36.9347 97.6727 37.5402C97.9754 38.1457 98.6187 38.4484 99.5648 38.4484C100.473 38.4484 101.23 38.1457 101.76 37.5781C102.289 36.9726 102.668 36.1779 102.819 35.1561L103.084 33.6424Z" fill="#166886"/>
<path d="M177.938 36.859C177.862 37.351 177.673 37.8051 177.446 38.1457C177.219 38.5241 176.916 38.789 176.537 39.0539C176.159 39.281 175.743 39.4702 175.289 39.5837C174.797 39.6973 174.305 39.7351 173.737 39.7351C173.548 39.7351 173.321 39.7351 173.056 39.7351C172.791 39.7351 172.526 39.6973 172.261 39.6973C171.996 39.6594 171.693 39.6594 171.429 39.6216C171.126 39.5837 170.899 39.5459 170.672 39.4702C170.407 39.3945 170.293 39.281 170.331 39.0918L170.445 38.4106C170.445 38.3349 170.52 38.2592 170.596 38.1836C170.672 38.1457 170.747 38.1079 170.861 38.1079H170.937C171.164 38.1457 171.429 38.1457 171.693 38.1836C171.958 38.2214 172.261 38.2214 172.526 38.2592C172.829 38.2971 173.094 38.2971 173.321 38.2971C173.586 38.2971 173.775 38.3349 173.964 38.3349C174.607 38.3349 175.137 38.2214 175.478 38.0322C175.856 37.843 176.083 37.4645 176.159 36.9347C176.197 36.632 176.159 36.3671 175.97 36.14C175.781 35.913 175.44 35.6481 174.948 35.2696L173.169 34.0965C172.64 33.7181 172.223 33.3018 171.921 32.8855C171.618 32.4314 171.542 31.9016 171.656 31.2583C171.731 30.7285 171.921 30.3122 172.148 29.9716C172.375 29.631 172.677 29.3661 173.056 29.1391C173.396 28.9499 173.813 28.7985 174.267 28.7228C174.721 28.6471 175.213 28.6093 175.705 28.6093C176.272 28.6093 176.802 28.6471 177.294 28.685C177.824 28.7228 178.278 28.7985 178.732 28.8742C178.959 28.912 179.073 29.0634 179.035 29.2526L178.921 29.8959C178.884 30.123 178.732 30.2365 178.543 30.2365H178.467C178.127 30.1987 177.673 30.1608 177.105 30.123C176.537 30.0852 175.97 30.0473 175.402 30.0473C174.834 30.0473 174.38 30.123 174.04 30.2365C173.661 30.3501 173.472 30.6906 173.359 31.1826C173.321 31.4853 173.359 31.7502 173.548 31.9773C173.737 32.2044 174.04 32.4314 174.456 32.6963L176.197 33.8695C176.916 34.3614 177.408 34.8534 177.635 35.3075C177.975 35.7616 178.051 36.2914 177.938 36.859Z" fill="#166886"/>
<path d="M82.3084 34.3993L82.2706 34.5885C81.93 35.8751 81.5516 37.0483 80.7569 37.9565L81.9678 39.5459C82.0057 39.5837 82.0057 39.6216 82.0057 39.6594C82.0057 39.8108 81.93 39.8486 81.7786 39.8486H80.0757C79.9622 39.8486 79.9243 39.8486 79.8486 39.7351L79.3945 39.1296C78.5241 39.6594 77.5024 39.9622 76.3292 39.9622C74.1722 39.9622 72.7342 38.9783 72.7342 37.4645C72.7342 35.6859 73.983 34.7398 75.421 33.9451L75.3453 33.8316C74.6263 32.6585 74.3236 32.0152 74.3236 31.4475C74.3236 29.1012 76.2536 28.3065 78.3349 28.3065C80.1892 28.3065 81.211 29.2148 81.211 30.4258C81.211 32.1665 79.7351 33.2261 78.3349 34.0208L77.9186 34.2479L79.773 36.7077C80.1514 36.0644 80.3406 35.3075 80.5676 34.5128L80.6055 34.3236C80.6433 34.1722 80.7569 34.0208 80.9082 34.0208H82.0435C82.1949 34.0208 82.2706 34.0965 82.2706 34.2479V34.3993H82.3084ZM76.3292 35.194C75.421 35.6859 74.8534 36.2536 74.8534 37.351C74.8534 38.1457 75.4589 38.4863 76.5941 38.4863C77.3888 38.4863 77.9943 38.3349 78.5241 38.0322L76.3292 35.194ZM78.1079 29.8203C77.0104 29.8203 76.1779 30.2365 76.1779 31.4097C76.1779 31.7881 76.3292 32.1665 76.9726 32.9612L77.0861 33.1126L77.6159 32.8477C78.4863 32.3936 79.4702 31.8638 79.4702 30.6907C79.3945 30.1609 78.9404 29.8203 78.1079 29.8203Z" fill="#166886"/>
</g>
<defs>
<clipPath id="clip0">
<rect width="179.111" height="40" fill="white"/>
</clipPath>
</defs>
</svg>
