<?xml version="1.0" encoding="UTF-8"?>
<svg width="355px" height="65px" viewBox="0 0 1421 231" version="1.1" xmlns="http://www.w3.org/2000/svg" xmlns:xlink="http://www.w3.org/1999/xlink">
    <!-- Generator: Sketch 52.5 (67469) - http://www.bohemiancoding.com/sketch -->
    <title>stst-logo-blue</title>
    <desc>Created with Sketch.</desc>
    <g id="Page-1" stroke="none" stroke-width="1" fill="none" fill-rule="evenodd">
        <g id="Desktop-HD" transform="translate(0.000000, -113.000000)" fill="#0C2577">
            <g id="stst-logo-blue" transform="translate(0.000000, 113.000000)">
                <g id="Group">
                    <path d="M190.184838,167.072777 C163.645141,176.670159 135.636458,183.427498 106.648449,186.953067 C106.648449,186.953067 106.550517,186.953067 106.550517,186.953067 C103.220813,187.344797 99.989042,187.736527 96.6593384,188.030324 C96.6593384,188.030324 96.6593384,188.030324 96.5614059,188.030324 C88.8247416,188.715851 80.9901447,189.303446 73.1555479,189.597243 C63.8519642,189.891041 54.6463129,189.891041 45.5385941,189.597243 C35.1577533,189.205513 25.8541695,185.582012 18.4113025,179.803997 C44.1675396,175.592901 69.7279118,170.500414 94.7986216,163.351344 C115.266506,157.475396 135.440593,150.228394 154.635355,141.31654 C165.99552,136.028187 177.159821,130.054307 187.638594,123.3949 C199.292557,116.147898 210.358925,108.019504 220.641833,98.911785 C221.32736,98.3241902 222.012888,97.638663 222.796347,97.0510682 C232.589593,124.17836 219.956306,156.300207 190.184838,167.072777" id="Path"></path>
                    <path d="M204.385045,70.1196416 C202.524328,71.2948312 200.663611,72.6658856 198.900827,73.9390076 C191.555892,79.129428 184.113025,84.1239835 176.474294,88.922674 C175.984631,89.2164714 175.494969,89.5102688 175.005307,89.8040662 C166.876912,94.8965541 158.650586,99.7931771 150.228394,104.493935 C145.723501,106.942247 141.218608,109.390558 136.713715,111.740937 C128.095658,116.147898 119.379669,120.358994 110.565748,124.276292 C104.29807,127.116334 98.0303928,129.76051 91.6647829,132.306754 C70.7072364,140.728946 49.1620951,147.878015 27.3231564,153.558098 L3.42763611,159.434045 C-0.195864921,150.130462 -0.979324604,139.651688 2.05658167,129.074983 C12.4374225,93.0358374 26.5396968,68.4547898 46.5179187,36.6267402 C51.4145417,28.8900758 57.3884218,22.328601 64.1457615,16.9423156 C69.0423846,13.0250172 74.4286699,9.79324604 80.0108201,7.24700207 C107.138112,-4.99455548 140.337216,-1.37105445 163.938939,20.6637491 C179.706065,35.5494831 189.891041,53.2752584 204.385045,70.1196416" id="Path"></path>
                </g>
                <path d="M313.971468,167.856237 C303.982357,163.841006 295.951895,158.356788 289.78215,151.109786 C288.019366,148.85734 287.137974,146.702826 287.137974,144.548312 C287.137974,141.31654 288.509028,138.476499 291.34907,136.028187 C293.405651,134.363336 295.658098,133.481943 297.910544,133.481943 C300.848518,133.481943 303.394762,134.852998 305.549276,137.497174 C309.760372,142.785527 315.342522,146.898691 322.197795,149.640799 C329.150999,152.480841 336.789731,153.851895 345.211923,153.851895 C357.45348,153.851895 366.659132,151.599449 372.730944,147.094555 C378.900689,142.589662 382.034528,136.615782 382.13246,129.270848 C382.13246,122.513508 379.096554,116.833425 372.926809,112.2306 C366.757064,107.725706 357.061751,104.29807 343.840868,102.045624 C326.702688,99.0097174 313.873535,93.819297 305.353411,86.2784976 C296.833287,78.8356306 292.622192,69.8258442 292.622192,59.2491385 C292.622192,45.4406616 297.518815,34.7660234 307.409993,27.225224 C317.301172,19.6844245 329.640662,15.8650586 344.526396,15.8650586 C356.082426,15.8650586 366.169469,18.0195727 374.689593,22.2306685 C383.30765,26.4417643 390.162922,32.4156444 395.451275,39.9564438 C396.822329,42.4047553 397.507857,44.5592695 397.507857,46.5179187 C397.507857,49.7496899 396.136802,52.2959338 393.296761,54.1566506 C392.023639,55.1359752 390.45672,55.527705 388.302205,55.527705 C384.580772,55.527705 381.544866,54.1566506 379.096554,51.3166092 C370.478498,40.7399035 358.824535,35.4515507 343.938801,35.4515507 C334.34142,35.4515507 326.604755,37.6060648 320.82674,41.8171606 C315.048725,46.0282564 312.208684,51.4145417 312.208684,57.8780841 C312.208684,64.6354238 314.950793,70.1196416 320.337078,74.1348725 C325.723363,78.2480358 335.418677,81.479807 349.227154,83.9281185 C367.932254,87.3557547 381.349001,92.8399724 389.379462,100.478704 C397.409924,108.117436 401.425155,117.616885 401.425155,128.97705 C401.425155,137.693039 398.976844,145.429704 394.178153,152.187043 C389.379462,158.944383 382.622123,164.232736 374.101999,168.052102 C365.483942,171.871468 355.788629,173.732185 345.016058,173.732185 C334.34142,173.732185 323.960579,171.773535 313.971468,167.856237 Z" id="Path"></path>
                <path d="M491.033356,156.985734 C492.600276,158.748518 493.383735,161.098897 493.481668,163.841006 C493.481668,166.191385 492.796141,168.443832 491.327154,170.206616 C489.270572,172.654928 486.528463,173.830117 483.198759,173.830117 L478.008339,173.830117 C469.390283,173.830117 461.555686,171.675603 454.700414,167.366575 C447.845141,163.057547 442.458856,157.181599 438.63949,149.738732 C434.820124,142.295865 432.861475,133.971606 432.861475,124.668022 L432.861475,63.6560992 L422.970296,63.6560992 C420.32612,63.6560992 418.269538,62.8726396 416.702619,61.2077877 C415.1357,59.6408684 414.35224,57.5842867 414.35224,55.2339076 C414.35224,52.6876637 415.1357,50.631082 416.702619,48.9662302 C418.269538,47.3993108 420.32612,46.5179187 422.970296,46.5179187 L432.861475,46.5179187 L432.861475,32.7094418 C432.861475,29.771468 433.742867,27.4210889 435.407719,25.5603722 C437.170503,23.6996554 439.325017,22.7203308 442.165059,22.7203308 C444.907167,22.7203308 447.257547,23.6996554 449.020331,25.5603722 C450.783115,27.4210889 451.76244,29.771468 451.76244,32.7094418 L451.76244,46.5179187 L479.477326,46.5179187 C482.121502,46.5179187 484.178084,47.3013784 485.745003,48.9662302 C487.311923,50.631082 488.095382,52.6876637 488.095382,55.2339076 C488.095382,57.5842867 487.311923,59.6408684 485.745003,61.2077877 C484.178084,62.8726396 482.121502,63.6560992 479.477326,63.6560992 L451.76244,63.6560992 L451.76244,124.57009 C451.76244,133.286079 454.210751,140.337216 459.107374,145.821433 C464.003997,151.305651 470.271675,154.145693 478.008339,154.145693 L484.667746,154.145693 C487.311923,154.145693 489.466437,155.027085 491.033356,156.985734 Z" id="Path"></path>
                <path d="M813.720813,167.856237 C803.731702,163.841006 795.701241,158.356788 789.531496,151.109786 C787.768711,148.85734 786.887319,146.702826 786.887319,144.548312 C786.887319,141.31654 788.258374,138.476499 791.098415,136.028187 C793.154997,134.363336 795.407443,133.481943 797.65989,133.481943 C800.597864,133.481943 803.144108,134.852998 805.298622,137.497174 C809.509717,142.785527 815.091868,146.898691 821.94714,149.640799 C828.900345,152.480841 836.539076,153.851895 844.961268,153.851895 C857.202826,153.851895 866.408477,151.599449 872.480289,147.094555 C878.650034,142.589662 881.783873,136.615782 881.881806,129.270848 C881.881806,122.513508 878.845899,116.833425 872.676154,112.2306 C866.506409,107.725706 856.811096,104.29807 843.590214,102.045624 C826.452033,99.0097174 813.622881,93.819297 805.102757,86.2784976 C796.582633,78.8356306 792.371537,69.8258442 792.371537,59.2491385 C792.371537,45.4406616 797.26816,34.7660234 807.159338,27.225224 C817.050517,19.6844245 829.390007,15.8650586 844.275741,15.8650586 C855.831771,15.8650586 865.918815,18.0195727 874.438939,22.2306685 C883.056995,26.4417643 889.912267,32.4156444 895.20062,39.9564438 C896.571675,42.4047553 897.257202,44.5592695 897.257202,46.5179187 C897.257202,49.7496899 895.886147,52.2959338 893.046106,54.1566506 C891.772984,55.1359752 890.206065,55.527705 888.051551,55.527705 C884.330117,55.527705 881.294211,54.1566506 878.845899,51.3166092 C870.227843,40.7399035 858.57388,35.4515507 843.688146,35.4515507 C834.090765,35.4515507 826.354101,37.6060648 820.576085,41.8171606 C814.79807,46.0282564 811.958029,51.4145417 811.958029,57.8780841 C811.958029,64.6354238 814.700138,70.1196416 820.086423,74.1348725 C825.472708,78.2480358 835.168022,81.479807 848.976499,83.9281185 C867.681599,87.3557547 881.098346,92.8399724 889.128808,100.478704 C897.159269,108.117436 901.1745,117.616885 901.1745,128.97705 C901.1745,137.693039 898.726189,145.429704 893.927498,152.187043 C889.128808,158.944383 882.371468,164.232736 873.851344,168.052102 C865.233287,171.871468 855.537974,173.732185 844.765403,173.732185 C834.188697,173.732185 823.709924,171.773535 813.720813,167.856237 Z" id="Path"></path>
                <path d="M990.978567,156.985734 C992.545486,158.748518 993.328946,161.098897 993.426878,163.841006 C993.426878,166.191385 992.741351,168.443832 991.272364,170.206616 C989.215782,172.654928 986.473673,173.830117 983.14397,173.830117 L977.953549,173.830117 C969.335493,173.830117 961.500896,171.675603 954.645624,167.366575 C947.790351,163.057547 942.404066,157.181599 938.5847,149.738732 C934.765334,142.295865 932.806685,133.971606 932.806685,124.668022 L932.806685,63.6560992 L922.915507,63.6560992 C920.27133,63.6560992 918.214748,62.8726396 916.647829,61.2077877 C915.08091,59.6408684 914.29745,57.5842867 914.29745,55.2339076 C914.29745,52.6876637 915.08091,50.631082 916.647829,48.9662302 C918.214748,47.3993108 920.27133,46.5179187 922.915507,46.5179187 L932.806685,46.5179187 L932.806685,32.7094418 C932.806685,29.771468 933.688077,27.4210889 935.352929,25.5603722 C937.115713,23.6996554 939.270227,22.7203308 942.110269,22.7203308 C944.852378,22.7203308 947.202757,23.6996554 948.965541,25.5603722 C950.728325,27.4210889 951.70765,29.771468 951.70765,32.7094418 L951.70765,46.5179187 L979.422536,46.5179187 C982.066713,46.5179187 984.123294,47.3013784 985.690214,48.9662302 C987.257133,50.631082 988.040593,52.6876637 988.040593,55.2339076 C988.040593,57.5842867 987.257133,59.6408684 985.690214,61.2077877 C984.123294,62.8726396 982.066713,63.6560992 979.422536,63.6560992 L951.70765,63.6560992 L951.70765,124.57009 C951.70765,133.286079 954.155961,140.337216 959.052584,145.821433 C963.949207,151.305651 970.216885,154.145693 977.953549,154.145693 L984.612957,154.145693 C987.159201,154.145693 989.313715,155.027085 990.978567,156.985734 Z" id="Path"></path>
                <path d="M743.013577,43.188215 C732.828601,37.1164025 721.370503,34.0804962 708.933081,34.0804962 C696.495658,34.0804962 685.03756,37.1164025 674.852584,43.188215 C664.667609,49.2600276 656.637147,57.7801516 650.761199,68.3568573 C644.885252,79.0314955 641.947278,90.9792557 641.947278,104.004273 L641.947278,162.665817 C641.947278,163.645141 642.04521,164.428601 642.143143,165.016196 L642.143143,220.837698 C642.143143,223.775672 643.024535,226.223983 644.787319,228.0847 C646.550103,229.945417 648.80255,230.924742 651.642591,230.924742 C654.482633,230.924742 656.833012,229.945417 658.595796,228.0847 C660.456513,226.223983 661.337905,223.775672 661.337905,220.837698 L661.337905,148.85734 C666.822123,156.398139 673.775327,162.469952 682.099586,166.876912 C690.717643,171.479738 700.412957,173.732185 710.793797,173.732185 C722.937422,173.732185 734.101723,170.696278 743.894969,164.526533 C753.688215,158.454721 761.620744,150.032529 767.300827,139.455824 C772.98091,128.879118 775.820951,116.931358 775.820951,104.004273 C775.820951,91.0771881 772.882977,79.0314955 767.00703,68.3568573 C761.326947,57.7801516 753.198553,49.2600276 743.013577,43.188215 Z M757.213784,104.004273 C757.213784,113.699586 755.059269,122.61144 750.946106,130.348105 C746.73501,138.182702 740.956995,144.352447 733.612061,148.759407 C726.267126,153.166368 718.040799,155.418815 709.031013,155.418815 C696.593591,155.418815 685.82102,151.207719 677.105031,143.079325 C668.389042,134.852998 663.100689,124.17836 661.53377,111.44714 C661.53377,110.957478 661.435837,110.467815 661.239972,110.076085 C661.044108,108.802963 661.044108,106.746382 661.044108,103.90634 C661.044108,94.2110269 663.198622,85.299173 667.311785,77.5625086 C671.522881,69.7279118 677.300896,63.5581668 684.547898,58.9553411 C691.7949,54.450448 700.021227,52.1980014 709.031013,52.1980014 C718.040799,52.1980014 726.267126,54.450448 733.612061,58.9553411 C740.956995,63.4602343 746.73501,69.7279118 750.946106,77.5625086 C755.059269,85.4950379 757.213784,94.3089593 757.213784,104.004273 Z" id="Shape" fill-rule="nonzero"></path>
                <path d="M1102.03398,43.0902826 C1091.94693,37.1164025 1080.48884,34.0804962 1067.85555,34.0804962 C1055.22226,34.0804962 1043.66623,37.1164025 1033.57919,43.0902826 C1023.39421,49.0641626 1015.36375,57.4863542 1009.58573,68.1609924 C1003.80772,78.8356306 1000.86975,90.8813232 1000.86975,104.004273 C1000.86975,117.127223 1003.80772,129.172915 1009.58573,139.749621 C1015.36375,150.326327 1023.39421,158.748518 1033.57919,164.722398 C1043.76416,170.696278 1055.32019,173.732185 1067.85555,173.732185 C1080.48884,173.732185 1092.04487,170.696278 1102.13191,164.722398 C1112.31688,158.748518 1120.34735,150.326327 1126.12536,139.749621 C1131.90338,129.172915 1134.84135,117.127223 1134.84135,104.004273 C1134.84135,90.8813232 1131.90338,78.8356306 1126.02743,68.1609924 C1120.15148,57.4863542 1112.02309,49.0641626 1102.03398,43.0902826 Z M1092.53453,148.85734 C1085.28753,153.2643 1076.96327,155.516747 1067.85555,155.516747 C1058.84576,155.516747 1050.61943,153.2643 1043.2745,148.85734 C1035.92957,144.450379 1030.15155,138.182702 1025.94045,130.446037 C1021.72936,122.61144 1019.67278,113.797519 1019.67278,104.102205 C1019.67278,94.2110269 1021.82729,85.299173 1025.94045,77.4645762 C1030.15155,69.6299793 1035.92957,63.4602343 1043.2745,59.0532736 C1050.61943,54.6463129 1058.84576,52.3938663 1067.85555,52.3938663 C1076.96327,52.3938663 1085.28753,54.6463129 1092.53453,59.0532736 C1099.78153,63.4602343 1105.55955,69.7279118 1109.67271,77.4645762 C1113.78587,85.299173 1115.84245,94.2110269 1115.84245,104.102205 C1115.84245,113.797519 1113.78587,122.709373 1109.67271,130.446037 C1105.55955,138.182702 1099.78153,144.450379 1092.53453,148.85734 Z" id="Shape" fill-rule="nonzero"></path>
                <path d="M1248.24714,42.6006203 C1239.23735,37.6060648 1228.85651,35.0598208 1217.49635,35.0598208 C1208.68243,35.0598208 1200.4561,36.8226051 1192.9153,40.3481737 C1185.6683,43.6778773 1179.40062,48.3786354 1174.30813,54.1566506 L1174.30813,46.7137836 C1174.30813,43.7758098 1173.42674,41.3274983 1171.66396,39.4667815 C1169.90117,37.6060648 1167.64873,36.6267402 1164.80868,36.6267402 C1161.96864,36.6267402 1159.61826,37.6060648 1157.85548,39.4667815 C1155.99476,41.3274983 1155.11337,43.7758098 1155.11337,46.7137836 L1155.11337,163.938939 C1155.11337,166.876912 1155.99476,169.227292 1157.85548,171.088008 C1159.7162,172.850793 1161.96864,173.830117 1164.80868,173.830117 C1167.64873,173.830117 1169.90117,172.948725 1171.66396,171.088008 C1173.42674,169.227292 1174.30813,166.876912 1174.30813,163.938939 L1174.30813,90.0978635 C1174.30813,83.4384562 1176.16885,77.1707788 1179.79235,71.686561 C1183.41585,66.2023432 1188.41041,61.7953825 1194.58015,58.7594762 C1200.84783,55.6256375 1207.89897,54.0587181 1215.63563,54.0587181 C1228.26892,54.0587181 1238.55183,57.8780841 1246.38642,65.516816 C1254.22102,73.1555479 1258.13832,84.4177808 1258.13832,99.0097174 L1258.13832,163.841006 C1258.13832,166.583115 1259.01971,168.933494 1260.88043,170.892143 C1262.93701,173.046657 1265.77705,174.025982 1269.20469,173.634252 C1270.57574,173.53632 1271.9468,173.046657 1273.02405,172.165265 C1275.86409,170.108684 1277.33308,167.268642 1277.33308,163.841006 L1277.33308,99.0097174 C1277.33308,85.6909028 1274.78684,74.1348725 1269.59642,64.5374914 C1264.406,54.9401103 1257.25693,47.5951757 1248.24714,42.6006203 Z" id="Path"></path>
                <path d="M615.701378,66.6920055 C610.706823,56.5070296 603.459821,48.4765679 594.352102,42.6985527 C585.244383,36.9205376 574.569745,34.0804962 562.81785,34.0804962 C550.674225,34.0804962 539.705789,37.1164025 530.20634,42.9923501 C520.706892,48.8682977 513.166092,57.2904893 507.779807,67.867195 C502.393522,78.4439008 499.749345,90.5875258 499.749345,104.102205 C499.749345,117.42102 502.589387,129.564645 508.269469,140.043418 C513.949552,150.620124 521.882081,158.944383 531.969125,164.918263 C542.056168,170.794211 553.612198,173.830117 566.441351,173.830117 C573.98215,173.830117 581.91468,172.263198 590.043074,169.227292 C598.171468,166.191385 605.02674,162.274087 610.315093,157.573329 C612.17581,155.810544 613.057202,153.851895 613.057202,151.501516 C613.057202,148.955272 611.979945,146.506961 609.825431,144.450379 C607.964714,143.079325 606.20193,142.393797 604.341213,142.393797 C601.990834,142.393797 599.738387,143.27519 597.583873,144.940041 C594.156237,148.07388 589.455479,150.718057 583.677464,152.676706 C577.899449,154.733287 572.121433,155.810544 566.441351,155.810544 C553.220469,155.810544 541.958236,151.599449 533.144314,143.177257 C524.428325,134.852998 519.335837,123.982495 517.964783,110.66368 C517.964783,110.66368 513.85162,82.5570641 532.850517,63.6560992 C540.685114,55.9194349 550.772157,52.0021365 562.81785,52.0021365 C574.667677,52.0021365 584.460924,55.9194349 592.001723,63.6560992 C599.44459,71.2948312 603.949483,81.479807 605.222605,93.9172295 L543.72102,93.9172295 L539.607857,93.9172295 C537.061613,93.9172295 535.005031,94.7006892 533.536044,96.2676085 C532.067057,97.8345279 531.283598,99.7931771 531.283598,102.143556 C531.283598,104.6898 532.067057,106.648449 533.536044,108.215369 C535.102963,109.782288 537.061613,110.565748 539.607857,110.565748 L543.72102,110.565748 L614.330324,110.565748 C616.9745,110.565748 619.129014,109.684356 620.793866,108.117436 C622.458718,106.452584 623.34011,104.200138 623.34011,101.458029 C623.34011,88.5309442 620.793866,76.8769814 615.701378,66.6920055 Z" id="Path"></path>
                <path d="M1412.96954,66.6920055 C1407.97498,56.5070296 1400.72798,48.4765679 1391.62026,42.6985527 C1382.51254,36.9205376 1371.8379,34.0804962 1360.08601,34.0804962 C1347.94238,34.0804962 1336.97395,37.1164025 1327.4745,42.9923501 C1317.97505,48.8682977 1310.43425,57.2904893 1305.04797,67.867195 C1299.66168,78.4439008 1297.01751,90.5875258 1297.01751,104.102205 C1297.01751,117.42102 1299.85755,129.564645 1305.53763,140.043418 C1311.21771,150.620124 1319.15024,158.944383 1329.23728,164.918263 C1339.32433,170.794211 1350.88036,173.830117 1363.70951,173.830117 C1371.25031,173.830117 1379.18284,172.263198 1387.31123,169.227292 C1395.43963,166.191385 1402.2949,162.274087 1407.58325,157.573329 C1409.44397,155.810544 1410.32536,153.851895 1410.32536,151.501516 C1410.32536,148.955272 1409.2481,146.506961 1407.09359,144.450379 C1405.23287,143.079325 1403.47009,142.393797 1401.60937,142.393797 C1399.25899,142.393797 1397.00655,143.27519 1394.85203,144.940041 C1391.4244,148.07388 1386.72364,150.718057 1380.94562,152.676706 C1375.16761,154.733287 1369.38959,155.810544 1363.70951,155.810544 C1350.48863,155.810544 1339.2264,151.599449 1330.41247,143.177257 C1321.69649,134.852998 1316.604,123.982495 1315.23294,110.66368 C1315.23294,110.66368 1311.11978,82.5570641 1330.11868,63.6560992 C1337.95327,55.9194349 1348.04032,52.0021365 1360.08601,52.0021365 C1371.93584,52.0021365 1381.72908,55.9194349 1389.26988,63.6560992 C1396.71275,71.2948312 1401.21764,81.479807 1402.49076,93.9172295 L1340.98918,93.9172295 L1336.87602,93.9172295 C1334.32977,93.9172295 1332.27319,94.7006892 1330.8042,96.2676085 C1329.33522,97.8345279 1328.55176,99.7931771 1328.55176,102.143556 C1328.55176,104.6898 1329.33522,106.648449 1330.8042,108.215369 C1332.37112,109.782288 1334.32977,110.565748 1336.87602,110.565748 L1340.98918,110.565748 L1411.59848,110.565748 C1414.24266,110.565748 1416.39717,109.684356 1418.06203,108.117436 C1419.72688,106.452584 1420.60827,104.200138 1420.60827,101.458029 C1420.51034,88.5309442 1417.96409,76.8769814 1412.96954,66.6920055 Z" id="Path"></path>
            </g>
        </g>
    </g>
</svg>