<?xml version="1.0" encoding="utf-8"?>
<!-- Generator: Adobe Illustrator 16.0.4, SVG Export Plug-In . SVG Version: 6.00 Build 0)  -->
<!DOCTYPE svg PUBLIC "-//W3C//DTD SVG 1.0//EN" "http://www.w3.org/TR/2001/REC-SVG-20010904/DTD/svg10.dtd">
<svg version="1.0" id="Ebene_1" xmlns="http://www.w3.org/2000/svg" xmlns:xlink="http://www.w3.org/1999/xlink" x="0px" y="0px"
	 width="237.734px" height="44.818px" viewBox="0 0 237.734 44.818" enable-background="new 0 0 237.734 44.818"
	 xml:space="preserve">
<g>
	<path fill="#293138" d="M64.394,40.996h-1.186l-1.955-7.195h-0.025l-1.979,7.195h-1.188l-2.195-8.562h1.164l1.68,7.123h0.023
		l1.92-7.123h1.234l1.895,7.123h0.025l1.738-7.123h1.139L64.394,40.996z"/>
	<path fill="#293138" d="M69.462,33.681h-1.02v-1.247h1.02V33.681z M68.443,34.796h1.02v6.2h-1.02V34.796z"/>
	<path fill="#293138" d="M71.791,34.796h0.961v1.308h0.023c0.492-0.996,1.176-1.487,2.279-1.451v1.079
		c-1.645,0-2.244,0.936-2.244,2.507v2.758h-1.02V34.796z"/>
	<path fill="#293138" d="M80.755,32.434h1.02v3.202h0.023c0.336-0.685,1.127-0.983,1.979-0.983c1.906,0,2.855,1.511,2.855,3.262
		c0,1.752-0.936,3.227-2.832,3.227c-0.635,0-1.547-0.24-2.002-0.972h-0.023v0.827h-1.02V32.434z M83.632,35.552
		c-1.367,0-1.895,1.175-1.895,2.339c0,1.223,0.553,2.351,1.955,2.351c1.391,0,1.859-1.188,1.859-2.399
		C85.552,36.68,84.953,35.552,83.632,35.552z"/>
	<path fill="#293138" d="M93.916,39.029c-0.275,1.367-1.26,2.111-2.65,2.111c-1.979,0-2.939-1.367-2.975-3.262
		c-0.023-1.859,1.223-3.227,2.914-3.227c2.195,0,2.867,2.051,2.807,3.55h-4.641c-0.037,1.079,0.574,2.039,1.93,2.039
		c0.84,0,1.428-0.408,1.607-1.212H93.916z M92.931,37.303c-0.047-0.972-0.779-1.751-1.787-1.751c-1.066,0-1.703,0.804-1.773,1.751
		H92.931z"/>
	<path fill="#293138" d="M101.98,40.996h-1.08l-1.26-4.929h-0.023l-1.248,4.929h-1.104l-1.99-6.2h1.127l1.404,5.073h0.023
		l1.248-5.073h1.115l1.295,5.073h0.023l1.393-5.073h1.055L101.98,40.996z"/>
	<path fill="#293138" d="M111.015,39.029c-0.275,1.367-1.258,2.111-2.65,2.111c-1.979,0-2.938-1.367-2.975-3.262
		c-0.023-1.859,1.225-3.227,2.916-3.227c2.193,0,2.865,2.051,2.807,3.55h-4.643c-0.035,1.079,0.576,2.039,1.932,2.039
		c0.84,0,1.426-0.408,1.607-1.212H111.015z M110.033,37.303c-0.049-0.972-0.779-1.751-1.787-1.751c-1.068,0-1.703,0.804-1.775,1.751
		H110.033z"/>
	<path fill="#293138" d="M118.287,40.469c0,2.016-0.922,3.047-2.877,3.047c-1.164,0-2.508-0.469-2.566-1.824h1.02
		c0.047,0.744,0.936,1.008,1.605,1.008c1.332,0,1.859-0.959,1.859-2.35v-0.408h-0.023c-0.336,0.756-1.152,1.127-1.932,1.127
		c-1.846,0-2.77-1.451-2.77-3.143c0-1.463,0.719-3.273,2.865-3.273c0.781,0,1.477,0.348,1.848,1.031h-0.012h0.023v-0.888h0.959
		V40.469z M117.281,37.771c0-1.091-0.48-2.219-1.764-2.219c-1.307,0-1.836,1.067-1.836,2.255c0,1.115,0.408,2.362,1.752,2.362
		S117.281,38.934,117.281,37.771z"/>
	<path fill="#293138" d="M125.908,39.029c-0.275,1.367-1.26,2.111-2.65,2.111c-1.979,0-2.939-1.367-2.975-3.262
		c-0.023-1.859,1.223-3.227,2.914-3.227c2.195,0,2.867,2.051,2.807,3.55h-4.641c-0.037,1.079,0.574,2.039,1.93,2.039
		c0.84,0,1.428-0.408,1.607-1.212H125.908z M124.923,37.303c-0.047-0.972-0.779-1.751-1.787-1.751c-1.066,0-1.703,0.804-1.773,1.751
		H124.923z"/>
	<path fill="#293138" d="M127.83,34.796h0.961v0.983h0.023c0.432-0.768,1.127-1.127,2.014-1.127c1.633,0,2.135,0.936,2.135,2.267
		v4.077h-1.02v-4.197c0-0.756-0.479-1.247-1.258-1.247c-1.236,0-1.836,0.827-1.836,1.942v3.502h-1.02V34.796z"/>
	<path fill="#293138" d="M145.539,40.996h-1.078l-1.26-4.929h-0.023l-1.248,4.929h-1.104l-1.99-6.2h1.127l1.402,5.073h0.025
		l1.246-5.073h1.115l1.295,5.073h0.025l1.391-5.073h1.055L145.539,40.996z"/>
	<path fill="#293138" d="M154.767,40.973c-0.18,0.107-0.408,0.168-0.73,0.168c-0.529,0-0.865-0.288-0.865-0.959
		c-0.562,0.659-1.318,0.959-2.182,0.959c-1.127,0-2.051-0.504-2.051-1.739c0-1.403,1.043-1.703,2.098-1.907
		c1.129-0.215,2.088-0.144,2.088-0.911c0-0.888-0.732-1.031-1.379-1.031c-0.863,0-1.5,0.264-1.547,1.175h-1.02
		c0.059-1.535,1.246-2.074,2.625-2.074c1.117,0,2.328,0.252,2.328,1.703v3.189c0,0.48,0,0.696,0.324,0.696
		c0.082,0,0.18-0.013,0.311-0.06V40.973z M153.113,37.795c-0.396,0.287-1.164,0.299-1.848,0.42
		c-0.672,0.119-1.248,0.359-1.248,1.115c0,0.671,0.576,0.911,1.201,0.911c1.342,0,1.895-0.84,1.895-1.403V37.795z"/>
	<path fill="#293138" d="M157.123,39.041c0.035,0.912,0.826,1.2,1.666,1.2c0.637,0,1.5-0.144,1.5-0.924
		c0-0.792-1.008-0.923-2.027-1.151c-1.008-0.228-2.027-0.563-2.027-1.751c0-1.247,1.236-1.763,2.314-1.763
		c1.367,0,2.459,0.432,2.543,1.943h-1.02c-0.072-0.793-0.768-1.044-1.439-1.044c-0.611,0-1.318,0.167-1.318,0.792
		c0,0.73,1.078,0.863,2.027,1.078c1.02,0.24,2.025,0.564,2.025,1.764c0,1.475-1.379,1.955-2.639,1.955
		c-1.391,0-2.566-0.564-2.625-2.1H157.123z"/>
	<path fill="#293138" d="M163.505,39.666h1.332v1.33h-1.332V39.666z"/>
</g>
<g>
	<path fill="#293138" d="M64.398,22.46v-1.89h-0.09c-0.86,1.541-2.24,2.31-4.141,2.31c-1.3,0-2.27-0.36-2.91-1.08
		c-0.74-0.84-1.109-2.24-1.109-4.2V6.32h3.24V17.9c0,1.601,0.729,2.4,2.189,2.4c0.74,0,1.365-0.235,1.875-0.705
		c0.51-0.469,0.766-1.135,0.766-1.995V6.32h3.24v16.14H64.398z"/>
	<path fill="#293138" d="M71.861,22.46V6.32h3.061v1.89h0.09c0.859-1.54,2.15-2.31,3.87-2.31c1.92,0,3.17,0.82,3.75,2.46
		c0.979-1.64,2.34-2.46,4.08-2.46c2.62,0,3.931,1.43,3.931,4.29v12.27h-3.24V11.39c0-1.94-0.65-2.91-1.951-2.91
		c-0.699,0-1.289,0.26-1.77,0.78c-0.539,0.581-0.81,1.37-0.81,2.37v10.83h-3.24V11.39c0-1.94-0.66-2.91-1.979-2.91
		c-0.701,0-1.291,0.26-1.771,0.78c-0.521,0.581-0.78,1.37-0.78,2.37v10.83H71.861z"/>
	<path fill="#293138" d="M94.136,22.46v-2.52l7.05-10.89h-6.63V6.32h10.29v2.67l-6.78,10.74h6.78v2.73H94.136z"/>
	<path fill="#293138" d="M116.535,22.46v-1.89h-0.09c-0.861,1.541-2.24,2.31-4.141,2.31c-1.301,0-2.27-0.36-2.91-1.08
		c-0.74-0.84-1.109-2.24-1.109-4.2V6.32h3.239V17.9c0,1.601,0.729,2.4,2.19,2.4c0.739,0,1.365-0.235,1.875-0.705
		c0.51-0.469,0.765-1.135,0.765-1.995V6.32h3.24v16.14H116.535z"/>
	<path fill="#293138" d="M124.007,23.84h3.059c0,0.52,0.215,0.97,0.646,1.35c0.431,0.381,0.995,0.57,1.695,0.57
		c0.84,0,1.505-0.27,1.995-0.81s0.734-1.28,0.734-2.22v-2.61h-0.06c-0.3,0.68-0.785,1.22-1.455,1.62c-0.671,0.4-1.405,0.6-2.205,0.6
		c-3.22,0-4.83-2.71-4.83-8.13c0-5.54,1.71-8.31,5.13-8.31c0.9,0,1.689,0.25,2.37,0.75c0.62,0.46,1.01,1.01,1.171,1.65h0.059V6.32
		h3.061v15.36c0,4.2-2.01,6.3-6.029,6.3c-2.101,0-3.591-0.521-4.471-1.561C124.296,25.72,124.007,24.859,124.007,23.84z
		 M126.827,13.88c0,1.84,0.12,3.16,0.36,3.96c0.379,1.28,1.1,1.92,2.16,1.92c1.859,0,2.789-1.91,2.789-5.73
		c0-3.7-0.859-5.55-2.58-5.55c-1.08,0-1.83,0.521-2.25,1.56C126.986,10.86,126.827,12.14,126.827,13.88z"/>
	<path fill="#293138" d="M149.708,11.03h-3.061v-0.42c0-1.66-0.711-2.49-2.131-2.49c-1.54,0-2.31,0.7-2.31,2.1
		c0,0.621,0.159,1.095,0.479,1.425s0.92,0.645,1.801,0.945l2.07,0.72c1.219,0.42,2.109,0.99,2.67,1.71
		c0.561,0.72,0.84,1.7,0.84,2.94c0,1.64-0.561,2.89-1.68,3.75c-1.001,0.78-2.371,1.17-4.111,1.17c-1.939,0-3.33-0.45-4.17-1.35
		c-0.76-0.78-1.14-2-1.14-3.66v-0.6h2.88v0.51c0,1.92,0.84,2.88,2.521,2.88c1.759,0,2.64-0.79,2.64-2.37c0-1.16-0.59-1.95-1.77-2.37
		l-2.641-0.93c-1.24-0.439-2.125-1.009-2.654-1.71c-0.531-0.7-0.795-1.68-0.795-2.94c0-1.479,0.489-2.59,1.47-3.33
		c0.979-0.739,2.329-1.11,4.05-1.11c3.359,0,5.041,1.47,5.041,4.41V11.03z"/>
	<path fill="#293138" d="M157.117,11.27h-1.799c0-3.4,1.639-5.1,4.92-5.1c3,0,4.5,1.41,4.5,4.23v9.42c0,0.88,0.309,1.32,0.93,1.32
		h0.51v1.32c-0.32,0.12-0.6,0.18-0.84,0.18c-0.779,0-1.34-0.12-1.68-0.36c-0.42-0.3-0.631-0.84-0.631-1.62v-0.54h-0.061
		c-0.619,1.8-1.99,2.7-4.109,2.7c-2.699,0-4.049-1.5-4.049-4.5c0-2.34,1.068-3.81,3.209-4.41l3.391-0.96
		c0.699-0.2,1.148-0.49,1.35-0.87c0.119-0.28,0.18-0.83,0.18-1.65c0-1.84-0.92-2.76-2.76-2.76
		C158.138,7.67,157.117,8.87,157.117,11.27z M162.937,16.82v-3.36h-0.061c-0.139,0.4-0.779,0.75-1.92,1.05l-1.5,0.39
		c-1.82,0.48-2.729,1.58-2.729,3.3c0,0.94,0.225,1.695,0.674,2.265c0.451,0.57,1.064,0.855,1.846,0.855c1.119,0,2.014-0.4,2.686-1.2
		C162.603,19.32,162.937,18.22,162.937,16.82z"/>
	<path fill="#293138" d="M169.357,18.56V6.53h1.801v11.22c0,1.28,0.219,2.195,0.66,2.745c0.439,0.55,1.139,0.825,2.1,0.825
		c1.02,0,1.855-0.375,2.504-1.125c0.65-0.75,0.977-1.735,0.977-2.955V6.53h1.799v15.93h-1.619v-2.22h-0.061
		c-0.881,1.721-2.24,2.58-4.08,2.58C170.716,22.82,169.357,21.4,169.357,18.56z"/>
	<path fill="#293138" d="M183.558,22.46V1.04h1.801v13.41l6.225-7.92h2.236l-4.801,5.91l5.67,10.02h-2.221l-4.738-8.4l-2.371,2.82
		v5.58H183.558z"/>
	<path fill="#293138" d="M198.578,19.85V8.03h-2.191v-1.5h2.191V2.12h1.799v4.41h2.82v1.5h-2.82v11.43c0,1.12,0.57,1.68,1.711,1.68
		c0.359,0,0.729-0.06,1.109-0.18v1.5c-0.199,0.12-0.621,0.18-1.26,0.18c-1.24,0-2.111-0.2-2.609-0.6
		C198.826,21.64,198.578,20.91,198.578,19.85z"/>
	<path fill="#293138" d="M206.476,4.1V1.04h1.799V4.1H206.476z M206.476,22.46V6.53h1.799v15.93H206.476z"/>
	<path fill="#293138" d="M212.191,14.48c0-5.54,1.83-8.31,5.488-8.31c3.66,0,5.49,2.771,5.49,8.31c0,5.56-1.83,8.34-5.49,8.34
		C214.021,22.82,212.191,20.04,212.191,14.48z M214.111,14.48c0,4.56,1.189,6.84,3.568,6.84c2.381,0,3.57-2.28,3.57-6.84
		c0-4.54-1.189-6.81-3.57-6.81C215.3,7.67,214.111,9.94,214.111,14.48z"/>
	<path fill="#293138" d="M226.964,22.46V6.53h1.621v2.22h0.059c0.881-1.72,2.24-2.58,4.08-2.58c2.721,0,4.08,1.42,4.08,4.26v12.03
		h-1.799V10.94c0-2.18-0.91-3.27-2.73-3.27c-1.061,0-1.91,0.375-2.551,1.125s-0.959,1.735-0.959,2.955v10.71H226.964z"/>
</g>
<g>
	<polygon fill="#1CCFC9" points="36.824,23.619 23.046,9.982 9.41,23.765 23.189,37.408 	"/>
	
		<rect x="25.318" y="6.826" transform="matrix(0.7108 0.7034 -0.7034 0.7108 18.3371 -21.2525)" fill="#1CCFC9" width="19.389" height="9.693"/>
	
		<rect x="1.403" y="6.954" transform="matrix(-0.7033 0.7109 -0.7109 -0.7033 27.2908 12.2138)" fill="#1CCFC9" width="19.388" height="9.695"/>
</g>
</svg>
