<svg width="142" height="40" viewBox="0 0 142 40" fill="none" xmlns="http://www.w3.org/2000/svg">
<g clip-path="url(#clip0)">
<path d="M140.999 1.07278C140.4 0.472397 139.588 0.134426 138.74 0.133209L3.24319 0C2.39529 0 1.58211 0.336827 0.982558 0.936384C0.383001 1.53594 0.046173 2.34911 0.046173 3.19702L0.00177002 36.668C0.00177002 37.5159 0.338598 38.3291 0.938155 38.9286C1.53771 39.5282 2.35088 39.865 3.19879 39.865L138.695 39.9964C139.543 39.9964 140.356 39.6596 140.956 39.0601C141.556 38.4605 141.892 37.6473 141.892 36.7994L141.935 3.32667C141.933 2.48116 141.597 1.67074 140.999 1.07278V1.07278Z" fill="#327AB9"/>
<path d="M140.999 1.07278C140.4 0.472397 139.588 0.134426 138.74 0.133209L3.24319 0C2.39529 0 1.58211 0.336827 0.982558 0.936384C0.383001 1.53594 0.046173 2.34911 0.046173 3.19702L0.00177002 36.668C0.00177002 37.5159 0.338598 38.3291 0.938155 38.9286C1.53771 39.5282 2.35088 39.865 3.19879 39.865L25.7431 39.8881L138.704 39.9964C139.552 39.9964 140.365 39.6596 140.965 39.0601C141.564 38.4605 141.901 37.6473 141.901 36.7994L141.914 25.1126L141.942 3.34088C141.942 2.91932 141.859 2.50189 141.697 2.11264C141.535 1.72338 141.298 1.36998 140.999 1.07278V1.07278Z" fill="#327AB9"/>
<path opacity="0.51" d="M139.882 39.8845L119.682 10.456C119.682 10.456 112.697 11.7206 112.327 15.3155C112.126 15.1485 109.411 11.7135 108.7 11.1824C104.734 10.2091 101.574 13.7454 101.574 13.7454L99.0879 10.4187C91.2286 9.88586 90.2198 14.6192 90.2198 14.6192L87.7989 11.3849C79.3996 9.46847 79.2646 14.8785 79.2646 14.8785C79.2646 14.8785 76.2399 11.1167 76.3412 11.0812C73.4514 9.09726 68.9827 13.5003 68.9827 13.5003L66.9615 10.4098C61.0186 10.3441 57.8944 14.4416 57.8944 14.4416L55.4416 10.948C51.1078 10.3761 48.7083 13.1859 48.7083 13.1859L46.3993 9.67095C45.7191 9.37611 43.1064 12.8964 43.1064 12.8964L38.0267 5.46332L38.9396 21.5887L32.5456 13.7187L31.2082 13.9461L24.4589 5.72618L9.71713 8.65678L16.2888 16.7683C16.2888 16.7683 16.2515 17.58 15.6511 17.0632C14.5606 16.1271 12.4541 13.5464 11.3121 13.1379C10.472 12.8378 9.95336 13.0687 10.2464 14.399C9.96757 14.2516 9.12924 13.5553 8.82552 14.0438C7.40463 16.3349 7.25543 16.7079 7.25543 16.7079L23.7733 39.8277L25.7271 39.8916L139.882 39.8845Z" fill="#003F81"/>
<path d="M41.0852 16.4984L44.2094 5.46334C44.5646 5.40295 44.9199 5.35736 45.2751 5.32657C45.6303 5.29579 46.0063 5.2804 46.4029 5.2804C46.6622 5.2804 46.9802 5.29993 47.3603 5.33901C47.7404 5.37808 48.0707 5.41716 48.3638 5.46334L43.1189 21.7646C42.7246 21.825 42.3552 21.8711 42.0141 21.9013C41.6731 21.9315 41.341 21.9475 41.0231 21.9475C40.7051 21.9475 40.4068 21.9315 40.0888 21.9013C39.7709 21.8711 39.389 21.825 38.9468 21.7646L33.7214 5.46334C33.979 5.41716 34.3218 5.37631 34.7463 5.33901C35.1707 5.30171 35.5828 5.2804 35.9789 5.2804C36.329 5.28214 36.6787 5.3017 37.0268 5.33901C37.4069 5.37631 37.7372 5.41716 38.0303 5.46334L41.0852 16.4984Z" fill="white"/>
<path fill-rule="evenodd" clip-rule="evenodd" d="M17.136 10.5111C16.2888 10.6674 16.0366 10.2287 15.7151 9.8539V10.5111C15.5091 10.4098 15.1609 10.6443 14.9549 10.5111C14.9372 10.5004 14.9318 10.3601 14.9052 10.3601C14.6583 10.3601 14.55 10.5626 14.2978 10.5111C14.0686 10.4667 14.0153 10.2979 13.8413 10.1061C13.5731 10.1647 13.5482 10.4613 13.2854 10.5111C12.9301 10.5892 12.6637 10.3441 12.4239 10.4613C12.1569 10.3881 11.9126 10.2488 11.7135 10.0564C11.4808 10.1434 11.479 10.4631 11.2073 10.5111C10.3796 10.1843 9.71358 9.65675 9.63899 8.68877C9.38678 5.45978 14.0882 6.69596 17.0809 6.46151C17.953 5.06726 19.2993 3.91456 21.3827 4.03178C25.0024 4.23603 26.9295 8.93565 24.2689 11.6247C22.3578 13.5678 18.2958 13.2658 17.136 10.5111ZM21.7432 9.70115C23.4608 9.87877 23.5194 6.94994 21.642 7.32293C20.3401 7.58047 20.3898 9.56439 21.7432 9.70115Z" fill="white"/>
<path fill-rule="evenodd" clip-rule="evenodd" d="M14.3511 15.7772C14.1095 15.8216 13.9781 15.9762 13.7951 16.081C12.598 15.1503 11.7864 13.8377 10.3015 13.1948C11.0741 12.5252 12.1842 13.55 12.8325 14.1574C13.3709 14.6663 13.878 15.2072 14.3511 15.7772V15.7772Z" fill="white"/>
<path fill-rule="evenodd" clip-rule="evenodd" d="M13.1877 16.6885C13.0078 16.9335 12.8709 17.2074 12.7827 17.4984C11.4027 16.4132 10.4187 14.9337 8.83264 14.0563C9.02091 13.8786 9.09906 13.7223 9.44185 13.7525C10.9906 13.8857 12.1327 15.9762 13.1877 16.6885Z" fill="white"/>
<path fill-rule="evenodd" clip-rule="evenodd" d="M6.90912 16.0294V15.5215C7.49879 13.3812 9.62303 15.5517 10.4614 16.3829C11.3583 17.2709 12.1345 18.0382 12.7383 18.6599C13.0474 19.9831 14.01 20.8925 15.5233 21.0399C17.6387 21.2441 20.6332 21.0399 22.4075 20.7362C20.7984 19.5515 16.7843 20.8552 14.7702 20.0257C13.9532 19.6918 13.1344 18.7096 13.5056 17.6457C14.058 16.0614 15.8981 16.1786 18.0614 16.1786C18.8571 16.1786 19.8482 16.3456 20.5479 16.1786C20.8499 16.104 21.1891 15.7186 21.5088 15.5197C23.205 14.454 26.5814 14.2604 27.9899 15.6209V21.7468C25.6632 21.6899 24.3506 22.4892 22.7752 23.1677C21.7255 23.617 20.5941 24.173 19.4343 24.2813C18.1253 24.4038 16.6067 24.2014 15.383 23.9776C14.0989 23.7414 12.9248 23.4305 12.0421 22.9119C10.9764 22.2903 10.1736 21.0416 9.30866 19.976C8.28383 18.738 7.23415 17.6812 6.90912 16.0294Z" fill="white"/>
<path d="M46.648 17.9566C46.6223 17.3076 46.7891 16.6655 47.1276 16.1112C47.4396 15.6312 47.8616 15.2324 48.3584 14.9478C48.8747 14.6532 49.4375 14.449 50.0226 14.3439C50.6079 14.2301 51.2025 14.1706 51.7988 14.1663H53.1895C53.1846 13.9201 53.1054 13.6811 52.9621 13.4807C52.8252 13.299 52.6451 13.1544 52.4382 13.0598C52.2125 12.9573 51.9732 12.888 51.7277 12.8538C51.4636 12.8158 51.1971 12.7968 50.9302 12.7969C50.5018 12.8033 50.0746 12.8455 49.6532 12.923C49.1413 13.0131 48.638 13.1468 48.1488 13.3227C48.0103 13.0634 47.8931 12.8289 47.7936 12.6122C47.6986 12.4057 47.6243 12.1904 47.5716 11.9693C47.518 11.7442 47.4801 11.5157 47.4579 11.2855C47.4348 11.0492 47.4242 10.7793 47.4242 10.4756C48.1351 10.2383 48.8631 10.0555 49.6017 9.92851C50.2468 9.81489 50.9004 9.75548 51.5554 9.7509C52.2801 9.74227 53.0022 9.83859 53.6992 10.0369C54.3003 10.2054 54.8565 10.5051 55.3279 10.9143C55.7907 11.3286 56.1471 11.8483 56.367 12.4293C56.6238 13.135 56.7455 13.8827 56.7257 14.6334V21.3134C56.1491 21.4816 55.4499 21.6485 54.6281 21.8143C53.7727 21.9861 52.9021 22.0706 52.0297 22.0665C51.2982 22.0722 50.5682 21.9996 49.8521 21.8498C49.247 21.7279 48.6707 21.4916 48.1542 21.1536C47.6825 20.8344 47.3014 20.3988 47.0476 19.889C46.7636 19.2855 46.6266 18.6232 46.648 17.9566V17.9566ZM52.0297 19.2336C52.2275 19.2288 52.4249 19.2134 52.6211 19.1874C52.8128 19.1683 53.0031 19.1381 53.1912 19.0968V16.5872H51.8911C51.4195 16.5716 50.9532 16.6904 50.5466 16.93C50.3768 17.0245 50.2361 17.1636 50.1396 17.3324C50.0432 17.5011 49.9948 17.693 49.9995 17.8873C49.987 18.1405 50.0595 18.3906 50.2056 18.5977C50.3399 18.7717 50.5158 18.9091 50.7171 18.9974C50.9282 19.0882 51.1514 19.148 51.3796 19.175C51.5948 19.2083 51.8119 19.2279 52.0297 19.2336V19.2336Z" fill="white"/>
<path d="M57.4557 15.9283C57.4456 15.0767 57.5764 14.2293 57.8429 13.4204C58.0788 12.695 58.4676 12.0288 58.9832 11.4667C59.5004 10.9168 60.1306 10.4854 60.8303 10.2021C61.628 9.88638 62.4805 9.73243 63.3382 9.74916C63.6561 9.74916 63.9598 9.74916 64.2494 9.77224C64.5356 9.78683 64.8209 9.81766 65.1037 9.8646C65.3972 9.91146 65.6869 9.97973 65.9704 10.0689C66.2676 10.16 66.598 10.2737 66.9615 10.4099C66.9919 10.927 66.9465 11.4458 66.8265 11.9498C66.7003 12.4692 66.5087 12.9705 66.2564 13.4417C65.9971 13.3529 65.7662 13.2801 65.5601 13.2268C65.3541 13.1735 65.1623 13.1309 64.9793 13.1007C64.8031 13.0709 64.6251 13.0519 64.4465 13.0439C64.2689 13.0439 64.0913 13.0332 63.8888 13.0332C63.2238 13.0101 62.5751 13.2421 62.0754 13.6815C61.6018 14.1149 61.3649 14.8638 61.3649 15.9283C61.3509 16.4053 61.4243 16.8809 61.5816 17.3314C61.6998 17.6642 61.8952 17.9643 62.1518 18.207C62.3867 18.4204 62.6674 18.5772 62.9723 18.6653C63.2946 18.7571 63.6283 18.8026 63.9634 18.8003C64.3501 18.8061 64.7362 18.7679 65.1143 18.6866C65.5059 18.5933 65.8909 18.4746 66.267 18.3314C66.5329 18.7611 66.7396 19.2247 66.8816 19.7096C67.0415 20.2769 67.1181 20.8645 67.1089 21.4538C66.4949 21.7072 65.8527 21.8861 65.196 21.9866C64.6213 22.063 64.0423 22.1016 63.4625 22.1021C62.5841 22.1179 61.7103 21.971 60.8854 21.6687C60.1731 21.4006 59.5302 20.9757 59.0045 20.4254C58.4863 19.8695 58.0937 19.2087 57.8535 18.4877C57.5787 17.6628 57.4442 16.7977 57.4557 15.9283V15.9283Z" fill="white"/>
<path d="M67.4109 17.9566C67.3854 17.3079 67.5516 16.6661 67.8886 16.1112C68.2009 15.6307 68.6235 15.2318 69.1212 14.9478C69.6374 14.6529 70.2003 14.4487 70.7855 14.344C71.3708 14.2301 71.9653 14.1706 72.5616 14.1663H73.9523C73.9468 13.9199 73.8669 13.681 73.7232 13.4808C73.5869 13.2991 73.4074 13.1544 73.201 13.0598C72.9752 12.9575 72.736 12.8881 72.4905 12.8538C72.2264 12.8157 71.9599 12.7968 71.6931 12.797C71.2646 12.8034 70.8375 12.8455 70.416 12.9231C69.9042 13.0135 69.4009 13.1472 68.9117 13.3227C68.7749 13.0634 68.6577 12.8289 68.5564 12.6122C68.4622 12.4055 68.3879 12.1902 68.3344 11.9693C68.28 11.7444 68.242 11.5159 68.2208 11.2855C68.1977 11.0493 68.1852 10.7793 68.1852 10.4756C68.8962 10.2386 69.6242 10.0557 70.3628 9.92853C71.0079 9.81507 71.6614 9.75566 72.3165 9.75091C73.0406 9.74216 73.7621 9.83848 74.4585 10.0369C75.0602 10.205 75.6171 10.5047 76.089 10.9143C76.5512 11.3291 76.9075 11.8486 77.128 12.4293C77.3823 13.1343 77.5028 13.8807 77.4832 14.6299V21.3099C76.9042 21.478 76.205 21.645 75.3856 21.8108C74.5302 21.9825 73.6596 22.067 72.7872 22.063C72.0551 22.0687 71.3245 21.996 70.6079 21.8463C70.0027 21.7244 69.4264 21.4881 68.9099 21.15C68.4388 20.8308 68.0582 20.3952 67.8052 19.8854C67.5235 19.2826 67.3884 18.6216 67.4109 17.9566V17.9566ZM72.7925 19.2336C72.9903 19.2287 73.1877 19.2133 73.3839 19.1874C73.5756 19.1683 73.7659 19.1381 73.9541 19.0969V16.5872H72.6539C72.1823 16.5716 71.716 16.6905 71.3094 16.93C71.1396 17.0245 70.9989 17.1637 70.9025 17.3324C70.8061 17.5011 70.7576 17.693 70.7624 17.8873C70.7498 18.1405 70.8223 18.3906 70.9684 18.5978C71.1028 18.7717 71.2787 18.9091 71.4799 18.9974C71.6911 19.0882 71.9142 19.148 72.1424 19.175C72.3576 19.2083 72.5748 19.2279 72.7925 19.2336V19.2336Z" fill="white"/>
<path d="M83.1953 9.79534C83.8681 9.798 84.5394 9.85741 85.2023 9.97296C85.8503 10.0764 86.4683 10.3187 87.0139 10.6834C87.5841 11.0834 88.0402 11.6252 88.3371 12.2553C88.6781 12.9385 88.8486 13.8431 88.8486 14.9692V21.7859C88.4966 21.856 88.1408 21.9052 87.783 21.9334C87.4633 21.9564 87.1826 21.9671 86.9393 21.9671C86.696 21.9671 86.3923 21.9564 86.0726 21.9334C85.7148 21.9051 85.3589 21.8559 85.0069 21.7859V15.3812C85.0069 14.5749 84.8547 13.9971 84.5504 13.6477C84.2461 13.2984 83.7826 13.1208 83.1597 13.1149C82.9811 13.1154 82.8029 13.1308 82.6269 13.1611C82.5043 13.1717 82.3843 13.2023 82.2717 13.2517V21.7771C81.9197 21.8471 81.5638 21.8963 81.206 21.9245C80.8863 21.9476 80.6057 21.9582 80.3641 21.9582C80.1226 21.9582 79.8153 21.9476 79.4956 21.9245C79.1378 21.8961 78.782 21.8469 78.4299 21.7771V10.5875C79.067 10.3771 79.7143 10.1992 80.3694 10.0547C81.2991 9.86564 82.2467 9.77869 83.1953 9.79534V9.79534Z" fill="white"/>
<path d="M89.5786 15.9283C89.5685 15.0767 89.6993 14.2293 89.9658 13.4204C90.2024 12.6953 90.5912 12.0292 91.1061 11.4666C91.6234 10.9168 92.2535 10.4854 92.9533 10.202C93.7507 9.88514 94.6032 9.72998 95.4611 9.74558C95.7791 9.74558 96.0846 9.74558 96.3723 9.76867C96.6592 9.78325 96.945 9.81408 97.2284 9.86102C97.5213 9.90788 97.8104 9.97615 98.0933 10.0653C98.3917 10.1559 98.7203 10.2695 99.0862 10.4063C99.1163 10.9236 99.0697 11.4426 98.9477 11.9462C98.823 12.4661 98.6314 12.9676 98.3775 13.4381C98.12 13.3493 97.8891 13.2765 97.6831 13.2232C97.477 13.1699 97.2852 13.1273 97.1023 13.0971C96.926 13.0673 96.748 13.0483 96.5694 13.0403C96.3954 13.0332 96.2089 13.0296 96.01 13.0296C95.3455 13.0068 94.6975 13.2387 94.1983 13.6779C93.7188 14.1113 93.4819 14.8602 93.4879 15.9247C93.4746 16.4017 93.548 16.8771 93.7046 17.3278C93.8227 17.6607 94.0181 17.9608 94.2747 18.2035C94.5099 18.4165 94.7905 18.5732 95.0953 18.6617C95.4175 18.7536 95.7512 18.799 96.0863 18.7967C96.4736 18.8026 96.8603 18.7645 97.239 18.683C97.6294 18.5899 98.0133 18.4712 98.3882 18.3278C98.6559 18.7567 98.8633 19.2205 99.0045 19.7061C99.1651 20.2733 99.2422 20.8608 99.2336 21.4502C98.6184 21.7039 97.975 21.8828 97.3172 21.9831C96.7431 22.0595 96.1646 22.0981 95.5855 22.0985C94.707 22.1142 93.8333 21.9673 93.0083 21.6651C92.296 21.397 91.6532 20.9721 91.1274 20.4218C90.6092 19.866 90.2167 19.2051 89.9765 18.4841C89.702 17.6604 89.5675 16.7964 89.5786 15.9283V15.9283Z" fill="white"/>
<path d="M103.091 17.136C103.258 17.7588 103.551 18.1999 103.969 18.4592C104.473 18.7386 105.045 18.8726 105.621 18.8464C106.119 18.8405 106.615 18.787 107.104 18.6866C107.657 18.5782 108.199 18.4176 108.722 18.207C108.957 18.6598 109.145 19.1361 109.281 19.6279C109.442 20.1842 109.53 20.7592 109.542 21.3383C108.216 21.8367 106.81 22.0924 105.393 22.0932C104.435 22.1156 103.48 21.9609 102.578 21.6367C101.85 21.3692 101.195 20.9363 100.663 20.3721C100.161 19.8178 99.7872 19.1599 99.5676 18.445C99.3251 17.6545 99.2053 16.8315 99.2123 16.0046C99.2068 15.1777 99.3303 14.3549 99.5782 13.566C99.8034 12.8368 100.176 12.1616 100.672 11.5821C101.174 11.0079 101.797 10.5523 102.496 10.2482C103.303 9.90603 104.174 9.73895 105.05 9.75799C105.789 9.7449 106.521 9.88459 107.203 10.1683C107.813 10.4269 108.362 10.8119 108.812 11.2979C109.266 11.7988 109.612 12.3884 109.826 13.0296C110.068 13.7379 110.188 14.4819 110.182 15.2302C110.184 15.5999 110.164 15.9694 110.123 16.3367C110.086 16.6618 110.052 16.9317 110.022 17.1449L103.091 17.136ZM104.914 12.6442C104.457 12.6369 104.014 12.7996 103.67 13.1007C103.315 13.4044 103.114 13.8768 103.054 14.5215H106.693C106.679 14.0355 106.507 13.5672 106.203 13.1877C105.907 12.8265 105.477 12.6454 104.914 12.6442Z" fill="white"/>
<path d="M116.968 14.4239C117.395 14.5343 117.811 14.6829 118.211 14.8679C118.569 15.0322 118.893 15.2604 119.169 15.5411C119.445 15.8285 119.659 16.1703 119.796 16.5446C119.959 17.0049 120.037 17.4913 120.025 17.9797C120.029 18.5388 119.907 19.0916 119.67 19.5977C119.429 20.1082 119.069 20.5539 118.622 20.8979C118.109 21.2891 117.53 21.5828 116.911 21.7646C116.154 21.9894 115.366 22.0972 114.576 22.0843C113.896 22.0883 113.217 22.0349 112.546 21.9245C111.869 21.8048 111.205 21.6235 110.562 21.3827C110.653 20.2917 110.939 19.2258 111.405 18.2355C111.893 18.4648 112.406 18.6371 112.933 18.7488C113.458 18.8642 113.994 18.9238 114.531 18.9264C114.709 18.9264 114.904 18.9175 115.101 18.9033C115.283 18.8922 115.462 18.8576 115.634 18.8003C115.774 18.7551 115.902 18.6813 116.011 18.5836C116.068 18.5265 116.111 18.4563 116.136 18.379C116.16 18.3016 116.165 18.2195 116.15 18.1398C116.136 18.06 116.102 17.985 116.052 17.9212C116.002 17.8575 115.937 17.8068 115.863 17.7737C115.644 17.6666 115.415 17.5793 115.18 17.5126L113.629 17.0792C112.869 16.8768 112.176 16.4752 111.622 15.9158C111.09 15.3688 110.825 14.624 110.825 13.6815C110.815 13.1289 110.937 12.5819 111.178 12.0848C111.42 11.5877 111.775 11.1544 112.215 10.8202C112.678 10.4595 113.203 10.1868 113.764 10.0156C114.412 9.82624 115.085 9.73407 115.76 9.74206C116.395 9.74552 117.028 9.80495 117.652 9.91967C118.341 10.0453 119.02 10.2234 119.682 10.4525C119.643 10.9826 119.543 11.5065 119.384 12.0137C119.237 12.5193 119.046 13.0113 118.815 13.4843C118.333 13.2977 117.837 13.1475 117.332 13.035C116.809 12.9046 116.273 12.8355 115.734 12.829C115.023 12.829 114.668 13.0267 114.668 13.4222C114.668 13.5039 114.692 13.5839 114.736 13.6526C114.781 13.7212 114.844 13.7756 114.919 13.8094C115.1 13.9056 115.291 13.9818 115.489 14.0367L116.968 14.4239Z" fill="white"/>
<path d="M106.67 25.8852C106.757 25.8852 106.848 25.8852 106.938 25.8994L107.226 25.9314C107.244 26.0326 107.256 26.1285 107.265 26.2191C107.274 26.3097 107.279 26.3967 107.279 26.4873C107.279 26.5779 107.279 26.6649 107.265 26.7573C107.251 26.8496 107.244 26.9438 107.226 27.045C107.127 27.0628 107.031 27.0752 106.938 27.0841C106.846 27.093 106.761 27.0965 106.67 27.0965C106.58 27.0965 106.493 27.0965 106.402 27.0841C106.311 27.0716 106.214 27.0628 106.113 27.045C106.097 26.9438 106.082 26.8478 106.073 26.7573C106.065 26.6667 106.061 26.5797 106.061 26.4873C106.061 26.3949 106.061 26.3097 106.073 26.2191C106.086 26.1285 106.097 26.0415 106.113 25.9314L106.402 25.8994C106.493 25.8905 106.583 25.8852 106.67 25.8852Z" fill="white"/>
<path d="M107.842 25.3683C107.839 25.1241 107.876 24.881 107.953 24.649C108.021 24.4406 108.133 24.2492 108.281 24.0877C108.431 23.9322 108.613 23.811 108.814 23.7325C109.043 23.6414 109.288 23.5967 109.535 23.6011C109.627 23.6011 109.713 23.6011 109.796 23.6011C109.964 23.6073 110.13 23.6353 110.29 23.6845C110.377 23.7112 110.468 23.7449 110.576 23.784C110.584 23.9325 110.571 24.0815 110.537 24.2262C110.5 24.375 110.445 24.5187 110.373 24.6543C110.299 24.6277 110.233 24.6081 110.173 24.5921C110.118 24.5774 110.062 24.5656 110.006 24.5566C109.955 24.5479 109.904 24.5425 109.853 24.5406C109.801 24.5406 109.748 24.5406 109.691 24.5406C109.5 24.534 109.314 24.6008 109.171 24.7271C109.094 24.8145 109.036 24.9169 109 25.0279C108.965 25.1388 108.953 25.256 108.965 25.3718C108.96 25.5089 108.981 25.6457 109.027 25.775C109.061 25.8706 109.117 25.957 109.191 26.0272C109.258 26.088 109.339 26.1324 109.427 26.1569C109.519 26.1843 109.615 26.198 109.711 26.1977C109.822 26.1998 109.933 26.1885 110.041 26.164C110.154 26.1364 110.265 26.1014 110.373 26.0592C110.539 26.3286 110.623 26.6401 110.615 26.9561C110.438 27.0285 110.253 27.0792 110.064 27.1071C109.899 27.1284 109.733 27.1391 109.567 27.1391C109.315 27.1441 109.065 27.1019 108.828 27.0148C108.623 26.9396 108.437 26.8181 108.286 26.6595C108.138 26.5001 108.025 26.3105 107.956 26.1036C107.877 25.8666 107.839 25.618 107.842 25.3683Z" fill="white"/>
<path d="M110.832 25.3808C110.829 25.1334 110.865 24.8871 110.938 24.6508C111.005 24.4416 111.114 24.2486 111.26 24.0842C111.408 23.9268 111.59 23.8053 111.793 23.729C112.024 23.6397 112.271 23.5963 112.519 23.6011C112.769 23.596 113.019 23.6394 113.253 23.729C113.455 23.8053 113.637 23.9268 113.785 24.0842C113.93 24.2487 114.039 24.4417 114.105 24.6508C114.18 24.8868 114.216 25.1332 114.213 25.3808C114.216 25.6219 114.179 25.8618 114.105 26.0912C114.039 26.2971 113.93 26.4867 113.785 26.6472C113.638 26.8058 113.456 26.9275 113.253 27.0024C113.018 27.0899 112.769 27.1321 112.519 27.1267C112.271 27.1317 112.025 27.0895 111.793 27.0024C111.589 26.9275 111.407 26.8058 111.26 26.6472C111.114 26.4868 111.005 26.2973 110.938 26.0912C110.865 25.8615 110.829 25.6217 110.832 25.3808V25.3808ZM113.084 25.3808C113.097 25.1582 113.049 24.9362 112.943 24.7396C112.899 24.6673 112.835 24.6085 112.759 24.5694C112.683 24.5303 112.599 24.5124 112.514 24.5176C112.429 24.512 112.345 24.5298 112.27 24.569C112.195 24.6082 112.133 24.6672 112.089 24.7396C111.985 24.9367 111.937 25.1584 111.951 25.3808C111.938 25.6014 111.986 25.8214 112.089 26.0166C112.133 26.0891 112.195 26.1481 112.27 26.1873C112.345 26.2264 112.429 26.2442 112.514 26.2387C112.599 26.2438 112.683 26.2259 112.759 26.1868C112.835 26.1478 112.899 26.089 112.943 26.0166C113.047 25.8215 113.095 25.6013 113.08 25.3808H113.084Z" fill="white"/>
<path d="M116.132 23.6064C116.31 23.606 116.488 23.6203 116.664 23.649C116.836 23.6771 117 23.7374 117.149 23.8266C117.278 23.7645 117.411 23.7139 117.549 23.6756C117.718 23.6294 117.892 23.6073 118.068 23.6099C118.246 23.6099 118.425 23.6265 118.6 23.6597C118.778 23.6905 118.946 23.7609 119.092 23.8657C119.247 23.9835 119.369 24.1387 119.448 24.3168C119.552 24.5631 119.6 24.8294 119.59 25.0965V27.0503C119.488 27.0703 119.386 27.0839 119.282 27.0911C119.19 27.0911 119.105 27.1018 119.039 27.1018C118.973 27.1018 118.883 27.1018 118.79 27.0911C118.687 27.084 118.585 27.0704 118.483 27.0503V25.212C118.499 25.0371 118.457 24.862 118.364 24.7129C118.316 24.6594 118.256 24.6178 118.189 24.5916C118.122 24.5654 118.05 24.5552 117.979 24.5619C117.919 24.5622 117.859 24.5693 117.801 24.5832C117.76 24.5908 117.72 24.6015 117.68 24.6152C117.722 24.7896 117.742 24.9687 117.739 25.1481V27.0609C117.638 27.081 117.535 27.0947 117.432 27.1018C117.341 27.1018 117.254 27.1124 117.19 27.1124C117.126 27.1124 117.032 27.1124 116.942 27.1018C116.838 27.0948 116.736 27.0811 116.634 27.0609V25.212C116.648 25.0382 116.609 24.8643 116.522 24.7129C116.476 24.6592 116.417 24.6175 116.351 24.5913C116.285 24.565 116.213 24.5549 116.142 24.5619C116.09 24.5626 116.039 24.5673 115.988 24.5761C115.953 24.5795 115.919 24.5885 115.886 24.6028V27.0521C115.785 27.0721 115.682 27.0858 115.579 27.0929C115.487 27.0929 115.402 27.1036 115.336 27.1036C115.27 27.1036 115.18 27.1036 115.087 27.0929C114.984 27.0857 114.881 27.072 114.78 27.0521V23.8355C114.933 23.784 115.116 23.7325 115.331 23.6828C115.594 23.627 115.863 23.6014 116.132 23.6064V23.6064Z" fill="white"/>
<path d="M52.0883 16.2693L53.5092 16.3723V16.2693H52.0883Z" fill="white"/>
<path d="M104.626 26.0557H38.3322V26.8975H104.626V26.0557Z" fill="white"/>
<path d="M31.6558 13.2516H29.4747C28.9185 13.2516 28.4677 13.7025 28.4677 14.2587V23.0114C28.4677 23.5676 28.9185 24.0185 29.4747 24.0185H31.6558C32.212 24.0185 32.6628 23.5676 32.6628 23.0114V14.2587C32.6628 13.7025 32.212 13.2516 31.6558 13.2516Z" fill="white"/>
<path d="M82.3906 31.0022C81.6216 31.0999 80.6483 30.8441 80.3534 30.3646C80.3126 30.3094 80.2839 30.2461 80.2693 30.179C80.2548 30.1119 80.2546 30.0425 80.2689 29.9753C80.2832 29.9082 80.3115 29.8448 80.3521 29.7894C80.3927 29.734 80.4446 29.6879 80.5044 29.6541C80.7584 29.4978 81.174 29.615 81.1953 29.8974C81.2184 30.2154 81.3729 30.6629 82.3107 30.7855C82.4546 30.8121 82.4688 30.9915 82.3906 31.0022Z" fill="white"/>
</g>
<defs>
<clipPath id="clip0">
<rect width="141.933" height="40" fill="white"/>
</clipPath>
</defs>
</svg>
