<svg width="147" height="35" viewBox="0 0 147 35" fill="none" xmlns="http://www.w3.org/2000/svg">
<path fill-rule="evenodd" clip-rule="evenodd" d="M0 19.3157H4.82244V32.6667H14.3296V24.7393H18.4626V32.6667H27.9694V19.3157H32.7918L25.7649 12.521V6.15005H21.6313V8.52438L16.3959 3.46205L0 19.3157Z" fill="#38CCFF"/>
<path fill-rule="evenodd" clip-rule="evenodd" d="M23.7143 0.859397C23.4726 0.426845 23.0701 0.124163 22.5864 0.124163C21.9026 0.124163 21.3784 0.846305 21.3784 1.42287C21.3784 2.54196 22.1037 3.06772 23.7143 4.71309C25.3248 3.06772 26.0497 2.54196 26.0497 1.42287C26.0497 0.846305 25.5259 0.124163 24.8422 0.124163C24.3586 0.124163 23.9559 0.426845 23.7143 0.859397Z" fill="#FF0082"/>
<path fill-rule="evenodd" clip-rule="evenodd" d="M50.4923 23.0257C50.423 23.1639 50.3883 23.232 50.3883 23.3352C50.3883 23.4383 50.4576 23.5415 50.5963 23.5415H55.382C55.6922 23.5415 55.7268 23.5747 55.7268 23.8842V26.9127C55.7268 27.2222 55.6903 27.2572 55.3802 27.2572H44.2251C44.0536 27.2572 43.9843 27.1872 43.9843 27.0841C43.9843 27.0159 44.0189 26.9459 44.0536 26.8777L49.7351 16.3164C49.7962 16.2115 49.8312 16.0934 49.8373 15.9719C49.8373 15.8706 49.7698 15.8006 49.6311 15.8006H45.0169C44.7068 15.8006 44.6739 15.7656 44.6739 15.4561V12.4293C44.6739 12.1198 44.7068 12.0848 45.0169 12.0848H56.0005C56.1738 12.0848 56.2432 12.1217 56.2432 12.223C56.2363 12.2963 56.2126 12.367 56.1738 12.4293L50.4923 23.0257ZM58.3651 21.1448V12.3483C58.3651 12.0664 58.3979 11.9964 58.7026 11.9964H62.3845C62.6874 11.9964 62.722 12.0664 62.722 12.3464V21.0748C62.722 23.116 63.5996 23.9615 64.9844 23.9615C66.371 23.9615 67.2468 23.116 67.2468 21.0748V12.3483C67.2468 12.0664 67.2815 11.9964 67.5844 11.9964H71.2662C71.5709 11.9964 71.6038 12.0664 71.6038 12.3464V21.1448C71.6038 24.9453 69.4764 27.902 64.9844 27.902C60.4925 27.902 58.3651 24.9453 58.3651 21.143V21.1448ZM88.4641 14.36C88.4988 14.36 88.5681 14.36 88.6028 14.3231C89.7011 13.0152 91.1808 11.6704 93.4852 11.6704C97.3714 11.6704 98.6759 14.0836 98.6759 17.4972V26.9109C98.6759 27.1872 98.6431 27.2572 98.3329 27.2572H94.6182C94.3098 27.2572 94.2752 27.1872 94.2752 26.9127V18.4275C94.2752 16.6001 93.6567 15.5998 91.9708 15.5998C90.1828 15.5998 89.0151 16.8764 89.0151 18.9802V26.9127C89.0151 27.1891 88.9804 27.2572 88.6703 27.2572H84.9574C84.6472 27.2572 84.6126 27.1872 84.6126 26.9127V18.4275C84.6126 16.6001 83.994 15.5998 82.3082 15.5998C80.5202 15.5998 79.3853 16.8764 79.3853 18.9802V26.9127C79.3853 27.1891 79.3525 27.2572 79.0423 27.2572H75.3276C75.0174 27.2572 74.9846 27.1872 74.9846 26.9127V12.3925C74.9846 12.1162 75.0193 12.0462 75.3276 12.0462H79.0423C79.3525 12.0462 79.3853 12.1162 79.3853 12.3925V13.7705C79.3853 13.8055 79.4893 13.8405 79.524 13.8405C79.5568 13.8405 79.6262 13.8405 79.6608 13.8036C80.7957 12.5638 81.9998 11.6667 83.9247 11.6667C86.4699 11.6667 87.6394 12.772 88.3254 14.2881C88.3619 14.3581 88.4294 14.3581 88.4641 14.3581V14.36ZM109.995 15.6403C107.7 15.6403 106.302 17.5893 106.302 19.8184C106.302 22.1506 107.7 24.0297 109.993 24.0297C112.29 24.0297 113.653 22.1138 113.653 19.7834C113.653 17.5543 112.29 15.6385 109.995 15.6385V15.6403ZM106.211 13.636C106.211 13.6691 106.313 13.7041 106.348 13.7041C106.381 13.7041 106.45 13.7041 106.485 13.6691C107.375 12.632 109.052 11.768 111.002 11.768C115.25 11.768 118.125 15.3971 118.125 19.7189C118.125 24.0407 115.25 27.7749 111.002 27.7749C109.05 27.7749 107.375 26.909 106.485 25.8737C106.448 25.8387 106.381 25.8387 106.348 25.8387C106.313 25.8387 106.211 25.8737 106.211 25.9087V34.6555C106.211 34.9318 106.175 35 105.868 35H102.172C101.862 35 101.827 34.9318 101.827 34.6555V12.4938C101.827 12.2175 101.862 12.1475 102.17 12.1475H105.868C106.176 12.1475 106.211 12.2175 106.211 12.4938V13.636V13.636ZM124.518 17.8878C124.518 18.1881 124.551 18.2212 124.849 18.2212H130.249C130.581 18.2212 130.614 18.1881 130.581 17.8878C130.417 16.3182 129.395 15.3179 127.549 15.3179C125.903 15.3179 124.684 16.3514 124.52 17.8878H124.518ZM128.671 24.3834C130.218 24.3834 131.937 23.8952 132.933 23.1288C132.968 23.092 133.037 23.0588 133.139 23.0588C133.243 23.0588 133.276 23.1639 133.276 23.4089V26.4393C133.276 26.6125 133.174 26.7175 132.933 26.8906C132.108 27.4838 129.943 27.902 128.259 27.902C123.205 27.902 120.043 24.3834 120.043 19.7834C120.043 15.2516 123.137 11.768 127.605 11.768C132.418 11.768 135.064 15.1484 135.064 20.0616V20.6198C135.064 21.3161 135.029 21.4561 134.686 21.4561H124.889C124.58 21.4561 124.511 21.4911 124.511 21.7693C124.684 23.372 126.128 24.3834 128.671 24.3834V24.3834ZM137.961 27.2572C137.655 27.2572 137.62 27.1872 137.62 26.9127V12.3925C137.62 12.1162 137.655 12.0462 137.961 12.0462H141.563C141.869 12.0462 141.902 12.1162 141.902 12.3925V14.185C141.902 14.22 142.003 14.2531 142.039 14.2531C142.072 14.2531 142.141 14.2531 142.174 14.22C142.889 13.0465 144.552 11.6667 146.659 11.6667C146.965 11.6667 147 11.7348 147 12.013V15.6348C147 15.9111 146.965 16.0143 146.796 16.0143C146.659 16.0143 146.285 15.9443 145.743 15.9443C143.159 15.9443 141.97 17.9449 141.97 21.3603V26.9127C141.97 27.1891 141.937 27.2572 141.63 27.2572H137.961V27.2572Z" fill="#2B2C2D"/>
</svg>
